<?xml version="1.0" encoding="utf-8"?>
<!-- Generator: Adobe Illustrator 22.0.1, SVG Export Plug-In . SVG Version: 6.00 Build 0)  -->
<svg version="1.1" id="Layer_1" xmlns="http://www.w3.org/2000/svg" xmlns:xlink="http://www.w3.org/1999/xlink" x="0px" y="0px"
	 viewBox="0 0 204.7 208" style="enable-background:new 0 0 204.7 208;" xml:space="preserve">
<g>
	<path d="M96.3,19.6V28c4.9,4.5,8.4,8.9,10.4,13.2c0.2,1.6,0.3,2.8,0.3,3.5c0,2.2-0.4,4.5-1.2,6.9l0.9,2.2l0.1,2
		c0,5.8-2.1,8.8-6.4,8.8c-0.2,0-0.5,0-0.9,0c-0.3,2.2-1,3.9-2.1,5s-2.6,1.7-4.4,1.7c-0.8,0-1.8-0.2-2.9-0.6c-0.5,1.7-1.2,3-2.2,3.9
		c-1,0.9-2.3,1.3-3.8,1.3c-1.1,0-2.1-0.2-3-0.7c-0.8-0.5-1.6-1.2-2.1-2.2l-0.5,2.1l-0.2,21.2c0,4.5-0.5,8-1.6,10.3s-2.6,3.4-4.7,3.4
		c-2.4,0-4.1-1.1-5.1-3.3c-1-2.2-1.5-6-1.5-11.6l-0.5-24l-2.2-2.4l-1.5-16.2c2.2-7.4,4.7-14.1,7.6-19.9V19.9
		c4.4-2.1,9.2-3.1,14.2-3.1C87.4,16.8,91.9,17.7,96.3,19.6z M93.3,21.6c-3.6-1.2-7.2-1.8-10.7-1.8c-3.7,0-7.3,0.7-11,2.1v10.7
		c-4,10-6.5,16.6-7.5,20l1.3,14.9l8.5,9.1c1.5-1.7,2.3-3.7,2.3-5.9c0-3.4-1.7-6.7-5.2-10c2-3.6,3.1-7.3,3.1-11.1l-0.1-1l2.9,0.1
		L77,50c0,3.5-0.8,6.9-2.5,10.1c1.8,2.3,3.1,4.5,3.8,6.5l0.1-5.3c-0.6-1.1-1-2.1-1.3-3.1c-0.3-1-0.4-2-0.4-3c0-4.5,2.6-8.1,7.8-10.8
		l1.8,4.1c0.8-2.6,3.1-5,6.7-7.1l1.6,3.6c1.8-2.2,3.9-3.8,6.2-4.8l3.1,7.4c0.3-2,0.4-3.3,0.4-3.9c0-0.4-0.1-1.1-0.2-2.1
		c-2.7-4.5-6.3-8.6-10.8-12.1V21.6z M99.4,44.3c-1.2,0.9-2.3,2.1-3.4,3.8l3.5,7.9v5.7c2.9,0,4.4-1.8,4.4-5.5l-0.1-2.3L99.4,44.3z
		 M91.7,45.6c-2.1,1.4-3.3,3.7-3.7,6.9l2.7,6.1l-0.1,8.6c0.9,0.6,1.8,0.9,2.5,0.9c1.2,0,2.1-0.5,2.8-1.5s0.9-2.4,0.9-4.3L96.7,57
		L91.7,45.6z M83.3,48.4c-2.5,1.5-3.8,3.7-3.8,6.7c0,0.9,0.2,1.7,0.5,2.6c0.3,0.9,0.8,1.8,1.4,2.7V68c0,1.6,0.2,2.8,0.7,3.6
		c0.5,0.8,1.1,1.2,2,1.2c1.3,0,2.2-0.6,2.9-1.8c0.6-1.2,1-2.9,1-5.2l-0.1-6.2L83.3,48.4z M67.8,73.9l0.5,21.5
		c0,7.6,1.3,11.5,3.8,11.5c1.1,0,1.9-1.2,2.5-3.6s0.9-5.9,0.9-10.7l0.1-13.4c-0.4,0.4-0.8,0.9-1.5,1.4L67.8,73.9z"/>
</g>
<g>
	<path d="M97.8,188H45.6v-43.5c0-6.2,1.8-11.5,5.4-16.1c3.6-4.5,8.5-7.6,14.7-9.2l41.8-10.8v-9.1l26.2-6.7v9.2
		c2.2-0.5,4.6-0.8,7-0.8c6.8,0,12.8,2.6,17.9,7.9c5.1,5.2,7.7,11.3,7.7,18.3v43.4L97.8,188z M94.9,185.1v-40.4
		c0-6.5-2.3-12-6.9-16.5c-4.6-4.5-10.2-6.7-16.9-6.7c-6.5,0-11.9,2.2-16.3,6.6c-4.3,4.4-6.5,9.9-6.5,16.6v40.4H94.9z M81.2,149.8
		l-6.5,2.6H63.2l-2-2.6v-7.5l2,2.2h11.5l6.5-2.2V149.8z M163.5,168.4v-41.1c0-6.3-2.3-11.8-6.9-16.5c-4.6-4.7-10-7.1-16.2-7.1
		c-1.9,0-4.1,0.3-6.6,0.9v11.9l-16.7,4.6v35.1l-9.5,2.2v-47l-30.3,7.7c6.5,2,11.6,5.2,15.1,9.7c3.6,4.5,5.4,9.7,5.4,15.8v40.4
		L163.5,168.4z"/>
</g>
</svg>
