<?xml version="1.0" encoding="utf-8"?>
<!-- Generator: Adobe Illustrator 22.0.1, SVG Export Plug-In . SVG Version: 6.00 Build 0)  -->
<svg version="1.1" id="Layer_1" xmlns="http://www.w3.org/2000/svg" xmlns:xlink="http://www.w3.org/1999/xlink" x="0px" y="0px"
	 viewBox="0 0 257.3 154" style="enable-background:new 0 0 257.3 154;" xml:space="preserve">
<g>
	<path d="M166.1,96.8c-1.8,2.2-3.9,3.9-6,5c-2.1,1.2-4.6,1.7-7.1,1.7c-4.1,0-7.4-1.5-10-4.3s-3.9-6.5-3.9-11c0-3.1,0.3-6.1,0.8-9.1
		l0.8-4.4c0.8-4.8,1.1-8.1,1.1-9.7c0-2.3-0.8-4.2-2.3-5.7s-3.5-2.3-5.9-2.3c-2.4,0-5.2,1.3-8.5,3.7c-0.8,0.6-1.6,0.9-2.2,0.9
		c-1.5,0-2.2-0.7-2.2-2.1c0-1.7,1.5-3.5,4.4-5.1s5.8-2.5,8.7-2.5c3.8,0,7,1.3,9.5,3.8c2.5,2.5,3.8,5.7,3.8,9.7c0,2.2-0.3,5-0.7,8.1
		l-0.8,5.2c-0.7,4.2-1,7.3-1,9.4c0,3,0.8,5.4,2.4,7.4c1.7,1.9,3.7,2.9,6.2,2.9c2.8,0,5.2-0.9,7.5-2.7c2.2-1.8,4.1-4.6,5.7-8.3
		c0.6-5.5,1.7-9.9,3-12.9c1.5-3,3.7-5.9,6.9-8.5c5.3-4.6,11.5-6.8,18.4-6.8c7.8,0,14.5,2.7,20,8.3c5.5,5.5,8.4,12.2,8.4,20v18.1
		c0,5-0.5,8-1.5,8.9c-1,1-3.9,1.4-8.9,1.4h-36.1c-5,0-7.9-0.5-8.8-1.5c-1-1-1.5-3.9-1.5-8.8L166.1,96.8L166.1,96.8z M168.6,87.4
		v18.1c0,3.7,0.4,5.8,1.2,6.6c0.8,0.8,2.9,1.2,6.6,1.2h36.1c4,0,6.2-0.3,6.9-0.9c0.7-0.6,0.9-2.9,0.9-6.8V87.4h-5
		c-0.3-5.4-2.3-10.3-6.3-14.7l3.6-3.7c-5.6-5-11.7-7.4-18.2-7.4c-4.8,0-9.6,1.6-14.7,4.8l3,4.3c-5.3,4.3-8.3,9.9-8.6,16.7H168.6z
		 M171.4,84.9c0.9-5.7,3.4-10.6,7.6-14.7l-1.6-2.1c-4.8,4.5-7.8,10-8.8,16.7L171.4,84.9L171.4,84.9z M178.9,87.4
		c0-4.3,1.6-7.9,4.6-10.9c3-3,6.7-4.6,11-4.6s7.9,1.6,10.9,4.6c3,3,4.6,6.7,4.6,11s-1.6,8-4.6,11s-6.7,4.6-10.9,4.6
		c-4.3,0-8-1.6-11-4.6C180.5,95.4,178.9,91.7,178.9,87.4z M181.5,87.4c0,3.6,1.3,6.6,3.8,9.1c2.5,2.5,5.5,3.8,9.1,3.8
		c3.6,0,6.6-1.3,9.1-3.8c2.5-2.5,3.8-5.5,3.8-9.1c0-3.6-1.3-6.6-3.8-9.1c-2.5-2.5-5.5-3.8-9.1-3.8c-3.6,0-6.6,1.3-9.1,3.8
		C182.8,80.8,181.5,83.9,181.5,87.4z M185.4,87.5c0-2.4,0.9-4.6,2.6-6.3c1.7-1.7,3.9-2.6,6.4-2.6c2.4,0,4.6,0.9,6.3,2.6
		c1.7,1.7,2.6,3.9,2.6,6.3c0,2.5-0.9,4.7-2.6,6.4c-1.7,1.7-3.9,2.6-6.3,2.6c-2.5,0-4.7-0.9-6.4-2.6
		C186.3,92.1,185.4,89.9,185.4,87.5z M212.4,72.9c2.8,3.5,4.5,7.5,5,11.9h2.7c-0.6-4.8-2.6-9.4-5.9-14L212.4,72.9z"/>
</g>
<g>
	<path d="M130.4,77.2c0,13.9-5,25.6-15,35.3s-21.9,14.6-35.8,14.6s-25.8-4.9-35.7-14.6s-15-21.6-15-35.3s5-25.6,15-35.4
		c10-9.6,21.9-14.5,35.8-14.5s25.8,4.9,35.7,14.5C125.4,51.5,130.4,63.3,130.4,77.2z M127,77.5v-1.8c-9-1-13.5-1.5-13.6-1.5
		c-0.2,0-2.5,0.2-6.9,0.7l2.6,5l-6.7,2.4l-3.8-8.6l-1.2,0.8c2.1,4,3.3,7.8,3.6,11.5c-2.2,2.6-4.5,5.3-6.7,8.1c0,5.9-0.6,11.3-1.8,16
		l-6.7,5.7l-4.8-3.1c-0.4-6.7-1.6-13.5-3.3-20.3l-4.2-5.7l-9.1-2.1l-2.3-5.5l1.6-8c2.6-0.8,6.4-2.1,11.4-4.3
		c1.2,0.8,2.6,1.4,4.4,1.7c1.6,0.3,3.1,0.5,4.6,0.7c0,0,2.2,0.6,6.6,1.8c2.6,0.7,4.9,1.1,6.7,1.2l2.1-5.2h-2.5l-1.6-8.1l-6.5-0.3
		l0.4,2.6l3.3,4.2L89.9,64l0.6,1.9L85.9,67l1.7-1.3l-1.3-3.7l-3.1-2.1l-2.4,2.2l-3.4-0.7l-2.1,3.9l-4-1.9l3.1-3.7l4.6-1.3l1.9-2.8
		l6.8-3.1l1.6-1.7l1.6-6.3l-4.1,2.1l1.8,1.1l-2.9,2.7l-1.1-2.9l-1.5,2.3l-4.6-3.9l9.4-8.2h7.8l0.9-4.6c-5.2-1.9-10.7-2.9-16.2-2.9
		c-6.2,0-11.4,0.9-15.4,2.5c1,0.8,1.5,1.6,1.5,2.4c0,0.4-0.4,0.8-1.3,1c-0.6,0.1-1.2,0.2-1.7,0.3c-1.7,0.5-3.3,1.5-5,2.7
		s-3.2,3.7-4.7,7c-1.2,2.6-2.4,4-3.7,4c-0.9,0-1.6-0.7-2.2-2.1c-0.7-1.5-1-2.1-1-2.1c-1.3,0-2.4,0.3-3.5,1c-2.8,1.8-5.4,6-8,12.3
		c-2.7,6.6-4,12.8-4,18.7c0,13.1,4.7,24.2,14,33.1s20.5,13.5,33.6,13.5s24.4-4.6,33.8-13.7S127,90.6,127,77.5z M71.3,44.8L69.6,46
		l-2.9,0.4l1.1-3.7h2.9L71.3,44.8z M75.5,52.1L74,53.8l-0.7-1.9l1.1-1.7L75.5,52.1z M81.5,51.9l-2.3,2.4L77,54.1l1.9-2.4l-1.3-0.5
		l-1.5-2.5l0.8-1.9L81.5,51.9z M84.1,65.2L84,67.3L82,65.2H84.1z"/>
</g>
</svg>
