<?xml version="1.0" encoding="utf-8"?>
<!-- Generator: Adobe Illustrator 22.0.1, SVG Export Plug-In . SVG Version: 6.00 Build 0)  -->
<svg version="1.1" id="Layer_1" xmlns="http://www.w3.org/2000/svg" xmlns:xlink="http://www.w3.org/1999/xlink" x="0px" y="0px"
	 viewBox="0 0 420.9 595.3" style="enable-background:new 0 0 420.9 595.3;" xml:space="preserve">
<style type="text/css">
	.st0{fill:#FFFFFF;stroke:#010101;stroke-width:0.75;stroke-linejoin:round;stroke-miterlimit:10;}
	.st1{enable-background:new    ;}
	.st2{fill:#010101;}
	.st3{fill:#FFFFFF;stroke:#000000;stroke-width:0.75;stroke-linejoin:round;stroke-miterlimit:10;}
	.st4{fill:#FFFFFF;stroke:#000000;stroke-width:0.75;}
</style>
<g id="bulle_4_">
	<g>
		<g>
			<polygon class="st0" points="751.8,510.3 726.1,507.5 733.2,528 701.6,520.9 698.2,538.7 676.8,523.6 674.1,553.9 650.6,525.3 
				641.2,552 629.9,525.3 594,540.9 601.6,510.3 569.7,509.7 582.9,492 554.2,477.4 586.3,462.5 574.3,442.4 600.7,449.3 
				591.8,423.5 627,430.7 634.3,398.3 652.4,429.4 673.4,413 686.9,434.4 716.6,411.2 717.6,439.3 747.2,437.3 727,463.7 
				751.6,476.7 730.1,489.3 			"/>
		</g>
	</g>
</g>
<text transform="matrix(1 0 0 1 590.1922 476.8123)" class="st2" style="font-family:'Snap-itmono-5.3-Regular'; font-size:16.7612px;">À la découverte </text>
<text transform="matrix(1 0 0 1 613.8636 496.9256)" class="st2" style="font-family:'Snap-itmono-5.3-Regular'; font-size:16.7612px;">d՚Internet</text>
<g id="font_3_">
	<g>
		<g class="st1">
			<g>
				<polygon class="st3" points="199.8,423.9 206.8,419.9 209.1,424.1 202.2,428.1 				"/>
			</g>
			<g>
				<polygon class="st3" points="197.7,425 204.6,421 206.8,419.9 199.8,423.9 				"/>
			</g>
			<g>
				<polygon class="st3" points="202.2,428.1 209.1,424.1 211.5,427.5 204.6,431.5 				"/>
			</g>
			<g>
				<polygon class="st3" points="204.6,431.5 211.5,427.5 214.8,430.2 207.9,434.2 				"/>
			</g>
			<g>
				<polygon class="st3" points="207.9,434.2 214.8,430.2 217.9,431.2 210.9,435.3 				"/>
			</g>
			<g>
				<polygon class="st3" points="210.9,435.3 217.9,431.2 220.8,430.4 213.9,434.3 				"/>
			</g>
			<g>
				<polygon class="st3" points="218.4,431.7 225.3,427.7 223.3,433.8 216.5,437.8 				"/>
			</g>
			<g>
				<polygon class="st3" points="218.5,408.7 225.3,404.7 225.3,427.7 218.4,431.7 				"/>
			</g>
			<g>
				<polygon class="st3" points="206.2,398.3 213.2,394.3 222.5,399.8 215.6,403.8 				"/>
			</g>
			<g>
				<polygon class="st3" points="224.6,409 231.6,404.9 231.6,408.3 224.6,412.3 				"/>
			</g>
			<g>
				<polygon class="st3" points="218.5,405.4 225.4,401.4 231.6,404.9 224.6,409 				"/>
			</g>
			<g>
				<polygon class="st3" points="215.7,395.2 222.5,391.1 225.4,392.8 218.5,396.8 				"/>
			</g>
			<g>
				<polygon class="st3" points="218.5,396.8 225.4,392.8 225.4,401.4 218.5,405.4 				"/>
			</g>
			<g>
				<polygon class="st3" points="218.5,396.8 218.5,405.4 224.6,409 224.6,412.3 218.5,408.7 218.4,431.7 216.5,437.8 212.1,439.1 
					207.9,437.6 203.3,434 200.4,429.7 197.7,425 199.8,423.9 202.2,428.1 204.6,431.5 207.9,434.2 210.9,435.3 213.9,434.3 
					215.5,429.6 215.6,407 206.2,401.6 206.2,398.3 215.6,403.8 215.7,395.2 				"/>
			</g>
		</g>
		<g class="st1">
			<g>
				<polygon class="st3" points="231.8,427.7 238.8,423.6 238.7,446 231.8,450.1 				"/>
			</g>
			<g>
				<polygon class="st3" points="232.4,423.6 239.4,419.6 238.8,423.6 231.8,427.7 				"/>
			</g>
			<g>
				<polygon class="st3" points="234.2,421.5 241.2,417.5 239.4,419.6 232.4,423.6 				"/>
			</g>
			<g>
				<polygon class="st3" points="232.3,417.9 239.3,413.9 243.5,413.7 236.6,417.7 				"/>
			</g>
			<g>
				<polygon class="st3" points="236.6,417.7 243.5,413.7 248.6,415.9 241.6,419.9 				"/>
			</g>
			<g>
				<polygon class="st3" points="241.6,419.9 248.6,415.9 255.1,422.5 248.2,426.4 				"/>
			</g>
			<g>
				<polygon class="st3" points="248.2,426.4 255.1,422.5 257.6,427.5 250.8,431.5 				"/>
			</g>
			<g>
				<polygon class="st3" points="253.6,432.4 260.5,428.5 260.5,458.7 253.5,462.7 				"/>
			</g>
			<g>
				<polygon class="st3" points="255.9,430.8 262.8,426.8 260.5,428.5 253.6,432.4 				"/>
			</g>
			<g>
				<polygon class="st3" points="253.6,427.4 260.6,423.4 262.8,426.8 255.9,430.8 				"/>
			</g>
			<g>
				<polygon class="st3" points="248.2,426.4 250.8,431.5 250.8,429.6 253.6,427.4 255.9,430.8 253.6,432.4 253.5,462.7 250.6,461 
					250.7,436.8 246.4,428.3 241.3,423.1 237.4,421.4 234.2,421.5 232.4,423.6 231.8,427.7 231.8,450.1 229,448.4 229,425.8 
					229.6,420.7 232.3,417.9 236.6,417.7 241.6,419.9 				"/>
			</g>
		</g>
		<g class="st1">
			<g>
				<polygon class="st3" points="264.1,462.5 271.1,458.4 273.8,462.8 266.9,466.8 				"/>
			</g>
			<g>
				<polygon class="st3" points="266.9,466.8 273.8,462.8 277.1,465.6 270.1,469.6 				"/>
			</g>
			<g>
				<polygon class="st3" points="270.1,469.6 277.1,465.6 280.8,466 273.9,470 				"/>
			</g>
			<g>
				<polygon class="st3" points="278.5,468 285.4,463.9 283,469.8 276.1,473.8 				"/>
			</g>
			<g>
				<polygon class="st3" points="278.6,445 285.5,441 285.4,463.9 278.5,468 				"/>
			</g>
			<g>
				<polygon class="st3" points="275.7,440.2 282.6,436.1 295.8,443.7 288.9,447.8 				"/>
			</g>
			<g>
				<polygon class="st3" points="288.9,447.8 295.8,443.7 295.7,446.9 288.9,451 				"/>
			</g>
			<g>
				<polygon class="st3" points="266.9,466.8 270.1,469.6 273.9,470 275.6,465.7 275.7,440.2 288.9,447.8 288.9,451 278.6,445 
					278.5,468 276.1,473.8 270.4,473.1 265.5,469.1 262.3,463.9 264.1,462.5 				"/>
			</g>
		</g>
		<g class="st1">
			<g>
				<polygon class="st3" points="298.4,459.4 305.3,455.4 304,458.2 297,462.3 				"/>
			</g>
			<g>
				<polygon class="st3" points="296.1,456 302.9,452 306.4,450.7 299.5,454.8 				"/>
			</g>
			<g>
				<polygon class="st3" points="299.5,454.8 306.4,450.7 310.6,452 303.7,456 				"/>
			</g>
			<g>
				<polygon class="st3" points="316,472.4 322.8,468.4 323,468.5 316,472.5 				"/>
			</g>
			<g>
				<polygon class="st3" points="303.7,456 310.6,452 315,454.6 308.1,458.7 				"/>
			</g>
			<g>
				<polygon class="st3" points="315.1,469.3 322.1,465.3 322.8,468.4 316,472.4 				"/>
			</g>
			<g>
				<polygon class="st3" points="313.9,466.3 320.9,462.3 322.1,465.3 315.1,469.3 				"/>
			</g>
			<g>
				<polygon class="st3" points="308.1,458.7 315,454.6 320.9,462.3 313.9,466.3 				"/>
			</g>
			<g>
				<polygon class="st3" points="318.5,469.6 325.4,465.7 325.3,496.4 318.4,500.4 				"/>
			</g>
			<g>
				<polygon class="st3" points="315.6,466.2 322.5,462.2 326.8,461.5 319.9,465.6 				"/>
			</g>
			<g>
				<polygon class="st3" points="319.9,465.6 326.8,461.5 328.3,465.1 321.4,469.2 				"/>
			</g>
			<g>
				<polygon class="st3" points="308.1,458.7 313.9,466.3 315.1,469.3 316,472.4 316,472.5 315.6,469.4 315.6,466.2 319.9,465.6 
					321.4,469.2 318.5,469.6 318.4,500.4 315.5,498.8 315.6,476.4 311.9,467.6 307.2,461.4 304,459.4 300.8,458.5 298.4,459.4 
					297,462.3 294.5,459.7 296.1,456 299.5,454.8 303.7,456 				"/>
			</g>
		</g>
		<g class="st1">
			<g>
				<polygon class="st3" points="332.3,481.4 339.2,477.4 342.4,481.4 335.4,485.4 				"/>
			</g>
			<g>
				<polygon class="st3" points="330.7,477.2 337.7,473.1 339.2,477.4 332.3,481.4 				"/>
			</g>
			<g>
				<polygon class="st3" points="330.1,473 337,469 337.7,473.1 330.7,477.2 				"/>
			</g>
			<g>
				<polygon class="st3" points="335.4,485.4 342.4,481.4 346.5,484.9 339.6,488.9 				"/>
			</g>
			<g>
				<polygon class="st3" points="331,469 338,465 337,469 330.1,473 				"/>
			</g>
			<g>
				<polygon class="st3" points="333.3,466.8 340.2,462.8 338,465 331,469 				"/>
			</g>
			<g>
				<polygon class="st3" points="339.6,488.9 346.5,484.9 358.1,491.6 351.2,495.6 				"/>
			</g>
			<g>
				<polygon class="st3" points="331.5,463.1 338.4,459.1 342.4,459 335.5,463.1 				"/>
			</g>
			<g>
				<polygon class="st3" points="335.5,463.1 342.4,459 346.9,460.9 340,465 				"/>
			</g>
			<g>
				<path class="st3" d="M331.5,463.2l4.1-0.1l4.4,1.9l14.1,8.2L354,521l-2.9-1.6l0.1-20.4l-12-7l-4.8-4.1l-4.1-5.2l-2.2-6l-0.8-5.4
					l1.2-5.1L331.5,463.2z M330.7,477.2l1.6,4.3l3.2,4l4.1,3.5l11.6,6.7l0.1-20.8l-11-6.3l-3.9-1.6h-3.1L331,469l-0.9,4L330.7,477.2
					"/>
			</g>
			<g>
				<polygon class="st3" points="340,465 346.9,460.9 361,469.1 354.1,473.2 				"/>
			</g>
			<g>
				<polygon class="st3" points="354.1,473.2 361,469.1 360.9,517 354,521 				"/>
			</g>
		</g>
		<g class="st1">
			<g>
				<polygon class="st3" points="275.4,427.7 282.4,423.7 283.6,423.6 276.6,427.5 				"/>
			</g>
			<g>
				<polygon class="st3" points="279.4,431.5 286.3,427.4 285.9,428.6 279,432.6 				"/>
			</g>
			<g>
				<polygon class="st3" points="276.6,427.5 283.6,423.6 284.8,424.3 277.9,428.3 				"/>
			</g>
			<g>
				<polygon class="st3" points="276.6,432.2 275.4,430.5 275.1,429 275.4,427.7 276.6,427.5 277.9,428.3 279,429.7 279.4,431.5 
					279,432.6 277.9,432.9 				"/>
			</g>
			<g>
				<polygon class="st3" points="279,429.7 285.9,425.7 286.3,427.4 279.4,431.5 				"/>
			</g>
			<g>
				<polygon class="st3" points="277.9,428.3 284.8,424.3 285.9,425.7 279,429.7 				"/>
			</g>
		</g>
		<g class="st1">
			<g>
				<polygon class="st3" points="191.8,403.1 191.8,406.4 179.4,399.2 179.4,396 				"/>
			</g>
			<g>
				<polygon class="st3" points="191.8,403.1 198.7,399.1 198.7,402.3 191.8,406.4 				"/>
			</g>
			<g>
				<polygon class="st3" points="179.4,396 186.4,391.9 198.7,399.1 191.8,403.1 				"/>
			</g>
		</g>
		<g class="st1">
			<g>
				<polygon class="st3" points="117.1,375.8 123.9,371.8 126.3,376 119.4,380 				"/>
			</g>
			<g>
				<polygon class="st3" points="114.9,376.9 121.8,372.9 123.9,371.8 117.1,375.8 				"/>
			</g>
			<g>
				<polygon class="st3" points="119.4,380 126.3,376 128.7,379.4 121.8,383.5 				"/>
			</g>
			<g>
				<polygon class="st3" points="121.8,383.5 128.7,379.4 132,382.1 125.1,386.1 				"/>
			</g>
			<g>
				<polygon class="st3" points="125.1,386.1 132,382.1 135,383.1 128.1,387.2 				"/>
			</g>
			<g>
				<polygon class="st3" points="128.1,387.2 135,383.1 138,382.2 131.1,386.2 				"/>
			</g>
			<g>
				<polygon class="st3" points="135.6,383.6 142.5,379.6 140.5,385.7 133.6,389.8 				"/>
			</g>
			<g>
				<polygon class="st3" points="135.6,360.6 142.6,356.6 142.5,379.6 135.6,383.6 				"/>
			</g>
			<g>
				<polygon class="st3" points="123.4,350.3 130.3,346.2 139.7,351.6 132.8,355.7 				"/>
			</g>
			<g>
				<polygon class="st3" points="141.9,360.9 148.7,356.9 148.7,360.2 141.8,364.2 				"/>
			</g>
			<g>
				<polygon class="st3" points="135.6,357.3 142.6,353.3 148.7,356.9 141.9,360.9 				"/>
			</g>
			<g>
				<polygon class="st3" points="132.8,347.1 139.8,343 142.6,344.7 135.6,348.7 				"/>
			</g>
			<g>
				<polygon class="st3" points="135.6,348.7 142.6,344.7 142.6,353.3 135.6,357.3 				"/>
			</g>
			<g>
				<polygon class="st3" points="135.6,348.7 135.6,357.3 141.9,360.9 141.8,364.2 135.6,360.6 135.6,383.6 133.6,389.8 129.3,391 
					125.1,389.6 120.6,385.8 117.6,381.6 114.9,376.9 117.1,375.8 119.4,380 121.8,383.5 125.1,386.1 128.1,387.2 131.1,386.2 
					132.7,381.5 132.8,358.9 123.4,353.5 123.4,350.3 132.8,355.7 132.8,347.1 				"/>
			</g>
		</g>
		<g class="st1">
			<g>
				<polygon class="st3" points="148.8,396.2 155.7,392.2 158.5,396.6 151.6,400.6 				"/>
			</g>
			<g>
				<polygon class="st3" points="151.6,400.6 158.5,396.6 161.8,399.3 154.9,403.4 				"/>
			</g>
			<g>
				<polygon class="st3" points="154.9,403.4 161.8,399.3 165.6,399.7 158.6,403.8 				"/>
			</g>
			<g>
				<polygon class="st3" points="163.2,401.7 170.1,397.8 167.7,403.5 160.9,407.6 				"/>
			</g>
			<g>
				<polygon class="st3" points="163.3,378.8 170.2,374.8 170.1,397.8 163.2,401.7 				"/>
			</g>
			<g>
				<polygon class="st3" points="160.4,373.9 167.3,369.9 180.5,377.5 173.6,381.5 				"/>
			</g>
			<g>
				<polygon class="st3" points="173.6,381.5 180.5,377.5 180.5,380.7 173.6,384.7 				"/>
			</g>
			<g>
				<polygon class="st3" points="151.6,400.6 154.9,403.4 158.6,403.8 160.4,399.5 160.4,373.9 173.6,381.5 173.6,384.7 
					163.3,378.8 163.2,401.7 160.9,407.6 155.1,406.8 150.3,402.9 147,397.7 148.8,396.2 				"/>
			</g>
		</g>
		<g class="st1">
			<g>
				<polygon class="st3" points="160.2,361.5 167.1,357.4 168.3,357.3 161.4,361.4 				"/>
			</g>
			<g>
				<polygon class="st3" points="164.1,365.2 171,361.2 170.6,362.3 163.7,366.4 				"/>
			</g>
			<g>
				<polygon class="st3" points="161.4,361.4 168.3,357.3 169.6,358 162.6,362.1 				"/>
			</g>
			<g>
				<polygon class="st3" points="161.4,366 160.2,364.4 159.8,362.8 160.2,361.5 161.4,361.4 162.6,362.1 163.7,363.5 164.1,365.2 
					163.7,366.4 162.6,366.7 				"/>
			</g>
			<g>
				<polygon class="st3" points="163.7,363.5 170.6,359.5 171,361.2 164.1,365.2 				"/>
			</g>
			<g>
				<polygon class="st3" points="162.6,362.1 169.6,358 170.6,359.5 163.7,363.5 				"/>
			</g>
		</g>
	</g>
</g>
<g id="font_1_">
	<g>
		<g class="st1">
			<g>
				<polygon class="st3" points="199.8,342.8 206.8,338.8 209.1,343 202.2,347 				"/>
			</g>
			<g>
				<polygon class="st3" points="197.7,344 204.6,339.9 206.8,338.8 199.8,342.8 				"/>
			</g>
			<g>
				<polygon class="st3" points="202.2,347 209.1,343 211.5,346.5 204.6,350.5 				"/>
			</g>
			<g>
				<polygon class="st3" points="204.6,350.5 211.5,346.5 214.8,349.2 207.9,353.2 				"/>
			</g>
			<g>
				<polygon class="st3" points="207.9,353.2 214.8,349.2 217.9,350.1 210.9,354.2 				"/>
			</g>
			<g>
				<polygon class="st3" points="210.9,354.2 217.9,350.1 220.8,349.3 213.9,353.3 				"/>
			</g>
			<g>
				<polygon class="st3" points="218.4,350.6 225.3,346.7 223.3,352.7 216.5,356.8 				"/>
			</g>
			<g>
				<polygon class="st3" points="218.5,327.6 225.3,323.6 225.3,346.7 218.4,350.6 				"/>
			</g>
			<g>
				<polygon class="st3" points="206.2,317.2 213.2,313.3 222.5,318.7 215.6,322.7 				"/>
			</g>
			<g>
				<polygon class="st3" points="224.6,327.9 231.6,323.9 231.6,327.2 224.6,331.2 				"/>
			</g>
			<g>
				<polygon class="st3" points="218.5,324.3 225.4,320.3 231.6,323.9 224.6,327.9 				"/>
			</g>
			<g>
				<polygon class="st3" points="215.7,314.1 222.5,310.1 225.4,311.7 218.5,315.8 				"/>
			</g>
			<g>
				<polygon class="st3" points="218.5,315.8 225.4,311.7 225.4,320.3 218.5,324.3 				"/>
			</g>
			<g>
				<polygon class="st3" points="218.5,315.8 218.5,324.3 224.6,327.9 224.6,331.2 218.5,327.6 218.4,350.6 216.5,356.8 212.1,358 
					207.9,356.5 203.3,352.9 200.4,348.6 197.7,344 199.8,342.8 202.2,347 204.6,350.5 207.9,353.2 210.9,354.2 213.9,353.3 
					215.5,348.6 215.6,325.9 206.2,320.5 206.2,317.2 215.6,322.7 215.7,314.1 				"/>
			</g>
		</g>
		<g class="st1">
			<g>
				<polygon class="st3" points="231.8,346.6 238.8,342.6 238.7,364.9 231.8,369 				"/>
			</g>
			<g>
				<polygon class="st3" points="232.4,342.6 239.4,338.5 238.8,342.6 231.8,346.6 				"/>
			</g>
			<g>
				<polygon class="st3" points="234.2,340.4 241.2,336.4 239.4,338.5 232.4,342.6 				"/>
			</g>
			<g>
				<polygon class="st3" points="232.3,336.8 239.3,332.8 243.5,332.6 236.6,336.6 				"/>
			</g>
			<g>
				<polygon class="st3" points="236.6,336.6 243.5,332.6 248.6,334.8 241.6,338.8 				"/>
			</g>
			<g>
				<polygon class="st3" points="241.6,338.8 248.6,334.8 255.1,341.4 248.2,345.4 				"/>
			</g>
			<g>
				<polygon class="st3" points="248.2,345.4 255.1,341.4 257.6,346.5 250.8,350.5 				"/>
			</g>
			<g>
				<polygon class="st3" points="253.6,351.4 260.5,347.4 260.5,377.6 253.5,381.6 				"/>
			</g>
			<g>
				<polygon class="st3" points="255.9,349.7 262.8,345.7 260.5,347.4 253.6,351.4 				"/>
			</g>
			<g>
				<polygon class="st3" points="253.6,346.3 260.6,342.3 262.8,345.7 255.9,349.7 				"/>
			</g>
			<g>
				<polygon class="st3" points="248.2,345.4 250.8,350.5 250.8,348.5 253.6,346.3 255.9,349.7 253.6,351.4 253.5,381.6 
					250.6,379.9 250.7,355.7 246.4,347.2 241.3,342 237.4,340.3 234.2,340.4 232.4,342.6 231.8,346.6 231.8,369 229,367.4 
					229,344.8 229.6,339.7 232.3,336.8 236.6,336.6 241.6,338.8 				"/>
			</g>
		</g>
		<g class="st1">
			<g>
				<polygon class="st3" points="264.1,381.4 271.1,377.4 273.8,381.7 266.9,385.8 				"/>
			</g>
			<g>
				<polygon class="st3" points="266.9,385.8 273.8,381.7 277.1,384.5 270.1,388.5 				"/>
			</g>
			<g>
				<polygon class="st3" points="270.1,388.5 277.1,384.5 280.8,384.9 273.9,388.9 				"/>
			</g>
			<g>
				<polygon class="st3" points="278.5,386.9 285.4,382.9 283,388.7 276.1,392.7 				"/>
			</g>
			<g>
				<polygon class="st3" points="278.6,363.9 285.5,359.9 285.4,382.9 278.5,386.9 				"/>
			</g>
			<g>
				<polygon class="st3" points="275.7,359.1 282.6,355.1 295.8,362.7 288.9,366.7 				"/>
			</g>
			<g>
				<polygon class="st3" points="288.9,366.7 295.8,362.7 295.7,365.8 288.9,369.9 				"/>
			</g>
			<g>
				<polygon class="st3" points="266.9,385.8 270.1,388.5 273.9,388.9 275.6,384.7 275.7,359.1 288.9,366.7 288.9,369.9 
					278.6,363.9 278.5,386.9 276.1,392.7 270.4,392 265.5,388 262.3,382.9 264.1,381.4 				"/>
			</g>
		</g>
		<g class="st1">
			<g>
				<polygon class="st3" points="298.4,378.3 305.3,374.3 304,377.2 297,381.2 				"/>
			</g>
			<g>
				<polygon class="st3" points="296.1,375 302.9,370.9 306.4,369.6 299.5,373.7 				"/>
			</g>
			<g>
				<polygon class="st3" points="299.5,373.7 306.4,369.6 310.6,370.9 303.7,375 				"/>
			</g>
			<g>
				<polygon class="st3" points="316,391.3 322.8,387.3 323,387.4 316,391.4 				"/>
			</g>
			<g>
				<polygon class="st3" points="303.7,375 310.6,370.9 315,373.6 308.1,377.6 				"/>
			</g>
			<g>
				<polygon class="st3" points="315.1,388.2 322.1,384.2 322.8,387.3 316,391.3 				"/>
			</g>
			<g>
				<polygon class="st3" points="313.9,385.2 320.9,381.2 322.1,384.2 315.1,388.2 				"/>
			</g>
			<g>
				<polygon class="st3" points="308.1,377.6 315,373.6 320.9,381.2 313.9,385.2 				"/>
			</g>
			<g>
				<polygon class="st3" points="318.5,388.6 325.4,384.6 325.3,415.3 318.4,419.3 				"/>
			</g>
			<g>
				<polygon class="st3" points="315.6,385.1 322.5,381.1 326.8,380.4 319.9,384.5 				"/>
			</g>
			<g>
				<polygon class="st3" points="319.9,384.5 326.8,380.4 328.3,384 321.4,388.1 				"/>
			</g>
			<g>
				<polygon class="st3" points="308.1,377.6 313.9,385.2 315.1,388.2 316,391.3 316,391.4 315.6,388.3 315.6,385.1 319.9,384.5 
					321.4,388.1 318.5,388.6 318.4,419.3 315.5,417.7 315.6,395.4 311.9,386.5 307.2,380.3 304,378.3 300.8,377.4 298.4,378.3 
					297,381.2 294.5,378.6 296.1,375 299.5,373.7 303.7,375 				"/>
			</g>
		</g>
		<g class="st1">
			<g>
				<polygon class="st3" points="332.3,400.3 339.2,396.3 342.4,400.3 335.4,404.3 				"/>
			</g>
			<g>
				<polygon class="st3" points="330.7,396.1 337.7,392 339.2,396.3 332.3,400.3 				"/>
			</g>
			<g>
				<polygon class="st3" points="330.1,391.9 337,387.9 337.7,392 330.7,396.1 				"/>
			</g>
			<g>
				<polygon class="st3" points="335.4,404.3 342.4,400.3 346.5,403.8 339.6,407.8 				"/>
			</g>
			<g>
				<polygon class="st3" points="331,387.9 338,383.9 337,387.9 330.1,391.9 				"/>
			</g>
			<g>
				<polygon class="st3" points="333.3,385.8 340.2,381.7 338,383.9 331,387.9 				"/>
			</g>
			<g>
				<polygon class="st3" points="339.6,407.8 346.5,403.8 358.1,410.5 351.2,414.6 				"/>
			</g>
			<g>
				<polygon class="st3" points="331.5,382.1 338.4,378 342.4,378 335.5,382 				"/>
			</g>
			<g>
				<polygon class="st3" points="335.5,382 342.4,378 346.9,379.9 340,383.9 				"/>
			</g>
			<g>
				<path class="st3" d="M331.5,382.1l4.1-0.1l4.4,1.9l14.1,8.2l-0.1,47.8l-2.9-1.6l0.1-20.4l-12-7l-4.8-4.1l-4.1-5.2l-2.2-6
					l-0.8-5.4l1.2-5.1L331.5,382.1z M330.7,396.1l1.6,4.3l3.2,4l4.1,3.5l11.6,6.7l0.1-20.8l-11-6.3l-3.9-1.6h-3.1l-2.3,2.2l-0.9,4
					L330.7,396.1"/>
			</g>
			<g>
				<polygon class="st3" points="340,383.9 346.9,379.9 361,388 354.1,392.1 				"/>
			</g>
			<g>
				<polygon class="st3" points="354.1,392.1 361,388 360.9,435.9 354,439.9 				"/>
			</g>
		</g>
		<g class="st1">
			<g>
				<polygon class="st3" points="275.4,346.6 282.4,342.6 283.6,342.5 276.6,346.5 				"/>
			</g>
			<g>
				<polygon class="st3" points="279.4,350.4 286.3,346.3 285.9,347.5 279,351.5 				"/>
			</g>
			<g>
				<polygon class="st3" points="276.6,346.5 283.6,342.5 284.8,343.2 277.9,347.2 				"/>
			</g>
			<g>
				<polygon class="st3" points="276.6,351.1 275.4,349.5 275.1,347.9 275.4,346.6 276.6,346.5 277.9,347.2 279,348.6 279.4,350.4 
					279,351.5 277.9,351.8 				"/>
			</g>
			<g>
				<polygon class="st3" points="279,348.6 285.9,344.6 286.3,346.3 279.4,350.4 				"/>
			</g>
			<g>
				<polygon class="st3" points="277.9,347.2 284.8,343.2 285.9,344.6 279,348.6 				"/>
			</g>
		</g>
		<g class="st1">
			<g>
				<polygon class="st3" points="191.8,322 191.8,325.3 179.4,318.2 179.4,314.9 				"/>
			</g>
			<g>
				<polygon class="st3" points="191.8,322 198.7,318 198.7,321.2 191.8,325.3 				"/>
			</g>
			<g>
				<polygon class="st3" points="179.4,314.9 186.4,310.8 198.7,318 191.8,322 				"/>
			</g>
		</g>
		<g class="st1">
			<g>
				<polygon class="st3" points="117.1,294.7 123.9,290.7 126.3,294.9 119.4,298.9 				"/>
			</g>
			<g>
				<polygon class="st3" points="114.9,295.9 121.8,291.8 123.9,290.7 117.1,294.7 				"/>
			</g>
			<g>
				<polygon class="st3" points="119.4,298.9 126.3,294.9 128.7,298.3 121.8,302.4 				"/>
			</g>
			<g>
				<polygon class="st3" points="121.8,302.4 128.7,298.3 132,301 125.1,305 				"/>
			</g>
			<g>
				<polygon class="st3" points="125.1,305 132,301 135,302 128.1,306.1 				"/>
			</g>
			<g>
				<polygon class="st3" points="128.1,306.1 135,302 138,301.1 131.1,305.1 				"/>
			</g>
			<g>
				<polygon class="st3" points="135.6,302.5 142.5,298.5 140.5,304.6 133.6,308.7 				"/>
			</g>
			<g>
				<polygon class="st3" points="135.6,279.6 142.6,275.5 142.5,298.5 135.6,302.5 				"/>
			</g>
			<g>
				<polygon class="st3" points="123.4,269.2 130.3,265.1 139.7,270.6 132.8,274.6 				"/>
			</g>
			<g>
				<polygon class="st3" points="141.9,279.8 148.7,275.8 148.7,279.1 141.8,283.1 				"/>
			</g>
			<g>
				<polygon class="st3" points="135.6,276.3 142.6,272.2 148.7,275.8 141.9,279.8 				"/>
			</g>
			<g>
				<polygon class="st3" points="132.8,266 139.8,261.9 142.6,263.6 135.6,267.6 				"/>
			</g>
			<g>
				<polygon class="st3" points="135.6,267.6 142.6,263.6 142.6,272.2 135.6,276.3 				"/>
			</g>
			<g>
				<polygon class="st3" points="135.6,267.6 135.6,276.3 141.9,279.8 141.8,283.1 135.6,279.6 135.6,302.5 133.6,308.7 
					129.3,309.9 125.1,308.5 120.6,304.7 117.6,300.5 114.9,295.9 117.1,294.7 119.4,298.9 121.8,302.4 125.1,305 128.1,306.1 
					131.1,305.1 132.7,300.4 132.8,277.8 123.4,272.5 123.4,269.2 132.8,274.6 132.8,266 				"/>
			</g>
		</g>
		<g class="st1">
			<g>
				<polygon class="st3" points="148.8,315.2 155.7,311.1 158.5,315.5 151.6,319.5 				"/>
			</g>
			<g>
				<polygon class="st3" points="151.6,319.5 158.5,315.5 161.8,318.2 154.9,322.3 				"/>
			</g>
			<g>
				<polygon class="st3" points="154.9,322.3 161.8,318.2 165.6,318.6 158.6,322.7 				"/>
			</g>
			<g>
				<polygon class="st3" points="163.2,320.7 170.1,316.7 167.7,322.4 160.9,326.5 				"/>
			</g>
			<g>
				<polygon class="st3" points="163.3,297.7 170.2,293.7 170.1,316.7 163.2,320.7 				"/>
			</g>
			<g>
				<polygon class="st3" points="160.4,292.8 167.3,288.8 180.5,296.4 173.6,300.4 				"/>
			</g>
			<g>
				<polygon class="st3" points="173.6,300.4 180.5,296.4 180.5,299.7 173.6,303.6 				"/>
			</g>
			<g>
				<polygon class="st3" points="151.6,319.5 154.9,322.3 158.6,322.7 160.4,318.4 160.4,292.8 173.6,300.4 173.6,303.6 
					163.3,297.7 163.2,320.7 160.9,326.5 155.1,325.8 150.3,321.8 147,316.6 148.8,315.2 				"/>
			</g>
		</g>
		<g class="st1">
			<g>
				<polygon class="st3" points="160.2,280.4 167.1,276.3 168.3,276.2 161.4,280.3 				"/>
			</g>
			<g>
				<polygon class="st3" points="164.1,284.1 171,280.1 170.6,281.2 163.7,285.3 				"/>
			</g>
			<g>
				<polygon class="st3" points="161.4,280.3 168.3,276.2 169.6,276.9 162.6,281 				"/>
			</g>
			<g>
				<polygon class="st3" points="161.4,284.9 160.2,283.3 159.8,281.7 160.2,280.4 161.4,280.3 162.6,281 163.7,282.4 164.1,284.1 
					163.7,285.3 162.6,285.6 				"/>
			</g>
			<g>
				<polygon class="st3" points="163.7,282.4 170.6,278.4 171,280.1 164.1,284.1 				"/>
			</g>
			<g>
				<polygon class="st3" points="162.6,281 169.6,276.9 170.6,278.4 163.7,282.4 				"/>
			</g>
		</g>
	</g>
</g>
<g id="font_2_">
	<g>
		<g class="st1">
			<g>
				<polygon class="st3" points="199.8,261.7 206.8,257.7 209.1,262 202.2,266 				"/>
			</g>
			<g>
				<polygon class="st3" points="197.7,262.9 204.6,258.9 206.8,257.7 199.8,261.7 				"/>
			</g>
			<g>
				<polygon class="st3" points="202.2,266 209.1,262 211.5,265.4 204.6,269.4 				"/>
			</g>
			<g>
				<polygon class="st3" points="204.6,269.4 211.5,265.4 214.8,268.1 207.9,272.1 				"/>
			</g>
			<g>
				<polygon class="st3" points="207.9,272.1 214.8,268.1 217.9,269 210.9,273.1 				"/>
			</g>
			<g>
				<polygon class="st3" points="210.9,273.1 217.9,269 220.8,268.2 213.9,272.2 				"/>
			</g>
			<g>
				<polygon class="st3" points="218.4,269.6 225.3,265.6 223.3,271.7 216.5,275.7 				"/>
			</g>
			<g>
				<polygon class="st3" points="218.5,246.5 225.3,242.5 225.3,265.6 218.4,269.6 				"/>
			</g>
			<g>
				<polygon class="st3" points="206.2,236.2 213.2,232.2 222.5,237.6 215.6,241.6 				"/>
			</g>
			<g>
				<polygon class="st3" points="224.6,246.8 231.6,242.8 231.6,246.1 224.6,250.1 				"/>
			</g>
			<g>
				<polygon class="st3" points="218.5,243.2 225.4,239.2 231.6,242.8 224.6,246.8 				"/>
			</g>
			<g>
				<polygon class="st3" points="215.7,233.1 222.5,229 225.4,230.6 218.5,234.7 				"/>
			</g>
			<g>
				<polygon class="st3" points="218.5,234.7 225.4,230.6 225.4,239.2 218.5,243.2 				"/>
			</g>
			<g>
				<polygon class="st3" points="218.5,234.7 218.5,243.2 224.6,246.8 224.6,250.1 218.5,246.5 218.4,269.6 216.5,275.7 
					212.1,276.9 207.9,275.5 203.3,271.8 200.4,267.6 197.7,262.9 199.8,261.7 202.2,266 204.6,269.4 207.9,272.1 210.9,273.1 
					213.9,272.2 215.5,267.5 215.6,244.9 206.2,239.4 206.2,236.2 215.6,241.6 215.7,233.1 				"/>
			</g>
		</g>
		<g class="st1">
			<g>
				<polygon class="st3" points="231.8,265.5 238.8,261.5 238.7,283.9 231.8,287.9 				"/>
			</g>
			<g>
				<polygon class="st3" points="232.4,261.5 239.4,257.4 238.8,261.5 231.8,265.5 				"/>
			</g>
			<g>
				<polygon class="st3" points="234.2,259.3 241.2,255.3 239.4,257.4 232.4,261.5 				"/>
			</g>
			<g>
				<polygon class="st3" points="232.3,255.7 239.3,251.7 243.5,251.5 236.6,255.5 				"/>
			</g>
			<g>
				<polygon class="st3" points="236.6,255.5 243.5,251.5 248.6,253.7 241.6,257.7 				"/>
			</g>
			<g>
				<polygon class="st3" points="241.6,257.7 248.6,253.7 255.1,260.3 248.2,264.3 				"/>
			</g>
			<g>
				<polygon class="st3" points="248.2,264.3 255.1,260.3 257.6,265.4 250.8,269.4 				"/>
			</g>
			<g>
				<polygon class="st3" points="253.6,270.3 260.5,266.3 260.5,296.5 253.5,300.5 				"/>
			</g>
			<g>
				<polygon class="st3" points="255.9,268.7 262.8,264.7 260.5,266.3 253.6,270.3 				"/>
			</g>
			<g>
				<polygon class="st3" points="253.6,265.2 260.6,261.2 262.8,264.7 255.9,268.7 				"/>
			</g>
			<g>
				<polygon class="st3" points="248.2,264.3 250.8,269.4 250.8,267.4 253.6,265.2 255.9,268.7 253.6,270.3 253.5,300.5 
					250.6,298.9 250.7,274.6 246.4,266.1 241.3,260.9 237.4,259.2 234.2,259.3 232.4,261.5 231.8,265.5 231.8,287.9 229,286.3 
					229,263.7 229.6,258.6 232.3,255.7 236.6,255.5 241.6,257.7 				"/>
			</g>
		</g>
		<g class="st1">
			<g>
				<polygon class="st3" points="264.1,300.3 271.1,296.3 273.8,300.6 266.9,304.7 				"/>
			</g>
			<g>
				<polygon class="st3" points="266.9,304.7 273.8,300.6 277.1,303.4 270.1,307.4 				"/>
			</g>
			<g>
				<polygon class="st3" points="270.1,307.4 277.1,303.4 280.8,303.8 273.9,307.8 				"/>
			</g>
			<g>
				<polygon class="st3" points="278.5,305.9 285.4,301.8 283,307.6 276.1,311.6 				"/>
			</g>
			<g>
				<polygon class="st3" points="278.6,282.9 285.5,278.8 285.4,301.8 278.5,305.9 				"/>
			</g>
			<g>
				<polygon class="st3" points="275.7,278 282.6,274 295.8,281.6 288.9,285.6 				"/>
			</g>
			<g>
				<polygon class="st3" points="288.9,285.6 295.8,281.6 295.7,284.8 288.9,288.8 				"/>
			</g>
			<g>
				<polygon class="st3" points="266.9,304.7 270.1,307.4 273.9,307.8 275.6,303.6 275.7,278 288.9,285.6 288.9,288.8 278.6,282.9 
					278.5,305.9 276.1,311.6 270.4,310.9 265.5,307 262.3,301.8 264.1,300.3 				"/>
			</g>
		</g>
		<g class="st1">
			<g>
				<polygon class="st3" points="298.4,297.2 305.3,293.2 304,296.1 297,300.2 				"/>
			</g>
			<g>
				<polygon class="st3" points="296.1,293.9 302.9,289.9 306.4,288.6 299.5,292.6 				"/>
			</g>
			<g>
				<polygon class="st3" points="299.5,292.6 306.4,288.6 310.6,289.8 303.7,293.9 				"/>
			</g>
			<g>
				<polygon class="st3" points="316,310.2 322.8,306.2 323,306.3 316,310.3 				"/>
			</g>
			<g>
				<polygon class="st3" points="303.7,293.9 310.6,289.8 315,292.5 308.1,296.5 				"/>
			</g>
			<g>
				<polygon class="st3" points="315.1,307.1 322.1,303.1 322.8,306.2 316,310.2 				"/>
			</g>
			<g>
				<polygon class="st3" points="313.9,304.1 320.9,300.2 322.1,303.1 315.1,307.1 				"/>
			</g>
			<g>
				<polygon class="st3" points="308.1,296.5 315,292.5 320.9,300.2 313.9,304.1 				"/>
			</g>
			<g>
				<polygon class="st3" points="318.5,307.5 325.4,303.5 325.3,334.3 318.4,338.3 				"/>
			</g>
			<g>
				<polygon class="st3" points="315.6,304 322.5,300 326.8,299.4 319.9,303.4 				"/>
			</g>
			<g>
				<polygon class="st3" points="319.9,303.4 326.8,299.4 328.3,303 321.4,307 				"/>
			</g>
			<g>
				<polygon class="st3" points="308.1,296.5 313.9,304.1 315.1,307.1 316,310.2 316,310.3 315.6,307.2 315.6,304 319.9,303.4 
					321.4,307 318.5,307.5 318.4,338.3 315.5,336.6 315.6,314.3 311.9,305.4 307.2,299.2 304,297.3 300.8,296.4 298.4,297.2 
					297,300.2 294.5,297.5 296.1,293.9 299.5,292.6 303.7,293.9 				"/>
			</g>
		</g>
		<g class="st1">
			<g>
				<polygon class="st3" points="332.3,319.3 339.2,315.2 342.4,319.3 335.4,323.3 				"/>
			</g>
			<g>
				<polygon class="st3" points="330.7,315 337.7,310.9 339.2,315.2 332.3,319.3 				"/>
			</g>
			<g>
				<polygon class="st3" points="330.1,310.8 337,306.8 337.7,310.9 330.7,315 				"/>
			</g>
			<g>
				<polygon class="st3" points="335.4,323.3 342.4,319.3 346.5,322.8 339.6,326.7 				"/>
			</g>
			<g>
				<polygon class="st3" points="331,306.8 338,302.8 337,306.8 330.1,310.8 				"/>
			</g>
			<g>
				<polygon class="st3" points="333.3,304.7 340.2,300.6 338,302.8 331,306.8 				"/>
			</g>
			<g>
				<polygon class="st3" points="339.6,326.7 346.5,322.8 358.1,329.4 351.2,333.5 				"/>
			</g>
			<g>
				<polygon class="st3" points="331.5,301 338.4,297 342.4,296.9 335.5,300.9 				"/>
			</g>
			<g>
				<polygon class="st3" points="335.5,300.9 342.4,296.9 346.9,298.8 340,302.8 				"/>
			</g>
			<g>
				<path class="st3" d="M331.5,301.1l4.1-0.1l4.4,1.9l14.1,8.2l-0.1,47.8l-2.9-1.6l0.1-20.4l-12-7l-4.8-4.1l-4.1-5.2l-2.2-6
					l-0.8-5.4l1.2-5.1L331.5,301.1z M330.7,315l1.6,4.3l3.2,4l4.1,3.5l11.6,6.7l0.1-20.8l-11-6.3l-3.9-1.6h-3.1l-2.3,2.2l-0.9,4
					L330.7,315"/>
			</g>
			<g>
				<polygon class="st3" points="340,302.8 346.9,298.8 361,307 354.1,311 				"/>
			</g>
			<g>
				<polygon class="st3" points="354.1,311 361,307 360.9,354.8 354,358.8 				"/>
			</g>
		</g>
		<g class="st1">
			<g>
				<polygon class="st3" points="275.4,265.5 282.4,261.5 283.6,261.4 276.6,265.4 				"/>
			</g>
			<g>
				<polygon class="st3" points="279.4,269.3 286.3,265.2 285.9,266.5 279,270.4 				"/>
			</g>
			<g>
				<polygon class="st3" points="276.6,265.4 283.6,261.4 284.8,262.1 277.9,266.1 				"/>
			</g>
			<g>
				<polygon class="st3" points="276.6,270 275.4,268.4 275.1,266.8 275.4,265.5 276.6,265.4 277.9,266.1 279,267.6 279.4,269.3 
					279,270.4 277.9,270.7 				"/>
			</g>
			<g>
				<polygon class="st3" points="279,267.6 285.9,263.6 286.3,265.2 279.4,269.3 				"/>
			</g>
			<g>
				<polygon class="st3" points="277.9,266.1 284.8,262.1 285.9,263.6 279,267.6 				"/>
			</g>
		</g>
		<g class="st1">
			<g>
				<polygon class="st3" points="191.8,241 191.8,244.2 179.4,237.1 179.4,233.8 				"/>
			</g>
			<g>
				<polygon class="st3" points="191.8,241 198.7,236.9 198.7,240.2 191.8,244.2 				"/>
			</g>
			<g>
				<polygon class="st3" points="179.4,233.8 186.4,229.7 198.7,236.9 191.8,241 				"/>
			</g>
		</g>
		<g class="st1">
			<g>
				<polygon class="st3" points="117.1,213.6 123.9,209.6 126.3,213.9 119.4,217.9 				"/>
			</g>
			<g>
				<polygon class="st3" points="114.9,214.8 121.8,210.7 123.9,209.6 117.1,213.6 				"/>
			</g>
			<g>
				<polygon class="st3" points="119.4,217.9 126.3,213.9 128.7,217.2 121.8,221.3 				"/>
			</g>
			<g>
				<polygon class="st3" points="121.8,221.3 128.7,217.2 132,219.9 125.1,223.9 				"/>
			</g>
			<g>
				<polygon class="st3" points="125.1,223.9 132,219.9 135,220.9 128.1,225 				"/>
			</g>
			<g>
				<polygon class="st3" points="128.1,225 135,220.9 138,220.1 131.1,224 				"/>
			</g>
			<g>
				<polygon class="st3" points="135.6,221.5 142.5,217.4 140.5,223.6 133.6,227.6 				"/>
			</g>
			<g>
				<polygon class="st3" points="135.6,198.5 142.6,194.4 142.5,217.4 135.6,221.5 				"/>
			</g>
			<g>
				<polygon class="st3" points="123.4,188.1 130.3,184 139.7,189.5 132.8,193.5 				"/>
			</g>
			<g>
				<polygon class="st3" points="141.9,198.7 148.7,194.7 148.7,198 141.8,202 				"/>
			</g>
			<g>
				<polygon class="st3" points="135.6,195.2 142.6,191.1 148.7,194.7 141.9,198.7 				"/>
			</g>
			<g>
				<polygon class="st3" points="132.8,184.9 139.8,180.8 142.6,182.6 135.6,186.5 				"/>
			</g>
			<g>
				<polygon class="st3" points="135.6,186.5 142.6,182.6 142.6,191.1 135.6,195.2 				"/>
			</g>
			<g>
				<polygon class="st3" points="135.6,186.5 135.6,195.2 141.9,198.7 141.8,202 135.6,198.5 135.6,221.5 133.6,227.6 129.3,228.8 
					125.1,227.4 120.6,223.7 117.6,219.4 114.9,214.8 117.1,213.6 119.4,217.9 121.8,221.3 125.1,223.9 128.1,225 131.1,224 
					132.7,219.3 132.8,196.8 123.4,191.4 123.4,188.1 132.8,193.5 132.8,184.9 				"/>
			</g>
		</g>
		<g class="st1">
			<g>
				<polygon class="st3" points="148.8,234.1 155.7,230 158.5,234.4 151.6,238.4 				"/>
			</g>
			<g>
				<polygon class="st3" points="151.6,238.4 158.5,234.4 161.8,237.2 154.9,241.2 				"/>
			</g>
			<g>
				<polygon class="st3" points="154.9,241.2 161.8,237.2 165.6,237.5 158.6,241.6 				"/>
			</g>
			<g>
				<polygon class="st3" points="163.2,239.6 170.1,235.6 167.7,241.3 160.9,245.4 				"/>
			</g>
			<g>
				<polygon class="st3" points="163.3,216.6 170.2,212.6 170.1,235.6 163.2,239.6 				"/>
			</g>
			<g>
				<polygon class="st3" points="160.4,211.7 167.3,207.7 180.5,215.3 173.6,219.3 				"/>
			</g>
			<g>
				<polygon class="st3" points="173.6,219.3 180.5,215.3 180.5,218.6 173.6,222.6 				"/>
			</g>
			<g>
				<polygon class="st3" points="151.6,238.4 154.9,241.2 158.6,241.6 160.4,237.3 160.4,211.7 173.6,219.3 173.6,222.6 
					163.3,216.6 163.2,239.6 160.9,245.4 155.1,244.7 150.3,240.8 147,235.5 148.8,234.1 				"/>
			</g>
		</g>
		<g class="st1">
			<g>
				<polygon class="st3" points="160.2,199.3 167.1,195.2 168.3,195.1 161.4,199.2 				"/>
			</g>
			<g>
				<polygon class="st3" points="164.1,203 171,199 170.6,200.1 163.7,204.2 				"/>
			</g>
			<g>
				<polygon class="st3" points="161.4,199.2 168.3,195.1 169.6,195.9 162.6,199.9 				"/>
			</g>
			<g>
				<polygon class="st3" points="161.4,203.8 160.2,202.2 159.8,200.6 160.2,199.3 161.4,199.2 162.6,199.9 163.7,201.3 164.1,203 
					163.7,204.2 162.6,204.6 				"/>
			</g>
			<g>
				<polygon class="st3" points="163.7,201.3 170.6,197.3 171,199 164.1,203 				"/>
			</g>
			<g>
				<polygon class="st3" points="162.6,199.9 169.6,195.9 170.6,197.3 163.7,201.3 				"/>
			</g>
		</g>
	</g>
</g>
<g id="font_4_">
	<g>
		<g class="st1">
			<g>
				<polygon class="st3" points="199.8,180.6 206.8,176.6 209.1,180.9 202.2,184.9 				"/>
			</g>
			<g>
				<polygon class="st3" points="197.7,181.8 204.6,177.8 206.8,176.6 199.8,180.6 				"/>
			</g>
			<g>
				<polygon class="st3" points="202.2,184.9 209.1,180.9 211.5,184.3 204.6,188.3 				"/>
			</g>
			<g>
				<polygon class="st3" points="204.6,188.3 211.5,184.3 214.8,187 207.9,191 				"/>
			</g>
			<g>
				<polygon class="st3" points="207.9,191 214.8,187 217.9,188 210.9,192 				"/>
			</g>
			<g>
				<polygon class="st3" points="210.9,192 217.9,188 220.8,187.1 213.9,191.1 				"/>
			</g>
			<g>
				<polygon class="st3" points="218.4,188.5 225.3,184.5 223.3,190.6 216.5,194.6 				"/>
			</g>
			<g>
				<polygon class="st3" points="218.5,165.5 225.3,161.4 225.3,184.5 218.4,188.5 				"/>
			</g>
			<g>
				<polygon class="st3" points="206.2,155.1 213.2,151.1 222.5,156.5 215.6,160.5 				"/>
			</g>
			<g>
				<polygon class="st3" points="224.6,165.8 231.6,161.7 231.6,165 224.6,169 				"/>
			</g>
			<g>
				<polygon class="st3" points="218.5,162.2 225.4,158.2 231.6,161.7 224.6,165.8 				"/>
			</g>
			<g>
				<polygon class="st3" points="215.7,152 222.5,147.9 225.4,149.5 218.5,153.6 				"/>
			</g>
			<g>
				<polygon class="st3" points="218.5,153.6 225.4,149.5 225.4,158.2 218.5,162.2 				"/>
			</g>
			<g>
				<polygon class="st3" points="218.5,153.6 218.5,162.2 224.6,165.8 224.6,169 218.5,165.5 218.4,188.5 216.5,194.6 212.1,195.8 
					207.9,194.4 203.3,190.7 200.4,186.5 197.7,181.8 199.8,180.6 202.2,184.9 204.6,188.3 207.9,191 210.9,192 213.9,191.1 
					215.5,186.4 215.6,163.8 206.2,158.4 206.2,155.1 215.6,160.5 215.7,152 				"/>
			</g>
		</g>
		<g class="st1">
			<g>
				<polygon class="st3" points="231.8,184.4 238.8,180.4 238.7,202.8 231.8,206.8 				"/>
			</g>
			<g>
				<polygon class="st3" points="232.4,180.4 239.4,176.3 238.8,180.4 231.8,184.4 				"/>
			</g>
			<g>
				<polygon class="st3" points="234.2,178.3 241.2,174.2 239.4,176.3 232.4,180.4 				"/>
			</g>
			<g>
				<polygon class="st3" points="232.3,174.6 239.3,170.6 243.5,170.4 236.6,174.4 				"/>
			</g>
			<g>
				<polygon class="st3" points="236.6,174.4 243.5,170.4 248.6,172.6 241.6,176.6 				"/>
			</g>
			<g>
				<polygon class="st3" points="241.6,176.6 248.6,172.6 255.1,179.2 248.2,183.2 				"/>
			</g>
			<g>
				<polygon class="st3" points="248.2,183.2 255.1,179.2 257.6,184.3 250.8,188.3 				"/>
			</g>
			<g>
				<polygon class="st3" points="253.6,189.2 260.5,185.2 260.5,215.4 253.5,219.4 				"/>
			</g>
			<g>
				<polygon class="st3" points="255.9,187.6 262.8,183.6 260.5,185.2 253.6,189.2 				"/>
			</g>
			<g>
				<polygon class="st3" points="253.6,184.1 260.6,180.1 262.8,183.6 255.9,187.6 				"/>
			</g>
			<g>
				<polygon class="st3" points="248.2,183.2 250.8,188.3 250.8,186.3 253.6,184.1 255.9,187.6 253.6,189.2 253.5,219.4 
					250.6,217.8 250.7,193.5 246.4,185 241.3,179.9 237.4,178.2 234.2,178.3 232.4,180.4 231.8,184.4 231.8,206.8 229,205.2 
					229,182.6 229.6,177.5 232.3,174.6 236.6,174.4 241.6,176.6 				"/>
			</g>
		</g>
		<g class="st1">
			<g>
				<polygon class="st3" points="264.1,219.2 271.1,215.2 273.8,219.5 266.9,223.6 				"/>
			</g>
			<g>
				<polygon class="st3" points="266.9,223.6 273.8,219.5 277.1,222.3 270.1,226.3 				"/>
			</g>
			<g>
				<polygon class="st3" points="270.1,226.3 277.1,222.3 280.8,222.8 273.9,226.7 				"/>
			</g>
			<g>
				<polygon class="st3" points="278.5,224.8 285.4,220.7 283,226.6 276.1,230.5 				"/>
			</g>
			<g>
				<polygon class="st3" points="278.6,201.8 285.5,197.7 285.4,220.7 278.5,224.8 				"/>
			</g>
			<g>
				<polygon class="st3" points="275.7,197 282.6,192.9 295.8,200.5 288.9,204.5 				"/>
			</g>
			<g>
				<polygon class="st3" points="288.9,204.5 295.8,200.5 295.7,203.7 288.9,207.7 				"/>
			</g>
			<g>
				<polygon class="st3" points="266.9,223.6 270.1,226.3 273.9,226.7 275.6,222.5 275.7,197 288.9,204.5 288.9,207.7 278.6,201.8 
					278.5,224.8 276.1,230.5 270.4,229.8 265.5,225.9 262.3,220.7 264.1,219.2 				"/>
			</g>
		</g>
		<g class="st1">
			<g>
				<polygon class="st3" points="298.4,216.1 305.3,212.1 304,215 297,219.1 				"/>
			</g>
			<g>
				<polygon class="st3" points="296.1,212.8 302.9,208.8 306.4,207.5 299.5,211.5 				"/>
			</g>
			<g>
				<polygon class="st3" points="299.5,211.5 306.4,207.5 310.6,208.7 303.7,212.8 				"/>
			</g>
			<g>
				<polygon class="st3" points="316,229.1 322.8,225.2 323,225.2 316,229.2 				"/>
			</g>
			<g>
				<polygon class="st3" points="303.7,212.8 310.6,208.7 315,211.4 308.1,215.5 				"/>
			</g>
			<g>
				<polygon class="st3" points="315.1,226 322.1,222 322.8,225.2 316,229.1 				"/>
			</g>
			<g>
				<polygon class="st3" points="313.9,223.1 320.9,219.1 322.1,222 315.1,226 				"/>
			</g>
			<g>
				<polygon class="st3" points="308.1,215.5 315,211.4 320.9,219.1 313.9,223.1 				"/>
			</g>
			<g>
				<polygon class="st3" points="318.5,226.4 325.4,222.4 325.3,253.2 318.4,257.2 				"/>
			</g>
			<g>
				<polygon class="st3" points="315.6,222.9 322.5,219 326.8,218.3 319.9,222.3 				"/>
			</g>
			<g>
				<polygon class="st3" points="319.9,222.3 326.8,218.3 328.3,221.9 321.4,225.9 				"/>
			</g>
			<g>
				<polygon class="st3" points="308.1,215.5 313.9,223.1 315.1,226 316,229.1 316,229.2 315.6,226.1 315.6,222.9 319.9,222.3 
					321.4,225.9 318.5,226.4 318.4,257.2 315.5,255.5 315.6,233.2 311.9,224.3 307.2,218.2 304,216.2 300.8,215.3 298.4,216.1 
					297,219.1 294.5,216.4 296.1,212.8 299.5,211.5 303.7,212.8 				"/>
			</g>
		</g>
		<g class="st1">
			<g>
				<polygon class="st3" points="332.3,238.2 339.2,234.1 342.4,238.2 335.4,242.2 				"/>
			</g>
			<g>
				<polygon class="st3" points="330.7,233.9 337.7,229.9 339.2,234.1 332.3,238.2 				"/>
			</g>
			<g>
				<polygon class="st3" points="330.1,229.7 337,225.8 337.7,229.9 330.7,233.9 				"/>
			</g>
			<g>
				<polygon class="st3" points="335.4,242.2 342.4,238.2 346.5,241.7 339.6,245.7 				"/>
			</g>
			<g>
				<polygon class="st3" points="331,225.8 338,221.8 337,225.8 330.1,229.7 				"/>
			</g>
			<g>
				<polygon class="st3" points="333.3,223.6 340.2,219.5 338,221.8 331,225.8 				"/>
			</g>
			<g>
				<polygon class="st3" points="339.6,245.7 346.5,241.7 358.1,248.3 351.2,252.4 				"/>
			</g>
			<g>
				<polygon class="st3" points="331.5,219.9 338.4,215.9 342.4,215.8 335.5,219.9 				"/>
			</g>
			<g>
				<polygon class="st3" points="335.5,219.9 342.4,215.8 346.9,217.7 340,221.8 				"/>
			</g>
			<g>
				<path class="st3" d="M331.5,220l4.1-0.1l4.4,1.9l14.1,8.2l-0.1,47.8l-2.9-1.6l0.1-20.4l-12-7l-4.8-4.1l-4.1-5.2l-2.2-6l-0.8-5.4
					l1.2-5.1L331.5,220z M330.7,233.9l1.6,4.3l3.2,4l4.1,3.5l11.6,6.7l0.1-20.8l-11-6.3l-3.9-1.6h-3.1l-2.3,2.2l-0.9,4L330.7,233.9"
					/>
			</g>
			<g>
				<polygon class="st3" points="340,221.8 346.9,217.7 361,225.9 354.1,229.9 				"/>
			</g>
			<g>
				<polygon class="st3" points="354.1,229.9 361,225.9 360.9,273.7 354,277.7 				"/>
			</g>
		</g>
		<g class="st1">
			<g>
				<polygon class="st3" points="275.4,184.4 282.4,180.4 283.6,180.3 276.6,184.3 				"/>
			</g>
			<g>
				<polygon class="st3" points="279.4,188.2 286.3,184.2 285.9,185.4 279,189.4 				"/>
			</g>
			<g>
				<polygon class="st3" points="276.6,184.3 283.6,180.3 284.8,181 277.9,185 				"/>
			</g>
			<g>
				<polygon class="st3" points="276.6,188.9 275.4,187.3 275.1,185.8 275.4,184.4 276.6,184.3 277.9,185 279,186.5 279.4,188.2 
					279,189.4 277.9,189.7 				"/>
			</g>
			<g>
				<polygon class="st3" points="279,186.5 285.9,182.5 286.3,184.2 279.4,188.2 				"/>
			</g>
			<g>
				<polygon class="st3" points="277.9,185 284.8,181 285.9,182.5 279,186.5 				"/>
			</g>
		</g>
		<g class="st1">
			<g>
				<polygon class="st3" points="191.8,159.9 191.8,163.1 179.4,156 179.4,152.7 				"/>
			</g>
			<g>
				<polygon class="st3" points="191.8,159.9 198.7,155.8 198.7,159.1 191.8,163.1 				"/>
			</g>
			<g>
				<polygon class="st3" points="179.4,152.7 186.4,148.7 198.7,155.8 191.8,159.9 				"/>
			</g>
		</g>
		<g class="st1">
			<g>
				<polygon class="st3" points="117.1,132.5 123.9,128.5 126.3,132.8 119.4,136.8 				"/>
			</g>
			<g>
				<polygon class="st3" points="114.9,133.7 121.8,129.6 123.9,128.5 117.1,132.5 				"/>
			</g>
			<g>
				<polygon class="st3" points="119.4,136.8 126.3,132.8 128.7,136.2 121.8,140.2 				"/>
			</g>
			<g>
				<polygon class="st3" points="121.8,140.2 128.7,136.2 132,138.9 125.1,142.9 				"/>
			</g>
			<g>
				<polygon class="st3" points="125.1,142.9 132,138.9 135,139.9 128.1,143.9 				"/>
			</g>
			<g>
				<polygon class="st3" points="128.1,143.9 135,139.9 138,139 131.1,143 				"/>
			</g>
			<g>
				<polygon class="st3" points="135.6,140.4 142.5,136.4 140.5,142.5 133.6,146.5 				"/>
			</g>
			<g>
				<polygon class="st3" points="135.6,117.4 142.6,113.3 142.5,136.4 135.6,140.4 				"/>
			</g>
			<g>
				<polygon class="st3" points="123.4,107 130.3,103 139.7,108.4 132.8,112.4 				"/>
			</g>
			<g>
				<polygon class="st3" points="141.9,117.6 148.7,113.6 148.7,116.9 141.8,120.9 				"/>
			</g>
			<g>
				<polygon class="st3" points="135.6,114.1 142.6,110.1 148.7,113.6 141.9,117.6 				"/>
			</g>
			<g>
				<polygon class="st3" points="132.8,103.8 139.8,99.8 142.6,101.5 135.6,105.5 				"/>
			</g>
			<g>
				<polygon class="st3" points="135.6,105.5 142.6,101.5 142.6,110.1 135.6,114.1 				"/>
			</g>
			<g>
				<polygon class="st3" points="135.6,105.5 135.6,114.1 141.9,117.6 141.8,120.9 135.6,117.4 135.6,140.4 133.6,146.5 
					129.3,147.7 125.1,146.3 120.6,142.6 117.6,138.3 114.9,133.7 117.1,132.5 119.4,136.8 121.8,140.2 125.1,142.9 128.1,143.9 
					131.1,143 132.7,138.3 132.8,115.7 123.4,110.3 123.4,107 132.8,112.4 132.8,103.8 				"/>
			</g>
		</g>
		<g class="st1">
			<g>
				<polygon class="st3" points="148.8,153 155.7,148.9 158.5,153.3 151.6,157.3 				"/>
			</g>
			<g>
				<polygon class="st3" points="151.6,157.3 158.5,153.3 161.8,156.1 154.9,160.1 				"/>
			</g>
			<g>
				<polygon class="st3" points="154.9,160.1 161.8,156.1 165.6,156.5 158.6,160.5 				"/>
			</g>
			<g>
				<polygon class="st3" points="163.2,158.5 170.1,154.5 167.7,160.3 160.9,164.3 				"/>
			</g>
			<g>
				<polygon class="st3" points="163.3,135.5 170.2,131.5 170.1,154.5 163.2,158.5 				"/>
			</g>
			<g>
				<polygon class="st3" points="160.4,130.7 167.3,126.7 180.5,134.3 173.6,138.3 				"/>
			</g>
			<g>
				<polygon class="st3" points="173.6,138.3 180.5,134.3 180.5,137.5 173.6,141.5 				"/>
			</g>
			<g>
				<polygon class="st3" points="151.6,157.3 154.9,160.1 158.6,160.5 160.4,156.2 160.4,130.7 173.6,138.3 173.6,141.5 
					163.3,135.5 163.2,158.5 160.9,164.3 155.1,163.6 150.3,159.7 147,154.4 148.8,153 				"/>
			</g>
		</g>
		<g class="st1">
			<g>
				<polygon class="st3" points="160.2,118.2 167.1,114.2 168.3,114.1 161.4,118.1 				"/>
			</g>
			<g>
				<polygon class="st3" points="164.1,122 171,118 170.6,119.1 163.7,123.1 				"/>
			</g>
			<g>
				<polygon class="st3" points="161.4,118.1 168.3,114.1 169.6,114.8 162.6,118.8 				"/>
			</g>
			<g>
				<polygon class="st3" points="161.4,122.8 160.2,121.1 159.8,119.5 160.2,118.2 161.4,118.1 162.6,118.8 163.7,120.2 164.1,122 
					163.7,123.1 162.6,123.5 				"/>
			</g>
			<g>
				<polygon class="st3" points="163.7,120.2 170.6,116.2 171,118 164.1,122 				"/>
			</g>
			<g>
				<polygon class="st3" points="162.6,118.8 169.6,114.8 170.6,116.2 163.7,120.2 				"/>
			</g>
		</g>
	</g>
</g>
<g id="font_5_">
	<g>
		<g class="st1">
			<g>
				<polygon class="st3" points="199.8,99.5 206.8,95.6 209.1,99.8 202.2,103.8 				"/>
			</g>
			<g>
				<polygon class="st3" points="197.7,100.7 204.6,96.7 206.8,95.6 199.8,99.5 				"/>
			</g>
			<g>
				<polygon class="st3" points="202.2,103.8 209.1,99.8 211.5,103.2 204.6,107.2 				"/>
			</g>
			<g>
				<polygon class="st3" points="204.6,107.2 211.5,103.2 214.8,105.9 207.9,109.9 				"/>
			</g>
			<g>
				<polygon class="st3" points="207.9,109.9 214.8,105.9 217.9,106.9 210.9,110.9 				"/>
			</g>
			<g>
				<polygon class="st3" points="210.9,110.9 217.9,106.9 220.8,106 213.9,110 				"/>
			</g>
			<g>
				<polygon class="st3" points="218.4,107.4 225.3,103.4 223.3,109.5 216.5,113.5 				"/>
			</g>
			<g>
				<polygon class="st3" points="218.5,84.4 225.3,80.4 225.3,103.4 218.4,107.4 				"/>
			</g>
			<g>
				<polygon class="st3" points="206.2,74 213.2,70 222.5,75.5 215.6,79.4 				"/>
			</g>
			<g>
				<polygon class="st3" points="224.6,84.7 231.6,80.6 231.6,84 224.6,88 				"/>
			</g>
			<g>
				<polygon class="st3" points="218.5,81.1 225.4,77.1 231.6,80.6 224.6,84.7 				"/>
			</g>
			<g>
				<polygon class="st3" points="215.7,70.9 222.5,66.8 225.4,68.5 218.5,72.5 				"/>
			</g>
			<g>
				<polygon class="st3" points="218.5,72.5 225.4,68.5 225.4,77.1 218.5,81.1 				"/>
			</g>
			<g>
				<polygon class="st3" points="218.5,72.5 218.5,81.1 224.6,84.7 224.6,88 218.5,84.4 218.4,107.4 216.5,113.5 212.1,114.7 
					207.9,113.3 203.3,109.6 200.4,105.4 197.7,100.7 199.8,99.5 202.2,103.8 204.6,107.2 207.9,109.9 210.9,110.9 213.9,110 
					215.5,105.3 215.6,82.7 206.2,77.3 206.2,74 215.6,79.4 215.7,70.9 				"/>
			</g>
		</g>
		<g class="st1">
			<g>
				<polygon class="st3" points="231.8,103.3 238.8,99.3 238.7,121.7 231.8,125.8 				"/>
			</g>
			<g>
				<polygon class="st3" points="232.4,99.3 239.4,95.2 238.8,99.3 231.8,103.3 				"/>
			</g>
			<g>
				<polygon class="st3" points="234.2,97.2 241.2,93.2 239.4,95.2 232.4,99.3 				"/>
			</g>
			<g>
				<polygon class="st3" points="232.3,93.5 239.3,89.5 243.5,89.4 236.6,93.3 				"/>
			</g>
			<g>
				<polygon class="st3" points="236.6,93.3 243.5,89.4 248.6,91.6 241.6,95.6 				"/>
			</g>
			<g>
				<polygon class="st3" points="241.6,95.6 248.6,91.6 255.1,98.1 248.2,102.1 				"/>
			</g>
			<g>
				<polygon class="st3" points="248.2,102.1 255.1,98.1 257.6,103.2 250.8,107.2 				"/>
			</g>
			<g>
				<polygon class="st3" points="253.6,108.1 260.5,104.1 260.5,134.3 253.5,138.3 				"/>
			</g>
			<g>
				<polygon class="st3" points="255.9,106.5 262.8,102.5 260.5,104.1 253.6,108.1 				"/>
			</g>
			<g>
				<polygon class="st3" points="253.6,103 260.6,99 262.8,102.5 255.9,106.5 				"/>
			</g>
			<g>
				<polygon class="st3" points="248.2,102.1 250.8,107.2 250.8,105.2 253.6,103 255.9,106.5 253.6,108.1 253.5,138.3 250.6,136.7 
					250.7,112.5 246.4,103.9 241.3,98.8 237.4,97.1 234.2,97.2 232.4,99.3 231.8,103.3 231.8,125.8 229,124.1 229,101.5 229.6,96.4 
					232.3,93.5 236.6,93.3 241.6,95.6 				"/>
			</g>
		</g>
		<g class="st1">
			<g>
				<polygon class="st3" points="264.1,138.1 271.1,134.1 273.8,138.4 266.9,142.5 				"/>
			</g>
			<g>
				<polygon class="st3" points="266.9,142.5 273.8,138.4 277.1,141.3 270.1,145.2 				"/>
			</g>
			<g>
				<polygon class="st3" points="270.1,145.2 277.1,141.3 280.8,141.7 273.9,145.7 				"/>
			</g>
			<g>
				<polygon class="st3" points="278.5,143.7 285.4,139.6 283,145.5 276.1,149.5 				"/>
			</g>
			<g>
				<polygon class="st3" points="278.6,120.7 285.5,116.6 285.4,139.6 278.5,143.7 				"/>
			</g>
			<g>
				<polygon class="st3" points="275.7,115.9 282.6,111.8 295.8,119.4 288.9,123.4 				"/>
			</g>
			<g>
				<polygon class="st3" points="288.9,123.4 295.8,119.4 295.7,122.6 288.9,126.7 				"/>
			</g>
			<g>
				<polygon class="st3" points="266.9,142.5 270.1,145.2 273.9,145.7 275.6,141.4 275.7,115.9 288.9,123.4 288.9,126.7 
					278.6,120.7 278.5,143.7 276.1,149.5 270.4,148.7 265.5,144.8 262.3,139.6 264.1,138.1 				"/>
			</g>
		</g>
		<g class="st1">
			<g>
				<polygon class="st3" points="298.4,135.1 305.3,131 304,133.9 297,138 				"/>
			</g>
			<g>
				<polygon class="st3" points="296.1,131.7 302.9,127.7 306.4,126.4 299.5,130.5 				"/>
			</g>
			<g>
				<polygon class="st3" points="299.5,130.5 306.4,126.4 310.6,127.7 303.7,131.7 				"/>
			</g>
			<g>
				<polygon class="st3" points="316,148.1 322.8,144.1 323,144.1 316,148.1 				"/>
			</g>
			<g>
				<polygon class="st3" points="303.7,131.7 310.6,127.7 315,130.3 308.1,134.4 				"/>
			</g>
			<g>
				<polygon class="st3" points="315.1,144.9 322.1,141 322.8,144.1 316,148.1 				"/>
			</g>
			<g>
				<polygon class="st3" points="313.9,142 320.9,138 322.1,141 315.1,144.9 				"/>
			</g>
			<g>
				<polygon class="st3" points="308.1,134.4 315,130.3 320.9,138 313.9,142 				"/>
			</g>
			<g>
				<polygon class="st3" points="318.5,145.3 325.4,141.3 325.3,172.1 318.4,176.1 				"/>
			</g>
			<g>
				<polygon class="st3" points="315.6,141.9 322.5,137.9 326.8,137.2 319.9,141.3 				"/>
			</g>
			<g>
				<polygon class="st3" points="319.9,141.3 326.8,137.2 328.3,140.8 321.4,144.9 				"/>
			</g>
			<g>
				<polygon class="st3" points="308.1,134.4 313.9,142 315.1,144.9 316,148.1 316,148.1 315.6,145.1 315.6,141.9 319.9,141.3 
					321.4,144.9 318.5,145.3 318.4,176.1 315.5,174.5 315.6,152.1 311.9,143.2 307.2,137.1 304,135.1 300.8,134.2 298.4,135.1 
					297,138 294.5,135.4 296.1,131.7 299.5,130.5 303.7,131.7 				"/>
			</g>
		</g>
		<g class="st1">
			<g>
				<polygon class="st3" points="332.3,157.1 339.2,153 342.4,157.1 335.4,161.1 				"/>
			</g>
			<g>
				<polygon class="st3" points="330.7,152.8 337.7,148.8 339.2,153 332.3,157.1 				"/>
			</g>
			<g>
				<polygon class="st3" points="330.1,148.7 337,144.7 337.7,148.8 330.7,152.8 				"/>
			</g>
			<g>
				<polygon class="st3" points="335.4,161.1 342.4,157.1 346.5,160.6 339.6,164.6 				"/>
			</g>
			<g>
				<polygon class="st3" points="331,144.7 338,140.7 337,144.7 330.1,148.7 				"/>
			</g>
			<g>
				<polygon class="st3" points="333.3,142.5 340.2,138.4 338,140.7 331,144.7 				"/>
			</g>
			<g>
				<polygon class="st3" points="339.6,164.6 346.5,160.6 358.1,167.2 351.2,171.3 				"/>
			</g>
			<g>
				<polygon class="st3" points="331.5,138.8 338.4,134.8 342.4,134.7 335.5,138.8 				"/>
			</g>
			<g>
				<polygon class="st3" points="335.5,138.8 342.4,134.7 346.9,136.6 340,140.7 				"/>
			</g>
			<g>
				<path class="st3" d="M331.5,138.9l4.1-0.1l4.4,1.9l14.1,8.2l-0.1,47.8l-2.9-1.6l0.1-20.4l-12-7l-4.8-4.1l-4.1-5.2l-2.2-6
					l-0.8-5.4l1.2-5.1L331.5,138.9z M330.7,152.8l1.6,4.3l3.2,4l4.1,3.5l11.6,6.7l0.1-20.8l-11-6.3l-3.9-1.6h-3.1l-2.3,2.2l-0.9,4
					L330.7,152.8"/>
			</g>
			<g>
				<polygon class="st3" points="340,140.7 346.9,136.6 361,144.8 354.1,148.9 				"/>
			</g>
			<g>
				<polygon class="st3" points="354.1,148.9 361,144.8 360.9,192.7 354,196.7 				"/>
			</g>
		</g>
		<g class="st1">
			<g>
				<polygon class="st3" points="275.4,103.3 282.4,99.4 283.6,99.2 276.6,103.2 				"/>
			</g>
			<g>
				<polygon class="st3" points="279.4,107.1 286.3,103.1 285.9,104.3 279,108.3 				"/>
			</g>
			<g>
				<polygon class="st3" points="276.6,103.2 283.6,99.2 284.8,100 277.9,103.9 				"/>
			</g>
			<g>
				<polygon class="st3" points="276.6,107.9 275.4,106.2 275.1,104.7 275.4,103.3 276.6,103.2 277.9,103.9 279,105.4 279.4,107.1 
					279,108.3 277.9,108.6 				"/>
			</g>
			<g>
				<polygon class="st3" points="279,105.4 285.9,101.4 286.3,103.1 279.4,107.1 				"/>
			</g>
			<g>
				<polygon class="st3" points="277.9,103.9 284.8,100 285.9,101.4 279,105.4 				"/>
			</g>
		</g>
		<g class="st1">
			<g>
				<polygon class="st3" points="191.8,78.8 191.8,82.1 179.4,74.9 179.4,71.7 				"/>
			</g>
			<g>
				<polygon class="st3" points="191.8,78.8 198.7,74.7 198.7,78 191.8,82.1 				"/>
			</g>
			<g>
				<polygon class="st3" points="179.4,71.7 186.4,67.6 198.7,74.7 191.8,78.8 				"/>
			</g>
		</g>
		<g class="st1">
			<g>
				<polygon class="st3" points="117.1,51.4 123.9,47.5 126.3,51.7 119.4,55.7 				"/>
			</g>
			<g>
				<polygon class="st3" points="114.9,52.6 121.8,48.6 123.9,47.5 117.1,51.4 				"/>
			</g>
			<g>
				<polygon class="st3" points="119.4,55.7 126.3,51.7 128.7,55.1 121.8,59.2 				"/>
			</g>
			<g>
				<polygon class="st3" points="121.8,59.2 128.7,55.1 132,57.8 125.1,61.8 				"/>
			</g>
			<g>
				<polygon class="st3" points="125.1,61.8 132,57.8 135,58.8 128.1,62.8 				"/>
			</g>
			<g>
				<polygon class="st3" points="128.1,62.8 135,58.8 138,57.9 131.1,61.9 				"/>
			</g>
			<g>
				<polygon class="st3" points="135.6,59.3 142.5,55.3 140.5,61.4 133.6,65.5 				"/>
			</g>
			<g>
				<polygon class="st3" points="135.6,36.3 142.6,32.3 142.5,55.3 135.6,59.3 				"/>
			</g>
			<g>
				<polygon class="st3" points="123.4,25.9 130.3,21.9 139.7,27.3 132.8,31.3 				"/>
			</g>
			<g>
				<polygon class="st3" points="141.9,36.5 148.7,32.6 148.7,35.9 141.8,39.9 				"/>
			</g>
			<g>
				<polygon class="st3" points="135.6,33 142.6,29 148.7,32.6 141.9,36.5 				"/>
			</g>
			<g>
				<polygon class="st3" points="132.8,22.8 139.8,18.7 142.6,20.4 135.6,24.4 				"/>
			</g>
			<g>
				<polygon class="st3" points="135.6,24.4 142.6,20.4 142.6,29 135.6,33 				"/>
			</g>
			<g>
				<polygon class="st3" points="135.6,24.4 135.6,33 141.9,36.5 141.8,39.9 135.6,36.3 135.6,59.3 133.6,65.5 129.3,66.6 
					125.1,65.2 120.6,61.5 117.6,57.3 114.9,52.6 117.1,51.4 119.4,55.7 121.8,59.2 125.1,61.8 128.1,62.8 131.1,61.9 132.7,57.2 
					132.8,34.6 123.4,29.2 123.4,25.9 132.8,31.3 132.8,22.8 				"/>
			</g>
		</g>
		<g class="st1">
			<g>
				<polygon class="st3" points="148.8,71.9 155.7,67.9 158.5,72.3 151.6,76.3 				"/>
			</g>
			<g>
				<polygon class="st3" points="151.6,76.3 158.5,72.3 161.8,75 154.9,79.1 				"/>
			</g>
			<g>
				<polygon class="st3" points="154.9,79.1 161.8,75 165.6,75.4 158.6,79.4 				"/>
			</g>
			<g>
				<polygon class="st3" points="163.2,77.4 170.1,73.4 167.7,79.2 160.9,83.2 				"/>
			</g>
			<g>
				<polygon class="st3" points="163.3,54.4 170.2,50.5 170.1,73.4 163.2,77.4 				"/>
			</g>
			<g>
				<polygon class="st3" points="160.4,49.6 167.3,45.6 180.5,53.2 173.6,57.2 				"/>
			</g>
			<g>
				<polygon class="st3" points="173.6,57.2 180.5,53.2 180.5,56.4 173.6,60.4 				"/>
			</g>
			<g>
				<polygon class="st3" points="151.6,76.3 154.9,79.1 158.6,79.4 160.4,75.1 160.4,49.6 173.6,57.2 173.6,60.4 163.3,54.4 
					163.2,77.4 160.9,83.2 155.1,82.5 150.3,78.6 147,73.4 148.8,71.9 				"/>
			</g>
		</g>
		<g class="st1">
			<g>
				<polygon class="st3" points="160.2,37.2 167.1,33.1 168.3,33 161.4,37 				"/>
			</g>
			<g>
				<polygon class="st3" points="164.1,40.9 171,36.9 170.6,38 163.7,42.1 				"/>
			</g>
			<g>
				<polygon class="st3" points="161.4,37 168.3,33 169.6,33.7 162.6,37.8 				"/>
			</g>
			<g>
				<polygon class="st3" points="161.4,41.7 160.2,40 159.8,38.4 160.2,37.2 161.4,37 162.6,37.8 163.7,39.2 164.1,40.9 163.7,42.1 
					162.6,42.4 				"/>
			</g>
			<g>
				<polygon class="st3" points="163.7,39.2 170.6,35.1 171,36.9 164.1,40.9 				"/>
			</g>
			<g>
				<polygon class="st3" points="162.6,37.8 169.6,33.7 170.6,35.1 163.7,39.2 				"/>
			</g>
		</g>
	</g>
</g>
<g id="font_6_">
	<g>
		<g class="st1">
			<g>
				<polygon class="st3" points="199.8,18.5 206.8,14.5 209.1,18.7 202.2,22.7 				"/>
			</g>
			<g>
				<polygon class="st3" points="197.7,19.6 204.6,15.6 206.8,14.5 199.8,18.5 				"/>
			</g>
			<g>
				<polygon class="st3" points="202.2,22.7 209.1,18.7 211.5,22.1 204.6,26.1 				"/>
			</g>
			<g>
				<polygon class="st3" points="204.6,26.1 211.5,22.1 214.8,24.8 207.9,28.8 				"/>
			</g>
			<g>
				<polygon class="st3" points="207.9,28.8 214.8,24.8 217.9,25.8 210.9,29.9 				"/>
			</g>
			<g>
				<polygon class="st3" points="210.9,29.9 217.9,25.8 220.8,25 213.9,28.9 				"/>
			</g>
			<g>
				<polygon class="st3" points="218.4,26.3 225.3,22.3 223.3,28.4 216.5,32.4 				"/>
			</g>
			<g>
				<polygon class="st3" points="218.5,3.3 225.3,-0.7 225.3,22.3 218.4,26.3 				"/>
			</g>
			<g>
				<polygon class="st3" points="206.2,-7.1 213.2,-11.1 222.5,-5.6 215.6,-1.6 				"/>
			</g>
			<g>
				<polygon class="st3" points="224.6,3.6 231.6,-0.5 231.6,2.9 224.6,6.9 				"/>
			</g>
			<g>
				<polygon class="st3" points="218.5,0 225.4,-4 231.6,-0.5 224.6,3.6 				"/>
			</g>
			<g>
				<polygon class="st3" points="215.7,-10.2 222.5,-14.3 225.4,-12.6 218.5,-8.6 				"/>
			</g>
			<g>
				<polygon class="st3" points="218.5,-8.6 225.4,-12.6 225.4,-4 218.5,0 				"/>
			</g>
			<g>
				<polygon class="st3" points="218.5,-8.6 218.5,0 224.6,3.6 224.6,6.9 218.5,3.3 218.4,26.3 216.5,32.4 212.1,33.7 207.9,32.2 
					203.3,28.6 200.4,24.3 197.7,19.6 199.8,18.5 202.2,22.7 204.6,26.1 207.9,28.8 210.9,29.9 213.9,28.9 215.5,24.2 215.6,1.6 
					206.2,-3.8 206.2,-7.1 215.6,-1.6 215.7,-10.2 				"/>
			</g>
		</g>
		<g class="st1">
			<g>
				<polygon class="st3" points="231.8,22.3 238.8,18.2 238.7,40.6 231.8,44.7 				"/>
			</g>
			<g>
				<polygon class="st3" points="232.4,18.2 239.4,14.2 238.8,18.2 231.8,22.3 				"/>
			</g>
			<g>
				<polygon class="st3" points="234.2,16.1 241.2,12.1 239.4,14.2 232.4,18.2 				"/>
			</g>
			<g>
				<polygon class="st3" points="232.3,12.5 239.3,8.5 243.5,8.3 236.6,12.3 				"/>
			</g>
			<g>
				<polygon class="st3" points="236.6,12.3 243.5,8.3 248.6,10.5 241.6,14.5 				"/>
			</g>
			<g>
				<polygon class="st3" points="241.6,14.5 248.6,10.5 255.1,17.1 248.2,21 				"/>
			</g>
			<g>
				<polygon class="st3" points="248.2,21 255.1,17.1 257.6,22.1 250.8,26.1 				"/>
			</g>
			<g>
				<polygon class="st3" points="253.6,27 260.5,23.1 260.5,53.3 253.5,57.3 				"/>
			</g>
			<g>
				<polygon class="st3" points="255.9,25.4 262.8,21.4 260.5,23.1 253.6,27 				"/>
			</g>
			<g>
				<polygon class="st3" points="253.6,22 260.6,18 262.8,21.4 255.9,25.4 				"/>
			</g>
			<g>
				<polygon class="st3" points="248.2,21 250.8,26.1 250.8,24.2 253.6,22 255.9,25.4 253.6,27 253.5,57.3 250.6,55.6 250.7,31.4 
					246.4,22.9 241.3,17.7 237.4,16 234.2,16.1 232.4,18.2 231.8,22.3 231.8,44.7 229,43 229,20.4 229.6,15.3 232.3,12.5 
					236.6,12.3 241.6,14.5 				"/>
			</g>
		</g>
		<g class="st1">
			<g>
				<polygon class="st3" points="264.1,57.1 271.1,53 273.8,57.4 266.9,61.4 				"/>
			</g>
			<g>
				<polygon class="st3" points="266.9,61.4 273.8,57.4 277.1,60.2 270.1,64.2 				"/>
			</g>
			<g>
				<polygon class="st3" points="270.1,64.2 277.1,60.2 280.8,60.6 273.9,64.6 				"/>
			</g>
			<g>
				<polygon class="st3" points="278.5,62.6 285.4,58.5 283,64.4 276.1,68.4 				"/>
			</g>
			<g>
				<polygon class="st3" points="278.6,39.6 285.5,35.6 285.4,58.5 278.5,62.6 				"/>
			</g>
			<g>
				<polygon class="st3" points="275.7,34.8 282.6,30.7 295.8,38.3 288.9,42.4 				"/>
			</g>
			<g>
				<polygon class="st3" points="288.9,42.4 295.8,38.3 295.7,41.5 288.9,45.6 				"/>
			</g>
			<g>
				<polygon class="st3" points="266.9,61.4 270.1,64.2 273.9,64.6 275.6,60.3 275.7,34.8 288.9,42.4 288.9,45.6 278.6,39.6 
					278.5,62.6 276.1,68.4 270.4,67.7 265.5,63.7 262.3,58.5 264.1,57.1 				"/>
			</g>
		</g>
		<g class="st1">
			<g>
				<polygon class="st3" points="298.4,54 305.3,50 304,52.8 297,56.9 				"/>
			</g>
			<g>
				<polygon class="st3" points="296.1,50.6 302.9,46.6 306.4,45.3 299.5,49.4 				"/>
			</g>
			<g>
				<polygon class="st3" points="299.5,49.4 306.4,45.3 310.6,46.6 303.7,50.6 				"/>
			</g>
			<g>
				<polygon class="st3" points="316,67 322.8,63 323,63.1 316,67.1 				"/>
			</g>
			<g>
				<polygon class="st3" points="303.7,50.6 310.6,46.6 315,49.2 308.1,53.3 				"/>
			</g>
			<g>
				<polygon class="st3" points="315.1,63.9 322.1,59.9 322.8,63 316,67 				"/>
			</g>
			<g>
				<polygon class="st3" points="313.9,60.9 320.9,56.9 322.1,59.9 315.1,63.9 				"/>
			</g>
			<g>
				<polygon class="st3" points="308.1,53.3 315,49.2 320.9,56.9 313.9,60.9 				"/>
			</g>
			<g>
				<polygon class="st3" points="318.5,64.2 325.4,60.3 325.3,91 318.4,95 				"/>
			</g>
			<g>
				<polygon class="st3" points="315.6,60.8 322.5,56.8 326.8,56.1 319.9,60.2 				"/>
			</g>
			<g>
				<polygon class="st3" points="319.9,60.2 326.8,56.1 328.3,59.7 321.4,63.8 				"/>
			</g>
			<g>
				<polygon class="st3" points="308.1,53.3 313.9,60.9 315.1,63.9 316,67 316,67.1 315.6,64 315.6,60.8 319.9,60.2 321.4,63.8 
					318.5,64.2 318.4,95 315.5,93.4 315.6,71 311.9,62.2 307.2,56 304,54 300.8,53.1 298.4,54 297,56.9 294.5,54.3 296.1,50.6 
					299.5,49.4 303.7,50.6 				"/>
			</g>
		</g>
		<g class="st1">
			<g>
				<polygon class="st3" points="332.3,76 339.2,72 342.4,76 335.4,80 				"/>
			</g>
			<g>
				<polygon class="st3" points="330.7,71.8 337.7,67.7 339.2,72 332.3,76 				"/>
			</g>
			<g>
				<polygon class="st3" points="330.1,67.6 337,63.6 337.7,67.7 330.7,71.8 				"/>
			</g>
			<g>
				<polygon class="st3" points="335.4,80 342.4,76 346.5,79.5 339.6,83.5 				"/>
			</g>
			<g>
				<polygon class="st3" points="331,63.6 338,59.6 337,63.6 330.1,67.6 				"/>
			</g>
			<g>
				<polygon class="st3" points="333.3,61.4 340.2,57.4 338,59.6 331,63.6 				"/>
			</g>
			<g>
				<polygon class="st3" points="339.6,83.5 346.5,79.5 358.1,86.2 351.2,90.2 				"/>
			</g>
			<g>
				<polygon class="st3" points="331.5,57.7 338.4,53.7 342.4,53.6 335.5,57.7 				"/>
			</g>
			<g>
				<polygon class="st3" points="335.5,57.7 342.4,53.6 346.9,55.5 340,59.6 				"/>
			</g>
			<g>
				<path class="st3" d="M331.5,57.8l4.1-0.1l4.4,1.9l14.1,8.2l-0.1,47.8l-2.9-1.6l0.1-20.4l-12-7l-4.8-4.1l-4.1-5.2l-2.2-6
					l-0.8-5.4l1.2-5.1L331.5,57.8z M330.7,71.8l1.6,4.3l3.2,4l4.1,3.5l11.6,6.7l0.1-20.8l-11-6.3l-3.9-1.6h-3.1l-2.3,2.2l-0.9,4
					L330.7,71.8"/>
			</g>
			<g>
				<polygon class="st3" points="340,59.6 346.9,55.5 361,63.7 354.1,67.8 				"/>
			</g>
			<g>
				<polygon class="st3" points="354.1,67.8 361,63.7 360.9,111.6 354,115.6 				"/>
			</g>
		</g>
		<g class="st1">
			<g>
				<polygon class="st3" points="275.4,22.3 282.4,18.3 283.6,18.2 276.6,22.1 				"/>
			</g>
			<g>
				<polygon class="st3" points="279.4,26.1 286.3,22 285.9,23.2 279,27.2 				"/>
			</g>
			<g>
				<polygon class="st3" points="276.6,22.1 283.6,18.2 284.8,18.9 277.9,22.9 				"/>
			</g>
			<g>
				<polygon class="st3" points="276.6,26.8 275.4,25.1 275.1,23.6 275.4,22.3 276.6,22.1 277.9,22.9 279,24.3 279.4,26.1 279,27.2 
					277.9,27.5 				"/>
			</g>
			<g>
				<polygon class="st3" points="279,24.3 285.9,20.3 286.3,22 279.4,26.1 				"/>
			</g>
			<g>
				<polygon class="st3" points="277.9,22.9 284.8,18.9 285.9,20.3 279,24.3 				"/>
			</g>
		</g>
		<g class="st1">
			<g>
				<polygon class="st3" points="191.8,-2.3 191.8,1 179.4,-6.2 179.4,-9.4 				"/>
			</g>
			<g>
				<polygon class="st3" points="191.8,-2.3 198.7,-6.3 198.7,-3.1 191.8,1 				"/>
			</g>
			<g>
				<polygon class="st3" points="179.4,-9.4 186.4,-13.5 198.7,-6.3 191.8,-2.3 				"/>
			</g>
		</g>
		<g class="st1">
			<g>
				<polygon class="st3" points="117.1,-29.6 123.9,-33.6 126.3,-29.4 119.4,-25.4 				"/>
			</g>
			<g>
				<polygon class="st3" points="114.9,-28.5 121.8,-32.5 123.9,-33.6 117.1,-29.6 				"/>
			</g>
			<g>
				<polygon class="st3" points="119.4,-25.4 126.3,-29.4 128.7,-26 121.8,-21.9 				"/>
			</g>
			<g>
				<polygon class="st3" points="121.8,-21.9 128.7,-26 132,-23.3 125.1,-19.3 				"/>
			</g>
			<g>
				<polygon class="st3" points="125.1,-19.3 132,-23.3 135,-22.3 128.1,-18.2 				"/>
			</g>
			<g>
				<polygon class="st3" points="128.1,-18.2 135,-22.3 138,-23.2 131.1,-19.2 				"/>
			</g>
			<g>
				<polygon class="st3" points="135.6,-21.8 142.5,-25.8 140.5,-19.7 133.6,-15.6 				"/>
			</g>
			<g>
				<polygon class="st3" points="135.6,-44.8 142.6,-48.8 142.5,-25.8 135.6,-21.8 				"/>
			</g>
			<g>
				<polygon class="st3" points="123.4,-55.1 130.3,-59.2 139.7,-53.8 132.8,-49.7 				"/>
			</g>
			<g>
				<polygon class="st3" points="141.9,-44.5 148.7,-48.5 148.7,-45.2 141.8,-41.2 				"/>
			</g>
			<g>
				<polygon class="st3" points="135.6,-48.1 142.6,-52.1 148.7,-48.5 141.9,-44.5 				"/>
			</g>
			<g>
				<polygon class="st3" points="132.8,-58.3 139.8,-62.4 142.6,-60.7 135.6,-56.7 				"/>
			</g>
			<g>
				<polygon class="st3" points="135.6,-56.7 142.6,-60.7 142.6,-52.1 135.6,-48.1 				"/>
			</g>
			<g>
				<polygon class="st3" points="135.6,-56.7 135.6,-48.1 141.9,-44.5 141.8,-41.2 135.6,-44.8 135.6,-21.8 133.6,-15.6 
					129.3,-14.4 125.1,-15.8 120.6,-19.6 117.6,-23.8 114.9,-28.5 117.1,-29.6 119.4,-25.4 121.8,-21.9 125.1,-19.3 128.1,-18.2 
					131.1,-19.2 132.7,-23.9 132.8,-46.5 123.4,-51.9 123.4,-55.1 132.8,-49.7 132.8,-58.3 				"/>
			</g>
		</g>
		<g class="st1">
			<g>
				<polygon class="st3" points="148.8,-9.2 155.7,-13.2 158.5,-8.8 151.6,-4.8 				"/>
			</g>
			<g>
				<polygon class="st3" points="151.6,-4.8 158.5,-8.8 161.8,-6.1 154.9,-2 				"/>
			</g>
			<g>
				<polygon class="st3" points="154.9,-2 161.8,-6.1 165.6,-5.7 158.6,-1.6 				"/>
			</g>
			<g>
				<polygon class="st3" points="163.2,-3.7 170.1,-7.6 167.7,-1.9 160.9,2.2 				"/>
			</g>
			<g>
				<polygon class="st3" points="163.3,-26.6 170.2,-30.6 170.1,-7.6 163.2,-3.7 				"/>
			</g>
			<g>
				<polygon class="st3" points="160.4,-31.5 167.3,-35.5 180.5,-27.9 173.6,-23.9 				"/>
			</g>
			<g>
				<polygon class="st3" points="173.6,-23.9 180.5,-27.9 180.5,-24.7 173.6,-20.7 				"/>
			</g>
			<g>
				<polygon class="st3" points="151.6,-4.8 154.9,-2 158.6,-1.6 160.4,-5.9 160.4,-31.5 173.6,-23.9 173.6,-20.7 163.3,-26.6 
					163.2,-3.7 160.9,2.2 155.1,1.4 150.3,-2.5 147,-7.7 148.8,-9.2 				"/>
			</g>
		</g>
		<g class="st1">
			<g>
				<polygon class="st3" points="160.2,-43.9 167.1,-48 168.3,-48.1 161.4,-44 				"/>
			</g>
			<g>
				<polygon class="st3" points="164.1,-40.2 171,-44.2 170.6,-43.1 163.7,-39 				"/>
			</g>
			<g>
				<polygon class="st3" points="161.4,-44 168.3,-48.1 169.6,-47.4 162.6,-43.3 				"/>
			</g>
			<g>
				<polygon class="st3" points="161.4,-39.4 160.2,-41 159.8,-42.6 160.2,-43.9 161.4,-44 162.6,-43.3 163.7,-41.9 164.1,-40.2 
					163.7,-39 162.6,-38.7 				"/>
			</g>
			<g>
				<polygon class="st3" points="163.7,-41.9 170.6,-45.9 171,-44.2 164.1,-40.2 				"/>
			</g>
			<g>
				<polygon class="st3" points="162.6,-43.3 169.6,-47.4 170.6,-45.9 163.7,-41.9 				"/>
			</g>
		</g>
	</g>
</g>
<g id="font_7_">
	<g>
		<g class="st1">
			<g>
				<polygon class="st3" points="199.8,-66.5 206.8,-70.5 209.1,-66.2 202.2,-62.2 				"/>
			</g>
			<g>
				<polygon class="st3" points="197.7,-65.3 204.6,-69.3 206.8,-70.5 199.8,-66.5 				"/>
			</g>
			<g>
				<polygon class="st3" points="202.2,-62.2 209.1,-66.2 211.5,-62.8 204.6,-58.8 				"/>
			</g>
			<g>
				<polygon class="st3" points="204.6,-58.8 211.5,-62.8 214.8,-60.1 207.9,-56.1 				"/>
			</g>
			<g>
				<polygon class="st3" points="207.9,-56.1 214.8,-60.1 217.9,-59.1 210.9,-55.1 				"/>
			</g>
			<g>
				<polygon class="st3" points="210.9,-55.1 217.9,-59.1 220.8,-60 213.9,-56 				"/>
			</g>
			<g>
				<polygon class="st3" points="218.4,-58.6 225.3,-62.6 223.3,-56.5 216.5,-52.5 				"/>
			</g>
			<g>
				<polygon class="st3" points="218.5,-81.6 225.3,-85.7 225.3,-62.6 218.4,-58.6 				"/>
			</g>
			<g>
				<polygon class="st3" points="206.2,-92 213.2,-96 222.5,-90.6 215.6,-86.6 				"/>
			</g>
			<g>
				<polygon class="st3" points="224.6,-81.3 231.6,-85.4 231.6,-82.1 224.6,-78.1 				"/>
			</g>
			<g>
				<polygon class="st3" points="218.5,-84.9 225.4,-88.9 231.6,-85.4 224.6,-81.3 				"/>
			</g>
			<g>
				<polygon class="st3" points="215.7,-95.1 222.5,-99.2 225.4,-97.6 218.5,-93.5 				"/>
			</g>
			<g>
				<polygon class="st3" points="218.5,-93.5 225.4,-97.6 225.4,-88.9 218.5,-84.9 				"/>
			</g>
			<g>
				<polygon class="st3" points="218.5,-93.5 218.5,-84.9 224.6,-81.3 224.6,-78.1 218.5,-81.6 218.4,-58.6 216.5,-52.5 
					212.1,-51.3 207.9,-52.7 203.3,-56.4 200.4,-60.6 197.7,-65.3 199.8,-66.5 202.2,-62.2 204.6,-58.8 207.9,-56.1 210.9,-55.1 
					213.9,-56 215.5,-60.7 215.6,-83.3 206.2,-88.7 206.2,-92 215.6,-86.6 215.7,-95.1 				"/>
			</g>
		</g>
		<g class="st1">
			<g>
				<polygon class="st3" points="231.8,-62.7 238.8,-66.7 238.7,-44.3 231.8,-40.3 				"/>
			</g>
			<g>
				<polygon class="st3" points="232.4,-66.7 239.4,-70.8 238.8,-66.7 231.8,-62.7 				"/>
			</g>
			<g>
				<polygon class="st3" points="234.2,-68.8 241.2,-72.9 239.4,-70.8 232.4,-66.7 				"/>
			</g>
			<g>
				<polygon class="st3" points="232.3,-72.5 239.3,-76.5 243.5,-76.7 236.6,-72.7 				"/>
			</g>
			<g>
				<polygon class="st3" points="236.6,-72.7 243.5,-76.7 248.6,-74.5 241.6,-70.5 				"/>
			</g>
			<g>
				<polygon class="st3" points="241.6,-70.5 248.6,-74.5 255.1,-67.9 248.2,-63.9 				"/>
			</g>
			<g>
				<polygon class="st3" points="248.2,-63.9 255.1,-67.9 257.6,-62.8 250.8,-58.8 				"/>
			</g>
			<g>
				<polygon class="st3" points="253.6,-57.9 260.5,-61.9 260.5,-31.7 253.5,-27.7 				"/>
			</g>
			<g>
				<polygon class="st3" points="255.9,-59.5 262.8,-63.5 260.5,-61.9 253.6,-57.9 				"/>
			</g>
			<g>
				<polygon class="st3" points="253.6,-63 260.6,-67 262.8,-63.5 255.9,-59.5 				"/>
			</g>
			<g>
				<polygon class="st3" points="248.2,-63.9 250.8,-58.8 250.8,-60.8 253.6,-63 255.9,-59.5 253.6,-57.9 253.5,-27.7 250.6,-29.3 
					250.7,-53.6 246.4,-62.1 241.3,-67.2 237.4,-68.9 234.2,-68.8 232.4,-66.7 231.8,-62.7 231.8,-40.3 229,-41.9 229,-64.5 
					229.6,-69.6 232.3,-72.5 236.6,-72.7 241.6,-70.5 				"/>
			</g>
		</g>
		<g class="st1">
			<g>
				<polygon class="st3" points="264.1,-27.9 271.1,-31.9 273.8,-27.6 266.9,-23.5 				"/>
			</g>
			<g>
				<polygon class="st3" points="266.9,-23.5 273.8,-27.6 277.1,-24.8 270.1,-20.8 				"/>
			</g>
			<g>
				<polygon class="st3" points="270.1,-20.8 277.1,-24.8 280.8,-24.3 273.9,-20.3 				"/>
			</g>
			<g>
				<polygon class="st3" points="278.5,-22.3 285.4,-26.4 283,-20.5 276.1,-16.6 				"/>
			</g>
			<g>
				<polygon class="st3" points="278.6,-45.3 285.5,-49.4 285.4,-26.4 278.5,-22.3 				"/>
			</g>
			<g>
				<polygon class="st3" points="275.7,-50.1 282.6,-54.2 295.8,-46.6 288.9,-42.6 				"/>
			</g>
			<g>
				<polygon class="st3" points="288.9,-42.6 295.8,-46.6 295.7,-43.4 288.9,-39.3 				"/>
			</g>
			<g>
				<polygon class="st3" points="266.9,-23.5 270.1,-20.8 273.9,-20.3 275.6,-24.6 275.7,-50.1 288.9,-42.6 288.9,-39.3 
					278.6,-45.3 278.5,-22.3 276.1,-16.6 270.4,-17.3 265.5,-21.2 262.3,-26.4 264.1,-27.9 				"/>
			</g>
		</g>
		<g class="st1">
			<g>
				<polygon class="st3" points="298.4,-31 305.3,-35 304,-32.1 297,-28 				"/>
			</g>
			<g>
				<polygon class="st3" points="296.1,-34.3 302.9,-38.3 306.4,-39.6 299.5,-35.5 				"/>
			</g>
			<g>
				<polygon class="st3" points="299.5,-35.5 306.4,-39.6 310.6,-38.4 303.7,-34.3 				"/>
			</g>
			<g>
				<polygon class="st3" points="316,-18 322.8,-21.9 323,-21.9 316,-17.9 				"/>
			</g>
			<g>
				<polygon class="st3" points="303.7,-34.3 310.6,-38.4 315,-35.7 308.1,-31.6 				"/>
			</g>
			<g>
				<polygon class="st3" points="315.1,-21.1 322.1,-25.1 322.8,-21.9 316,-18 				"/>
			</g>
			<g>
				<polygon class="st3" points="313.9,-24 320.9,-28 322.1,-25.1 315.1,-21.1 				"/>
			</g>
			<g>
				<polygon class="st3" points="308.1,-31.6 315,-35.7 320.9,-28 313.9,-24 				"/>
			</g>
			<g>
				<polygon class="st3" points="318.5,-20.7 325.4,-24.7 325.3,6.1 318.4,10.1 				"/>
			</g>
			<g>
				<polygon class="st3" points="315.6,-24.1 322.5,-28.1 326.8,-28.8 319.9,-24.8 				"/>
			</g>
			<g>
				<polygon class="st3" points="319.9,-24.8 326.8,-28.8 328.3,-25.2 321.4,-21.1 				"/>
			</g>
			<g>
				<polygon class="st3" points="308.1,-31.6 313.9,-24 315.1,-21.1 316,-18 316,-17.9 315.6,-21 315.6,-24.1 319.9,-24.8 
					321.4,-21.1 318.5,-20.7 318.4,10.1 315.5,8.4 315.6,-13.9 311.9,-22.8 307.2,-28.9 304,-30.9 300.8,-31.8 298.4,-31 297,-28 
					294.5,-30.6 296.1,-34.3 299.5,-35.5 303.7,-34.3 				"/>
			</g>
		</g>
		<g class="st1">
			<g>
				<polygon class="st3" points="332.3,-8.9 339.2,-13 342.4,-8.9 335.4,-4.9 				"/>
			</g>
			<g>
				<polygon class="st3" points="330.7,-13.2 337.7,-17.2 339.2,-13 332.3,-8.9 				"/>
			</g>
			<g>
				<polygon class="st3" points="330.1,-17.3 337,-21.3 337.7,-17.2 330.7,-13.2 				"/>
			</g>
			<g>
				<polygon class="st3" points="335.4,-4.9 342.4,-8.9 346.5,-5.4 339.6,-1.4 				"/>
			</g>
			<g>
				<polygon class="st3" points="331,-21.3 338,-25.3 337,-21.3 330.1,-17.3 				"/>
			</g>
			<g>
				<polygon class="st3" points="333.3,-23.5 340.2,-27.6 338,-25.3 331,-21.3 				"/>
			</g>
			<g>
				<polygon class="st3" points="339.6,-1.4 346.5,-5.4 358.1,1.2 351.2,5.3 				"/>
			</g>
			<g>
				<polygon class="st3" points="331.5,-27.2 338.4,-31.2 342.4,-31.3 335.5,-27.2 				"/>
			</g>
			<g>
				<polygon class="st3" points="335.5,-27.2 342.4,-31.3 346.9,-29.4 340,-25.3 				"/>
			</g>
			<g>
				<path class="st3" d="M331.5-27.1l4.1-0.1l4.4,1.9l14.1,8.2L354,30.7l-2.9-1.6l0.1-20.4l-12-7l-4.8-4.1l-4.1-5.2l-2.2-6l-0.8-5.4
					l1.2-5.1L331.5-27.1z M330.7-13.2l1.6,4.3l3.2,4l4.1,3.5l11.6,6.7l0.1-20.8l-11-6.3l-3.9-1.6h-3.1l-2.3,2.2l-0.9,4L330.7-13.2"
					/>
			</g>
			<g>
				<polygon class="st3" points="340,-25.3 346.9,-29.4 361,-21.2 354.1,-17.2 				"/>
			</g>
			<g>
				<polygon class="st3" points="354.1,-17.2 361,-21.2 360.9,26.6 354,30.6 				"/>
			</g>
		</g>
		<g class="st1">
			<g>
				<polygon class="st3" points="275.4,-62.7 282.4,-66.7 283.6,-66.8 276.6,-62.8 				"/>
			</g>
			<g>
				<polygon class="st3" points="279.4,-58.9 286.3,-62.9 285.9,-61.7 279,-57.7 				"/>
			</g>
			<g>
				<polygon class="st3" points="276.6,-62.8 283.6,-66.8 284.8,-66.1 277.9,-62.1 				"/>
			</g>
			<g>
				<polygon class="st3" points="276.6,-58.2 275.4,-59.8 275.1,-61.3 275.4,-62.7 276.6,-62.8 277.9,-62.1 279,-60.6 279.4,-58.9 
					279,-57.7 277.9,-57.4 				"/>
			</g>
			<g>
				<polygon class="st3" points="279,-60.6 285.9,-64.6 286.3,-62.9 279.4,-58.9 				"/>
			</g>
			<g>
				<polygon class="st3" points="277.9,-62.1 284.8,-66.1 285.9,-64.6 279,-60.6 				"/>
			</g>
		</g>
		<g class="st1">
			<g>
				<polygon class="st3" points="191.8,-87.2 191.8,-84 179.4,-91.1 179.4,-94.4 				"/>
			</g>
			<g>
				<polygon class="st3" points="191.8,-87.2 198.7,-91.3 198.7,-88 191.8,-84 				"/>
			</g>
			<g>
				<polygon class="st3" points="179.4,-94.4 186.4,-98.4 198.7,-91.3 191.8,-87.2 				"/>
			</g>
		</g>
		<g class="st1">
			<g>
				<polygon class="st3" points="117.1,-114.6 123.9,-118.6 126.3,-114.3 119.4,-110.3 				"/>
			</g>
			<g>
				<polygon class="st3" points="114.9,-113.4 121.8,-117.5 123.9,-118.6 117.1,-114.6 				"/>
			</g>
			<g>
				<polygon class="st3" points="119.4,-110.3 126.3,-114.3 128.7,-110.9 121.8,-106.9 				"/>
			</g>
			<g>
				<polygon class="st3" points="121.8,-106.9 128.7,-110.9 132,-108.2 125.1,-104.2 				"/>
			</g>
			<g>
				<polygon class="st3" points="125.1,-104.2 132,-108.2 135,-107.2 128.1,-103.2 				"/>
			</g>
			<g>
				<polygon class="st3" points="128.1,-103.2 135,-107.2 138,-108.1 131.1,-104.1 				"/>
			</g>
			<g>
				<polygon class="st3" points="135.6,-106.7 142.5,-110.7 140.5,-104.6 133.6,-100.6 				"/>
			</g>
			<g>
				<polygon class="st3" points="135.6,-129.7 142.6,-133.8 142.5,-110.7 135.6,-106.7 				"/>
			</g>
			<g>
				<polygon class="st3" points="123.4,-140.1 130.3,-144.1 139.7,-138.7 132.8,-134.7 				"/>
			</g>
			<g>
				<polygon class="st3" points="141.9,-129.5 148.7,-133.5 148.7,-130.2 141.8,-126.2 				"/>
			</g>
			<g>
				<polygon class="st3" points="135.6,-133 142.6,-137 148.7,-133.5 141.9,-129.5 				"/>
			</g>
			<g>
				<polygon class="st3" points="132.8,-143.3 139.8,-147.3 142.6,-145.6 135.6,-141.6 				"/>
			</g>
			<g>
				<polygon class="st3" points="135.6,-141.6 142.6,-145.6 142.6,-137 135.6,-133 				"/>
			</g>
			<g>
				<polygon class="st3" points="135.6,-141.6 135.6,-133 141.9,-129.5 141.8,-126.2 135.6,-129.7 135.6,-106.7 133.6,-100.6 
					129.3,-99.4 125.1,-100.8 120.6,-104.5 117.6,-108.8 114.9,-113.4 117.1,-114.6 119.4,-110.3 121.8,-106.9 125.1,-104.2 
					128.1,-103.2 131.1,-104.1 132.7,-108.8 132.8,-131.4 123.4,-136.8 123.4,-140.1 132.8,-134.7 132.8,-143.3 				"/>
			</g>
		</g>
		<g class="st1">
			<g>
				<polygon class="st3" points="148.8,-94.1 155.7,-98.2 158.5,-93.8 151.6,-89.8 				"/>
			</g>
			<g>
				<polygon class="st3" points="151.6,-89.8 158.5,-93.8 161.8,-91 154.9,-87 				"/>
			</g>
			<g>
				<polygon class="st3" points="154.9,-87 161.8,-91 165.6,-90.6 158.6,-86.6 				"/>
			</g>
			<g>
				<polygon class="st3" points="163.2,-88.6 170.1,-92.6 167.7,-86.8 160.9,-82.8 				"/>
			</g>
			<g>
				<polygon class="st3" points="163.3,-111.6 170.2,-115.6 170.1,-92.6 163.2,-88.6 				"/>
			</g>
			<g>
				<polygon class="st3" points="160.4,-116.4 167.3,-120.4 180.5,-112.8 173.6,-108.8 				"/>
			</g>
			<g>
				<polygon class="st3" points="173.6,-108.8 180.5,-112.8 180.5,-109.6 173.6,-105.6 				"/>
			</g>
			<g>
				<polygon class="st3" points="151.6,-89.8 154.9,-87 158.6,-86.6 160.4,-90.9 160.4,-116.4 173.6,-108.8 173.6,-105.6 
					163.3,-111.6 163.2,-88.6 160.9,-82.8 155.1,-83.5 150.3,-87.4 147,-92.7 148.8,-94.1 				"/>
			</g>
		</g>
		<g class="st1">
			<g>
				<polygon class="st3" points="160.2,-128.9 167.1,-132.9 168.3,-133 161.4,-129 				"/>
			</g>
			<g>
				<polygon class="st3" points="164.1,-125.1 171,-129.1 170.6,-128 163.7,-124 				"/>
			</g>
			<g>
				<polygon class="st3" points="161.4,-129 168.3,-133 169.6,-132.3 162.6,-128.3 				"/>
			</g>
			<g>
				<polygon class="st3" points="161.4,-124.3 160.2,-126 159.8,-127.6 160.2,-128.9 161.4,-129 162.6,-128.3 163.7,-126.8 
					164.1,-125.1 163.7,-124 162.6,-123.6 				"/>
			</g>
			<g>
				<polygon class="st3" points="163.7,-126.8 170.6,-130.9 171,-129.1 164.1,-125.1 				"/>
			</g>
			<g>
				<polygon class="st3" points="162.6,-128.3 169.6,-132.3 170.6,-130.9 163.7,-126.8 				"/>
			</g>
		</g>
	</g>
</g>
<path class="st4" d="M247.6,505.7h-8.3V504h-5v-1.7h-1.7V499H231v-1.7h-1.7v-1.7h6.6v1.7h1.7v1.7h3.3v1.7h5V499h3.3v-1.7h1.7v-1.7
	h1.7v-3.3h1.7v-6.6h-1.7v-3.3h-1.7v-1.7h-1.7V479H246v-1.7h-5v1.7h-3.3v1.7H236v1.7h-6.6v-1.7h1.7V479h1.7v-3.3h1.7V474h5v-1.7h8.3
	v1.7h5v1.7h1.7v1.7h1.7v1.7h1.7v3.3h1.7v13.3h-1.7v3.3h-1.7v1.7h-1.7v1.7h-1.7v1.7h-5V505.7L247.6,505.7z"/>
<path class="st4" d="M205,505.3v-2.6h-4.9v-2.6h-1.6v-2.6h-1.6v-2.6h-1.6v-5.1h-1.6v-20.6h1.6v-5.1h1.6v-2.6h1.6v-2.6h1.6v-2.6h4.8
	v-2.6h8.1v2.6h4.8v2.6h1.6v2.6h1.6v2.6h1.6v5.1h1.6v20.6h-1.6v5.1H221v2.6h-1.6v2.6h-1.6v2.6H213v2.6H205z M211.4,497.6V495h3.2
	v-2.6h1.6v-2.6h1.6v-5.1h1.6v-10.3h-1.6v-5.1h-1.6v-2.6h-1.6v-2.6h-3.2v-2.6h-4.8v2.6h-3.2v2.6h-1.6v2.6h-1.6v5.1h-1.6v10.3h1.6v5.1
	h1.6v2.6h1.6v2.6h3.2v2.6H211.4z"/>
<path class="st4" d="M184.9,505.6v-49.9h-1.5v6.6h-1.5v13.3h-1.5V489h-1.5v10h-1.5v6.6h-4.6V499h-1.5v-10h-1.5v-13.3h-1.5v-13.3
	h-1.5v-6.6h-1.5v49.9h-4.6V439h7.6v10h1.5v6.6h1.5v10h1.5v10h1.5V489h1.5v-13.3h1.5v-10h1.5v-10h1.5V449h1.5v-10h7.6v66.6H184.9z"/>
<path class="st4" d="M156,505.4h-5.4v-35h-14.4v-3.9h-1.8v-4h-1.8v-3.9h-1.8v-19.4h1.8v-3.9h1.8v-3.9h1.8v-3.9H156V505.4L156,505.4z
	 M138.1,458.7h12.6v-19.4h-12.6v3.9h-1.8v11.7h1.8V458.7L138.1,458.7z"/>
<path class="st4" d="M107.9,505.3v-5h-3.3v-5h-1.7v-10h-1.7v-79.6h5v69.7h1.7v10h1.7v5h8.3v-5h1.7v-10h1.7v-69.7h5v79.6h-1.7v10
	h-1.7v5h-3.3v5H107.9z"/>
<path class="st4" d="M86.6,486.2h-4.8v-68.4H70.7v-12.1h27.1v12.1H86.6V486.2L86.6,486.2z"/>
<path class="st4" d="M67.1,486.3H45.5v-12.1h16.2V450H45.5v-12.1h16.2v-20.1H45.5v-12.1h21.6V486.3L67.1,486.3z"/>
<path class="st4" d="M37.5,486.2h-4.8V450h-1.6v4h-1.6v4h-1.7v4h-1.6v4h-1.6v4h-1.6v4h-1.6v4h-1.6v4H18v4h-6.5v-4h1.6v-4h1.6v-4h1.6
	v-4H18v-4h1.6v-4h1.6v-4h1.6v-4h1.6v-4h-4.9v-4h-1.6v-4h-1.6v-4h-1.6v-20.1h1.6v-4h1.6v-4h1.6v-4h17.8V486.2L37.5,486.2z
	 M32.7,437.9v-20.1H21.3v4h-1.6v12.1h1.6v4H32.7z"/>
<path class="st4" d="M247.6,571.9h-8.3v-2.9h-5V566h-1.7v-5.9H231v-2.9h-1.7v-17.5h14.9v8.7h-10v5.9h1.7v2.9h1.7v2.9h3.3v2.9h5v-2.9
	h3.3v-2.9h1.7v-2.9h1.7v-5.9h1.7v-11.7h-1.7V531h-1.7v-2.9h-1.7v-2.9H246v-2.9h-5v2.9h-3.3v2.9H236v2.9h-6.6V528h1.7v-2.9h1.7v-5.9
	h1.7v-2.9h5v-2.9h8.3v2.9h5v2.9h1.7v2.9h1.7v2.9h1.7v5.9h1.7v23.3h-1.7v5.9h-1.7v2.9h-1.7v2.9h-1.7v2.9h-5V571.9L247.6,571.9z"/>
<path class="st4" d="M217,571.8v-26.3h-1.8v2.9h-1.8v2.9h-1.8v2.9h-1.8v2.9h-1.8v2.9h-1.8v2.9h-1.8v2.9h-1.8v2.9h-1.8v2.9h-7.2V569
	h1.8v-2.9h1.8v-2.9h1.8v-2.9h1.8v-2.9h1.8v-2.9h1.8v-2.9h1.8v-2.9h1.8v-2.9h-5.4v-2.9h-1.8v-2.9h-1.8v-2.9h-1.8v-14.6h1.8v-2.9h1.8
	v-2.9h1.8v-2.9h19.8v58.4H217z M217,536.8v-14.6h-12.6v2.9h-1.8v8.7h1.8v2.9H217z"/>
<path class="st4" d="M184.1,571.8v-26.3h-1.8v2.9h-1.8v2.9h-1.8v2.9h-1.8v2.9h-1.8v2.9h-1.8v2.9h-1.8v2.9h-1.8v2.9H168v2.9h-7.2V569
	h1.8v-2.9h1.8v-2.9h1.8v-2.9h1.8v-2.9h1.8v-2.9h1.8v-2.9h1.8v-2.9h1.8v-2.9h-5.4v-2.9h-1.8v-2.9h-1.8v-2.9h-1.8v-14.6h1.8v-2.9h1.8
	v-2.9h1.8v-2.9h19.8v58.4H184.1z M184.1,536.8v-14.6h-12.6v2.9h-1.8v8.7h1.8v2.9H184.1z"/>
<path class="st4" d="M150.6,571.8v-26.3h-1.8v2.9h-1.8v2.9h-1.8v2.9h-1.8v2.9h-1.8v2.9h-1.8v2.9h-1.8v2.9h-1.8v2.9h-1.8v2.9h-7.2
	V569h1.8v-2.9h1.8v-2.9h1.8v-2.9h1.8v-2.9h1.8v-2.9h1.8v-2.9h1.8v-2.9h1.8v-2.9h-5.4v-2.9h-1.8v-2.9h-1.8v-2.9h-1.8v-14.6h1.8v-2.9
	h1.8v-2.9h1.8v-2.9h19.8v58.4H150.6z M150.7,536.8v-14.6h-12.6v2.9h-1.8v8.7h1.8v2.9H150.7z"/>
<path class="st4" d="M122.9,571.8H99.5v-8.7h18v-49.6h5.4V571.8L122.9,571.8z"/>
<path class="st4" d="M88.6,571.8h-9v-3.6H76v-3.6h-1.8v-3.6h-1.8v-18.2h1.8v-7.3h3.6v-3.6h3.6v-3.6h5.4v-3.6h3.6v-10.9h-1.8v-3.6h-9
	v3.6h-5.4v-7.3H76v-3.6h1.8v-3.6h12.6v3.6h1.8v3.6H94v3.6h1.8v18.2H94v3.6h-1.8v3.6h-5.4v3.6h-5.4v3.6h-1.8v3.6h-1.8v10.9h1.8v3.6h9
	v-3.6h1.8v-3.6h5.4v7.3H94v3.6h-1.8v3.6h-3.6V571.8L88.6,571.8z"/>
<g id="bulle_1_">
	<g>
		<g>
			<polygon class="st0" points="32.6,334.2 14,323.3 35.3,312 17.8,289.1 43.5,290.8 44.3,266.5 70.1,286.6 81.8,268 100,282.3 
				115.7,255.3 122,283.4 152.6,277.1 144.9,299.5 167.7,293.5 157.3,311 185.2,323.9 160.3,336.5 171.7,351.9 144.1,352.4 
				150.7,379 119.5,365.4 109.7,388.6 101.6,365.4 81.2,390.2 78.8,364 60.3,377.1 57.3,361.6 29.9,367.8 36.1,350 13.8,352.4 			
				"/>
		</g>
	</g>
</g>
<g>
	<path d="M121.3,316.2v-11.6h0.9v12.5h-7.6v-0.9H121.3z"/>
	<path d="M105.1,316.4l0.6-0.7l0.8,0.7l1,0.2l1.1-0.5l0.5-1.4v-6.7h3.9v0.8h-3.1v6l-0.7,1.9l-1.7,0.7l-1.4-0.3L105.1,316.4z
		 M108.9,305.3l0.1,0.4l0.4,0.2h0.4l0.3-0.2l0.1-0.4l-0.1-0.4l-0.3-0.2h-0.4l-0.4,0.2L108.9,305.3z"/>
	<path d="M96.6,308l2.7,7.7l2.8-7.6h0.8l1,1l-0.6,0.6l-0.3-0.3l-0.4-0.5l0,0.3l-2.9,7.8H99l-3.1-8.8L96.6,308z"/>
	<path d="M86.5,310.1l0.5-1.2l1-0.9l1.2-0.3l1.3,0l1.8,1.1l0.4,0.6l0.2,0.7h0l-0.1-0.7v-0.8l1.3-0.8l0.4,0.7l-0.9,0.6v8h-0.9v-5.8
		l-1.1-1.8l-1.4-0.9l-1,0l-1,0.2l-0.7,0.6l-0.4,1L86.5,310.1z"/>
	<path d="M79.6,317.3l-1.1-0.6l-0.9-0.9l0.6-0.6L79,316l0.9,0.5l1.2,0.2l1.3-0.2l0.9-0.7l0.7-1l0.3-1.4v-0.2h-7v-1.6l0.3-1.4
		l0.7-1.1l1.1-0.8l1.1-0.4h1.3l1.3,0.5l1.1,0.9l0.7,1.3l0.3,1.3v1.5l-0.3,1.6l-0.8,1.3l-1.2,0.9l-1.6,0.3L79.6,317.3z M84.3,312
		l-0.2-1.1l-0.6-1.1l-0.8-0.7l-1-0.4h-1l-0.9,0.3l-0.8,0.6l-0.6,0.9l-0.2,1.1v0.6h6.1V312z"/>
	<path d="M68.5,315.8l0.6-0.6l0.7,0.7l0.7,0.5l1,0.2l0.9-0.2l0.9-0.7l0.5-1.5v-5.9H71v-0.9h2.8v-2.2h0.9v2.2h1.9v0.9h-1.9v6
		l-0.6,1.9l-1.3,1l-1.3,0.3l-1.4-0.3l-0.9-0.7L68.5,315.8z"/>
	<path d="M140.8,337.4l0.2-0.9V326h0.9v4.2l0.5-0.6l1.4-0.6l1.3,0l1.1,0.5l1,0.9l0.7,1.2l0.3,1.5v1.6l-0.3,1.4l-0.7,1.3l-1.1,0.9
		l-1.4,0.3l-1.4-0.2l-1.1-0.6l-0.6-0.7l-0.1,0.3l-0.6,0.9l-0.7-0.5L140.8,337.4z M142.8,337.4l0.8,0.4l1.1,0.2l1-0.2l0.9-0.7
		l0.6-1.1l0.3-1.2v-1.4l-0.3-1.3l-0.6-1.1l-0.8-0.7L145,330h-0.9l-1.2,0.5l-0.9,1.2v4.4l0.3,0.7L142.8,337.4z"/>
	<path d="M136.5,326.8l-0.2,1.4h-0.7l-0.2-1.4l-0.1-0.4l0.1-0.4l0.3-0.2h0.3l0.3,0.2l0.1,0.4L136.5,326.8z"/>
	<path d="M126.1,338.7l-1.1-0.6l-0.9-0.9l0.6-0.6l0.8,0.8l0.9,0.5l1.2,0.2l1.3-0.2l0.9-0.7l0.7-1l0.3-1.4v-0.2h-7v-1.6l0.3-1.4
		l0.7-1.1l1.1-0.8l1.1-0.4h1.3l1.3,0.5l1.1,0.9l0.7,1.3l0.3,1.3v1.5l-0.3,1.6l-0.8,1.3l-1.2,0.9l-1.6,0.3L126.1,338.7z M130.8,333.4
		l-0.2-1.1l-0.6-1.1l-0.8-0.7l-1-0.4h-1l-0.9,0.3l-0.8,0.6l-0.6,0.9l-0.2,1.1v0.6h6.1V333.4z"/>
	<path d="M114.3,337.3l0.8-0.3l0.2,0.7l0.4,0.2l0.4-0.2l2.1-3.7l-3.1-4.1l0.7-0.5l2.8,3.8l2.1-3.7h0.7l0.7,1.1l-0.7,0.5l-0.2-0.2
		l-0.2-0.6l-0.2,0.6l-1.8,3.2l3.1,4.2l-0.7,0.5l-2.9-3.9l-2,3.6l-1,0.5l-1-0.6L114.3,337.3z"/>
	<path d="M105.5,331.8l0.9-1.5l1.4-0.9l1.5-0.2l1.8,0.6l0.7,0.7v-0.2l0.8-0.9l0.7,0.6l-0.6,0.7v11.4h-0.9v-4.2l-0.5,0.5l-1.6,0.6
		l-1.6-0.2l-1.4-0.8l-1-1.3l-0.5-1.7v-1.4L105.5,331.8z M106,334.9l0.4,1.4l0.8,1l1.1,0.6l1.2,0.2l1.2-0.4l1-1v-4.9l-1.1-1.3
		l-1.4-0.5l-1.1,0.2l-1.1,0.7l-0.7,1.2l-0.3,1.5V334.9z"/>
	<path d="M98.3,338.6l-1.2-1l-0.8-1.4l-0.3-1.6v-1.1l0.4-1.9l0.8-1.2l1.2-0.9l1.5-0.3l1.5,0.3l1.2,0.9l0.8,1.2l0.4,1.9v1.1l-0.3,1.6
		l-0.8,1.4l-1.2,1l-1.6,0.3L98.3,338.6z M101.9,337.1l0.6-1.1l0.3-1.4v-1.1l-0.4-1.6l-0.6-1l-0.9-0.7l-1.1-0.2l-1.1,0.2l-0.9,0.7
		l-0.6,1l-0.4,1.6v1.1l0.3,1.4l0.6,1.1l0.9,0.7l1.2,0.2l1.2-0.2L101.9,337.1z"/>
	<path d="M87.6,338.2l-0.8-1l-0.3-1.2l0.4-1.1l0.8-0.8l1.2-0.4l2.8-0.3l0.8-0.3l0.6-0.6l0.2-0.7l-0.2-0.8l-0.6-0.5l-0.9-0.4
		l-1.4-0.1l-1.3,0.2l-0.9,0.4l-0.8,0.8l-0.6-0.6l0.9-0.9l1.1-0.5l1.6-0.2l1.6,0.1l1.1,0.5l0.9,0.7l0.4,1.2l-0.3,1.1l-0.9,0.9
		l-1.1,0.4l-2.8,0.3l-1,0.3l-0.5,0.5l-0.2,0.7l0.2,0.7l0.6,0.7l1.1,0.5l1.4,0.1l1.3-0.2l1.1-0.6l0.8-1l0.7,0.5l-0.9,1.1l-1.4,0.7
		l-1.6,0.2l-1.7-0.1L87.6,338.2z"/>
	<path d="M77.1,337.8l0.6-0.7l0.8,0.7l1,0.2l1.1-0.5l0.5-1.4v-6.7h3.9v0.8H82v6l-0.7,1.9l-1.7,0.7l-1.4-0.3L77.1,337.8z M81,326.8
		l0.1,0.4l0.4,0.2h0.4l0.3-0.2l0.1-0.4l-0.1-0.4l-0.3-0.2h-0.4l-0.4,0.2L81,326.8z"/>
	<path d="M68.5,337.2l0.6-0.6l0.7,0.7l0.7,0.5l1,0.2l0.9-0.2l0.9-0.7l0.5-1.5v-5.9H71V329h2.8v-2.2h0.9v2.2h1.9v0.9h-1.9v6l-0.6,1.9
		l-1.3,1l-1.3,0.3l-1.4-0.3l-0.9-0.7L68.5,337.2z"/>
	<path d="M60.3,337.8l0.6-0.7l0.8,0.7l1,0.2l1.1-0.5l0.5-1.4v-6.7h3.9v0.8h-3.1v6l-0.7,1.9l-1.7,0.7l-1.4-0.3L60.3,337.8z
		 M64.1,326.8l0.1,0.4l0.4,0.2H65l0.3-0.2l0.1-0.4l-0.1-0.4l-0.3-0.2h-0.4l-0.4,0.2L64.1,326.8z"/>
	<path d="M53.5,338.6l-1.2-1l-0.8-1.4l-0.3-1.6v-1.1l0.4-1.9l0.8-1.2l1.2-0.9l1.5-0.3l1.5,0.3l1.2,0.9l0.8,1.2l0.4,1.9v1.1l-0.3,1.6
		l-0.8,1.4l-1.2,1l-1.6,0.3L53.5,338.6z M57.2,337.1l0.6-1.1l0.3-1.4v-1.1l-0.4-1.6l-0.6-1l-0.9-0.7l-1.1-0.2l-1.1,0.2l-0.9,0.7
		l-0.6,1l-0.4,1.6v1.1l0.3,1.4l0.6,1.1l0.9,0.7l1.2,0.2l1.2-0.2L57.2,337.1z"/>
	<path d="M41.9,332.6l0.2-1.4l0.8-1.2l1.2-0.7l1.5-0.2l2,0.7l0.8,0.9v-0.5l0.9-1l0.7,0.6l-0.7,0.8v7.9h-0.9v-6.3l-1.3-1.6l-1.5-0.6
		l-1.2,0.1l-0.9,0.5l-0.6,0.8l-0.2,1.1v5.9h-0.9V332.6z"/>
</g>
</svg>
