<?xml version="1.0" encoding="utf-8"?>
<!-- Generator: Adobe Illustrator 22.0.1, SVG Export Plug-In . SVG Version: 6.00 Build 0)  -->
<svg version="1.1" id="Layer_1" xmlns="http://www.w3.org/2000/svg" xmlns:xlink="http://www.w3.org/1999/xlink" x="0px" y="0px"
	 viewBox="0 0 420.9 595.3" style="enable-background:new 0 0 420.9 595.3;" xml:space="preserve">
<style type="text/css">
	.st0{enable-background:new    ;}
	.st1{fill:#FFFFFF;stroke:#010101;stroke-width:0.75;stroke-linejoin:round;stroke-miterlimit:10;}
	.st2{fill:#010101;}
	.st3{font-family:'Snap-itmono-5.3-Regular';}
	.st4{font-size:16.7612px;}
	.st5{fill:#FFFFFF;}
	.st6{fill:none;stroke:#010101;stroke-width:0.75;stroke-linejoin:round;}
	.st7{fill:none;stroke:#010101;stroke-width:0.75;stroke-linejoin:round;stroke-dasharray:2.2104,1.1052;}
	.st8{fill:none;stroke:#010101;stroke-width:0.75;stroke-linejoin:round;stroke-dasharray:2.0365,1.0183;}
	.st9{fill:none;}
</style>
<g id="font_3_">
	<g>
		<g class="st0">
			<g>
				<polygon class="st1" points="136.8,-15.1 146.1,-20.5 149.3,-14.7 139.9,-9.3 				"/>
			</g>
			<g>
				<polygon class="st1" points="133.9,-13.5 143.3,-18.9 146.1,-20.5 136.8,-15.1 				"/>
			</g>
			<g>
				<polygon class="st1" points="139.9,-9.3 149.3,-14.7 152.5,-10.1 143.2,-4.7 				"/>
			</g>
			<g>
				<polygon class="st1" points="143.2,-4.7 152.5,-10.1 157,-6.5 147.7,-1.1 				"/>
			</g>
			<g>
				<polygon class="st1" points="147.7,-1.1 157,-6.5 161.2,-5.2 151.8,0.3 				"/>
			</g>
			<g>
				<polygon class="st1" points="151.8,0.3 161.2,-5.2 165.1,-6.3 155.7,-0.9 				"/>
			</g>
			<g>
				<polygon class="st1" points="161.8,-4.5 171.1,-9.8 168.5,-1.6 159.2,3.8 				"/>
			</g>
			<g>
				<polygon class="st1" points="161.9,-35.5 171.2,-41 171.1,-9.8 161.8,-4.5 				"/>
			</g>
			<g>
				<polygon class="st1" points="145.4,-49.5 154.8,-54.9 167.4,-47.6 158,-42.2 				"/>
			</g>
			<g>
				<polygon class="st1" points="170.2,-35.1 179.6,-40.6 179.6,-36.1 170.2,-30.7 				"/>
			</g>
			<g>
				<polygon class="st1" points="161.9,-40 171.3,-45.4 179.6,-40.6 170.2,-35.1 				"/>
			</g>
			<g>
				<polygon class="st1" points="158.1,-53.7 167.4,-59.2 171.3,-57 161.9,-51.5 				"/>
			</g>
			<g>
				<polygon class="st1" points="161.9,-51.5 171.3,-57 171.3,-45.4 161.9,-40 				"/>
			</g>
			<g>
				<polygon class="st1" points="161.9,-51.5 161.9,-40 170.2,-35.1 170.2,-30.7 161.9,-35.5 161.8,-4.5 159.2,3.8 153.4,5.4 
					147.6,3.5 141.5,-1.4 137.5,-7.2 133.9,-13.5 136.8,-15.1 139.9,-9.3 143.2,-4.7 147.7,-1.1 151.8,0.3 155.7,-0.9 158,-7.3 
					158,-37.8 145.4,-45.1 145.4,-49.5 158,-42.2 158.1,-53.7 				"/>
			</g>
		</g>
		<g class="st0">
			<g>
				<polygon class="st1" points="180,-10 189.3,-15.4 189.2,14.8 179.9,20.3 				"/>
			</g>
			<g>
				<polygon class="st1" points="180.7,-15.4 190.1,-20.9 189.3,-15.4 180,-10 				"/>
			</g>
			<g>
				<polygon class="st1" points="183.2,-18.3 192.6,-23.7 190.1,-20.9 180.7,-15.4 				"/>
			</g>
			<g>
				<polygon class="st1" points="180.6,-23.2 190,-28.6 195.7,-28.8 186.3,-23.4 				"/>
			</g>
			<g>
				<polygon class="st1" points="186.3,-23.4 195.7,-28.8 202.6,-25.8 193.2,-20.5 				"/>
			</g>
			<g>
				<polygon class="st1" points="193.2,-20.5 202.6,-25.8 211.3,-17 202.1,-11.6 				"/>
			</g>
			<g>
				<polygon class="st1" points="202.1,-11.6 211.3,-17 214.8,-10.1 205.5,-4.7 				"/>
			</g>
			<g>
				<polygon class="st1" points="209.3,-3.5 218.7,-8.9 218.6,31.9 209.2,37.3 				"/>
			</g>
			<g>
				<polygon class="st1" points="212.4,-5.7 221.7,-11.1 218.7,-8.9 209.3,-3.5 				"/>
			</g>
			<g>
				<polygon class="st1" points="209.4,-10.4 218.7,-15.7 221.7,-11.1 212.4,-5.7 				"/>
			</g>
			<g>
				<polygon class="st1" points="202.1,-11.6 205.5,-4.7 205.5,-7.4 209.4,-10.4 212.4,-5.7 209.3,-3.5 209.2,37.3 205.3,35.1 
					205.4,2.4 199.5,-9.1 192.7,-16.1 187.5,-18.4 183.2,-18.3 180.7,-15.4 180,-10 179.9,20.3 176.1,18.1 176.2,-12.4 176.9,-19.3 
					180.6,-23.2 186.3,-23.4 193.2,-20.5 				"/>
			</g>
		</g>
		<g class="st0">
			<g>
				<polygon class="st1" points="223.5,37 232.9,31.6 236.6,37.4 227.2,42.9 				"/>
			</g>
			<g>
				<polygon class="st1" points="227.2,42.9 236.6,37.4 241,41.2 231.6,46.6 				"/>
			</g>
			<g>
				<polygon class="st1" points="231.6,46.6 241,41.2 246,41.8 236.8,47.1 				"/>
			</g>
			<g>
				<polygon class="st1" points="242.9,44.5 252.2,39 249,46.9 239.7,52.3 				"/>
			</g>
			<g>
				<polygon class="st1" points="243,13.5 252.3,8 252.2,39 242.9,44.5 				"/>
			</g>
			<g>
				<polygon class="st1" points="239.1,7 248.5,1.5 266.2,11.7 256.9,17.2 				"/>
			</g>
			<g>
				<polygon class="st1" points="256.9,17.2 266.2,11.7 266.2,16 256.9,21.5 				"/>
			</g>
			<g>
				<polygon class="st1" points="227.2,42.9 231.6,46.6 236.8,47.1 239.1,41.4 239.1,7 256.9,17.2 256.9,21.5 243,13.5 242.9,44.5 
					239.7,52.3 232,51.3 225.4,46 221,39 223.5,37 				"/>
			</g>
		</g>
		<g class="st0">
			<g>
				<polygon class="st1" points="269.7,32.8 279,27.4 277.3,31.3 267.9,36.8 				"/>
			</g>
			<g>
				<polygon class="st1" points="266.6,28.3 275.9,22.9 280.6,21.2 271.2,26.6 				"/>
			</g>
			<g>
				<polygon class="st1" points="271.2,26.6 280.6,21.2 286.2,22.9 276.8,28.3 				"/>
			</g>
			<g>
				<polygon class="st1" points="293.4,50.4 302.7,45 302.9,45.1 293.6,50.5 				"/>
			</g>
			<g>
				<polygon class="st1" points="276.8,28.3 286.2,22.9 292.1,26.4 282.8,31.9 				"/>
			</g>
			<g>
				<polygon class="st1" points="292.3,46.2 301.7,40.8 302.7,45 293.4,50.4 				"/>
			</g>
			<g>
				<polygon class="st1" points="290.7,42.2 300.1,36.8 301.7,40.8 292.3,46.2 				"/>
			</g>
			<g>
				<polygon class="st1" points="282.8,31.9 292.1,26.4 300.1,36.8 290.7,42.2 				"/>
			</g>
			<g>
				<polygon class="st1" points="296.8,46.7 306.2,41.3 306,82.8 296.7,88.2 				"/>
			</g>
			<g>
				<polygon class="st1" points="292.9,42 302.3,36.6 308.1,35.7 298.8,41.2 				"/>
			</g>
			<g>
				<polygon class="st1" points="298.8,41.2 308.1,35.7 310.1,40.6 300.8,46.1 				"/>
			</g>
			<g>
				<polygon class="st1" points="282.8,31.9 290.7,42.2 292.3,46.2 293.4,50.4 293.6,50.5 292.9,46.3 292.9,42 298.8,41.2 
					300.8,46.1 296.8,46.7 296.7,88.2 292.8,86 292.9,55.9 288,43.9 281.6,35.6 277.3,32.9 272.9,31.7 269.7,32.8 267.9,36.8 
					264.5,33.3 266.6,28.3 271.2,26.6 276.8,28.3 				"/>
			</g>
		</g>
		<g class="st0">
			<g>
				<polygon class="st1" points="315.4,62.6 324.8,57.1 329.1,62.6 319.7,68 				"/>
			</g>
			<g>
				<polygon class="st1" points="313.3,56.8 322.7,51.4 324.8,57.1 315.4,62.6 				"/>
			</g>
			<g>
				<polygon class="st1" points="312.6,51.2 321.9,45.8 322.7,51.4 313.3,56.8 				"/>
			</g>
			<g>
				<polygon class="st1" points="319.7,68 329.1,62.6 334.6,67.3 325.3,72.7 				"/>
			</g>
			<g>
				<polygon class="st1" points="313.8,45.8 323.1,40.4 321.9,45.8 312.6,51.2 				"/>
			</g>
			<g>
				<polygon class="st1" points="316.9,42.9 326.2,37.4 323.1,40.4 313.8,45.8 				"/>
			</g>
			<g>
				<polygon class="st1" points="325.3,72.7 334.6,67.3 350.3,76.3 341,81.7 				"/>
			</g>
			<g>
				<polygon class="st1" points="314.4,37.9 323.7,32.5 329.2,32.4 319.8,37.9 				"/>
			</g>
			<g>
				<polygon class="st1" points="319.8,37.9 329.2,32.4 335.2,35 325.9,40.4 				"/>
			</g>
			<g>
				<path class="st1" d="M314.4,38l5.5-0.1l6,2.6l19.1,11l-0.2,64.5l-3.9-2.2l0.1-27.6l-16.1-9.4l-6.5-5.6l-5.6-7.1l-3-8l-1.1-7.3
					l1.6-6.9L314.4,38z M313.3,56.8l2.1,5.8l4.3,5.4l5.6,4.7l15.7,9.1l0.1-28.1l-14.9-8.6l-5.2-2.2h-4.2l-3.1,2.9l-1.2,5.4
					L313.3,56.8"/>
			</g>
			<g>
				<polygon class="st1" points="325.9,40.4 335.2,35 354.2,46 345,51.5 				"/>
			</g>
			<g>
				<polygon class="st1" points="345,51.5 354.2,46 354.1,110.6 344.8,115.9 				"/>
			</g>
		</g>
		<g class="st0">
			<g>
				<polygon class="st1" points="238.8,-10 248.1,-15.3 249.7,-15.5 240.4,-10.1 				"/>
			</g>
			<g>
				<polygon class="st1" points="244.1,-4.8 253.5,-10.3 252.9,-8.7 243.6,-3.3 				"/>
			</g>
			<g>
				<polygon class="st1" points="240.4,-10.1 249.7,-15.5 251.4,-14.5 242.1,-9.1 				"/>
			</g>
			<g>
				<polygon class="st1" points="240.4,-3.9 238.8,-6.1 238.3,-8.2 238.8,-10 240.4,-10.1 242.1,-9.1 243.6,-7.2 244.1,-4.8 
					243.6,-3.3 242,-2.9 				"/>
			</g>
			<g>
				<polygon class="st1" points="243.6,-7.2 252.9,-12.6 253.5,-10.3 244.1,-4.8 				"/>
			</g>
			<g>
				<polygon class="st1" points="242.1,-9.1 251.4,-14.5 252.9,-12.6 243.6,-7.2 				"/>
			</g>
		</g>
		<g class="st0">
			<g>
				<polygon class="st1" points="126,-43.1 126,-38.7 109.3,-48.3 109.3,-52.7 				"/>
			</g>
			<g>
				<polygon class="st1" points="126,-43.1 135.3,-48.5 135.3,-44.1 126,-38.7 				"/>
			</g>
			<g>
				<polygon class="st1" points="109.3,-52.7 118.7,-58.2 135.3,-48.5 126,-43.1 				"/>
			</g>
		</g>
		<g class="st0">
			<g>
				<polygon class="st1" points="25.1,-80 34.4,-85.3 37.6,-79.6 28.3,-74.2 				"/>
			</g>
			<g>
				<polygon class="st1" points="22.3,-78.4 31.5,-83.9 34.4,-85.3 25.1,-80 				"/>
			</g>
			<g>
				<polygon class="st1" points="28.3,-74.2 37.6,-79.6 40.8,-75 31.5,-69.6 				"/>
			</g>
			<g>
				<polygon class="st1" points="31.5,-69.6 40.8,-75 45.2,-71.4 36,-66 				"/>
			</g>
			<g>
				<polygon class="st1" points="36,-66 45.2,-71.4 49.4,-70.1 40,-64.6 				"/>
			</g>
			<g>
				<polygon class="st1" points="40,-64.6 49.4,-70.1 53.4,-71.3 44.1,-65.9 				"/>
			</g>
			<g>
				<polygon class="st1" points="50.1,-69.4 59.5,-74.8 56.7,-66.5 47.5,-61.1 				"/>
			</g>
			<g>
				<polygon class="st1" points="50.2,-100.4 59.6,-105.9 59.5,-74.8 50.1,-69.4 				"/>
			</g>
			<g>
				<polygon class="st1" points="33.7,-114.4 43,-119.8 55.7,-112.5 46.3,-107.1 				"/>
			</g>
			<g>
				<polygon class="st1" points="58.6,-100.1 67.9,-105.4 67.9,-101 58.5,-95.6 				"/>
			</g>
			<g>
				<polygon class="st1" points="50.2,-104.8 59.6,-110.3 67.9,-105.4 58.6,-100.1 				"/>
			</g>
			<g>
				<polygon class="st1" points="46.4,-118.7 55.8,-124.1 59.6,-121.8 50.2,-116.5 				"/>
			</g>
			<g>
				<polygon class="st1" points="50.2,-116.5 59.6,-121.8 59.6,-110.3 50.2,-104.8 				"/>
			</g>
			<g>
				<polygon class="st1" points="50.2,-116.5 50.2,-104.8 58.6,-100.1 58.5,-95.6 50.2,-100.4 50.1,-69.4 47.5,-61.1 41.6,-59.5 
					36,-61.4 29.9,-66.4 25.8,-72.1 22.3,-78.4 25.1,-80 28.3,-74.2 31.5,-69.6 36,-66 40,-64.6 44.1,-65.9 46.2,-72.2 46.3,-102.7 
					33.7,-110 33.7,-114.4 46.3,-107.1 46.4,-118.7 				"/>
			</g>
		</g>
		<g class="st0">
			<g>
				<polygon class="st1" points="67.9,-52.3 77.3,-57.8 81.1,-51.9 71.8,-46.5 				"/>
			</g>
			<g>
				<polygon class="st1" points="71.8,-46.5 81.1,-51.9 85.4,-48.2 76.2,-42.7 				"/>
			</g>
			<g>
				<polygon class="st1" points="76.2,-42.7 85.4,-48.2 90.6,-47.7 81.2,-42.2 				"/>
			</g>
			<g>
				<polygon class="st1" points="87.4,-44.9 96.7,-50.3 93.4,-42.5 84.2,-37.1 				"/>
			</g>
			<g>
				<polygon class="st1" points="87.4,-75.9 96.8,-81.3 96.7,-50.3 87.4,-44.9 				"/>
			</g>
			<g>
				<polygon class="st1" points="83.7,-82.5 92.9,-87.9 110.7,-77.6 101.3,-72.2 				"/>
			</g>
			<g>
				<polygon class="st1" points="101.3,-72.2 110.7,-77.6 110.7,-73.3 101.3,-67.9 				"/>
			</g>
			<g>
				<polygon class="st1" points="71.8,-46.5 76.2,-42.7 81.2,-42.2 83.6,-48 83.7,-82.5 101.3,-72.2 101.3,-67.9 87.4,-75.9 
					87.4,-44.9 84.2,-37.1 76.4,-38 70,-43.3 65.5,-50.4 67.9,-52.3 				"/>
			</g>
		</g>
		<g class="st0">
			<g>
				<polygon class="st1" points="83.3,-99.2 92.6,-104.7 94.3,-104.9 84.9,-99.4 				"/>
			</g>
			<g>
				<polygon class="st1" points="88.6,-94.2 97.9,-99.6 97.3,-98.1 88,-92.6 				"/>
			</g>
			<g>
				<polygon class="st1" points="84.9,-99.4 94.3,-104.9 96,-103.9 86.6,-98.4 				"/>
			</g>
			<g>
				<polygon class="st1" points="84.9,-93.1 83.3,-95.3 82.8,-97.5 83.3,-99.2 84.9,-99.4 86.6,-98.4 88,-96.5 88.6,-94.2 88,-92.6 
					86.6,-92.2 				"/>
			</g>
			<g>
				<polygon class="st1" points="88,-96.5 97.3,-102 97.9,-99.6 88.6,-94.2 				"/>
			</g>
			<g>
				<polygon class="st1" points="86.6,-98.4 96,-103.9 97.3,-102 88,-96.5 				"/>
			</g>
		</g>
	</g>
</g>
<g id="font_1_">
	<g>
		<g class="st0">
			<g>
				<polygon class="st1" points="136.8,114.5 146.1,109.1 149.3,114.9 139.9,120.2 				"/>
			</g>
			<g>
				<polygon class="st1" points="133.9,116.1 143.3,110.7 146.1,109.1 136.8,114.5 				"/>
			</g>
			<g>
				<polygon class="st1" points="139.9,120.2 149.3,114.9 152.5,119.5 143.2,124.9 				"/>
			</g>
			<g>
				<polygon class="st1" points="143.2,124.9 152.5,119.5 157,123.1 147.7,128.5 				"/>
			</g>
			<g>
				<polygon class="st1" points="147.7,128.5 157,123.1 161.2,124.4 151.8,129.9 				"/>
			</g>
			<g>
				<polygon class="st1" points="151.8,129.9 161.2,124.4 165.1,123.3 155.7,128.6 				"/>
			</g>
			<g>
				<polygon class="st1" points="161.8,125.1 171.1,119.7 168.5,127.9 159.2,133.4 				"/>
			</g>
			<g>
				<polygon class="st1" points="161.9,94 171.2,88.6 171.1,119.7 161.8,125.1 				"/>
			</g>
			<g>
				<polygon class="st1" points="145.4,80.1 154.8,74.7 167.4,82 158,87.4 				"/>
			</g>
			<g>
				<polygon class="st1" points="170.2,94.5 179.6,89 179.6,93.5 170.2,98.9 				"/>
			</g>
			<g>
				<polygon class="st1" points="161.9,89.6 171.3,84.2 179.6,89 170.2,94.5 				"/>
			</g>
			<g>
				<polygon class="st1" points="158.1,75.9 167.4,70.4 171.3,72.6 161.9,78.1 				"/>
			</g>
			<g>
				<polygon class="st1" points="161.9,78.1 171.3,72.6 171.3,84.2 161.9,89.6 				"/>
			</g>
			<g>
				<polygon class="st1" points="161.9,78.1 161.9,89.6 170.2,94.5 170.2,98.9 161.9,94 161.8,125.1 159.2,133.4 153.4,135 
					147.6,133.1 141.5,128.1 137.5,122.4 133.9,116.1 136.8,114.5 139.9,120.2 143.2,124.9 147.7,128.5 151.8,129.9 155.7,128.6 
					158,122.3 158,91.8 145.4,84.5 145.4,80.1 158,87.4 158.1,75.9 				"/>
			</g>
		</g>
		<g class="st0">
			<g>
				<polygon class="st1" points="180,119.6 189.3,114.2 189.2,144.4 179.9,149.9 				"/>
			</g>
			<g>
				<polygon class="st1" points="180.7,114.2 190.1,108.7 189.3,114.2 180,119.6 				"/>
			</g>
			<g>
				<polygon class="st1" points="183.2,111.3 192.6,105.9 190.1,108.7 180.7,114.2 				"/>
			</g>
			<g>
				<polygon class="st1" points="180.6,106.4 190,101 195.7,100.8 186.3,106.1 				"/>
			</g>
			<g>
				<polygon class="st1" points="186.3,106.1 195.7,100.8 202.6,103.7 193.2,109.1 				"/>
			</g>
			<g>
				<polygon class="st1" points="193.2,109.1 202.6,103.7 211.3,112.6 202.1,118 				"/>
			</g>
			<g>
				<polygon class="st1" points="202.1,118 211.3,112.6 214.8,119.5 205.5,124.9 				"/>
			</g>
			<g>
				<polygon class="st1" points="209.3,126.1 218.7,120.7 218.6,161.5 209.2,166.8 				"/>
			</g>
			<g>
				<polygon class="st1" points="212.4,123.9 221.7,118.5 218.7,120.7 209.3,126.1 				"/>
			</g>
			<g>
				<polygon class="st1" points="209.4,119.2 218.7,113.8 221.7,118.5 212.4,123.9 				"/>
			</g>
			<g>
				<polygon class="st1" points="202.1,118 205.5,124.9 205.5,122.2 209.4,119.2 212.4,123.9 209.3,126.1 209.2,166.8 205.3,164.6 
					205.4,131.9 199.5,120.4 192.7,113.5 187.5,111.2 183.2,111.3 180.7,114.2 180,119.6 179.9,149.9 176.1,147.7 176.2,117.2 
					176.9,110.3 180.6,106.4 186.3,106.1 193.2,109.1 				"/>
			</g>
		</g>
		<g class="st0">
			<g>
				<polygon class="st1" points="223.5,166.6 232.9,161.1 236.6,167 227.2,172.5 				"/>
			</g>
			<g>
				<polygon class="st1" points="227.2,172.5 236.6,167 241,170.8 231.6,176.2 				"/>
			</g>
			<g>
				<polygon class="st1" points="231.6,176.2 241,170.8 246,171.3 236.8,176.7 				"/>
			</g>
			<g>
				<polygon class="st1" points="242.9,174.1 252.2,168.6 249,176.5 239.7,181.9 				"/>
			</g>
			<g>
				<polygon class="st1" points="243,143.1 252.3,137.6 252.2,168.6 242.9,174.1 				"/>
			</g>
			<g>
				<polygon class="st1" points="239.1,136.5 248.5,131.1 266.2,141.3 256.9,146.7 				"/>
			</g>
			<g>
				<polygon class="st1" points="256.9,146.7 266.2,141.3 266.2,145.6 256.9,151.1 				"/>
			</g>
			<g>
				<polygon class="st1" points="227.2,172.5 231.6,176.2 236.8,176.7 239.1,171 239.1,136.5 256.9,146.7 256.9,151.1 243,143.1 
					242.9,174.1 239.7,181.9 232,180.9 225.4,175.5 221,168.6 223.5,166.6 				"/>
			</g>
		</g>
		<g class="st0">
			<g>
				<polygon class="st1" points="269.7,162.4 279,157 277.3,160.9 267.9,166.4 				"/>
			</g>
			<g>
				<polygon class="st1" points="266.6,157.9 275.9,152.5 280.6,150.7 271.2,156.2 				"/>
			</g>
			<g>
				<polygon class="st1" points="271.2,156.2 280.6,150.7 286.2,152.4 276.8,157.9 				"/>
			</g>
			<g>
				<polygon class="st1" points="293.4,180 302.7,174.6 302.9,174.7 293.6,180.1 				"/>
			</g>
			<g>
				<polygon class="st1" points="276.8,157.9 286.2,152.4 292.1,156 282.8,161.5 				"/>
			</g>
			<g>
				<polygon class="st1" points="292.3,175.8 301.7,170.4 302.7,174.6 293.4,180 				"/>
			</g>
			<g>
				<polygon class="st1" points="290.7,171.8 300.1,166.4 301.7,170.4 292.3,175.8 				"/>
			</g>
			<g>
				<polygon class="st1" points="282.8,161.5 292.1,156 300.1,166.4 290.7,171.8 				"/>
			</g>
			<g>
				<polygon class="st1" points="296.8,176.3 306.2,170.9 306,212.4 296.7,217.8 				"/>
			</g>
			<g>
				<polygon class="st1" points="292.9,171.6 302.3,166.2 308.1,165.3 298.8,170.8 				"/>
			</g>
			<g>
				<polygon class="st1" points="298.8,170.8 308.1,165.3 310.1,170.2 300.8,175.6 				"/>
			</g>
			<g>
				<polygon class="st1" points="282.8,161.5 290.7,171.8 292.3,175.8 293.4,180 293.6,180.1 292.9,175.9 292.9,171.6 298.8,170.8 
					300.8,175.6 296.8,176.3 296.7,217.8 292.8,215.6 292.9,185.4 288,173.4 281.6,165.1 277.3,162.5 272.9,161.2 269.7,162.4 
					267.9,166.4 264.5,162.8 266.6,157.9 271.2,156.2 276.8,157.9 				"/>
			</g>
		</g>
		<g class="st0">
			<g>
				<polygon class="st1" points="315.4,192.2 324.8,186.7 329.1,192.2 319.7,197.5 				"/>
			</g>
			<g>
				<polygon class="st1" points="313.3,186.4 322.7,180.9 324.8,186.7 315.4,192.2 				"/>
			</g>
			<g>
				<polygon class="st1" points="312.6,180.8 321.9,175.4 322.7,180.9 313.3,186.4 				"/>
			</g>
			<g>
				<polygon class="st1" points="319.7,197.5 329.1,192.2 334.6,196.9 325.3,202.3 				"/>
			</g>
			<g>
				<polygon class="st1" points="313.8,175.4 323.1,170 321.9,175.4 312.6,180.8 				"/>
			</g>
			<g>
				<polygon class="st1" points="316.9,172.5 326.2,167 323.1,170 313.8,175.4 				"/>
			</g>
			<g>
				<polygon class="st1" points="325.3,202.3 334.6,196.9 350.3,205.8 341,211.3 				"/>
			</g>
			<g>
				<polygon class="st1" points="314.4,167.5 323.7,162.1 329.2,162 319.8,167.4 				"/>
			</g>
			<g>
				<polygon class="st1" points="319.8,167.4 329.2,162 335.2,164.5 325.9,170 				"/>
			</g>
			<g>
				<path class="st1" d="M314.4,167.6l5.5-0.1l6,2.6l19.1,11l-0.2,64.5l-3.9-2.2l0.1-27.6l-16.1-9.4l-6.5-5.6l-5.6-7.1l-3-8
					l-1.1-7.3l1.6-6.9L314.4,167.6z M313.3,186.4l2.1,5.8l4.3,5.4l5.6,4.7l15.7,9.1l0.1-28.1l-14.9-8.6l-5.2-2.2h-4.2l-3.1,2.9
					l-1.2,5.4L313.3,186.4"/>
			</g>
			<g>
				<polygon class="st1" points="325.9,170 335.2,164.5 354.2,175.5 345,181 				"/>
			</g>
			<g>
				<polygon class="st1" points="345,181 354.2,175.5 354.1,240.1 344.8,245.5 				"/>
			</g>
		</g>
		<g class="st0">
			<g>
				<polygon class="st1" points="238.8,119.6 248.1,114.2 249.7,114.1 240.4,119.5 				"/>
			</g>
			<g>
				<polygon class="st1" points="244.1,124.8 253.5,119.3 252.9,120.9 243.6,126.3 				"/>
			</g>
			<g>
				<polygon class="st1" points="240.4,119.5 249.7,114.1 251.4,115.1 242.1,120.4 				"/>
			</g>
			<g>
				<polygon class="st1" points="240.4,125.7 238.8,123.5 238.3,121.4 238.8,119.6 240.4,119.5 242.1,120.4 243.6,122.4 
					244.1,124.8 243.6,126.3 242,126.7 				"/>
			</g>
			<g>
				<polygon class="st1" points="243.6,122.4 252.9,117 253.5,119.3 244.1,124.8 				"/>
			</g>
			<g>
				<polygon class="st1" points="242.1,120.4 251.4,115.1 252.9,117 243.6,122.4 				"/>
			</g>
		</g>
		<g class="st0">
			<g>
				<polygon class="st1" points="126,86.5 126,90.9 109.3,81.3 109.3,76.9 				"/>
			</g>
			<g>
				<polygon class="st1" points="126,86.5 135.3,81 135.3,85.4 126,90.9 				"/>
			</g>
			<g>
				<polygon class="st1" points="109.3,76.9 118.7,71.4 135.3,81 126,86.5 				"/>
			</g>
		</g>
		<g class="st0">
			<g>
				<polygon class="st1" points="25.1,49.6 34.4,44.2 37.6,50 28.3,55.4 				"/>
			</g>
			<g>
				<polygon class="st1" points="22.3,51.2 31.5,45.7 34.4,44.2 25.1,49.6 				"/>
			</g>
			<g>
				<polygon class="st1" points="28.3,55.4 37.6,50 40.8,54.5 31.5,60 				"/>
			</g>
			<g>
				<polygon class="st1" points="31.5,60 40.8,54.5 45.2,58.2 36,63.6 				"/>
			</g>
			<g>
				<polygon class="st1" points="36,63.6 45.2,58.2 49.4,59.5 40,65 				"/>
			</g>
			<g>
				<polygon class="st1" points="40,65 49.4,59.5 53.4,58.3 44.1,63.7 				"/>
			</g>
			<g>
				<polygon class="st1" points="50.1,60.2 59.5,54.8 56.7,63 47.5,68.5 				"/>
			</g>
			<g>
				<polygon class="st1" points="50.2,29.2 59.6,23.7 59.5,54.8 50.1,60.2 				"/>
			</g>
			<g>
				<polygon class="st1" points="33.7,15.2 43,9.7 55.7,17.1 46.3,22.5 				"/>
			</g>
			<g>
				<polygon class="st1" points="58.6,29.5 67.9,24.1 67.9,28.6 58.5,34 				"/>
			</g>
			<g>
				<polygon class="st1" points="50.2,24.8 59.6,19.3 67.9,24.1 58.6,29.5 				"/>
			</g>
			<g>
				<polygon class="st1" points="46.4,10.9 55.8,5.4 59.6,7.7 50.2,13.1 				"/>
			</g>
			<g>
				<polygon class="st1" points="50.2,13.1 59.6,7.7 59.6,19.3 50.2,24.8 				"/>
			</g>
			<g>
				<polygon class="st1" points="50.2,13.1 50.2,24.8 58.6,29.5 58.5,34 50.2,29.2 50.1,60.2 47.5,68.5 41.6,70.1 36,68.2 
					29.9,63.2 25.8,57.5 22.3,51.2 25.1,49.6 28.3,55.4 31.5,60 36,63.6 40,65 44.1,63.7 46.2,57.3 46.3,26.9 33.7,19.6 33.7,15.2 
					46.3,22.5 46.4,10.9 				"/>
			</g>
		</g>
		<g class="st0">
			<g>
				<polygon class="st1" points="67.9,77.2 77.3,71.8 81.1,77.7 71.8,83.1 				"/>
			</g>
			<g>
				<polygon class="st1" points="71.8,83.1 81.1,77.7 85.4,81.4 76.2,86.9 				"/>
			</g>
			<g>
				<polygon class="st1" points="76.2,86.9 85.4,81.4 90.6,81.9 81.2,87.4 				"/>
			</g>
			<g>
				<polygon class="st1" points="87.4,84.7 96.7,79.3 93.4,87 84.2,92.5 				"/>
			</g>
			<g>
				<polygon class="st1" points="87.4,53.7 96.8,48.3 96.7,79.3 87.4,84.7 				"/>
			</g>
			<g>
				<polygon class="st1" points="83.7,47.1 92.9,41.7 110.7,52 101.3,57.3 				"/>
			</g>
			<g>
				<polygon class="st1" points="101.3,57.3 110.7,52 110.7,56.3 101.3,61.7 				"/>
			</g>
			<g>
				<polygon class="st1" points="71.8,83.1 76.2,86.9 81.2,87.4 83.6,81.6 83.7,47.1 101.3,57.3 101.3,61.7 87.4,53.7 87.4,84.7 
					84.2,92.5 76.4,91.5 70,86.3 65.5,79.2 67.9,77.2 				"/>
			</g>
		</g>
		<g class="st0">
			<g>
				<polygon class="st1" points="83.3,30.3 92.6,24.9 94.3,24.7 84.9,30.2 				"/>
			</g>
			<g>
				<polygon class="st1" points="88.6,35.4 97.9,30 97.3,31.5 88,36.9 				"/>
			</g>
			<g>
				<polygon class="st1" points="84.9,30.2 94.3,24.7 96,25.7 86.6,31.2 				"/>
			</g>
			<g>
				<polygon class="st1" points="84.9,36.4 83.3,34.2 82.8,32.1 83.3,30.3 84.9,30.2 86.6,31.2 88,33.1 88.6,35.4 88,36.9 
					86.6,37.4 				"/>
			</g>
			<g>
				<polygon class="st1" points="88,33.1 97.3,27.6 97.9,30 88.6,35.4 				"/>
			</g>
			<g>
				<polygon class="st1" points="86.6,31.2 96,25.7 97.3,27.6 88,33.1 				"/>
			</g>
		</g>
	</g>
</g>
<g id="font_2_">
	<g>
		<g class="st0">
			<g>
				<polygon class="st1" points="136.8,244.1 146.1,238.7 149.3,244.4 139.9,249.8 				"/>
			</g>
			<g>
				<polygon class="st1" points="133.9,245.7 143.3,240.2 146.1,238.7 136.8,244.1 				"/>
			</g>
			<g>
				<polygon class="st1" points="139.9,249.8 149.3,244.4 152.5,249 143.2,254.4 				"/>
			</g>
			<g>
				<polygon class="st1" points="143.2,254.4 152.5,249 157,252.7 147.7,258.1 				"/>
			</g>
			<g>
				<polygon class="st1" points="147.7,258.1 157,252.7 161.2,254 151.8,259.5 				"/>
			</g>
			<g>
				<polygon class="st1" points="151.8,259.5 161.2,254 165.1,252.8 155.7,258.2 				"/>
			</g>
			<g>
				<polygon class="st1" points="161.8,254.7 171.1,249.3 168.5,257.5 159.2,262.9 				"/>
			</g>
			<g>
				<polygon class="st1" points="161.9,223.6 171.2,218.2 171.1,249.3 161.8,254.7 				"/>
			</g>
			<g>
				<polygon class="st1" points="145.4,209.6 154.8,204.3 167.4,211.6 158,217 				"/>
			</g>
			<g>
				<polygon class="st1" points="170.2,224 179.6,218.6 179.6,223.1 170.2,228.4 				"/>
			</g>
			<g>
				<polygon class="st1" points="161.9,219.2 171.3,213.8 179.6,218.6 170.2,224 				"/>
			</g>
			<g>
				<polygon class="st1" points="158.1,205.4 167.4,199.9 171.3,202.1 161.9,207.6 				"/>
			</g>
			<g>
				<polygon class="st1" points="161.9,207.6 171.3,202.1 171.3,213.8 161.9,219.2 				"/>
			</g>
			<g>
				<polygon class="st1" points="161.9,207.6 161.9,219.2 170.2,224 170.2,228.4 161.9,223.6 161.8,254.7 159.2,262.9 153.4,264.6 
					147.6,262.6 141.5,257.7 137.5,252 133.9,245.7 136.8,244.1 139.9,249.8 143.2,254.4 147.7,258.1 151.8,259.5 155.7,258.2 
					158,251.9 158,221.4 145.4,214 145.4,209.6 158,217 158.1,205.4 				"/>
			</g>
		</g>
		<g class="st0">
			<g>
				<polygon class="st1" points="180,249.2 189.3,243.8 189.2,274 179.9,279.4 				"/>
			</g>
			<g>
				<polygon class="st1" points="180.7,243.8 190.1,238.3 189.3,243.8 180,249.2 				"/>
			</g>
			<g>
				<polygon class="st1" points="183.2,240.9 192.6,235.5 190.1,238.3 180.7,243.8 				"/>
			</g>
			<g>
				<polygon class="st1" points="180.6,236 190,230.6 195.7,230.3 186.3,235.7 				"/>
			</g>
			<g>
				<polygon class="st1" points="186.3,235.7 195.7,230.3 202.6,233.3 193.2,238.7 				"/>
			</g>
			<g>
				<polygon class="st1" points="193.2,238.7 202.6,233.3 211.3,242.2 202.1,247.6 				"/>
			</g>
			<g>
				<polygon class="st1" points="202.1,247.6 211.3,242.2 214.8,249 205.5,254.4 				"/>
			</g>
			<g>
				<polygon class="st1" points="209.3,255.7 218.7,250.3 218.6,291 209.2,296.4 				"/>
			</g>
			<g>
				<polygon class="st1" points="212.4,253.5 221.7,248.1 218.7,250.3 209.3,255.7 				"/>
			</g>
			<g>
				<polygon class="st1" points="209.4,248.8 218.7,243.4 221.7,248.1 212.4,253.5 				"/>
			</g>
			<g>
				<polygon class="st1" points="202.1,247.6 205.5,254.4 205.5,251.8 209.4,248.8 212.4,253.5 209.3,255.7 209.2,296.4 
					205.3,294.2 205.4,261.5 199.5,250 192.7,243.1 187.5,240.7 183.2,240.9 180.7,243.8 180,249.2 179.9,279.4 176.1,277.2 
					176.2,246.7 176.9,239.9 180.6,236 186.3,235.7 193.2,238.7 				"/>
			</g>
		</g>
		<g class="st0">
			<g>
				<polygon class="st1" points="223.5,296.2 232.9,290.7 236.6,296.6 227.2,302 				"/>
			</g>
			<g>
				<polygon class="st1" points="227.2,302 236.6,296.6 241,300.4 231.6,305.7 				"/>
			</g>
			<g>
				<polygon class="st1" points="231.6,305.7 241,300.4 246,300.9 236.8,306.3 				"/>
			</g>
			<g>
				<polygon class="st1" points="242.9,303.6 252.2,298.2 249,306 239.7,311.4 				"/>
			</g>
			<g>
				<polygon class="st1" points="243,272.6 252.3,267.1 252.2,298.2 242.9,303.6 				"/>
			</g>
			<g>
				<polygon class="st1" points="239.1,266.1 248.5,260.6 266.2,270.9 256.9,276.3 				"/>
			</g>
			<g>
				<polygon class="st1" points="256.9,276.3 266.2,270.9 266.2,275.2 256.9,280.7 				"/>
			</g>
			<g>
				<polygon class="st1" points="227.2,302 231.6,305.7 236.8,306.3 239.1,300.6 239.1,266.1 256.9,276.3 256.9,280.7 243,272.6 
					242.9,303.6 239.7,311.4 232,310.5 225.4,305.1 221,298.2 223.5,296.2 				"/>
			</g>
		</g>
		<g class="st0">
			<g>
				<polygon class="st1" points="269.7,292 279,286.6 277.3,290.5 267.9,295.9 				"/>
			</g>
			<g>
				<polygon class="st1" points="266.6,287.5 275.9,282.1 280.6,280.3 271.2,285.8 				"/>
			</g>
			<g>
				<polygon class="st1" points="271.2,285.8 280.6,280.3 286.2,282 276.8,287.5 				"/>
			</g>
			<g>
				<polygon class="st1" points="293.4,309.5 302.7,304.1 302.9,304.3 293.6,309.6 				"/>
			</g>
			<g>
				<polygon class="st1" points="276.8,287.5 286.2,282 292.1,285.6 282.8,291.1 				"/>
			</g>
			<g>
				<polygon class="st1" points="292.3,305.3 301.7,299.9 302.7,304.1 293.4,309.5 				"/>
			</g>
			<g>
				<polygon class="st1" points="290.7,301.3 300.1,295.9 301.7,299.9 292.3,305.3 				"/>
			</g>
			<g>
				<polygon class="st1" points="282.8,291.1 292.1,285.6 300.1,295.9 290.7,301.3 				"/>
			</g>
			<g>
				<polygon class="st1" points="296.8,305.8 306.2,300.5 306,342 296.7,347.4 				"/>
			</g>
			<g>
				<polygon class="st1" points="292.9,301.2 302.3,295.8 308.1,294.9 298.8,300.4 				"/>
			</g>
			<g>
				<polygon class="st1" points="298.8,300.4 308.1,294.9 310.1,299.7 300.8,305.2 				"/>
			</g>
			<g>
				<polygon class="st1" points="282.8,291.1 290.7,301.3 292.3,305.3 293.4,309.5 293.6,309.6 292.9,305.5 292.9,301.2 
					298.8,300.4 300.8,305.2 296.8,305.8 296.7,347.4 292.8,345.2 292.9,315 288,303 281.6,294.7 277.3,292.1 272.9,290.8 
					269.7,292 267.9,295.9 264.5,292.4 266.6,287.5 271.2,285.8 276.8,287.5 				"/>
			</g>
		</g>
		<g class="st0">
			<g>
				<polygon class="st1" points="315.4,321.7 324.8,316.2 329.1,321.7 319.7,327.1 				"/>
			</g>
			<g>
				<polygon class="st1" points="313.3,316 322.7,310.5 324.8,316.2 315.4,321.7 				"/>
			</g>
			<g>
				<polygon class="st1" points="312.6,310.4 321.9,305 322.7,310.5 313.3,316 				"/>
			</g>
			<g>
				<polygon class="st1" points="319.7,327.1 329.1,321.7 334.6,326.4 325.3,331.8 				"/>
			</g>
			<g>
				<polygon class="st1" points="313.8,305 323.1,299.6 321.9,305 312.6,310.4 				"/>
			</g>
			<g>
				<polygon class="st1" points="316.9,302 326.2,296.6 323.1,299.6 313.8,305 				"/>
			</g>
			<g>
				<polygon class="st1" points="325.3,331.8 334.6,326.4 350.3,335.4 341,340.9 				"/>
			</g>
			<g>
				<polygon class="st1" points="314.4,297.1 323.7,291.6 329.2,291.5 319.8,297 				"/>
			</g>
			<g>
				<polygon class="st1" points="319.8,297 329.2,291.5 335.2,294.1 325.9,299.6 				"/>
			</g>
			<g>
				<path class="st1" d="M314.4,297.2l5.5-0.1l6,2.6l19.1,11l-0.2,64.5l-3.9-2.2l0.1-27.6l-16.1-9.4l-6.5-5.6l-5.6-7.1l-3-8
					l-1.1-7.3l1.6-6.9L314.4,297.2z M313.3,316l2.1,5.8l4.3,5.4l5.6,4.7l15.7,9.1l0.1-28.1l-14.9-8.6L321,302h-4.2l-3.1,2.9
					l-1.2,5.4L313.3,316"/>
			</g>
			<g>
				<polygon class="st1" points="325.9,299.6 335.2,294.1 354.2,305.1 345,310.6 				"/>
			</g>
			<g>
				<polygon class="st1" points="345,310.6 354.2,305.1 354.1,369.7 344.8,375.1 				"/>
			</g>
		</g>
		<g class="st0">
			<g>
				<polygon class="st1" points="238.8,249.2 248.1,243.8 249.7,243.7 240.4,249 				"/>
			</g>
			<g>
				<polygon class="st1" points="244.1,254.3 253.5,248.8 252.9,250.5 243.6,255.9 				"/>
			</g>
			<g>
				<polygon class="st1" points="240.4,249 249.7,243.7 251.4,244.6 242.1,250 				"/>
			</g>
			<g>
				<polygon class="st1" points="240.4,255.3 238.8,253.1 238.3,251 238.8,249.2 240.4,249 242.1,250 243.6,252 244.1,254.3 
					243.6,255.9 242,256.3 				"/>
			</g>
			<g>
				<polygon class="st1" points="243.6,252 252.9,246.6 253.5,248.8 244.1,254.3 				"/>
			</g>
			<g>
				<polygon class="st1" points="242.1,250 251.4,244.6 252.9,246.6 243.6,252 				"/>
			</g>
		</g>
		<g class="st0">
			<g>
				<polygon class="st1" points="126,216.1 126,220.5 109.3,210.9 109.3,206.5 				"/>
			</g>
			<g>
				<polygon class="st1" points="126,216.1 135.3,210.6 135.3,215 126,220.5 				"/>
			</g>
			<g>
				<polygon class="st1" points="109.3,206.5 118.7,201 135.3,210.6 126,216.1 				"/>
			</g>
		</g>
		<g class="st0">
			<g>
				<polygon class="st1" points="25.1,179.2 34.4,173.8 37.6,179.5 28.3,184.9 				"/>
			</g>
			<g>
				<polygon class="st1" points="22.3,180.8 31.5,175.3 34.4,173.8 25.1,179.2 				"/>
			</g>
			<g>
				<polygon class="st1" points="28.3,184.9 37.6,179.5 40.8,184.1 31.5,189.6 				"/>
			</g>
			<g>
				<polygon class="st1" points="31.5,189.6 40.8,184.1 45.2,187.7 36,193.1 				"/>
			</g>
			<g>
				<polygon class="st1" points="36,193.1 45.2,187.7 49.4,189.1 40,194.6 				"/>
			</g>
			<g>
				<polygon class="st1" points="40,194.6 49.4,189.1 53.4,187.9 44.1,193.3 				"/>
			</g>
			<g>
				<polygon class="st1" points="50.1,189.8 59.5,184.4 56.7,192.6 47.5,198.1 				"/>
			</g>
			<g>
				<polygon class="st1" points="50.2,158.8 59.6,153.3 59.5,184.4 50.1,189.8 				"/>
			</g>
			<g>
				<polygon class="st1" points="33.7,144.8 43,139.3 55.7,146.6 46.3,152.1 				"/>
			</g>
			<g>
				<polygon class="st1" points="58.6,159.1 67.9,153.7 67.9,158.2 58.5,163.6 				"/>
			</g>
			<g>
				<polygon class="st1" points="50.2,154.3 59.6,148.9 67.9,153.7 58.6,159.1 				"/>
			</g>
			<g>
				<polygon class="st1" points="46.4,140.5 55.8,135 59.6,137.3 50.2,142.7 				"/>
			</g>
			<g>
				<polygon class="st1" points="50.2,142.7 59.6,137.3 59.6,148.9 50.2,154.3 				"/>
			</g>
			<g>
				<polygon class="st1" points="50.2,142.7 50.2,154.3 58.6,159.1 58.5,163.6 50.2,158.8 50.1,189.8 47.5,198.1 41.6,199.7 
					36,197.8 29.9,192.8 25.8,187 22.3,180.8 25.1,179.2 28.3,184.9 31.5,189.6 36,193.1 40,194.6 44.1,193.3 46.2,186.9 
					46.3,156.5 33.7,149.2 33.7,144.8 46.3,152.1 46.4,140.5 				"/>
			</g>
		</g>
		<g class="st0">
			<g>
				<polygon class="st1" points="67.9,206.8 77.3,201.3 81.1,207.3 71.8,212.7 				"/>
			</g>
			<g>
				<polygon class="st1" points="71.8,212.7 81.1,207.3 85.4,211 76.2,216.4 				"/>
			</g>
			<g>
				<polygon class="st1" points="76.2,216.4 85.4,211 90.6,211.5 81.2,217 				"/>
			</g>
			<g>
				<polygon class="st1" points="87.4,214.2 96.7,208.9 93.4,216.6 84.2,222.1 				"/>
			</g>
			<g>
				<polygon class="st1" points="87.4,183.2 96.8,177.9 96.7,208.9 87.4,214.2 				"/>
			</g>
			<g>
				<polygon class="st1" points="83.7,176.7 92.9,171.3 110.7,181.5 101.3,186.9 				"/>
			</g>
			<g>
				<polygon class="st1" points="101.3,186.9 110.7,181.5 110.7,185.9 101.3,191.3 				"/>
			</g>
			<g>
				<polygon class="st1" points="71.8,212.7 76.2,216.4 81.2,217 83.6,211.2 83.7,176.7 101.3,186.9 101.3,191.3 87.4,183.2 
					87.4,214.2 84.2,222.1 76.4,221.1 70,215.8 65.5,208.8 67.9,206.8 				"/>
			</g>
		</g>
		<g class="st0">
			<g>
				<polygon class="st1" points="83.3,159.9 92.6,154.4 94.3,154.3 84.9,159.8 				"/>
			</g>
			<g>
				<polygon class="st1" points="88.6,164.9 97.9,159.6 97.3,161 88,166.5 				"/>
			</g>
			<g>
				<polygon class="st1" points="84.9,159.8 94.3,154.3 96,155.2 86.6,160.7 				"/>
			</g>
			<g>
				<polygon class="st1" points="84.9,166 83.3,163.8 82.8,161.7 83.3,159.9 84.9,159.8 86.6,160.7 88,162.6 88.6,164.9 88,166.5 
					86.6,167 				"/>
			</g>
			<g>
				<polygon class="st1" points="88,162.6 97.3,157.2 97.9,159.6 88.6,164.9 				"/>
			</g>
			<g>
				<polygon class="st1" points="86.6,160.7 96,155.2 97.3,157.2 88,162.6 				"/>
			</g>
		</g>
	</g>
</g>
<g id="font_4_">
	<g>
		<g class="st0">
			<g>
				<polygon class="st1" points="136.8,373.7 146.1,368.3 149.3,374 139.9,379.4 				"/>
			</g>
			<g>
				<polygon class="st1" points="133.9,375.2 143.3,369.8 146.1,368.3 136.8,373.7 				"/>
			</g>
			<g>
				<polygon class="st1" points="139.9,379.4 149.3,374 152.5,378.6 143.2,384 				"/>
			</g>
			<g>
				<polygon class="st1" points="143.2,384 152.5,378.6 157,382.3 147.7,387.6 				"/>
			</g>
			<g>
				<polygon class="st1" points="147.7,387.6 157,382.3 161.2,383.5 151.8,389 				"/>
			</g>
			<g>
				<polygon class="st1" points="151.8,389 161.2,383.5 165.1,382.4 155.7,387.8 				"/>
			</g>
			<g>
				<polygon class="st1" points="161.8,384.3 171.1,378.9 168.5,387.1 159.2,392.5 				"/>
			</g>
			<g>
				<polygon class="st1" points="161.9,353.2 171.2,347.8 171.1,378.9 161.8,384.3 				"/>
			</g>
			<g>
				<polygon class="st1" points="145.4,339.2 154.8,333.8 167.4,341.2 158,346.5 				"/>
			</g>
			<g>
				<polygon class="st1" points="170.2,353.6 179.6,348.1 179.6,352.6 170.2,358 				"/>
			</g>
			<g>
				<polygon class="st1" points="161.9,348.7 171.3,343.4 179.6,348.1 170.2,353.6 				"/>
			</g>
			<g>
				<polygon class="st1" points="158.1,335 167.4,329.5 171.3,331.7 161.9,337.2 				"/>
			</g>
			<g>
				<polygon class="st1" points="161.9,337.2 171.3,331.7 171.3,343.4 161.9,348.7 				"/>
			</g>
			<g>
				<polygon class="st1" points="161.9,337.2 161.9,348.7 170.2,353.6 170.2,358 161.9,353.2 161.8,384.3 159.2,392.5 153.4,394.2 
					147.6,392.2 141.5,387.3 137.5,381.5 133.9,375.2 136.8,373.7 139.9,379.4 143.2,384 147.7,387.6 151.8,389 155.7,387.8 
					158,381.4 158,350.9 145.4,343.6 145.4,339.2 158,346.5 158.1,335 				"/>
			</g>
		</g>
		<g class="st0">
			<g>
				<polygon class="st1" points="180,378.8 189.3,373.3 189.2,403.5 179.9,409 				"/>
			</g>
			<g>
				<polygon class="st1" points="180.7,373.3 190.1,367.9 189.3,373.3 180,378.8 				"/>
			</g>
			<g>
				<polygon class="st1" points="183.2,370.5 192.6,365 190.1,367.9 180.7,373.3 				"/>
			</g>
			<g>
				<polygon class="st1" points="180.6,365.6 190,360.2 195.7,359.9 186.3,365.3 				"/>
			</g>
			<g>
				<polygon class="st1" points="186.3,365.3 195.7,359.9 202.6,362.9 193.2,368.3 				"/>
			</g>
			<g>
				<polygon class="st1" points="193.2,368.3 202.6,362.9 211.3,371.8 202.1,377.1 				"/>
			</g>
			<g>
				<polygon class="st1" points="202.1,377.1 211.3,371.8 214.8,378.6 205.5,384 				"/>
			</g>
			<g>
				<polygon class="st1" points="209.3,385.2 218.7,379.9 218.6,420.6 209.2,426 				"/>
			</g>
			<g>
				<polygon class="st1" points="212.4,383 221.7,377.7 218.7,379.9 209.3,385.2 				"/>
			</g>
			<g>
				<polygon class="st1" points="209.4,378.4 218.7,373 221.7,377.7 212.4,383 				"/>
			</g>
			<g>
				<polygon class="st1" points="202.1,377.1 205.5,384 205.5,381.3 209.4,378.4 212.4,383 209.3,385.2 209.2,426 205.3,423.8 
					205.4,391.1 199.5,379.6 192.7,372.6 187.5,370.3 183.2,370.5 180.7,373.3 180,378.8 179.9,409 176.1,406.8 176.2,376.3 
					176.9,369.5 180.6,365.6 186.3,365.3 193.2,368.3 				"/>
			</g>
		</g>
		<g class="st0">
			<g>
				<polygon class="st1" points="223.5,425.7 232.9,420.3 236.6,426.1 227.2,431.6 				"/>
			</g>
			<g>
				<polygon class="st1" points="227.2,431.6 236.6,426.1 241,429.9 231.6,435.3 				"/>
			</g>
			<g>
				<polygon class="st1" points="231.6,435.3 241,429.9 246,430.5 236.8,435.9 				"/>
			</g>
			<g>
				<polygon class="st1" points="242.9,433.2 252.2,427.7 249,435.6 239.7,441 				"/>
			</g>
			<g>
				<polygon class="st1" points="243,402.2 252.3,396.7 252.2,427.7 242.9,433.2 				"/>
			</g>
			<g>
				<polygon class="st1" points="239.1,395.7 248.5,390.2 266.2,400.5 256.9,405.9 				"/>
			</g>
			<g>
				<polygon class="st1" points="256.9,405.9 266.2,400.5 266.2,404.8 256.9,410.3 				"/>
			</g>
			<g>
				<polygon class="st1" points="227.2,431.6 231.6,435.3 236.8,435.9 239.1,430.1 239.1,395.7 256.9,405.9 256.9,410.3 243,402.2 
					242.9,433.2 239.7,441 232,440 225.4,434.7 221,427.7 223.5,425.7 				"/>
			</g>
		</g>
		<g class="st0">
			<g>
				<polygon class="st1" points="269.7,421.6 279,416.1 277.3,420 267.9,425.5 				"/>
			</g>
			<g>
				<polygon class="st1" points="266.6,417.1 275.9,411.6 280.6,409.9 271.2,415.4 				"/>
			</g>
			<g>
				<polygon class="st1" points="271.2,415.4 280.6,409.9 286.2,411.6 276.8,417.1 				"/>
			</g>
			<g>
				<polygon class="st1" points="293.4,439.1 302.7,433.7 302.9,433.8 293.6,439.2 				"/>
			</g>
			<g>
				<polygon class="st1" points="276.8,417.1 286.2,411.6 292.1,415.2 282.8,420.7 				"/>
			</g>
			<g>
				<polygon class="st1" points="292.3,434.9 301.7,429.5 302.7,433.7 293.4,439.1 				"/>
			</g>
			<g>
				<polygon class="st1" points="290.7,430.9 300.1,425.5 301.7,429.5 292.3,434.9 				"/>
			</g>
			<g>
				<polygon class="st1" points="282.8,420.7 292.1,415.2 300.1,425.5 290.7,430.9 				"/>
			</g>
			<g>
				<polygon class="st1" points="296.8,435.4 306.2,430 306,471.6 296.7,476.9 				"/>
			</g>
			<g>
				<polygon class="st1" points="292.9,430.8 302.3,425.4 308.1,424.4 298.8,429.9 				"/>
			</g>
			<g>
				<polygon class="st1" points="298.8,429.9 308.1,424.4 310.1,429.3 300.8,434.8 				"/>
			</g>
			<g>
				<polygon class="st1" points="282.8,420.7 290.7,430.9 292.3,434.9 293.4,439.1 293.6,439.2 292.9,435.1 292.9,430.8 
					298.8,429.9 300.8,434.8 296.8,435.4 296.7,476.9 292.8,474.7 292.9,444.6 288,432.6 281.6,424.3 277.3,421.6 272.9,420.4 
					269.7,421.6 267.9,425.5 264.5,422 266.6,417.1 271.2,415.4 276.8,417.1 				"/>
			</g>
		</g>
		<g class="st0">
			<g>
				<polygon class="st1" points="315.4,451.3 324.8,445.8 329.1,451.3 319.7,456.7 				"/>
			</g>
			<g>
				<polygon class="st1" points="313.3,445.6 322.7,440.1 324.8,445.8 315.4,451.3 				"/>
			</g>
			<g>
				<polygon class="st1" points="312.6,439.9 321.9,434.5 322.7,440.1 313.3,445.6 				"/>
			</g>
			<g>
				<polygon class="st1" points="319.7,456.7 329.1,451.3 334.6,456 325.3,461.4 				"/>
			</g>
			<g>
				<polygon class="st1" points="313.8,434.5 323.1,429.2 321.9,434.5 312.6,439.9 				"/>
			</g>
			<g>
				<polygon class="st1" points="316.9,431.6 326.2,426.1 323.1,429.2 313.8,434.5 				"/>
			</g>
			<g>
				<polygon class="st1" points="325.3,461.4 334.6,456 350.3,465 341,470.5 				"/>
			</g>
			<g>
				<polygon class="st1" points="314.4,426.7 323.7,421.2 329.2,421.1 319.8,426.6 				"/>
			</g>
			<g>
				<polygon class="st1" points="319.8,426.6 329.2,421.1 335.2,423.7 325.9,429.2 				"/>
			</g>
			<g>
				<path class="st1" d="M314.4,426.8l5.5-0.1l6,2.6l19.1,11l-0.2,64.5l-3.9-2.2l0.1-27.6l-16.1-9.4l-6.5-5.6l-5.6-7.1l-3-8
					l-1.1-7.3l1.6-6.9L314.4,426.8z M313.3,445.6l2.1,5.8l4.3,5.4l5.6,4.7l15.7,9.1l0.1-28.1l-14.9-8.6l-5.2-2.2h-4.2l-3.1,2.9
					l-1.2,5.4L313.3,445.6"/>
			</g>
			<g>
				<polygon class="st1" points="325.9,429.2 335.2,423.7 354.2,434.7 345,440.2 				"/>
			</g>
			<g>
				<polygon class="st1" points="345,440.2 354.2,434.7 354.1,499.3 344.8,504.7 				"/>
			</g>
		</g>
		<g class="st0">
			<g>
				<polygon class="st1" points="238.8,378.8 248.1,373.4 249.7,373.2 240.4,378.6 				"/>
			</g>
			<g>
				<polygon class="st1" points="244.1,383.9 253.5,378.4 252.9,380.1 243.6,385.4 				"/>
			</g>
			<g>
				<polygon class="st1" points="240.4,378.6 249.7,373.2 251.4,374.2 242.1,379.6 				"/>
			</g>
			<g>
				<polygon class="st1" points="240.4,384.9 238.8,382.7 238.3,380.6 238.8,378.8 240.4,378.6 242.1,379.6 243.6,381.5 
					244.1,383.9 243.6,385.4 242,385.9 				"/>
			</g>
			<g>
				<polygon class="st1" points="243.6,381.5 252.9,376.2 253.5,378.4 244.1,383.9 				"/>
			</g>
			<g>
				<polygon class="st1" points="242.1,379.6 251.4,374.2 252.9,376.2 243.6,381.5 				"/>
			</g>
		</g>
		<g class="st0">
			<g>
				<polygon class="st1" points="126,345.7 126,350.1 109.3,340.4 109.3,336 				"/>
			</g>
			<g>
				<polygon class="st1" points="126,345.7 135.3,340.2 135.3,344.6 126,350.1 				"/>
			</g>
			<g>
				<polygon class="st1" points="109.3,336 118.7,330.5 135.3,340.2 126,345.7 				"/>
			</g>
		</g>
		<g class="st0">
			<g>
				<polygon class="st1" points="25.1,308.8 34.4,303.4 37.6,309.1 28.3,314.5 				"/>
			</g>
			<g>
				<polygon class="st1" points="22.3,310.4 31.5,304.9 34.4,303.4 25.1,308.8 				"/>
			</g>
			<g>
				<polygon class="st1" points="28.3,314.5 37.6,309.1 40.8,313.7 31.5,319.2 				"/>
			</g>
			<g>
				<polygon class="st1" points="31.5,319.2 40.8,313.7 45.2,317.3 36,322.7 				"/>
			</g>
			<g>
				<polygon class="st1" points="36,322.7 45.2,317.3 49.4,318.7 40,324.1 				"/>
			</g>
			<g>
				<polygon class="st1" points="40,324.1 49.4,318.7 53.4,317.5 44.1,322.9 				"/>
			</g>
			<g>
				<polygon class="st1" points="50.1,319.4 59.5,313.9 56.7,322.2 47.5,327.7 				"/>
			</g>
			<g>
				<polygon class="st1" points="50.2,288.4 59.6,282.9 59.5,313.9 50.1,319.4 				"/>
			</g>
			<g>
				<polygon class="st1" points="33.7,274.4 43,268.9 55.7,276.2 46.3,281.6 				"/>
			</g>
			<g>
				<polygon class="st1" points="58.6,288.7 67.9,283.3 67.9,287.7 58.5,293.1 				"/>
			</g>
			<g>
				<polygon class="st1" points="50.2,283.9 59.6,278.5 67.9,283.3 58.6,288.7 				"/>
			</g>
			<g>
				<polygon class="st1" points="46.4,270.1 55.8,264.6 59.6,266.9 50.2,272.3 				"/>
			</g>
			<g>
				<polygon class="st1" points="50.2,272.3 59.6,266.9 59.6,278.5 50.2,283.9 				"/>
			</g>
			<g>
				<polygon class="st1" points="50.2,272.3 50.2,283.9 58.6,288.7 58.5,293.1 50.2,288.4 50.1,319.4 47.5,327.7 41.6,329.3 
					36,327.4 29.9,322.3 25.8,316.6 22.3,310.4 25.1,308.8 28.3,314.5 31.5,319.2 36,322.7 40,324.1 44.1,322.9 46.2,316.5 
					46.3,286.1 33.7,278.8 33.7,274.4 46.3,281.6 46.4,270.1 				"/>
			</g>
		</g>
		<g class="st0">
			<g>
				<polygon class="st1" points="67.9,336.4 77.3,330.9 81.1,336.9 71.8,342.2 				"/>
			</g>
			<g>
				<polygon class="st1" points="71.8,342.2 81.1,336.9 85.4,340.5 76.2,346 				"/>
			</g>
			<g>
				<polygon class="st1" points="76.2,346 85.4,340.5 90.6,341.1 81.2,346.5 				"/>
			</g>
			<g>
				<polygon class="st1" points="87.4,343.8 96.7,338.4 93.4,346.2 84.2,351.7 				"/>
			</g>
			<g>
				<polygon class="st1" points="87.4,312.8 96.8,307.4 96.7,338.4 87.4,343.8 				"/>
			</g>
			<g>
				<polygon class="st1" points="83.7,306.3 92.9,300.9 110.7,311.1 101.3,316.5 				"/>
			</g>
			<g>
				<polygon class="st1" points="101.3,316.5 110.7,311.1 110.7,315.5 101.3,320.9 				"/>
			</g>
			<g>
				<polygon class="st1" points="71.8,342.2 76.2,346 81.2,346.5 83.6,340.7 83.7,306.3 101.3,316.5 101.3,320.9 87.4,312.8 
					87.4,343.8 84.2,351.7 76.4,350.7 70,345.4 65.5,338.3 67.9,336.4 				"/>
			</g>
		</g>
		<g class="st0">
			<g>
				<polygon class="st1" points="83.3,289.5 92.6,284 94.3,283.9 84.9,289.3 				"/>
			</g>
			<g>
				<polygon class="st1" points="88.6,294.5 97.9,289.1 97.3,290.6 88,296.1 				"/>
			</g>
			<g>
				<polygon class="st1" points="84.9,289.3 94.3,283.9 96,284.8 86.6,290.3 				"/>
			</g>
			<g>
				<polygon class="st1" points="84.9,295.6 83.3,293.4 82.8,291.2 83.3,289.5 84.9,289.3 86.6,290.3 88,292.2 88.6,294.5 88,296.1 
					86.6,296.6 				"/>
			</g>
			<g>
				<polygon class="st1" points="88,292.2 97.3,286.8 97.9,289.1 88.6,294.5 				"/>
			</g>
			<g>
				<polygon class="st1" points="86.6,290.3 96,284.8 97.3,286.8 88,292.2 				"/>
			</g>
		</g>
	</g>
</g>
<g id="font_5_">
	<g>
		<g class="st0">
			<g>
				<polygon class="st1" points="136.8,503.2 146.1,497.8 149.3,503.6 139.9,509 				"/>
			</g>
			<g>
				<polygon class="st1" points="133.9,504.8 143.3,499.4 146.1,497.8 136.8,503.2 				"/>
			</g>
			<g>
				<polygon class="st1" points="139.9,509 149.3,503.6 152.5,508.2 143.2,513.6 				"/>
			</g>
			<g>
				<polygon class="st1" points="143.2,513.6 152.5,508.2 157,511.8 147.7,517.2 				"/>
			</g>
			<g>
				<polygon class="st1" points="147.7,517.2 157,511.8 161.2,513.1 151.8,518.6 				"/>
			</g>
			<g>
				<polygon class="st1" points="151.8,518.6 161.2,513.1 165.1,512 155.7,517.4 				"/>
			</g>
			<g>
				<polygon class="st1" points="161.8,513.8 171.1,508.5 168.5,516.7 159.2,522.1 				"/>
			</g>
			<g>
				<polygon class="st1" points="161.9,482.8 171.2,477.3 171.1,508.5 161.8,513.8 				"/>
			</g>
			<g>
				<polygon class="st1" points="145.4,468.8 154.8,463.4 167.4,470.7 158,476.1 				"/>
			</g>
			<g>
				<polygon class="st1" points="170.2,483.2 179.6,477.7 179.6,482.2 170.2,487.6 				"/>
			</g>
			<g>
				<polygon class="st1" points="161.9,478.3 171.3,472.9 179.6,477.7 170.2,483.2 				"/>
			</g>
			<g>
				<polygon class="st1" points="158.1,464.6 167.4,459.1 171.3,461.3 161.9,466.8 				"/>
			</g>
			<g>
				<polygon class="st1" points="161.9,466.8 171.3,461.3 171.3,472.9 161.9,478.3 				"/>
			</g>
			<g>
				<polygon class="st1" points="161.9,466.8 161.9,478.3 170.2,483.2 170.2,487.6 161.9,482.8 161.8,513.8 159.2,522.1 
					153.4,523.7 147.6,521.8 141.5,516.9 137.5,511.1 133.9,504.8 136.8,503.2 139.9,509 143.2,513.6 147.7,517.2 151.8,518.6 
					155.7,517.4 158,511 158,480.5 145.4,473.2 145.4,468.8 158,476.1 158.1,464.6 				"/>
			</g>
		</g>
		<g class="st0">
			<g>
				<polygon class="st1" points="180,508.4 189.3,502.9 189.2,533.1 179.9,538.6 				"/>
			</g>
			<g>
				<polygon class="st1" points="180.7,502.9 190.1,497.4 189.3,502.9 180,508.4 				"/>
			</g>
			<g>
				<polygon class="st1" points="183.2,500.1 192.6,494.6 190.1,497.4 180.7,502.9 				"/>
			</g>
			<g>
				<polygon class="st1" points="180.6,495.1 190,489.7 195.7,489.5 186.3,494.9 				"/>
			</g>
			<g>
				<polygon class="st1" points="186.3,494.9 195.7,489.5 202.6,492.5 193.2,497.8 				"/>
			</g>
			<g>
				<polygon class="st1" points="193.2,497.8 202.6,492.5 211.3,501.3 202.1,506.7 				"/>
			</g>
			<g>
				<polygon class="st1" points="202.1,506.7 211.3,501.3 214.8,508.2 205.5,513.6 				"/>
			</g>
			<g>
				<polygon class="st1" points="209.3,514.8 218.7,509.4 218.6,550.2 209.2,555.6 				"/>
			</g>
			<g>
				<polygon class="st1" points="212.4,512.6 221.7,507.2 218.7,509.4 209.3,514.8 				"/>
			</g>
			<g>
				<polygon class="st1" points="209.4,507.9 218.7,502.6 221.7,507.2 212.4,512.6 				"/>
			</g>
			<g>
				<polygon class="st1" points="202.1,506.7 205.5,513.6 205.5,510.9 209.4,507.9 212.4,512.6 209.3,514.8 209.2,555.6 
					205.3,553.4 205.4,520.7 199.5,509.2 192.7,502.2 187.5,499.9 183.2,500.1 180.7,502.9 180,508.4 179.9,538.6 176.1,536.4 
					176.2,505.9 176.9,499 180.6,495.1 186.3,494.9 193.2,497.8 				"/>
			</g>
		</g>
		<g class="st0">
			<g>
				<polygon class="st1" points="223.5,555.3 232.9,549.9 236.6,555.7 227.2,561.2 				"/>
			</g>
			<g>
				<polygon class="st1" points="227.2,561.2 236.6,555.7 241,559.5 231.6,564.9 				"/>
			</g>
			<g>
				<polygon class="st1" points="231.6,564.9 241,559.5 246,560.1 236.8,565.5 				"/>
			</g>
			<g>
				<polygon class="st1" points="242.9,562.8 252.2,557.3 249,565.2 239.7,570.6 				"/>
			</g>
			<g>
				<polygon class="st1" points="243,531.8 252.3,526.3 252.2,557.3 242.9,562.8 				"/>
			</g>
			<g>
				<polygon class="st1" points="239.1,525.3 248.5,519.8 266.2,530 256.9,535.5 				"/>
			</g>
			<g>
				<polygon class="st1" points="256.9,535.5 266.2,530 266.2,534.3 256.9,539.8 				"/>
			</g>
			<g>
				<polygon class="st1" points="227.2,561.2 231.6,564.9 236.8,565.5 239.1,559.7 239.1,525.3 256.9,535.5 256.9,539.8 243,531.8 
					242.9,562.8 239.7,570.6 232,569.6 225.4,564.3 221,557.3 223.5,555.3 				"/>
			</g>
		</g>
		<g class="st0">
			<g>
				<polygon class="st1" points="269.7,551.2 279,545.7 277.3,549.6 267.9,555.1 				"/>
			</g>
			<g>
				<polygon class="st1" points="266.6,546.6 275.9,541.2 280.6,539.5 271.2,545 				"/>
			</g>
			<g>
				<polygon class="st1" points="271.2,545 280.6,539.5 286.2,541.2 276.8,546.6 				"/>
			</g>
			<g>
				<polygon class="st1" points="293.4,568.7 302.7,563.3 302.9,563.4 293.6,568.8 				"/>
			</g>
			<g>
				<polygon class="st1" points="276.8,546.6 286.2,541.2 292.1,544.7 282.8,550.2 				"/>
			</g>
			<g>
				<polygon class="st1" points="292.3,564.5 301.7,559.1 302.7,563.3 293.4,568.7 				"/>
			</g>
			<g>
				<polygon class="st1" points="290.7,560.5 300.1,555.1 301.7,559.1 292.3,564.5 				"/>
			</g>
			<g>
				<polygon class="st1" points="282.8,550.2 292.1,544.7 300.1,555.1 290.7,560.5 				"/>
			</g>
			<g>
				<polygon class="st1" points="296.8,565 306.2,559.6 306,601.1 296.7,606.5 				"/>
			</g>
			<g>
				<polygon class="st1" points="292.9,560.3 302.3,554.9 308.1,554 298.8,559.5 				"/>
			</g>
			<g>
				<polygon class="st1" points="298.8,559.5 308.1,554 310.1,558.9 300.8,564.4 				"/>
			</g>
			<g>
				<polygon class="st1" points="282.8,550.2 290.7,560.5 292.3,564.5 293.4,568.7 293.6,568.8 292.9,564.6 292.9,560.3 
					298.8,559.5 300.8,564.4 296.8,565 296.7,606.5 292.8,604.3 292.9,574.2 288,562.2 281.6,553.9 277.3,551.2 272.9,550 
					269.7,551.2 267.9,555.1 264.5,551.6 266.6,546.6 271.2,545 276.8,546.6 				"/>
			</g>
		</g>
		<g class="st0">
			<g>
				<polygon class="st1" points="315.4,580.9 324.8,575.4 329.1,580.9 319.7,586.3 				"/>
			</g>
			<g>
				<polygon class="st1" points="313.3,575.1 322.7,569.7 324.8,575.4 315.4,580.9 				"/>
			</g>
			<g>
				<polygon class="st1" points="312.6,569.5 321.9,564.1 322.7,569.7 313.3,575.1 				"/>
			</g>
			<g>
				<polygon class="st1" points="319.7,586.3 329.1,580.9 334.6,585.6 325.3,591 				"/>
			</g>
			<g>
				<polygon class="st1" points="313.8,564.1 323.1,558.7 321.9,564.1 312.6,569.5 				"/>
			</g>
			<g>
				<polygon class="st1" points="316.9,561.2 326.2,555.7 323.1,558.7 313.8,564.1 				"/>
			</g>
			<g>
				<polygon class="st1" points="325.3,591 334.6,585.6 350.3,594.6 341,600.1 				"/>
			</g>
			<g>
				<polygon class="st1" points="314.4,556.2 323.7,550.8 329.2,550.7 319.8,556.2 				"/>
			</g>
			<g>
				<polygon class="st1" points="319.8,556.2 329.2,550.7 335.2,553.3 325.9,558.7 				"/>
			</g>
			<g>
				<path class="st1" d="M314.4,556.3l5.5-0.1l6,2.6l19.1,11l-0.2,64.5l-3.9-2.2l0.1-27.6l-16.1-9.4l-6.5-5.6l-5.6-7.1l-3-8
					l-1.1-7.3l1.6-6.9L314.4,556.3z M313.3,575.1l2.1,5.8l4.3,5.4l5.6,4.7l15.7,9.1l0.1-28.1l-14.9-8.6l-5.2-2.2h-4.2l-3.1,2.9
					l-1.2,5.4L313.3,575.1"/>
			</g>
			<g>
				<polygon class="st1" points="325.9,558.7 335.2,553.3 354.2,564.3 345,569.8 				"/>
			</g>
			<g>
				<polygon class="st1" points="345,569.8 354.2,564.3 354.1,628.9 344.8,634.2 				"/>
			</g>
		</g>
		<g class="st0">
			<g>
				<polygon class="st1" points="238.8,508.4 248.1,503 249.7,502.8 240.4,508.2 				"/>
			</g>
			<g>
				<polygon class="st1" points="244.1,513.5 253.5,508 252.9,509.6 243.6,515 				"/>
			</g>
			<g>
				<polygon class="st1" points="240.4,508.2 249.7,502.8 251.4,503.8 242.1,509.2 				"/>
			</g>
			<g>
				<polygon class="st1" points="240.4,514.5 238.8,512.3 238.3,510.1 238.8,508.4 240.4,508.2 242.1,509.2 243.6,511.1 
					244.1,513.5 243.6,515 242,515.4 				"/>
			</g>
			<g>
				<polygon class="st1" points="243.6,511.1 252.9,505.7 253.5,508 244.1,513.5 				"/>
			</g>
			<g>
				<polygon class="st1" points="242.1,509.2 251.4,503.8 252.9,505.7 243.6,511.1 				"/>
			</g>
		</g>
		<g class="st0">
			<g>
				<polygon class="st1" points="126,475.2 126,479.7 109.3,470 109.3,465.6 				"/>
			</g>
			<g>
				<polygon class="st1" points="126,475.2 135.3,469.8 135.3,474.2 126,479.7 				"/>
			</g>
			<g>
				<polygon class="st1" points="109.3,465.6 118.7,460.1 135.3,469.8 126,475.2 				"/>
			</g>
		</g>
		<g class="st0">
			<g>
				<polygon class="st1" points="25.1,438.3 34.4,433 37.6,438.7 28.3,444.1 				"/>
			</g>
			<g>
				<polygon class="st1" points="22.3,439.9 31.5,434.4 34.4,433 25.1,438.3 				"/>
			</g>
			<g>
				<polygon class="st1" points="28.3,444.1 37.6,438.7 40.8,443.3 31.5,448.7 				"/>
			</g>
			<g>
				<polygon class="st1" points="31.5,448.7 40.8,443.3 45.2,446.9 36,452.3 				"/>
			</g>
			<g>
				<polygon class="st1" points="36,452.3 45.2,446.9 49.4,448.2 40,453.7 				"/>
			</g>
			<g>
				<polygon class="st1" points="40,453.7 49.4,448.2 53.4,447.1 44.1,452.4 				"/>
			</g>
			<g>
				<polygon class="st1" points="50.1,448.9 59.5,443.5 56.7,451.8 47.5,457.3 				"/>
			</g>
			<g>
				<polygon class="st1" points="50.2,417.9 59.6,412.5 59.5,443.5 50.1,448.9 				"/>
			</g>
			<g>
				<polygon class="st1" points="33.7,403.9 43,398.5 55.7,405.8 46.3,411.2 				"/>
			</g>
			<g>
				<polygon class="st1" points="58.6,418.2 67.9,412.9 67.9,417.3 58.5,422.7 				"/>
			</g>
			<g>
				<polygon class="st1" points="50.2,413.5 59.6,408 67.9,412.9 58.6,418.2 				"/>
			</g>
			<g>
				<polygon class="st1" points="46.4,399.6 55.8,394.2 59.6,396.5 50.2,401.8 				"/>
			</g>
			<g>
				<polygon class="st1" points="50.2,401.8 59.6,396.5 59.6,408 50.2,413.5 				"/>
			</g>
			<g>
				<polygon class="st1" points="50.2,401.8 50.2,413.5 58.6,418.2 58.5,422.7 50.2,417.9 50.1,448.9 47.5,457.3 41.6,458.8 
					36,456.9 29.9,451.9 25.8,446.2 22.3,439.9 25.1,438.3 28.3,444.1 31.5,448.7 36,452.3 40,453.7 44.1,452.4 46.2,446.1 
					46.3,415.6 33.7,408.4 33.7,403.9 46.3,411.2 46.4,399.6 				"/>
			</g>
		</g>
		<g class="st0">
			<g>
				<polygon class="st1" points="67.9,466 77.3,460.5 81.1,466.4 71.8,471.8 				"/>
			</g>
			<g>
				<polygon class="st1" points="71.8,471.8 81.1,466.4 85.4,470.1 76.2,475.6 				"/>
			</g>
			<g>
				<polygon class="st1" points="76.2,475.6 85.4,470.1 90.6,470.6 81.2,476.1 				"/>
			</g>
			<g>
				<polygon class="st1" points="87.4,473.4 96.7,468 93.4,475.8 84.2,481.2 				"/>
			</g>
			<g>
				<polygon class="st1" points="87.4,442.4 96.8,437 96.7,468 87.4,473.4 				"/>
			</g>
			<g>
				<polygon class="st1" points="83.7,435.8 92.9,430.4 110.7,440.7 101.3,446.1 				"/>
			</g>
			<g>
				<polygon class="st1" points="101.3,446.1 110.7,440.7 110.7,445.1 101.3,450.4 				"/>
			</g>
			<g>
				<polygon class="st1" points="71.8,471.8 76.2,475.6 81.2,476.1 83.6,470.3 83.7,435.8 101.3,446.1 101.3,450.4 87.4,442.4 
					87.4,473.4 84.2,481.2 76.4,480.3 70,475 65.5,467.9 67.9,466 				"/>
			</g>
		</g>
		<g class="st0">
			<g>
				<polygon class="st1" points="83.3,419.1 92.6,413.6 94.3,413.4 84.9,418.9 				"/>
			</g>
			<g>
				<polygon class="st1" points="88.6,424.1 97.9,418.7 97.3,420.2 88,425.7 				"/>
			</g>
			<g>
				<polygon class="st1" points="84.9,418.9 94.3,413.4 96,414.4 86.6,419.9 				"/>
			</g>
			<g>
				<polygon class="st1" points="84.9,425.2 83.3,423 82.8,420.8 83.3,419.1 84.9,418.9 86.6,419.9 88,421.8 88.6,424.1 88,425.7 
					86.6,426.1 				"/>
			</g>
			<g>
				<polygon class="st1" points="88,421.8 97.3,416.3 97.9,418.7 88.6,424.1 				"/>
			</g>
			<g>
				<polygon class="st1" points="86.6,419.9 96,414.4 97.3,416.3 88,421.8 				"/>
			</g>
		</g>
	</g>
</g>
<g id="font_6_">
	<g>
		<g class="st0">
			<g>
				<polygon class="st1" points="136.8,632.8 146.1,627.4 149.3,633.2 139.9,638.5 				"/>
			</g>
			<g>
				<polygon class="st1" points="133.9,634.4 143.3,629 146.1,627.4 136.8,632.8 				"/>
			</g>
			<g>
				<polygon class="st1" points="139.9,638.5 149.3,633.2 152.5,637.8 143.2,643.2 				"/>
			</g>
			<g>
				<polygon class="st1" points="143.2,643.2 152.5,637.8 157,641.4 147.7,646.8 				"/>
			</g>
			<g>
				<polygon class="st1" points="147.7,646.8 157,641.4 161.2,642.7 151.8,648.2 				"/>
			</g>
			<g>
				<polygon class="st1" points="151.8,648.2 161.2,642.7 165.1,641.6 155.7,647 				"/>
			</g>
			<g>
				<polygon class="st1" points="161.8,643.4 171.1,638 168.5,646.2 159.2,651.7 				"/>
			</g>
			<g>
				<polygon class="st1" points="161.9,612.4 171.2,606.9 171.1,638 161.8,643.4 				"/>
			</g>
			<g>
				<polygon class="st1" points="145.4,598.4 154.8,593 167.4,600.3 158,605.7 				"/>
			</g>
			<g>
				<polygon class="st1" points="170.2,612.8 179.6,607.3 179.6,611.8 170.2,617.2 				"/>
			</g>
			<g>
				<polygon class="st1" points="161.9,607.9 171.3,602.5 179.6,607.3 170.2,612.8 				"/>
			</g>
			<g>
				<polygon class="st1" points="158.1,594.2 167.4,588.7 171.3,590.9 161.9,596.4 				"/>
			</g>
			<g>
				<polygon class="st1" points="161.9,596.4 171.3,590.9 171.3,602.5 161.9,607.9 				"/>
			</g>
			<g>
				<polygon class="st1" points="161.9,596.4 161.9,607.9 170.2,612.8 170.2,617.2 161.9,612.4 161.8,643.4 159.2,651.7 
					153.4,653.3 147.6,651.4 141.5,646.4 137.5,640.7 133.9,634.4 136.8,632.8 139.9,638.5 143.2,643.2 147.7,646.8 151.8,648.2 
					155.7,647 158,640.6 158,610.1 145.4,602.8 145.4,598.4 158,605.7 158.1,594.2 				"/>
			</g>
		</g>
		<g class="st0">
			<g>
				<polygon class="st1" points="180,637.9 189.3,632.5 189.2,662.7 179.9,668.2 				"/>
			</g>
			<g>
				<polygon class="st1" points="180.7,632.5 190.1,627 189.3,632.5 180,637.9 				"/>
			</g>
			<g>
				<polygon class="st1" points="183.2,629.6 192.6,624.2 190.1,627 180.7,632.5 				"/>
			</g>
			<g>
				<polygon class="st1" points="180.6,624.7 190,619.3 195.7,619.1 186.3,624.5 				"/>
			</g>
			<g>
				<polygon class="st1" points="186.3,624.5 195.7,619.1 202.6,622 193.2,627.4 				"/>
			</g>
			<g>
				<polygon class="st1" points="193.2,627.4 202.6,622 211.3,630.9 202.1,636.3 				"/>
			</g>
			<g>
				<polygon class="st1" points="202.1,636.3 211.3,630.9 214.8,637.8 205.5,643.2 				"/>
			</g>
			<g>
				<polygon class="st1" points="209.3,644.4 218.7,639 218.6,679.8 209.2,685.1 				"/>
			</g>
			<g>
				<polygon class="st1" points="212.4,642.2 221.7,636.8 218.7,639 209.3,644.4 				"/>
			</g>
			<g>
				<polygon class="st1" points="209.4,637.5 218.7,632.1 221.7,636.8 212.4,642.2 				"/>
			</g>
			<g>
				<polygon class="st1" points="202.1,636.3 205.5,643.2 205.5,640.5 209.4,637.5 212.4,642.2 209.3,644.4 209.2,685.1 
					205.3,682.9 205.4,650.2 199.5,638.8 192.7,631.8 187.5,629.5 183.2,629.6 180.7,632.5 180,637.9 179.9,668.2 176.1,666 
					176.2,635.5 176.9,628.6 180.6,624.7 186.3,624.5 193.2,627.4 				"/>
			</g>
		</g>
		<g class="st0">
			<g>
				<polygon class="st1" points="223.5,684.9 232.9,679.4 236.6,685.3 227.2,690.8 				"/>
			</g>
			<g>
				<polygon class="st1" points="227.2,690.8 236.6,685.3 241,689.1 231.6,694.5 				"/>
			</g>
			<g>
				<polygon class="st1" points="231.6,694.5 241,689.1 246,689.6 236.8,695 				"/>
			</g>
			<g>
				<polygon class="st1" points="242.9,692.4 252.2,686.9 249,694.8 239.7,700.2 				"/>
			</g>
			<g>
				<polygon class="st1" points="243,661.4 252.3,655.9 252.2,686.9 242.9,692.4 				"/>
			</g>
			<g>
				<polygon class="st1" points="239.1,654.8 248.5,649.4 266.2,659.6 256.9,665 				"/>
			</g>
			<g>
				<polygon class="st1" points="256.9,665 266.2,659.6 266.2,663.9 256.9,669.4 				"/>
			</g>
			<g>
				<polygon class="st1" points="227.2,690.8 231.6,694.5 236.8,695 239.1,689.3 239.1,654.8 256.9,665 256.9,669.4 243,661.4 
					242.9,692.4 239.7,700.2 232,699.2 225.4,693.9 221,686.9 223.5,684.9 				"/>
			</g>
		</g>
		<g class="st0">
			<g>
				<polygon class="st1" points="269.7,680.7 279,675.3 277.3,679.2 267.9,684.7 				"/>
			</g>
			<g>
				<polygon class="st1" points="266.6,676.2 275.9,670.8 280.6,669 271.2,674.5 				"/>
			</g>
			<g>
				<polygon class="st1" points="271.2,674.5 280.6,669 286.2,670.7 276.8,676.2 				"/>
			</g>
			<g>
				<polygon class="st1" points="293.4,698.3 302.7,692.9 302.9,693 293.6,698.4 				"/>
			</g>
			<g>
				<polygon class="st1" points="276.8,676.2 286.2,670.7 292.1,674.3 282.8,679.8 				"/>
			</g>
			<g>
				<polygon class="st1" points="292.3,694.1 301.7,688.7 302.7,692.9 293.4,698.3 				"/>
			</g>
			<g>
				<polygon class="st1" points="290.7,690.1 300.1,684.7 301.7,688.7 292.3,694.1 				"/>
			</g>
			<g>
				<polygon class="st1" points="282.8,679.8 292.1,674.3 300.1,684.7 290.7,690.1 				"/>
			</g>
			<g>
				<polygon class="st1" points="296.8,694.6 306.2,689.2 306,730.7 296.7,736.1 				"/>
			</g>
			<g>
				<polygon class="st1" points="292.9,689.9 302.3,684.5 308.1,683.6 298.8,689.1 				"/>
			</g>
			<g>
				<polygon class="st1" points="298.8,689.1 308.1,683.6 310.1,688.5 300.8,694 				"/>
			</g>
			<g>
				<polygon class="st1" points="282.8,679.8 290.7,690.1 292.3,694.1 293.4,698.3 293.6,698.4 292.9,694.2 292.9,689.9 
					298.8,689.1 300.8,694 296.8,694.6 296.7,736.1 292.8,733.9 292.9,703.7 288,691.8 281.6,683.4 277.3,680.8 272.9,679.6 
					269.7,680.7 267.9,684.7 264.5,681.1 266.6,676.2 271.2,674.5 276.8,676.2 				"/>
			</g>
		</g>
		<g class="st0">
			<g>
				<polygon class="st1" points="315.4,710.5 324.8,705 329.1,710.5 319.7,715.8 				"/>
			</g>
			<g>
				<polygon class="st1" points="313.3,704.7 322.7,699.2 324.8,705 315.4,710.5 				"/>
			</g>
			<g>
				<polygon class="st1" points="312.6,699.1 321.9,693.7 322.7,699.2 313.3,704.7 				"/>
			</g>
			<g>
				<polygon class="st1" points="319.7,715.8 329.1,710.5 334.6,715.2 325.3,720.6 				"/>
			</g>
			<g>
				<polygon class="st1" points="313.8,693.7 323.1,688.3 321.9,693.7 312.6,699.1 				"/>
			</g>
			<g>
				<polygon class="st1" points="316.9,690.8 326.2,685.3 323.1,688.3 313.8,693.7 				"/>
			</g>
			<g>
				<polygon class="st1" points="325.3,720.6 334.6,715.2 350.3,724.1 341,729.6 				"/>
			</g>
			<g>
				<polygon class="st1" points="314.4,685.8 323.7,680.4 329.2,680.3 319.8,685.8 				"/>
			</g>
			<g>
				<polygon class="st1" points="319.8,685.8 329.2,680.3 335.2,682.8 325.9,688.3 				"/>
			</g>
			<g>
				<path class="st1" d="M314.4,685.9l5.5-0.1l6,2.6l19.1,11l-0.2,64.5l-3.9-2.2l0.1-27.6l-16.1-9.4l-6.5-5.6l-5.6-7.1l-3-8
					l-1.1-7.3l1.6-6.9L314.4,685.9z M313.3,704.7l2.1,5.8l4.3,5.4l5.6,4.7l15.7,9.1l0.1-28.1l-14.9-8.6l-5.2-2.2h-4.2l-3.1,2.9
					l-1.2,5.4L313.3,704.7"/>
			</g>
			<g>
				<polygon class="st1" points="325.9,688.3 335.2,682.8 354.2,693.9 345,699.3 				"/>
			</g>
			<g>
				<polygon class="st1" points="345,699.3 354.2,693.9 354.1,758.4 344.8,763.8 				"/>
			</g>
		</g>
		<g class="st0">
			<g>
				<polygon class="st1" points="238.8,637.9 248.1,632.5 249.7,632.4 240.4,637.8 				"/>
			</g>
			<g>
				<polygon class="st1" points="244.1,643.1 253.5,637.6 252.9,639.2 243.6,644.6 				"/>
			</g>
			<g>
				<polygon class="st1" points="240.4,637.8 249.7,632.4 251.4,633.4 242.1,638.8 				"/>
			</g>
			<g>
				<polygon class="st1" points="240.4,644 238.8,641.8 238.3,639.7 238.8,637.9 240.4,637.8 242.1,638.8 243.6,640.7 244.1,643.1 
					243.6,644.6 242,645 				"/>
			</g>
			<g>
				<polygon class="st1" points="243.6,640.7 252.9,635.3 253.5,637.6 244.1,643.1 				"/>
			</g>
			<g>
				<polygon class="st1" points="242.1,638.8 251.4,633.4 252.9,635.3 243.6,640.7 				"/>
			</g>
		</g>
		<g class="st0">
			<g>
				<polygon class="st1" points="126,604.8 126,609.2 109.3,599.6 109.3,595.2 				"/>
			</g>
			<g>
				<polygon class="st1" points="126,604.8 135.3,599.3 135.3,603.7 126,609.2 				"/>
			</g>
			<g>
				<polygon class="st1" points="109.3,595.2 118.7,589.7 135.3,599.3 126,604.8 				"/>
			</g>
		</g>
		<g class="st0">
			<g>
				<polygon class="st1" points="25.1,567.9 34.4,562.5 37.6,568.3 28.3,573.7 				"/>
			</g>
			<g>
				<polygon class="st1" points="22.3,569.5 31.5,564 34.4,562.5 25.1,567.9 				"/>
			</g>
			<g>
				<polygon class="st1" points="28.3,573.7 37.6,568.3 40.8,572.8 31.5,578.3 				"/>
			</g>
			<g>
				<polygon class="st1" points="31.5,578.3 40.8,572.8 45.2,576.5 36,581.9 				"/>
			</g>
			<g>
				<polygon class="st1" points="36,581.9 45.2,576.5 49.4,577.8 40,583.3 				"/>
			</g>
			<g>
				<polygon class="st1" points="40,583.3 49.4,577.8 53.4,576.6 44.1,582 				"/>
			</g>
			<g>
				<polygon class="st1" points="50.1,578.5 59.5,573.1 56.7,581.3 47.5,586.8 				"/>
			</g>
			<g>
				<polygon class="st1" points="50.2,547.5 59.6,542 59.5,573.1 50.1,578.5 				"/>
			</g>
			<g>
				<polygon class="st1" points="33.7,533.5 43,528 55.7,535.4 46.3,540.8 				"/>
			</g>
			<g>
				<polygon class="st1" points="58.6,547.8 67.9,542.4 67.9,546.9 58.5,552.3 				"/>
			</g>
			<g>
				<polygon class="st1" points="50.2,543.1 59.6,537.6 67.9,542.4 58.6,547.8 				"/>
			</g>
			<g>
				<polygon class="st1" points="46.4,529.2 55.8,523.7 59.6,526 50.2,531.4 				"/>
			</g>
			<g>
				<polygon class="st1" points="50.2,531.4 59.6,526 59.6,537.6 50.2,543.1 				"/>
			</g>
			<g>
				<polygon class="st1" points="50.2,531.4 50.2,543.1 58.6,547.8 58.5,552.3 50.2,547.5 50.1,578.5 47.5,586.8 41.6,588.4 
					36,586.5 29.9,581.5 25.8,575.8 22.3,569.5 25.1,567.9 28.3,573.7 31.5,578.3 36,581.9 40,583.3 44.1,582 46.2,575.7 
					46.3,545.2 33.7,537.9 33.7,533.5 46.3,540.8 46.4,529.2 				"/>
			</g>
		</g>
		<g class="st0">
			<g>
				<polygon class="st1" points="67.9,595.5 77.3,590.1 81.1,596 71.8,601.4 				"/>
			</g>
			<g>
				<polygon class="st1" points="71.8,601.4 81.1,596 85.4,599.7 76.2,605.2 				"/>
			</g>
			<g>
				<polygon class="st1" points="76.2,605.2 85.4,599.7 90.6,600.2 81.2,605.7 				"/>
			</g>
			<g>
				<polygon class="st1" points="87.4,603 96.7,597.6 93.4,605.3 84.2,610.8 				"/>
			</g>
			<g>
				<polygon class="st1" points="87.4,572 96.8,566.6 96.7,597.6 87.4,603 				"/>
			</g>
			<g>
				<polygon class="st1" points="83.7,565.4 92.9,560 110.7,570.3 101.3,575.7 				"/>
			</g>
			<g>
				<polygon class="st1" points="101.3,575.7 110.7,570.3 110.7,574.6 101.3,580 				"/>
			</g>
			<g>
				<polygon class="st1" points="71.8,601.4 76.2,605.2 81.2,605.7 83.6,599.9 83.7,565.4 101.3,575.7 101.3,580 87.4,572 87.4,603 
					84.2,610.8 76.4,609.8 70,604.6 65.5,597.5 67.9,595.5 				"/>
			</g>
		</g>
		<g class="st0">
			<g>
				<polygon class="st1" points="83.3,548.6 92.6,543.2 94.3,543 84.9,548.5 				"/>
			</g>
			<g>
				<polygon class="st1" points="88.6,553.7 97.9,548.3 97.3,549.8 88,555.3 				"/>
			</g>
			<g>
				<polygon class="st1" points="84.9,548.5 94.3,543 96,544 86.6,549.5 				"/>
			</g>
			<g>
				<polygon class="st1" points="84.9,554.7 83.3,552.5 82.8,550.4 83.3,548.6 84.9,548.5 86.6,549.5 88,551.4 88.6,553.7 88,555.3 
					86.6,555.7 				"/>
			</g>
			<g>
				<polygon class="st1" points="88,551.4 97.3,545.9 97.9,548.3 88.6,553.7 				"/>
			</g>
			<g>
				<polygon class="st1" points="86.6,549.5 96,544 97.3,545.9 88,551.4 				"/>
			</g>
		</g>
	</g>
</g>
<g id="bulle_4_">
	<g>
		<g>
			<polygon class="st1" points="48.9,489.3 27.4,476.7 52,463.7 31.8,437.3 61.3,439.3 62.4,411.2 92,434.4 105.5,413 126.6,429.4 
				144.7,398.3 152,430.7 187.1,423.5 178.3,449.3 204.7,442.4 192.7,462.5 224.8,477.4 196,492 209.3,509.7 177.4,510.3 185,540.9 
				149.1,525.3 137.8,552 128.4,525.3 104.9,553.9 102.2,523.6 80.7,538.7 77.4,520.9 45.8,528 52.9,507.5 27.2,510.3 			"/>
		</g>
	</g>
</g>
<text transform="matrix(-1 0 0 1 187.7827 476.8123)" class="st2 st3 st4"> la dcouverte </text>
<text transform="matrix(-1 0 0 1 165.1113 496.9256)" class="st2 st3 st4">dInternet</text>
<g>
	<rect x="389" y="275.6" class="st5" width="9.7" height="61.1"/>
	<g>
		<polyline class="st6" points="389,335.7 389,336.7 390,336.7 		"/>
		<line class="st7" x1="391.1" y1="336.7" x2="397.2" y2="336.7"/>
		<polyline class="st6" points="397.7,336.7 398.7,336.7 398.7,335.7 		"/>
		<line class="st8" x1="398.7" y1="334.7" x2="398.7" y2="277.1"/>
		<polyline class="st6" points="398.7,276.6 398.7,275.6 397.7,275.6 		"/>
		<line class="st7" x1="396.6" y1="275.6" x2="390.5" y2="275.6"/>
		<polyline class="st6" points="390,275.6 389,275.6 389,276.6 		"/>
		<line class="st8" x1="389" y1="277.6" x2="389" y2="335.2"/>
	</g>
</g>
<path id="SVGID_x5F_1_x5F_" class="st9" d="M391.6,271.4v71.3"/>
<text><textPath  xlink:href="#SVGID_x5F_1_x5F_" startOffset="11.9141%">
<tspan  class="st3" style="font-size:6px;">DOS DE COUVERTURE</tspan></textPath>
</text>
</svg>
