<?xml version="1.0" encoding="utf-8"?>
<!-- Generator: Adobe Illustrator 22.0.1, SVG Export Plug-In . SVG Version: 6.00 Build 0)  -->
<svg version="1.1" id="Layer_1" xmlns="http://www.w3.org/2000/svg" xmlns:xlink="http://www.w3.org/1999/xlink" x="0px" y="0px"
	 viewBox="0 0 199 153" style="enable-background:new 0 0 199 153;" xml:space="preserve">
<style type="text/css">
	.st0{fill:#FFFFFF;stroke:#000000;}
</style>
<path class="st0" d="M68.3,37.8V51c23.2,9.5,34.8,25.6,34.8,48.5c0,14.2-5.1,26.4-15.1,36.4S65.7,151,51.5,151
	c-14.2,0-26.3-5-36.4-15.1S0,113.8,0,99.7C0,77.4,11.6,61.2,34.8,51V37.8c3.2-1.7,7.3-2.9,12-3.7v-2c0-6.7,2.2-12.3,6.5-16.9
	S63,8.4,69.3,8.4c8.5,0,18.7,5.1,30.7,15.4l5.1,4.5c12.4,10.7,22.6,16,30.4,16c2.7,0,6-1,9.9-3.1c0.6-0.3,1.4-0.5,2.3-0.5
	c3,0,4.5,1.2,4.5,3.6c0,2.5-1.8,4.8-5.3,6.7c-3.5,1.9-7.5,2.9-12.1,2.9c-9.7,0-21.6-6-35.9-18.1l-5.5-4.7C82.9,22.4,74.8,18,69.1,18
	c-8.4,0-12.6,5.4-12.6,16.1C60.7,35,64.6,36.2,68.3,37.8z M114.4,3.2l3.9-3.2l23.9,31.5L114.4,3.2z M134.1,91.4l-4.6-1.7l16.2-36.1
	L134.1,91.4z M148,0h5l-2.3,28.5L148,0z M166.9,79.8l-4.7,1.7l-7.2-27.6L166.9,79.8z M182.5,0l4,3l-27.2,28.6L182.5,0z M197,66
	l-2.3,4L162,48.1L197,66z M191.4,32.2l0.8,4.6l-28.6,2.6L191.4,32.2z"/>
</svg>
