<?xml version="1.0" encoding="utf-8"?>
<!-- Generator: Adobe Illustrator 22.0.1, SVG Export Plug-In . SVG Version: 6.00 Build 0)  -->
<svg version="1.1" id="Layer_1" xmlns="http://www.w3.org/2000/svg" xmlns:xlink="http://www.w3.org/1999/xlink" x="0px" y="0px"
	 viewBox="0 0 240.1 187" style="enable-background:new 0 0 240.1 187;" xml:space="preserve">
<path d="M230,129.7l-29.7-3.3l8.1,23.6l-36.4-8.1l-4,20.6l-24.8-17.5l-3.3,35.2l-27.1-33.3l-10.9,31l-13.1-31L47.2,165l8.9-35.3
	l-37-0.7l15.4-20.6L1.2,91.5l37.1-17.2L24.4,51l30.6,8L44.7,29.1l40.6,8.3L94-0.2l20.8,36L139.2,17l15.7,24.5l34.3-26.7l1.1,32.5
	l34.3-2.3l-23.3,30.6l28.5,15l-25,14.6L230,129.7z"/>
</svg>
