<?xml version="1.0" encoding="utf-8"?>
<!-- Generator: Adobe Illustrator 22.0.1, SVG Export Plug-In . SVG Version: 6.00 Build 0)  -->
<svg version="1.1" id="Layer_1" xmlns="http://www.w3.org/2000/svg" xmlns:xlink="http://www.w3.org/1999/xlink" x="0px" y="0px"
	 viewBox="0 0 1200 716" style="enable-background:new 0 0 1200 716;" xml:space="preserve">
<style type="text/css">
	.st0{fill:#FFFFFF;stroke:#000000;}
</style>
<path class="st0" d="M57.3,285.5v-9.5H33.3v-9.5h-8v-9.5h-8v-9.5h-8v-18.9h-8V153h8v-18.9h8v-9.5h8v-9.5h8v-9.5h24.1v-9.5h40.1v9.5
	h24.1v9.5h8v18.9h8v9.5h8v9.5h-32.1v-9.5h-8v-9.5h-16v-9.5H65.4v9.5h-16v9.5h-8v9.5h-8v18.9h-8v37.9h8v18.9h8v9.5h8v9.5h16v9.5h24.1
	v-9.5h16v-9.5h8v-9.5h32.1v9.5h-8v9.5h-8v18.9h-8v9.5H97.4v9.5H57.3z"/>
<path class="st0" d="M224.8,319.6v-11.2h-23.4v-11.2h-7.8v-11.2h-7.8v-11.2H178v-22.3h-7.8v-89.4h7.8v-22.3h7.8v-11.2h7.8v-11.2h7.8
	v-11.2h23.4V96.2h39v11.2h23.4v11.2h7.8v11.2h7.8v11.2h7.8v22.3h7.8v89.4h-7.8v22.3h-7.8v11.2H295v11.2h-7.8v11.2h-23.4v11.2H224.8z
	 M256,286.1v-11.2h15.6v-11.2h7.8v-11.2h7.8v-22.3h7.8v-44.7h-7.8v-22.3h-7.8v-11.2h-7.8v-11.2H256v-11.2h-23.4v11.2H217v11.2h-7.8
	v11.2h-7.8v22.3h-7.8v44.7h7.8v22.3h7.8v11.2h7.8v11.2h15.6v11.2H256z"/>
<path class="st0" d="M338.7,342V96.2h36.7v36.9h7.3v24.6h7.3v36.9h7.3v36.9h7.3v49.1h7.3v-49.1h7.3v-36.9h7.3v-36.9h7.3v-24.6h7.3
	V96.2h36.7V342h-22V157.7h-7.3v24.6h-7.3v49.1h-7.3v49.1h-7.3v36.9h-7.3V342h-22v-24.6h-7.3v-36.9h-7.3v-49.1h-7.3v-49.1h-7.3v-24.6
	h-7.3V342H338.7z"/>
<path class="st0" d="M500.4,342V96.2h95.8v12.3h8.7v12.3h8.7v12.3h8.7v61.4h-8.7v12.3h-8.7v12.3h-8.7v12.3h-69.7V342H500.4z
	 M587.5,194.5v-12.3h8.7v-36.9h-8.7v-12.3h-61v61.4H587.5z"/>
<path class="st0" d="M676.9,342.1V325h-16V308h-8v-34.1h-8V1h24.1v238.8h8v34.1h8v17.1h40.1v-17.1h8v-34.1h8V1h24.1v272.9h-8V308h-8
	V325h-16v17.1H676.9z"/>
<path class="st0" d="M836.3,342.1V52.2h-53.9V1h130.9v51.2h-53.9v289.9H836.3z"/>
<path class="st0" d="M930.8,342.1V1h104.5v51.2h-78.4v85.3h78.4v51.2h-78.4v102.3h78.4v51.2H930.8z"/>
<path class="st0" d="M1073.9,342.1V1h86v17.1h7.8v17.1h7.8v17.1h7.8v85.3h-7.8v17.1h-7.8v17.1h-7.8v17.1h-23.5v17.1h7.8v17.1h7.8
	v17.1h7.8v17.1h7.8v17.1h7.8v17.1h7.8V308h7.8V325h7.8v17.1h-31.3V325h-7.8V308h-7.8v-17.1h-7.8v-17.1h-7.8v-17.1h-7.8v-17.1h-7.8
	v-17.1h-7.8v-17.1h-7.8v-17.1h-7.8v153.5H1073.9z M1152.1,137.4v-17.1h7.8V69.2h-7.8V52.2h-54.7v85.3H1152.1z"/>
<path class="st0" d="M57.3,717v-14.1H33.3v-14.1h-8v-14.1h-8v-14.1h-8v-28.2h-8V519.4h8v-28.2h8V477h8v-14.1h8v-14.1h24.1v-14.1
	h40.1v14.1h24.1v14.1h8v28.2h8v14.1h8v14.1h-32.1v-14.1h-8v-14.1h-16V477H65.4v14.1h-16v14.1h-8v14.1h-8v28.2h-8v56.5h8v28.2h8v14.1
	h8v14.1h16v14.1h24.1v-14.1h16v-14.1h8v-14.1h8v-28.2H73.4v-42.3h72.2v84.7h-8v14.1h-8v28.2h-8v14.1H97.4V717H57.3z"/>
<path class="st0" d="M179.2,717V434.7h95.8v14.1h8.7v14.1h8.7V477h8.7v70.6h-8.7v14.1h-8.7v14.1h-8.7V590h-26.1v14.1h8.7v14.1h8.7
	v14.1h8.7v14.1h8.7v14.1h8.7v14.1h8.7v14.1h8.7v14.1h8.7V717h-34.8v-14.1h-8.7v-14.1h-8.7v-14.1h-8.7v-14.1h-8.7v-14.1h-8.7v-14.1
	h-8.7v-14.1h-8.7v-14.1H214V590h-8.7v127H179.2z M266.2,547.6v-14.1h8.7v-42.3h-8.7V477h-61v70.6H266.2z"/>
<path class="st0" d="M338.5,717V434.7h95.8v14.1h8.7v14.1h8.7V477h8.7v70.6h-8.7v14.1H443v14.1h-8.7V590h-26.1v14.1h8.7v14.1h8.7
	v14.1h8.7v14.1h8.7v14.1h8.7v14.1h8.7v14.1h8.7v14.1h8.7V717H443v-14.1h-8.7v-14.1h-8.7v-14.1h-8.7v-14.1h-8.7v-14.1h-8.7v-14.1
	h-8.7v-14.1h-8.7v-14.1h-8.7V590h-8.7v127H338.5z M425.6,547.6v-14.1h8.7v-42.3h-8.7V477h-61v70.6H425.6z"/>
<path class="st0" d="M500.3,717V434.7h95.8v14.1h8.7v14.1h8.7V477h8.7v70.6h-8.7v14.1h-8.7v14.1h-8.7V590h-26.1v14.1h8.7v14.1h8.7
	v14.1h8.7v14.1h8.7v14.1h8.7v14.1h8.7v14.1h8.7v14.1h8.7V717h-34.8v-14.1h-8.7v-14.1h-8.7v-14.1h-8.7v-14.1h-8.7v-14.1h-8.7v-14.1
	h-8.7v-14.1h-8.7v-14.1h-8.7V590h-8.7v127H500.3z M587.3,547.6v-14.1h8.7v-42.3h-8.7V477h-61v70.6H587.3z"/>
<path class="st0" d="M660.8,717V434.7H687v240H774V717H660.8z"/>
<path class="st0" d="M826.7,717v-17.6h-17.4v-17.6h-8.7v-17.6h-8.7v-35.3H818v17.6h8.7v17.6h43.5v-17.6h8.7v-52.9h-8.7v-17.6h-8.7
	v-17.6h-26.1v-17.6h-26.1V523h-8.7v-17.6h-8.7v-88.2h8.7v-17.6h8.7v-17.6h8.7v-17.6h61v17.6h8.7v17.6h8.7v35.3h-26.1v-17.6h-43.5
	v17.6H818v52.9h17.4v17.6h26.1V523h17.4v17.6h17.4v35.3h8.7v88.2h-8.7v17.6h-8.7v17.6h-17.4V717H826.7z"/>
<rect x="1385" y="47" style="fill:none;" width="1141" height="735"/>
<text transform="matrix(1 0 0 1 1385 195.125)"><tspan x="0" y="0" class="st0" style="font-family:'Terminal-Grotesque'; font-size:237px;">COMPUTER</tspan><tspan x="0" y="284.4" class="st0" style="font-family:'Terminal-Grotesque'; font-size:237px;">GRRRLS</tspan></text>
</svg>
