<?xml version="1.0" encoding="utf-8"?>
<!-- Generator: Adobe Illustrator 22.0.1, SVG Export Plug-In . SVG Version: 6.00 Build 0)  -->
<svg version="1.1" id="Layer_1" xmlns="http://www.w3.org/2000/svg" xmlns:xlink="http://www.w3.org/1999/xlink" x="0px" y="0px"
	 viewBox="0 0 420.9 595.3" style="enable-background:new 0 0 420.9 595.3;" xml:space="preserve">
<style type="text/css">
	.st0{enable-background:new    ;}
	.st1{fill:#FFFFFF;stroke:#010101;stroke-width:0.75;stroke-linejoin:round;stroke-miterlimit:10;}
	.st2{fill:#010101;}
	.st3{font-family:'Snap-itmono-5.3-Regular';}
	.st4{font-size:16.7612px;}
	.st5{fill:#FFFFFF;}
	.st6{fill:none;stroke:#010101;stroke-width:0.75;stroke-linejoin:round;}
	.st7{fill:none;stroke:#010101;stroke-width:0.75;stroke-linejoin:round;stroke-dasharray:2.2104,1.1052;}
	.st8{fill:none;stroke:#010101;stroke-width:0.75;stroke-linejoin:round;stroke-dasharray:2.0787,1.0394;}
	.st9{fill:none;}
</style>
<g id="font_3_">
	<g>
		<g class="st0">
			<g>
				<polygon class="st1" points="277,-9.3 267.7,-14.7 270.8,-20.5 280.2,-15.1 				"/>
			</g>
			<g>
				<polygon class="st1" points="280.2,-15.1 270.8,-20.5 273.7,-18.9 283,-13.5 				"/>
			</g>
			<g>
				<polygon class="st1" points="273.8,-4.7 264.5,-10.1 267.7,-14.7 277,-9.3 				"/>
			</g>
			<g>
				<polygon class="st1" points="269.2,-1.1 260,-6.5 264.5,-10.1 273.8,-4.7 				"/>
			</g>
			<g>
				<polygon class="st1" points="265.2,0.3 255.8,-5.2 260,-6.5 269.2,-1.1 				"/>
			</g>
			<g>
				<polygon class="st1" points="261.3,-0.9 251.9,-6.3 255.8,-5.2 265.2,0.3 				"/>
			</g>
			<g>
				<polygon class="st1" points="257.8,3.8 248.5,-1.6 245.9,-9.8 255.2,-4.5 				"/>
			</g>
			<g>
				<polygon class="st1" points="255.2,-4.5 245.9,-9.8 245.8,-41 255.1,-35.5 				"/>
			</g>
			<g>
				<polygon class="st1" points="258.9,-42.2 249.6,-47.6 262.2,-54.9 271.6,-49.5 				"/>
			</g>
			<g>
				<polygon class="st1" points="246.7,-30.7 237.4,-36.1 237.4,-40.6 246.7,-35.1 				"/>
			</g>
			<g>
				<polygon class="st1" points="246.7,-35.1 237.4,-40.6 245.7,-45.4 255.1,-40 				"/>
			</g>
			<g>
				<polygon class="st1" points="255.1,-51.5 245.7,-57 249.6,-59.2 258.8,-53.7 				"/>
			</g>
			<g>
				<polygon class="st1" points="255.1,-40 245.7,-45.4 245.7,-57 255.1,-51.5 				"/>
			</g>
			<g>
				<polygon class="st1" points="258.8,-53.7 258.9,-42.2 271.6,-49.5 271.6,-45.1 258.9,-37.8 259,-7.3 261.3,-0.9 265.2,0.3 
					269.2,-1.1 273.8,-4.7 277,-9.3 280.2,-15.1 283,-13.5 279.4,-7.2 275.5,-1.4 269.4,3.5 263.6,5.4 257.8,3.8 255.2,-4.5 
					255.1,-35.5 246.7,-30.7 246.7,-35.1 255.1,-40 255.1,-51.5 				"/>
			</g>
		</g>
		<g class="st0">
			<g>
				<polygon class="st1" points="237.1,20.3 227.7,14.8 227.7,-15.4 237,-10 				"/>
			</g>
			<g>
				<polygon class="st1" points="237,-10 227.7,-15.4 226.9,-20.9 236.2,-15.4 				"/>
			</g>
			<g>
				<polygon class="st1" points="236.2,-15.4 226.9,-20.9 224.4,-23.7 233.8,-18.3 				"/>
			</g>
			<g>
				<polygon class="st1" points="230.7,-23.4 221.3,-28.8 227,-28.6 236.3,-23.2 				"/>
			</g>
			<g>
				<polygon class="st1" points="223.8,-20.5 214.4,-25.8 221.3,-28.8 230.7,-23.4 				"/>
			</g>
			<g>
				<polygon class="st1" points="214.9,-11.6 205.6,-17 214.4,-25.8 223.8,-20.5 				"/>
			</g>
			<g>
				<polygon class="st1" points="211.5,-4.7 202.2,-10.1 205.6,-17 214.9,-11.6 				"/>
			</g>
			<g>
				<polygon class="st1" points="207.8,37.3 198.4,31.9 198.3,-8.9 207.7,-3.5 				"/>
			</g>
			<g>
				<polygon class="st1" points="207.7,-3.5 198.3,-8.9 195.2,-11.1 204.6,-5.7 				"/>
			</g>
			<g>
				<polygon class="st1" points="204.6,-5.7 195.2,-11.1 198.3,-15.7 207.6,-10.4 				"/>
			</g>
			<g>
				<polygon class="st1" points="223.8,-20.5 230.7,-23.4 236.3,-23.2 240,-19.3 240.8,-12.4 240.9,18.1 237.1,20.3 237,-10 
					236.2,-15.4 233.8,-18.3 229.5,-18.4 224.3,-16.1 217.4,-9.1 211.6,2.4 211.7,35.1 207.8,37.3 207.7,-3.5 204.6,-5.7 
					207.6,-10.4 211.5,-7.4 211.5,-4.7 214.9,-11.6 				"/>
			</g>
		</g>
		<g class="st0">
			<g>
				<polygon class="st1" points="189.7,42.9 180.4,37.4 184.1,31.6 193.5,37 				"/>
			</g>
			<g>
				<polygon class="st1" points="185.3,46.6 176,41.2 180.4,37.4 189.7,42.9 				"/>
			</g>
			<g>
				<polygon class="st1" points="180.2,47.1 170.9,41.8 176,41.2 185.3,46.6 				"/>
			</g>
			<g>
				<polygon class="st1" points="177.3,52.3 168,46.9 164.8,39 174.1,44.5 				"/>
			</g>
			<g>
				<polygon class="st1" points="174.1,44.5 164.8,39 164.7,8 174,13.5 				"/>
			</g>
			<g>
				<polygon class="st1" points="160.1,17.2 150.7,11.7 168.5,1.5 177.9,7 				"/>
			</g>
			<g>
				<polygon class="st1" points="160.1,21.5 150.8,16 150.7,11.7 160.1,17.2 				"/>
			</g>
			<g>
				<polygon class="st1" points="193.5,37 196,39 191.5,46 185,51.3 177.3,52.3 174.1,44.5 174,13.5 160.1,21.5 160.1,17.2 177.9,7 
					177.9,41.4 180.2,47.1 185.3,46.6 189.7,42.9 				"/>
			</g>
		</g>
		<g class="st0">
			<g>
				<polygon class="st1" points="149.1,36.8 139.7,31.3 137.9,27.4 147.3,32.8 				"/>
			</g>
			<g>
				<polygon class="st1" points="145.8,26.6 136.4,21.2 141.1,22.9 150.4,28.3 				"/>
			</g>
			<g>
				<polygon class="st1" points="140.1,28.3 130.8,22.9 136.4,21.2 145.8,26.6 				"/>
			</g>
			<g>
				<polygon class="st1" points="123.4,50.5 114,45.1 114.2,45 123.5,50.4 				"/>
			</g>
			<g>
				<polygon class="st1" points="134.2,31.9 124.9,26.4 130.8,22.9 140.1,28.3 				"/>
			</g>
			<g>
				<polygon class="st1" points="123.5,50.4 114.2,45 115.3,40.8 124.7,46.2 				"/>
			</g>
			<g>
				<polygon class="st1" points="124.7,46.2 115.3,40.8 116.9,36.8 126.2,42.2 				"/>
			</g>
			<g>
				<polygon class="st1" points="126.2,42.2 116.9,36.8 124.9,26.4 134.2,31.9 				"/>
			</g>
			<g>
				<polygon class="st1" points="120.2,88.2 111,82.8 110.8,41.3 120.1,46.7 				"/>
			</g>
			<g>
				<polygon class="st1" points="118.2,41.2 108.9,35.7 114.7,36.6 124,42 				"/>
			</g>
			<g>
				<polygon class="st1" points="116.2,46.1 106.9,40.6 108.9,35.7 118.2,41.2 				"/>
			</g>
			<g>
				<polygon class="st1" points="140.1,28.3 145.8,26.6 150.4,28.3 152.5,33.3 149.1,36.8 147.3,32.8 144,31.7 139.7,32.9 
					135.4,35.6 129,43.9 124,55.9 124.1,86 120.2,88.2 120.1,46.7 116.2,46.1 118.2,41.2 124,42 124,46.3 123.4,50.5 123.5,50.4 
					124.7,46.2 126.2,42.2 134.2,31.9 				"/>
			</g>
		</g>
		<g class="st0">
			<g>
				<polygon class="st1" points="97.3,68 87.9,62.6 92.2,57.1 101.5,62.6 				"/>
			</g>
			<g>
				<polygon class="st1" points="101.5,62.6 92.2,57.1 94.3,51.4 103.6,56.8 				"/>
			</g>
			<g>
				<polygon class="st1" points="103.6,56.8 94.3,51.4 95.1,45.8 104.4,51.2 				"/>
			</g>
			<g>
				<polygon class="st1" points="91.7,72.7 82.4,67.3 87.9,62.6 97.3,68 				"/>
			</g>
			<g>
				<polygon class="st1" points="104.4,51.2 95.1,45.8 93.8,40.4 103.2,45.8 				"/>
			</g>
			<g>
				<polygon class="st1" points="103.2,45.8 93.8,40.4 90.8,37.4 100.1,42.9 				"/>
			</g>
			<g>
				<polygon class="st1" points="76,81.7 66.6,76.3 82.4,67.3 91.7,72.7 				"/>
			</g>
			<g>
				<polygon class="st1" points="97.2,37.9 87.8,32.4 93.3,32.5 102.6,37.9 				"/>
			</g>
			<g>
				<polygon class="st1" points="91.1,40.4 81.8,35 87.8,32.4 97.2,37.9 				"/>
			</g>
			<g>
				<path class="st1" d="M106.7,41.9l1.6,6.9l-1.1,7.3l-3,8l-5.6,7.1l-6.5,5.6L76,86.2l0.1,27.6l-3.9,2.2l-0.2-64.5l19.1-11l6-2.6
					l5.5,0.1L106.7,41.9z M103.6,56.8l0.8-5.6l-1.2-5.4l-3.1-2.9H96l-5.2,2.2l-14.9,8.6L76,81.7l15.7-9.1l5.6-4.7l4.3-5.4
					L103.6,56.8"/>
			</g>
			<g>
				<polygon class="st1" points="72,51.5 62.7,46 81.8,35 91.1,40.4 				"/>
			</g>
			<g>
				<polygon class="st1" points="72.2,115.9 62.9,110.6 62.7,46 72,51.5 				"/>
			</g>
		</g>
		<g class="st0">
			<g>
				<polygon class="st1" points="176.6,-10.1 167.2,-15.5 168.8,-15.3 178.2,-10 				"/>
			</g>
			<g>
				<polygon class="st1" points="173.4,-3.3 164.1,-8.7 163.5,-10.3 172.9,-4.8 				"/>
			</g>
			<g>
				<polygon class="st1" points="174.8,-9.1 165.6,-14.5 167.2,-15.5 176.6,-10.1 				"/>
			</g>
			<g>
				<polygon class="st1" points="174.9,-2.9 173.4,-3.3 172.9,-4.8 173.4,-7.2 174.8,-9.1 176.6,-10.1 178.2,-10 178.6,-8.2 
					178.2,-6.1 176.6,-3.9 				"/>
			</g>
			<g>
				<polygon class="st1" points="172.9,-4.8 163.5,-10.3 164.1,-12.6 173.4,-7.2 				"/>
			</g>
			<g>
				<polygon class="st1" points="173.4,-7.2 164.1,-12.6 165.6,-14.5 174.8,-9.1 				"/>
			</g>
		</g>
		<g class="st0">
			<g>
				<polygon class="st1" points="307.7,-52.7 307.7,-48.3 291,-38.7 291,-43.1 				"/>
			</g>
			<g>
				<polygon class="st1" points="291,-38.7 281.7,-44.1 281.7,-48.5 291,-43.1 				"/>
			</g>
			<g>
				<polygon class="st1" points="291,-43.1 281.7,-48.5 298.3,-58.2 307.7,-52.7 				"/>
			</g>
		</g>
		<g class="st0">
			<g>
				<polygon class="st1" points="388.7,-74.2 379.4,-79.6 382.6,-85.3 391.9,-80 				"/>
			</g>
			<g>
				<polygon class="st1" points="391.9,-80 382.6,-85.3 385.4,-83.9 394.7,-78.4 				"/>
			</g>
			<g>
				<polygon class="st1" points="385.5,-69.6 376.2,-75 379.4,-79.6 388.7,-74.2 				"/>
			</g>
			<g>
				<polygon class="st1" points="381,-66 371.8,-71.4 376.2,-75 385.5,-69.6 				"/>
			</g>
			<g>
				<polygon class="st1" points="376.9,-64.6 367.6,-70.1 371.8,-71.4 381,-66 				"/>
			</g>
			<g>
				<polygon class="st1" points="372.9,-65.9 363.6,-71.3 367.6,-70.1 376.9,-64.6 				"/>
			</g>
			<g>
				<polygon class="st1" points="369.5,-61.1 360.2,-66.5 357.5,-74.8 366.9,-69.4 				"/>
			</g>
			<g>
				<polygon class="st1" points="366.9,-69.4 357.5,-74.8 357.4,-105.9 366.8,-100.4 				"/>
			</g>
			<g>
				<polygon class="st1" points="370.7,-107.1 361.3,-112.5 374,-119.8 383.3,-114.4 				"/>
			</g>
			<g>
				<polygon class="st1" points="358.5,-95.6 349.1,-101 349.1,-105.4 358.4,-100.1 				"/>
			</g>
			<g>
				<polygon class="st1" points="358.4,-100.1 349.1,-105.4 357.4,-110.3 366.8,-104.8 				"/>
			</g>
			<g>
				<polygon class="st1" points="366.8,-116.5 357.4,-121.8 361.2,-124.1 370.6,-118.7 				"/>
			</g>
			<g>
				<polygon class="st1" points="366.8,-104.8 357.4,-110.3 357.4,-121.8 366.8,-116.5 				"/>
			</g>
			<g>
				<polygon class="st1" points="370.6,-118.7 370.7,-107.1 383.3,-114.4 383.3,-110 370.7,-102.7 370.8,-72.2 372.9,-65.9 
					376.9,-64.6 381,-66 385.5,-69.6 388.7,-74.2 391.9,-80 394.7,-78.4 391.2,-72.1 387.1,-66.4 381,-61.4 375.3,-59.5 
					369.5,-61.1 366.9,-69.4 366.8,-100.4 358.5,-95.6 358.4,-100.1 366.8,-104.8 366.8,-116.5 				"/>
			</g>
		</g>
		<g class="st0">
			<g>
				<polygon class="st1" points="345.2,-46.5 335.9,-51.9 339.7,-57.8 349.1,-52.3 				"/>
			</g>
			<g>
				<polygon class="st1" points="340.8,-42.7 331.5,-48.2 335.9,-51.9 345.2,-46.5 				"/>
			</g>
			<g>
				<polygon class="st1" points="335.8,-42.2 326.4,-47.7 331.5,-48.2 340.8,-42.7 				"/>
			</g>
			<g>
				<polygon class="st1" points="332.8,-37.1 323.5,-42.5 320.2,-50.3 329.6,-44.9 				"/>
			</g>
			<g>
				<polygon class="st1" points="329.6,-44.9 320.2,-50.3 320.1,-81.3 329.5,-75.9 				"/>
			</g>
			<g>
				<polygon class="st1" points="315.6,-72.2 306.3,-77.6 324,-87.9 333.3,-82.5 				"/>
			</g>
			<g>
				<polygon class="st1" points="315.6,-67.9 306.3,-73.3 306.3,-77.6 315.6,-72.2 				"/>
			</g>
			<g>
				<polygon class="st1" points="349.1,-52.3 351.5,-50.4 347,-43.3 340.5,-38 332.8,-37.1 329.6,-44.9 329.5,-75.9 315.6,-67.9 
					315.6,-72.2 333.3,-82.5 333.4,-48 335.8,-42.2 340.8,-42.7 345.2,-46.5 				"/>
			</g>
		</g>
		<g class="st0">
			<g>
				<polygon class="st1" points="332.1,-99.4 322.7,-104.9 324.4,-104.7 333.7,-99.2 				"/>
			</g>
			<g>
				<polygon class="st1" points="329,-92.6 319.6,-98.1 319.1,-99.6 328.3,-94.2 				"/>
			</g>
			<g>
				<polygon class="st1" points="330.4,-98.4 321,-103.9 322.7,-104.9 332.1,-99.4 				"/>
			</g>
			<g>
				<polygon class="st1" points="330.4,-92.2 329,-92.6 328.3,-94.2 329,-96.5 330.4,-98.4 332.1,-99.4 333.7,-99.2 334.2,-97.5 
					333.7,-95.3 332.1,-93.1 				"/>
			</g>
			<g>
				<polygon class="st1" points="328.3,-94.2 319.1,-99.6 319.6,-102 329,-96.5 				"/>
			</g>
			<g>
				<polygon class="st1" points="329,-96.5 319.6,-102 321,-103.9 330.4,-98.4 				"/>
			</g>
		</g>
	</g>
</g>
<g id="font_1_">
	<g>
		<g class="st0">
			<g>
				<polygon class="st1" points="277,120.2 267.7,114.9 270.8,109.1 280.2,114.5 				"/>
			</g>
			<g>
				<polygon class="st1" points="280.2,114.5 270.8,109.1 273.7,110.7 283,116.1 				"/>
			</g>
			<g>
				<polygon class="st1" points="273.8,124.9 264.5,119.5 267.7,114.9 277,120.2 				"/>
			</g>
			<g>
				<polygon class="st1" points="269.2,128.5 260,123.1 264.5,119.5 273.8,124.9 				"/>
			</g>
			<g>
				<polygon class="st1" points="265.2,129.9 255.8,124.4 260,123.1 269.2,128.5 				"/>
			</g>
			<g>
				<polygon class="st1" points="261.3,128.6 251.9,123.3 255.8,124.4 265.2,129.9 				"/>
			</g>
			<g>
				<polygon class="st1" points="257.8,133.4 248.5,127.9 245.9,119.7 255.2,125.1 				"/>
			</g>
			<g>
				<polygon class="st1" points="255.2,125.1 245.9,119.7 245.8,88.6 255.1,94 				"/>
			</g>
			<g>
				<polygon class="st1" points="258.9,87.4 249.6,82 262.2,74.7 271.6,80.1 				"/>
			</g>
			<g>
				<polygon class="st1" points="246.7,98.9 237.4,93.5 237.4,89 246.7,94.5 				"/>
			</g>
			<g>
				<polygon class="st1" points="246.7,94.5 237.4,89 245.7,84.2 255.1,89.6 				"/>
			</g>
			<g>
				<polygon class="st1" points="255.1,78.1 245.7,72.6 249.6,70.4 258.8,75.9 				"/>
			</g>
			<g>
				<polygon class="st1" points="255.1,89.6 245.7,84.2 245.7,72.6 255.1,78.1 				"/>
			</g>
			<g>
				<polygon class="st1" points="258.8,75.9 258.9,87.4 271.6,80.1 271.6,84.5 258.9,91.8 259,122.3 261.3,128.6 265.2,129.9 
					269.2,128.5 273.8,124.9 277,120.2 280.2,114.5 283,116.1 279.4,122.4 275.5,128.1 269.4,133.1 263.6,135 257.8,133.4 
					255.2,125.1 255.1,94 246.7,98.9 246.7,94.5 255.1,89.6 255.1,78.1 				"/>
			</g>
		</g>
		<g class="st0">
			<g>
				<polygon class="st1" points="237.1,149.9 227.7,144.4 227.7,114.2 237,119.6 				"/>
			</g>
			<g>
				<polygon class="st1" points="237,119.6 227.7,114.2 226.9,108.7 236.2,114.2 				"/>
			</g>
			<g>
				<polygon class="st1" points="236.2,114.2 226.9,108.7 224.4,105.9 233.8,111.3 				"/>
			</g>
			<g>
				<polygon class="st1" points="230.7,106.1 221.3,100.8 227,101 236.3,106.4 				"/>
			</g>
			<g>
				<polygon class="st1" points="223.8,109.1 214.4,103.7 221.3,100.8 230.7,106.1 				"/>
			</g>
			<g>
				<polygon class="st1" points="214.9,118 205.6,112.6 214.4,103.7 223.8,109.1 				"/>
			</g>
			<g>
				<polygon class="st1" points="211.5,124.9 202.2,119.5 205.6,112.6 214.9,118 				"/>
			</g>
			<g>
				<polygon class="st1" points="207.8,166.8 198.4,161.5 198.3,120.7 207.7,126.1 				"/>
			</g>
			<g>
				<polygon class="st1" points="207.7,126.1 198.3,120.7 195.2,118.5 204.6,123.9 				"/>
			</g>
			<g>
				<polygon class="st1" points="204.6,123.9 195.2,118.5 198.3,113.8 207.6,119.2 				"/>
			</g>
			<g>
				<polygon class="st1" points="223.8,109.1 230.7,106.1 236.3,106.4 240,110.3 240.8,117.2 240.9,147.7 237.1,149.9 237,119.6 
					236.2,114.2 233.8,111.3 229.5,111.2 224.3,113.5 217.4,120.4 211.6,131.9 211.7,164.6 207.8,166.8 207.7,126.1 204.6,123.9 
					207.6,119.2 211.5,122.2 211.5,124.9 214.9,118 				"/>
			</g>
		</g>
		<g class="st0">
			<g>
				<polygon class="st1" points="189.7,172.5 180.4,167 184.1,161.1 193.5,166.6 				"/>
			</g>
			<g>
				<polygon class="st1" points="185.3,176.2 176,170.8 180.4,167 189.7,172.5 				"/>
			</g>
			<g>
				<polygon class="st1" points="180.2,176.7 170.9,171.3 176,170.8 185.3,176.2 				"/>
			</g>
			<g>
				<polygon class="st1" points="177.3,181.9 168,176.5 164.8,168.6 174.1,174.1 				"/>
			</g>
			<g>
				<polygon class="st1" points="174.1,174.1 164.8,168.6 164.7,137.6 174,143.1 				"/>
			</g>
			<g>
				<polygon class="st1" points="160.1,146.7 150.7,141.3 168.5,131.1 177.9,136.5 				"/>
			</g>
			<g>
				<polygon class="st1" points="160.1,151.1 150.8,145.6 150.7,141.3 160.1,146.7 				"/>
			</g>
			<g>
				<polygon class="st1" points="193.5,166.6 196,168.6 191.5,175.5 185,180.9 177.3,181.9 174.1,174.1 174,143.1 160.1,151.1 
					160.1,146.7 177.9,136.5 177.9,171 180.2,176.7 185.3,176.2 189.7,172.5 				"/>
			</g>
		</g>
		<g class="st0">
			<g>
				<polygon class="st1" points="149.1,166.4 139.7,160.9 137.9,157 147.3,162.4 				"/>
			</g>
			<g>
				<polygon class="st1" points="145.8,156.2 136.4,150.7 141.1,152.5 150.4,157.9 				"/>
			</g>
			<g>
				<polygon class="st1" points="140.1,157.9 130.8,152.4 136.4,150.7 145.8,156.2 				"/>
			</g>
			<g>
				<polygon class="st1" points="123.4,180.1 114,174.7 114.2,174.6 123.5,180 				"/>
			</g>
			<g>
				<polygon class="st1" points="134.2,161.5 124.9,156 130.8,152.4 140.1,157.9 				"/>
			</g>
			<g>
				<polygon class="st1" points="123.5,180 114.2,174.6 115.3,170.4 124.7,175.8 				"/>
			</g>
			<g>
				<polygon class="st1" points="124.7,175.8 115.3,170.4 116.9,166.4 126.2,171.8 				"/>
			</g>
			<g>
				<polygon class="st1" points="126.2,171.8 116.9,166.4 124.9,156 134.2,161.5 				"/>
			</g>
			<g>
				<polygon class="st1" points="120.2,217.8 111,212.4 110.8,170.9 120.1,176.3 				"/>
			</g>
			<g>
				<polygon class="st1" points="118.2,170.8 108.9,165.3 114.7,166.2 124,171.6 				"/>
			</g>
			<g>
				<polygon class="st1" points="116.2,175.6 106.9,170.2 108.9,165.3 118.2,170.8 				"/>
			</g>
			<g>
				<polygon class="st1" points="140.1,157.9 145.8,156.2 150.4,157.9 152.5,162.8 149.1,166.4 147.3,162.4 144,161.2 139.7,162.5 
					135.4,165.1 129,173.4 124,185.4 124.1,215.6 120.2,217.8 120.1,176.3 116.2,175.6 118.2,170.8 124,171.6 124,175.9 
					123.4,180.1 123.5,180 124.7,175.8 126.2,171.8 134.2,161.5 				"/>
			</g>
		</g>
		<g class="st0">
			<g>
				<polygon class="st1" points="97.3,197.5 87.9,192.2 92.2,186.7 101.5,192.2 				"/>
			</g>
			<g>
				<polygon class="st1" points="101.5,192.2 92.2,186.7 94.3,180.9 103.6,186.4 				"/>
			</g>
			<g>
				<polygon class="st1" points="103.6,186.4 94.3,180.9 95.1,175.4 104.4,180.8 				"/>
			</g>
			<g>
				<polygon class="st1" points="91.7,202.3 82.4,196.9 87.9,192.2 97.3,197.5 				"/>
			</g>
			<g>
				<polygon class="st1" points="104.4,180.8 95.1,175.4 93.8,170 103.2,175.4 				"/>
			</g>
			<g>
				<polygon class="st1" points="103.2,175.4 93.8,170 90.8,167 100.1,172.5 				"/>
			</g>
			<g>
				<polygon class="st1" points="76,211.3 66.6,205.8 82.4,196.9 91.7,202.3 				"/>
			</g>
			<g>
				<polygon class="st1" points="97.2,167.4 87.8,162 93.3,162.1 102.6,167.5 				"/>
			</g>
			<g>
				<polygon class="st1" points="91.1,170 81.8,164.5 87.8,162 97.2,167.4 				"/>
			</g>
			<g>
				<path class="st1" d="M106.7,171.5l1.6,6.9l-1.1,7.3l-3,8l-5.6,7.1l-6.5,5.6L76,215.8l0.1,27.6l-3.9,2.2l-0.2-64.5l19.1-11l6-2.6
					l5.5,0.1L106.7,171.5z M103.6,186.4l0.8-5.6l-1.2-5.4l-3.1-2.9H96l-5.2,2.2l-14.9,8.6l0.1,28.1l15.7-9.1l5.6-4.7l4.3-5.4
					L103.6,186.4"/>
			</g>
			<g>
				<polygon class="st1" points="72,181 62.7,175.5 81.8,164.5 91.1,170 				"/>
			</g>
			<g>
				<polygon class="st1" points="72.2,245.5 62.9,240.1 62.7,175.5 72,181 				"/>
			</g>
		</g>
		<g class="st0">
			<g>
				<polygon class="st1" points="176.6,119.5 167.2,114.1 168.8,114.2 178.2,119.6 				"/>
			</g>
			<g>
				<polygon class="st1" points="173.4,126.3 164.1,120.9 163.5,119.3 172.9,124.8 				"/>
			</g>
			<g>
				<polygon class="st1" points="174.8,120.4 165.6,115.1 167.2,114.1 176.6,119.5 				"/>
			</g>
			<g>
				<polygon class="st1" points="174.9,126.7 173.4,126.3 172.9,124.8 173.4,122.4 174.8,120.4 176.6,119.5 178.2,119.6 
					178.6,121.4 178.2,123.5 176.6,125.7 				"/>
			</g>
			<g>
				<polygon class="st1" points="172.9,124.8 163.5,119.3 164.1,117 173.4,122.4 				"/>
			</g>
			<g>
				<polygon class="st1" points="173.4,122.4 164.1,117 165.6,115.1 174.8,120.4 				"/>
			</g>
		</g>
		<g class="st0">
			<g>
				<polygon class="st1" points="307.7,76.9 307.7,81.3 291,90.9 291,86.5 				"/>
			</g>
			<g>
				<polygon class="st1" points="291,90.9 281.7,85.4 281.7,81 291,86.5 				"/>
			</g>
			<g>
				<polygon class="st1" points="291,86.5 281.7,81 298.3,71.4 307.7,76.9 				"/>
			</g>
		</g>
		<g class="st0">
			<g>
				<polygon class="st1" points="388.7,55.4 379.4,50 382.6,44.2 391.9,49.6 				"/>
			</g>
			<g>
				<polygon class="st1" points="391.9,49.6 382.6,44.2 385.4,45.7 394.7,51.2 				"/>
			</g>
			<g>
				<polygon class="st1" points="385.5,60 376.2,54.5 379.4,50 388.7,55.4 				"/>
			</g>
			<g>
				<polygon class="st1" points="381,63.6 371.8,58.2 376.2,54.5 385.5,60 				"/>
			</g>
			<g>
				<polygon class="st1" points="376.9,65 367.6,59.5 371.8,58.2 381,63.6 				"/>
			</g>
			<g>
				<polygon class="st1" points="372.9,63.7 363.6,58.3 367.6,59.5 376.9,65 				"/>
			</g>
			<g>
				<polygon class="st1" points="369.5,68.5 360.2,63 357.5,54.8 366.9,60.2 				"/>
			</g>
			<g>
				<polygon class="st1" points="366.9,60.2 357.5,54.8 357.4,23.7 366.8,29.2 				"/>
			</g>
			<g>
				<polygon class="st1" points="370.7,22.5 361.3,17.1 374,9.7 383.3,15.2 				"/>
			</g>
			<g>
				<polygon class="st1" points="358.5,34 349.1,28.6 349.1,24.1 358.4,29.5 				"/>
			</g>
			<g>
				<polygon class="st1" points="358.4,29.5 349.1,24.1 357.4,19.3 366.8,24.8 				"/>
			</g>
			<g>
				<polygon class="st1" points="366.8,13.1 357.4,7.7 361.2,5.4 370.6,10.9 				"/>
			</g>
			<g>
				<polygon class="st1" points="366.8,24.8 357.4,19.3 357.4,7.7 366.8,13.1 				"/>
			</g>
			<g>
				<polygon class="st1" points="370.6,10.9 370.7,22.5 383.3,15.2 383.3,19.6 370.7,26.9 370.8,57.3 372.9,63.7 376.9,65 381,63.6 
					385.5,60 388.7,55.4 391.9,49.6 394.7,51.2 391.2,57.5 387.1,63.2 381,68.2 375.3,70.1 369.5,68.5 366.9,60.2 366.8,29.2 
					358.5,34 358.4,29.5 366.8,24.8 366.8,13.1 				"/>
			</g>
		</g>
		<g class="st0">
			<g>
				<polygon class="st1" points="345.2,83.1 335.9,77.7 339.7,71.8 349.1,77.2 				"/>
			</g>
			<g>
				<polygon class="st1" points="340.8,86.9 331.5,81.4 335.9,77.7 345.2,83.1 				"/>
			</g>
			<g>
				<polygon class="st1" points="335.8,87.4 326.4,81.9 331.5,81.4 340.8,86.9 				"/>
			</g>
			<g>
				<polygon class="st1" points="332.8,92.5 323.5,87 320.2,79.3 329.6,84.7 				"/>
			</g>
			<g>
				<polygon class="st1" points="329.6,84.7 320.2,79.3 320.1,48.3 329.5,53.7 				"/>
			</g>
			<g>
				<polygon class="st1" points="315.6,57.3 306.3,52 324,41.7 333.3,47.1 				"/>
			</g>
			<g>
				<polygon class="st1" points="315.6,61.7 306.3,56.3 306.3,52 315.6,57.3 				"/>
			</g>
			<g>
				<polygon class="st1" points="349.1,77.2 351.5,79.2 347,86.3 340.5,91.5 332.8,92.5 329.6,84.7 329.5,53.7 315.6,61.7 
					315.6,57.3 333.3,47.1 333.4,81.6 335.8,87.4 340.8,86.9 345.2,83.1 				"/>
			</g>
		</g>
		<g class="st0">
			<g>
				<polygon class="st1" points="332.1,30.2 322.7,24.7 324.4,24.9 333.7,30.3 				"/>
			</g>
			<g>
				<polygon class="st1" points="329,36.9 319.6,31.5 319.1,30 328.3,35.4 				"/>
			</g>
			<g>
				<polygon class="st1" points="330.4,31.2 321,25.7 322.7,24.7 332.1,30.2 				"/>
			</g>
			<g>
				<polygon class="st1" points="330.4,37.4 329,36.9 328.3,35.4 329,33.1 330.4,31.2 332.1,30.2 333.7,30.3 334.2,32.1 333.7,34.2 
					332.1,36.4 				"/>
			</g>
			<g>
				<polygon class="st1" points="328.3,35.4 319.1,30 319.6,27.6 329,33.1 				"/>
			</g>
			<g>
				<polygon class="st1" points="329,33.1 319.6,27.6 321,25.7 330.4,31.2 				"/>
			</g>
		</g>
	</g>
</g>
<g id="font_2_">
	<g>
		<g class="st0">
			<g>
				<polygon class="st1" points="277,249.8 267.7,244.4 270.8,238.7 280.2,244.1 				"/>
			</g>
			<g>
				<polygon class="st1" points="280.2,244.1 270.8,238.7 273.7,240.2 283,245.7 				"/>
			</g>
			<g>
				<polygon class="st1" points="273.8,254.4 264.5,249 267.7,244.4 277,249.8 				"/>
			</g>
			<g>
				<polygon class="st1" points="269.2,258.1 260,252.7 264.5,249 273.8,254.4 				"/>
			</g>
			<g>
				<polygon class="st1" points="265.2,259.5 255.8,254 260,252.7 269.2,258.1 				"/>
			</g>
			<g>
				<polygon class="st1" points="261.3,258.2 251.9,252.8 255.8,254 265.2,259.5 				"/>
			</g>
			<g>
				<polygon class="st1" points="257.8,262.9 248.5,257.5 245.9,249.3 255.2,254.7 				"/>
			</g>
			<g>
				<polygon class="st1" points="255.2,254.7 245.9,249.3 245.8,218.2 255.1,223.6 				"/>
			</g>
			<g>
				<polygon class="st1" points="258.9,217 249.6,211.6 262.2,204.3 271.6,209.6 				"/>
			</g>
			<g>
				<polygon class="st1" points="246.7,228.4 237.4,223.1 237.4,218.6 246.7,224 				"/>
			</g>
			<g>
				<polygon class="st1" points="246.7,224 237.4,218.6 245.7,213.8 255.1,219.2 				"/>
			</g>
			<g>
				<polygon class="st1" points="255.1,207.6 245.7,202.1 249.6,199.9 258.8,205.4 				"/>
			</g>
			<g>
				<polygon class="st1" points="255.1,219.2 245.7,213.8 245.7,202.1 255.1,207.6 				"/>
			</g>
			<g>
				<polygon class="st1" points="258.8,205.4 258.9,217 271.6,209.6 271.6,214 258.9,221.4 259,251.9 261.3,258.2 265.2,259.5 
					269.2,258.1 273.8,254.4 277,249.8 280.2,244.1 283,245.7 279.4,252 275.5,257.7 269.4,262.6 263.6,264.6 257.8,262.9 
					255.2,254.7 255.1,223.6 246.7,228.4 246.7,224 255.1,219.2 255.1,207.6 				"/>
			</g>
		</g>
		<g class="st0">
			<g>
				<polygon class="st1" points="237.1,279.4 227.7,274 227.7,243.8 237,249.2 				"/>
			</g>
			<g>
				<polygon class="st1" points="237,249.2 227.7,243.8 226.9,238.3 236.2,243.8 				"/>
			</g>
			<g>
				<polygon class="st1" points="236.2,243.8 226.9,238.3 224.4,235.5 233.8,240.9 				"/>
			</g>
			<g>
				<polygon class="st1" points="230.7,235.7 221.3,230.3 227,230.6 236.3,236 				"/>
			</g>
			<g>
				<polygon class="st1" points="223.8,238.7 214.4,233.3 221.3,230.3 230.7,235.7 				"/>
			</g>
			<g>
				<polygon class="st1" points="214.9,247.6 205.6,242.2 214.4,233.3 223.8,238.7 				"/>
			</g>
			<g>
				<polygon class="st1" points="211.5,254.4 202.2,249 205.6,242.2 214.9,247.6 				"/>
			</g>
			<g>
				<polygon class="st1" points="207.8,296.4 198.4,291 198.3,250.3 207.7,255.7 				"/>
			</g>
			<g>
				<polygon class="st1" points="207.7,255.7 198.3,250.3 195.2,248.1 204.6,253.5 				"/>
			</g>
			<g>
				<polygon class="st1" points="204.6,253.5 195.2,248.1 198.3,243.4 207.6,248.8 				"/>
			</g>
			<g>
				<polygon class="st1" points="223.8,238.7 230.7,235.7 236.3,236 240,239.9 240.8,246.7 240.9,277.2 237.1,279.4 237,249.2 
					236.2,243.8 233.8,240.9 229.5,240.7 224.3,243.1 217.4,250 211.6,261.5 211.7,294.2 207.8,296.4 207.7,255.7 204.6,253.5 
					207.6,248.8 211.5,251.8 211.5,254.4 214.9,247.6 				"/>
			</g>
		</g>
		<g class="st0">
			<g>
				<polygon class="st1" points="189.7,302 180.4,296.6 184.1,290.7 193.5,296.2 				"/>
			</g>
			<g>
				<polygon class="st1" points="185.3,305.7 176,300.4 180.4,296.6 189.7,302 				"/>
			</g>
			<g>
				<polygon class="st1" points="180.2,306.3 170.9,300.9 176,300.4 185.3,305.7 				"/>
			</g>
			<g>
				<polygon class="st1" points="177.3,311.4 168,306 164.8,298.2 174.1,303.6 				"/>
			</g>
			<g>
				<polygon class="st1" points="174.1,303.6 164.8,298.2 164.7,267.1 174,272.6 				"/>
			</g>
			<g>
				<polygon class="st1" points="160.1,276.3 150.7,270.9 168.5,260.6 177.9,266.1 				"/>
			</g>
			<g>
				<polygon class="st1" points="160.1,280.7 150.8,275.2 150.7,270.9 160.1,276.3 				"/>
			</g>
			<g>
				<polygon class="st1" points="193.5,296.2 196,298.2 191.5,305.1 185,310.5 177.3,311.4 174.1,303.6 174,272.6 160.1,280.7 
					160.1,276.3 177.9,266.1 177.9,300.6 180.2,306.3 185.3,305.7 189.7,302 				"/>
			</g>
		</g>
		<g class="st0">
			<g>
				<polygon class="st1" points="149.1,295.9 139.7,290.5 137.9,286.6 147.3,292 				"/>
			</g>
			<g>
				<polygon class="st1" points="145.8,285.8 136.4,280.3 141.1,282.1 150.4,287.5 				"/>
			</g>
			<g>
				<polygon class="st1" points="140.1,287.5 130.8,282 136.4,280.3 145.8,285.8 				"/>
			</g>
			<g>
				<polygon class="st1" points="123.4,309.6 114,304.3 114.2,304.1 123.5,309.5 				"/>
			</g>
			<g>
				<polygon class="st1" points="134.2,291.1 124.9,285.6 130.8,282 140.1,287.5 				"/>
			</g>
			<g>
				<polygon class="st1" points="123.5,309.5 114.2,304.1 115.3,299.9 124.7,305.3 				"/>
			</g>
			<g>
				<polygon class="st1" points="124.7,305.3 115.3,299.9 116.9,295.9 126.2,301.3 				"/>
			</g>
			<g>
				<polygon class="st1" points="126.2,301.3 116.9,295.9 124.9,285.6 134.2,291.1 				"/>
			</g>
			<g>
				<polygon class="st1" points="120.2,347.4 111,342 110.8,300.5 120.1,305.8 				"/>
			</g>
			<g>
				<polygon class="st1" points="118.2,300.4 108.9,294.9 114.7,295.8 124,301.2 				"/>
			</g>
			<g>
				<polygon class="st1" points="116.2,305.2 106.9,299.7 108.9,294.9 118.2,300.4 				"/>
			</g>
			<g>
				<polygon class="st1" points="140.1,287.5 145.8,285.8 150.4,287.5 152.5,292.4 149.1,295.9 147.3,292 144,290.8 139.7,292.1 
					135.4,294.7 129,303 124,315 124.1,345.2 120.2,347.4 120.1,305.8 116.2,305.2 118.2,300.4 124,301.2 124,305.5 123.4,309.6 
					123.5,309.5 124.7,305.3 126.2,301.3 134.2,291.1 				"/>
			</g>
		</g>
		<g class="st0">
			<g>
				<polygon class="st1" points="97.3,327.1 87.9,321.7 92.2,316.2 101.5,321.7 				"/>
			</g>
			<g>
				<polygon class="st1" points="101.5,321.7 92.2,316.2 94.3,310.5 103.6,316 				"/>
			</g>
			<g>
				<polygon class="st1" points="103.6,316 94.3,310.5 95.1,305 104.4,310.4 				"/>
			</g>
			<g>
				<polygon class="st1" points="91.7,331.8 82.4,326.4 87.9,321.7 97.3,327.1 				"/>
			</g>
			<g>
				<polygon class="st1" points="104.4,310.4 95.1,305 93.8,299.6 103.2,305 				"/>
			</g>
			<g>
				<polygon class="st1" points="103.2,305 93.8,299.6 90.8,296.6 100.1,302 				"/>
			</g>
			<g>
				<polygon class="st1" points="76,340.9 66.6,335.4 82.4,326.4 91.7,331.8 				"/>
			</g>
			<g>
				<polygon class="st1" points="97.2,297 87.8,291.5 93.3,291.6 102.6,297.1 				"/>
			</g>
			<g>
				<polygon class="st1" points="91.1,299.6 81.8,294.1 87.8,291.5 97.2,297 				"/>
			</g>
			<g>
				<path class="st1" d="M106.7,301.1l1.6,6.9l-1.1,7.3l-3,8l-5.6,7.1l-6.5,5.6L76,345.4l0.1,27.6l-3.9,2.2l-0.2-64.5l19.1-11l6-2.6
					l5.5,0.1L106.7,301.1z M103.6,316l0.8-5.6l-1.2-5.4l-3.1-2.9H96l-5.2,2.2l-14.9,8.6l0.1,28.1l15.7-9.1l5.6-4.7l4.3-5.4
					L103.6,316"/>
			</g>
			<g>
				<polygon class="st1" points="72,310.6 62.7,305.1 81.8,294.1 91.1,299.6 				"/>
			</g>
			<g>
				<polygon class="st1" points="72.2,375.1 62.9,369.7 62.7,305.1 72,310.6 				"/>
			</g>
		</g>
		<g class="st0">
			<g>
				<polygon class="st1" points="176.6,249 167.2,243.7 168.8,243.8 178.2,249.2 				"/>
			</g>
			<g>
				<polygon class="st1" points="173.4,255.9 164.1,250.5 163.5,248.8 172.9,254.3 				"/>
			</g>
			<g>
				<polygon class="st1" points="174.8,250 165.6,244.6 167.2,243.7 176.6,249 				"/>
			</g>
			<g>
				<polygon class="st1" points="174.9,256.3 173.4,255.9 172.9,254.3 173.4,252 174.8,250 176.6,249 178.2,249.2 178.6,251 
					178.2,253.1 176.6,255.3 				"/>
			</g>
			<g>
				<polygon class="st1" points="172.9,254.3 163.5,248.8 164.1,246.6 173.4,252 				"/>
			</g>
			<g>
				<polygon class="st1" points="173.4,252 164.1,246.6 165.6,244.6 174.8,250 				"/>
			</g>
		</g>
		<g class="st0">
			<g>
				<polygon class="st1" points="307.7,206.5 307.7,210.9 291,220.5 291,216.1 				"/>
			</g>
			<g>
				<polygon class="st1" points="291,220.5 281.7,215 281.7,210.6 291,216.1 				"/>
			</g>
			<g>
				<polygon class="st1" points="291,216.1 281.7,210.6 298.3,201 307.7,206.5 				"/>
			</g>
		</g>
		<g class="st0">
			<g>
				<polygon class="st1" points="388.7,184.9 379.4,179.5 382.6,173.8 391.9,179.2 				"/>
			</g>
			<g>
				<polygon class="st1" points="391.9,179.2 382.6,173.8 385.4,175.3 394.7,180.8 				"/>
			</g>
			<g>
				<polygon class="st1" points="385.5,189.6 376.2,184.1 379.4,179.5 388.7,184.9 				"/>
			</g>
			<g>
				<polygon class="st1" points="381,193.1 371.8,187.7 376.2,184.1 385.5,189.6 				"/>
			</g>
			<g>
				<polygon class="st1" points="376.9,194.6 367.6,189.1 371.8,187.7 381,193.1 				"/>
			</g>
			<g>
				<polygon class="st1" points="372.9,193.3 363.6,187.9 367.6,189.1 376.9,194.6 				"/>
			</g>
			<g>
				<polygon class="st1" points="369.5,198.1 360.2,192.6 357.5,184.4 366.9,189.8 				"/>
			</g>
			<g>
				<polygon class="st1" points="366.9,189.8 357.5,184.4 357.4,153.3 366.8,158.8 				"/>
			</g>
			<g>
				<polygon class="st1" points="370.7,152.1 361.3,146.6 374,139.3 383.3,144.8 				"/>
			</g>
			<g>
				<polygon class="st1" points="358.5,163.6 349.1,158.2 349.1,153.7 358.4,159.1 				"/>
			</g>
			<g>
				<polygon class="st1" points="358.4,159.1 349.1,153.7 357.4,148.9 366.8,154.3 				"/>
			</g>
			<g>
				<polygon class="st1" points="366.8,142.7 357.4,137.3 361.2,135 370.6,140.5 				"/>
			</g>
			<g>
				<polygon class="st1" points="366.8,154.3 357.4,148.9 357.4,137.3 366.8,142.7 				"/>
			</g>
			<g>
				<polygon class="st1" points="370.6,140.5 370.7,152.1 383.3,144.8 383.3,149.2 370.7,156.5 370.8,186.9 372.9,193.3 
					376.9,194.6 381,193.1 385.5,189.6 388.7,184.9 391.9,179.2 394.7,180.8 391.2,187 387.1,192.8 381,197.8 375.3,199.7 
					369.5,198.1 366.9,189.8 366.8,158.8 358.5,163.6 358.4,159.1 366.8,154.3 366.8,142.7 				"/>
			</g>
		</g>
		<g class="st0">
			<g>
				<polygon class="st1" points="345.2,212.7 335.9,207.3 339.7,201.3 349.1,206.8 				"/>
			</g>
			<g>
				<polygon class="st1" points="340.8,216.4 331.5,211 335.9,207.3 345.2,212.7 				"/>
			</g>
			<g>
				<polygon class="st1" points="335.8,217 326.4,211.5 331.5,211 340.8,216.4 				"/>
			</g>
			<g>
				<polygon class="st1" points="332.8,222.1 323.5,216.6 320.2,208.9 329.6,214.2 				"/>
			</g>
			<g>
				<polygon class="st1" points="329.6,214.2 320.2,208.9 320.1,177.9 329.5,183.2 				"/>
			</g>
			<g>
				<polygon class="st1" points="315.6,186.9 306.3,181.5 324,171.3 333.3,176.7 				"/>
			</g>
			<g>
				<polygon class="st1" points="315.6,191.3 306.3,185.9 306.3,181.5 315.6,186.9 				"/>
			</g>
			<g>
				<polygon class="st1" points="349.1,206.8 351.5,208.8 347,215.8 340.5,221.1 332.8,222.1 329.6,214.2 329.5,183.2 315.6,191.3 
					315.6,186.9 333.3,176.7 333.4,211.2 335.8,217 340.8,216.4 345.2,212.7 				"/>
			</g>
		</g>
		<g class="st0">
			<g>
				<polygon class="st1" points="332.1,159.8 322.7,154.3 324.4,154.4 333.7,159.9 				"/>
			</g>
			<g>
				<polygon class="st1" points="329,166.5 319.6,161 319.1,159.6 328.3,164.9 				"/>
			</g>
			<g>
				<polygon class="st1" points="330.4,160.7 321,155.2 322.7,154.3 332.1,159.8 				"/>
			</g>
			<g>
				<polygon class="st1" points="330.4,167 329,166.5 328.3,164.9 329,162.6 330.4,160.7 332.1,159.8 333.7,159.9 334.2,161.7 
					333.7,163.8 332.1,166 				"/>
			</g>
			<g>
				<polygon class="st1" points="328.3,164.9 319.1,159.6 319.6,157.2 329,162.6 				"/>
			</g>
			<g>
				<polygon class="st1" points="329,162.6 319.6,157.2 321,155.2 330.4,160.7 				"/>
			</g>
		</g>
	</g>
</g>
<g id="font_4_">
	<g>
		<g class="st0">
			<g>
				<polygon class="st1" points="277,379.4 267.7,374 270.8,368.3 280.2,373.7 				"/>
			</g>
			<g>
				<polygon class="st1" points="280.2,373.7 270.8,368.3 273.7,369.8 283,375.2 				"/>
			</g>
			<g>
				<polygon class="st1" points="273.8,384 264.5,378.6 267.7,374 277,379.4 				"/>
			</g>
			<g>
				<polygon class="st1" points="269.2,387.6 260,382.3 264.5,378.6 273.8,384 				"/>
			</g>
			<g>
				<polygon class="st1" points="265.2,389 255.8,383.5 260,382.3 269.2,387.6 				"/>
			</g>
			<g>
				<polygon class="st1" points="261.3,387.8 251.9,382.4 255.8,383.5 265.2,389 				"/>
			</g>
			<g>
				<polygon class="st1" points="257.8,392.5 248.5,387.1 245.9,378.9 255.2,384.3 				"/>
			</g>
			<g>
				<polygon class="st1" points="255.2,384.3 245.9,378.9 245.8,347.8 255.1,353.2 				"/>
			</g>
			<g>
				<polygon class="st1" points="258.9,346.5 249.6,341.2 262.2,333.8 271.6,339.2 				"/>
			</g>
			<g>
				<polygon class="st1" points="246.7,358 237.4,352.6 237.4,348.1 246.7,353.6 				"/>
			</g>
			<g>
				<polygon class="st1" points="246.7,353.6 237.4,348.1 245.7,343.4 255.1,348.7 				"/>
			</g>
			<g>
				<polygon class="st1" points="255.1,337.2 245.7,331.7 249.6,329.5 258.8,335 				"/>
			</g>
			<g>
				<polygon class="st1" points="255.1,348.7 245.7,343.4 245.7,331.7 255.1,337.2 				"/>
			</g>
			<g>
				<polygon class="st1" points="258.8,335 258.9,346.5 271.6,339.2 271.6,343.6 258.9,350.9 259,381.4 261.3,387.8 265.2,389 
					269.2,387.6 273.8,384 277,379.4 280.2,373.7 283,375.2 279.4,381.5 275.5,387.3 269.4,392.2 263.6,394.2 257.8,392.5 
					255.2,384.3 255.1,353.2 246.7,358 246.7,353.6 255.1,348.7 255.1,337.2 				"/>
			</g>
		</g>
		<g class="st0">
			<g>
				<polygon class="st1" points="237.1,409 227.7,403.5 227.7,373.3 237,378.8 				"/>
			</g>
			<g>
				<polygon class="st1" points="237,378.8 227.7,373.3 226.9,367.9 236.2,373.3 				"/>
			</g>
			<g>
				<polygon class="st1" points="236.2,373.3 226.9,367.9 224.4,365 233.8,370.5 				"/>
			</g>
			<g>
				<polygon class="st1" points="230.7,365.3 221.3,359.9 227,360.2 236.3,365.6 				"/>
			</g>
			<g>
				<polygon class="st1" points="223.8,368.3 214.4,362.9 221.3,359.9 230.7,365.3 				"/>
			</g>
			<g>
				<polygon class="st1" points="214.9,377.1 205.6,371.8 214.4,362.9 223.8,368.3 				"/>
			</g>
			<g>
				<polygon class="st1" points="211.5,384 202.2,378.6 205.6,371.8 214.9,377.1 				"/>
			</g>
			<g>
				<polygon class="st1" points="207.8,426 198.4,420.6 198.3,379.9 207.7,385.2 				"/>
			</g>
			<g>
				<polygon class="st1" points="207.7,385.2 198.3,379.9 195.2,377.7 204.6,383 				"/>
			</g>
			<g>
				<polygon class="st1" points="204.6,383 195.2,377.7 198.3,373 207.6,378.4 				"/>
			</g>
			<g>
				<polygon class="st1" points="223.8,368.3 230.7,365.3 236.3,365.6 240,369.5 240.8,376.3 240.9,406.8 237.1,409 237,378.8 
					236.2,373.3 233.8,370.5 229.5,370.3 224.3,372.6 217.4,379.6 211.6,391.1 211.7,423.8 207.8,426 207.7,385.2 204.6,383 
					207.6,378.4 211.5,381.3 211.5,384 214.9,377.1 				"/>
			</g>
		</g>
		<g class="st0">
			<g>
				<polygon class="st1" points="189.7,431.6 180.4,426.1 184.1,420.3 193.5,425.7 				"/>
			</g>
			<g>
				<polygon class="st1" points="185.3,435.3 176,429.9 180.4,426.1 189.7,431.6 				"/>
			</g>
			<g>
				<polygon class="st1" points="180.2,435.9 170.9,430.5 176,429.9 185.3,435.3 				"/>
			</g>
			<g>
				<polygon class="st1" points="177.3,441 168,435.6 164.8,427.7 174.1,433.2 				"/>
			</g>
			<g>
				<polygon class="st1" points="174.1,433.2 164.8,427.7 164.7,396.7 174,402.2 				"/>
			</g>
			<g>
				<polygon class="st1" points="160.1,405.9 150.7,400.5 168.5,390.2 177.9,395.7 				"/>
			</g>
			<g>
				<polygon class="st1" points="160.1,410.3 150.8,404.8 150.7,400.5 160.1,405.9 				"/>
			</g>
			<g>
				<polygon class="st1" points="193.5,425.7 196,427.7 191.5,434.7 185,440 177.3,441 174.1,433.2 174,402.2 160.1,410.3 
					160.1,405.9 177.9,395.7 177.9,430.1 180.2,435.9 185.3,435.3 189.7,431.6 				"/>
			</g>
		</g>
		<g class="st0">
			<g>
				<polygon class="st1" points="149.1,425.5 139.7,420 137.9,416.1 147.3,421.6 				"/>
			</g>
			<g>
				<polygon class="st1" points="145.8,415.4 136.4,409.9 141.1,411.6 150.4,417.1 				"/>
			</g>
			<g>
				<polygon class="st1" points="140.1,417.1 130.8,411.6 136.4,409.9 145.8,415.4 				"/>
			</g>
			<g>
				<polygon class="st1" points="123.4,439.2 114,433.8 114.2,433.7 123.5,439.1 				"/>
			</g>
			<g>
				<polygon class="st1" points="134.2,420.7 124.9,415.2 130.8,411.6 140.1,417.1 				"/>
			</g>
			<g>
				<polygon class="st1" points="123.5,439.1 114.2,433.7 115.3,429.5 124.7,434.9 				"/>
			</g>
			<g>
				<polygon class="st1" points="124.7,434.9 115.3,429.5 116.9,425.5 126.2,430.9 				"/>
			</g>
			<g>
				<polygon class="st1" points="126.2,430.9 116.9,425.5 124.9,415.2 134.2,420.7 				"/>
			</g>
			<g>
				<polygon class="st1" points="120.2,476.9 111,471.6 110.8,430 120.1,435.4 				"/>
			</g>
			<g>
				<polygon class="st1" points="118.2,429.9 108.9,424.4 114.7,425.4 124,430.8 				"/>
			</g>
			<g>
				<polygon class="st1" points="116.2,434.8 106.9,429.3 108.9,424.4 118.2,429.9 				"/>
			</g>
			<g>
				<polygon class="st1" points="140.1,417.1 145.8,415.4 150.4,417.1 152.5,422 149.1,425.5 147.3,421.6 144,420.4 139.7,421.6 
					135.4,424.3 129,432.6 124,444.6 124.1,474.7 120.2,476.9 120.1,435.4 116.2,434.8 118.2,429.9 124,430.8 124,435.1 
					123.4,439.2 123.5,439.1 124.7,434.9 126.2,430.9 134.2,420.7 				"/>
			</g>
		</g>
		<g class="st0">
			<g>
				<polygon class="st1" points="97.3,456.7 87.9,451.3 92.2,445.8 101.5,451.3 				"/>
			</g>
			<g>
				<polygon class="st1" points="101.5,451.3 92.2,445.8 94.3,440.1 103.6,445.6 				"/>
			</g>
			<g>
				<polygon class="st1" points="103.6,445.6 94.3,440.1 95.1,434.5 104.4,439.9 				"/>
			</g>
			<g>
				<polygon class="st1" points="91.7,461.4 82.4,456 87.9,451.3 97.3,456.7 				"/>
			</g>
			<g>
				<polygon class="st1" points="104.4,439.9 95.1,434.5 93.8,429.2 103.2,434.5 				"/>
			</g>
			<g>
				<polygon class="st1" points="103.2,434.5 93.8,429.2 90.8,426.1 100.1,431.6 				"/>
			</g>
			<g>
				<polygon class="st1" points="76,470.5 66.6,465 82.4,456 91.7,461.4 				"/>
			</g>
			<g>
				<polygon class="st1" points="97.2,426.6 87.8,421.1 93.3,421.2 102.6,426.7 				"/>
			</g>
			<g>
				<polygon class="st1" points="91.1,429.2 81.8,423.7 87.8,421.1 97.2,426.6 				"/>
			</g>
			<g>
				<path class="st1" d="M106.7,430.7l1.6,6.9l-1.1,7.3l-3,8l-5.6,7.1l-6.5,5.6L76,474.9l0.1,27.6l-3.9,2.2l-0.2-64.5l19.1-11l6-2.6
					l5.5,0.1L106.7,430.7z M103.6,445.6l0.8-5.6l-1.2-5.4l-3.1-2.9H96l-5.2,2.2l-14.9,8.6l0.1,28.1l15.7-9.1l5.6-4.7l4.3-5.4
					L103.6,445.6"/>
			</g>
			<g>
				<polygon class="st1" points="72,440.2 62.7,434.7 81.8,423.7 91.1,429.2 				"/>
			</g>
			<g>
				<polygon class="st1" points="72.2,504.7 62.9,499.3 62.7,434.7 72,440.2 				"/>
			</g>
		</g>
		<g class="st0">
			<g>
				<polygon class="st1" points="176.6,378.6 167.2,373.2 168.8,373.4 178.2,378.8 				"/>
			</g>
			<g>
				<polygon class="st1" points="173.4,385.4 164.1,380.1 163.5,378.4 172.9,383.9 				"/>
			</g>
			<g>
				<polygon class="st1" points="174.8,379.6 165.6,374.2 167.2,373.2 176.6,378.6 				"/>
			</g>
			<g>
				<polygon class="st1" points="174.9,385.9 173.4,385.4 172.9,383.9 173.4,381.5 174.8,379.6 176.6,378.6 178.2,378.8 
					178.6,380.6 178.2,382.7 176.6,384.9 				"/>
			</g>
			<g>
				<polygon class="st1" points="172.9,383.9 163.5,378.4 164.1,376.2 173.4,381.5 				"/>
			</g>
			<g>
				<polygon class="st1" points="173.4,381.5 164.1,376.2 165.6,374.2 174.8,379.6 				"/>
			</g>
		</g>
		<g class="st0">
			<g>
				<polygon class="st1" points="307.7,336 307.7,340.4 291,350.1 291,345.7 				"/>
			</g>
			<g>
				<polygon class="st1" points="291,350.1 281.7,344.6 281.7,340.2 291,345.7 				"/>
			</g>
			<g>
				<polygon class="st1" points="291,345.7 281.7,340.2 298.3,330.5 307.7,336 				"/>
			</g>
		</g>
		<g class="st0">
			<g>
				<polygon class="st1" points="388.7,314.5 379.4,309.1 382.6,303.4 391.9,308.8 				"/>
			</g>
			<g>
				<polygon class="st1" points="391.9,308.8 382.6,303.4 385.4,304.9 394.7,310.4 				"/>
			</g>
			<g>
				<polygon class="st1" points="385.5,319.2 376.2,313.7 379.4,309.1 388.7,314.5 				"/>
			</g>
			<g>
				<polygon class="st1" points="381,322.7 371.8,317.3 376.2,313.7 385.5,319.2 				"/>
			</g>
			<g>
				<polygon class="st1" points="376.9,324.1 367.6,318.7 371.8,317.3 381,322.7 				"/>
			</g>
			<g>
				<polygon class="st1" points="372.9,322.9 363.6,317.5 367.6,318.7 376.9,324.1 				"/>
			</g>
			<g>
				<polygon class="st1" points="369.5,327.7 360.2,322.2 357.5,313.9 366.9,319.4 				"/>
			</g>
			<g>
				<polygon class="st1" points="366.9,319.4 357.5,313.9 357.4,282.9 366.8,288.4 				"/>
			</g>
			<g>
				<polygon class="st1" points="370.7,281.6 361.3,276.2 374,268.9 383.3,274.4 				"/>
			</g>
			<g>
				<polygon class="st1" points="358.5,293.1 349.1,287.7 349.1,283.3 358.4,288.7 				"/>
			</g>
			<g>
				<polygon class="st1" points="358.4,288.7 349.1,283.3 357.4,278.5 366.8,283.9 				"/>
			</g>
			<g>
				<polygon class="st1" points="366.8,272.3 357.4,266.9 361.2,264.6 370.6,270.1 				"/>
			</g>
			<g>
				<polygon class="st1" points="366.8,283.9 357.4,278.5 357.4,266.9 366.8,272.3 				"/>
			</g>
			<g>
				<polygon class="st1" points="370.6,270.1 370.7,281.6 383.3,274.4 383.3,278.8 370.7,286.1 370.8,316.5 372.9,322.9 
					376.9,324.1 381,322.7 385.5,319.2 388.7,314.5 391.9,308.8 394.7,310.4 391.2,316.6 387.1,322.3 381,327.4 375.3,329.3 
					369.5,327.7 366.9,319.4 366.8,288.4 358.5,293.1 358.4,288.7 366.8,283.9 366.8,272.3 				"/>
			</g>
		</g>
		<g class="st0">
			<g>
				<polygon class="st1" points="345.2,342.2 335.9,336.9 339.7,330.9 349.1,336.4 				"/>
			</g>
			<g>
				<polygon class="st1" points="340.8,346 331.5,340.5 335.9,336.9 345.2,342.2 				"/>
			</g>
			<g>
				<polygon class="st1" points="335.8,346.5 326.4,341.1 331.5,340.5 340.8,346 				"/>
			</g>
			<g>
				<polygon class="st1" points="332.8,351.7 323.5,346.2 320.2,338.4 329.6,343.8 				"/>
			</g>
			<g>
				<polygon class="st1" points="329.6,343.8 320.2,338.4 320.1,307.4 329.5,312.8 				"/>
			</g>
			<g>
				<polygon class="st1" points="315.6,316.5 306.3,311.1 324,300.9 333.3,306.3 				"/>
			</g>
			<g>
				<polygon class="st1" points="315.6,320.9 306.3,315.5 306.3,311.1 315.6,316.5 				"/>
			</g>
			<g>
				<polygon class="st1" points="349.1,336.4 351.5,338.3 347,345.4 340.5,350.7 332.8,351.7 329.6,343.8 329.5,312.8 315.6,320.9 
					315.6,316.5 333.3,306.3 333.4,340.7 335.8,346.5 340.8,346 345.2,342.2 				"/>
			</g>
		</g>
		<g class="st0">
			<g>
				<polygon class="st1" points="332.1,289.3 322.7,283.9 324.4,284 333.7,289.5 				"/>
			</g>
			<g>
				<polygon class="st1" points="329,296.1 319.6,290.6 319.1,289.1 328.3,294.5 				"/>
			</g>
			<g>
				<polygon class="st1" points="330.4,290.3 321,284.8 322.7,283.9 332.1,289.3 				"/>
			</g>
			<g>
				<polygon class="st1" points="330.4,296.6 329,296.1 328.3,294.5 329,292.2 330.4,290.3 332.1,289.3 333.7,289.5 334.2,291.2 
					333.7,293.4 332.1,295.6 				"/>
			</g>
			<g>
				<polygon class="st1" points="328.3,294.5 319.1,289.1 319.6,286.8 329,292.2 				"/>
			</g>
			<g>
				<polygon class="st1" points="329,292.2 319.6,286.8 321,284.8 330.4,290.3 				"/>
			</g>
		</g>
	</g>
</g>
<g id="font_5_">
	<g>
		<g class="st0">
			<g>
				<polygon class="st1" points="277,509 267.7,503.6 270.8,497.8 280.2,503.2 				"/>
			</g>
			<g>
				<polygon class="st1" points="280.2,503.2 270.8,497.8 273.7,499.4 283,504.8 				"/>
			</g>
			<g>
				<polygon class="st1" points="273.8,513.6 264.5,508.2 267.7,503.6 277,509 				"/>
			</g>
			<g>
				<polygon class="st1" points="269.2,517.2 260,511.8 264.5,508.2 273.8,513.6 				"/>
			</g>
			<g>
				<polygon class="st1" points="265.2,518.6 255.8,513.1 260,511.8 269.2,517.2 				"/>
			</g>
			<g>
				<polygon class="st1" points="261.3,517.4 251.9,512 255.8,513.1 265.2,518.6 				"/>
			</g>
			<g>
				<polygon class="st1" points="257.8,522.1 248.5,516.7 245.9,508.5 255.2,513.8 				"/>
			</g>
			<g>
				<polygon class="st1" points="255.2,513.8 245.9,508.5 245.8,477.3 255.1,482.8 				"/>
			</g>
			<g>
				<polygon class="st1" points="258.9,476.1 249.6,470.7 262.2,463.4 271.6,468.8 				"/>
			</g>
			<g>
				<polygon class="st1" points="246.7,487.6 237.4,482.2 237.4,477.7 246.7,483.2 				"/>
			</g>
			<g>
				<polygon class="st1" points="246.7,483.2 237.4,477.7 245.7,472.9 255.1,478.3 				"/>
			</g>
			<g>
				<polygon class="st1" points="255.1,466.8 245.7,461.3 249.6,459.1 258.8,464.6 				"/>
			</g>
			<g>
				<polygon class="st1" points="255.1,478.3 245.7,472.9 245.7,461.3 255.1,466.8 				"/>
			</g>
			<g>
				<polygon class="st1" points="258.8,464.6 258.9,476.1 271.6,468.8 271.6,473.2 258.9,480.5 259,511 261.3,517.4 265.2,518.6 
					269.2,517.2 273.8,513.6 277,509 280.2,503.2 283,504.8 279.4,511.1 275.5,516.9 269.4,521.8 263.6,523.7 257.8,522.1 
					255.2,513.8 255.1,482.8 246.7,487.6 246.7,483.2 255.1,478.3 255.1,466.8 				"/>
			</g>
		</g>
		<g class="st0">
			<g>
				<polygon class="st1" points="237.1,538.6 227.7,533.1 227.7,502.9 237,508.4 				"/>
			</g>
			<g>
				<polygon class="st1" points="237,508.4 227.7,502.9 226.9,497.4 236.2,502.9 				"/>
			</g>
			<g>
				<polygon class="st1" points="236.2,502.9 226.9,497.4 224.4,494.6 233.8,500.1 				"/>
			</g>
			<g>
				<polygon class="st1" points="230.7,494.9 221.3,489.5 227,489.7 236.3,495.1 				"/>
			</g>
			<g>
				<polygon class="st1" points="223.8,497.8 214.4,492.5 221.3,489.5 230.7,494.9 				"/>
			</g>
			<g>
				<polygon class="st1" points="214.9,506.7 205.6,501.3 214.4,492.5 223.8,497.8 				"/>
			</g>
			<g>
				<polygon class="st1" points="211.5,513.6 202.2,508.2 205.6,501.3 214.9,506.7 				"/>
			</g>
			<g>
				<polygon class="st1" points="207.8,555.6 198.4,550.2 198.3,509.4 207.7,514.8 				"/>
			</g>
			<g>
				<polygon class="st1" points="207.7,514.8 198.3,509.4 195.2,507.2 204.6,512.6 				"/>
			</g>
			<g>
				<polygon class="st1" points="204.6,512.6 195.2,507.2 198.3,502.6 207.6,507.9 				"/>
			</g>
			<g>
				<polygon class="st1" points="223.8,497.8 230.7,494.9 236.3,495.1 240,499 240.8,505.9 240.9,536.4 237.1,538.6 237,508.4 
					236.2,502.9 233.8,500.1 229.5,499.9 224.3,502.2 217.4,509.2 211.6,520.7 211.7,553.4 207.8,555.6 207.7,514.8 204.6,512.6 
					207.6,507.9 211.5,510.9 211.5,513.6 214.9,506.7 				"/>
			</g>
		</g>
		<g class="st0">
			<g>
				<polygon class="st1" points="189.7,561.2 180.4,555.7 184.1,549.9 193.5,555.3 				"/>
			</g>
			<g>
				<polygon class="st1" points="185.3,564.9 176,559.5 180.4,555.7 189.7,561.2 				"/>
			</g>
			<g>
				<polygon class="st1" points="180.2,565.5 170.9,560.1 176,559.5 185.3,564.9 				"/>
			</g>
			<g>
				<polygon class="st1" points="177.3,570.6 168,565.2 164.8,557.3 174.1,562.8 				"/>
			</g>
			<g>
				<polygon class="st1" points="174.1,562.8 164.8,557.3 164.7,526.3 174,531.8 				"/>
			</g>
			<g>
				<polygon class="st1" points="160.1,535.5 150.7,530 168.5,519.8 177.9,525.3 				"/>
			</g>
			<g>
				<polygon class="st1" points="160.1,539.8 150.8,534.3 150.7,530 160.1,535.5 				"/>
			</g>
			<g>
				<polygon class="st1" points="193.5,555.3 196,557.3 191.5,564.3 185,569.6 177.3,570.6 174.1,562.8 174,531.8 160.1,539.8 
					160.1,535.5 177.9,525.3 177.9,559.7 180.2,565.5 185.3,564.9 189.7,561.2 				"/>
			</g>
		</g>
		<g class="st0">
			<g>
				<polygon class="st1" points="149.1,555.1 139.7,549.6 137.9,545.7 147.3,551.2 				"/>
			</g>
			<g>
				<polygon class="st1" points="145.8,545 136.4,539.5 141.1,541.2 150.4,546.6 				"/>
			</g>
			<g>
				<polygon class="st1" points="140.1,546.6 130.8,541.2 136.4,539.5 145.8,545 				"/>
			</g>
			<g>
				<polygon class="st1" points="123.4,568.8 114,563.4 114.2,563.3 123.5,568.7 				"/>
			</g>
			<g>
				<polygon class="st1" points="134.2,550.2 124.9,544.7 130.8,541.2 140.1,546.6 				"/>
			</g>
			<g>
				<polygon class="st1" points="123.5,568.7 114.2,563.3 115.3,559.1 124.7,564.5 				"/>
			</g>
			<g>
				<polygon class="st1" points="124.7,564.5 115.3,559.1 116.9,555.1 126.2,560.5 				"/>
			</g>
			<g>
				<polygon class="st1" points="126.2,560.5 116.9,555.1 124.9,544.7 134.2,550.2 				"/>
			</g>
			<g>
				<polygon class="st1" points="120.2,606.5 111,601.1 110.8,559.6 120.1,565 				"/>
			</g>
			<g>
				<polygon class="st1" points="118.2,559.5 108.9,554 114.7,554.9 124,560.3 				"/>
			</g>
			<g>
				<polygon class="st1" points="116.2,564.4 106.9,558.9 108.9,554 118.2,559.5 				"/>
			</g>
			<g>
				<polygon class="st1" points="140.1,546.6 145.8,545 150.4,546.6 152.5,551.6 149.1,555.1 147.3,551.2 144,550 139.7,551.2 
					135.4,553.9 129,562.2 124,574.2 124.1,604.3 120.2,606.5 120.1,565 116.2,564.4 118.2,559.5 124,560.3 124,564.6 123.4,568.8 
					123.5,568.7 124.7,564.5 126.2,560.5 134.2,550.2 				"/>
			</g>
		</g>
		<g class="st0">
			<g>
				<polygon class="st1" points="97.3,586.3 87.9,580.9 92.2,575.4 101.5,580.9 				"/>
			</g>
			<g>
				<polygon class="st1" points="101.5,580.9 92.2,575.4 94.3,569.7 103.6,575.1 				"/>
			</g>
			<g>
				<polygon class="st1" points="103.6,575.1 94.3,569.7 95.1,564.1 104.4,569.5 				"/>
			</g>
			<g>
				<polygon class="st1" points="91.7,591 82.4,585.6 87.9,580.9 97.3,586.3 				"/>
			</g>
			<g>
				<polygon class="st1" points="104.4,569.5 95.1,564.1 93.8,558.7 103.2,564.1 				"/>
			</g>
			<g>
				<polygon class="st1" points="103.2,564.1 93.8,558.7 90.8,555.7 100.1,561.2 				"/>
			</g>
			<g>
				<polygon class="st1" points="76,600.1 66.6,594.6 82.4,585.6 91.7,591 				"/>
			</g>
			<g>
				<polygon class="st1" points="97.2,556.2 87.8,550.7 93.3,550.8 102.6,556.2 				"/>
			</g>
			<g>
				<polygon class="st1" points="91.1,558.7 81.8,553.3 87.8,550.7 97.2,556.2 				"/>
			</g>
			<g>
				<path class="st1" d="M106.7,560.2l1.6,6.9l-1.1,7.3l-3,8l-5.6,7.1l-6.5,5.6L76,604.5l0.1,27.6l-3.9,2.2l-0.2-64.5l19.1-11l6-2.6
					l5.5,0.1L106.7,560.2z M103.6,575.1l0.8-5.6l-1.2-5.4l-3.1-2.9H96l-5.2,2.2L75.9,572l0.1,28.1l15.7-9.1l5.6-4.7l4.3-5.4
					L103.6,575.1"/>
			</g>
			<g>
				<polygon class="st1" points="72,569.8 62.7,564.3 81.8,553.3 91.1,558.7 				"/>
			</g>
			<g>
				<polygon class="st1" points="72.2,634.2 62.9,628.9 62.7,564.3 72,569.8 				"/>
			</g>
		</g>
		<g class="st0">
			<g>
				<polygon class="st1" points="176.6,508.2 167.2,502.8 168.8,503 178.2,508.4 				"/>
			</g>
			<g>
				<polygon class="st1" points="173.4,515 164.1,509.6 163.5,508 172.9,513.5 				"/>
			</g>
			<g>
				<polygon class="st1" points="174.8,509.2 165.6,503.8 167.2,502.8 176.6,508.2 				"/>
			</g>
			<g>
				<polygon class="st1" points="174.9,515.4 173.4,515 172.9,513.5 173.4,511.1 174.8,509.2 176.6,508.2 178.2,508.4 178.6,510.1 
					178.2,512.3 176.6,514.5 				"/>
			</g>
			<g>
				<polygon class="st1" points="172.9,513.5 163.5,508 164.1,505.7 173.4,511.1 				"/>
			</g>
			<g>
				<polygon class="st1" points="173.4,511.1 164.1,505.7 165.6,503.8 174.8,509.2 				"/>
			</g>
		</g>
		<g class="st0">
			<g>
				<polygon class="st1" points="307.7,465.6 307.7,470 291,479.7 291,475.2 				"/>
			</g>
			<g>
				<polygon class="st1" points="291,479.7 281.7,474.2 281.7,469.8 291,475.2 				"/>
			</g>
			<g>
				<polygon class="st1" points="291,475.2 281.7,469.8 298.3,460.1 307.7,465.6 				"/>
			</g>
		</g>
		<g class="st0">
			<g>
				<polygon class="st1" points="388.7,444.1 379.4,438.7 382.6,433 391.9,438.3 				"/>
			</g>
			<g>
				<polygon class="st1" points="391.9,438.3 382.6,433 385.4,434.4 394.7,439.9 				"/>
			</g>
			<g>
				<polygon class="st1" points="385.5,448.7 376.2,443.3 379.4,438.7 388.7,444.1 				"/>
			</g>
			<g>
				<polygon class="st1" points="381,452.3 371.8,446.9 376.2,443.3 385.5,448.7 				"/>
			</g>
			<g>
				<polygon class="st1" points="376.9,453.7 367.6,448.2 371.8,446.9 381,452.3 				"/>
			</g>
			<g>
				<polygon class="st1" points="372.9,452.4 363.6,447.1 367.6,448.2 376.9,453.7 				"/>
			</g>
			<g>
				<polygon class="st1" points="369.5,457.3 360.2,451.8 357.5,443.5 366.9,448.9 				"/>
			</g>
			<g>
				<polygon class="st1" points="366.9,448.9 357.5,443.5 357.4,412.5 366.8,417.9 				"/>
			</g>
			<g>
				<polygon class="st1" points="370.7,411.2 361.3,405.8 374,398.5 383.3,403.9 				"/>
			</g>
			<g>
				<polygon class="st1" points="358.5,422.7 349.1,417.3 349.1,412.9 358.4,418.2 				"/>
			</g>
			<g>
				<polygon class="st1" points="358.4,418.2 349.1,412.9 357.4,408 366.8,413.5 				"/>
			</g>
			<g>
				<polygon class="st1" points="366.8,401.8 357.4,396.5 361.2,394.2 370.6,399.6 				"/>
			</g>
			<g>
				<polygon class="st1" points="366.8,413.5 357.4,408 357.4,396.5 366.8,401.8 				"/>
			</g>
			<g>
				<polygon class="st1" points="370.6,399.6 370.7,411.2 383.3,403.9 383.3,408.4 370.7,415.6 370.8,446.1 372.9,452.4 
					376.9,453.7 381,452.3 385.5,448.7 388.7,444.1 391.9,438.3 394.7,439.9 391.2,446.2 387.1,451.9 381,456.9 375.3,458.8 
					369.5,457.3 366.9,448.9 366.8,417.9 358.5,422.7 358.4,418.2 366.8,413.5 366.8,401.8 				"/>
			</g>
		</g>
		<g class="st0">
			<g>
				<polygon class="st1" points="345.2,471.8 335.9,466.4 339.7,460.5 349.1,466 				"/>
			</g>
			<g>
				<polygon class="st1" points="340.8,475.6 331.5,470.1 335.9,466.4 345.2,471.8 				"/>
			</g>
			<g>
				<polygon class="st1" points="335.8,476.1 326.4,470.6 331.5,470.1 340.8,475.6 				"/>
			</g>
			<g>
				<polygon class="st1" points="332.8,481.2 323.5,475.8 320.2,468 329.6,473.4 				"/>
			</g>
			<g>
				<polygon class="st1" points="329.6,473.4 320.2,468 320.1,437 329.5,442.4 				"/>
			</g>
			<g>
				<polygon class="st1" points="315.6,446.1 306.3,440.7 324,430.4 333.3,435.8 				"/>
			</g>
			<g>
				<polygon class="st1" points="315.6,450.4 306.3,445.1 306.3,440.7 315.6,446.1 				"/>
			</g>
			<g>
				<polygon class="st1" points="349.1,466 351.5,467.9 347,475 340.5,480.3 332.8,481.2 329.6,473.4 329.5,442.4 315.6,450.4 
					315.6,446.1 333.3,435.8 333.4,470.3 335.8,476.1 340.8,475.6 345.2,471.8 				"/>
			</g>
		</g>
		<g class="st0">
			<g>
				<polygon class="st1" points="332.1,418.9 322.7,413.4 324.4,413.6 333.7,419.1 				"/>
			</g>
			<g>
				<polygon class="st1" points="329,425.7 319.6,420.2 319.1,418.7 328.3,424.1 				"/>
			</g>
			<g>
				<polygon class="st1" points="330.4,419.9 321,414.4 322.7,413.4 332.1,418.9 				"/>
			</g>
			<g>
				<polygon class="st1" points="330.4,426.1 329,425.7 328.3,424.1 329,421.8 330.4,419.9 332.1,418.9 333.7,419.1 334.2,420.8 
					333.7,423 332.1,425.2 				"/>
			</g>
			<g>
				<polygon class="st1" points="328.3,424.1 319.1,418.7 319.6,416.3 329,421.8 				"/>
			</g>
			<g>
				<polygon class="st1" points="329,421.8 319.6,416.3 321,414.4 330.4,419.9 				"/>
			</g>
		</g>
	</g>
</g>
<g id="font_6_">
	<g>
		<g class="st0">
			<g>
				<polygon class="st1" points="277,638.5 267.7,633.2 270.8,627.4 280.2,632.8 				"/>
			</g>
			<g>
				<polygon class="st1" points="280.2,632.8 270.8,627.4 273.7,629 283,634.4 				"/>
			</g>
			<g>
				<polygon class="st1" points="273.8,643.2 264.5,637.8 267.7,633.2 277,638.5 				"/>
			</g>
			<g>
				<polygon class="st1" points="269.2,646.8 260,641.4 264.5,637.8 273.8,643.2 				"/>
			</g>
			<g>
				<polygon class="st1" points="265.2,648.2 255.8,642.7 260,641.4 269.2,646.8 				"/>
			</g>
			<g>
				<polygon class="st1" points="261.3,647 251.9,641.6 255.8,642.7 265.2,648.2 				"/>
			</g>
			<g>
				<polygon class="st1" points="257.8,651.7 248.5,646.2 245.9,638 255.2,643.4 				"/>
			</g>
			<g>
				<polygon class="st1" points="255.2,643.4 245.9,638 245.8,606.9 255.1,612.4 				"/>
			</g>
			<g>
				<polygon class="st1" points="258.9,605.7 249.6,600.3 262.2,593 271.6,598.4 				"/>
			</g>
			<g>
				<polygon class="st1" points="246.7,617.2 237.4,611.8 237.4,607.3 246.7,612.8 				"/>
			</g>
			<g>
				<polygon class="st1" points="246.7,612.8 237.4,607.3 245.7,602.5 255.1,607.9 				"/>
			</g>
			<g>
				<polygon class="st1" points="255.1,596.4 245.7,590.9 249.6,588.7 258.8,594.2 				"/>
			</g>
			<g>
				<polygon class="st1" points="255.1,607.9 245.7,602.5 245.7,590.9 255.1,596.4 				"/>
			</g>
			<g>
				<polygon class="st1" points="258.8,594.2 258.9,605.7 271.6,598.4 271.6,602.8 258.9,610.1 259,640.6 261.3,647 265.2,648.2 
					269.2,646.8 273.8,643.2 277,638.5 280.2,632.8 283,634.4 279.4,640.7 275.5,646.4 269.4,651.4 263.6,653.3 257.8,651.7 
					255.2,643.4 255.1,612.4 246.7,617.2 246.7,612.8 255.1,607.9 255.1,596.4 				"/>
			</g>
		</g>
		<g class="st0">
			<g>
				<polygon class="st1" points="237.1,668.2 227.7,662.7 227.7,632.5 237,637.9 				"/>
			</g>
			<g>
				<polygon class="st1" points="237,637.9 227.7,632.5 226.9,627 236.2,632.5 				"/>
			</g>
			<g>
				<polygon class="st1" points="236.2,632.5 226.9,627 224.4,624.2 233.8,629.6 				"/>
			</g>
			<g>
				<polygon class="st1" points="230.7,624.5 221.3,619.1 227,619.3 236.3,624.7 				"/>
			</g>
			<g>
				<polygon class="st1" points="223.8,627.4 214.4,622 221.3,619.1 230.7,624.5 				"/>
			</g>
			<g>
				<polygon class="st1" points="214.9,636.3 205.6,630.9 214.4,622 223.8,627.4 				"/>
			</g>
			<g>
				<polygon class="st1" points="211.5,643.2 202.2,637.8 205.6,630.9 214.9,636.3 				"/>
			</g>
			<g>
				<polygon class="st1" points="207.8,685.1 198.4,679.8 198.3,639 207.7,644.4 				"/>
			</g>
			<g>
				<polygon class="st1" points="207.7,644.4 198.3,639 195.2,636.8 204.6,642.2 				"/>
			</g>
			<g>
				<polygon class="st1" points="204.6,642.2 195.2,636.8 198.3,632.1 207.6,637.5 				"/>
			</g>
			<g>
				<polygon class="st1" points="223.8,627.4 230.7,624.5 236.3,624.7 240,628.6 240.8,635.5 240.9,666 237.1,668.2 237,637.9 
					236.2,632.5 233.8,629.6 229.5,629.5 224.3,631.8 217.4,638.8 211.6,650.2 211.7,682.9 207.8,685.1 207.7,644.4 204.6,642.2 
					207.6,637.5 211.5,640.5 211.5,643.2 214.9,636.3 				"/>
			</g>
		</g>
		<g class="st0">
			<g>
				<polygon class="st1" points="189.7,690.8 180.4,685.3 184.1,679.4 193.5,684.9 				"/>
			</g>
			<g>
				<polygon class="st1" points="185.3,694.5 176,689.1 180.4,685.3 189.7,690.8 				"/>
			</g>
			<g>
				<polygon class="st1" points="180.2,695 170.9,689.6 176,689.1 185.3,694.5 				"/>
			</g>
			<g>
				<polygon class="st1" points="177.3,700.2 168,694.8 164.8,686.9 174.1,692.4 				"/>
			</g>
			<g>
				<polygon class="st1" points="174.1,692.4 164.8,686.9 164.7,655.9 174,661.4 				"/>
			</g>
			<g>
				<polygon class="st1" points="160.1,665 150.7,659.6 168.5,649.4 177.9,654.8 				"/>
			</g>
			<g>
				<polygon class="st1" points="160.1,669.4 150.8,663.9 150.7,659.6 160.1,665 				"/>
			</g>
			<g>
				<polygon class="st1" points="193.5,684.9 196,686.9 191.5,693.9 185,699.2 177.3,700.2 174.1,692.4 174,661.4 160.1,669.4 
					160.1,665 177.9,654.8 177.9,689.3 180.2,695 185.3,694.5 189.7,690.8 				"/>
			</g>
		</g>
		<g class="st0">
			<g>
				<polygon class="st1" points="149.1,684.7 139.7,679.2 137.9,675.3 147.3,680.7 				"/>
			</g>
			<g>
				<polygon class="st1" points="145.8,674.5 136.4,669 141.1,670.8 150.4,676.2 				"/>
			</g>
			<g>
				<polygon class="st1" points="140.1,676.2 130.8,670.7 136.4,669 145.8,674.5 				"/>
			</g>
			<g>
				<polygon class="st1" points="123.4,698.4 114,693 114.2,692.9 123.5,698.3 				"/>
			</g>
			<g>
				<polygon class="st1" points="134.2,679.8 124.9,674.3 130.8,670.7 140.1,676.2 				"/>
			</g>
			<g>
				<polygon class="st1" points="123.5,698.3 114.2,692.9 115.3,688.7 124.7,694.1 				"/>
			</g>
			<g>
				<polygon class="st1" points="124.7,694.1 115.3,688.7 116.9,684.7 126.2,690.1 				"/>
			</g>
			<g>
				<polygon class="st1" points="126.2,690.1 116.9,684.7 124.9,674.3 134.2,679.8 				"/>
			</g>
			<g>
				<polygon class="st1" points="120.2,736.1 111,730.7 110.8,689.2 120.1,694.6 				"/>
			</g>
			<g>
				<polygon class="st1" points="118.2,689.1 108.9,683.6 114.7,684.5 124,689.9 				"/>
			</g>
			<g>
				<polygon class="st1" points="116.2,694 106.9,688.5 108.9,683.6 118.2,689.1 				"/>
			</g>
			<g>
				<polygon class="st1" points="140.1,676.2 145.8,674.5 150.4,676.2 152.5,681.1 149.1,684.7 147.3,680.7 144,679.6 139.7,680.8 
					135.4,683.4 129,691.8 124,703.7 124.1,733.9 120.2,736.1 120.1,694.6 116.2,694 118.2,689.1 124,689.9 124,694.2 123.4,698.4 
					123.5,698.3 124.7,694.1 126.2,690.1 134.2,679.8 				"/>
			</g>
		</g>
		<g class="st0">
			<g>
				<polygon class="st1" points="97.3,715.8 87.9,710.5 92.2,705 101.5,710.5 				"/>
			</g>
			<g>
				<polygon class="st1" points="101.5,710.5 92.2,705 94.3,699.2 103.6,704.7 				"/>
			</g>
			<g>
				<polygon class="st1" points="103.6,704.7 94.3,699.2 95.1,693.7 104.4,699.1 				"/>
			</g>
			<g>
				<polygon class="st1" points="91.7,720.6 82.4,715.2 87.9,710.5 97.3,715.8 				"/>
			</g>
			<g>
				<polygon class="st1" points="104.4,699.1 95.1,693.7 93.8,688.3 103.2,693.7 				"/>
			</g>
			<g>
				<polygon class="st1" points="103.2,693.7 93.8,688.3 90.8,685.3 100.1,690.8 				"/>
			</g>
			<g>
				<polygon class="st1" points="76,729.6 66.6,724.1 82.4,715.2 91.7,720.6 				"/>
			</g>
			<g>
				<polygon class="st1" points="97.2,685.8 87.8,680.3 93.3,680.4 102.6,685.8 				"/>
			</g>
			<g>
				<polygon class="st1" points="91.1,688.3 81.8,682.8 87.8,680.3 97.2,685.8 				"/>
			</g>
			<g>
				<path class="st1" d="M106.7,689.8l1.6,6.9l-1.1,7.3l-3,8l-5.6,7.1l-6.5,5.6L76,734.1l0.1,27.6l-3.9,2.2l-0.2-64.5l19.1-11l6-2.6
					l5.5,0.1L106.7,689.8z M103.6,704.7l0.8-5.6l-1.2-5.4l-3.1-2.9H96l-5.2,2.2l-14.9,8.6l0.1,28.1l15.7-9.1l5.6-4.7l4.3-5.4
					L103.6,704.7"/>
			</g>
			<g>
				<polygon class="st1" points="72,699.3 62.7,693.9 81.8,682.8 91.1,688.3 				"/>
			</g>
			<g>
				<polygon class="st1" points="72.2,763.8 62.9,758.4 62.7,693.9 72,699.3 				"/>
			</g>
		</g>
		<g class="st0">
			<g>
				<polygon class="st1" points="176.6,637.8 167.2,632.4 168.8,632.5 178.2,637.9 				"/>
			</g>
			<g>
				<polygon class="st1" points="173.4,644.6 164.1,639.2 163.5,637.6 172.9,643.1 				"/>
			</g>
			<g>
				<polygon class="st1" points="174.8,638.8 165.6,633.4 167.2,632.4 176.6,637.8 				"/>
			</g>
			<g>
				<polygon class="st1" points="174.9,645 173.4,644.6 172.9,643.1 173.4,640.7 174.8,638.8 176.6,637.8 178.2,637.9 178.6,639.7 
					178.2,641.8 176.6,644 				"/>
			</g>
			<g>
				<polygon class="st1" points="172.9,643.1 163.5,637.6 164.1,635.3 173.4,640.7 				"/>
			</g>
			<g>
				<polygon class="st1" points="173.4,640.7 164.1,635.3 165.6,633.4 174.8,638.8 				"/>
			</g>
		</g>
		<g class="st0">
			<g>
				<polygon class="st1" points="307.7,595.2 307.7,599.6 291,609.2 291,604.8 				"/>
			</g>
			<g>
				<polygon class="st1" points="291,609.2 281.7,603.7 281.7,599.3 291,604.8 				"/>
			</g>
			<g>
				<polygon class="st1" points="291,604.8 281.7,599.3 298.3,589.7 307.7,595.2 				"/>
			</g>
		</g>
		<g class="st0">
			<g>
				<polygon class="st1" points="388.7,573.7 379.4,568.3 382.6,562.5 391.9,567.9 				"/>
			</g>
			<g>
				<polygon class="st1" points="391.9,567.9 382.6,562.5 385.4,564 394.7,569.5 				"/>
			</g>
			<g>
				<polygon class="st1" points="385.5,578.3 376.2,572.8 379.4,568.3 388.7,573.7 				"/>
			</g>
			<g>
				<polygon class="st1" points="381,581.9 371.8,576.5 376.2,572.8 385.5,578.3 				"/>
			</g>
			<g>
				<polygon class="st1" points="376.9,583.3 367.6,577.8 371.8,576.5 381,581.9 				"/>
			</g>
			<g>
				<polygon class="st1" points="372.9,582 363.6,576.6 367.6,577.8 376.9,583.3 				"/>
			</g>
			<g>
				<polygon class="st1" points="369.5,586.8 360.2,581.3 357.5,573.1 366.9,578.5 				"/>
			</g>
			<g>
				<polygon class="st1" points="366.9,578.5 357.5,573.1 357.4,542 366.8,547.5 				"/>
			</g>
			<g>
				<polygon class="st1" points="370.7,540.8 361.3,535.4 374,528 383.3,533.5 				"/>
			</g>
			<g>
				<polygon class="st1" points="358.5,552.3 349.1,546.9 349.1,542.4 358.4,547.8 				"/>
			</g>
			<g>
				<polygon class="st1" points="358.4,547.8 349.1,542.4 357.4,537.6 366.8,543.1 				"/>
			</g>
			<g>
				<polygon class="st1" points="366.8,531.4 357.4,526 361.2,523.7 370.6,529.2 				"/>
			</g>
			<g>
				<polygon class="st1" points="366.8,543.1 357.4,537.6 357.4,526 366.8,531.4 				"/>
			</g>
			<g>
				<polygon class="st1" points="370.6,529.2 370.7,540.8 383.3,533.5 383.3,537.9 370.7,545.2 370.8,575.7 372.9,582 376.9,583.3 
					381,581.9 385.5,578.3 388.7,573.7 391.9,567.9 394.7,569.5 391.2,575.8 387.1,581.5 381,586.5 375.3,588.4 369.5,586.8 
					366.9,578.5 366.8,547.5 358.5,552.3 358.4,547.8 366.8,543.1 366.8,531.4 				"/>
			</g>
		</g>
		<g class="st0">
			<g>
				<polygon class="st1" points="345.2,601.4 335.9,596 339.7,590.1 349.1,595.5 				"/>
			</g>
			<g>
				<polygon class="st1" points="340.8,605.2 331.5,599.7 335.9,596 345.2,601.4 				"/>
			</g>
			<g>
				<polygon class="st1" points="335.8,605.7 326.4,600.2 331.5,599.7 340.8,605.2 				"/>
			</g>
			<g>
				<polygon class="st1" points="332.8,610.8 323.5,605.3 320.2,597.6 329.6,603 				"/>
			</g>
			<g>
				<polygon class="st1" points="329.6,603 320.2,597.6 320.1,566.6 329.5,572 				"/>
			</g>
			<g>
				<polygon class="st1" points="315.6,575.7 306.3,570.3 324,560 333.3,565.4 				"/>
			</g>
			<g>
				<polygon class="st1" points="315.6,580 306.3,574.6 306.3,570.3 315.6,575.7 				"/>
			</g>
			<g>
				<polygon class="st1" points="349.1,595.5 351.5,597.5 347,604.6 340.5,609.8 332.8,610.8 329.6,603 329.5,572 315.6,580 
					315.6,575.7 333.3,565.4 333.4,599.9 335.8,605.7 340.8,605.2 345.2,601.4 				"/>
			</g>
		</g>
		<g class="st0">
			<g>
				<polygon class="st1" points="332.1,548.5 322.7,543 324.4,543.2 333.7,548.6 				"/>
			</g>
			<g>
				<polygon class="st1" points="329,555.3 319.6,549.8 319.1,548.3 328.3,553.7 				"/>
			</g>
			<g>
				<polygon class="st1" points="330.4,549.5 321,544 322.7,543 332.1,548.5 				"/>
			</g>
			<g>
				<polygon class="st1" points="330.4,555.7 329,555.3 328.3,553.7 329,551.4 330.4,549.5 332.1,548.5 333.7,548.6 334.2,550.4 
					333.7,552.5 332.1,554.7 				"/>
			</g>
			<g>
				<polygon class="st1" points="328.3,553.7 319.1,548.3 319.6,545.9 329,551.4 				"/>
			</g>
			<g>
				<polygon class="st1" points="329,551.4 319.6,545.9 321,544 330.4,549.5 				"/>
			</g>
		</g>
	</g>
</g>
<g id="bulle_4_">
	<g>
		<g>
			<polygon class="st1" points="389.8,510.3 364.1,507.5 371.2,528 339.6,520.9 336.2,538.7 314.8,523.6 312.1,553.9 288.6,525.3 
				279.2,552 267.9,525.3 232,540.9 239.6,510.3 207.7,509.7 220.9,492 192.2,477.4 224.3,462.5 212.3,442.4 238.7,449.3 
				229.8,423.5 265,430.7 272.3,398.3 290.4,429.4 311.4,413 324.9,434.4 354.6,411.2 355.6,439.3 385.2,437.3 365,463.7 
				389.6,476.7 368.1,489.3 			"/>
		</g>
	</g>
</g>
<text transform="matrix(1 0 0 1 229.1922 476.8123)" class="st2 st3 st4"> la dcouverte </text>
<text transform="matrix(1 0 0 1 251.8636 496.9256)" class="st2 st3 st4">dInternet</text>
<g>
	<rect x="18.3" y="287.5" class="st5" width="9.7" height="37.3"/>
	<g>
		<polyline class="st6" points="28,323.8 28,324.8 27,324.8 		"/>
		<line class="st7" x1="25.9" y1="324.8" x2="19.8" y2="324.8"/>
		<polyline class="st6" points="19.3,324.8 18.3,324.8 18.3,323.8 		"/>
		<line class="st8" x1="18.3" y1="322.8" x2="18.3" y2="289"/>
		<polyline class="st6" points="18.3,288.5 18.3,287.5 19.3,287.5 		"/>
		<line class="st7" x1="20.4" y1="287.5" x2="26.4" y2="287.5"/>
		<polyline class="st6" points="27,287.5 28,287.5 28,288.5 		"/>
		<line class="st8" x1="28" y1="289.5" x2="28" y2="323.3"/>
	</g>
</g>
<path id="SVGID_x5F_1_x5F__1_" class="st9" d="M-35.5,326.4v-43.5"/>
<text><textPath  xlink:href="#SVGID_x5F_1_x5F__1_" startOffset="19.6289%">
<tspan  class="st3" style="font-size:6px;">COUVERTURE</tspan></textPath>
</text>
<path id="SVGID_x5F_2_x5F_" class="st9" d="M25.4,324.8v-37.3"/>
<text><textPath  xlink:href="#SVGID_x5F_2_x5F_" startOffset="9.1797%">
<tspan  class="st3" style="font-size:6px;">COUVERTURE</tspan></textPath>
</text>
</svg>
