<?xml version="1.0" encoding="utf-8"?>
<!-- Generator: Adobe Illustrator 22.0.1, SVG Export Plug-In . SVG Version: 6.00 Build 0)  -->
<svg version="1.1" id="Layer_1" xmlns="http://www.w3.org/2000/svg" xmlns:xlink="http://www.w3.org/1999/xlink" x="0px" y="0px"
	 viewBox="0 0 420.9 595.3" style="enable-background:new 0 0 420.9 595.3;" xml:space="preserve">
<style type="text/css">
	.st0{fill:#FFFFFF;stroke:#010101;stroke-width:0.75;stroke-linejoin:round;stroke-miterlimit:10;}
	.st1{enable-background:new    ;}
	.st2{fill:#010101;}
	.st3{fill:#FFFFFF;stroke:#000000;stroke-width:0.75;stroke-linejoin:round;stroke-miterlimit:10;}
	.st4{fill:#FFFFFF;stroke:#000000;stroke-width:0.75;}
</style>
<g id="bulle_4_">
	<g>
		<g>
			<polygon class="st0" points="751.8,510.3 726.1,507.5 733.2,528 701.6,520.9 698.2,538.7 676.8,523.6 674.1,553.9 650.6,525.3 
				641.2,552 629.9,525.3 594,540.9 601.6,510.3 569.7,509.7 582.9,492 554.2,477.4 586.3,462.5 574.3,442.4 600.7,449.3 
				591.8,423.5 627,430.7 634.3,398.3 652.4,429.4 673.4,413 686.9,434.4 716.6,411.2 717.6,439.3 747.2,437.3 727,463.7 
				751.6,476.7 730.1,489.3 			"/>
		</g>
	</g>
</g>
<text transform="matrix(1 0 0 1 590.1922 476.8123)" class="st2" style="font-family:'Snap-itmono-5.3-Regular'; font-size:16.7612px;">À la découverte </text>
<text transform="matrix(1 0 0 1 613.8636 496.9256)" class="st2" style="font-family:'Snap-itmono-5.3-Regular'; font-size:16.7612px;">d՚Internet</text>
<g id="font_3_">
	<g>
		<g class="st1">
			<g>
				<polygon class="st3" points="218.4,428.1 211.5,424.1 213.8,419.9 220.8,423.9 				"/>
			</g>
			<g>
				<polygon class="st3" points="220.8,423.9 213.8,419.9 215.9,421 222.9,425 				"/>
			</g>
			<g>
				<polygon class="st3" points="216,431.5 209.1,427.5 211.5,424.1 218.4,428.1 				"/>
			</g>
			<g>
				<polygon class="st3" points="212.6,434.2 205.8,430.2 209.1,427.5 216,431.5 				"/>
			</g>
			<g>
				<polygon class="st3" points="209.6,435.3 202.7,431.2 205.8,430.2 212.6,434.2 				"/>
			</g>
			<g>
				<polygon class="st3" points="206.7,434.3 199.8,430.4 202.7,431.2 209.6,435.3 				"/>
			</g>
			<g>
				<polygon class="st3" points="204.1,437.8 197.2,433.8 195.3,427.7 202.2,431.7 				"/>
			</g>
			<g>
				<polygon class="st3" points="202.2,431.7 195.3,427.7 195.2,404.7 202.1,408.7 				"/>
			</g>
			<g>
				<polygon class="st3" points="205,403.8 198,399.8 207.4,394.3 214.3,398.3 				"/>
			</g>
			<g>
				<polygon class="st3" points="196,412.3 189,408.3 189,404.9 196,409 				"/>
			</g>
			<g>
				<polygon class="st3" points="196,409 189,404.9 195.2,401.4 202.1,405.4 				"/>
			</g>
			<g>
				<polygon class="st3" points="202.1,396.8 195.2,392.8 198,391.1 204.9,395.2 				"/>
			</g>
			<g>
				<polygon class="st3" points="202.1,405.4 195.2,401.4 195.2,392.8 202.1,396.8 				"/>
			</g>
			<g>
				<polygon class="st3" points="204.9,395.2 205,403.8 214.3,398.3 214.3,401.6 205,407 205,429.6 206.7,434.3 209.6,435.3 
					212.6,434.2 216,431.5 218.4,428.1 220.8,423.9 222.9,425 220.2,429.7 217.2,434 212.7,437.6 208.5,439.1 204.1,437.8 
					202.2,431.7 202.1,408.7 196,412.3 196,409 202.1,405.4 202.1,396.8 				"/>
			</g>
		</g>
		<g class="st1">
			<g>
				<polygon class="st3" points="188.8,450.1 181.9,446 181.8,423.6 188.7,427.7 				"/>
			</g>
			<g>
				<polygon class="st3" points="188.7,427.7 181.8,423.6 181.2,419.6 188.2,423.6 				"/>
			</g>
			<g>
				<polygon class="st3" points="188.2,423.6 181.2,419.6 179.4,417.5 186.3,421.5 				"/>
			</g>
			<g>
				<polygon class="st3" points="184,417.7 177.1,413.7 181.3,413.9 188.2,417.9 				"/>
			</g>
			<g>
				<polygon class="st3" points="178.9,419.9 172,415.9 177.1,413.7 184,417.7 				"/>
			</g>
			<g>
				<polygon class="st3" points="172.4,426.4 165.5,422.5 172,415.9 178.9,419.9 				"/>
			</g>
			<g>
				<polygon class="st3" points="169.8,431.5 162.9,427.5 165.5,422.5 172.4,426.4 				"/>
			</g>
			<g>
				<polygon class="st3" points="167.1,462.7 160.1,458.7 160.1,428.5 167,432.4 				"/>
			</g>
			<g>
				<polygon class="st3" points="167,432.4 160.1,428.5 157.8,426.8 164.7,430.8 				"/>
			</g>
			<g>
				<polygon class="st3" points="164.7,430.8 157.8,426.8 160,423.4 166.9,427.4 				"/>
			</g>
			<g>
				<polygon class="st3" points="178.9,419.9 184,417.7 188.2,417.9 191,420.7 191.5,425.8 191.6,448.4 188.8,450.1 188.7,427.7 
					188.2,423.6 186.3,421.5 183.2,421.4 179.3,423.1 174.2,428.3 169.9,436.8 170,461 167.1,462.7 167,432.4 164.7,430.8 
					166.9,427.4 169.8,429.6 169.8,431.5 172.4,426.4 				"/>
			</g>
		</g>
		<g class="st1">
			<g>
				<polygon class="st3" points="153.7,466.8 146.8,462.8 149.5,458.4 156.5,462.5 				"/>
			</g>
			<g>
				<polygon class="st3" points="150.4,469.6 143.5,465.6 146.8,462.8 153.7,466.8 				"/>
			</g>
			<g>
				<polygon class="st3" points="146.6,470 139.8,466 143.5,465.6 150.4,469.6 				"/>
			</g>
			<g>
				<polygon class="st3" points="144.5,473.8 137.6,469.8 135.2,463.9 142.1,468 				"/>
			</g>
			<g>
				<polygon class="st3" points="142.1,468 135.2,463.9 135.1,441 142,445 				"/>
			</g>
			<g>
				<polygon class="st3" points="131.7,447.8 124.8,443.7 137.9,436.1 144.9,440.2 				"/>
			</g>
			<g>
				<polygon class="st3" points="131.7,451 124.8,446.9 124.8,443.7 131.7,447.8 				"/>
			</g>
			<g>
				<polygon class="st3" points="156.5,462.5 158.3,463.9 155,469.1 150.2,473.1 144.5,473.8 142.1,468 142,445 131.7,451 
					131.7,447.8 144.9,440.2 144.9,465.7 146.6,470 150.4,469.6 153.7,466.8 				"/>
			</g>
		</g>
		<g class="st1">
			<g>
				<polygon class="st3" points="123.5,462.3 116.6,458.2 115.3,455.4 122.2,459.4 				"/>
			</g>
			<g>
				<polygon class="st3" points="121.1,454.8 114.2,450.7 117.7,452 124.5,456 				"/>
			</g>
			<g>
				<polygon class="st3" points="116.9,456 110,452 114.2,450.7 121.1,454.8 				"/>
			</g>
			<g>
				<polygon class="st3" points="104.5,472.5 97.6,468.5 97.7,468.4 104.6,472.4 				"/>
			</g>
			<g>
				<polygon class="st3" points="112.5,458.7 105.6,454.6 110,452 116.9,456 				"/>
			</g>
			<g>
				<polygon class="st3" points="104.6,472.4 97.7,468.4 98.5,465.3 105.5,469.3 				"/>
			</g>
			<g>
				<polygon class="st3" points="105.5,469.3 98.5,465.3 99.7,462.3 106.6,466.3 				"/>
			</g>
			<g>
				<polygon class="st3" points="106.6,466.3 99.7,462.3 105.6,454.6 112.5,458.7 				"/>
			</g>
			<g>
				<polygon class="st3" points="102.2,500.4 95.3,496.4 95.2,465.7 102.1,469.6 				"/>
			</g>
			<g>
				<polygon class="st3" points="100.7,465.6 93.8,461.5 98,462.2 105,466.2 				"/>
			</g>
			<g>
				<polygon class="st3" points="99.2,469.2 92.3,465.1 93.8,461.5 100.7,465.6 				"/>
			</g>
			<g>
				<polygon class="st3" points="116.9,456 121.1,454.8 124.5,456 126.1,459.7 123.5,462.3 122.2,459.4 119.8,458.5 116.6,459.4 
					113.4,461.4 108.7,467.6 105,476.4 105.1,498.8 102.2,500.4 102.1,469.6 99.2,469.2 100.7,465.6 105,466.2 105,469.4 
					104.5,472.5 104.6,472.4 105.5,469.3 106.6,466.3 112.5,458.7 				"/>
			</g>
		</g>
		<g class="st1">
			<g>
				<polygon class="st3" points="85.2,485.4 78.2,481.4 81.4,477.4 88.3,481.4 				"/>
			</g>
			<g>
				<polygon class="st3" points="88.3,481.4 81.4,477.4 82.9,473.1 89.9,477.2 				"/>
			</g>
			<g>
				<polygon class="st3" points="89.9,477.2 82.9,473.1 83.5,469 90.4,473 				"/>
			</g>
			<g>
				<polygon class="st3" points="81,488.9 74.1,484.9 78.2,481.4 85.2,485.4 				"/>
			</g>
			<g>
				<polygon class="st3" points="90.4,473 83.5,469 82.6,465 89.5,469 				"/>
			</g>
			<g>
				<polygon class="st3" points="89.5,469 82.6,465 80.4,462.8 87.3,466.8 				"/>
			</g>
			<g>
				<polygon class="st3" points="69.4,495.6 62.4,491.6 74.1,484.9 81,488.9 				"/>
			</g>
			<g>
				<polygon class="st3" points="85.1,463.1 78.1,459 82.2,459.1 89.1,463.1 				"/>
			</g>
			<g>
				<polygon class="st3" points="80.6,465 73.7,460.9 78.1,459 85.1,463.1 				"/>
			</g>
			<g>
				<path class="st3" d="M92.2,466.1l1.2,5.1l-0.8,5.4l-2.2,6l-4.1,5.2l-4.8,4.1l-12,7l0.1,20.4l-2.9,1.6l-0.1-47.8l14.1-8.2
					l4.4-1.9l4.1,0.1L92.2,466.1z M89.9,477.2l0.6-4.2l-0.9-4l-2.3-2.2h-3.1l-3.9,1.6l-11,6.3l0.1,20.8l11.6-6.7l4.1-3.5l3.2-4
					L89.9,477.2"/>
			</g>
			<g>
				<polygon class="st3" points="66.4,473.2 59.6,469.1 73.7,460.9 80.6,465 				"/>
			</g>
			<g>
				<polygon class="st3" points="66.5,521 59.7,517 59.6,469.1 66.4,473.2 				"/>
			</g>
		</g>
		<g class="st1">
			<g>
				<polygon class="st3" points="143.9,427.5 137,423.6 138.2,423.7 145.2,427.7 				"/>
			</g>
			<g>
				<polygon class="st3" points="141.6,432.6 134.7,428.6 134.3,427.4 141.2,431.5 				"/>
			</g>
			<g>
				<polygon class="st3" points="142.7,428.3 135.8,424.3 137,423.6 143.9,427.5 				"/>
			</g>
			<g>
				<polygon class="st3" points="142.7,432.9 141.6,432.6 141.2,431.5 141.6,429.7 142.7,428.3 143.9,427.5 145.2,427.7 145.5,429 
					145.2,430.5 143.9,432.2 				"/>
			</g>
			<g>
				<polygon class="st3" points="141.2,431.5 134.3,427.4 134.7,425.7 141.6,429.7 				"/>
			</g>
			<g>
				<polygon class="st3" points="141.6,429.7 134.7,425.7 135.8,424.3 142.7,428.3 				"/>
			</g>
		</g>
		<g class="st1">
			<g>
				<polygon class="st3" points="241.1,396 241.1,399.2 228.7,406.4 228.7,403.1 				"/>
			</g>
			<g>
				<polygon class="st3" points="228.7,406.4 221.8,402.3 221.8,399.1 228.7,403.1 				"/>
			</g>
			<g>
				<polygon class="st3" points="228.7,403.1 221.8,399.1 234.2,391.9 241.1,396 				"/>
			</g>
		</g>
		<g class="st1">
			<g>
				<polygon class="st3" points="301.2,380 294.3,376 296.6,371.8 303.5,375.8 				"/>
			</g>
			<g>
				<polygon class="st3" points="303.5,375.8 296.6,371.8 298.8,372.9 305.6,376.9 				"/>
			</g>
			<g>
				<polygon class="st3" points="298.8,383.5 291.9,379.4 294.3,376 301.2,380 				"/>
			</g>
			<g>
				<polygon class="st3" points="295.5,386.1 288.6,382.1 291.9,379.4 298.8,383.5 				"/>
			</g>
			<g>
				<polygon class="st3" points="292.5,387.2 285.5,383.1 288.6,382.1 295.5,386.1 				"/>
			</g>
			<g>
				<polygon class="st3" points="289.5,386.2 282.6,382.2 285.5,383.1 292.5,387.2 				"/>
			</g>
			<g>
				<polygon class="st3" points="287,389.8 280.1,385.7 278.1,379.6 285,383.6 				"/>
			</g>
			<g>
				<polygon class="st3" points="285,383.6 278.1,379.6 278,356.6 284.9,360.6 				"/>
			</g>
			<g>
				<polygon class="st3" points="287.8,355.7 280.9,351.6 290.3,346.2 297.2,350.3 				"/>
			</g>
			<g>
				<polygon class="st3" points="278.8,364.2 271.8,360.2 271.8,356.9 278.7,360.9 				"/>
			</g>
			<g>
				<polygon class="st3" points="278.7,360.9 271.8,356.9 278,353.3 284.9,357.3 				"/>
			</g>
			<g>
				<polygon class="st3" points="284.9,348.7 278,344.7 280.8,343 287.8,347.1 				"/>
			</g>
			<g>
				<polygon class="st3" points="284.9,357.3 278,353.3 278,344.7 284.9,348.7 				"/>
			</g>
			<g>
				<polygon class="st3" points="287.8,347.1 287.8,355.7 297.2,350.3 297.2,353.5 287.8,358.9 287.9,381.5 289.5,386.2 
					292.5,387.2 295.5,386.1 298.8,383.5 301.2,380 303.5,375.8 305.6,376.9 303,381.6 300,385.8 295.5,389.6 291.3,391 287,389.8 
					285,383.6 284.9,360.6 278.8,364.2 278.7,360.9 284.9,357.3 284.9,348.7 				"/>
			</g>
		</g>
		<g class="st1">
			<g>
				<polygon class="st3" points="268.9,400.6 262,396.6 264.8,392.2 271.8,396.2 				"/>
			</g>
			<g>
				<polygon class="st3" points="265.7,403.4 258.8,399.3 262,396.6 268.9,400.6 				"/>
			</g>
			<g>
				<polygon class="st3" points="262,403.8 255,399.7 258.8,399.3 265.7,403.4 				"/>
			</g>
			<g>
				<polygon class="st3" points="259.7,407.6 252.9,403.5 250.4,397.8 257.4,401.7 				"/>
			</g>
			<g>
				<polygon class="st3" points="257.4,401.7 250.4,397.8 250.4,374.8 257.3,378.8 				"/>
			</g>
			<g>
				<polygon class="st3" points="247,381.5 240.1,377.5 253.3,369.9 260.1,373.9 				"/>
			</g>
			<g>
				<polygon class="st3" points="247,384.7 240.1,380.7 240.1,377.5 247,381.5 				"/>
			</g>
			<g>
				<polygon class="st3" points="271.8,396.2 273.6,397.7 270.3,402.9 265.5,406.8 259.7,407.6 257.4,401.7 257.3,378.8 247,384.7 
					247,381.5 260.1,373.9 260.2,399.5 262,403.8 265.7,403.4 268.9,400.6 				"/>
			</g>
		</g>
		<g class="st1">
			<g>
				<polygon class="st3" points="259.2,361.4 252.3,357.3 253.5,357.4 260.4,361.5 				"/>
			</g>
			<g>
				<polygon class="st3" points="256.9,366.4 250,362.3 249.6,361.2 256.4,365.2 				"/>
			</g>
			<g>
				<polygon class="st3" points="258,362.1 251,358 252.3,357.3 259.2,361.4 				"/>
			</g>
			<g>
				<polygon class="st3" points="258,366.7 256.9,366.4 256.4,365.2 256.9,363.5 258,362.1 259.2,361.4 260.4,361.5 260.8,362.8 
					260.4,364.4 259.2,366 				"/>
			</g>
			<g>
				<polygon class="st3" points="256.4,365.2 249.6,361.2 250,359.5 256.9,363.5 				"/>
			</g>
			<g>
				<polygon class="st3" points="256.9,363.5 250,359.5 251,358 258,362.1 				"/>
			</g>
		</g>
	</g>
</g>
<g id="font_1_">
	<g>
		<g class="st1">
			<g>
				<polygon class="st3" points="218.4,347 211.5,343 213.8,338.8 220.8,342.8 				"/>
			</g>
			<g>
				<polygon class="st3" points="220.8,342.8 213.8,338.8 215.9,339.9 222.9,344 				"/>
			</g>
			<g>
				<polygon class="st3" points="216,350.5 209.1,346.5 211.5,343 218.4,347 				"/>
			</g>
			<g>
				<polygon class="st3" points="212.6,353.2 205.8,349.2 209.1,346.5 216,350.5 				"/>
			</g>
			<g>
				<polygon class="st3" points="209.6,354.2 202.7,350.1 205.8,349.2 212.6,353.2 				"/>
			</g>
			<g>
				<polygon class="st3" points="206.7,353.3 199.8,349.3 202.7,350.1 209.6,354.2 				"/>
			</g>
			<g>
				<polygon class="st3" points="204.1,356.8 197.2,352.7 195.3,346.7 202.2,350.6 				"/>
			</g>
			<g>
				<polygon class="st3" points="202.2,350.6 195.3,346.7 195.2,323.6 202.1,327.6 				"/>
			</g>
			<g>
				<polygon class="st3" points="205,322.7 198,318.7 207.4,313.3 214.3,317.2 				"/>
			</g>
			<g>
				<polygon class="st3" points="196,331.2 189,327.2 189,323.9 196,327.9 				"/>
			</g>
			<g>
				<polygon class="st3" points="196,327.9 189,323.9 195.2,320.3 202.1,324.3 				"/>
			</g>
			<g>
				<polygon class="st3" points="202.1,315.8 195.2,311.7 198,310.1 204.9,314.1 				"/>
			</g>
			<g>
				<polygon class="st3" points="202.1,324.3 195.2,320.3 195.2,311.7 202.1,315.8 				"/>
			</g>
			<g>
				<polygon class="st3" points="204.9,314.1 205,322.7 214.3,317.2 214.3,320.5 205,325.9 205,348.6 206.7,353.3 209.6,354.2 
					212.6,353.2 216,350.5 218.4,347 220.8,342.8 222.9,344 220.2,348.6 217.2,352.9 212.7,356.5 208.5,358 204.1,356.8 
					202.2,350.6 202.1,327.6 196,331.2 196,327.9 202.1,324.3 202.1,315.8 				"/>
			</g>
		</g>
		<g class="st1">
			<g>
				<polygon class="st3" points="188.8,369 181.9,364.9 181.8,342.6 188.7,346.6 				"/>
			</g>
			<g>
				<polygon class="st3" points="188.7,346.6 181.8,342.6 181.2,338.5 188.2,342.6 				"/>
			</g>
			<g>
				<polygon class="st3" points="188.2,342.6 181.2,338.5 179.4,336.4 186.3,340.4 				"/>
			</g>
			<g>
				<polygon class="st3" points="184,336.6 177.1,332.6 181.3,332.8 188.2,336.8 				"/>
			</g>
			<g>
				<polygon class="st3" points="178.9,338.8 172,334.8 177.1,332.6 184,336.6 				"/>
			</g>
			<g>
				<polygon class="st3" points="172.4,345.4 165.5,341.4 172,334.8 178.9,338.8 				"/>
			</g>
			<g>
				<polygon class="st3" points="169.8,350.5 162.9,346.5 165.5,341.4 172.4,345.4 				"/>
			</g>
			<g>
				<polygon class="st3" points="167.1,381.6 160.1,377.6 160.1,347.4 167,351.4 				"/>
			</g>
			<g>
				<polygon class="st3" points="167,351.4 160.1,347.4 157.8,345.7 164.7,349.7 				"/>
			</g>
			<g>
				<polygon class="st3" points="164.7,349.7 157.8,345.7 160,342.3 166.9,346.3 				"/>
			</g>
			<g>
				<polygon class="st3" points="178.9,338.8 184,336.6 188.2,336.8 191,339.7 191.5,344.8 191.6,367.4 188.8,369 188.7,346.6 
					188.2,342.6 186.3,340.4 183.2,340.3 179.3,342 174.2,347.2 169.9,355.7 170,379.9 167.1,381.6 167,351.4 164.7,349.7 
					166.9,346.3 169.8,348.5 169.8,350.5 172.4,345.4 				"/>
			</g>
		</g>
		<g class="st1">
			<g>
				<polygon class="st3" points="153.7,385.8 146.8,381.7 149.5,377.4 156.5,381.4 				"/>
			</g>
			<g>
				<polygon class="st3" points="150.4,388.5 143.5,384.5 146.8,381.7 153.7,385.8 				"/>
			</g>
			<g>
				<polygon class="st3" points="146.6,388.9 139.8,384.9 143.5,384.5 150.4,388.5 				"/>
			</g>
			<g>
				<polygon class="st3" points="144.5,392.7 137.6,388.7 135.2,382.9 142.1,386.9 				"/>
			</g>
			<g>
				<polygon class="st3" points="142.1,386.9 135.2,382.9 135.1,359.9 142,363.9 				"/>
			</g>
			<g>
				<polygon class="st3" points="131.7,366.7 124.8,362.7 137.9,355.1 144.9,359.1 				"/>
			</g>
			<g>
				<polygon class="st3" points="131.7,369.9 124.8,365.8 124.8,362.7 131.7,366.7 				"/>
			</g>
			<g>
				<polygon class="st3" points="156.5,381.4 158.3,382.9 155,388 150.2,392 144.5,392.7 142.1,386.9 142,363.9 131.7,369.9 
					131.7,366.7 144.9,359.1 144.9,384.7 146.6,388.9 150.4,388.5 153.7,385.8 				"/>
			</g>
		</g>
		<g class="st1">
			<g>
				<polygon class="st3" points="123.5,381.2 116.6,377.2 115.3,374.3 122.2,378.3 				"/>
			</g>
			<g>
				<polygon class="st3" points="121.1,373.7 114.2,369.6 117.7,370.9 124.5,375 				"/>
			</g>
			<g>
				<polygon class="st3" points="116.9,375 110,370.9 114.2,369.6 121.1,373.7 				"/>
			</g>
			<g>
				<polygon class="st3" points="104.5,391.4 97.6,387.4 97.7,387.3 104.6,391.3 				"/>
			</g>
			<g>
				<polygon class="st3" points="112.5,377.6 105.6,373.6 110,370.9 116.9,375 				"/>
			</g>
			<g>
				<polygon class="st3" points="104.6,391.3 97.7,387.3 98.5,384.2 105.5,388.2 				"/>
			</g>
			<g>
				<polygon class="st3" points="105.5,388.2 98.5,384.2 99.7,381.2 106.6,385.2 				"/>
			</g>
			<g>
				<polygon class="st3" points="106.6,385.2 99.7,381.2 105.6,373.6 112.5,377.6 				"/>
			</g>
			<g>
				<polygon class="st3" points="102.2,419.3 95.3,415.3 95.2,384.6 102.1,388.6 				"/>
			</g>
			<g>
				<polygon class="st3" points="100.7,384.5 93.8,380.4 98,381.1 105,385.1 				"/>
			</g>
			<g>
				<polygon class="st3" points="99.2,388.1 92.3,384 93.8,380.4 100.7,384.5 				"/>
			</g>
			<g>
				<polygon class="st3" points="116.9,375 121.1,373.7 124.5,375 126.1,378.6 123.5,381.2 122.2,378.3 119.8,377.4 116.6,378.3 
					113.4,380.3 108.7,386.5 105,395.4 105.1,417.7 102.2,419.3 102.1,388.6 99.2,388.1 100.7,384.5 105,385.1 105,388.3 
					104.5,391.4 104.6,391.3 105.5,388.2 106.6,385.2 112.5,377.6 				"/>
			</g>
		</g>
		<g class="st1">
			<g>
				<polygon class="st3" points="85.2,404.3 78.2,400.3 81.4,396.3 88.3,400.3 				"/>
			</g>
			<g>
				<polygon class="st3" points="88.3,400.3 81.4,396.3 82.9,392 89.9,396.1 				"/>
			</g>
			<g>
				<polygon class="st3" points="89.9,396.1 82.9,392 83.5,387.9 90.4,391.9 				"/>
			</g>
			<g>
				<polygon class="st3" points="81,407.8 74.1,403.8 78.2,400.3 85.2,404.3 				"/>
			</g>
			<g>
				<polygon class="st3" points="90.4,391.9 83.5,387.9 82.6,383.9 89.5,387.9 				"/>
			</g>
			<g>
				<polygon class="st3" points="89.5,387.9 82.6,383.9 80.4,381.7 87.3,385.8 				"/>
			</g>
			<g>
				<polygon class="st3" points="69.4,414.6 62.4,410.5 74.1,403.8 81,407.8 				"/>
			</g>
			<g>
				<polygon class="st3" points="85.1,382 78.1,378 82.2,378 89.1,382.1 				"/>
			</g>
			<g>
				<polygon class="st3" points="80.6,383.9 73.7,379.9 78.1,378 85.1,382 				"/>
			</g>
			<g>
				<path class="st3" d="M92.2,385l1.2,5.1l-0.8,5.4l-2.2,6l-4.1,5.2l-4.8,4.1l-12,7l0.1,20.4l-2.9,1.6l-0.1-47.8l14.1-8.2l4.4-1.9
					l4.1,0.1L92.2,385z M89.9,396.1l0.6-4.2l-0.9-4l-2.3-2.2h-3.1l-3.9,1.6l-11,6.3l0.1,20.8l11.6-6.7l4.1-3.5l3.2-4L89.9,396.1"/>
			</g>
			<g>
				<polygon class="st3" points="66.4,392.1 59.6,388 73.7,379.9 80.6,383.9 				"/>
			</g>
			<g>
				<polygon class="st3" points="66.5,439.9 59.7,435.9 59.6,388 66.4,392.1 				"/>
			</g>
		</g>
		<g class="st1">
			<g>
				<polygon class="st3" points="143.9,346.5 137,342.5 138.2,342.6 145.2,346.6 				"/>
			</g>
			<g>
				<polygon class="st3" points="141.6,351.5 134.7,347.5 134.3,346.3 141.2,350.4 				"/>
			</g>
			<g>
				<polygon class="st3" points="142.7,347.2 135.8,343.2 137,342.5 143.9,346.5 				"/>
			</g>
			<g>
				<polygon class="st3" points="142.7,351.8 141.6,351.5 141.2,350.4 141.6,348.6 142.7,347.2 143.9,346.5 145.2,346.6 
					145.5,347.9 145.2,349.5 143.9,351.1 				"/>
			</g>
			<g>
				<polygon class="st3" points="141.2,350.4 134.3,346.3 134.7,344.6 141.6,348.6 				"/>
			</g>
			<g>
				<polygon class="st3" points="141.6,348.6 134.7,344.6 135.8,343.2 142.7,347.2 				"/>
			</g>
		</g>
		<g class="st1">
			<g>
				<polygon class="st3" points="241.1,314.9 241.1,318.2 228.7,325.3 228.7,322 				"/>
			</g>
			<g>
				<polygon class="st3" points="228.7,325.3 221.8,321.2 221.8,318 228.7,322 				"/>
			</g>
			<g>
				<polygon class="st3" points="228.7,322 221.8,318 234.2,310.8 241.1,314.9 				"/>
			</g>
		</g>
		<g class="st1">
			<g>
				<polygon class="st3" points="301.2,298.9 294.3,294.9 296.6,290.7 303.5,294.7 				"/>
			</g>
			<g>
				<polygon class="st3" points="303.5,294.7 296.6,290.7 298.8,291.8 305.6,295.9 				"/>
			</g>
			<g>
				<polygon class="st3" points="298.8,302.4 291.9,298.3 294.3,294.9 301.2,298.9 				"/>
			</g>
			<g>
				<polygon class="st3" points="295.5,305 288.6,301 291.9,298.3 298.8,302.4 				"/>
			</g>
			<g>
				<polygon class="st3" points="292.5,306.1 285.5,302 288.6,301 295.5,305 				"/>
			</g>
			<g>
				<polygon class="st3" points="289.5,305.1 282.6,301.1 285.5,302 292.5,306.1 				"/>
			</g>
			<g>
				<polygon class="st3" points="287,308.7 280.1,304.6 278.1,298.5 285,302.5 				"/>
			</g>
			<g>
				<polygon class="st3" points="285,302.5 278.1,298.5 278,275.5 284.9,279.6 				"/>
			</g>
			<g>
				<polygon class="st3" points="287.8,274.6 280.9,270.6 290.3,265.1 297.2,269.2 				"/>
			</g>
			<g>
				<polygon class="st3" points="278.8,283.1 271.8,279.1 271.8,275.8 278.7,279.8 				"/>
			</g>
			<g>
				<polygon class="st3" points="278.7,279.8 271.8,275.8 278,272.2 284.9,276.3 				"/>
			</g>
			<g>
				<polygon class="st3" points="284.9,267.6 278,263.6 280.8,261.9 287.8,266 				"/>
			</g>
			<g>
				<polygon class="st3" points="284.9,276.3 278,272.2 278,263.6 284.9,267.6 				"/>
			</g>
			<g>
				<polygon class="st3" points="287.8,266 287.8,274.6 297.2,269.2 297.2,272.5 287.8,277.8 287.9,300.4 289.5,305.1 292.5,306.1 
					295.5,305 298.8,302.4 301.2,298.9 303.5,294.7 305.6,295.9 303,300.5 300,304.7 295.5,308.5 291.3,309.9 287,308.7 285,302.5 
					284.9,279.6 278.8,283.1 278.7,279.8 284.9,276.3 284.9,267.6 				"/>
			</g>
		</g>
		<g class="st1">
			<g>
				<polygon class="st3" points="268.9,319.5 262,315.5 264.8,311.1 271.8,315.2 				"/>
			</g>
			<g>
				<polygon class="st3" points="265.7,322.3 258.8,318.2 262,315.5 268.9,319.5 				"/>
			</g>
			<g>
				<polygon class="st3" points="262,322.7 255,318.6 258.8,318.2 265.7,322.3 				"/>
			</g>
			<g>
				<polygon class="st3" points="259.7,326.5 252.9,322.4 250.4,316.7 257.4,320.7 				"/>
			</g>
			<g>
				<polygon class="st3" points="257.4,320.7 250.4,316.7 250.4,293.7 257.3,297.7 				"/>
			</g>
			<g>
				<polygon class="st3" points="247,300.4 240.1,296.4 253.3,288.8 260.1,292.8 				"/>
			</g>
			<g>
				<polygon class="st3" points="247,303.6 240.1,299.7 240.1,296.4 247,300.4 				"/>
			</g>
			<g>
				<polygon class="st3" points="271.8,315.2 273.6,316.6 270.3,321.8 265.5,325.8 259.7,326.5 257.4,320.7 257.3,297.7 247,303.6 
					247,300.4 260.1,292.8 260.2,318.4 262,322.7 265.7,322.3 268.9,319.5 				"/>
			</g>
		</g>
		<g class="st1">
			<g>
				<polygon class="st3" points="259.2,280.3 252.3,276.2 253.5,276.3 260.4,280.4 				"/>
			</g>
			<g>
				<polygon class="st3" points="256.9,285.3 250,281.2 249.6,280.1 256.4,284.1 				"/>
			</g>
			<g>
				<polygon class="st3" points="258,281 251,276.9 252.3,276.2 259.2,280.3 				"/>
			</g>
			<g>
				<polygon class="st3" points="258,285.6 256.9,285.3 256.4,284.1 256.9,282.4 258,281 259.2,280.3 260.4,280.4 260.8,281.7 
					260.4,283.3 259.2,284.9 				"/>
			</g>
			<g>
				<polygon class="st3" points="256.4,284.1 249.6,280.1 250,278.4 256.9,282.4 				"/>
			</g>
			<g>
				<polygon class="st3" points="256.9,282.4 250,278.4 251,276.9 258,281 				"/>
			</g>
		</g>
	</g>
</g>
<g id="font_2_">
	<g>
		<g class="st1">
			<g>
				<polygon class="st3" points="218.4,266 211.5,262 213.8,257.7 220.8,261.7 				"/>
			</g>
			<g>
				<polygon class="st3" points="220.8,261.7 213.8,257.7 215.9,258.9 222.9,262.9 				"/>
			</g>
			<g>
				<polygon class="st3" points="216,269.4 209.1,265.4 211.5,262 218.4,266 				"/>
			</g>
			<g>
				<polygon class="st3" points="212.6,272.1 205.8,268.1 209.1,265.4 216,269.4 				"/>
			</g>
			<g>
				<polygon class="st3" points="209.6,273.1 202.7,269 205.8,268.1 212.6,272.1 				"/>
			</g>
			<g>
				<polygon class="st3" points="206.7,272.2 199.8,268.2 202.7,269 209.6,273.1 				"/>
			</g>
			<g>
				<polygon class="st3" points="204.1,275.7 197.2,271.7 195.3,265.6 202.2,269.6 				"/>
			</g>
			<g>
				<polygon class="st3" points="202.2,269.6 195.3,265.6 195.2,242.5 202.1,246.5 				"/>
			</g>
			<g>
				<polygon class="st3" points="205,241.6 198,237.6 207.4,232.2 214.3,236.2 				"/>
			</g>
			<g>
				<polygon class="st3" points="196,250.1 189,246.1 189,242.8 196,246.8 				"/>
			</g>
			<g>
				<polygon class="st3" points="196,246.8 189,242.8 195.2,239.2 202.1,243.2 				"/>
			</g>
			<g>
				<polygon class="st3" points="202.1,234.7 195.2,230.6 198,229 204.9,233.1 				"/>
			</g>
			<g>
				<polygon class="st3" points="202.1,243.2 195.2,239.2 195.2,230.6 202.1,234.7 				"/>
			</g>
			<g>
				<polygon class="st3" points="204.9,233.1 205,241.6 214.3,236.2 214.3,239.4 205,244.9 205,267.5 206.7,272.2 209.6,273.1 
					212.6,272.1 216,269.4 218.4,266 220.8,261.7 222.9,262.9 220.2,267.6 217.2,271.8 212.7,275.5 208.5,276.9 204.1,275.7 
					202.2,269.6 202.1,246.5 196,250.1 196,246.8 202.1,243.2 202.1,234.7 				"/>
			</g>
		</g>
		<g class="st1">
			<g>
				<polygon class="st3" points="188.8,287.9 181.9,283.9 181.8,261.5 188.7,265.5 				"/>
			</g>
			<g>
				<polygon class="st3" points="188.7,265.5 181.8,261.5 181.2,257.4 188.2,261.5 				"/>
			</g>
			<g>
				<polygon class="st3" points="188.2,261.5 181.2,257.4 179.4,255.3 186.3,259.3 				"/>
			</g>
			<g>
				<polygon class="st3" points="184,255.5 177.1,251.5 181.3,251.7 188.2,255.7 				"/>
			</g>
			<g>
				<polygon class="st3" points="178.9,257.7 172,253.7 177.1,251.5 184,255.5 				"/>
			</g>
			<g>
				<polygon class="st3" points="172.4,264.3 165.5,260.3 172,253.7 178.9,257.7 				"/>
			</g>
			<g>
				<polygon class="st3" points="169.8,269.4 162.9,265.4 165.5,260.3 172.4,264.3 				"/>
			</g>
			<g>
				<polygon class="st3" points="167.1,300.5 160.1,296.5 160.1,266.3 167,270.3 				"/>
			</g>
			<g>
				<polygon class="st3" points="167,270.3 160.1,266.3 157.8,264.7 164.7,268.7 				"/>
			</g>
			<g>
				<polygon class="st3" points="164.7,268.7 157.8,264.7 160,261.2 166.9,265.2 				"/>
			</g>
			<g>
				<polygon class="st3" points="178.9,257.7 184,255.5 188.2,255.7 191,258.6 191.5,263.7 191.6,286.3 188.8,287.9 188.7,265.5 
					188.2,261.5 186.3,259.3 183.2,259.2 179.3,260.9 174.2,266.1 169.9,274.6 170,298.9 167.1,300.5 167,270.3 164.7,268.7 
					166.9,265.2 169.8,267.4 169.8,269.4 172.4,264.3 				"/>
			</g>
		</g>
		<g class="st1">
			<g>
				<polygon class="st3" points="153.7,304.7 146.8,300.6 149.5,296.3 156.5,300.3 				"/>
			</g>
			<g>
				<polygon class="st3" points="150.4,307.4 143.5,303.4 146.8,300.6 153.7,304.7 				"/>
			</g>
			<g>
				<polygon class="st3" points="146.6,307.8 139.8,303.8 143.5,303.4 150.4,307.4 				"/>
			</g>
			<g>
				<polygon class="st3" points="144.5,311.6 137.6,307.6 135.2,301.8 142.1,305.9 				"/>
			</g>
			<g>
				<polygon class="st3" points="142.1,305.9 135.2,301.8 135.1,278.8 142,282.9 				"/>
			</g>
			<g>
				<polygon class="st3" points="131.7,285.6 124.8,281.6 137.9,274 144.9,278 				"/>
			</g>
			<g>
				<polygon class="st3" points="131.7,288.8 124.8,284.8 124.8,281.6 131.7,285.6 				"/>
			</g>
			<g>
				<polygon class="st3" points="156.5,300.3 158.3,301.8 155,307 150.2,310.9 144.5,311.6 142.1,305.9 142,282.9 131.7,288.8 
					131.7,285.6 144.9,278 144.9,303.6 146.6,307.8 150.4,307.4 153.7,304.7 				"/>
			</g>
		</g>
		<g class="st1">
			<g>
				<polygon class="st3" points="123.5,300.2 116.6,296.1 115.3,293.2 122.2,297.2 				"/>
			</g>
			<g>
				<polygon class="st3" points="121.1,292.6 114.2,288.6 117.7,289.9 124.5,293.9 				"/>
			</g>
			<g>
				<polygon class="st3" points="116.9,293.9 110,289.8 114.2,288.6 121.1,292.6 				"/>
			</g>
			<g>
				<polygon class="st3" points="104.5,310.3 97.6,306.3 97.7,306.2 104.6,310.2 				"/>
			</g>
			<g>
				<polygon class="st3" points="112.5,296.5 105.6,292.5 110,289.8 116.9,293.9 				"/>
			</g>
			<g>
				<polygon class="st3" points="104.6,310.2 97.7,306.2 98.5,303.1 105.5,307.1 				"/>
			</g>
			<g>
				<polygon class="st3" points="105.5,307.1 98.5,303.1 99.7,300.2 106.6,304.1 				"/>
			</g>
			<g>
				<polygon class="st3" points="106.6,304.1 99.7,300.2 105.6,292.5 112.5,296.5 				"/>
			</g>
			<g>
				<polygon class="st3" points="102.2,338.3 95.3,334.3 95.2,303.5 102.1,307.5 				"/>
			</g>
			<g>
				<polygon class="st3" points="100.7,303.4 93.8,299.4 98,300 105,304 				"/>
			</g>
			<g>
				<polygon class="st3" points="99.2,307 92.3,303 93.8,299.4 100.7,303.4 				"/>
			</g>
			<g>
				<polygon class="st3" points="116.9,293.9 121.1,292.6 124.5,293.9 126.1,297.5 123.5,300.2 122.2,297.2 119.8,296.4 
					116.6,297.3 113.4,299.2 108.7,305.4 105,314.3 105.1,336.6 102.2,338.3 102.1,307.5 99.2,307 100.7,303.4 105,304 105,307.2 
					104.5,310.3 104.6,310.2 105.5,307.1 106.6,304.1 112.5,296.5 				"/>
			</g>
		</g>
		<g class="st1">
			<g>
				<polygon class="st3" points="85.2,323.3 78.2,319.3 81.4,315.2 88.3,319.3 				"/>
			</g>
			<g>
				<polygon class="st3" points="88.3,319.3 81.4,315.2 82.9,310.9 89.9,315 				"/>
			</g>
			<g>
				<polygon class="st3" points="89.9,315 82.9,310.9 83.5,306.8 90.4,310.8 				"/>
			</g>
			<g>
				<polygon class="st3" points="81,326.7 74.1,322.8 78.2,319.3 85.2,323.3 				"/>
			</g>
			<g>
				<polygon class="st3" points="90.4,310.8 83.5,306.8 82.6,302.8 89.5,306.8 				"/>
			</g>
			<g>
				<polygon class="st3" points="89.5,306.8 82.6,302.8 80.4,300.6 87.3,304.7 				"/>
			</g>
			<g>
				<polygon class="st3" points="69.4,333.5 62.4,329.4 74.1,322.8 81,326.7 				"/>
			</g>
			<g>
				<polygon class="st3" points="85.1,300.9 78.1,296.9 82.2,297 89.1,301 				"/>
			</g>
			<g>
				<polygon class="st3" points="80.6,302.8 73.7,298.8 78.1,296.9 85.1,300.9 				"/>
			</g>
			<g>
				<path class="st3" d="M92.2,304l1.2,5.1l-0.8,5.4l-2.2,6l-4.1,5.2l-4.8,4.1l-12,7l0.1,20.4l-2.9,1.6l-0.1-47.8l14.1-8.2l4.4-1.9
					l4.1,0.1L92.2,304z M89.9,315l0.6-4.2l-0.9-4l-2.3-2.2h-3.1l-3.9,1.6l-11,6.3l0.1,20.8l11.6-6.7l4.1-3.5l3.2-4L89.9,315"/>
			</g>
			<g>
				<polygon class="st3" points="66.4,311 59.6,307 73.7,298.8 80.6,302.8 				"/>
			</g>
			<g>
				<polygon class="st3" points="66.5,358.8 59.7,354.8 59.6,307 66.4,311 				"/>
			</g>
		</g>
		<g class="st1">
			<g>
				<polygon class="st3" points="143.9,265.4 137,261.4 138.2,261.5 145.2,265.5 				"/>
			</g>
			<g>
				<polygon class="st3" points="141.6,270.4 134.7,266.5 134.3,265.2 141.2,269.3 				"/>
			</g>
			<g>
				<polygon class="st3" points="142.7,266.1 135.8,262.1 137,261.4 143.9,265.4 				"/>
			</g>
			<g>
				<polygon class="st3" points="142.7,270.7 141.6,270.4 141.2,269.3 141.6,267.6 142.7,266.1 143.9,265.4 145.2,265.5 
					145.5,266.8 145.2,268.4 143.9,270 				"/>
			</g>
			<g>
				<polygon class="st3" points="141.2,269.3 134.3,265.2 134.7,263.6 141.6,267.6 				"/>
			</g>
			<g>
				<polygon class="st3" points="141.6,267.6 134.7,263.6 135.8,262.1 142.7,266.1 				"/>
			</g>
		</g>
		<g class="st1">
			<g>
				<polygon class="st3" points="241.1,233.8 241.1,237.1 228.7,244.2 228.7,241 				"/>
			</g>
			<g>
				<polygon class="st3" points="228.7,244.2 221.8,240.2 221.8,236.9 228.7,241 				"/>
			</g>
			<g>
				<polygon class="st3" points="228.7,241 221.8,236.9 234.2,229.7 241.1,233.8 				"/>
			</g>
		</g>
		<g class="st1">
			<g>
				<polygon class="st3" points="301.2,217.9 294.3,213.9 296.6,209.6 303.5,213.6 				"/>
			</g>
			<g>
				<polygon class="st3" points="303.5,213.6 296.6,209.6 298.8,210.7 305.6,214.8 				"/>
			</g>
			<g>
				<polygon class="st3" points="298.8,221.3 291.9,217.2 294.3,213.9 301.2,217.9 				"/>
			</g>
			<g>
				<polygon class="st3" points="295.5,223.9 288.6,219.9 291.9,217.2 298.8,221.3 				"/>
			</g>
			<g>
				<polygon class="st3" points="292.5,225 285.5,220.9 288.6,219.9 295.5,223.9 				"/>
			</g>
			<g>
				<polygon class="st3" points="289.5,224 282.6,220.1 285.5,220.9 292.5,225 				"/>
			</g>
			<g>
				<polygon class="st3" points="287,227.6 280.1,223.6 278.1,217.4 285,221.5 				"/>
			</g>
			<g>
				<polygon class="st3" points="285,221.5 278.1,217.4 278,194.4 284.9,198.5 				"/>
			</g>
			<g>
				<polygon class="st3" points="287.8,193.5 280.9,189.5 290.3,184 297.2,188.1 				"/>
			</g>
			<g>
				<polygon class="st3" points="278.8,202 271.8,198 271.8,194.7 278.7,198.7 				"/>
			</g>
			<g>
				<polygon class="st3" points="278.7,198.7 271.8,194.7 278,191.1 284.9,195.2 				"/>
			</g>
			<g>
				<polygon class="st3" points="284.9,186.5 278,182.6 280.8,180.8 287.8,184.9 				"/>
			</g>
			<g>
				<polygon class="st3" points="284.9,195.2 278,191.1 278,182.6 284.9,186.5 				"/>
			</g>
			<g>
				<polygon class="st3" points="287.8,184.9 287.8,193.5 297.2,188.1 297.2,191.4 287.8,196.8 287.9,219.3 289.5,224 292.5,225 
					295.5,223.9 298.8,221.3 301.2,217.9 303.5,213.6 305.6,214.8 303,219.4 300,223.7 295.5,227.4 291.3,228.8 287,227.6 
					285,221.5 284.9,198.5 278.8,202 278.7,198.7 284.9,195.2 284.9,186.5 				"/>
			</g>
		</g>
		<g class="st1">
			<g>
				<polygon class="st3" points="268.9,238.4 262,234.4 264.8,230 271.8,234.1 				"/>
			</g>
			<g>
				<polygon class="st3" points="265.7,241.2 258.8,237.2 262,234.4 268.9,238.4 				"/>
			</g>
			<g>
				<polygon class="st3" points="262,241.6 255,237.5 258.8,237.2 265.7,241.2 				"/>
			</g>
			<g>
				<polygon class="st3" points="259.7,245.4 252.9,241.3 250.4,235.6 257.4,239.6 				"/>
			</g>
			<g>
				<polygon class="st3" points="257.4,239.6 250.4,235.6 250.4,212.6 257.3,216.6 				"/>
			</g>
			<g>
				<polygon class="st3" points="247,219.3 240.1,215.3 253.3,207.7 260.1,211.7 				"/>
			</g>
			<g>
				<polygon class="st3" points="247,222.6 240.1,218.6 240.1,215.3 247,219.3 				"/>
			</g>
			<g>
				<polygon class="st3" points="271.8,234.1 273.6,235.5 270.3,240.8 265.5,244.7 259.7,245.4 257.4,239.6 257.3,216.6 247,222.6 
					247,219.3 260.1,211.7 260.2,237.3 262,241.6 265.7,241.2 268.9,238.4 				"/>
			</g>
		</g>
		<g class="st1">
			<g>
				<polygon class="st3" points="259.2,199.2 252.3,195.1 253.5,195.2 260.4,199.3 				"/>
			</g>
			<g>
				<polygon class="st3" points="256.9,204.2 250,200.1 249.6,199 256.4,203 				"/>
			</g>
			<g>
				<polygon class="st3" points="258,199.9 251,195.9 252.3,195.1 259.2,199.2 				"/>
			</g>
			<g>
				<polygon class="st3" points="258,204.6 256.9,204.2 256.4,203 256.9,201.3 258,199.9 259.2,199.2 260.4,199.3 260.8,200.6 
					260.4,202.2 259.2,203.8 				"/>
			</g>
			<g>
				<polygon class="st3" points="256.4,203 249.6,199 250,197.3 256.9,201.3 				"/>
			</g>
			<g>
				<polygon class="st3" points="256.9,201.3 250,197.3 251,195.9 258,199.9 				"/>
			</g>
		</g>
	</g>
</g>
<g id="font_4_">
	<g>
		<g class="st1">
			<g>
				<polygon class="st3" points="218.4,184.9 211.5,180.9 213.8,176.6 220.8,180.6 				"/>
			</g>
			<g>
				<polygon class="st3" points="220.8,180.6 213.8,176.6 215.9,177.8 222.9,181.8 				"/>
			</g>
			<g>
				<polygon class="st3" points="216,188.3 209.1,184.3 211.5,180.9 218.4,184.9 				"/>
			</g>
			<g>
				<polygon class="st3" points="212.6,191 205.8,187 209.1,184.3 216,188.3 				"/>
			</g>
			<g>
				<polygon class="st3" points="209.6,192 202.7,188 205.8,187 212.6,191 				"/>
			</g>
			<g>
				<polygon class="st3" points="206.7,191.1 199.8,187.1 202.7,188 209.6,192 				"/>
			</g>
			<g>
				<polygon class="st3" points="204.1,194.6 197.2,190.6 195.3,184.5 202.2,188.5 				"/>
			</g>
			<g>
				<polygon class="st3" points="202.2,188.5 195.3,184.5 195.2,161.4 202.1,165.5 				"/>
			</g>
			<g>
				<polygon class="st3" points="205,160.5 198,156.5 207.4,151.1 214.3,155.1 				"/>
			</g>
			<g>
				<polygon class="st3" points="196,169 189,165 189,161.7 196,165.8 				"/>
			</g>
			<g>
				<polygon class="st3" points="196,165.8 189,161.7 195.2,158.2 202.1,162.2 				"/>
			</g>
			<g>
				<polygon class="st3" points="202.1,153.6 195.2,149.5 198,147.9 204.9,152 				"/>
			</g>
			<g>
				<polygon class="st3" points="202.1,162.2 195.2,158.2 195.2,149.5 202.1,153.6 				"/>
			</g>
			<g>
				<polygon class="st3" points="204.9,152 205,160.5 214.3,155.1 214.3,158.4 205,163.8 205,186.4 206.7,191.1 209.6,192 
					212.6,191 216,188.3 218.4,184.9 220.8,180.6 222.9,181.8 220.2,186.5 217.2,190.7 212.7,194.4 208.5,195.8 204.1,194.6 
					202.2,188.5 202.1,165.5 196,169 196,165.8 202.1,162.2 202.1,153.6 				"/>
			</g>
		</g>
		<g class="st1">
			<g>
				<polygon class="st3" points="188.8,206.8 181.9,202.8 181.8,180.4 188.7,184.4 				"/>
			</g>
			<g>
				<polygon class="st3" points="188.7,184.4 181.8,180.4 181.2,176.3 188.2,180.4 				"/>
			</g>
			<g>
				<polygon class="st3" points="188.2,180.4 181.2,176.3 179.4,174.2 186.3,178.3 				"/>
			</g>
			<g>
				<polygon class="st3" points="184,174.4 177.1,170.4 181.3,170.6 188.2,174.6 				"/>
			</g>
			<g>
				<polygon class="st3" points="178.9,176.6 172,172.6 177.1,170.4 184,174.4 				"/>
			</g>
			<g>
				<polygon class="st3" points="172.4,183.2 165.5,179.2 172,172.6 178.9,176.6 				"/>
			</g>
			<g>
				<polygon class="st3" points="169.8,188.3 162.9,184.3 165.5,179.2 172.4,183.2 				"/>
			</g>
			<g>
				<polygon class="st3" points="167.1,219.4 160.1,215.4 160.1,185.2 167,189.2 				"/>
			</g>
			<g>
				<polygon class="st3" points="167,189.2 160.1,185.2 157.8,183.6 164.7,187.6 				"/>
			</g>
			<g>
				<polygon class="st3" points="164.7,187.6 157.8,183.6 160,180.1 166.9,184.1 				"/>
			</g>
			<g>
				<polygon class="st3" points="178.9,176.6 184,174.4 188.2,174.6 191,177.5 191.5,182.6 191.6,205.2 188.8,206.8 188.7,184.4 
					188.2,180.4 186.3,178.3 183.2,178.2 179.3,179.9 174.2,185 169.9,193.5 170,217.8 167.1,219.4 167,189.2 164.7,187.6 
					166.9,184.1 169.8,186.3 169.8,188.3 172.4,183.2 				"/>
			</g>
		</g>
		<g class="st1">
			<g>
				<polygon class="st3" points="153.7,223.6 146.8,219.5 149.5,215.2 156.5,219.2 				"/>
			</g>
			<g>
				<polygon class="st3" points="150.4,226.3 143.5,222.3 146.8,219.5 153.7,223.6 				"/>
			</g>
			<g>
				<polygon class="st3" points="146.6,226.7 139.8,222.8 143.5,222.3 150.4,226.3 				"/>
			</g>
			<g>
				<polygon class="st3" points="144.5,230.5 137.6,226.6 135.2,220.7 142.1,224.8 				"/>
			</g>
			<g>
				<polygon class="st3" points="142.1,224.8 135.2,220.7 135.1,197.7 142,201.8 				"/>
			</g>
			<g>
				<polygon class="st3" points="131.7,204.5 124.8,200.5 137.9,192.9 144.9,197 				"/>
			</g>
			<g>
				<polygon class="st3" points="131.7,207.7 124.8,203.7 124.8,200.5 131.7,204.5 				"/>
			</g>
			<g>
				<polygon class="st3" points="156.5,219.2 158.3,220.7 155,225.9 150.2,229.8 144.5,230.5 142.1,224.8 142,201.8 131.7,207.7 
					131.7,204.5 144.9,197 144.9,222.5 146.6,226.7 150.4,226.3 153.7,223.6 				"/>
			</g>
		</g>
		<g class="st1">
			<g>
				<polygon class="st3" points="123.5,219.1 116.6,215 115.3,212.1 122.2,216.1 				"/>
			</g>
			<g>
				<polygon class="st3" points="121.1,211.5 114.2,207.5 117.7,208.8 124.5,212.8 				"/>
			</g>
			<g>
				<polygon class="st3" points="116.9,212.8 110,208.7 114.2,207.5 121.1,211.5 				"/>
			</g>
			<g>
				<polygon class="st3" points="104.5,229.2 97.6,225.2 97.7,225.2 104.6,229.1 				"/>
			</g>
			<g>
				<polygon class="st3" points="112.5,215.5 105.6,211.4 110,208.7 116.9,212.8 				"/>
			</g>
			<g>
				<polygon class="st3" points="104.6,229.1 97.7,225.2 98.5,222 105.5,226 				"/>
			</g>
			<g>
				<polygon class="st3" points="105.5,226 98.5,222 99.7,219.1 106.6,223.1 				"/>
			</g>
			<g>
				<polygon class="st3" points="106.6,223.1 99.7,219.1 105.6,211.4 112.5,215.5 				"/>
			</g>
			<g>
				<polygon class="st3" points="102.2,257.2 95.3,253.2 95.2,222.4 102.1,226.4 				"/>
			</g>
			<g>
				<polygon class="st3" points="100.7,222.3 93.8,218.3 98,219 105,222.9 				"/>
			</g>
			<g>
				<polygon class="st3" points="99.2,225.9 92.3,221.9 93.8,218.3 100.7,222.3 				"/>
			</g>
			<g>
				<polygon class="st3" points="116.9,212.8 121.1,211.5 124.5,212.8 126.1,216.4 123.5,219.1 122.2,216.1 119.8,215.3 
					116.6,216.2 113.4,218.2 108.7,224.3 105,233.2 105.1,255.5 102.2,257.2 102.1,226.4 99.2,225.9 100.7,222.3 105,222.9 
					105,226.1 104.5,229.2 104.6,229.1 105.5,226 106.6,223.1 112.5,215.5 				"/>
			</g>
		</g>
		<g class="st1">
			<g>
				<polygon class="st3" points="85.2,242.2 78.2,238.2 81.4,234.1 88.3,238.2 				"/>
			</g>
			<g>
				<polygon class="st3" points="88.3,238.2 81.4,234.1 82.9,229.9 89.9,233.9 				"/>
			</g>
			<g>
				<polygon class="st3" points="89.9,233.9 82.9,229.9 83.5,225.8 90.4,229.7 				"/>
			</g>
			<g>
				<polygon class="st3" points="81,245.7 74.1,241.7 78.2,238.2 85.2,242.2 				"/>
			</g>
			<g>
				<polygon class="st3" points="90.4,229.7 83.5,225.8 82.6,221.8 89.5,225.8 				"/>
			</g>
			<g>
				<polygon class="st3" points="89.5,225.8 82.6,221.8 80.4,219.5 87.3,223.6 				"/>
			</g>
			<g>
				<polygon class="st3" points="69.4,252.4 62.4,248.3 74.1,241.7 81,245.7 				"/>
			</g>
			<g>
				<polygon class="st3" points="85.1,219.9 78.1,215.8 82.2,215.9 89.1,219.9 				"/>
			</g>
			<g>
				<polygon class="st3" points="80.6,221.8 73.7,217.7 78.1,215.8 85.1,219.9 				"/>
			</g>
			<g>
				<path class="st3" d="M92.2,222.9l1.2,5.1l-0.8,5.4l-2.2,6l-4.1,5.2l-4.8,4.1l-12,7l0.1,20.4l-2.9,1.6L66.5,230l14.1-8.2l4.4-1.9
					l4.1,0.1L92.2,222.9z M89.9,233.9l0.6-4.2l-0.9-4l-2.3-2.2h-3.1l-3.9,1.6l-11,6.3l0.1,20.8l11.6-6.7l4.1-3.5l3.2-4L89.9,233.9"
					/>
			</g>
			<g>
				<polygon class="st3" points="66.4,229.9 59.6,225.9 73.7,217.7 80.6,221.8 				"/>
			</g>
			<g>
				<polygon class="st3" points="66.5,277.7 59.7,273.7 59.6,225.9 66.4,229.9 				"/>
			</g>
		</g>
		<g class="st1">
			<g>
				<polygon class="st3" points="143.9,184.3 137,180.3 138.2,180.4 145.2,184.4 				"/>
			</g>
			<g>
				<polygon class="st3" points="141.6,189.4 134.7,185.4 134.3,184.2 141.2,188.2 				"/>
			</g>
			<g>
				<polygon class="st3" points="142.7,185 135.8,181 137,180.3 143.9,184.3 				"/>
			</g>
			<g>
				<polygon class="st3" points="142.7,189.7 141.6,189.4 141.2,188.2 141.6,186.5 142.7,185 143.9,184.3 145.2,184.4 145.5,185.8 
					145.2,187.3 143.9,188.9 				"/>
			</g>
			<g>
				<polygon class="st3" points="141.2,188.2 134.3,184.2 134.7,182.5 141.6,186.5 				"/>
			</g>
			<g>
				<polygon class="st3" points="141.6,186.5 134.7,182.5 135.8,181 142.7,185 				"/>
			</g>
		</g>
		<g class="st1">
			<g>
				<polygon class="st3" points="241.1,152.7 241.1,156 228.7,163.1 228.7,159.9 				"/>
			</g>
			<g>
				<polygon class="st3" points="228.7,163.1 221.8,159.1 221.8,155.8 228.7,159.9 				"/>
			</g>
			<g>
				<polygon class="st3" points="228.7,159.9 221.8,155.8 234.2,148.7 241.1,152.7 				"/>
			</g>
		</g>
		<g class="st1">
			<g>
				<polygon class="st3" points="301.2,136.8 294.3,132.8 296.6,128.5 303.5,132.5 				"/>
			</g>
			<g>
				<polygon class="st3" points="303.5,132.5 296.6,128.5 298.8,129.6 305.6,133.7 				"/>
			</g>
			<g>
				<polygon class="st3" points="298.8,140.2 291.9,136.2 294.3,132.8 301.2,136.8 				"/>
			</g>
			<g>
				<polygon class="st3" points="295.5,142.9 288.6,138.9 291.9,136.2 298.8,140.2 				"/>
			</g>
			<g>
				<polygon class="st3" points="292.5,143.9 285.5,139.9 288.6,138.9 295.5,142.9 				"/>
			</g>
			<g>
				<polygon class="st3" points="289.5,143 282.6,139 285.5,139.9 292.5,143.9 				"/>
			</g>
			<g>
				<polygon class="st3" points="287,146.5 280.1,142.5 278.1,136.4 285,140.4 				"/>
			</g>
			<g>
				<polygon class="st3" points="285,140.4 278.1,136.4 278,113.3 284.9,117.4 				"/>
			</g>
			<g>
				<polygon class="st3" points="287.8,112.4 280.9,108.4 290.3,103 297.2,107 				"/>
			</g>
			<g>
				<polygon class="st3" points="278.8,120.9 271.8,116.9 271.8,113.6 278.7,117.6 				"/>
			</g>
			<g>
				<polygon class="st3" points="278.7,117.6 271.8,113.6 278,110.1 284.9,114.1 				"/>
			</g>
			<g>
				<polygon class="st3" points="284.9,105.5 278,101.5 280.8,99.8 287.8,103.8 				"/>
			</g>
			<g>
				<polygon class="st3" points="284.9,114.1 278,110.1 278,101.5 284.9,105.5 				"/>
			</g>
			<g>
				<polygon class="st3" points="287.8,103.8 287.8,112.4 297.2,107 297.2,110.3 287.8,115.7 287.9,138.3 289.5,143 292.5,143.9 
					295.5,142.9 298.8,140.2 301.2,136.8 303.5,132.5 305.6,133.7 303,138.3 300,142.6 295.5,146.3 291.3,147.7 287,146.5 
					285,140.4 284.9,117.4 278.8,120.9 278.7,117.6 284.9,114.1 284.9,105.5 				"/>
			</g>
		</g>
		<g class="st1">
			<g>
				<polygon class="st3" points="268.9,157.3 262,153.3 264.8,148.9 271.8,153 				"/>
			</g>
			<g>
				<polygon class="st3" points="265.7,160.1 258.8,156.1 262,153.3 268.9,157.3 				"/>
			</g>
			<g>
				<polygon class="st3" points="262,160.5 255,156.5 258.8,156.1 265.7,160.1 				"/>
			</g>
			<g>
				<polygon class="st3" points="259.7,164.3 252.9,160.3 250.4,154.5 257.4,158.5 				"/>
			</g>
			<g>
				<polygon class="st3" points="257.4,158.5 250.4,154.5 250.4,131.5 257.3,135.5 				"/>
			</g>
			<g>
				<polygon class="st3" points="247,138.3 240.1,134.3 253.3,126.7 260.1,130.7 				"/>
			</g>
			<g>
				<polygon class="st3" points="247,141.5 240.1,137.5 240.1,134.3 247,138.3 				"/>
			</g>
			<g>
				<polygon class="st3" points="271.8,153 273.6,154.4 270.3,159.7 265.5,163.6 259.7,164.3 257.4,158.5 257.3,135.5 247,141.5 
					247,138.3 260.1,130.7 260.2,156.2 262,160.5 265.7,160.1 268.9,157.3 				"/>
			</g>
		</g>
		<g class="st1">
			<g>
				<polygon class="st3" points="259.2,118.1 252.3,114.1 253.5,114.2 260.4,118.2 				"/>
			</g>
			<g>
				<polygon class="st3" points="256.9,123.1 250,119.1 249.6,118 256.4,122 				"/>
			</g>
			<g>
				<polygon class="st3" points="258,118.8 251,114.8 252.3,114.1 259.2,118.1 				"/>
			</g>
			<g>
				<polygon class="st3" points="258,123.5 256.9,123.1 256.4,122 256.9,120.2 258,118.8 259.2,118.1 260.4,118.2 260.8,119.5 
					260.4,121.1 259.2,122.8 				"/>
			</g>
			<g>
				<polygon class="st3" points="256.4,122 249.6,118 250,116.2 256.9,120.2 				"/>
			</g>
			<g>
				<polygon class="st3" points="256.9,120.2 250,116.2 251,114.8 258,118.8 				"/>
			</g>
		</g>
	</g>
</g>
<g id="font_5_">
	<g>
		<g class="st1">
			<g>
				<polygon class="st3" points="218.4,103.8 211.5,99.8 213.8,95.6 220.8,99.5 				"/>
			</g>
			<g>
				<polygon class="st3" points="220.8,99.5 213.8,95.6 215.9,96.7 222.9,100.7 				"/>
			</g>
			<g>
				<polygon class="st3" points="216,107.2 209.1,103.2 211.5,99.8 218.4,103.8 				"/>
			</g>
			<g>
				<polygon class="st3" points="212.6,109.9 205.8,105.9 209.1,103.2 216,107.2 				"/>
			</g>
			<g>
				<polygon class="st3" points="209.6,110.9 202.7,106.9 205.8,105.9 212.6,109.9 				"/>
			</g>
			<g>
				<polygon class="st3" points="206.7,110 199.8,106 202.7,106.9 209.6,110.9 				"/>
			</g>
			<g>
				<polygon class="st3" points="204.1,113.5 197.2,109.5 195.3,103.4 202.2,107.4 				"/>
			</g>
			<g>
				<polygon class="st3" points="202.2,107.4 195.3,103.4 195.2,80.4 202.1,84.4 				"/>
			</g>
			<g>
				<polygon class="st3" points="205,79.4 198,75.5 207.4,70 214.3,74 				"/>
			</g>
			<g>
				<polygon class="st3" points="196,88 189,84 189,80.6 196,84.7 				"/>
			</g>
			<g>
				<polygon class="st3" points="196,84.7 189,80.6 195.2,77.1 202.1,81.1 				"/>
			</g>
			<g>
				<polygon class="st3" points="202.1,72.5 195.2,68.5 198,66.8 204.9,70.9 				"/>
			</g>
			<g>
				<polygon class="st3" points="202.1,81.1 195.2,77.1 195.2,68.5 202.1,72.5 				"/>
			</g>
			<g>
				<polygon class="st3" points="204.9,70.9 205,79.4 214.3,74 214.3,77.3 205,82.7 205,105.3 206.7,110 209.6,110.9 212.6,109.9 
					216,107.2 218.4,103.8 220.8,99.5 222.9,100.7 220.2,105.4 217.2,109.6 212.7,113.3 208.5,114.7 204.1,113.5 202.2,107.4 
					202.1,84.4 196,88 196,84.7 202.1,81.1 202.1,72.5 				"/>
			</g>
		</g>
		<g class="st1">
			<g>
				<polygon class="st3" points="188.8,125.8 181.9,121.7 181.8,99.3 188.7,103.3 				"/>
			</g>
			<g>
				<polygon class="st3" points="188.7,103.3 181.8,99.3 181.2,95.2 188.2,99.3 				"/>
			</g>
			<g>
				<polygon class="st3" points="188.2,99.3 181.2,95.2 179.4,93.2 186.3,97.2 				"/>
			</g>
			<g>
				<polygon class="st3" points="184,93.3 177.1,89.4 181.3,89.5 188.2,93.5 				"/>
			</g>
			<g>
				<polygon class="st3" points="178.9,95.6 172,91.6 177.1,89.4 184,93.3 				"/>
			</g>
			<g>
				<polygon class="st3" points="172.4,102.1 165.5,98.1 172,91.6 178.9,95.6 				"/>
			</g>
			<g>
				<polygon class="st3" points="169.8,107.2 162.9,103.2 165.5,98.1 172.4,102.1 				"/>
			</g>
			<g>
				<polygon class="st3" points="167.1,138.3 160.1,134.3 160.1,104.1 167,108.1 				"/>
			</g>
			<g>
				<polygon class="st3" points="167,108.1 160.1,104.1 157.8,102.5 164.7,106.5 				"/>
			</g>
			<g>
				<polygon class="st3" points="164.7,106.5 157.8,102.5 160,99 166.9,103 				"/>
			</g>
			<g>
				<polygon class="st3" points="178.9,95.6 184,93.3 188.2,93.5 191,96.4 191.5,101.5 191.6,124.1 188.8,125.8 188.7,103.3 
					188.2,99.3 186.3,97.2 183.2,97.1 179.3,98.8 174.2,103.9 169.9,112.5 170,136.7 167.1,138.3 167,108.1 164.7,106.5 166.9,103 
					169.8,105.2 169.8,107.2 172.4,102.1 				"/>
			</g>
		</g>
		<g class="st1">
			<g>
				<polygon class="st3" points="153.7,142.5 146.8,138.4 149.5,134.1 156.5,138.1 				"/>
			</g>
			<g>
				<polygon class="st3" points="150.4,145.2 143.5,141.3 146.8,138.4 153.7,142.5 				"/>
			</g>
			<g>
				<polygon class="st3" points="146.6,145.7 139.8,141.7 143.5,141.3 150.4,145.2 				"/>
			</g>
			<g>
				<polygon class="st3" points="144.5,149.5 137.6,145.5 135.2,139.6 142.1,143.7 				"/>
			</g>
			<g>
				<polygon class="st3" points="142.1,143.7 135.2,139.6 135.1,116.6 142,120.7 				"/>
			</g>
			<g>
				<polygon class="st3" points="131.7,123.4 124.8,119.4 137.9,111.8 144.9,115.9 				"/>
			</g>
			<g>
				<polygon class="st3" points="131.7,126.7 124.8,122.6 124.8,119.4 131.7,123.4 				"/>
			</g>
			<g>
				<polygon class="st3" points="156.5,138.1 158.3,139.6 155,144.8 150.2,148.7 144.5,149.5 142.1,143.7 142,120.7 131.7,126.7 
					131.7,123.4 144.9,115.9 144.9,141.4 146.6,145.7 150.4,145.2 153.7,142.5 				"/>
			</g>
		</g>
		<g class="st1">
			<g>
				<polygon class="st3" points="123.5,138 116.6,133.9 115.3,131 122.2,135.1 				"/>
			</g>
			<g>
				<polygon class="st3" points="121.1,130.5 114.2,126.4 117.7,127.7 124.5,131.7 				"/>
			</g>
			<g>
				<polygon class="st3" points="116.9,131.7 110,127.7 114.2,126.4 121.1,130.5 				"/>
			</g>
			<g>
				<polygon class="st3" points="104.5,148.1 97.6,144.1 97.7,144.1 104.6,148.1 				"/>
			</g>
			<g>
				<polygon class="st3" points="112.5,134.4 105.6,130.3 110,127.7 116.9,131.7 				"/>
			</g>
			<g>
				<polygon class="st3" points="104.6,148.1 97.7,144.1 98.5,141 105.5,144.9 				"/>
			</g>
			<g>
				<polygon class="st3" points="105.5,144.9 98.5,141 99.7,138 106.6,142 				"/>
			</g>
			<g>
				<polygon class="st3" points="106.6,142 99.7,138 105.6,130.3 112.5,134.4 				"/>
			</g>
			<g>
				<polygon class="st3" points="102.2,176.1 95.3,172.1 95.2,141.3 102.1,145.3 				"/>
			</g>
			<g>
				<polygon class="st3" points="100.7,141.3 93.8,137.2 98,137.9 105,141.9 				"/>
			</g>
			<g>
				<polygon class="st3" points="99.2,144.9 92.3,140.8 93.8,137.2 100.7,141.3 				"/>
			</g>
			<g>
				<polygon class="st3" points="116.9,131.7 121.1,130.5 124.5,131.7 126.1,135.4 123.5,138 122.2,135.1 119.8,134.2 116.6,135.1 
					113.4,137.1 108.7,143.2 105,152.1 105.1,174.5 102.2,176.1 102.1,145.3 99.2,144.9 100.7,141.3 105,141.9 105,145.1 
					104.5,148.1 104.6,148.1 105.5,144.9 106.6,142 112.5,134.4 				"/>
			</g>
		</g>
		<g class="st1">
			<g>
				<polygon class="st3" points="85.2,161.1 78.2,157.1 81.4,153 88.3,157.1 				"/>
			</g>
			<g>
				<polygon class="st3" points="88.3,157.1 81.4,153 82.9,148.8 89.9,152.8 				"/>
			</g>
			<g>
				<polygon class="st3" points="89.9,152.8 82.9,148.8 83.5,144.7 90.4,148.7 				"/>
			</g>
			<g>
				<polygon class="st3" points="81,164.6 74.1,160.6 78.2,157.1 85.2,161.1 				"/>
			</g>
			<g>
				<polygon class="st3" points="90.4,148.7 83.5,144.7 82.6,140.7 89.5,144.7 				"/>
			</g>
			<g>
				<polygon class="st3" points="89.5,144.7 82.6,140.7 80.4,138.4 87.3,142.5 				"/>
			</g>
			<g>
				<polygon class="st3" points="69.4,171.3 62.4,167.2 74.1,160.6 81,164.6 				"/>
			</g>
			<g>
				<polygon class="st3" points="85.1,138.8 78.1,134.7 82.2,134.8 89.1,138.8 				"/>
			</g>
			<g>
				<polygon class="st3" points="80.6,140.7 73.7,136.6 78.1,134.7 85.1,138.8 				"/>
			</g>
			<g>
				<path class="st3" d="M92.2,141.8l1.2,5.1l-0.8,5.4l-2.2,6l-4.1,5.2l-4.8,4.1l-12,7l0.1,20.4l-2.9,1.6l-0.1-47.8l14.1-8.2
					l4.4-1.9l4.1,0.1L92.2,141.8z M89.9,152.8l0.6-4.2l-0.9-4l-2.3-2.2h-3.1l-3.9,1.6l-11,6.3l0.1,20.8l11.6-6.7l4.1-3.5l3.2-4
					L89.9,152.8"/>
			</g>
			<g>
				<polygon class="st3" points="66.4,148.9 59.6,144.8 73.7,136.6 80.6,140.7 				"/>
			</g>
			<g>
				<polygon class="st3" points="66.5,196.7 59.7,192.7 59.6,144.8 66.4,148.9 				"/>
			</g>
		</g>
		<g class="st1">
			<g>
				<polygon class="st3" points="143.9,103.2 137,99.2 138.2,99.4 145.2,103.3 				"/>
			</g>
			<g>
				<polygon class="st3" points="141.6,108.3 134.7,104.3 134.3,103.1 141.2,107.1 				"/>
			</g>
			<g>
				<polygon class="st3" points="142.7,103.9 135.8,100 137,99.2 143.9,103.2 				"/>
			</g>
			<g>
				<polygon class="st3" points="142.7,108.6 141.6,108.3 141.2,107.1 141.6,105.4 142.7,103.9 143.9,103.2 145.2,103.3 
					145.5,104.7 145.2,106.2 143.9,107.9 				"/>
			</g>
			<g>
				<polygon class="st3" points="141.2,107.1 134.3,103.1 134.7,101.4 141.6,105.4 				"/>
			</g>
			<g>
				<polygon class="st3" points="141.6,105.4 134.7,101.4 135.8,100 142.7,103.9 				"/>
			</g>
		</g>
		<g class="st1">
			<g>
				<polygon class="st3" points="241.1,71.7 241.1,74.9 228.7,82.1 228.7,78.8 				"/>
			</g>
			<g>
				<polygon class="st3" points="228.7,82.1 221.8,78 221.8,74.7 228.7,78.8 				"/>
			</g>
			<g>
				<polygon class="st3" points="228.7,78.8 221.8,74.7 234.2,67.6 241.1,71.7 				"/>
			</g>
		</g>
		<g class="st1">
			<g>
				<polygon class="st3" points="301.2,55.7 294.3,51.7 296.6,47.5 303.5,51.4 				"/>
			</g>
			<g>
				<polygon class="st3" points="303.5,51.4 296.6,47.5 298.8,48.6 305.6,52.6 				"/>
			</g>
			<g>
				<polygon class="st3" points="298.8,59.2 291.9,55.1 294.3,51.7 301.2,55.7 				"/>
			</g>
			<g>
				<polygon class="st3" points="295.5,61.8 288.6,57.8 291.9,55.1 298.8,59.2 				"/>
			</g>
			<g>
				<polygon class="st3" points="292.5,62.8 285.5,58.8 288.6,57.8 295.5,61.8 				"/>
			</g>
			<g>
				<polygon class="st3" points="289.5,61.9 282.6,57.9 285.5,58.8 292.5,62.8 				"/>
			</g>
			<g>
				<polygon class="st3" points="287,65.5 280.1,61.4 278.1,55.3 285,59.3 				"/>
			</g>
			<g>
				<polygon class="st3" points="285,59.3 278.1,55.3 278,32.3 284.9,36.3 				"/>
			</g>
			<g>
				<polygon class="st3" points="287.8,31.3 280.9,27.3 290.3,21.9 297.2,25.9 				"/>
			</g>
			<g>
				<polygon class="st3" points="278.8,39.9 271.8,35.9 271.8,32.6 278.7,36.5 				"/>
			</g>
			<g>
				<polygon class="st3" points="278.7,36.5 271.8,32.6 278,29 284.9,33 				"/>
			</g>
			<g>
				<polygon class="st3" points="284.9,24.4 278,20.4 280.8,18.7 287.8,22.8 				"/>
			</g>
			<g>
				<polygon class="st3" points="284.9,33 278,29 278,20.4 284.9,24.4 				"/>
			</g>
			<g>
				<polygon class="st3" points="287.8,22.8 287.8,31.3 297.2,25.9 297.2,29.2 287.8,34.6 287.9,57.2 289.5,61.9 292.5,62.8 
					295.5,61.8 298.8,59.2 301.2,55.7 303.5,51.4 305.6,52.6 303,57.3 300,61.5 295.5,65.2 291.3,66.6 287,65.5 285,59.3 
					284.9,36.3 278.8,39.9 278.7,36.5 284.9,33 284.9,24.4 				"/>
			</g>
		</g>
		<g class="st1">
			<g>
				<polygon class="st3" points="268.9,76.3 262,72.3 264.8,67.9 271.8,71.9 				"/>
			</g>
			<g>
				<polygon class="st3" points="265.7,79.1 258.8,75 262,72.3 268.9,76.3 				"/>
			</g>
			<g>
				<polygon class="st3" points="262,79.4 255,75.4 258.8,75 265.7,79.1 				"/>
			</g>
			<g>
				<polygon class="st3" points="259.7,83.2 252.9,79.2 250.4,73.4 257.4,77.4 				"/>
			</g>
			<g>
				<polygon class="st3" points="257.4,77.4 250.4,73.4 250.4,50.5 257.3,54.4 				"/>
			</g>
			<g>
				<polygon class="st3" points="247,57.2 240.1,53.2 253.3,45.6 260.1,49.6 				"/>
			</g>
			<g>
				<polygon class="st3" points="247,60.4 240.1,56.4 240.1,53.2 247,57.2 				"/>
			</g>
			<g>
				<polygon class="st3" points="271.8,71.9 273.6,73.4 270.3,78.6 265.5,82.5 259.7,83.2 257.4,77.4 257.3,54.4 247,60.4 247,57.2 
					260.1,49.6 260.2,75.1 262,79.4 265.7,79.1 268.9,76.3 				"/>
			</g>
		</g>
		<g class="st1">
			<g>
				<polygon class="st3" points="259.2,37 252.3,33 253.5,33.1 260.4,37.2 				"/>
			</g>
			<g>
				<polygon class="st3" points="256.9,42.1 250,38 249.6,36.9 256.4,40.9 				"/>
			</g>
			<g>
				<polygon class="st3" points="258,37.8 251,33.7 252.3,33 259.2,37 				"/>
			</g>
			<g>
				<polygon class="st3" points="258,42.4 256.9,42.1 256.4,40.9 256.9,39.2 258,37.8 259.2,37 260.4,37.2 260.8,38.4 260.4,40 
					259.2,41.7 				"/>
			</g>
			<g>
				<polygon class="st3" points="256.4,40.9 249.6,36.9 250,35.1 256.9,39.2 				"/>
			</g>
			<g>
				<polygon class="st3" points="256.9,39.2 250,35.1 251,33.7 258,37.8 				"/>
			</g>
		</g>
	</g>
</g>
<g id="font_6_">
	<g>
		<g class="st1">
			<g>
				<polygon class="st3" points="218.4,22.7 211.5,18.7 213.8,14.5 220.8,18.5 				"/>
			</g>
			<g>
				<polygon class="st3" points="220.8,18.5 213.8,14.5 215.9,15.6 222.9,19.6 				"/>
			</g>
			<g>
				<polygon class="st3" points="216,26.1 209.1,22.1 211.5,18.7 218.4,22.7 				"/>
			</g>
			<g>
				<polygon class="st3" points="212.6,28.8 205.8,24.8 209.1,22.1 216,26.1 				"/>
			</g>
			<g>
				<polygon class="st3" points="209.6,29.9 202.7,25.8 205.8,24.8 212.6,28.8 				"/>
			</g>
			<g>
				<polygon class="st3" points="206.7,28.9 199.8,25 202.7,25.8 209.6,29.9 				"/>
			</g>
			<g>
				<polygon class="st3" points="204.1,32.4 197.2,28.4 195.3,22.3 202.2,26.3 				"/>
			</g>
			<g>
				<polygon class="st3" points="202.2,26.3 195.3,22.3 195.2,-0.7 202.1,3.3 				"/>
			</g>
			<g>
				<polygon class="st3" points="205,-1.6 198,-5.6 207.4,-11.1 214.3,-7.1 				"/>
			</g>
			<g>
				<polygon class="st3" points="196,6.9 189,2.9 189,-0.5 196,3.6 				"/>
			</g>
			<g>
				<polygon class="st3" points="196,3.6 189,-0.5 195.2,-4 202.1,0 				"/>
			</g>
			<g>
				<polygon class="st3" points="202.1,-8.6 195.2,-12.6 198,-14.3 204.9,-10.2 				"/>
			</g>
			<g>
				<polygon class="st3" points="202.1,0 195.2,-4 195.2,-12.6 202.1,-8.6 				"/>
			</g>
			<g>
				<polygon class="st3" points="204.9,-10.2 205,-1.6 214.3,-7.1 214.3,-3.8 205,1.6 205,24.2 206.7,28.9 209.6,29.9 212.6,28.8 
					216,26.1 218.4,22.7 220.8,18.5 222.9,19.6 220.2,24.3 217.2,28.6 212.7,32.2 208.5,33.7 204.1,32.4 202.2,26.3 202.1,3.3 
					196,6.9 196,3.6 202.1,0 202.1,-8.6 				"/>
			</g>
		</g>
		<g class="st1">
			<g>
				<polygon class="st3" points="188.8,44.7 181.9,40.6 181.8,18.2 188.7,22.3 				"/>
			</g>
			<g>
				<polygon class="st3" points="188.7,22.3 181.8,18.2 181.2,14.2 188.2,18.2 				"/>
			</g>
			<g>
				<polygon class="st3" points="188.2,18.2 181.2,14.2 179.4,12.1 186.3,16.1 				"/>
			</g>
			<g>
				<polygon class="st3" points="184,12.3 177.1,8.3 181.3,8.5 188.2,12.5 				"/>
			</g>
			<g>
				<polygon class="st3" points="178.9,14.5 172,10.5 177.1,8.3 184,12.3 				"/>
			</g>
			<g>
				<polygon class="st3" points="172.4,21 165.5,17.1 172,10.5 178.9,14.5 				"/>
			</g>
			<g>
				<polygon class="st3" points="169.8,26.1 162.9,22.1 165.5,17.1 172.4,21 				"/>
			</g>
			<g>
				<polygon class="st3" points="167.1,57.3 160.1,53.3 160.1,23.1 167,27 				"/>
			</g>
			<g>
				<polygon class="st3" points="167,27 160.1,23.1 157.8,21.4 164.7,25.4 				"/>
			</g>
			<g>
				<polygon class="st3" points="164.7,25.4 157.8,21.4 160,18 166.9,22 				"/>
			</g>
			<g>
				<polygon class="st3" points="178.9,14.5 184,12.3 188.2,12.5 191,15.3 191.5,20.4 191.6,43 188.8,44.7 188.7,22.3 188.2,18.2 
					186.3,16.1 183.2,16 179.3,17.7 174.2,22.9 169.9,31.4 170,55.6 167.1,57.3 167,27 164.7,25.4 166.9,22 169.8,24.2 169.8,26.1 
					172.4,21 				"/>
			</g>
		</g>
		<g class="st1">
			<g>
				<polygon class="st3" points="153.7,61.4 146.8,57.4 149.5,53 156.5,57.1 				"/>
			</g>
			<g>
				<polygon class="st3" points="150.4,64.2 143.5,60.2 146.8,57.4 153.7,61.4 				"/>
			</g>
			<g>
				<polygon class="st3" points="146.6,64.6 139.8,60.6 143.5,60.2 150.4,64.2 				"/>
			</g>
			<g>
				<polygon class="st3" points="144.5,68.4 137.6,64.4 135.2,58.5 142.1,62.6 				"/>
			</g>
			<g>
				<polygon class="st3" points="142.1,62.6 135.2,58.5 135.1,35.6 142,39.6 				"/>
			</g>
			<g>
				<polygon class="st3" points="131.7,42.4 124.8,38.3 137.9,30.7 144.9,34.8 				"/>
			</g>
			<g>
				<polygon class="st3" points="131.7,45.6 124.8,41.5 124.8,38.3 131.7,42.4 				"/>
			</g>
			<g>
				<polygon class="st3" points="156.5,57.1 158.3,58.5 155,63.7 150.2,67.7 144.5,68.4 142.1,62.6 142,39.6 131.7,45.6 131.7,42.4 
					144.9,34.8 144.9,60.3 146.6,64.6 150.4,64.2 153.7,61.4 				"/>
			</g>
		</g>
		<g class="st1">
			<g>
				<polygon class="st3" points="123.5,56.9 116.6,52.8 115.3,50 122.2,54 				"/>
			</g>
			<g>
				<polygon class="st3" points="121.1,49.4 114.2,45.3 117.7,46.6 124.5,50.6 				"/>
			</g>
			<g>
				<polygon class="st3" points="116.9,50.6 110,46.6 114.2,45.3 121.1,49.4 				"/>
			</g>
			<g>
				<polygon class="st3" points="104.5,67.1 97.6,63.1 97.7,63 104.6,67 				"/>
			</g>
			<g>
				<polygon class="st3" points="112.5,53.3 105.6,49.2 110,46.6 116.9,50.6 				"/>
			</g>
			<g>
				<polygon class="st3" points="104.6,67 97.7,63 98.5,59.9 105.5,63.9 				"/>
			</g>
			<g>
				<polygon class="st3" points="105.5,63.9 98.5,59.9 99.7,56.9 106.6,60.9 				"/>
			</g>
			<g>
				<polygon class="st3" points="106.6,60.9 99.7,56.9 105.6,49.2 112.5,53.3 				"/>
			</g>
			<g>
				<polygon class="st3" points="102.2,95 95.3,91 95.2,60.3 102.1,64.2 				"/>
			</g>
			<g>
				<polygon class="st3" points="100.7,60.2 93.8,56.1 98,56.8 105,60.8 				"/>
			</g>
			<g>
				<polygon class="st3" points="99.2,63.8 92.3,59.7 93.8,56.1 100.7,60.2 				"/>
			</g>
			<g>
				<polygon class="st3" points="116.9,50.6 121.1,49.4 124.5,50.6 126.1,54.3 123.5,56.9 122.2,54 119.8,53.1 116.6,54 113.4,56 
					108.7,62.2 105,71 105.1,93.4 102.2,95 102.1,64.2 99.2,63.8 100.7,60.2 105,60.8 105,64 104.5,67.1 104.6,67 105.5,63.9 
					106.6,60.9 112.5,53.3 				"/>
			</g>
		</g>
		<g class="st1">
			<g>
				<polygon class="st3" points="85.2,80 78.2,76 81.4,72 88.3,76 				"/>
			</g>
			<g>
				<polygon class="st3" points="88.3,76 81.4,72 82.9,67.7 89.9,71.8 				"/>
			</g>
			<g>
				<polygon class="st3" points="89.9,71.8 82.9,67.7 83.5,63.6 90.4,67.6 				"/>
			</g>
			<g>
				<polygon class="st3" points="81,83.5 74.1,79.5 78.2,76 85.2,80 				"/>
			</g>
			<g>
				<polygon class="st3" points="90.4,67.6 83.5,63.6 82.6,59.6 89.5,63.6 				"/>
			</g>
			<g>
				<polygon class="st3" points="89.5,63.6 82.6,59.6 80.4,57.4 87.3,61.4 				"/>
			</g>
			<g>
				<polygon class="st3" points="69.4,90.2 62.4,86.2 74.1,79.5 81,83.5 				"/>
			</g>
			<g>
				<polygon class="st3" points="85.1,57.7 78.1,53.6 82.2,53.7 89.1,57.7 				"/>
			</g>
			<g>
				<polygon class="st3" points="80.6,59.6 73.7,55.5 78.1,53.6 85.1,57.7 				"/>
			</g>
			<g>
				<path class="st3" d="M92.2,60.7l1.2,5.1l-0.8,5.4l-2.2,6l-4.1,5.2l-4.8,4.1l-12,7l0.1,20.4l-2.9,1.6l-0.1-47.8l14.1-8.2l4.4-1.9
					l4.1,0.1L92.2,60.7z M89.9,71.8l0.6-4.2l-0.9-4l-2.3-2.2h-3.1l-3.9,1.6l-11,6.3l0.1,20.8L81,83.5l4.1-3.5l3.2-4L89.9,71.8"/>
			</g>
			<g>
				<polygon class="st3" points="66.4,67.8 59.6,63.7 73.7,55.5 80.6,59.6 				"/>
			</g>
			<g>
				<polygon class="st3" points="66.5,115.6 59.7,111.6 59.6,63.7 66.4,67.8 				"/>
			</g>
		</g>
		<g class="st1">
			<g>
				<polygon class="st3" points="143.9,22.1 137,18.2 138.2,18.3 145.2,22.3 				"/>
			</g>
			<g>
				<polygon class="st3" points="141.6,27.2 134.7,23.2 134.3,22 141.2,26.1 				"/>
			</g>
			<g>
				<polygon class="st3" points="142.7,22.9 135.8,18.9 137,18.2 143.9,22.1 				"/>
			</g>
			<g>
				<polygon class="st3" points="142.7,27.5 141.6,27.2 141.2,26.1 141.6,24.3 142.7,22.9 143.9,22.1 145.2,22.3 145.5,23.6 
					145.2,25.1 143.9,26.8 				"/>
			</g>
			<g>
				<polygon class="st3" points="141.2,26.1 134.3,22 134.7,20.3 141.6,24.3 				"/>
			</g>
			<g>
				<polygon class="st3" points="141.6,24.3 134.7,20.3 135.8,18.9 142.7,22.9 				"/>
			</g>
		</g>
		<g class="st1">
			<g>
				<polygon class="st3" points="241.1,-9.4 241.1,-6.2 228.7,1 228.7,-2.3 				"/>
			</g>
			<g>
				<polygon class="st3" points="228.7,1 221.8,-3.1 221.8,-6.3 228.7,-2.3 				"/>
			</g>
			<g>
				<polygon class="st3" points="228.7,-2.3 221.8,-6.3 234.2,-13.5 241.1,-9.4 				"/>
			</g>
		</g>
		<g class="st1">
			<g>
				<polygon class="st3" points="301.2,-25.4 294.3,-29.4 296.6,-33.6 303.5,-29.6 				"/>
			</g>
			<g>
				<polygon class="st3" points="303.5,-29.6 296.6,-33.6 298.8,-32.5 305.6,-28.5 				"/>
			</g>
			<g>
				<polygon class="st3" points="298.8,-21.9 291.9,-26 294.3,-29.4 301.2,-25.4 				"/>
			</g>
			<g>
				<polygon class="st3" points="295.5,-19.3 288.6,-23.3 291.9,-26 298.8,-21.9 				"/>
			</g>
			<g>
				<polygon class="st3" points="292.5,-18.2 285.5,-22.3 288.6,-23.3 295.5,-19.3 				"/>
			</g>
			<g>
				<polygon class="st3" points="289.5,-19.2 282.6,-23.2 285.5,-22.3 292.5,-18.2 				"/>
			</g>
			<g>
				<polygon class="st3" points="287,-15.6 280.1,-19.7 278.1,-25.8 285,-21.8 				"/>
			</g>
			<g>
				<polygon class="st3" points="285,-21.8 278.1,-25.8 278,-48.8 284.9,-44.8 				"/>
			</g>
			<g>
				<polygon class="st3" points="287.8,-49.7 280.9,-53.8 290.3,-59.2 297.2,-55.1 				"/>
			</g>
			<g>
				<polygon class="st3" points="278.8,-41.2 271.8,-45.2 271.8,-48.5 278.7,-44.5 				"/>
			</g>
			<g>
				<polygon class="st3" points="278.7,-44.5 271.8,-48.5 278,-52.1 284.9,-48.1 				"/>
			</g>
			<g>
				<polygon class="st3" points="284.9,-56.7 278,-60.7 280.8,-62.4 287.8,-58.3 				"/>
			</g>
			<g>
				<polygon class="st3" points="284.9,-48.1 278,-52.1 278,-60.7 284.9,-56.7 				"/>
			</g>
			<g>
				<polygon class="st3" points="287.8,-58.3 287.8,-49.7 297.2,-55.1 297.2,-51.9 287.8,-46.5 287.9,-23.9 289.5,-19.2 
					292.5,-18.2 295.5,-19.3 298.8,-21.9 301.2,-25.4 303.5,-29.6 305.6,-28.5 303,-23.8 300,-19.6 295.5,-15.8 291.3,-14.4 
					287,-15.6 285,-21.8 284.9,-44.8 278.8,-41.2 278.7,-44.5 284.9,-48.1 284.9,-56.7 				"/>
			</g>
		</g>
		<g class="st1">
			<g>
				<polygon class="st3" points="268.9,-4.8 262,-8.8 264.8,-13.2 271.8,-9.2 				"/>
			</g>
			<g>
				<polygon class="st3" points="265.7,-2 258.8,-6.1 262,-8.8 268.9,-4.8 				"/>
			</g>
			<g>
				<polygon class="st3" points="262,-1.6 255,-5.7 258.8,-6.1 265.7,-2 				"/>
			</g>
			<g>
				<polygon class="st3" points="259.7,2.2 252.9,-1.9 250.4,-7.6 257.4,-3.7 				"/>
			</g>
			<g>
				<polygon class="st3" points="257.4,-3.7 250.4,-7.6 250.4,-30.6 257.3,-26.6 				"/>
			</g>
			<g>
				<polygon class="st3" points="247,-23.9 240.1,-27.9 253.3,-35.5 260.1,-31.5 				"/>
			</g>
			<g>
				<polygon class="st3" points="247,-20.7 240.1,-24.7 240.1,-27.9 247,-23.9 				"/>
			</g>
			<g>
				<polygon class="st3" points="271.8,-9.2 273.6,-7.7 270.3,-2.5 265.5,1.4 259.7,2.2 257.4,-3.7 257.3,-26.6 247,-20.7 
					247,-23.9 260.1,-31.5 260.2,-5.9 262,-1.6 265.7,-2 268.9,-4.8 				"/>
			</g>
		</g>
		<g class="st1">
			<g>
				<polygon class="st3" points="259.2,-44 252.3,-48.1 253.5,-48 260.4,-43.9 				"/>
			</g>
			<g>
				<polygon class="st3" points="256.9,-39 250,-43.1 249.6,-44.2 256.4,-40.2 				"/>
			</g>
			<g>
				<polygon class="st3" points="258,-43.3 251,-47.4 252.3,-48.1 259.2,-44 				"/>
			</g>
			<g>
				<polygon class="st3" points="258,-38.7 256.9,-39 256.4,-40.2 256.9,-41.9 258,-43.3 259.2,-44 260.4,-43.9 260.8,-42.6 
					260.4,-41 259.2,-39.4 				"/>
			</g>
			<g>
				<polygon class="st3" points="256.4,-40.2 249.6,-44.2 250,-45.9 256.9,-41.9 				"/>
			</g>
			<g>
				<polygon class="st3" points="256.9,-41.9 250,-45.9 251,-47.4 258,-43.3 				"/>
			</g>
		</g>
	</g>
</g>
<g id="font_7_">
	<g>
		<g class="st1">
			<g>
				<polygon class="st3" points="218.4,-62.2 211.5,-66.2 213.8,-70.5 220.8,-66.5 				"/>
			</g>
			<g>
				<polygon class="st3" points="220.8,-66.5 213.8,-70.5 215.9,-69.3 222.9,-65.3 				"/>
			</g>
			<g>
				<polygon class="st3" points="216,-58.8 209.1,-62.8 211.5,-66.2 218.4,-62.2 				"/>
			</g>
			<g>
				<polygon class="st3" points="212.6,-56.1 205.8,-60.1 209.1,-62.8 216,-58.8 				"/>
			</g>
			<g>
				<polygon class="st3" points="209.6,-55.1 202.7,-59.1 205.8,-60.1 212.6,-56.1 				"/>
			</g>
			<g>
				<polygon class="st3" points="206.7,-56 199.8,-60 202.7,-59.1 209.6,-55.1 				"/>
			</g>
			<g>
				<polygon class="st3" points="204.1,-52.5 197.2,-56.5 195.3,-62.6 202.2,-58.6 				"/>
			</g>
			<g>
				<polygon class="st3" points="202.2,-58.6 195.3,-62.6 195.2,-85.7 202.1,-81.6 				"/>
			</g>
			<g>
				<polygon class="st3" points="205,-86.6 198,-90.6 207.4,-96 214.3,-92 				"/>
			</g>
			<g>
				<polygon class="st3" points="196,-78.1 189,-82.1 189,-85.4 196,-81.3 				"/>
			</g>
			<g>
				<polygon class="st3" points="196,-81.3 189,-85.4 195.2,-88.9 202.1,-84.9 				"/>
			</g>
			<g>
				<polygon class="st3" points="202.1,-93.5 195.2,-97.6 198,-99.2 204.9,-95.1 				"/>
			</g>
			<g>
				<polygon class="st3" points="202.1,-84.9 195.2,-88.9 195.2,-97.6 202.1,-93.5 				"/>
			</g>
			<g>
				<polygon class="st3" points="204.9,-95.1 205,-86.6 214.3,-92 214.3,-88.7 205,-83.3 205,-60.7 206.7,-56 209.6,-55.1 
					212.6,-56.1 216,-58.8 218.4,-62.2 220.8,-66.5 222.9,-65.3 220.2,-60.6 217.2,-56.4 212.7,-52.7 208.5,-51.3 204.1,-52.5 
					202.2,-58.6 202.1,-81.6 196,-78.1 196,-81.3 202.1,-84.9 202.1,-93.5 				"/>
			</g>
		</g>
		<g class="st1">
			<g>
				<polygon class="st3" points="188.8,-40.3 181.9,-44.3 181.8,-66.7 188.7,-62.7 				"/>
			</g>
			<g>
				<polygon class="st3" points="188.7,-62.7 181.8,-66.7 181.2,-70.8 188.2,-66.7 				"/>
			</g>
			<g>
				<polygon class="st3" points="188.2,-66.7 181.2,-70.8 179.4,-72.9 186.3,-68.8 				"/>
			</g>
			<g>
				<polygon class="st3" points="184,-72.7 177.1,-76.7 181.3,-76.5 188.2,-72.5 				"/>
			</g>
			<g>
				<polygon class="st3" points="178.9,-70.5 172,-74.5 177.1,-76.7 184,-72.7 				"/>
			</g>
			<g>
				<polygon class="st3" points="172.4,-63.9 165.5,-67.9 172,-74.5 178.9,-70.5 				"/>
			</g>
			<g>
				<polygon class="st3" points="169.8,-58.8 162.9,-62.8 165.5,-67.9 172.4,-63.9 				"/>
			</g>
			<g>
				<polygon class="st3" points="167.1,-27.7 160.1,-31.7 160.1,-61.9 167,-57.9 				"/>
			</g>
			<g>
				<polygon class="st3" points="167,-57.9 160.1,-61.9 157.8,-63.5 164.7,-59.5 				"/>
			</g>
			<g>
				<polygon class="st3" points="164.7,-59.5 157.8,-63.5 160,-67 166.9,-63 				"/>
			</g>
			<g>
				<polygon class="st3" points="178.9,-70.5 184,-72.7 188.2,-72.5 191,-69.6 191.5,-64.5 191.6,-41.9 188.8,-40.3 188.7,-62.7 
					188.2,-66.7 186.3,-68.8 183.2,-68.9 179.3,-67.2 174.2,-62.1 169.9,-53.6 170,-29.3 167.1,-27.7 167,-57.9 164.7,-59.5 
					166.9,-63 169.8,-60.8 169.8,-58.8 172.4,-63.9 				"/>
			</g>
		</g>
		<g class="st1">
			<g>
				<polygon class="st3" points="153.7,-23.5 146.8,-27.6 149.5,-31.9 156.5,-27.9 				"/>
			</g>
			<g>
				<polygon class="st3" points="150.4,-20.8 143.5,-24.8 146.8,-27.6 153.7,-23.5 				"/>
			</g>
			<g>
				<polygon class="st3" points="146.6,-20.3 139.8,-24.3 143.5,-24.8 150.4,-20.8 				"/>
			</g>
			<g>
				<polygon class="st3" points="144.5,-16.6 137.6,-20.5 135.2,-26.4 142.1,-22.3 				"/>
			</g>
			<g>
				<polygon class="st3" points="142.1,-22.3 135.2,-26.4 135.1,-49.4 142,-45.3 				"/>
			</g>
			<g>
				<polygon class="st3" points="131.7,-42.6 124.8,-46.6 137.9,-54.2 144.9,-50.1 				"/>
			</g>
			<g>
				<polygon class="st3" points="131.7,-39.3 124.8,-43.4 124.8,-46.6 131.7,-42.6 				"/>
			</g>
			<g>
				<polygon class="st3" points="156.5,-27.9 158.3,-26.4 155,-21.2 150.2,-17.3 144.5,-16.6 142.1,-22.3 142,-45.3 131.7,-39.3 
					131.7,-42.6 144.9,-50.1 144.9,-24.6 146.6,-20.3 150.4,-20.8 153.7,-23.5 				"/>
			</g>
		</g>
		<g class="st1">
			<g>
				<polygon class="st3" points="123.5,-28 116.6,-32.1 115.3,-35 122.2,-31 				"/>
			</g>
			<g>
				<polygon class="st3" points="121.1,-35.5 114.2,-39.6 117.7,-38.3 124.5,-34.3 				"/>
			</g>
			<g>
				<polygon class="st3" points="116.9,-34.3 110,-38.4 114.2,-39.6 121.1,-35.5 				"/>
			</g>
			<g>
				<polygon class="st3" points="104.5,-17.9 97.6,-21.9 97.7,-21.9 104.6,-18 				"/>
			</g>
			<g>
				<polygon class="st3" points="112.5,-31.6 105.6,-35.7 110,-38.4 116.9,-34.3 				"/>
			</g>
			<g>
				<polygon class="st3" points="104.6,-18 97.7,-21.9 98.5,-25.1 105.5,-21.1 				"/>
			</g>
			<g>
				<polygon class="st3" points="105.5,-21.1 98.5,-25.1 99.7,-28 106.6,-24 				"/>
			</g>
			<g>
				<polygon class="st3" points="106.6,-24 99.7,-28 105.6,-35.7 112.5,-31.6 				"/>
			</g>
			<g>
				<polygon class="st3" points="102.2,10.1 95.3,6.1 95.2,-24.7 102.1,-20.7 				"/>
			</g>
			<g>
				<polygon class="st3" points="100.7,-24.8 93.8,-28.8 98,-28.1 105,-24.1 				"/>
			</g>
			<g>
				<polygon class="st3" points="99.2,-21.1 92.3,-25.2 93.8,-28.8 100.7,-24.8 				"/>
			</g>
			<g>
				<polygon class="st3" points="116.9,-34.3 121.1,-35.5 124.5,-34.3 126.1,-30.6 123.5,-28 122.2,-31 119.8,-31.8 116.6,-30.9 
					113.4,-28.9 108.7,-22.8 105,-13.9 105.1,8.4 102.2,10.1 102.1,-20.7 99.2,-21.1 100.7,-24.8 105,-24.1 105,-21 104.5,-17.9 
					104.6,-18 105.5,-21.1 106.6,-24 112.5,-31.6 				"/>
			</g>
		</g>
		<g class="st1">
			<g>
				<polygon class="st3" points="85.2,-4.9 78.2,-8.9 81.4,-13 88.3,-8.9 				"/>
			</g>
			<g>
				<polygon class="st3" points="88.3,-8.9 81.4,-13 82.9,-17.2 89.9,-13.2 				"/>
			</g>
			<g>
				<polygon class="st3" points="89.9,-13.2 82.9,-17.2 83.5,-21.3 90.4,-17.3 				"/>
			</g>
			<g>
				<polygon class="st3" points="81,-1.4 74.1,-5.4 78.2,-8.9 85.2,-4.9 				"/>
			</g>
			<g>
				<polygon class="st3" points="90.4,-17.3 83.5,-21.3 82.6,-25.3 89.5,-21.3 				"/>
			</g>
			<g>
				<polygon class="st3" points="89.5,-21.3 82.6,-25.3 80.4,-27.6 87.3,-23.5 				"/>
			</g>
			<g>
				<polygon class="st3" points="69.4,5.3 62.4,1.2 74.1,-5.4 81,-1.4 				"/>
			</g>
			<g>
				<polygon class="st3" points="85.1,-27.2 78.1,-31.3 82.2,-31.2 89.1,-27.2 				"/>
			</g>
			<g>
				<polygon class="st3" points="80.6,-25.3 73.7,-29.4 78.1,-31.3 85.1,-27.2 				"/>
			</g>
			<g>
				<path class="st3" d="M92.2-24.2l1.2,5.1l-0.8,5.4l-2.2,6l-4.1,5.2l-4.8,4.1l-12,7L69.5,29l-2.9,1.6l-0.1-47.8l14.1-8.2l4.4-1.9
					l4.1,0.1L92.2-24.2z M89.9-13.2l0.6-4.2l-0.9-4l-2.3-2.2h-3.1l-3.9,1.6l-11,6.3l0.1,20.8L81-1.4l4.1-3.5l3.2-4L89.9-13.2"/>
			</g>
			<g>
				<polygon class="st3" points="66.4,-17.2 59.6,-21.2 73.7,-29.4 80.6,-25.3 				"/>
			</g>
			<g>
				<polygon class="st3" points="66.5,30.6 59.7,26.6 59.6,-21.2 66.4,-17.2 				"/>
			</g>
		</g>
		<g class="st1">
			<g>
				<polygon class="st3" points="143.9,-62.8 137,-66.8 138.2,-66.7 145.2,-62.7 				"/>
			</g>
			<g>
				<polygon class="st3" points="141.6,-57.7 134.7,-61.7 134.3,-62.9 141.2,-58.9 				"/>
			</g>
			<g>
				<polygon class="st3" points="142.7,-62.1 135.8,-66.1 137,-66.8 143.9,-62.8 				"/>
			</g>
			<g>
				<polygon class="st3" points="142.7,-57.4 141.6,-57.7 141.2,-58.9 141.6,-60.6 142.7,-62.1 143.9,-62.8 145.2,-62.7 
					145.5,-61.3 145.2,-59.8 143.9,-58.2 				"/>
			</g>
			<g>
				<polygon class="st3" points="141.2,-58.9 134.3,-62.9 134.7,-64.6 141.6,-60.6 				"/>
			</g>
			<g>
				<polygon class="st3" points="141.6,-60.6 134.7,-64.6 135.8,-66.1 142.7,-62.1 				"/>
			</g>
		</g>
		<g class="st1">
			<g>
				<polygon class="st3" points="241.1,-94.4 241.1,-91.1 228.7,-84 228.7,-87.2 				"/>
			</g>
			<g>
				<polygon class="st3" points="228.7,-84 221.8,-88 221.8,-91.3 228.7,-87.2 				"/>
			</g>
			<g>
				<polygon class="st3" points="228.7,-87.2 221.8,-91.3 234.2,-98.4 241.1,-94.4 				"/>
			</g>
		</g>
		<g class="st1">
			<g>
				<polygon class="st3" points="301.2,-110.3 294.3,-114.3 296.6,-118.6 303.5,-114.6 				"/>
			</g>
			<g>
				<polygon class="st3" points="303.5,-114.6 296.6,-118.6 298.8,-117.5 305.6,-113.4 				"/>
			</g>
			<g>
				<polygon class="st3" points="298.8,-106.9 291.9,-110.9 294.3,-114.3 301.2,-110.3 				"/>
			</g>
			<g>
				<polygon class="st3" points="295.5,-104.2 288.6,-108.2 291.9,-110.9 298.8,-106.9 				"/>
			</g>
			<g>
				<polygon class="st3" points="292.5,-103.2 285.5,-107.2 288.6,-108.2 295.5,-104.2 				"/>
			</g>
			<g>
				<polygon class="st3" points="289.5,-104.1 282.6,-108.1 285.5,-107.2 292.5,-103.2 				"/>
			</g>
			<g>
				<polygon class="st3" points="287,-100.6 280.1,-104.6 278.1,-110.7 285,-106.7 				"/>
			</g>
			<g>
				<polygon class="st3" points="285,-106.7 278.1,-110.7 278,-133.8 284.9,-129.7 				"/>
			</g>
			<g>
				<polygon class="st3" points="287.8,-134.7 280.9,-138.7 290.3,-144.1 297.2,-140.1 				"/>
			</g>
			<g>
				<polygon class="st3" points="278.8,-126.2 271.8,-130.2 271.8,-133.5 278.7,-129.5 				"/>
			</g>
			<g>
				<polygon class="st3" points="278.7,-129.5 271.8,-133.5 278,-137 284.9,-133 				"/>
			</g>
			<g>
				<polygon class="st3" points="284.9,-141.6 278,-145.6 280.8,-147.3 287.8,-143.3 				"/>
			</g>
			<g>
				<polygon class="st3" points="284.9,-133 278,-137 278,-145.6 284.9,-141.6 				"/>
			</g>
			<g>
				<polygon class="st3" points="287.8,-143.3 287.8,-134.7 297.2,-140.1 297.2,-136.8 287.8,-131.4 287.9,-108.8 289.5,-104.1 
					292.5,-103.2 295.5,-104.2 298.8,-106.9 301.2,-110.3 303.5,-114.6 305.6,-113.4 303,-108.8 300,-104.5 295.5,-100.8 
					291.3,-99.4 287,-100.6 285,-106.7 284.9,-129.7 278.8,-126.2 278.7,-129.5 284.9,-133 284.9,-141.6 				"/>
			</g>
		</g>
		<g class="st1">
			<g>
				<polygon class="st3" points="268.9,-89.8 262,-93.8 264.8,-98.2 271.8,-94.1 				"/>
			</g>
			<g>
				<polygon class="st3" points="265.7,-87 258.8,-91 262,-93.8 268.9,-89.8 				"/>
			</g>
			<g>
				<polygon class="st3" points="262,-86.6 255,-90.6 258.8,-91 265.7,-87 				"/>
			</g>
			<g>
				<polygon class="st3" points="259.7,-82.8 252.9,-86.8 250.4,-92.6 257.4,-88.6 				"/>
			</g>
			<g>
				<polygon class="st3" points="257.4,-88.6 250.4,-92.6 250.4,-115.6 257.3,-111.6 				"/>
			</g>
			<g>
				<polygon class="st3" points="247,-108.8 240.1,-112.8 253.3,-120.4 260.1,-116.4 				"/>
			</g>
			<g>
				<polygon class="st3" points="247,-105.6 240.1,-109.6 240.1,-112.8 247,-108.8 				"/>
			</g>
			<g>
				<polygon class="st3" points="271.8,-94.1 273.6,-92.7 270.3,-87.4 265.5,-83.5 259.7,-82.8 257.4,-88.6 257.3,-111.6 
					247,-105.6 247,-108.8 260.1,-116.4 260.2,-90.9 262,-86.6 265.7,-87 268.9,-89.8 				"/>
			</g>
		</g>
		<g class="st1">
			<g>
				<polygon class="st3" points="259.2,-129 252.3,-133 253.5,-132.9 260.4,-128.9 				"/>
			</g>
			<g>
				<polygon class="st3" points="256.9,-124 250,-128 249.6,-129.1 256.4,-125.1 				"/>
			</g>
			<g>
				<polygon class="st3" points="258,-128.3 251,-132.3 252.3,-133 259.2,-129 				"/>
			</g>
			<g>
				<polygon class="st3" points="258,-123.6 256.9,-124 256.4,-125.1 256.9,-126.8 258,-128.3 259.2,-129 260.4,-128.9 
					260.8,-127.6 260.4,-126 259.2,-124.3 				"/>
			</g>
			<g>
				<polygon class="st3" points="256.4,-125.1 249.6,-129.1 250,-130.9 256.9,-126.8 				"/>
			</g>
			<g>
				<polygon class="st3" points="256.9,-126.8 250,-130.9 251,-132.3 258,-128.3 				"/>
			</g>
		</g>
	</g>
</g>
<path class="st4" d="M173,505.6V504h-5v-1.7h-1.7v-1.7h-1.7V499H163v-3.3h-1.7v-13.3h1.7V479h1.7v-1.7h1.7v-1.7h1.7V474h5v-1.7h8.3
	v1.7h5v1.7h1.7v3.3h1.7v1.7h1.7v1.7h-6.6v-1.7h-1.7V479h-3.3v-1.7h-5v1.7h-3.3v1.7h-1.7v1.7H168v3.3h-1.7v6.6h1.7v3.3h1.7v1.7h1.7
	v1.7h3.3v1.7h5V499h3.3v-1.7h1.7v-1.7h6.6v1.7h-1.7v1.7h-1.7v3.3h-1.7v1.7h-5v1.7L173,505.6L173,505.6z"/>
<path class="st4" d="M207.6,505.3v-2.6h-4.8v-2.6h-1.6v-2.6h-1.6v-2.6H198v-5.1h-1.6v-20.6h1.6v-5.1h1.6v-2.6h1.6v-2.6h1.6v-2.6h4.8
	v-2.6h8.1v2.6h4.8v2.6h1.6v2.6h1.6v2.6h1.6v5.1h1.6v20.6h-1.6v5.1h-1.6v2.6h-1.6v2.6h-1.6v2.6h-4.9v2.6H207.6z M214,497.6V495h3.2
	v-2.6h1.6v-2.6h1.6v-5.1h1.6v-10.3h-1.6v-5.1h-1.6v-2.6h-1.6v-2.6H214v-2.6h-4.8v2.6H206v2.6h-1.6v2.6h-1.6v5.1h-1.6v10.3h1.6v5.1
	h1.6v2.6h1.6v2.6h3.2v2.6H214z"/>
<path class="st4" d="M231.1,505.6v-66.6h7.6v10h1.5v6.6h1.5v10h1.5v10h1.5V489h1.5v-13.3h1.5v-10h1.5v-10h1.5V449h1.5v-10h7.6v66.6
	h-4.6v-49.9h-1.5v6.6h-1.5v13.3h-1.5V489h-1.5v10h-1.5v6.7h-4.6V499h-1.5v-10h-1.5v-13.3h-1.5v-13.3h-1.5v-6.6h-1.5v49.9H231.1z"/>
<path class="st4" d="M264.6,505.4v-77.7h19.8v3.9h1.8v3.9h1.8v3.9h1.8v19.4h-1.8v3.9h-1.8v4h-1.8v3.9H270v35L264.6,505.4
	L264.6,505.4z M282.5,458.7v-3.9h1.8v-11.7h-1.8v-3.9H270v19.4L282.5,458.7L282.5,458.7z"/>
<path class="st4" d="M301,505.3v-5h-3.3v-5h-1.7v-10h-1.7v-79.6h5v69.7h1.7v10h1.7v5h8.3v-5h1.7v-10h1.7v-69.7h5v79.6h-1.7v10H316v5
	h-3.3v5H301z"/>
<path class="st4" d="M334,486.2v-68.4h-11.1v-12.1h27.1v12.1h-11.1v68.4L334,486.2L334,486.2z"/>
<path class="st4" d="M353.5,486.2v-80.5h21.6v12.1h-16.2v20.1h16.2V450h-16.2v24.2h16.2v12.1L353.5,486.2L353.5,486.2z"/>
<path class="st4" d="M383.1,486.2v-80.5h17.8v4h1.6v4h1.6v4h1.6v20.1h-1.6v4h-1.6v4h-1.6v4H396v4h1.6v4h1.6v4h1.6v4h1.6v4h1.6v4h1.6
	v4h1.6v4h1.6v4h-6.5v-4H401v-4h-1.6v-4h-1.6v-4h-1.6v-4h-1.6v-4h-1.6v-4h-1.7v-4h-1.6v-4h-1.6v36.2L383.1,486.2L383.1,486.2z
	 M399.2,437.9v-4h1.6v-12.1h-1.6v-4h-11.3v20.1H399.2z"/>
<path class="st4" d="M173,571.8v-2.9h-5V566h-1.7v-2.9h-1.7v-2.9H163v-5.9h-1.7v-23.3h1.7v-5.9h1.7v-2.9h1.7v-2.9h1.7v-2.9h5v-2.9
	h8.3v2.9h5v2.9h1.7v5.9h1.7v2.9h1.7v2.9h-6.6v-2.9h-1.7v-2.9h-3.3v-2.9h-5v2.9h-3.3v2.9h-1.7v2.9H168v5.8h-1.7v11.7h1.7v5.9h1.7v2.9
	h1.7v2.9h3.3v2.9h5v-2.9h3.3v-2.9h1.7v-2.9h1.7v-5.9h-10v-8.7h14.9v17.5h-1.7v2.9h-1.7v5.9h-1.7v2.9h-5v2.9L173,571.8L173,571.8z"/>
<path class="st4" d="M198.1,571.8v-58.4h19.8v2.9h1.8v2.9h1.8v2.9h1.8v14.6h-1.8v2.9h-1.8v2.9h-1.8v2.9h-5.4v2.9h1.8v2.9h1.8v2.9
	h1.8v2.9h1.8v2.9h1.8v2.9h1.8v2.9h1.8v2.9h1.8v2.9h-7.2V569h-1.8v-2.9h-1.8v-2.9h-1.8v-2.9h-1.8v-2.9h-1.8v-2.9h-1.8v-2.9h-1.8v-2.9
	h-1.8v-2.9h-1.8v26.3H198.1z M216.2,536.8v-2.9h1.8v-8.7h-1.8v-2.9h-12.6v14.6H216.2z"/>
<path class="st4" d="M231.1,571.8v-58.4h19.8v2.9h1.8v2.9h1.8v2.9h1.8v14.6h-1.8v2.9h-1.8v2.9h-1.8v2.9h-5.4v2.9h1.8v2.9h1.8v2.9
	h1.8v2.9h1.8v2.9h1.8v2.9h1.8v2.9h1.8v2.9h1.8v2.9h-7.2V569h-1.8v-2.9H249v-2.9h-1.8v-2.9h-1.8v-2.9h-1.8v-2.9h-1.8v-2.9h-1.8v-2.9
	h-1.8v-2.9h-1.8v26.3H231.1z M249.1,536.8v-2.9h1.8v-8.7h-1.8v-2.9h-12.6v14.6H249.1z"/>
<path class="st4" d="M264.5,571.8v-58.4h19.8v2.9h1.8v2.9h1.8v2.9h1.8v14.6h-1.8v2.9h-1.8v2.9h-1.8v2.9h-5.4v2.9h1.8v2.9h1.8v2.9
	h1.8v2.9h1.8v2.9h1.8v2.9h1.8v2.9h1.8v2.9h1.8v2.9H286V569h-1.8v-2.9h-1.8v-2.9h-1.8v-2.9h-1.8v-2.9h-1.8v-2.9h-1.8v-2.9h-1.8v-2.9
	h-1.8v-2.9H270v26.3H264.5z M282.5,536.8v-2.9h1.8v-8.7h-1.8v-2.9h-12.6v14.6H282.5z"/>
<path class="st4" d="M297.7,571.8v-58.4h5.4v49.6h18v8.7L297.7,571.8L297.7,571.8z"/>
<path class="st4" d="M332,571.8v-3.6h-3.6v-3.6h-1.8v-3.6h-1.8v-7.3h5.4v3.6h1.8v3.6h9v-3.6h1.8v-10.9H341v-3.6h-1.8V539h-5.4v-3.6
	h-5.4v-3.6h-1.8v-3.6h-1.8v-18.2h1.8v-3.6h1.8v-3.6h1.8v-3.6h12.6v3.6h1.8v3.6h1.8v7.3H341v-3.6h-9v3.6h-1.8v10.9h3.6v3.6h5.4v3.6
	h3.6v3.6h3.6v7.3h1.8v18.2h-1.8v3.6h-1.8v3.6H341v3.6H332L332,571.8z"/>
<g id="bulle_1_">
	<g>
		<g>
			<polygon class="st0" points="406.8,352.4 384.5,350 390.7,367.8 363.2,361.6 360.3,377.1 341.7,364 339.4,390.2 319,365.4 
				310.9,388.6 301.1,365.4 269.9,379 276.5,352.4 248.8,351.9 260.3,336.5 235.4,323.9 263.2,311 252.8,293.5 275.7,299.5 
				268,277.1 298.5,283.4 304.9,255.3 320.6,282.3 338.8,268 350.5,286.6 376.3,266.5 377.1,290.8 402.8,289.1 385.3,312 
				406.6,323.3 388,334.2 			"/>
		</g>
	</g>
</g>
<g>
	<path d="M306,316.2v0.9h-7.6v-12.5h0.9v11.6H306z"/>
	<path d="M314.5,317.2l-1.4,0.3l-1.7-0.7l-0.7-1.9v-6h-3.1v-0.8h3.9v6.7l0.5,1.4l1.1,0.5l1-0.2l0.8-0.7l0.6,0.7L314.5,317.2z
		 M311.6,304.9l-0.4-0.2h-0.4l-0.3,0.2l-0.1,0.4l0.1,0.4l0.3,0.2h0.4l0.4-0.2l0.1-0.4L311.6,304.9z"/>
	<path d="M324.8,308.3l-3.1,8.8h-0.8l-2.9-7.8l0-0.3l-0.4,0.5l-0.3,0.3l-0.6-0.6l1-1h0.8l2.8,7.6l2.7-7.7L324.8,308.3z"/>
	<path d="M333.3,310.4l-0.4-1l-0.7-0.6l-1-0.2l-1,0l-1.4,0.9l-1.1,1.8v5.8h-0.9v-8l-0.9-0.6l0.4-0.7l1.3,0.8v0.8l-0.1,0.7h0l0.2-0.7
		l0.4-0.6l1.8-1.1l1.3,0l1.2,0.3l1,0.9l0.5,1.2L333.3,310.4z"/>
	<path d="M339.4,317.5l-1.6-0.3l-1.2-0.9l-0.8-1.3l-0.3-1.6v-1.5l0.3-1.3l0.7-1.3l1.1-0.9l1.3-0.5h1.3l1.1,0.4l1.1,0.8l0.7,1.1
		l0.3,1.4v1.6h-7v0.2l0.3,1.4l0.7,1l0.9,0.7l1.3,0.2l1.2-0.2l0.9-0.5l0.8-0.8l0.6,0.6l-0.9,0.9l-1.1,0.6L339.4,317.5z M336.3,312.2
		h6.1v-0.6l-0.2-1.1l-0.6-0.9l-0.8-0.6l-0.9-0.3h-1l-1,0.4l-0.8,0.7l-0.6,1.1l-0.2,1.1V312.2z"/>
	<path d="M351.3,316.6l-0.9,0.7l-1.4,0.3l-1.3-0.3l-1.3-1l-0.6-1.9v-6H344v-0.9h1.9v-2.2h0.9v2.2h2.8v0.9h-2.8v5.9l0.5,1.5l0.9,0.7
		l0.9,0.2l1-0.2l0.7-0.5l0.7-0.7l0.6,0.6L351.3,316.6z"/>
	<path d="M280.3,338.2l-0.7,0.5l-0.6-0.9l-0.1-0.3l-0.6,0.7l-1.1,0.6l-1.4,0.2l-1.4-0.3l-1.1-0.9l-0.7-1.3l-0.3-1.4v-1.6l0.3-1.5
		l0.7-1.2l1-0.9l1.1-0.5l1.3,0l1.4,0.6l0.5,0.6V326h0.9v10.5l0.2,0.9L280.3,338.2z M278.4,336.7l0.3-0.7v-4.4l-0.9-1.2l-1.2-0.5
		h-0.9l-0.8,0.4l-0.8,0.7l-0.6,1.1l-0.3,1.3v1.4l0.3,1.2l0.6,1.1l0.9,0.7l1,0.2l1.1-0.2l0.8-0.4L278.4,336.7z"/>
	<path d="M284,326.4l0.1-0.4l0.3-0.2h0.3l0.3,0.2l0.1,0.4l-0.1,0.4l-0.2,1.4h-0.7l-0.2-1.4L284,326.4z"/>
	<path d="M292.9,339l-1.6-0.3l-1.2-0.9l-0.8-1.3l-0.3-1.6v-1.5l0.3-1.3l0.7-1.3l1.1-0.9l1.3-0.5h1.3l1.1,0.4l1.1,0.8l0.7,1.1
		l0.3,1.4v1.6h-7v0.2l0.3,1.4l0.7,1l0.9,0.7l1.3,0.2l1.2-0.2l0.9-0.5l0.8-0.8l0.6,0.6l-0.9,0.9l-1.1,0.6L292.9,339z M289.8,333.6
		h6.1V333l-0.2-1.1l-0.6-0.9l-0.8-0.6l-0.9-0.3h-1l-1,0.4l-0.8,0.7l-0.6,1.1l-0.2,1.1V333.6z"/>
	<path d="M305.9,338.2l-1,0.6l-1-0.5l-2-3.6l-2.9,3.9l-0.7-0.5l3.1-4.2l-1.8-3.2l-0.2-0.6l-0.2,0.6l-0.2,0.2l-0.7-0.5l0.7-1.1h0.7
		l2.1,3.7l2.8-3.8l0.7,0.5l-3.1,4.1l2.1,3.7l0.4,0.2l0.4-0.2l0.2-0.7l0.8,0.3L305.9,338.2z"/>
	<path d="M315.5,333.6v1.4l-0.5,1.7l-1,1.3l-1.4,0.8L311,339l-1.6-0.6l-0.5-0.5v4.2H308v-11.4l-0.6-0.7l0.7-0.6l0.8,0.9v0.2l0.7-0.7
		l1.8-0.6l1.5,0.2l1.4,0.9l0.9,1.5L315.5,333.6z M314.6,333.7l-0.3-1.5l-0.7-1.2l-1.1-0.7l-1.1-0.2l-1.4,0.5l-1.1,1.3v4.9l1,1
		l1.2,0.4l1.2-0.2l1.1-0.6l0.8-1l0.4-1.4V333.7z"/>
	<path d="M320.8,339l-1.6-0.3l-1.2-1l-0.8-1.4l-0.3-1.6v-1.1l0.4-1.9l0.8-1.2l1.2-0.9l1.5-0.3l1.5,0.3l1.2,0.9l0.8,1.2l0.4,1.9v1.1
		l-0.3,1.6l-0.8,1.4l-1.2,1L320.8,339z M319.6,337.8l1.2,0.2l1.2-0.2l0.9-0.7l0.6-1.1l0.3-1.4v-1.1l-0.4-1.6l-0.6-1l-0.9-0.7
		l-1.1-0.2l-1.1,0.2l-0.9,0.7l-0.6,1l-0.4,1.6v1.1l0.3,1.4l0.6,1.1L319.6,337.8z"/>
	<path d="M331.6,338.8l-1.7,0.1l-1.6-0.2L327,338l-0.9-1.1l0.7-0.5l0.8,1l1.1,0.6l1.3,0.2l1.4-0.1l1.1-0.5l0.6-0.7l0.2-0.7l-0.2-0.7
		l-0.5-0.5l-1-0.3l-2.8-0.3l-1.1-0.4l-0.9-0.9l-0.3-1.1l0.4-1.2l0.9-0.7l1.1-0.5l1.6-0.1l1.6,0.2l1.1,0.5l0.9,0.9l-0.6,0.6l-0.8-0.8
		l-0.9-0.4l-1.3-0.2l-1.4,0.1l-0.9,0.4l-0.6,0.5l-0.2,0.8l0.2,0.7l0.6,0.6l0.8,0.3l2.8,0.3l1.2,0.4l0.8,0.8l0.4,1.1l-0.3,1.2l-0.8,1
		L331.6,338.8z"/>
	<path d="M342.4,338.7L341,339l-1.7-0.7l-0.7-1.9v-6h-3.1v-0.8h3.9v6.7l0.5,1.4l1.1,0.5l1-0.2l0.8-0.7l0.6,0.7L342.4,338.7z
		 M339.5,326.4l-0.4-0.2h-0.4l-0.3,0.2l-0.1,0.4l0.1,0.4l0.3,0.2h0.4l0.4-0.2l0.1-0.4L339.5,326.4z"/>
	<path d="M351.3,338l-0.9,0.7L349,339l-1.3-0.3l-1.3-1l-0.6-1.9v-6H344V329h1.9v-2.2h0.9v2.2h2.8v0.9h-2.8v5.9l0.5,1.5l0.9,0.7
		l0.9,0.2l1-0.2l0.7-0.5l0.7-0.7l0.6,0.6L351.3,338z"/>
	<path d="M359.3,338.7l-1.4,0.3l-1.7-0.7l-0.7-1.9v-6h-3.1v-0.8h3.9v6.7l0.5,1.4l1.1,0.5l1-0.2l0.8-0.7l0.6,0.7L359.3,338.7z
		 M356.3,326.4l-0.4-0.2h-0.4l-0.3,0.2l-0.1,0.4l0.1,0.4l0.3,0.2h0.4l0.4-0.2l0.1-0.4L356.3,326.4z"/>
	<path d="M365.5,339l-1.6-0.3l-1.2-1l-0.8-1.4l-0.3-1.6v-1.1l0.4-1.9l0.8-1.2l1.2-0.9l1.5-0.3l1.5,0.3l1.2,0.9l0.8,1.2l0.4,1.9v1.1
		l-0.3,1.6l-0.8,1.4l-1.2,1L365.5,339z M364.3,337.8l1.2,0.2l1.2-0.2l0.9-0.7l0.6-1.1l0.3-1.4v-1.1l-0.4-1.6l-0.6-1l-0.9-0.7
		l-1.1-0.2l-1.1,0.2l-0.9,0.7l-0.6,1l-0.4,1.6v1.1l0.3,1.4l0.6,1.1L364.3,337.8z"/>
	<path d="M378.6,338.5h-0.9v-5.9l-0.2-1.1l-0.6-0.8l-0.9-0.5l-1.2-0.1l-1.5,0.6l-1.3,1.6v6.3h-0.9v-7.9l-0.7-0.8l0.7-0.6l0.9,1v0.5
		l0.8-0.9l2-0.7l1.5,0.2l1.2,0.7l0.8,1.2l0.2,1.4V338.5z"/>
</g>
</svg>
