<?xml version="1.0" encoding="utf-8"?>
<!-- Generator: Adobe Illustrator 22.0.1, SVG Export Plug-In . SVG Version: 6.00 Build 0)  -->
<svg version="1.1" id="Layer_1" xmlns="http://www.w3.org/2000/svg" xmlns:xlink="http://www.w3.org/1999/xlink" x="0px" y="0px"
	 viewBox="0 0 200 200" style="enable-background:new 0 0 200 200;" xml:space="preserve">
<style type="text/css">
	.st0{fill:#FFFFFF;}
</style>
<g>
	<circle class="st0" cx="65.2" cy="71.8" r="38.2"/>
	<g>
		<path d="M65.2,112.5c-11.3,0-20.9-4-28.8-11.9c-7.9-8-11.9-17.6-11.9-28.8S28.5,51,36.4,43c8-7.9,17.5-11.9,28.8-11.9
			c11.2,0,20.8,4,28.8,11.9s11.9,17.5,11.9,28.8s-4,20.8-11.9,28.8C86.1,108.5,76.5,112.5,65.2,112.5z M65.2,107.3
			c9.8,0,18.2-3.5,25.1-10.4s10.4-15.3,10.4-25.1s-3.5-18.2-10.4-25.1S75,36.3,65.2,36.3S47,39.8,40.1,46.7
			c-6.9,7-10.4,15.3-10.4,25.1S33.2,90,40.1,96.9C47,103.9,55.4,107.3,65.2,107.3z M41.3,74.1h3.2c2.6,11.2,9.5,16.8,20.7,16.8
			c11.3,0,18.2-5.6,20.7-16.8h3.2c-0.8,7.3-3.3,13-7.6,17.1c-4.2,4.1-9.7,6.2-16.4,6.2S53,95.3,48.7,91.2
			C44.7,87,42.1,81.3,41.3,74.1z M52.3,65.3c-1.8,0-3.3-0.6-4.6-1.9c-1.3-1.3-1.9-2.8-1.9-4.6s0.6-3.3,1.9-4.6s2.8-1.9,4.6-1.9
			s3.4,0.6,4.6,1.9s1.9,2.8,1.9,4.6s-0.6,3.3-1.9,4.6C55.6,64.7,54.1,65.3,52.3,65.3z M78.2,65.3c-1.8,0-3.3-0.6-4.6-1.9
			c-1.3-1.3-1.9-2.8-1.9-4.6s0.6-3.3,1.9-4.6s2.8-1.9,4.6-1.9c1.8,0,3.3,0.6,4.6,1.9s1.9,2.8,1.9,4.6s-0.6,3.3-1.9,4.6
			C81.5,64.7,80,65.3,78.2,65.3z"/>
	</g>
</g>
<g>
	<path class="st0" d="M100.7,150.6l4.4-5.4l-1.6-13.8l1.6-15.4c0,0-1.5-14-1.2-14.1s4.3,0,4.3,0l5,4.6v8.6l2.6,5.8l6.3-3.8
		l15.4-27.8l3.5-1.5l2.2,2v4.5l-10.2,23.8l1.5,1.7l19.9-22.5l4.3-1l3.2,2.8l-0.8,4.3l-20.5,22.1l1.7,1.1l23.8-14.2h4.4l1.8,2.8
		l-0.8,3.9l-25.1,16.1l0.6,1.4l22.2-5.6l3.6,1.5v3.2l-2.7,2.7l-22.9,6.8l-3.8,6.2l-15.6,9.2l-8.4,1.5l-4.2,3.2l-11.8-9L100.7,150.6z
		"/>
	<g>
		<path d="M103.9,144.9c-0.8-3.5-1.4-7.9-1.7-13.1l1.6-16l-1-15.6l1.3,0.1c3.8,0.2,6.4,0.9,7.9,2.3s2.5,3.2,3,5.2
			c0.5,2.1,0.4,4.5-0.2,7.2c1,1.8,1.6,3.4,2,4.6c1.9-1.6,3.4-2.8,4.4-3.4l12.3-22.9c1.1-2,2.3-3.7,3.4-4.9c1.1-1.2,2.2-1.8,3.4-1.9
			c1.1,0,2.3,0.5,3.5,1.6c2,1.9,1.8,5.6-0.7,11.1l-8.4,18.8l16.5-18.8c2.1-2.3,4-3.6,5.8-4.1s3.3,0,4.8,1.3c1.4,1.3,2.1,2.8,1.8,4.5
			c-0.2,1.7-1.2,3.5-3.1,5.5l-17,18.4l19.5-11.9c4-2.4,7-2.6,9.2-0.6c1.3,1.2,1.9,2.4,1.9,3.7c0,1.3-0.7,2.6-2,4.1
			c-0.7,0.7-2.2,1.9-4.5,3.3L149,135.3l16.8-4.8c3.6-1,6.1-0.9,7.5,0.4c1,0.9,1.5,2,1.5,3.4c0,1.3-0.4,2.5-1.4,3.5
			c-1.1,1.2-3,2.2-5.9,3.1l-19.1,6l-3.8,5c-6.1,5-11.8,8.5-17.1,10.3l-6.9,0.8l-3.9,4.2c-4.1-1.3-7.6-3.3-10.6-6.1
			c-2.9-2.7-5.4-6.2-7.4-10.6L103.9,144.9z M106.6,145.7l-4.8,5.2c1.8,3.3,3.7,5.9,5.8,7.8c2.5,2.3,5.3,4.1,8.3,5.3l3.1-3.4l7.4-1
			c5.2-1.9,10.6-5.1,16.3-9.7l4.3-5.6l19.9-6c2.5-0.7,4.1-1.5,4.8-2.2c0.5-0.6,0.8-1.1,0.8-1.7s-0.3-1-0.8-1.5
			c-0.8-0.7-2.5-0.7-5.1,0.1l-20.9,5.8l-1.6-3.9l22.4-14c2-1.2,3.2-2.1,3.7-2.6c0.8-0.8,1.2-1.6,1.2-2.3s-0.3-1.3-0.9-2
			c-1.4-1.3-4-0.7-7.7,1.7l-21.1,13.2l-2.5-3.3l17.8-19.3l2.2-2.4c1.1-1.2,1.7-2.2,1.8-3.2c0.1-0.9-0.2-1.8-1-2.6
			c-0.8-0.7-1.8-0.9-3-0.4s-2.6,1.5-4.1,3.2l-1.1,1.2l-17,19.4l-3.3-3.1l9.6-21.7c1.5-3.5,1.8-5.7,0.7-6.7c-0.5-0.5-1.1-0.7-1.8-0.6
			c-0.6,0.1-1.3,0.5-2,1.3c-0.8,0.8-1.8,2.4-3,4.7L123.2,118c-1.9,1.2-3.9,2.6-5.8,4.3l-2.4-0.4c-0.9-2.4-1.9-4.6-3.1-6.7
			c0.6-2.5,0.8-4.6,0.5-6.3c-0.3-1.8-1.1-3.2-2.3-4.4c-1.1-1-2.7-1.6-4.9-1.7l0.9,13.2l-1.5,14.7C105,134.8,105.6,139.8,106.6,145.7
			z"/>
	</g>
</g>
</svg>
