<?xml version="1.0" encoding="utf-8"?>
<!-- Generator: Adobe Illustrator 22.0.1, SVG Export Plug-In . SVG Version: 6.00 Build 0)  -->
<svg version="1.1" id="Layer_1" xmlns="http://www.w3.org/2000/svg" xmlns:xlink="http://www.w3.org/1999/xlink" x="0px" y="0px"
	 viewBox="0 0 200 200" style="enable-background:new 0 0 200 200;" xml:space="preserve">
<g>
	<path d="M135.8,119.9c1.9-6,4.8-10.5,8.7-13.6s8.7-4.6,14.2-4.6c6.6,0,11.9,2,15.9,6c4,4,6,9.4,6,16c0,5.8-1.4,10.5-4.2,14
		c-2.8,3.5-8.2,7-16.1,10.3l-1,0.5c-13,5.5-20.9,11.6-23.6,18.4c-2.8-6.8-10.7-12.9-23.6-18.4c-0.5-0.2-0.9-0.4-1.1-0.5
		c-8-3.3-13.3-6.8-16.1-10.3s-4.2-8.2-4.2-14.1c0-6.6,2-12,6-16c4-4,9.3-6,15.9-6c5.6,0,10.4,1.5,14.3,4.6
		C131,109.3,133.9,113.9,135.8,119.9z"/>
</g>
<g>
	<path d="M126.3,50.7c4.2,7.2,6.3,13.6,6.3,19.4v2.2c0,3.5-0.8,6-2.3,7.4c-1.5,1.4-4.3,2.1-8.2,2.1c-11.1,0-16.7-4-16.7-12v-3.6
		c0-2.7-0.4-4.7-1.2-5.8c-0.8-1.2-2.4-2.2-4.9-3.2c-4.3-1.7-11-2.6-19.8-2.6c-9,0-15.7,0.9-20,2.8c-3.8,1.7-5.7,4.6-5.7,8.8v3.4
		c0,8.2-5.6,12.3-16.9,12.3c-3.8,0-6.5-0.6-8-1.9c-1.5-1.3-2.3-3.5-2.3-6.8v-2.6c0-5.5,2.1-12.1,6.3-19.8c6.4-2.6,13.5-4.6,21.3-5.9
		c7.7-1.3,16.1-2,25.1-2c9.1,0,17.6,0.7,25.4,2C112.5,46.1,119.7,48.1,126.3,50.7z M29.4,70.3v1.8c0,2.3,0.6,4,1.9,5.2
		s3.1,1.8,5.6,1.8c4.4,0,8-0.8,10.8-2.5c2.2-1.3,3.3-3.6,3.3-6.8v-2.1c-4.5,2.5-9.3,3.8-14.2,3.8C33.7,71.4,31.3,71,29.4,70.3z
		 M124.6,53.1c-6.6-2.5-13.6-4.4-21.2-5.6c-7.6-1.2-15.7-1.9-24.2-1.9c-8.5,0-16.5,0.6-24,1.9c-7.5,1.2-14.4,3.1-20.7,5.6
		c-2.1,4.8-3.6,9.6-4.6,14.5c2,0.7,4,1,6.2,1c4.4,0,9.4-1.3,15-4v-0.9c0-7.9,9.4-11.8,28.1-11.8c19.4,0,29.1,3.9,29.1,11.8v0.9
		c5.8,2.7,10.8,4,15.3,4c2.2,0,4.2-0.3,5.9-1C128.2,62.1,126.6,57.3,124.6,53.1z M71.2,71.4H88V60.9h12.5v13.2L114.2,96
		c3.1,5,5,8.5,5.6,10.5c0.6,2,0.9,5.6,0.9,10.9v11.3H38.5v-11.3c0-4.5,0.4-8.2,1.3-11c0.8-2.8,2.6-6.3,5.2-10.5l13.7-21.7V60.9h12.6
		V71.4z M68.4,74.1V63.7h-7V75L48.3,95.9c-3.3,5.2-5.3,8.8-6,11c-0.7,2.1-1,5.6-1,10.4v8.5H118v-8.4c0-5.4-0.3-8.9-0.8-10.4
		c-0.5-1.6-2.6-5.2-6.1-11L97.7,74.5V63.7h-7v10.5H68.4z M64.2,80.4h7v4.9h-7V80.4z M64.2,88.8h7v4.9h-7V88.8z M64.2,97.2h7v4.9h-7
		V97.2z M76.1,80.4H83v4.9h-6.9V80.4z M76.1,88.8H83v4.9h-6.9V88.8z M76.1,97.2h7v4.9h-7V97.2z M88,80.4h6.9v4.9H88V80.4z M88,88.8
		h6.9v4.9H88V88.8z M88,97.2h6.9v4.9H88V97.2z M129.8,70.3c-1.5,0.7-3.6,1-6.2,1c-5.6,0-10.8-1.3-15.4-3.8v3.4c0,2.2,1.3,4,4,5.3
		c2.6,1.4,6.1,2.1,10.3,2.1c2.9,0,4.9-0.4,5.9-1.3c1-0.9,1.5-2.6,1.5-5.1V70.3z"/>
</g>
</svg>
