<?xml version="1.0" encoding="utf-8"?>
<!-- Generator: Adobe Illustrator 22.0.1, SVG Export Plug-In . SVG Version: 6.00 Build 0)  -->
<svg version="1.1" id="Layer_1" xmlns="http://www.w3.org/2000/svg" xmlns:xlink="http://www.w3.org/1999/xlink" x="0px" y="0px"
	 viewBox="0 0 200 200" style="enable-background:new 0 0 200 200;" xml:space="preserve">
<style type="text/css">
	.st0{fill:#FFFFFF;}
</style>
<path d="M116.6,178.9H63.9L42,160.6c-7.1-6-10.7-11.5-10.7-16.6c0-3.7,1.4-6.6,4.3-8.8s6.6-3.4,11.3-3.4c5.5,0,11.2,1.7,17,5v-1.5
	c0-6.2,1.8-11.6,5.5-16.1s8.6-7.6,14.8-9.2l42-10.8V90l26.2-6.7v9.3c2.3-0.6,4.6-0.8,7-0.8c6.8,0,12.8,2.6,18,7.9
	c5.2,5.2,7.7,11.4,7.7,18.3v43.5L116.6,178.9z M108.4,176l-32.2-26.8c-11.6-9.6-21.2-14.4-29-14.4c-3.8,0-6.9,0.8-9.3,2.4
	s-3.5,3.7-3.5,6.3c0,4.8,4.4,10.8,13.3,18L65.2,176H108.4z M65.4,154.8l-2,2.2h-8.8l-6.7-5.7l1.5-2.5l3.1,2.4h4.5l1.9-1.9
	L65.4,154.8z M110.5,124c-5-7.6-11.9-11.3-20.8-11.3c-6.6,0-12.1,2.2-16.4,6.5c-4.3,4.3-6.5,9.8-6.5,16.5v2.7
	c4.5,2.9,8.3,5.7,11.6,8.6l2.3,2l9.2-19.8L110.5,124z M113.7,135.7c0-2.8-0.6-5.7-1.7-8.8l-20.1,5L83.1,151l10.6,8.9l4.5-20.3
	L113.7,135.7z M182.1,159.3V118c0-6.3-2.3-11.9-6.9-16.6c-4.6-4.7-10-7.1-16.3-7.1c-1.9,0-4.1,0.3-6.7,0.9v12l-16.8,4.6v35.2
	l-9.5,2.2v-47.1l-30.3,7.7c6.5,2,11.5,5.2,15.1,9.7c3.6,4.5,5.4,9.7,5.4,15.8V176L182.1,159.3z M113.4,165.5V139l-12.8,3.2
	l-4.4,19.7l7.5,6.1L113.4,165.5z M113.4,176v-7.7l-7.1,1.8L113.4,176z"/>
<g>
	<polygon class="st0" points="42.6,82.9 55,110.6 58.2,113.6 60.6,114.2 62.8,111.8 62.8,105.9 52.7,80.2 54,76 58.2,78 61.1,75.6 
		62.5,70.1 67.4,70 69.5,66 69.7,62 73.3,60.6 74,55.1 70.1,49 67.8,39.4 52,31 48.9,23.3 38.9,25.3 26.9,33 31.4,43.5 31.3,65 
		38.6,78.7 	"/>
	<path d="M51,22.3l3.1,7.8c6.3,2.4,11.1,5.2,14.5,8.5c0.8,1.4,1.3,2.5,1.6,3.2c0.8,2,1.3,4.3,1.5,6.9l1.7,1.7l0.9,1.9
		c2.2,5.5,1.3,9-2.7,10.5c-0.2,0.1-0.5,0.2-0.9,0.3c0.5,2.2,0.5,4-0.1,5.4c-0.6,1.4-1.8,2.5-3.5,3.2c-0.8,0.3-1.7,0.5-2.9,0.5
		c0.2,1.8,0,3.3-0.6,4.4c-0.6,1.2-1.7,2.1-3.1,2.6c-1.1,0.4-2.1,0.6-3,0.4c-1-0.1-1.9-0.6-2.8-1.3l0.3,2.2l7.6,19.8
		c1.7,4.2,2.4,7.6,2.3,10.2c-0.1,2.5-1.2,4.2-3.1,4.9c-2.3,0.9-4.3,0.5-6-1.2c-1.7-1.7-3.6-5.1-5.6-10.2l-9.3-22.2l-3-1.4l-7.4-14.6
		c-0.7-7.7-0.8-14.9-0.2-21.3l-4.6-11.7c3.4-3.6,7.4-6.3,12.1-8.1C41.6,22.9,46.1,22.2,51,22.3z M48.8,25.3c-3.8,0.2-7.4,1-10.6,2.2
		c-3.4,1.4-6.6,3.3-9.5,6l3.9,10c-0.1,10.8,0.1,17.9,0.4,21.4l6.7,13.5l11.3,5.4c0.8-2.2,0.8-4.3,0-6.3c-1.2-3.1-4.1-5.6-8.6-7.4
		c0.6-4.1,0.2-7.9-1.2-11.5l-0.4-0.9l2.7-1l0.6,1.2c1.3,3.3,1.7,6.7,1.3,10.3c2.5,1.5,4.5,3,5.9,4.6l-1.9-5
		c-0.9-0.8-1.7-1.6-2.4-2.4c-0.6-0.8-1.1-1.7-1.5-2.6c-1.7-4.2-0.6-8.5,3.3-12.9l3.2,3.2c-0.2-2.7,1-5.8,3.6-9.1l2.9,2.8
		c0.9-2.7,2.2-5,4.1-6.7l5.6,5.7c-0.5-2-0.8-3.2-1-3.8c-0.1-0.4-0.5-1-1-1.8c-4.2-3.3-9-5.7-14.6-7.3L48.8,25.3z M44.3,83.5
		l8.4,19.9c2.8,7.1,5.4,10.2,7.7,9.3c1-0.4,1.4-1.8,1-4.2c-0.3-2.4-1.4-5.8-3.1-10.3l-4.9-12.5c-0.2,0.5-0.5,1.1-0.9,1.9L44.3,83.5z
		 M49.4,54c-1.8,2.3-2.1,4.9-1,7.6c0.3,0.8,0.8,1.6,1.4,2.3s1.4,1.4,2.3,2l2.8,7c0.6,1.5,1.2,2.5,2,3.1c0.7,0.6,1.5,0.7,2.3,0.4
		c1.2-0.5,1.8-1.4,2-2.7c0.2-1.3-0.2-3.1-1-5.2l-2.3-5.8L49.4,54z M56.3,48.3c-1.4,2-1.7,4.6-1,7.8l4.8,4.7l3.1,8.1
		c1.1,0.2,2,0.2,2.6-0.1c1.1-0.4,1.8-1.2,2-2.4c0.2-1.1,0-2.6-0.7-4.4l-2.1-4.9L56.3,48.3z M62.9,44.3c-0.8,1.2-1.3,2.8-1.7,4.8
		l6.2,6.1l2.1,5.3c2.7-1.1,3.4-3.3,2.1-6.7l-0.9-2.1L62.9,44.3z"/>
</g>
</svg>
