<?xml version="1.0" encoding="utf-8"?>
<!-- Generator: Adobe Illustrator 22.0.1, SVG Export Plug-In . SVG Version: 6.00 Build 0)  -->
<svg version="1.1" id="Layer_1" xmlns="http://www.w3.org/2000/svg" xmlns:xlink="http://www.w3.org/1999/xlink" x="0px" y="0px"
	 viewBox="0 0 984 644" style="enable-background:new 0 0 984 644;" xml:space="preserve">
<style type="text/css">
	.st0{enable-background:new    ;}
	.st1{fill:#FFFFFF;stroke:#000000;stroke-linejoin:round;stroke-miterlimit:10;}
	.st2{fill:#FFFFFF;stroke:#000000;}
</style>
<g id="font_3_">
	<g>
		<g class="st0">
			<g>
				<polygon class="st1" points="440.4,236 422.1,225.5 428.3,214.3 446.6,224.8 				"/>
			</g>
			<g>
				<polygon class="st1" points="446.6,224.8 428.3,214.3 433.9,217.3 452.1,227.9 				"/>
			</g>
			<g>
				<polygon class="st1" points="434,245 415.9,234.5 422.1,225.5 440.4,236 				"/>
			</g>
			<g>
				<polygon class="st1" points="425.2,252.1 407.1,241.6 415.9,234.5 434,245 				"/>
			</g>
			<g>
				<polygon class="st1" points="417.3,254.8 399,244.1 407.1,241.6 425.2,252.1 				"/>
			</g>
			<g>
				<polygon class="st1" points="409.6,252.4 391.3,241.9 399,244.1 417.3,254.8 				"/>
			</g>
			<g>
				<polygon class="st1" points="402.8,261.6 384.7,251 379.6,235 397.7,245.5 				"/>
			</g>
			<g>
				<polygon class="st1" points="397.7,245.5 379.6,235 379.4,174.3 397.5,184.9 				"/>
			</g>
			<g>
				<polygon class="st1" points="405.1,171.9 386.8,161.4 411.4,147.1 429.7,157.6 				"/>
			</g>
			<g>
				<polygon class="st1" points="381.3,194.3 363,183.8 363,175 381.3,185.7 				"/>
			</g>
			<g>
				<polygon class="st1" points="381.3,185.7 363,175 379.2,165.7 397.5,176.2 				"/>
			</g>
			<g>
				<polygon class="st1" points="397.5,153.7 379.2,143 386.8,138.7 404.9,149.4 				"/>
			</g>
			<g>
				<polygon class="st1" points="397.5,176.2 379.2,165.7 379.2,143 397.5,153.7 				"/>
			</g>
			<g>
				<polygon class="st1" points="404.9,149.4 405.1,171.9 429.7,157.6 429.7,166.2 405.1,180.5 405.2,240 409.6,252.4 417.3,254.8 
					425.2,252.1 434,245 440.4,236 446.6,224.8 452.1,227.9 445.1,240.2 437.3,251.4 425.4,261 414.2,264.8 402.8,261.6 
					397.7,245.5 397.5,184.9 381.3,194.3 381.3,185.7 397.5,176.2 397.5,153.7 				"/>
			</g>
		</g>
		<g class="st0">
			<g>
				<polygon class="st1" points="362.5,293.8 344.2,283.1 344.1,224.2 362.3,234.8 				"/>
			</g>
			<g>
				<polygon class="st1" points="362.3,234.8 344.1,224.2 342.5,213.5 360.8,224.2 				"/>
			</g>
			<g>
				<polygon class="st1" points="360.8,224.2 342.5,213.5 337.7,208 356,218.6 				"/>
			</g>
			<g>
				<polygon class="st1" points="349.9,208.5 331.7,198 342.7,198.5 361,209 				"/>
			</g>
			<g>
				<polygon class="st1" points="336.5,214.3 318.2,203.8 331.7,198 349.9,208.5 				"/>
			</g>
			<g>
				<polygon class="st1" points="319.2,231.6 301.1,221.1 318.2,203.8 336.5,214.3 				"/>
			</g>
			<g>
				<polygon class="st1" points="312.5,245 294.4,234.5 301.1,221.1 319.2,231.6 				"/>
			</g>
			<g>
				<polygon class="st1" points="305.3,326.9 287,316.4 286.8,236.9 305.1,247.4 				"/>
			</g>
			<g>
				<polygon class="st1" points="305.1,247.4 286.8,236.9 280.8,232.6 299.1,243.1 				"/>
			</g>
			<g>
				<polygon class="st1" points="299.1,243.1 280.8,232.6 286.7,223.5 304.9,234 				"/>
			</g>
			<g>
				<polygon class="st1" points="336.5,214.3 349.9,208.5 361,209 368.2,216.6 369.7,230 369.9,289.5 362.5,293.8 362.3,234.8 
					360.8,224.2 356,218.6 347.7,218.3 337.5,222.8 324.1,236.4 312.7,258.8 312.9,322.6 305.3,326.9 305.1,247.4 299.1,243.1 
					304.9,234 312.5,239.8 312.5,245 319.2,231.6 				"/>
			</g>
		</g>
		<g class="st0">
			<g>
				<polygon class="st1" points="270.1,337.9 251.9,327.2 259.1,315.8 277.4,326.4 				"/>
			</g>
			<g>
				<polygon class="st1" points="261.5,345.1 243.2,334.6 251.9,327.2 270.1,337.9 				"/>
			</g>
			<g>
				<polygon class="st1" points="251.5,346.2 233.4,335.7 243.2,334.6 261.5,345.1 				"/>
			</g>
			<g>
				<polygon class="st1" points="245.8,356.2 227.6,345.7 221.4,330.2 239.5,341 				"/>
			</g>
			<g>
				<polygon class="st1" points="239.5,341 221.4,330.2 221.2,269.8 239.3,280.5 				"/>
			</g>
			<g>
				<polygon class="st1" points="212.2,287.7 194,277.1 228.6,257.1 246.9,267.8 				"/>
			</g>
			<g>
				<polygon class="st1" points="212.2,296.2 194.1,285.5 194,277.1 212.2,287.7 				"/>
			</g>
			<g>
				<polygon class="st1" points="277.4,326.4 282.2,330.2 273.6,343.9 260.8,354.2 245.8,356.2 239.5,341 239.3,280.5 212.2,296.2 
					212.2,287.7 246.9,267.8 247,335 251.5,346.2 261.5,345.1 270.1,337.9 				"/>
			</g>
		</g>
		<g class="st0">
			<g>
				<polygon class="st1" points="190.7,326 172.4,315.2 169,307.7 187.2,318.2 				"/>
			</g>
			<g>
				<polygon class="st1" points="184.3,306.2 166,295.5 175.2,298.9 193.3,309.5 				"/>
			</g>
			<g>
				<polygon class="st1" points="173.3,309.5 155,298.8 166,295.5 184.3,306.2 				"/>
			</g>
			<g>
				<polygon class="st1" points="140.7,352.7 122.4,342.2 122.8,342 140.9,352.5 				"/>
			</g>
			<g>
				<polygon class="st1" points="161.7,316.5 143.5,305.8 155,298.8 173.3,309.5 				"/>
			</g>
			<g>
				<polygon class="st1" points="140.9,352.5 122.8,342 124.8,333.8 143.1,344.2 				"/>
			</g>
			<g>
				<polygon class="st1" points="143.1,344.2 124.8,333.8 127.9,326 146.2,336.5 				"/>
			</g>
			<g>
				<polygon class="st1" points="146.2,336.5 127.9,326 143.5,305.8 161.7,316.5 				"/>
			</g>
			<g>
				<polygon class="st1" points="134.5,426.2 116.4,415.8 116.1,334.8 134.3,345.2 				"/>
			</g>
			<g>
				<polygon class="st1" points="130.5,334.6 112.3,323.9 123.6,325.7 141.9,336.2 				"/>
			</g>
			<g>
				<polygon class="st1" points="126.6,344.1 108.5,333.4 112.3,323.9 130.5,334.6 				"/>
			</g>
			<g>
				<polygon class="st1" points="173.3,309.5 184.3,306.2 193.3,309.5 197.4,319.1 190.7,326 187.2,318.2 180.9,316 172.4,318.4 
					164,323.6 151.6,339.8 141.9,363.2 142.1,422 134.5,426.2 134.3,345.2 126.6,344.1 130.5,334.6 141.9,336.2 141.9,344.6 
					140.7,352.7 140.9,352.5 143.1,344.2 146.2,336.5 161.7,316.5 				"/>
			</g>
		</g>
		<g class="st0">
			<g>
				<polygon class="st1" points="89.7,386.8 71.4,376.2 79.7,365.6 98,376.2 				"/>
			</g>
			<g>
				<polygon class="st1" points="98,376.2 79.7,365.6 83.8,354.4 102.1,365.1 				"/>
			</g>
			<g>
				<polygon class="st1" points="102.1,365.1 83.8,354.4 85.4,343.6 103.6,354.1 				"/>
			</g>
			<g>
				<polygon class="st1" points="78.8,396 60.6,385.5 71.4,376.2 89.7,386.8 				"/>
			</g>
			<g>
				<polygon class="st1" points="103.6,354.1 85.4,343.6 83,333.1 101.2,343.6 				"/>
			</g>
			<g>
				<polygon class="st1" points="101.2,343.6 83,333.1 77.1,327.2 95.2,337.9 				"/>
			</g>
			<g>
				<polygon class="st1" points="48.2,413.7 29.9,403 60.6,385.5 78.8,396 				"/>
			</g>
			<g>
				<polygon class="st1" points="89.5,328.1 71.2,317.4 81.9,317.6 100,328.2 				"/>
			</g>
			<g>
				<polygon class="st1" points="77.6,333.1 59.5,322.4 71.2,317.4 89.5,328.1 				"/>
			</g>
			<g>
				<path class="st1" d="M108.1,336l3.1,13.4l-2.1,14.3l-5.9,15.7l-10.9,13.8l-12.6,10.9l-31.5,18.3l0.2,53.8l-7.6,4.3l-0.3-125.8
					l37.2-21.5l11.7-5l10.7,0.2L108.1,336z M102.1,365.1l1.6-11l-2.4-10.5l-6-5.7h-8.1L77,342.1l-29,16.7l0.2,54.8L78.8,396
					l10.9-9.1l8.3-10.5L102.1,365.1"/>
			</g>
			<g>
				<polygon class="st1" points="40.4,354.6 22.3,343.9 59.5,322.4 77.6,333.1 				"/>
			</g>
			<g>
				<polygon class="st1" points="40.7,480.4 22.6,469.9 22.3,343.9 40.4,354.6 				"/>
			</g>
		</g>
		<g class="st0">
			<g>
				<polygon class="st1" points="244.4,234.5 226.2,224 229.3,224.3 247.6,234.8 				"/>
			</g>
			<g>
				<polygon class="st1" points="238.2,247.8 220.1,237.3 218.9,234.1 237.2,244.8 				"/>
			</g>
			<g>
				<polygon class="st1" points="241,236.4 222.9,225.9 226.2,224 244.4,234.5 				"/>
			</g>
			<g>
				<polygon class="st1" points="241.2,248.6 238.2,247.8 237.2,244.8 238.2,240.2 241,236.4 244.4,234.5 247.6,234.8 248.4,238.3 
					247.6,242.4 244.4,246.7 				"/>
			</g>
			<g>
				<polygon class="st1" points="237.2,244.8 218.9,234.1 220,229.7 238.2,240.2 				"/>
			</g>
			<g>
				<polygon class="st1" points="238.2,240.2 220,229.7 222.9,225.9 241,236.4 				"/>
			</g>
		</g>
		<g class="st0">
			<g>
				<polygon class="st1" points="500.2,151.4 500.2,160 467.6,178.8 467.6,170.2 				"/>
			</g>
			<g>
				<polygon class="st1" points="467.6,178.8 449.4,168.1 449.4,159.5 467.6,170.2 				"/>
			</g>
			<g>
				<polygon class="st1" points="467.6,170.2 449.4,159.5 481.9,140.7 500.2,151.4 				"/>
			</g>
		</g>
		<g class="st0">
			<g>
				<polygon class="st1" points="658.2,109.4 640.1,98.9 646.2,87.7 664.4,98.2 				"/>
			</g>
			<g>
				<polygon class="st1" points="664.4,98.2 646.2,87.7 651.9,90.6 670,101.3 				"/>
			</g>
			<g>
				<polygon class="st1" points="652,118.5 633.8,107.8 640.1,98.9 658.2,109.4 				"/>
			</g>
			<g>
				<polygon class="st1" points="643.2,125.4 625.2,114.9 633.8,107.8 652,118.5 				"/>
			</g>
			<g>
				<polygon class="st1" points="635.2,128.2 617.1,117.5 625.2,114.9 643.2,125.4 				"/>
			</g>
			<g>
				<polygon class="st1" points="627.4,125.7 609.2,115.2 617.1,117.5 635.2,128.2 				"/>
			</g>
			<g>
				<polygon class="st1" points="620.8,135.1 602.7,124.4 597.4,108.3 615.7,118.9 				"/>
			</g>
			<g>
				<polygon class="st1" points="615.7,118.9 597.4,108.3 597.2,47.7 615.5,58.4 				"/>
			</g>
			<g>
				<polygon class="st1" points="623.1,45.3 604.8,34.7 629.5,20.4 647.7,31.1 				"/>
			</g>
			<g>
				<polygon class="st1" points="599.2,67.7 581,57.2 581,48.5 599.1,59 				"/>
			</g>
			<g>
				<polygon class="st1" points="599.1,59 581,48.5 597.2,39.1 615.5,49.7 				"/>
			</g>
			<g>
				<polygon class="st1" points="615.5,27 597.2,16.5 604.6,12 622.9,22.7 				"/>
			</g>
			<g>
				<polygon class="st1" points="615.5,49.7 597.2,39.1 597.2,16.5 615.5,27 				"/>
			</g>
			<g>
				<polygon class="st1" points="622.9,22.7 623.1,45.3 647.7,31.1 647.7,39.7 623.1,53.9 623.2,113.3 627.4,125.7 635.2,128.2 
					643.2,125.4 652,118.5 658.2,109.4 664.4,98.2 670,101.3 663.1,113.5 655.1,124.7 643.2,134.5 632.2,138.2 620.8,135.1 
					615.7,118.9 615.5,58.4 599.2,67.7 599.1,59 615.5,49.7 615.5,27 				"/>
			</g>
		</g>
		<g class="st0">
			<g>
				<polygon class="st1" points="573.4,163.5 555.2,153 562.6,141.4 580.9,152.1 				"/>
			</g>
			<g>
				<polygon class="st1" points="564.8,170.9 546.7,160.2 555.2,153 573.4,163.5 				"/>
			</g>
			<g>
				<polygon class="st1" points="555,171.9 536.7,161.2 546.7,160.2 564.8,170.9 				"/>
			</g>
			<g>
				<polygon class="st1" points="549.1,181.9 531.1,171.2 524.7,156.1 542.9,166.6 				"/>
			</g>
			<g>
				<polygon class="st1" points="542.9,166.6 524.7,156.1 524.5,95.6 542.8,106.1 				"/>
			</g>
			<g>
				<polygon class="st1" points="515.7,113.3 497.4,102.8 532.1,82.8 550.2,93.3 				"/>
			</g>
			<g>
				<polygon class="st1" points="515.7,121.8 497.4,111.3 497.4,102.8 515.7,113.3 				"/>
			</g>
			<g>
				<polygon class="st1" points="580.9,152.1 585.7,155.9 576.9,169.7 564.2,180 549.1,181.9 542.9,166.6 542.8,106.1 515.7,121.8 
					515.7,113.3 550.2,93.3 550.4,160.6 555,171.9 564.8,170.9 573.4,163.5 				"/>
			</g>
		</g>
		<g class="st0">
			<g>
				<polygon class="st1" points="547.8,60.3 529.5,49.6 532.8,49.9 550.9,60.6 				"/>
			</g>
			<g>
				<polygon class="st1" points="541.7,73.5 523.5,62.8 522.4,59.9 540.5,70.4 				"/>
			</g>
			<g>
				<polygon class="st1" points="544.5,62.2 526.2,51.5 529.5,49.6 547.8,60.3 				"/>
			</g>
			<g>
				<polygon class="st1" points="544.5,74.4 541.7,73.5 540.5,70.4 541.7,65.9 544.5,62.2 547.8,60.3 550.9,60.6 551.9,64 
					550.9,68.2 547.8,72.5 				"/>
			</g>
			<g>
				<polygon class="st1" points="540.5,70.4 522.4,59.9 523.5,55.3 541.7,65.9 				"/>
			</g>
			<g>
				<polygon class="st1" points="541.7,65.9 523.5,55.3 526.2,51.5 544.5,62.2 				"/>
			</g>
		</g>
	</g>
</g>
<path class="st2" d="M320.7,440v-4.4h-13.1v-4.4h-4.4v-4.4h-4.4v-4.4h-4.4v-8.8H290v-35h4.4V370h4.4v-4.4h4.4v-4.4h4.4v-4.4h13.1
	v-4.4h21.8v4.4h13.1v4.4h4.4v8.8h4.4v4.4h4.4v4.4h-17.5v-4.4h-4.4V370h-8.7v-4.4h-13.1v4.4h-8.7v4.4H312v4.4h-4.4v8.8h-4.4V405h4.4
	v8.8h4.4v4.4h4.4v4.4h8.7v4.4h13.1v-4.4h8.7v-4.4h4.4v-4.4h17.5v4.4h-4.4v4.4H360v8.8h-4.4v4.4h-13.1v4.4h-21.8V440z"/>
<path class="st2" d="M411.8,439v-6.8h-12.7v-6.8h-4.2v-6.8h-4.2v-6.8h-4.2v-13.5h-4.2v-54.2h4.2v-13.5h4.2v-6.8h4.2V317h4.2v-6.8
	h12.7v-6.8H433v6.8h12.7v6.8h4.2v6.8h4.2v6.8h4.2v13.5h4.2v54.2h-4.2v13.5h-4.2v6.8H450v6.8h-4.2v6.8H433v6.8H411.8z M428.8,418.7
	v-6.8h8.5v-6.8h4.2v-6.8h4.2v-13.5h4.2v-27.1h-4.2v-13.5h-4.2v-6.8h-4.2v-6.8h-8.5v-6.8h-12.7v6.8h-8.5v6.8h-4.2v6.8h-4.2v13.5H395
	v27.1h4.2v13.5h4.2v6.8h4.2v6.8h8.5v6.8H428.8z"/>
<path class="st2" d="M473.8,440V264.8h20V291h4v17.5h4v26.3h4v26.3h4v35h4v-35h4v-26.3h4v-26.3h4V291h4v-26.3h20V440h-12V308.6h-4
	v17.5h-4v35h-4v35h-4v26.3h-4V440h-12v-17.5h-4v-26.3h-4v-35h-4v-35h-4v-17.5h-4V440H473.8z"/>
<path class="st2" d="M561.8,439.3V234.7h52.1v10.2h4.7v10.2h4.7v10.2h4.7v51.1h-4.7v10.2h-4.7V337h-4.7v10.2H576v92.1L561.8,439.3
	L561.8,439.3z M609.1,316.5v-10.2h4.7v-30.7h-4.7v-10.2H576v51.1L609.1,316.5L609.1,316.5z"/>
<path class="st2" d="M657.8,439v-13.1h-8.7v-13.1h-4.4v-26.2h-4.4V177h13.1v183.4h4.4v26.2h4.4v13.1H684v-13.1h4.4v-26.2h4.4V177
	h13.1v209.6h-4.4v26.2h-4.4v13.1h-8.7V439H657.8z"/>
<path class="st2" d="M744.5,388.9V208.8h-29.3V177h71.2v31.8h-29.3v180.1L744.5,388.9L744.5,388.9z"/>
<path class="st2" d="M795.9,388.9V177h56.8v31.8h-42.6v53h42.6v31.8h-42.6v63.6h42.6V389L795.9,388.9L795.9,388.9z"/>
<path class="st2" d="M873.8,388.9V177h46.8v10.6h4.3v10.6h4.3v10.6h4.3v53h-4.3v10.6h-4.3V283h-4.3v10.6h-12.8v10.6h4.3v10.6h4.3
	v10.6h4.3V336h4.3v10.6h4.3v10.6h4.3v10.6h4.3v10.6h4.3V389h-17v-10.6h-4.3v-10.6h-4.3v-10.6h-4.3v-10.6H908V336h-4.3v-10.6h-4.3
	v-10.6H895v-10.6h-4.3v-10.6h-4.3v95.3L873.8,388.9L873.8,388.9z M916.3,261.7v-10.6h4.3v-31.8h-4.3v-10.6h-29.8v53H916.3z"/>
<path class="st2" d="M320.7,614.2v-7.7h-13.1v-7.7h-4.4v-7.7h-4.4v-7.7h-4.4V568H290v-61.4h4.4v-15.4h4.4v-7.7h4.4v-7.7h4.4v-7.7
	h13.1v-7.7h21.8v7.7h13.1v7.7h4.4v15.4h4.4v7.7h4.4v7.7h-17.5V499h-4.4v-7.7h-8.7v-7.7h-13.1v7.7h-8.7v7.7H312v7.7h-4.4V522h-4.4
	v30.7h4.4v15.4h4.4v7.7h4.4v7.7h8.7v7.7h13.1v-7.7h8.7v-7.7h4.4v-7.7h4.4v-15.4h-26.2v-23h39.3v46.1h-4.4v7.7H360v15.4h-4.4v7.7
	h-13.1v7.7h-21.8V614.2z"/>
<path class="st2" d="M387,614.2V460.6h52.1v7.7h4.7v7.7h4.7v7.7h4.7V522h-4.7v7.7h-4.7v7.7h-4.7v7.7h-14.2v7.7h4.7v7.7h4.7v7.7h4.7
	v7.7h4.7v7.7h4.7v7.7h4.7v7.7h4.7v7.7h4.7v7.7h-18.9v-7.7h-4.7V599h-4.7v-7.7h-4.7v-7.7h-4.7v-7.7h-4.7v-7.7h-4.7v-7.7h-4.7v-7.7
	H406v-7.7h-4.7v69.1H387z M434.4,522v-7.7h4.7v-23h-4.7v-7.7h-33.2V522H434.4z"/>
<path class="st2" d="M473.7,614.2V460.6h52.1v7.7h4.7v7.7h4.7v7.7h4.7V522h-4.7v7.7h-4.7v7.7h-4.7v7.7h-14.2v7.7h4.7v7.7h4.7v7.7
	h4.7v7.7h4.7v7.7h4.7v7.7h4.7v7.7h4.7v7.7h4.7v7.7h-18.9v-7.7h-4.7V599h-4.7v-7.7h-4.7v-7.7h-4.7v-7.7h-4.7v-7.7h-4.7v-7.7h-4.7
	v-7.7h-4.7v-7.7H488v69.1H473.7z M521.1,522v-7.7h4.7v-23h-4.7v-7.7h-33.2V522H521.1z"/>
<path class="st2" d="M561.7,614.2V460.6h52.1v7.7h4.7v7.7h4.7v7.7h4.7V522h-4.7v7.7h-4.7v7.7h-4.7v7.7h-14.2v7.7h4.7v7.7h4.7v7.7
	h4.7v7.7h4.7v7.7h4.7v7.7h4.7v7.7h4.7v7.7h4.7v7.7h-18.9v-7.7h-4.7V599h-4.7v-7.7h-4.7v-7.7h-4.7v-7.7h-4.7v-7.7h-4.7v-7.7h-4.7
	v-7.7h-4.7v-7.7H576v69.1H561.7z M609.1,522v-7.7h4.7v-23h-4.7v-7.7h-33.2V522H609.1z"/>
<path class="st2" d="M649,614.2V460.6h14.2v130.5h47.4v23H649V614.2z"/>
<path class="st2" d="M739.3,614.2v-9.6h-9.5V595h-4.7v-9.6h-4.7v-19.2h14.2v9.6h4.7v9.6H763v-9.6h4.7V547H763v-9.6h-4.7v-9.6H744
	v-9.6h-14.2v-9.6h-4.7V499h-4.7v-48h4.7v-9.6h4.7v-9.6h4.7v-9.6h33.2v9.6h4.7v9.6h4.7v19.2h-14.2V451h-23.7v9.6h-4.7v28.8h9.5v9.6
	h14.2v9.6h9.5v9.6h9.5v19.2h4.7v48h-4.7v9.6h-4.7v9.6H763v9.6L739.3,614.2L739.3,614.2z"/>
</svg>
