<?xml version="1.0" encoding="utf-8"?>
<!-- Generator: Adobe Illustrator 22.0.1, SVG Export Plug-In . SVG Version: 6.00 Build 0)  -->
<svg version="1.1" id="Layer_1" xmlns="http://www.w3.org/2000/svg" xmlns:xlink="http://www.w3.org/1999/xlink" x="0px" y="0px"
	 viewBox="0 0 984 644" style="enable-background:new 0 0 984 644;" xml:space="preserve">
<style type="text/css">
	.st0{enable-background:new    ;}
	.st1{fill:#FFFFFF;stroke:#000000;stroke-linejoin:round;stroke-miterlimit:10;}
	.st2{fill:#FFFFFF;stroke:#000000;}
</style>
<g id="font_3_">
	<g>
		<g class="st0">
			<g>
				<polygon class="st1" points="427.7,232 409.4,221.5 415.6,210.3 433.9,220.8 				"/>
			</g>
			<g>
				<polygon class="st1" points="433.9,220.8 415.6,210.3 421.2,213.3 439.4,223.9 				"/>
			</g>
			<g>
				<polygon class="st1" points="421.3,241 403.2,230.5 409.4,221.5 427.7,232 				"/>
			</g>
			<g>
				<polygon class="st1" points="412.5,248.1 394.4,237.6 403.2,230.5 421.3,241 				"/>
			</g>
			<g>
				<polygon class="st1" points="404.6,250.8 386.3,240.1 394.4,237.6 412.5,248.1 				"/>
			</g>
			<g>
				<polygon class="st1" points="396.9,248.4 378.6,237.9 386.3,240.1 404.6,250.8 				"/>
			</g>
			<g>
				<polygon class="st1" points="390.1,257.6 372,247 366.9,231 385,241.5 				"/>
			</g>
			<g>
				<polygon class="st1" points="385,241.5 366.9,231 366.7,170.3 384.8,180.9 				"/>
			</g>
			<g>
				<polygon class="st1" points="392.4,167.9 374.1,157.4 398.7,143.1 417,153.6 				"/>
			</g>
			<g>
				<polygon class="st1" points="368.6,190.3 350.3,179.8 350.3,171 368.6,181.7 				"/>
			</g>
			<g>
				<polygon class="st1" points="368.6,181.7 350.3,171 366.5,161.7 384.8,172.2 				"/>
			</g>
			<g>
				<polygon class="st1" points="384.8,149.7 366.5,139 374.1,134.7 392.2,145.4 				"/>
			</g>
			<g>
				<polygon class="st1" points="384.8,172.2 366.5,161.7 366.5,139 384.8,149.7 				"/>
			</g>
			<g>
				<polygon class="st1" points="392.2,145.4 392.4,167.9 417,153.6 417,162.2 392.4,176.5 392.5,236 396.9,248.4 404.6,250.8 
					412.5,248.1 421.3,241 427.7,232 433.9,220.8 439.4,223.9 432.4,236.2 424.6,247.4 412.7,257 401.5,260.8 390.1,257.6 
					385,241.5 384.8,180.9 368.6,190.3 368.6,181.7 384.8,172.2 384.8,149.7 				"/>
			</g>
		</g>
		<g class="st0">
			<g>
				<polygon class="st1" points="349.8,289.8 331.5,279.1 331.4,220.2 349.6,230.8 				"/>
			</g>
			<g>
				<polygon class="st1" points="349.6,230.8 331.4,220.2 329.8,209.5 348.1,220.2 				"/>
			</g>
			<g>
				<polygon class="st1" points="348.1,220.2 329.8,209.5 325,204 343.3,214.6 				"/>
			</g>
			<g>
				<polygon class="st1" points="337.2,204.5 319,194 330,194.5 348.3,205 				"/>
			</g>
			<g>
				<polygon class="st1" points="323.8,210.3 305.5,199.8 319,194 337.2,204.5 				"/>
			</g>
			<g>
				<polygon class="st1" points="306.5,227.6 288.4,217.1 305.5,199.8 323.8,210.3 				"/>
			</g>
			<g>
				<polygon class="st1" points="299.8,241 281.7,230.5 288.4,217.1 306.5,227.6 				"/>
			</g>
			<g>
				<polygon class="st1" points="292.6,322.9 274.3,312.4 274.1,232.9 292.4,243.4 				"/>
			</g>
			<g>
				<polygon class="st1" points="292.4,243.4 274.1,232.9 268.1,228.6 286.4,239.1 				"/>
			</g>
			<g>
				<polygon class="st1" points="286.4,239.1 268.1,228.6 274,219.5 292.2,230 				"/>
			</g>
			<g>
				<polygon class="st1" points="323.8,210.3 337.2,204.5 348.3,205 355.5,212.6 357,226 357.2,285.5 349.8,289.8 349.6,230.8 
					348.1,220.2 343.3,214.6 335,214.3 324.8,218.8 311.4,232.4 300,254.8 300.2,318.6 292.6,322.9 292.4,243.4 286.4,239.1 
					292.2,230 299.8,235.8 299.8,241 306.5,227.6 				"/>
			</g>
		</g>
		<g class="st0">
			<g>
				<polygon class="st1" points="257.4,333.9 239.2,323.2 246.4,311.8 264.7,322.4 				"/>
			</g>
			<g>
				<polygon class="st1" points="248.8,341.1 230.5,330.6 239.2,323.2 257.4,333.9 				"/>
			</g>
			<g>
				<polygon class="st1" points="238.8,342.2 220.7,331.7 230.5,330.6 248.8,341.1 				"/>
			</g>
			<g>
				<polygon class="st1" points="233.1,352.2 214.9,341.7 208.7,326.3 226.8,337 				"/>
			</g>
			<g>
				<polygon class="st1" points="226.8,337 208.7,326.3 208.5,265.8 226.6,276.5 				"/>
			</g>
			<g>
				<polygon class="st1" points="199.5,283.7 181.3,273.1 215.9,253.1 234.2,263.8 				"/>
			</g>
			<g>
				<polygon class="st1" points="199.5,292.2 181.4,281.5 181.3,273.1 199.5,283.7 				"/>
			</g>
			<g>
				<polygon class="st1" points="264.7,322.4 269.5,326.3 260.9,339.9 248.1,350.3 233.1,352.2 226.8,337 226.6,276.5 199.5,292.2 
					199.5,283.7 234.2,263.8 234.3,331 238.8,342.2 248.8,341.1 257.4,333.9 				"/>
			</g>
		</g>
		<g class="st0">
			<g>
				<polygon class="st1" points="178,322 159.7,311.3 156.3,303.7 174.5,314.3 				"/>
			</g>
			<g>
				<polygon class="st1" points="171.6,302.2 153.3,291.5 162.5,294.9 180.6,305.5 				"/>
			</g>
			<g>
				<polygon class="st1" points="160.6,305.5 142.3,294.8 153.3,291.5 171.6,302.2 				"/>
			</g>
			<g>
				<polygon class="st1" points="128,348.7 109.7,338.2 110.1,338 128.2,348.5 				"/>
			</g>
			<g>
				<polygon class="st1" points="149,312.5 130.8,301.8 142.3,294.8 160.6,305.5 				"/>
			</g>
			<g>
				<polygon class="st1" points="128.2,348.5 110.1,338 112.1,329.8 130.4,340.3 				"/>
			</g>
			<g>
				<polygon class="st1" points="130.4,340.3 112.1,329.8 115.2,322 133.5,332.5 				"/>
			</g>
			<g>
				<polygon class="st1" points="133.5,332.5 115.2,322 130.8,301.8 149,312.5 				"/>
			</g>
			<g>
				<polygon class="st1" points="121.8,422.3 103.7,411.8 103.4,330.8 121.6,341.3 				"/>
			</g>
			<g>
				<polygon class="st1" points="117.8,330.6 99.6,319.9 110.9,321.7 129.2,332.2 				"/>
			</g>
			<g>
				<polygon class="st1" points="113.9,340.1 95.8,329.4 99.6,319.9 117.8,330.6 				"/>
			</g>
			<g>
				<polygon class="st1" points="160.6,305.5 171.6,302.2 180.6,305.5 184.7,315.1 178,322 174.5,314.3 168.2,312 159.7,314.4 
					151.3,319.6 138.9,335.8 129.2,359.2 129.4,418 121.8,422.3 121.6,341.3 113.9,340.1 117.8,330.6 129.2,332.2 129.2,340.6 
					128,348.7 128.2,348.5 130.4,340.3 133.5,332.5 149,312.5 				"/>
			</g>
		</g>
		<g class="st0">
			<g>
				<polygon class="st1" points="77,382.8 58.7,372.3 67,361.6 85.3,372.3 				"/>
			</g>
			<g>
				<polygon class="st1" points="85.3,372.3 67,361.6 71.1,350.4 89.4,361.1 				"/>
			</g>
			<g>
				<polygon class="st1" points="89.4,361.1 71.1,350.4 72.7,339.6 90.9,350.1 				"/>
			</g>
			<g>
				<polygon class="st1" points="66.1,392 47.9,381.5 58.7,372.3 77,382.8 				"/>
			</g>
			<g>
				<polygon class="st1" points="90.9,350.1 72.7,339.6 70.3,329.1 88.5,339.6 				"/>
			</g>
			<g>
				<polygon class="st1" points="88.5,339.6 70.3,329.1 64.4,323.2 82.5,333.9 				"/>
			</g>
			<g>
				<polygon class="st1" points="35.5,409.7 17.2,399 47.9,381.5 66.1,392 				"/>
			</g>
			<g>
				<polygon class="st1" points="76.8,324.1 58.5,313.4 69.2,313.6 87.3,324.2 				"/>
			</g>
			<g>
				<polygon class="st1" points="64.9,329.1 46.8,318.4 58.5,313.4 76.8,324.1 				"/>
			</g>
			<g>
				<path class="st1" d="M95.4,332l3.1,13.4l-2.1,14.3l-5.9,15.7l-10.9,13.8L67,400.1l-31.5,18.3l0.2,53.8l-7.6,4.3l-0.3-125.8
					L65,329.2l11.7-5l10.7,0.2L95.4,332z M89.4,361.1l1.6-11l-2.4-10.5l-6-5.7h-8.1l-10.2,4.3l-29,16.7l0.2,54.8L66.1,392l10.9-9.1
					l8.3-10.5L89.4,361.1"/>
			</g>
			<g>
				<polygon class="st1" points="27.7,350.6 9.6,339.9 46.8,318.4 64.9,329.1 				"/>
			</g>
			<g>
				<polygon class="st1" points="28,476.4 9.9,465.9 9.6,339.9 27.7,350.6 				"/>
			</g>
		</g>
		<g class="st0">
			<g>
				<polygon class="st1" points="231.7,230.5 213.5,220 216.6,220.3 234.9,230.8 				"/>
			</g>
			<g>
				<polygon class="st1" points="225.5,243.8 207.4,233.3 206.2,230.1 224.5,240.8 				"/>
			</g>
			<g>
				<polygon class="st1" points="228.3,232.4 210.2,221.9 213.5,220 231.7,230.5 				"/>
			</g>
			<g>
				<polygon class="st1" points="228.5,244.6 225.5,243.8 224.5,240.8 225.5,236.2 228.3,232.4 231.7,230.5 234.9,230.8 
					235.7,234.3 234.9,238.4 231.7,242.7 				"/>
			</g>
			<g>
				<polygon class="st1" points="224.5,240.8 206.2,230.1 207.3,225.7 225.5,236.2 				"/>
			</g>
			<g>
				<polygon class="st1" points="225.5,236.2 207.3,225.7 210.2,221.9 228.3,232.4 				"/>
			</g>
		</g>
		<g class="st0">
			<g>
				<polygon class="st1" points="487.5,147.4 487.5,156 454.9,174.8 454.9,166.2 				"/>
			</g>
			<g>
				<polygon class="st1" points="454.9,174.8 436.7,164.1 436.7,155.5 454.9,166.2 				"/>
			</g>
			<g>
				<polygon class="st1" points="454.9,166.2 436.7,155.5 469.2,136.7 487.5,147.4 				"/>
			</g>
		</g>
		<g class="st0">
			<g>
				<polygon class="st1" points="645.5,105.4 627.4,94.9 633.6,83.7 651.7,94.2 				"/>
			</g>
			<g>
				<polygon class="st1" points="651.7,94.2 633.6,83.7 639.2,86.6 657.3,97.3 				"/>
			</g>
			<g>
				<polygon class="st1" points="639.3,114.5 621.1,103.8 627.4,94.9 645.5,105.4 				"/>
			</g>
			<g>
				<polygon class="st1" points="630.5,121.4 612.5,110.9 621.1,103.8 639.3,114.5 				"/>
			</g>
			<g>
				<polygon class="st1" points="622.6,124.2 604.4,113.5 612.5,110.9 630.5,121.4 				"/>
			</g>
			<g>
				<polygon class="st1" points="614.7,121.7 596.6,111.2 604.4,113.5 622.6,124.2 				"/>
			</g>
			<g>
				<polygon class="st1" points="608.1,131.1 590,120.4 584.7,104.3 603,114.9 				"/>
			</g>
			<g>
				<polygon class="st1" points="603,114.9 584.7,104.3 584.5,43.7 602.8,54.4 				"/>
			</g>
			<g>
				<polygon class="st1" points="610.4,41.3 592.1,30.7 616.8,16.4 635,27.1 				"/>
			</g>
			<g>
				<polygon class="st1" points="586.6,63.7 568.3,53.2 568.3,44.5 586.4,55 				"/>
			</g>
			<g>
				<polygon class="st1" points="586.4,55 568.3,44.5 584.5,35.1 602.8,45.7 				"/>
			</g>
			<g>
				<polygon class="st1" points="602.8,23 584.5,12.5 591.9,8 610.2,18.7 				"/>
			</g>
			<g>
				<polygon class="st1" points="602.8,45.7 584.5,35.1 584.5,12.5 602.8,23 				"/>
			</g>
			<g>
				<polygon class="st1" points="610.2,18.7 610.4,41.3 635,27.1 635,35.7 610.4,49.9 610.6,109.3 614.7,121.7 622.6,124.2 
					630.5,121.4 639.3,114.5 645.5,105.4 651.7,94.2 657.3,97.3 650.4,109.5 642.4,120.7 630.5,130.5 619.5,134.2 608.1,131.1 
					603,114.9 602.8,54.4 586.6,63.7 586.4,55 602.8,45.7 602.8,23 				"/>
			</g>
		</g>
		<g class="st0">
			<g>
				<polygon class="st1" points="560.7,159.5 542.5,149 549.9,137.4 568.2,148.1 				"/>
			</g>
			<g>
				<polygon class="st1" points="552.1,166.9 534,156.2 542.5,149 560.7,159.5 				"/>
			</g>
			<g>
				<polygon class="st1" points="542.3,167.9 524,157.2 534,156.2 552.1,166.9 				"/>
			</g>
			<g>
				<polygon class="st1" points="536.4,177.9 518.4,167.2 512,152.1 530.2,162.6 				"/>
			</g>
			<g>
				<polygon class="st1" points="530.2,162.6 512,152.1 511.8,91.6 530.1,102.1 				"/>
			</g>
			<g>
				<polygon class="st1" points="503,109.3 484.7,98.8 519.4,78.8 537.5,89.3 				"/>
			</g>
			<g>
				<polygon class="st1" points="503,117.8 484.7,107.3 484.7,98.8 503,109.3 				"/>
			</g>
			<g>
				<polygon class="st1" points="568.2,148.1 573,151.9 564.2,165.7 551.6,176 536.4,177.9 530.2,162.6 530.1,102.1 503,117.8 
					503,109.3 537.5,89.3 537.7,156.6 542.3,167.9 552.1,166.9 560.7,159.5 				"/>
			</g>
		</g>
		<g class="st0">
			<g>
				<polygon class="st1" points="535.1,56.3 516.8,45.6 520.1,45.9 538.2,56.6 				"/>
			</g>
			<g>
				<polygon class="st1" points="529,69.5 510.8,58.8 509.7,55.9 527.8,66.4 				"/>
			</g>
			<g>
				<polygon class="st1" points="531.8,58.2 513.5,47.5 516.8,45.6 535.1,56.3 				"/>
			</g>
			<g>
				<polygon class="st1" points="531.8,70.4 529,69.5 527.8,66.4 529,61.9 531.8,58.2 535.1,56.3 538.2,56.6 539.2,60 538.2,64.2 
					535.1,68.5 				"/>
			</g>
			<g>
				<polygon class="st1" points="527.8,66.4 509.7,55.9 510.8,51.3 529,61.9 				"/>
			</g>
			<g>
				<polygon class="st1" points="529,61.9 510.8,51.3 513.5,47.5 531.8,58.2 				"/>
			</g>
		</g>
	</g>
</g>
<path class="st2" d="M320.7,440v-4.4h-13.1v-4.4h-4.4v-4.4h-4.4v-4.4h-4.4v-8.8h-4.4v-35h4.4V370h4.4v-4.4h4.4v-4.4h4.4v-4.4h13.1
	v-4.4h21.8v4.4h13.1v4.4h4.4v8.8h4.4v4.4h4.4v4.4h-17.5v-4.4h-4.4V370h-8.7v-4.4h-13.1v4.4h-8.7v4.4H312v4.4h-4.4v8.8h-4.4V405h4.4
	v8.8h4.4v4.4h4.4v4.4h8.7v4.4h13.1v-4.4h8.7v-4.4h4.4v-4.4h17.5v4.4h-4.4v4.4H360v8.8h-4.4v4.4h-13.1v4.4H320.7z"/>
<path class="st2" d="M411.8,439v-6.8h-12.7v-6.8h-4.2v-6.8h-4.2v-6.8h-4.2v-13.5h-4.2v-54.2h4.2v-13.5h4.2v-6.8h4.2v-6.8h4.2v-6.8
	h12.7v-6.8H433v6.8h12.7v6.8h4.2v6.8h4.2v6.8h4.2v13.5h4.2v54.2h-4.2v13.5h-4.2v6.8H450v6.8h-4.2v6.8H433v6.8H411.8z M428.8,418.7
	v-6.8h8.5v-6.8h4.2v-6.8h4.2v-13.5h4.2v-27.1h-4.2v-13.5h-4.2v-6.8h-4.2v-6.8h-8.5v-6.8h-12.7v6.8h-8.5v6.8h-4.2v6.8h-4.2v13.5h-4.2
	v27.1h4.2v13.5h4.2v6.8h4.2v6.8h8.5v6.8H428.8z"/>
<path class="st2" d="M473.8,440V264.8h20V291h4v17.5h4v26.3h4v26.3h4v35h4v-35h4v-26.3h4v-26.3h4V291h4v-26.3h20V440h-12V308.6h-4
	v17.5h-4v35h-4v35h-4v26.3h-4V440h-12v-17.5h-4v-26.3h-4v-35h-4v-35h-4v-17.5h-4V440H473.8z"/>
<path class="st2" d="M561.8,439.3V234.7h52.1v10.2h4.7v10.2h4.7v10.2h4.7v51.1h-4.7v10.2h-4.7V337h-4.7v10.2H576v92.1H561.8z
	 M609.1,316.5v-10.2h4.7v-30.7h-4.7v-10.2H576v51.1H609.1z"/>
<path class="st2" d="M657.8,439v-13.1h-8.7v-13.1h-4.4v-26.2h-4.4V177h13.1v183.4h4.4v26.2h4.4v13.1H684v-13.1h4.4v-26.2h4.4V177
	h13.1v209.6h-4.4v26.2h-4.4v13.1h-8.7V439H657.8z"/>
<path class="st2" d="M744.5,388.9V208.8h-29.3V177h71.2v31.8h-29.3v180.1H744.5z"/>
<path class="st2" d="M795.9,388.9V177h56.8v31.8h-42.6v53h42.6v31.8h-42.6v63.6h42.6v31.8H795.9z"/>
<path class="st2" d="M873.8,388.9V177h46.8v10.6h4.3v10.6h4.3v10.6h4.3v53h-4.3v10.6h-4.3v10.6h-4.3v10.6h-12.8v10.6h4.3v10.6h4.3
	v10.6h4.3v10.6h4.3v10.6h4.3v10.6h4.3v10.6h4.3v10.6h4.3v10.6h-17v-10.6h-4.3v-10.6h-4.3v-10.6h-4.3v-10.6h-4.3v-10.6h-4.3v-10.6
	h-4.3v-10.6H895v-10.6h-4.3v-10.6h-4.3v95.3H873.8z M916.3,261.7v-10.6h4.3v-31.8h-4.3v-10.6h-29.8v53H916.3z"/>
<path class="st2" d="M320.7,614.2v-7.7h-13.1v-7.7h-4.4v-7.7h-4.4v-7.7h-4.4v-15.4h-4.4v-61.4h4.4v-15.4h4.4v-7.7h4.4v-7.7h4.4v-7.7
	h13.1v-7.7h21.8v7.7h13.1v7.7h4.4v15.4h4.4v7.7h4.4v7.7h-17.5V499h-4.4v-7.7h-8.7v-7.7h-13.1v7.7h-8.7v7.7H312v7.7h-4.4V522h-4.4
	v30.7h4.4v15.4h4.4v7.7h4.4v7.7h8.7v7.7h13.1v-7.7h8.7v-7.7h4.4v-7.7h4.4v-15.4h-26.2v-23h39.3v46.1h-4.4v7.7H360v15.4h-4.4v7.7
	h-13.1v7.7H320.7z"/>
<path class="st2" d="M387,614.2V460.6h52.1v7.7h4.7v7.7h4.7v7.7h4.7V522h-4.7v7.7h-4.7v7.7h-4.7v7.7h-14.2v7.7h4.7v7.7h4.7v7.7h4.7
	v7.7h4.7v7.7h4.7v7.7h4.7v7.7h4.7v7.7h4.7v7.7h-18.9v-7.7h-4.7v-7.7h-4.7v-7.7h-4.7v-7.7h-4.7v-7.7h-4.7v-7.7h-4.7v-7.7h-4.7v-7.7
	h-4.7v-7.7h-4.7v69.1H387z M434.4,522v-7.7h4.7v-23h-4.7v-7.7h-33.2V522H434.4z"/>
<path class="st2" d="M473.7,614.2V460.6h52.1v7.7h4.7v7.7h4.7v7.7h4.7V522h-4.7v7.7h-4.7v7.7h-4.7v7.7h-14.2v7.7h4.7v7.7h4.7v7.7
	h4.7v7.7h4.7v7.7h4.7v7.7h4.7v7.7h4.7v7.7h4.7v7.7h-18.9v-7.7h-4.7v-7.7h-4.7v-7.7h-4.7v-7.7h-4.7v-7.7h-4.7v-7.7h-4.7v-7.7h-4.7
	v-7.7h-4.7v-7.7h-4.7v69.1H473.7z M521.1,522v-7.7h4.7v-23h-4.7v-7.7h-33.2V522H521.1z"/>
<path class="st2" d="M561.7,614.2V460.6h52.1v7.7h4.7v7.7h4.7v7.7h4.7V522h-4.7v7.7h-4.7v7.7h-4.7v7.7h-14.2v7.7h4.7v7.7h4.7v7.7
	h4.7v7.7h4.7v7.7h4.7v7.7h4.7v7.7h4.7v7.7h4.7v7.7h-18.9v-7.7h-4.7v-7.7h-4.7v-7.7h-4.7v-7.7h-4.7v-7.7h-4.7v-7.7h-4.7v-7.7h-4.7
	v-7.7h-4.7v-7.7h-4.7v69.1H561.7z M609.1,522v-7.7h4.7v-23h-4.7v-7.7h-33.2V522H609.1z"/>
<path class="st2" d="M649,614.2V460.6h14.2v130.5h47.4v23H649z"/>
<path class="st2" d="M739.3,614.2v-9.6h-9.5V595h-4.7v-9.6h-4.7v-19.2h14.2v9.6h4.7v9.6h23.7v-9.6h4.7V547h-4.7v-9.6h-4.7v-9.6H744
	v-9.6h-14.2v-9.6h-4.7V499h-4.7v-48h4.7v-9.6h4.7v-9.6h4.7v-9.6h33.2v9.6h4.7v9.6h4.7v19.2h-14.2v-9.6h-23.7v9.6h-4.7v28.8h9.5v9.6
	h14.2v9.6h9.5v9.6h9.5v19.2h4.7v48h-4.7v9.6h-4.7v9.6h-9.5v9.6H739.3z"/>
</svg>
