<?xml version="1.0" encoding="utf-8"?>
<!-- Generator: Adobe Illustrator 22.0.1, SVG Export Plug-In . SVG Version: 6.00 Build 0)  -->
<svg version="1.1" id="Layer_1" xmlns="http://www.w3.org/2000/svg" xmlns:xlink="http://www.w3.org/1999/xlink" x="0px" y="0px"
	 viewBox="0 0 100 100" style="enable-background:new 0 0 100 100;" xml:space="preserve">
<g>
	<path d="M77.2,22.6c0-5.2-1-8.9-2.9-11.2S69,8.1,64.5,8.1c-9,0-15.8,6.4-20.5,19.3l-0.9,2.6C37.5,45,29.4,52.5,18.7,52.5
		c-4.3,0-8.3-1.6-12-4.9S1,40.8,1,37c0-1.9,0.9-2.9,2.7-2.9c1.2,0,2.4,1.5,3.6,4.5c2.3,5.5,6.1,8.2,11.4,8.2c4.1,0,7.4-1.3,10-3.9
		c2.6-2.6,5.5-7.6,8.7-15l2.1-4.7C45.8,9.4,54.2,2.4,64.7,2.4c12,0,18,6.7,18,20.2h5.8c4,0,6.6,0.5,7.7,1.6c1.1,1.1,1.7,3.6,1.7,7.4
		v43.5c0,6-2.1,11.2-6.4,15.4c-4.3,4.3-9.4,6.4-15.4,6.4c-6,0-11.1-2.1-15.4-6.4c-4.3-4.3-6.4-9.4-6.4-15.4V31.7
		c0-3.7,0.6-6.1,1.8-7.3c1.2-1.2,3.7-1.7,7.6-1.7H77.2z M78.6,25.4H63.7c-2.8,0-4.5,0.4-5.3,1.1c-0.8,0.7-1.1,2.4-1.1,4.9v9.1h21.3
		V25.4z M57.2,43.3v31.9c0,5.2,1.8,9.7,5.5,13.4s8.2,5.6,13.4,5.6c5.3,0,9.7-1.8,13.4-5.5c3.7-3.7,5.5-8.2,5.5-13.4V43.3H57.2z
		 M81.4,25.4v15.1h13.8v-9.1c0-2.7-0.4-4.4-1.1-5c-0.7-0.7-2.5-1-5.3-1H81.4z"/>
</g>
</svg>
