<?xml version="1.0" encoding="utf-8"?>
<!-- Generator: Adobe Illustrator 22.0.1, SVG Export Plug-In . SVG Version: 6.00 Build 0)  -->
<svg version="1.1" id="Layer_1" xmlns="http://www.w3.org/2000/svg" xmlns:xlink="http://www.w3.org/1999/xlink" x="0px" y="0px"
	 viewBox="0 0 257.3 154" style="enable-background:new 0 0 257.3 154;" xml:space="preserve">
<path d="M162.4,90.2L117.3,108c-1.2,1.6-2.4,3-3.7,4.2c-1.3,1.2-2.7,2.2-4.1,2.8c-1.5,0.7-3.1,1.2-5,1.6s-3.9,0.6-6.3,0.7
	l-42.1,24.5L22.6,73l9-5.1l0.2-8.7c3.4-2.9,6.7-5.5,9.9-7.7c3.3-2.2,6.4-4,9.4-5.5c5.2-2.5,9.7-3.9,13.4-3.9
	c3.6-0.1,7.1,1.1,10.4,3.5c0-3.9,1.2-7.4,3.7-10.3c2.4-2.9,6.5-5.7,11.9-8.4c2.8-1.4,6-2.6,9.6-3.7c3.6-1.1,7.6-2.2,12.1-3l6.5,4.8
	l10-4.2L162.4,90.2z M158.6,88.7l-31.3-64.6l-6.3,2.6l4.4,2.8L153,86.3l-40.9,16.8c-1.1,2.5-3.2,4.6-6.2,6c-2.9,1.4-5.7,1.8-8.4,1.1
	l-38.6,21.8L31.3,75.4l0.1-4.4L26,73.9L57.2,138l40.6-23.6c2.1,0.1,4,0,5.7-0.3c1.8-0.3,3.3-0.7,4.8-1.5c1.3-0.7,2.5-1.5,3.7-2.6
	c1.2-1.1,2.2-2.5,3.4-4.1L158.6,88.7z M34,74.6l25.1,51.6l0.3-11.9l-24.8-51L34,74.6z M62.1,127.6l34.8-20.5
	c1.7,0.8,3.9,0.9,6.7,0.3c-2.5-3.9-5.5-6.2-9.2-6.5c-3.6-0.5-8.4,0.7-14.3,3.6c-2.7,1.3-5.6,3-8.6,4.9c-3,1.9-6.1,4.1-9.3,6.6
	L62.1,127.6z M61.6,112.9c3.5-2.5,6.6-4.7,9.4-6.5c2.8-1.8,5.2-3.2,7.3-4.2c8.5-4.1,15.6-5.1,21.3-2.8L77.2,53.3
	c-2.2-4.6-5.3-7.4-9.4-8.2c-4-0.9-8.9,0.1-14.7,2.9c-3,1.4-5.9,3.2-8.8,5.1c-2.9,2-5.8,4.1-8.7,6.5L61.6,112.9z M110.1,23.3
	c-4,0.9-7.7,2-10.9,3.1c-3.3,1.1-6.1,2.2-8.6,3.5c-6.1,3-10.1,6.5-12.1,10.5c-1.6,3.2-1.1,7.2,1.2,12l22.5,46.2
	c1.1-3.6,2.7-6.4,4.9-8.5c2.2-2.2,5.4-4.3,10-6.5c3-1.5,6.1-2.7,9.3-3.8c3.2-1.1,6.5-2.1,9.9-2.8L110.1,23.3z M147.9,85.9l-9.3-6.9
	c-4.2,1-8,2.2-11.6,3.4c-3.6,1.2-6.5,2.4-9.3,3.7c-11.7,5.7-15.6,12.3-11.8,20.1c2.2-1.6,3.6-3.5,4.1-5.6L147.9,85.9z M114,25
	l24.7,50.9l9.4,6.8l-24.7-50.8L114,25z"/>
<path d="M161.1,54.7v7.5c13.1,5.3,19.7,14.5,19.7,27.5c0,8-2.9,15-8.6,20.7c-5.7,5.7-12.6,8.5-20.7,8.5c-8,0-14.9-2.8-20.6-8.5
	s-8.5-12.5-8.5-20.5c0-12.6,6.5-21.8,19.7-27.6v-7.5c1.9-0.9,4.1-1.7,6.8-2.1v-1.1c0-3.7,1.2-6.9,3.6-9.5c2.4-2.6,5.4-3.8,9-3.8
	c4.8,0,10.6,2.9,17.4,8.8l2.9,2.5c7,6.1,12.8,9.1,17.2,9.1c1.5,0,3.4-0.6,5.6-1.8c0.4-0.2,0.7-0.3,1.3-0.3c1.7,0,2.5,0.7,2.5,2.1
	s-1,2.7-3,3.8s-4.3,1.7-6.8,1.7c-5.4,0-12.3-3.4-20.4-10.2l-3.2-2.6c-6-5-10.6-7.5-13.8-7.5c-4.8,0-7.1,3.1-7.1,9.2
	C156.7,53.1,159,53.8,161.1,54.7z M187.2,35.1l2.2-1.8l13.6,17.9L187.2,35.1z M198.4,85.1l-2.6-0.9l9.2-20.5L198.4,85.1z
	 M206.2,33.3h2.8l-1.3,16.1L206.2,33.3z M217,78.5l-2.6,0.9l-4.1-15.6L217,78.5z M225.8,33.3L228,35l-15.4,16.2L225.8,33.3z
	 M234,70.6l-1.3,2.2l-18.5-12.3L234,70.6z M230.8,51.5l0.5,2.6l-16.2,1.5L230.8,51.5z"/>
</svg>
