<?xml version="1.0" encoding="utf-8"?>
<!-- Generator: Adobe Illustrator 22.0.1, SVG Export Plug-In . SVG Version: 6.00 Build 0)  -->
<svg version="1.1" id="Layer_1" xmlns="http://www.w3.org/2000/svg" xmlns:xlink="http://www.w3.org/1999/xlink" x="0px" y="0px"
	 viewBox="0 0 30 30" style="enable-background:new 0 0 30 30;" xml:space="preserve">
<style type="text/css">
	.st0{clip-path:url(#SVGID_2_);}
	.st1{clip-path:url(#SVGID_4_);}
	.st2{clip-path:url(#SVGID_6_);fill:#FFFFFF;}
</style>
<g>
	<g>
		<defs>
			<rect id="SVGID_1_" x="1.9" y="1.7" width="26.9" height="26.9"/>
		</defs>
		<clipPath id="SVGID_2_">
			<use xlink:href="#SVGID_1_"  style="overflow:visible;"/>
		</clipPath>
		<path class="st0" d="M9.1,25.1h12.6v-0.9H9.1V25.1z M9.1,21.5h12.6v-0.9H9.1V21.5z M9.1,17.9h12.6V17H9.1V17.9z M9.1,14.3h12.6
			v-0.9H9.1V14.3z M9.1,10.7h12.6V9.8H9.1V10.7z M9.1,7.1h12.6V6.2H9.1V7.1z M6.3,2.6h18v25.1h-18V2.6z M5.5,1.7v3.6v0.9v22.4h15.3
			h0.9h3.6V1.7H5.5z"/>
		<g class="st0">
			<defs>
				<rect id="SVGID_3_" x="1.9" y="1.7" width="26.9" height="26.9"/>
			</defs>
			<clipPath id="SVGID_4_">
				<use xlink:href="#SVGID_3_"  style="overflow:visible;"/>
			</clipPath>
			<g class="st1">
				<g>
					<defs>
						<rect id="SVGID_5_" x="-4.7" y="8.4" width="40.1" height="17.8"/>
					</defs>
					<clipPath id="SVGID_6_">
						<use xlink:href="#SVGID_5_"  style="overflow:visible;"/>
					</clipPath>
					<polygon class="st2" points="2.9,13.8 27.7,13.8 28.4,15.7 28.4,24.2 27.4,25.4 3.6,25.4 2.3,24.8 2.3,14.9 					"/>
				</g>
			</g>
			<path class="st1" d="M6.8,22.5h1.8v0.9H6.8V22.5z M5.9,20.3h18.9v0.9H5.9V20.3z M5.9,17.6h18.9v0.9H5.9V17.6z M4.6,24.8h21.5
				c0.8,0,1.3-0.1,1.5-0.3c0.2-0.2,0.3-0.7,0.3-1.5v-7.2c0-0.8-0.1-1.3-0.3-1.5c-0.2-0.2-0.7-0.3-1.5-0.3H4.6
				c-0.8,0-1.3,0.1-1.5,0.3c-0.2,0.2-0.3,0.7-0.3,1.5V23c0,0.8,0.1,1.3,0.3,1.5C3.3,24.7,3.8,24.8,4.6,24.8 M1.9,23v-7.2
				c0-1.3,0.1-2.1,0.4-2.3c0.3-0.3,1-0.4,2.3-0.4h21.5c1.3,0,2.1,0.1,2.3,0.4c0.3,0.3,0.4,1,0.4,2.3V23c0,1.3-0.1,2.1-0.4,2.3
				c-0.3,0.3-1,0.4-2.3,0.4H4.6c-1.3,0-2.1-0.1-2.3-0.4C2,25,1.9,24.2,1.9,23"/>
		</g>
	</g>
</g>
</svg>
