<?xml version="1.0" standalone="no"?>
<!DOCTYPE svg PUBLIC "-//W3C//DTD SVG 1.1//EN" "http://www.w3.org/Graphics/SVG/1.1/DTD/svg11.dtd" >
<svg xmlns="http://www.w3.org/2000/svg" xmlns:xlink="http://www.w3.org/1999/xlink" version="1.1">
<metadata>
Created by FontForge 20161116 at Fri Oct 21 20:15:11 2016
 By Jimmy Wärting
Copyright (c) 2014 by THOMAS GILLETT. All rights reserved.
</metadata>
<defs>
<font id="MadrasExtraBold" horiz-adv-x="1401" >
  <font-face 
    font-family="Madras Extra Bold"
    font-weight="800"
    font-stretch="normal"
    units-per-em="2048"
    panose-1="0 0 0 0 0 0 0 0 0 0"
    ascent="1628"
    descent="-420"
    x-height="1092"
    cap-height="1504"
    bbox="-160 -472 2783.99 2015"
    underline-thickness="102"
    underline-position="-868"
    unicode-range="U+0020-FB04"
  />
<missing-glyph horiz-adv-x="748" 
d="M68 1365h544v-1365h-544v1365zM544 68v1229h-408v-1229h408z" />
    <glyph glyph-name=".notdef" horiz-adv-x="748" 
d="M68 1365h544v-1365h-544v1365zM544 68v1229h-408v-1229h408z" />
    <glyph glyph-name="space" unicode=" " horiz-adv-x="488" 
 />
    <glyph glyph-name="exclam" unicode="!" horiz-adv-x="629" 
d="M130 162c0 50.667 18 94 54 130s79.333 54 130 54s94 -18 130 -54s54 -79.333 54 -130s-18 -94 -54 -130s-79.333 -54 -130 -54s-94 18 -130 54s-54 79.333 -54 130zM175 1504h274v-759l-13 -236h-249l-12 236v759z" />
    <glyph glyph-name="quotedbl" unicode="&#x22;" horiz-adv-x="994" 
d="M409 1505l-44 -703h-167l-45 703h256zM841 1505l-44 -703h-167l-45 703h256z" />
    <glyph glyph-name="numbersign" unicode="#" horiz-adv-x="1462" 
d="M115 566h245v380h-245v203h245v356h225v-356h293v356h224v-356h245v-203h-245v-380h245v-203h-245v-363h-224v363h-293v-363h-225v363h-245v203zM878 566v380h-293v-380h293z" />
    <glyph glyph-name="dollar" unicode="$" horiz-adv-x="1259" 
d="M297 396c44.667 -62 94.332 -108.001 148.999 -138.001c54 -30 118.667 -45 194 -45c68.667 0 123.667 18 165 54s62 88 62 156c0 30.667 -8 57.667 -24 81c-16 22.667 -37.667 41.667 -65 57c-13.333 7.33301 -27.833 14.5 -43.5 21.5s-32.167 13.5 -49.5 19.5
c-35.333 12 -72.333 24 -111 36c-39.333 12 -78.333 25 -117 39c-39.333 14 -76.333 32 -111 54c-34 21.333 -65 47 -93 77c-27.333 29.333 -49 67 -65 113s-24 98 -24 156c0 110.667 30.667 205.334 92 284.001c60.667 78 145.334 128 254.001 150v221h241l1 -223
c144.667 -31.333 262.667 -116.333 354 -255l-201 -141c-77.333 110 -171.333 165 -282 165c-59.333 0 -105.333 -19.333 -138 -58c-33.333 -39.333 -50 -88.666 -50 -147.999c0 -30 8 -56 24 -78s37.667 -40 65 -54c28.667 -14.667 59.667 -27.334 93 -38.001
c34.667 -11.333 71.667 -22.333 111 -33c19.333 -5.33301 38.833 -11 58.5 -17s39.167 -12.667 58.5 -20c38.667 -14 75.667 -32 111 -54c36 -22.667 67 -48 93 -76c27.333 -29.333 49 -67 65 -113s24 -98.333 24 -157c0 -121.333 -34 -221.333 -102 -300
c-68 -79.333 -162 -129.333 -282 -150l-1 -219h-241v219c-176 28 -316.333 121.333 -421 280z" />
    <glyph glyph-name="percent" unicode="%" horiz-adv-x="2056" 
d="M107 1051c0 22.667 0.999023 44.667 2.99902 66s4.66699 42.666 8 63.999c7.33301 42.667 19.333 84.334 36 125.001s38.334 76.334 65.001 107.001s60 55.334 100 74.001c42 19.333 87.333 29 136 29c50.667 0 95.667 -9.33301 135 -28
c41.333 -19.333 74 -43.666 98 -72.999c25.333 -30 46.333 -65.333 63 -106c16.667 -41.333 28.667 -82.333 36 -123c3.33301 -20.667 5.83301 -41.667 7.5 -63s2.5 -43 2.5 -65c0 -22.667 -0.833008 -44.667 -2.5 -66s-4.16699 -42.666 -7.5 -63.999
c-7.33301 -42.667 -19.333 -84.334 -36 -125.001c-17.333 -42 -38.666 -78 -63.999 -108c-26 -31.333 -59 -56.333 -99 -75c-39.333 -18.667 -84.666 -28 -135.999 -28c-48.667 0 -93.334 9.66699 -134.001 29s-73.334 44.333 -98.001 75
c-25.333 30.667 -46.333 66.667 -63 108c-17.333 41.333 -29.333 82.666 -36 123.999c-3.33301 21.333 -5.83301 42.666 -7.5 63.999s-2.5 42.666 -2.5 63.999zM312.999 1051c0 -87.333 13.666 -155.333 40.999 -204c26.667 -48 60.334 -72 101.001 -72
c37.333 0 69 24.667 95 74c26 48.667 39 116.667 39 204c0 90.667 -13 160 -39 208s-58 72 -96 72c-38.667 0 -72 -25 -100 -75s-42 -119 -42 -207h1zM1296 1498h202l-731 -1503h-201zM1252 428c0 22.667 0.99707 44.666 2.99707 65.999s4.66699 42.666 8 63.999
c7.33301 42.667 19.333 84.334 36 125.001c16.667 40 38.334 76 65.001 108c26 30.667 59 55.667 99 75c39.333 18.667 84.333 28 135 28c62 0 116 -14 162 -42c46.667 -28 82.334 -65 107.001 -111c24 -44.667 42.333 -93.334 55 -146.001c12 -51.333 18 -104.333 18 -159
c0 -22.667 -0.833008 -44.667 -2.5 -66s-4.16699 -42.666 -7.5 -63.999c-7.33301 -42 -19.333 -84 -36 -126c-16.667 -41.333 -37.667 -77.666 -63 -108.999s-58.333 -56.333 -99 -75c-40 -18.667 -86 -28 -138 -28c-48 0 -92.333 9.66699 -133 29
c-39.333 18.667 -71.666 43.667 -96.999 75c-25.333 30.667 -46.333 66.667 -63 108c-17.333 40.667 -29.333 81.667 -36 123c-6.66699 39.333 -10 81.333 -10 126zM1459 428.999c0 -87.333 13.667 -155.668 41 -205.001c26.667 -48.667 59.667 -73 99 -73
c38 0 70 24.667 96 74c26 48.667 39 117.334 39 206.001c0 90 -13 159 -39 207s-58.333 72 -97 72c-38 0 -71 -25 -99 -75s-42 -119 -42 -207z" />
    <glyph glyph-name="ampersand" unicode="&#x26;" horiz-adv-x="1468" 
d="M111 397c0 40.667 6.00098 80.0039 18.001 118.004c12 39.333 27.333 73.333 46 102c19.333 30.667 42.666 59.667 69.999 87c14 14 28 27 42 39s27.667 23.333 41 34c26 20 56.667 41 92 63c-23.333 34 -42.333 61.833 -57 83.5s-25 37.834 -31 48.501
c-36.667 67.333 -55 138.666 -55 213.999c0 68.667 19 129 57 181c37.333 51.333 85 89.666 143 114.999s119 38 183 38c32.667 0 65.667 -4 99 -12c32.667 -8 67.667 -21 105 -39c36.667 -18 72.667 -44 108 -78c36 -34.667 67.667 -75.667 95 -123l-194 -133
c-26 40.667 -53 72.667 -81 96c-28 22.667 -51.667 36.667 -71 42c-20 5.33301 -41 8 -63 8c-74.667 0 -112 -35 -112 -105c0 -50.667 24.667 -109.334 74 -176.001c14.667 -20 30.667 -41 48 -63l313 -394c14.667 37.333 29.667 86 45 146
c14.667 58.667 23.667 112.667 27 162l208 -55c-21.333 -136 -68.333 -281 -141 -435l284 -362h-322c-36 46 -63.667 81.333 -83 106s-31 39.667 -35 45c-60 -57.333 -119 -101.333 -177 -132c-57.333 -30.667 -124.333 -46 -201 -46c-88.667 0 -168 16.333 -238 49
c-71.333 33.333 -128.333 82.666 -171 147.999s-64 142.666 -64 231.999zM366.001 391.004c0 -50 22 -94.001 66 -132.001s93.667 -57 149 -57c107.333 0 192 34 254 102c-30 38.667 -78 100.667 -144 186c-33.333 42.667 -62 79.5 -86 110.5s-43.667 56.167 -59 75.5
c-62.667 -41.333 -107.667 -84.666 -135 -129.999c-28 -46 -42 -97.667 -42 -155h-3z" />
    <glyph glyph-name="quotesingle" unicode="'" horiz-adv-x="558" 
d="M407 1505l-44 -713h-167l-45 713h256z" />
    <glyph glyph-name="parenleft" unicode="(" horiz-adv-x="674" 
d="M113 590c0 330 119.333 649.339 358 958.006l110 -116c-80 -124.667 -143.333 -260.334 -190 -407.001c-46 -145.333 -69 -287.333 -69 -426c0 -248 84 -512.333 252 -793l-111 -117c-17.333 24.667 -32.5 46.5 -45.5 65.5s-24.167 35.5 -33.5 49.5s-20 30.167 -32 48.5
s-25 39.166 -39 62.499c-28.667 47.333 -50.667 86.666 -66 117.999c-8 16.667 -16.5 35 -25.5 55s-18.167 41.667 -27.5 65s-17.5 46.166 -24.5 68.499s-13.167 44.166 -18.5 65.499s-10 43.666 -14 66.999s-7.66699 48 -11 74s-5.83301 52.333 -7.5 79s-2.5 54 -2.5 82z
" />
    <glyph glyph-name="parenright" unicode=")" horiz-adv-x="674" 
d="M200 1547c238.667 -308.667 357.997 -621.67 357.997 -939.003c0 -75.333 -6.33301 -147.666 -19 -216.999c-6.66699 -36 -14 -69.833 -22 -101.5s-17 -62.167 -27 -91.5c-19.333 -56.667 -45.333 -117 -78 -181c-31.333 -61.333 -62.333 -116.666 -93 -165.999
c-15.333 -24 -32.166 -49.5 -50.499 -76.5s-38.166 -55.833 -59.499 -86.5l-111 116c168 282 252 543.667 252 785c0 140.667 -23.333 284.334 -70 431.001c-47.333 149.333 -110.666 286.333 -189.999 411z" />
    <glyph glyph-name="asterisk" unicode="*" horiz-adv-x="745" 
d="M49 1339l220 -15l-138 216l111 64l102 -224l98 221l115 -64l-136 -212l219 14v-122l-221 15l138 -218l-115 -62l-98 223l-100 -225l-111 66l136 216l-220 -15v122z" />
    <glyph glyph-name="plus" unicode="+" horiz-adv-x="1145" 
d="M101 796h376v398h201v-398h366v-195h-366v-403h-201v403h-376v195z" />
    <glyph glyph-name="comma" unicode="," horiz-adv-x="536" 
d="M137 255h283l-153 -543h-156z" />
    <glyph glyph-name="hyphen" unicode="-" horiz-adv-x="737" 
d="M93 838h551v-225h-551v225z" />
    <glyph glyph-name="period" unicode="." horiz-adv-x="574" 
d="M103 162c0 50.667 18 94 54 130s79.333 54 130 54s94 -18 130 -54s54 -79.333 54 -130s-18 -94 -54 -130s-79.333 -54 -130 -54s-94 18 -130 54s-54 79.333 -54 130z" />
    <glyph glyph-name="slash" unicode="/" horiz-adv-x="847" 
d="M616 1610h186l-569 -1781h-188z" />
    <glyph glyph-name="zero" unicode="0" horiz-adv-x="1247" 
d="M84 751c0 21.333 0.50293 42.498 1.50293 63.498s2.16699 42.167 3.5 63.5s3.66602 43.666 6.99902 66.999s7.66602 48 12.999 74c10 52.667 23 101.334 39 146.001s38 89.667 66 135c28 44.667 60 82.667 96 114c36.667 31.333 81.667 57 135 77
c54 20 113.333 30 178 30c62 0 119.333 -9.66699 172 -29c51.333 -18.667 95.333 -44.334 132 -77.001s68.667 -71 96 -115c28 -45.333 50 -90.666 66 -135.999s29 -95 39 -149c10 -53.333 17 -101.666 21 -144.999c4 -44 6 -88 6 -132c0 -40.667 -2 -82 -6 -124
s-11 -89 -21 -141s-23 -101 -39 -147s-38 -91 -66 -135s-60 -82 -96 -114s-80.333 -58 -133 -78c-53.333 -20 -111.333 -30 -174 -30c-66 0 -126 10 -180 30s-99 46 -135 78c-36.667 32.667 -68.334 71.667 -95.001 117s-47.667 91 -63 137
c-14.667 44.667 -26.667 94.334 -36 149.001c-8.66699 54 -14.667 101.667 -18 143c-1.33301 20.667 -2.33301 41.5 -3 62.5s-1 42.167 -1 63.5zM345.003 730.998c0 -165.333 23 -293.333 69 -384s115 -136 207 -136c83.333 0 149 49.667 197 149
c48 98.667 72 225.667 72 381c0 162.667 -24 294 -72 394s-114 150 -198 150c-90 0 -158 -48.667 -204 -146s-69 -233 -69 -407z" />
    <glyph glyph-name="one" unicode="1" horiz-adv-x="1063" 
d="M513 1504h177v-1263h288v-241h-856v241h311v983l-295 -101l-60 228z" />
    <glyph glyph-name="two" unicode="2" horiz-adv-x="1205" 
d="M99 122c0 56.667 7.66602 112.002 22.999 166.002c14.667 52.667 33.667 99 57 139s52.666 79.333 87.999 118c36 38.667 70 71.667 102 99c32.667 27.333 70.334 56 113.001 86c8 5.33301 21.833 14.666 41.5 27.999s45.5 30.666 77.5 51.999
c62.667 42 107.667 74 135 96c70.667 56 106 109.333 106 160c0 64.667 -21 116 -63 154s-97.333 57 -166 57c-67.333 0 -124.333 -14 -171 -42c-47.333 -28 -93.333 -75 -138 -141l-198 141c118.667 190 286 285 502 285c93.333 0 177 -18 251 -54
s132.667 -88.667 176 -158s65 -149.333 65 -240c0 -42.667 -7.33301 -83.667 -22 -123c-15.333 -40 -32.666 -74.333 -51.999 -103c-19.333 -28 -47.333 -58.333 -84 -91c-18 -16 -34.833 -30.5 -50.5 -43.5s-30.167 -24.167 -43.5 -33.5
c-27.333 -19.333 -62.333 -43.333 -105 -72c-30 -19.333 -55.667 -36.333 -77 -51s-39 -26.667 -53 -36c-44.667 -30 -83 -60 -115 -90c-65.333 -59.333 -106.333 -120.333 -123 -183h710v-242h-985z" />
    <glyph glyph-name="three" unicode="3" horiz-adv-x="1220" 
d="M262 391c23.333 -38 48.334 -70.335 75.001 -97.002c26 -26 52.333 -45 79 -57c27.333 -12 52.666 -20 75.999 -24c24 -4 50.667 -6 80 -6c96.667 0 170.667 22 222 66s77 104 77 180c0 72.667 -22 128 -66 166s-106.333 57 -187 57h-190v232h192
c68.667 0 116.667 14.667 144 44s41 75 41 137c0 48 -19.333 91 -58 129c-39.333 38 -92.666 57 -159.999 57c-14.667 0 -28 -0.5 -40 -1.5s-23 -2.16699 -33 -3.5s-20.833 -3.66602 -32.5 -6.99902s-24.167 -7.66602 -37.5 -12.999c-27.333 -10 -53.333 -27 -78 -51
c-25.333 -24 -50.333 -55 -75 -93l-186 140c108 180.667 267.667 271 479 271c59.333 0 117.666 -9 174.999 -27c56.667 -18 108 -44 154 -78s83 -78.667 111 -134s42 -116.333 42 -183c0 -56.667 -11 -108 -33 -154s-57 -90 -105 -132v-3
c70.667 -35.333 122.667 -80.333 156 -135c33.333 -55.333 50 -126.333 50 -213c0 -70 -10.333 -132 -31 -186c-21.333 -55.333 -49.333 -101.333 -84 -138c-35.333 -37.333 -77.333 -68.333 -126 -93c-49.333 -25.333 -100.666 -43.333 -153.999 -54
c-52.667 -10.667 -109.334 -16 -170.001 -16c-221.333 0 -384.333 95.333 -489 286z" />
    <glyph glyph-name="four" unicode="4" horiz-adv-x="1298" 
d="M33 502c164.667 213.333 296.667 384.833 396 514.5s166 217.167 200 262.5c48 64.667 107 139.667 177 225h195v-966h216v-213h-216v-325h-258v325h-710v177zM347 537c14.667 0.666992 54.8311 1 120.498 1h275.5v519c-111.333 -148 -199.666 -265 -264.999 -351
s-108.666 -142.333 -129.999 -169h-1z" />
    <glyph glyph-name="five" unicode="5" horiz-adv-x="1265" 
d="M305 418c89.333 -135.333 200.667 -203.001 334 -203.001c71.333 0 131 27 179 81s72 118 72 192c0 70.667 -24 130.667 -72 180s-107.333 74 -178 74c-45.333 0 -88.333 -8 -129 -24c-41.333 -16 -91.333 -50 -150 -102l-186 68l53 817h847v-242h-611l-22 -338l7 -4
c32 19.333 68.667 35 110 47c42 12 80 18 114 18c138.667 0 252.667 -47 342 -141c89.333 -94.667 134 -211.667 134 -351c0 -93.333 -21.667 -179.666 -65 -258.999s-104.333 -142.333 -183 -189s-166.667 -70 -264 -70c-104.667 0 -203.667 25.333 -297 76
c-94 50.667 -171.333 127 -232 229z" />
    <glyph glyph-name="six" unicode="6" horiz-adv-x="1235" 
d="M100 646c0 61.333 2 118.997 6 172.997c2 27.333 4.83301 55.166 8.5 83.499s8.16699 57.833 13.5 88.5c11.333 62.667 25.666 117.667 42.999 165c18 48.667 41.667 96.334 71 143.001s63.333 85.334 102 116.001s86.334 55.667 143.001 75s119.334 29 188.001 29
c176 0 317 -78.667 423 -236l-196 -134c-68.667 84.667 -145.667 127 -231 127c-45.333 0 -86 -10 -122 -30s-65 -45 -87 -75c-22.667 -30.667 -41.334 -67.334 -56.001 -110.001c-15.333 -43.333 -26.333 -83.666 -33 -120.999c-7.33301 -38 -12.333 -78.333 -15 -121
c110.667 105.333 221 158 331 158c140.667 0 253.667 -46 339 -138c84.667 -91.333 127 -208.333 127 -351c0 -153.333 -49.333 -277.333 -148 -372s-225 -142 -379 -142c-74 0 -141 13 -201 39c-61.333 26.667 -111 61 -149 103c-38.667 42.667 -71.667 93.334 -99 152.001
c-26 56.667 -45.333 117.334 -58 182.001c-12 62.667 -18 128.667 -18 198zM373 487.997c0 -81.333 24 -147.333 72 -198s112 -76 192 -76c78.667 0 141 24.333 187 73s69 112.667 69 192c0 83.333 -23 146 -69 188s-111 63 -195 63c-71.333 0 -131.333 -22.333 -180 -67
c-49.333 -45.333 -74 -103.333 -74 -174z" />
    <glyph glyph-name="seven" unicode="7" horiz-adv-x="1117" 
d="M66 1504l984.999 0.000976562v-184c-3.33301 -5.33301 -22.333 -32.333 -57 -81c-17.333 -24.667 -35.5 -50.834 -54.5 -78.501s-38.5 -57.5 -58.5 -89.5s-39.5 -64.333 -58.5 -97s-37.5 -66 -55.5 -100c-154.667 -290.667 -232 -581.667 -232 -873h-256
c0 349.333 109.333 710.333 328 1083c34.667 58 80.334 118 137.001 180h-676z" />
    <glyph glyph-name="eight" unicode="8" horiz-adv-x="1311" 
d="M104 427c0 76.667 24 147.666 72 212.999c48 64.667 109.667 115.667 185 153c-59.333 30.667 -107.333 72.667 -144 126c-36.667 52.667 -55 109.667 -55 171c0 124 45 225.667 135 305c90.667 79.333 211.667 119 363 119c150.667 0 270.667 -39 360 -117
s134 -179 134 -303c0 -60 -18.667 -116.333 -56 -169c-36.667 -51.333 -84.667 -92.666 -144 -123.999c79.333 -38 142 -89 188 -153s69 -135.333 69 -214c0 -145.333 -51 -259 -153 -341s-235.333 -123 -400 -123c-165.333 0 -299.333 41 -402 123s-154 195 -154 339z
M364 427.999c0 -66 23.999 -120.001 71.999 -162.001s122 -63 222 -63c101.333 0 175.333 20.333 222 61c47.333 41.333 71 95.333 71 162c0 64.667 -25.667 120.667 -77 168c-50.667 46.667 -122.667 70 -216 70c-95.333 0 -167.666 -22.333 -216.999 -67
c-50 -45.333 -75 -100.666 -75 -165.999zM422.999 1083c0 -52.667 20.666 -97.667 61.999 -135s99.333 -56 174 -56c71.333 0 128 20 170 60s63 85.667 63 137c0 23.333 -3.66699 46 -11 68c-7.33301 20.667 -19.333 40.667 -36 60
c-17.333 19.333 -41.666 34.333 -72.999 45c-32.667 11.333 -70.667 17 -114 17s-81 -6 -113 -18s-56.333 -27.333 -73 -46s-29 -39 -37 -61s-12 -45 -12 -69v-2z" />
    <glyph glyph-name="nine" unicode="9" horiz-adv-x="1236" 
d="M80 1004c0 153.333 49.3291 277.334 147.996 372.001c99.333 95.333 225.333 143 378 143c74 0 141 -13 201 -39c60.667 -26 110.667 -60.333 150 -103s72.666 -93 99.999 -151c26 -56.667 45.333 -117.334 58 -182.001c12 -63.333 18 -129.333 18 -198
c0 -60.667 -2 -118 -6 -172c-2 -27.333 -4.83301 -55.166 -8.5 -83.499s-8.16699 -57.833 -13.5 -88.5c-11.333 -62.667 -25.666 -117.667 -42.999 -165c-9.33301 -24.667 -19.666 -48.834 -30.999 -72.501s-24.333 -47.167 -39 -70.5
c-29.333 -46.667 -63.333 -85.334 -102 -116.001s-86.334 -55.667 -143.001 -75c-55.333 -18.667 -117.666 -28 -186.999 -28c-174.667 0 -315.667 78.667 -423 236l197 134c30.667 -38.667 65.667 -69.334 105 -92.001c40.667 -23.333 82.334 -35 125.001 -35
c45.333 0 86 10 122 30s65 45 87 75c22.667 30.667 41.334 67.334 56.001 110.001s25.667 83.334 33 122.001c7.33301 38 12.333 78.333 15 121c-109.333 -105.333 -219.666 -158 -330.999 -158c-141.333 0 -254.333 46 -339 138c-84.667 91.333 -127 208.333 -127 351v-3z
M337.996 1009c0 -83.333 23 -146 69 -188s111 -63 195 -63c70 0 130.333 22.667 181 68c50 44.667 75 102.667 75 174c0 80.667 -24 146.667 -72 198s-112 77 -192 77c-78.667 0 -141 -24 -187 -72s-69 -112 -69 -192v-2z" />
    <glyph glyph-name="colon" unicode=":" horiz-adv-x="574" 
d="M103 162c0 50.667 18 94 54 130s79.333 54 130 54s94 -18 130 -54s54 -79.333 54 -130s-18 -94 -54 -130s-79.333 -54 -130 -54s-94 18 -130 54s-54 79.333 -54 130zM103 955c0 50.667 18 94 54 130s79.333 54 130 54s94 -18 130 -54s54 -79.333 54 -130
s-18 -94 -54 -130s-79.333 -54 -130 -54s-94 18 -130 54s-54 79.333 -54 130z" />
    <glyph glyph-name="semicolon" unicode=";" horiz-adv-x="568" 
d="M97 955c0 50.667 18 94 54 130s79.333 54 130 54s94 -18 130 -54s54 -79.333 54 -130s-18 -94 -54 -130s-79.333 -54 -130 -54s-94 18 -130 54s-54 79.333 -54 130zM142 255h284l-154 -543h-155z" />
    <glyph glyph-name="less" unicode="&#x3c;" horiz-adv-x="830" 
d="M105 768l597 570v-288l-392 -362l392 -362v-292l-597 572v162z" />
    <glyph glyph-name="equal" unicode="=" horiz-adv-x="1172" 
d="M149 578h874v-181h-874v181zM149 985h874v-183h-874v183z" />
    <glyph glyph-name="greater" unicode="&#x3e;" horiz-adv-x="830" 
d="M128 326l392 362l-392 362v288l597 -570v-162l-597 -572v292z" />
    <glyph glyph-name="question" unicode="?" horiz-adv-x="1061" 
d="M75 1286c48 77.333 110.334 136.334 187.001 177.001s154.667 61 234 61c58.667 0 113.667 -7 165 -21c50.667 -14 96.667 -35 138 -63c40.667 -28 73 -65.333 97 -112c24 -47.333 36 -100.666 36 -159.999c0 -62.667 -13.333 -117.667 -40 -165
c-13.333 -24 -29.333 -48.5 -48 -73.5s-40 -50.167 -64 -75.5c-3.33301 -4 -7.5 -8.83301 -12.5 -14.5s-10.833 -12.167 -17.5 -19.5s-11.834 -13.333 -15.501 -18s-6.16699 -7.66699 -7.5 -9c-61.333 -67.333 -94.333 -126.333 -99 -177c-4 -32 -6 -74 -6 -126h-272v112
c0 63.333 14.333 120.666 43 171.999c28.667 52 68.667 107 120 165c28 32 50.833 58.333 68.5 79s30.167 36 37.5 46c29.333 41.333 44 76.666 44 105.999c0 39.333 -13.667 69 -41 89s-64.333 30 -111 30c-89.333 0 -164.333 -45.333 -225 -136l-206 133h-5z
M298.001 162.001c0 50.667 18 94 54 130s79.333 54 130 54s94 -18 130 -54s54 -79.333 54 -130s-18 -94 -54 -130s-79.333 -54 -130 -54s-94 18 -130 54s-54 79.333 -54 130z" />
    <glyph glyph-name="at" unicode="@" horiz-adv-x="1686" 
d="M100 742c0 110 16.3311 211.663 48.998 304.996c32.667 94 79.334 176.667 140.001 248c60 70.667 136.667 126.667 230 168c94 41.333 197 62 309 62c118.667 0 225.667 -19 321 -57s174 -91 236 -159c62.667 -68.667 110.334 -149.667 143.001 -243
c33.333 -94.667 50 -198 50 -310c0 -50 -7 -99.333 -21 -148c-14 -50 -34.333 -96 -61 -138c-27.333 -43.333 -63.333 -78.333 -108 -105s-95 -40 -151 -40c-51.333 0 -95.666 10.667 -132.999 32c-36.667 20.667 -67 55.667 -91 105l-4 -1
c-67.333 -95.333 -153.333 -143 -258 -143c-82 0 -149.333 26.333 -202 79s-79 119 -79 199c0 198.667 171 299 513 301c0 68 -9.33301 112.667 -28 134c-19.333 22 -61.666 33 -126.999 33c-68 0 -139.667 -26.667 -215 -80l-82 120
c38.667 36.667 84.334 65.667 137.001 87c51.333 20.667 102 31 152 31c60 0 110 -6.33301 150 -19c41.333 -13.333 73.666 -29.666 96.999 -48.999s41.666 -47.333 54.999 -84c13.333 -37.333 22 -73.666 26 -108.999c4 -37.333 6 -83.333 6 -138v-274
c0 -56.667 29 -85 87 -85c31.333 0 58.333 9.33301 81 28c23.333 19.333 41.333 43.666 54 72.999c12 28.667 21.333 59.334 28 92.001c6 30.667 9 62.334 9 95.001c0 190.667 -49.667 341.667 -149 453c-98.667 110.667 -243.334 166 -434.001 166c-90 0 -171 -16 -243 -48
s-131 -76 -177 -132s-81 -121.333 -105 -196c-24 -75.333 -36 -156.333 -36 -243c0 -93.333 11.333 -177 34 -251c23.333 -75.333 57.333 -141 102 -197c44.667 -55.333 103.667 -98.666 177 -129.999c72 -30.667 156 -46 252 -46c115.333 0 209.333 26.333 282 79l98 -116
c-89.333 -79.333 -214 -119 -374 -119c-238 0 -420 69 -546 207s-189 325 -189 561zM639.998 600.996c0 -39.333 12 -70.333 36 -93c23.333 -22.667 56 -34 98 -34c43.333 0 83 14 119 42s66 63.667 90 107v140h-18c-218 0 -327 -54 -327 -162h2z" />
    <glyph glyph-name="A" unicode="A" 
d="M580 1504h244l569 -1504h-294l-123 326h-574l-122 -326h-271zM897 566c-44 127.333 -83 241.668 -117 343.001s-63 190.666 -87 267.999h-3c-7.33301 -24.667 -17 -55.667 -29 -93s-26.667 -81.666 -44 -132.999s-33.5 -99.333 -48.5 -144
s-29.167 -86.334 -42.5 -125.001l-40 -116h411z" />
    <glyph glyph-name="B" unicode="B" horiz-adv-x="1341" 
d="M159 1504l488.999 -0.000976562c66.667 0 129.667 -8 189 -24c60.667 -16.667 114.334 -41 161.001 -73c48 -33.333 86 -77.666 114 -132.999c28 -56 42 -121 42 -195c0 -58.667 -10.667 -108.667 -32 -150s-56.333 -82.333 -105 -123c159.333 -62 239 -176.333 239 -343
c0 -85.333 -12 -158.333 -36 -219s-59.667 -108.667 -107 -144c-46 -34.667 -100.667 -60 -164 -76c-62 -16 -134.667 -24 -218 -24h-568zM711.999 243.999c96.667 0 166.667 16 210 48s65 87.667 65 167c0 65.333 -21 116 -63 152s-104.333 54 -187 54h-320v-421h295z
M689.999 898.999c64 0 112.667 15.333 146 46c34 30.667 51 72.667 51 126c0 58 -20.333 105 -61 141c-41.333 36 -100.333 54 -177 54h-232v-366z" />
    <glyph glyph-name="C" unicode="C" horiz-adv-x="1346" 
d="M98 735c0 79.333 7.66504 157.334 22.998 234.001c14.667 74.667 38.667 145.667 72 213c32.667 66 73.334 124 122.001 174c48 48.667 107.667 87.667 179 117c72 29.333 151 44 237 44c16.667 0 33 -0.5 49 -1.5s32 -2.83301 48 -5.5c32 -5.33301 67 -14.333 105 -27
c38 -13.333 74 -30.333 108 -51c34 -21.333 69 -49.333 105 -84c18 -17.333 35.167 -36 51.5 -56s31.833 -41.667 46.5 -65l-207 -145c-14 19.333 -28 37.166 -42 53.499s-28.333 31.166 -43 44.499c-29.333 26 -57.333 45 -84 57c-27.333 12 -51.333 20 -72 24
c-21.333 4 -43.666 6 -66.999 6c-106 0 -191.333 -48 -256 -144c-64.667 -95.333 -97 -222.333 -97 -381c0 -151.333 34 -275.333 102 -372c68 -97.333 151 -146 249 -146c64 0 123.667 14 179 42c54.667 28 107.667 80.667 159 158l207 -144
c-122 -205.333 -298.333 -308 -529 -308c-86 0 -165.333 14.667 -238 44c-71.333 28.667 -131.666 67.667 -180.999 117c-48 48 -89.333 105.667 -124 173c-34.667 66.667 -59.334 136.334 -74.001 209.001c-15.333 74.667 -23 149.667 -23 225z" />
    <glyph glyph-name="D" unicode="D" horiz-adv-x="1430" 
d="M161 1500l364.001 0.00195312c100 0 190.333 -8.33301 271 -25s156 -44.334 226 -83.001c68.667 -37.333 127 -85.333 175 -144c47.333 -57.333 84.666 -129.333 111.999 -216c26.667 -84.667 40 -182.334 40 -293.001c0 -140.667 -28 -267 -84 -379
s-136.333 -200 -241 -264c-105.333 -64 -226.333 -96 -363 -96h-499zM617.001 245.002c55.333 0 109 10.334 161 31.001c54 21.333 103 50.666 147 87.999c45.333 38.667 82 88.667 110 150c28 62 42 130.667 42 206c0 186 -45 321 -135 405s-226.333 126 -409 126h-104
v-1006h188z" />
    <glyph glyph-name="E" unicode="E" horiz-adv-x="1235" 
d="M163 1504h981l-15 -243h-701v-378h621l-16 -236h-605v-398h724l-14 -249h-975v1504z" />
    <glyph glyph-name="F" unicode="F" horiz-adv-x="1170" 
d="M163 1504h956l-14 -250h-675v-376h621l-14 -244h-607v-634h-267v1504z" />
    <glyph glyph-name="G" unicode="G" horiz-adv-x="1428" 
d="M107 751c0 72.667 6.66406 144.332 19.9971 214.999c12.667 68.667 35.334 137.334 68.001 206.001c32 68.667 72 128.334 120 179.001s110 91.667 186 123c76.667 31.333 162.667 47 258 47c229.333 0 406.333 -102.333 531 -307l-207 -146
c-52.667 78 -106 130.667 -160 158c-55.333 28 -114.666 42 -177.999 42s-118.666 -14.333 -165.999 -43c-48 -29.333 -86 -68.333 -114 -117s-49 -103.334 -63 -164.001c-14 -60 -21 -124.333 -21 -193c0 -165.333 30.333 -294.666 91 -387.999
c60.667 -94 150.667 -141 270 -141c56.667 0 112.667 17 168 51c54.667 34 102.667 78.667 144 134v160h-308v223h565l1 -793h-219l-11 145c-114.667 -114.667 -237.667 -172 -369 -172c-90.667 0 -171 14.333 -241 43c-71.333 29.333 -129.333 67.666 -174 114.999
s-82 105.333 -112 174c-30 68 -51 139 -63 213s-18 153.333 -18 238z" />
    <glyph glyph-name="H" unicode="H" horiz-adv-x="1392" 
d="M163 1504h267v-612h533v612h266v-1504h-266v641h-533v-641h-267v1504z" />
    <glyph glyph-name="I" unicode="I" horiz-adv-x="608" 
d="M163 1504h282v-1504h-282v1504z" />
    <glyph glyph-name="J" unicode="J" horiz-adv-x="925" 
d="M49 248c98 -20 165.668 -29.999 203.001 -29.999c99.333 0 167.666 23 204.999 69c36.667 45.333 55 124.666 55 237.999v979h265l1 -1009c0 -173.333 -39 -303.333 -117 -390c-78 -87.333 -203 -131 -375 -131c-86 0 -182 14.333 -288 43z" />
    <glyph glyph-name="K" unicode="K" horiz-adv-x="1332" 
d="M162 1503l266 0.000976562v-615c9.33301 13.333 19.833 27.166 31.5 41.499s24.167 29.833 37.5 46.5c26.667 32.667 43.667 52.667 51 60l144 163l269 304h347l-560 -619l583 -884h-328l-444 704l-129 -133l-1 -571h-266z" />
    <glyph glyph-name="L" unicode="L" horiz-adv-x="1142" 
d="M163 1504h271l-1 -1250h680l-14 -254h-936v1504z" />
    <glyph glyph-name="M" unicode="M" horiz-adv-x="1678" 
d="M162 1503l267.999 -0.000976562l409 -816l404 816h271v-1504h-263v1017h-7c-9.33301 -33.333 -30.666 -89.666 -63.999 -168.999c-17.333 -40.667 -31.166 -73.5 -41.499 -98.5s-17.833 -42.167 -22.5 -51.5l-189 -412h-177c-60.667 132 -106.834 232.833 -138.501 302.5
s-49.167 109.167 -52.5 118.5c-63.333 148 -105.333 252.333 -126 313h-7v-1019h-264v1503z" />
    <glyph glyph-name="N" unicode="N" horiz-adv-x="1419" 
d="M166 1504h225l315 -506c13.333 -20.667 27.666 -43.167 42.999 -67.5s31.666 -50.5 48.999 -78.5s32 -51.667 44 -71s21.333 -34.333 28 -45c12.667 -21.333 29.667 -50.333 51 -87c20.667 -37.333 43.667 -79.333 69 -126h3c-0.666992 46.667 -1 151.667 -1 315v666h265
v-1504h-220c-107.333 172 -189.166 302.833 -245.499 392.5s-87.166 139.167 -92.499 148.5c-62.667 101.333 -116.167 189.333 -160.5 264s-79.833 137 -106.5 187h-3v-116v-876h-266z" />
    <glyph glyph-name="O" unicode="O" horiz-adv-x="1437" 
d="M99 758c0 73.333 7.66699 146.663 23 219.996c14.667 72 38.667 141 72 207c32.667 66 72.667 124 120 174c46.667 50 104.667 90 174 120c68.667 30 144.667 45 228 45c82 0 156.667 -14.333 224 -43c68.667 -29.333 126.334 -68.333 173.001 -117
c47.333 -49.333 87.333 -106.666 120 -171.999c33.333 -67.333 58 -137.333 74 -210c16 -74 24 -150 24 -228c0 -23.333 -0.666992 -46.5 -2 -69.5s-3.33301 -46.167 -6 -69.5c-4.66699 -46.667 -13.667 -96 -27 -148c-6.66699 -26 -14.167 -51.167 -22.5 -75.5
s-17.5 -48.166 -27.5 -71.499s-21.5 -46.166 -34.5 -68.499s-27.833 -44.166 -44.5 -65.499c-33.333 -43.333 -70.333 -80.333 -111 -111c-41.333 -31.333 -91 -56 -149 -74s-121 -27 -189 -27c-64.667 0 -126 8.66699 -184 26c-57.333 16.667 -106.333 39.667 -147 69
c-41.333 28.667 -78.333 63.667 -111 105c-32.667 40.667 -59.667 84.334 -81 131.001c-10.667 23.333 -20.334 47.166 -29.001 71.499s-16.667 49.5 -24 75.5c-14 52 -24 103 -30 153s-9 100 -9 150zM367 755.997c0 -24 0.832031 -47.8369 2.49902 -71.5039
s4.16699 -47.167 7.5 -70.5c6.66699 -47.333 18.667 -94.333 36 -141c16.667 -46 37.667 -87.333 63 -124c25.333 -36 57.666 -65 96.999 -87c40 -22 85 -33 135 -33c38.667 0 74.334 6.66699 107.001 20c33.333 13.333 61 30.666 83 51.999s42.333 47.333 61 78
s33.334 61.334 44.001 92.001s19.667 63.667 27 99c6.66699 34.667 11.667 67.334 15 98.001c1.33301 15.333 2.33301 30.333 3 45s1 29.334 1 44.001c0 22 -1 44.167 -3 66.5s-4.66699 45.166 -8 68.499c-7.33301 47.333 -19.666 93.333 -36.999 138
c-18.667 47.333 -40 88.333 -64 123c-25.333 36.667 -57.333 66.334 -96 89.001s-81.667 34 -129 34c-42 0 -80 -8.33301 -114 -25c-34.667 -16.667 -64 -39 -88 -67c-23.333 -27.333 -44.333 -59 -63 -95c-18 -35.333 -32 -72.666 -42 -111.999
c-5.33301 -20 -9.83301 -39.5 -13.5 -58.5s-6.83398 -37.833 -9.50098 -56.5s-4.5 -36.667 -5.5 -54s-1.5 -34.666 -1.5 -51.999h-8z" />
    <glyph glyph-name="P" unicode="P" horiz-adv-x="1225" 
d="M163 1504l430.998 -0.000976562c81.333 0 153 -8.33301 215 -25c64 -17.333 120.667 -43.666 170 -78.999c50.667 -36.667 89.334 -86 116.001 -148c27.333 -64 41 -139 41 -225c0 -146.667 -46.333 -261 -139 -343c-93.333 -82 -214.666 -123 -363.999 -123h-205v-561
h-265v1504zM631.998 801.999c70 0 127.667 19 173 57s68 91 68 159c0 85.333 -21 148 -63 188s-105.333 60 -190 60h-192v-463z" />
    <glyph glyph-name="Q" unicode="Q" horiz-adv-x="1437" 
d="M104 762c0 73.333 7.66406 146.666 22.9971 219.999c14.667 72 38.667 141 72 207c32.667 66 72.667 124 120 174c46.667 50 104.667 90 174 120c68.667 30 144.667 45 228 45c82 0 156.667 -14.333 224 -43c68.667 -29.333 126.334 -68.333 173.001 -117
c47.333 -49.333 87.333 -106.666 120 -171.999c33.333 -67.333 58 -137.333 74 -210c16 -74 24 -150 24 -228c0 -101.333 -14 -204 -42 -308c-28 -105.333 -72.333 -196 -133 -272l144 -220l-166 -131l-139 213c-83.333 -43.333 -176.333 -65 -279 -65
c-66 0 -128 8.66699 -186 26c-56.667 16.667 -106 39.667 -148 69c-41.333 28.667 -78.666 63.667 -111.999 105c-32.667 40.667 -59.667 84.334 -81 131.001c-10.667 23.333 -20.167 47.166 -28.5 71.499s-16.166 49.5 -23.499 75.5c-14 52 -24 102.667 -30 152
c-6 48.667 -9 98.667 -9 150zM372.997 763c0 -24 0.833008 -47.835 2.5 -71.502s4.16699 -47.167 7.5 -70.5c6.66699 -46.667 18.667 -94 36 -142c16.667 -48 37.667 -90 63 -126c24.667 -36 57 -65.333 97 -88c39.333 -22.667 84.333 -34 135 -34s96.667 11 138 33
l-161 248l165 130c4.66699 -8 13.667 -22 27 -42c6.66699 -10 14.167 -21.5 22.5 -34.5s18.166 -27.833 29.499 -44.5s21.833 -32.5 31.5 -47.5s18.834 -29.167 27.501 -42.5c40 92.667 60 202.667 60 330c0 22 -1 44.167 -3 66.5s-4.66699 45.166 -8 68.499
c-7.33301 47.333 -19.666 93.333 -36.999 138c-18.667 47.333 -40 88.333 -64 123c-25.333 36.667 -57.333 66.334 -96 89.001s-81.667 34 -129 34c-42 0 -80 -8.33301 -114 -25c-34.667 -16.667 -64 -39 -88 -67c-23.333 -27.333 -44.333 -59 -63 -95
c-18 -35.333 -32 -72.666 -42 -111.999c-5.33301 -20 -9.83301 -39.5 -13.5 -58.5s-6.83398 -37.833 -9.50098 -56.5s-4.5 -36.667 -5.5 -54s-1.5 -34.666 -1.5 -51.999z" />
    <glyph glyph-name="R" unicode="R" horiz-adv-x="1319" 
d="M162 1503l462 -0.000976562c81.333 0 153.333 -8.33301 216 -25c65.333 -17.333 123 -43.666 173 -78.999s89.333 -84 118 -146c28 -61.333 42 -134 42 -218c0 -95.333 -23.333 -178.333 -70 -249s-111.667 -124 -195 -160l399 -626h-322l-337 584h-218v-584h-267z
M663 814.999c68.667 0 126.332 19.667 172.999 59c46 38.667 69 89.667 69 153c0 77.333 -21.333 136.333 -64 177c-43.333 41.333 -106.666 62 -189.999 62h-222v-451h234z" />
    <glyph glyph-name="S" unicode="S" horiz-adv-x="1170" 
d="M257 392c46.667 -64.667 97.665 -111.001 152.998 -139.001c54.667 -28 118.334 -42 191.001 -42c72 0 127.667 18.333 167 55c40 36.667 60 88.667 60 156c0 60.667 -32 108 -96 142c-24.667 13.333 -61 28.333 -109 45c-7.33301 2 -26.333 8 -57 18
c-15.333 5.33301 -29 9.83301 -41 13.5s-22.333 6.83398 -31 9.50098c-42 12.667 -78 25.667 -108 39c-15.333 6.66699 -31.166 14.5 -47.499 23.5s-33.166 19.5 -50.499 31.5c-36 24.667 -64.667 50.667 -86 78s-39.666 63.333 -54.999 108
c-14.667 43.333 -22 92.333 -22 147c0 134.667 42.333 242.334 127 323.001c85.333 81.333 196.666 122 333.999 122c203.333 0 363.333 -89.333 480 -268l-201 -141c-77.333 110 -171.333 165 -282 165c-59.333 0 -105.333 -19 -138 -57c-33.333 -38.667 -50 -88 -50 -148
c0 -60.667 32 -106.334 96 -137.001c27.333 -14.667 63.333 -28.334 108 -41.001c8 -2.66699 18 -5.66699 30 -9s25.667 -7.33301 41 -12c30.667 -9.33301 50.667 -15.333 60 -18c17.333 -5.33301 33.333 -10.5 48 -15.5s28.667 -10.167 42 -15.5
c24.667 -9.33301 53 -22.333 85 -39c29.333 -15.333 55.666 -34 78.999 -56c11.333 -10.667 22 -22.167 32 -34.5s19.667 -25.5 29 -39.5c18.667 -27.333 33 -60.333 43 -99c10 -38 15 -80 15 -126c0 -96.667 -22 -180 -66 -250c-44 -69.333 -104 -121.666 -180 -156.999
c-75.333 -34.667 -162.333 -52 -261 -52c-234 0 -414.667 96.667 -542 290z" />
    <glyph glyph-name="T" unicode="T" horiz-adv-x="1092" 
d="M27 1504h1038v-248h-380v-1256h-271v1256h-387v248z" />
    <glyph glyph-name="U" unicode="U" horiz-adv-x="1379" 
d="M140 1503l267.999 0.00195312v-949c0 -224 91 -336 273 -336c57.333 0 106 8.66699 146 26c38.667 16.667 68 41.667 88 75c20.667 34 34.334 69 41.001 105c7.33301 38.667 11 82.667 11 132l1 947l264 -1v-947c0 -59.333 -5 -115.333 -15 -168s-28 -105 -54 -157
c-26 -52.667 -59 -97.334 -99 -134.001s-92.667 -66.667 -158 -90c-66 -23.333 -140 -35 -222 -35c-84 0 -158.333 12 -223 36s-116.667 54.667 -156 92c-39.333 36.667 -71.333 81.667 -96 135c-25.333 53.333 -42.333 105.666 -51 156.999
c-4.66699 26 -8.16699 52.667 -10.5 80s-3.5 56 -3.5 86z" />
    <glyph glyph-name="V" unicode="V" horiz-adv-x="1286" 
d="M289 1503c86 -259.333 152.167 -458.832 198.5 -598.499s72.833 -219.834 79.5 -240.501c9.33301 -30 20 -67.5 32 -112.5s25 -98.5 39 -160.5h9c4.66699 16 14 46.667 28 92s32.667 106 56 182l277 839h274l-514 -1504h-245l-518 1504z" />
    <glyph glyph-name="W" unicode="W" horiz-adv-x="1796" 
d="M291 1504l208 -858.999c28.667 -116.667 46.667 -206.334 54 -269.001l6 1c2 14.667 6 42.667 12 84c3.33301 20.667 6.16602 40 8.49902 58s4.5 35 6.5 51s4 30 6 42s3.66699 21.667 5 29l92 496c10 54.667 22 112.667 36 174c7.33301 30.667 13.833 57.834 19.5 81.501
s10.834 44.167 15.501 61.5l13 50h250c32.667 -121.333 62.667 -244.333 90 -369c16 -69.333 32 -143.333 48 -222c8 -40 15 -75.833 21 -107.5s11.333 -59.5 16 -83.5s8.16699 -42.667 10.5 -56s3.83301 -21.333 4.5 -24c18 -67.333 33 -147.666 45 -240.999h7
c6.66699 62 20.667 142 42 240l208 864h270l-405 -1504h-281c-103.333 516.667 -158.333 793.667 -165 831c-4.66699 21.333 -9.66699 52.666 -15 93.999s-11 93 -17 155h-8c-3.33301 -38 -8 -77.333 -14 -118s-13.667 -83.334 -23 -128.001l-177 -835h-274l-401 1504h286z
" />
    <glyph glyph-name="X" unicode="X" horiz-adv-x="1308" 
d="M509 808l-478.999 696.002h330c130.667 -216 204.667 -338 222 -366c16 -26 29.833 -48.5 41.5 -67.5s21.167 -34.833 28.5 -47.5c13.333 22.667 25.333 43.167 36 61.5s20.667 34.5 30 48.5l223 371h322l-468 -686l511 -818h-321
c-92 161.333 -162.333 284.666 -211 369.999s-76.334 133.666 -83.001 144.999c-5.33301 9.33301 -11 19.833 -17 31.5s-12.667 24.834 -20 39.501c-1.33301 -3.33301 -3.5 -8 -6.5 -14l-11.5 -23c-4.66699 -9.33301 -8.5 -16.833 -11.5 -22.5
s-5.16699 -9.83398 -6.5 -12.501l-295 -514h-321z" />
    <glyph glyph-name="Y" unicode="Y" horiz-adv-x="1292" 
d="M323 1504c83.333 -162.667 147.833 -288.669 193.5 -378.002s73.167 -142.666 82.5 -159.999c6.66699 -12 16.667 -34.333 30 -67c7.33301 -17.333 12.833 -30.666 16.5 -39.999s6.16699 -15.333 7.5 -18l8 20c4 10 9.33301 23 16 39c12.667 32 21.667 53 27 63l281 541
h297l-502 -912v-592h-266v590l-504 914h313z" />
    <glyph glyph-name="Z" unicode="Z" horiz-adv-x="1257" 
d="M91 205c199.333 284.667 351.17 501.502 455.503 650.502s161.166 230.167 170.499 243.5c1.33301 1.33301 6.5 8.5 15.5 21.5s22.167 31.5 39.5 55.5s31.5 43.5 42.5 58.5s19.167 25.833 24.5 32.5h-84.5c-47.667 0 -115.834 -0.333008 -204.501 -1s-156 -1 -202 -1h-76
h-152l18 240h1020v-204c-4 -5.33301 -31.667 -44.833 -83 -118.5s-126.333 -181.167 -225 -322.5c-99.333 -142.667 -184.5 -264.834 -255.5 -366.501s-128.833 -184.834 -173.5 -249.501c65.333 0.666992 160.666 1.16699 285.999 1.5s282.333 0.5 471 0.5l-14 -246h-1073
v205z" />
    <glyph glyph-name="bracketleft" unicode="[" horiz-adv-x="740" 
d="M178 1524h446v-176h-253v-1467h253v-177h-446v1820z" />
    <glyph glyph-name="backslash" unicode="\" horiz-adv-x="847" 
d="M231 1610l571 -1781h-188l-569 1781h186z" />
    <glyph glyph-name="bracketright" unicode="]" horiz-adv-x="740" 
d="M369 -119v1467h-253v176h446v-1820h-446v177h253z" />
    <glyph glyph-name="asciicircum" unicode="^" horiz-adv-x="1200" 
d="M527 1503h149l438 -641h-262l-253 409l-252 -409h-261z" />
    <glyph glyph-name="underscore" unicode="_" horiz-adv-x="1003" 
d="M1008 -159v-184h-1013v184h1013z" />
    <glyph glyph-name="grave" unicode="`" horiz-adv-x="524" 
d="M234 1560l242 -345h-198l-340 345h296z" />
    <glyph glyph-name="a" unicode="a" horiz-adv-x="1047" 
d="M69 326c0 37.333 4.66699 71.999 14 103.999c8.66699 30.667 20.667 57.667 36 81s35.333 44 60 62s48.667 33 72 45c11.333 6 24.166 11.5 38.499 16.5s30.166 9.83301 47.499 14.5s33.333 8.66699 48 12s28.667 6 42 8s27.833 4 43.5 6s33.167 3.66699 52.5 5
c37.333 2.66699 68 4.66699 92 6c11.333 0.666992 24.5 1 39.5 1h49.5c0 75.333 -11.333 127.333 -34 156c-23.333 29.333 -69.333 44 -138 44c-47.333 0 -91.666 -7.33301 -132.999 -22s-87.666 -39.667 -138.999 -75l-123 172c102.667 97.333 231.667 146 387 146
c56 0 105 -5.33301 147 -16c43.333 -11.333 80 -25.333 110 -42c31.333 -17.333 57 -39.666 77 -66.999c22 -29.333 38.667 -57.333 50 -84s20.666 -60.667 27.999 -102c3.33301 -20 6 -39.333 8 -58s3.66699 -36.667 5 -54c2 -35.333 3 -76.333 3 -123v-563h-209
c-3.33301 40 -5.83301 71.667 -7.5 95s-2.5 39 -2.5 47c-44 -46.667 -94.667 -87 -152 -121c-55.333 -32.667 -112.666 -49 -171.999 -49c-105.333 0 -188 33.667 -248 101c-60 66.667 -90 152.667 -90 258zM317 325.999c0 -47.333 12.334 -83.333 37.001 -108
s60.667 -37 108 -37c45.333 0 90.333 15.333 135 46s79.667 67.667 105 111v177h-49c-6 0 -13.5 -0.166992 -22.5 -0.5s-19.167 -0.833008 -30.5 -1.5s-21.833 -1.33398 -31.5 -2.00098s-18.167 -1.66699 -25.5 -3c-14 -2 -32.333 -5 -55 -9c-22 -4 -40 -9 -54 -15
s-29 -14 -45 -24c-16.667 -10.667 -29.334 -21.667 -38.001 -33c-10 -13.333 -17.667 -27.666 -23 -42.999c-6 -17.333 -9 -36.333 -9 -57z" />
    <glyph glyph-name="b" unicode="b" horiz-adv-x="1223" 
d="M132 1488l249.999 92.999v-619c104 102 216.667 153 338 153c62 0 117.667 -12 167 -36c48.667 -24 88.667 -55 120 -93c32 -39.333 57.667 -83.666 77 -132.999c20 -51.333 34 -102.333 42 -153c8 -51.333 12 -103.333 12 -156c0 -72 -9.33301 -141 -28 -207
c-19.333 -67.333 -46.333 -128.333 -81 -183s-81.667 -99 -141 -133s-125.666 -51 -198.999 -51c-64 0 -121 15 -171 45s-100.333 72.333 -151 127l-10 -142h-223zM382.999 401.999c24 -55.333 59.002 -101 105.002 -137s97.333 -54 154 -54c49.333 0 93.333 18.667 132 56
c37.333 36.667 64.666 80.667 81.999 132c16.667 50 25 102 25 156c0 42.667 -4 82.667 -12 120c-8 36.667 -21 70.667 -39 102c-18 30.667 -43 55 -75 73s-69.333 27 -112 27c-56.667 0 -107.334 -15 -152.001 -45c-46 -30.667 -81.667 -71 -107 -121v-309h-1z" />
    <glyph glyph-name="c" unicode="c" horiz-adv-x="1062" 
d="M76 532c0 76 9.66602 147.996 28.999 215.996c19.333 67.333 48.333 128 87 182c39.333 54.667 92.333 97.334 159 128.001c68 31.333 145 47 231 47c84.667 0 161.667 -20 231 -60c68 -39.333 125.333 -98 172 -176l-196 -133c-58 92 -130 138 -216 138
c-41.333 0 -78 -10 -110 -30s-57 -47 -75 -81c-17.333 -33.333 -30.666 -69.666 -39.999 -108.999c-8.66699 -37.333 -13 -77.333 -13 -120c0 -40.667 5 -80 15 -118c10 -38.667 24.333 -74 43 -106c18.667 -32.667 44 -59 76 -79s68 -30 108 -30
c46.667 0 87.667 11.667 123 35c34.667 22.667 68.667 60.667 102 114l197 -133c-46 -81.333 -104 -143 -174 -185s-149 -63 -237 -63c-69.333 0 -132.333 10 -189 30s-104.667 47.667 -144 83c-38.667 34.667 -71.667 76.334 -99 125.001
c-26.667 46.667 -46 98.334 -58 155.001c-12 54.667 -18 112.667 -18 174z" />
    <glyph glyph-name="d" unicode="d" horiz-adv-x="1224" 
d="M77 515c0 53.333 4.66504 107.332 13.998 161.999c8.66699 52.667 24.667 105.667 48 159c22.667 52.667 51.334 99.334 86.001 140.001c34 40 78.667 72.667 134 98c56 25.333 118.667 38 188 38c102.667 0 200.667 -48 294 -144v517l250 93v-1577h-222l-10 148
c-52 -58.667 -104.333 -103 -157 -133c-53.333 -30 -112.666 -45 -177.999 -45c-63.333 0 -120.333 11 -171 33c-51.333 22 -93.333 51 -126 87c-33.333 36 -61.333 78 -84 126c-22.667 46.667 -39 95.667 -49 147c-10 50 -15 100.333 -15 151h-2zM336.998 531.999
c0 -54 7.66699 -105 23 -153c15.333 -47.333 41 -88 77 -122s80 -51 132 -51c58.667 0 111.667 17.667 159 53c46.667 34.667 83 80.667 109 138v310c-25.333 50 -60.333 90 -105 120c-45.333 30 -95.333 45 -150 45c-44.667 0 -82.667 -9.33301 -114 -28
c-32 -19.333 -57 -45.333 -75 -78c-18 -33.333 -31 -69.333 -39 -108c-8 -39.333 -12 -81.333 -12 -126h-5z" />
    <glyph glyph-name="e" unicode="e" horiz-adv-x="1119" 
d="M76 516c0 116.667 18.333 218.664 55 305.997c36.667 88 93.667 158 171 210c76.667 52 169.667 78 279 78c65.333 0 124.666 -11 177.999 -33c52.667 -22 96 -51 130 -87c33.333 -35.333 61.666 -77.666 84.999 -126.999c22.667 -49.333 38.667 -99.333 48 -150
c4.66699 -25.333 8.16699 -51 10.5 -77s3.5 -52.667 3.5 -80v-15c0 -2.66699 -0.166992 -6.16699 -0.5 -10.5s-0.833008 -9.83301 -1.5 -16.5c-1.33301 -13.333 -2.33301 -27.333 -3 -42h-704c2.66699 -86.667 24.334 -155.667 65.001 -207c40 -51.333 97.667 -77 173 -77
c56.667 0 107.667 11.667 153 35c44.667 22.667 86.667 65.334 126 128.001l184 -122c-57.333 -96 -121.333 -163 -192 -201c-71.333 -38 -165 -57 -281 -57c-66 0 -126 11 -180 33s-99 51 -135 87c-35.333 35.333 -65.666 77.333 -90.999 126
c-25.333 48 -43.333 97 -54 147c-10.667 48.667 -16 99.334 -16 152.001h-3zM785 648.997c-6.66699 72.667 -28.667 131 -66 175s-88.666 66 -153.999 66c-62 0 -113 -23 -153 -69c-40.667 -46.667 -66.334 -104 -77.001 -172h450z" />
    <glyph glyph-name="f" unicode="f" horiz-adv-x="687" 
d="M12 1090h169v142c0 96.667 29 174.667 87 234s135.667 89 233 89c48 0 116 -12.667 204 -38l-42 -199c-59.333 13.333 -108.333 20 -147 20c-30 0 -52 -8 -66 -24s-21 -42 -21 -78l1 -144h214v-203l-214 1v-890h-250v890h-169z" />
    <glyph glyph-name="g" unicode="g" horiz-adv-x="1217" 
d="M77 498c0 56.667 4.99805 112.998 14.998 168.998s27 111 51 165c24.667 55.333 54 103 88 143c34.667 40.667 78.667 73.667 132 99c54 25.333 113 38 177 38c115.333 0 218.666 -52 309.999 -156l19 137h218v-897c0 -73.333 -4 -139 -12 -197
c-8 -59.333 -22.333 -116.333 -43 -171c-20.667 -55.333 -48.667 -101.666 -84 -138.999c-34.667 -36.667 -81.334 -66.667 -140.001 -90c-57.333 -22.667 -125.333 -34 -204 -34c-201.333 0 -359.333 67 -474 201l162 155c38.667 -39.333 83.667 -70.666 135 -93.999
c50 -22.667 103 -34 159 -34c30 0 57.667 3.66699 83 11c24.667 7.33301 45.334 16.333 62.001 27c17.333 11.333 32 26.333 44 45c12.667 20.667 22.334 38.667 29.001 54c6.66699 16.667 12.667 38.667 18 66c2.66699 13.333 4.83398 26 6.50098 38s3.16699 23 4.5 33
c2 19.333 4 45 6 77c-50 -52 -98.333 -90.667 -145 -116c-48 -26 -102.333 -39 -163 -39c-68.667 0 -132 14 -190 42c-57.333 27.333 -104.666 65 -141.999 113c-37.333 46.667 -66.333 100.667 -87 162c-20.667 60 -31 124 -31 192h-4zM342.998 512.998
c0 -31.333 4.66406 -64.6689 13.9971 -100.002c8.66699 -34 21.667 -67 39 -99c16.667 -32 40.667 -58 72 -78c30.667 -20 65.667 -30 105 -30c58.667 0 111 17 157 51c46.667 34.667 82.334 80 107.001 136v313c-24 50.667 -58 91.334 -102 122.001
c-44.667 31.333 -93 47 -145 47c-37.333 0 -70.666 -7.33301 -99.999 -22c-30.667 -15.333 -54.667 -34.666 -72 -57.999c-18 -24 -33 -52 -45 -84c-11.333 -30.667 -19.666 -62.667 -24.999 -96c-2.66699 -16 -4.5 -32.333 -5.5 -49s-1.5 -33.667 -1.5 -51z" />
    <glyph glyph-name="h" unicode="h" horiz-adv-x="1167" 
d="M132 1484l252.999 91v-622c44 52 90 91 138 117s103.333 39 166 39c50.667 0 97 -8.66699 139 -26c41.333 -17.333 75 -40.333 101 -69c26.667 -30 48.334 -64.333 65.001 -103c17.333 -40 29.333 -81.333 36 -124c3.33301 -21.333 6 -43.333 8 -66s3 -46 3 -70v-652
h-253v653c0 146 -56.667 219 -170 219c-49.333 0 -93.333 -19 -132 -57s-71.667 -83.667 -99 -137l1 -677h-254z" />
    <glyph glyph-name="i" unicode="i" horiz-adv-x="554" 
d="M55 1092h361v-1092h-249v888h-112v204zM116 1429c0 47.333 17.333 88 52 122s74.667 51 120 51s85 -17 119 -51s51 -74.667 51 -122c0 -46.667 -17 -87 -51 -121s-73.667 -51 -119 -51c-46 0 -86 17 -120 51s-51 74.667 -51 122z" />
    <glyph glyph-name="j" unicode="j" horiz-adv-x="585" 
d="M11 -228c66.667 -8 103.667 -12 111 -12c24.667 0 42.667 6 54 18c11.333 12.667 17 35.667 17 69v1037h-115v206h366v-1235c0 -38.667 -5 -75 -15 -109s-26 -65 -48 -93s-52 -50 -90 -66s-82.333 -24 -133 -24c-54 0 -113 12.667 -177 38zM145 1426
c0 48 17.667 89 53 123c34.667 34 74.667 51 120 51c44.667 0 84.667 -17 120 -51s53 -75 53 -123c0 -46.667 -17.333 -87 -52 -121c-35.333 -34 -75.333 -51 -120 -51c-45.333 0 -85.333 17 -120 51c-35.333 34 -53 74.333 -53 121h-1z" />
    <glyph glyph-name="k" unicode="k" horiz-adv-x="1069" 
d="M135 1484l249 94v-819l7 -2c23.333 22.667 44 43 62 61s33.333 34 46 48l226 226h330l-400 -388l410 -704h-283l-302 551l-97 -98v-453h-249z" />
    <glyph glyph-name="l" unicode="l" horiz-adv-x="572" 
d="M117 1485l251 92.999v-1297c0 -33.333 6 -56.333 18 -69s30.667 -19 56 -19c3.33301 0 7 0.166992 11 0.5s8 0.833008 12 1.5s8.66699 1.33398 14 2.00098s11.666 1.66699 18.999 3l42 6l31 -185c-65.333 -24 -118.333 -36 -159 -36
c-47.333 0 -89.666 5.66699 -126.999 17c-34.667 10.667 -63 25.334 -85 44.001c-20 17.333 -36.333 40 -49 68c-12 27.333 -20 53.666 -24 78.999c-4 26 -6 55 -6 87z" />
    <glyph glyph-name="m" unicode="m" horiz-adv-x="1809" 
d="M128 1092l217.997 0.00488281l21 -157c48.667 54.667 93.667 95.667 135 123c40.667 26.667 88.667 42.667 144 48c5.33301 0.666992 10.833 1 16.5 1h16.5l60 -4c29.333 -4.66699 60.666 -14.334 93.999 -29.001c32 -14 61.667 -35.667 89 -65
c26.667 -28.667 48.667 -64.334 66 -107.001c10.667 13.333 20.667 25.666 30 36.999s18.333 21.666 27 30.999c18 19.333 39.333 39.333 64 60c25.333 21.333 53.333 38.666 84 51.999c30 12.667 61.667 20.667 95 24c7.33301 0.666992 14.833 1.16699 22.5 1.5
s15.167 0.5 22.5 0.5c54.667 -1.33301 102 -9.66602 142 -24.999c52.667 -20 93.334 -51 122.001 -93c29.333 -42.667 51 -90.667 65 -144c14 -54 21 -115 21 -183v-665h-256v667c0 67.333 -13.667 120.666 -41 159.999c-25.333 35.333 -63.666 53 -114.999 53
c-6.66699 0 -11.667 -0.333008 -15 -1c-48.667 -2.66699 -92 -21.667 -130 -57c-37.333 -34.667 -66.666 -77.667 -87.999 -129l1 -691h-255v667c0 65.333 -13.667 118.333 -41 159c-25.333 35.333 -61.666 53.333 -108.999 54h-8c-2.66699 0 -5.66699 -0.333008 -9 -1
c-95.333 -8 -171.333 -74 -228 -198v-681h-255z" />
    <glyph glyph-name="n" unicode="n" horiz-adv-x="1167" 
d="M134 1094l234.002 -0.000976562l8 -153c44.667 54.667 90.667 95.667 138 123c46.667 26.667 99.667 42 159 46c6 0.666992 12 1 18 1h17c41.333 0 79 -5.66699 113 -17c43.333 -15.333 78.333 -36.666 105 -63.999c28 -28.667 50.667 -63 68 -103
s29.666 -82.333 36.999 -127c3.33301 -22 6 -44.833 8 -68.5s3 -48.167 3 -73.5v-657h-253v658c0 144 -56.667 216 -170 216c-48.667 0 -92.334 -18.333 -131.001 -55c-39.333 -37.333 -73 -83.333 -101 -138l1 -682h-254v1094z" />
    <glyph glyph-name="o" unicode="o" horiz-adv-x="1155" 
d="M78 542c0 48.667 4.99609 97.9961 14.9961 147.996c5.33301 25.333 12.333 50.5 21 75.5s19.334 50.167 32.001 75.5c24.667 50.667 55.667 95.667 93 135c36.667 38.667 84.334 70.667 143.001 96s123 38 193 38c74 0 139.667 -12.333 197 -37
c58 -25.333 105 -57.333 141 -96c36 -39.333 66 -84.333 90 -135c24 -51.333 41 -101.333 51 -150c10 -49.333 15 -98.333 15 -147c0 -27.333 -1.5 -54.166 -4.5 -80.499s-7.16699 -52.833 -12.5 -79.5c-11.333 -53.333 -29.666 -104.666 -54.999 -153.999
c-26.667 -50.667 -58 -94.667 -94 -132s-82.667 -67.666 -140 -90.999c-55.333 -22.667 -117.333 -34 -186 -34c-68 0 -131 11.667 -189 35c-56.667 22.667 -103.667 53.334 -141 92.001c-36 37.333 -67.333 81.333 -94 132c-25.333 48.667 -43.666 99.667 -54.999 153
s-17 106 -17 158zM331.996 542.996c0 -94.667 23.001 -176.333 69.001 -245c46 -69.333 104 -104 174 -104c73.333 0 132 34 176 102s66 150 66 246c0 102 -20.333 184.667 -61 248c-41.333 64 -101.333 96 -180 96c-52 0 -97 -17 -135 -51
c-38.667 -34.667 -66.334 -77 -83.001 -127c-17.333 -52 -26 -107 -26 -165z" />
    <glyph glyph-name="p" unicode="p" horiz-adv-x="1223" 
d="M135 1093l215.998 -0.000976562l20 -153c40.667 49.333 90.334 90.333 149.001 123c58 32 118 48 180 48c62.667 0 119.667 -11 171 -33c50.667 -22 92.667 -51.667 126 -89s61 -81 83 -131c22.667 -51.333 38.334 -103 47.001 -155
c4.66699 -26.667 8.16699 -53.667 10.5 -81s3.5 -55.666 3.5 -84.999c0 -61.333 -5.33301 -118.333 -16 -171c-11.333 -54.667 -28.666 -106 -51.999 -154c-24 -49.333 -53.333 -91.333 -88 -126s-78.334 -62.667 -131.001 -84c-51.333 -20.667 -109.333 -31 -174 -31
c-104 0 -202.333 48.333 -295 145v-475l-251 -92zM381.998 391.999c25.333 -57.333 60.667 -102.333 106 -135c46.667 -33.333 99.334 -50 158.001 -50c50.667 0 94.667 18 132 54s64 78.667 80 128c16 48.667 24 100.334 24 155.001c0 42 -4.66699 82.667 -14 122
c-9.33301 38 -23.333 73 -42 105c-18.667 31.333 -44.667 56.666 -78 75.999c-32.667 18.667 -70.667 28 -114 28c-54.667 0 -103.334 -15 -146.001 -45c-43.333 -30 -77.333 -70 -102 -120v-318h-4z" />
    <glyph glyph-name="q" unicode="q" horiz-adv-x="1216" 
d="M78 493c0 40.667 1.99902 80.666 5.99902 119.999s11 80 21 122s23 81 39 117c8 18 17.167 35.5 27.5 52.5s21.833 33.833 34.5 50.5c24.667 32.667 53.667 60.667 87 84c32.667 22.667 72.667 40.667 120 54c40 10.667 85 16 135 16h16
c112 -3.33301 208 -57.333 288 -162l19 145h218v-1451l-249 -93v580c-44.667 -50.667 -89 -89 -133 -115s-93.667 -40 -149 -42h-16c-73.333 0 -139.333 13 -198 39c-62.667 28.667 -113 68 -151 118c-37.333 49.333 -65.666 105.333 -84.999 168
c-18.667 60.667 -28 127.334 -28 200.001zM337.999 516.999c0 -21.333 1.16406 -41.667 3.49707 -61s5.83301 -38.333 10.5 -57c8.66699 -35.333 22.334 -68.666 41.001 -99.999c18 -30.667 43 -54.334 75 -71.001c32.667 -17.333 69.667 -26 111 -26
c57.333 0 108 17 152 51s78.667 78.667 104 134v318c-25.333 50 -59.333 90 -102 120c-43.333 30 -91.666 45 -144.999 45c-44.667 0 -84 -10 -118 -30s-60 -47 -78 -81c-17.333 -32.667 -30.666 -69.667 -39.999 -111c-8.66699 -38.667 -13 -81.667 -13 -129z" />
    <glyph glyph-name="r" unicode="r" horiz-adv-x="757" 
d="M127 1093l211.003 -0.000976562l19 -145c18.667 24.667 34.667 44.667 48 60c12 14 28.667 30 50 48c20 16.667 42 29.667 66 39c24 8.66699 50.667 14.667 80 18c3.33301 0.666992 8.33301 1 15 1c18.667 0 41 -3.66699 67 -11
c31.333 -9.33301 58.666 -21.666 81.999 -36.999l-68 -222c-54.667 19.333 -91.334 29 -110.001 29c-48 0 -88 -15 -120 -45c-32.667 -30.667 -62.334 -75.667 -89.001 -135l-1 -693h-248z" />
    <glyph glyph-name="s" unicode="s" horiz-adv-x="994" 
d="M248 347c63.333 -103.333 145.333 -154.998 246 -154.998c42.667 0 82.334 11.667 119.001 35c36 22.667 54 54.667 54 96c0 21.333 -10 40 -30 56c-19.333 15.333 -45.333 28.666 -78 39.999c-30.667 10.667 -66.334 21.667 -107.001 33
c-39.333 10.667 -78.333 23.667 -117 39c-40 15.333 -75.667 33.333 -107 54c-32 21.333 -58 49.666 -78 84.999c-20 36 -30 77.667 -30 125c0 106.667 36 192.667 108 258c72.667 65.333 162.667 98 270 98c86 0 163.667 -20 233 -60s125.333 -96.333 168 -169l-185 -126
c-56 87.333 -131 131 -225 131c-34.667 0 -64 -10 -88 -30s-36 -47.333 -36 -82c0 -20.667 10 -39 30 -55s46 -29 78 -39c16 -5.33301 33 -10.5 51 -15.5s36.667 -10.167 56 -15.5s38.833 -11.333 58.5 -18s39.167 -14 58.5 -22s38 -16.5 56 -25.5s35 -18.833 51 -29.5
c32 -21.333 58 -50.333 78 -87c20 -37.333 30 -80.333 30 -129c0 -108 -38.333 -196 -115 -264c-77.333 -68 -170.333 -102 -279 -102c-112 0 -202.333 18 -271 54s-129.667 100.667 -183 194z" />
    <glyph glyph-name="t" unicode="t" horiz-adv-x="683" 
d="M4 1093l175.001 0.00195312v238l246 92v-330h231v-204h-231v-601c0 -31.333 7 -55.333 21 -72s38 -25 72 -25c3.33301 0 13.166 1.16699 29.499 3.5s39.5 5.83301 69.5 10.5l30 -184c-68.667 -23.333 -123.334 -35 -164.001 -35c-49.333 0 -93 5.66699 -131 17
s-67.667 25.666 -89 42.999c-22 18 -40 40 -54 66c-13.333 25.333 -22.666 51.333 -27.999 78c-2.66699 13.333 -4.5 27.166 -5.5 41.499s-1.5 29.833 -1.5 46.5v610h-169z" />
    <glyph glyph-name="u" unicode="u" horiz-adv-x="1156" 
d="M119 1092l252.999 0.000976562v-671c0 -144 57 -216 171 -216c48 0 91.667 18 131 54c38.667 36 71.667 81.667 99 137l-1 695h254v-1092h-223l-19 140c-45.333 -56 -91.333 -97 -138 -123c-47.333 -26 -100.333 -41 -159 -45c-6 -0.666992 -12 -1 -18 -1h-17
c-40 0 -77 5.66699 -111 17c-43.333 15.333 -78.333 36.666 -105 63.999c-27.333 28.667 -50 62.667 -68 102c-17.333 38.667 -29.666 80.667 -36.999 126c-3.33301 22 -5.83301 45 -7.5 69s-2.5 48.667 -2.5 74z" />
    <glyph glyph-name="v" unicode="v" horiz-adv-x="1075" 
d="M295 1092c62 -188 109.668 -333.166 143.001 -435.499s52.666 -161.833 57.999 -178.5l38 -143h5c11.333 42 20.5 74.667 27.5 98s11.5 37.666 13.5 42.999l199 616h279l-411 -1092h-218l-412 1092h278z" />
    <glyph glyph-name="w" unicode="w" horiz-adv-x="1456" 
d="M295 1091c42.667 -194.667 75.167 -343.17 97.5 -445.503s34.833 -160.166 37.5 -173.499l15 -121h5c1.33301 4 2.83301 11.5 4.5 22.5s3.83398 25.5 6.50098 43.5c5.33301 36.667 8.33301 56.334 9 59.001l140 616h239c42 -184 74.333 -325.667 97 -425
s36 -157.333 40 -174c3.33301 -14 6.66602 -32.667 9.99902 -56s6.66602 -51.666 9.99902 -84.999h5c4.66699 53.333 10.667 99.666 18 138.999l129 601h273l-303 -1092h-237c-43.333 180 -77 319.333 -101 418s-38.333 156.667 -43 174
c-1.33301 3.33301 -3.16602 14.333 -5.49902 33s-5.83301 45.334 -10.5 80.001h-5c-7.33301 -59.333 -13.333 -97.333 -18 -114l-138 -591h-240l-305 1092z" />
    <glyph glyph-name="x" unicode="x" horiz-adv-x="1103" 
d="M413 577l-378 515h314l199 -335l197 335h302l-364 -524l401 -568h-310l-229 375l-219 -375h-307z" />
    <glyph glyph-name="y" unicode="y" horiz-adv-x="1060" 
d="M290 1088c102.667 -313.333 158.668 -483.334 168.001 -510.001l69 -230h9c34.667 116.667 57.667 191.667 69 225l161 515h277l-444 -1269c-32.667 -95.333 -73.667 -162.666 -123 -201.999c-48.667 -38.667 -122.334 -58 -221.001 -58c-39.333 0 -93.333 10 -162 30
l32 203c4 -0.666992 9 -1.66699 15 -3s13 -3 21 -5c15.333 -4 30 -7 44 -9c12.667 -2 24.667 -3 36 -3c18 0 32.667 2 44 6s22 12 32 24c18 24 51.667 101.333 101 232l-403 1058z" />
    <glyph glyph-name="z" unicode="z" horiz-adv-x="1042" 
d="M65 167c280 356 430.998 547.998 452.998 575.998c4.66699 6 10.5 13.167 17.5 21.5s15.167 17.833 24.5 28.5c18.667 20.667 35.667 38.667 51 54l22 22v5c-35.333 -1.33301 -65.666 -2.33301 -90.999 -3s-45.666 -1 -60.999 -1l-398 -1v224h864v-187
c-143.333 -180 -253 -317.833 -329 -413.5s-118.667 -149.167 -128 -160.5c-8 -11.333 -20.333 -25.666 -37 -42.999c-8.66699 -9.33301 -16.667 -17.666 -24 -24.999l-21 -21l-19 -19v-4c36 1.33301 66.5 2.5 91.5 3.5s44.167 1.5 57.5 1.5h426l-1 -225h-898v167z" />
    <glyph glyph-name="braceleft" unicode="{" horiz-adv-x="862" 
d="M103 673l82.9961 9.00195c34.667 2.66699 59.667 17.667 75 45c14.667 26.667 22 68.667 22 126v184c0 154.667 38 274 114 358s198.333 126 367 126v-147c-92 -10 -158.333 -34.667 -199 -74c-40 -39.333 -60 -101 -60 -185v-255c0 -35.333 -4 -66.333 -12 -93
s-20.667 -50.334 -38 -71.001c-16 -18.667 -31.667 -34.667 -47 -48c-7.33301 -6 -15.666 -12.5 -24.999 -19.5s-19.666 -14.5 -30.999 -22.5c22.667 -14.667 41.334 -28.334 56.001 -41.001c7.33301 -6 14.833 -13 22.5 -21s15.834 -17 24.501 -27
c17.333 -20.667 30 -44.334 38 -71.001c8 -27.333 12 -58.333 12 -93v-242c0 -84.667 19 -145 57 -181s105.667 -59 203 -69v-148c-88 0 -163 10 -225 30s-111.667 50.667 -149 92c-36.667 40.667 -63.667 89.334 -81 146.001c-16.667 54.667 -25 120.667 -25 198v185
c0 56.667 -7.33301 98.667 -22 126c-15.333 28 -40.333 44 -75 48l-83 8z" />
    <glyph glyph-name="bar" unicode="|" horiz-adv-x="624" 
d="M218 1676h188v-2078h-188v2078z" />
    <glyph glyph-name="braceright" unicode="}" horiz-adv-x="862" 
d="M95 -138c97.333 10 164.996 32.9961 202.996 68.9961s57 96.667 57 182v242c0 34.667 4 65.667 12 93c8 26.667 20.667 50.334 38 71.001c8.66699 10 16.834 19 24.501 27s15.167 15 22.5 21c14.667 12.667 33.334 26.334 56.001 41.001
c-11.333 8 -21.666 15.5 -30.999 22.5s-17.666 13.5 -24.999 19.5c-15.333 13.333 -31 29.333 -47 48c-17.333 20.667 -30 44.334 -38 71.001s-12 57.667 -12 93v255c0 84 -20 145.667 -60 185c-40.667 39.333 -107 64 -199 74v147c168.667 0 291 -42 367 -126
s114 -203.333 114 -358v-184c0 -57.333 7.33301 -99.333 22 -126c14.667 -27.333 39.667 -42.333 75 -45l83 -9v-129l-83 -8c-35.333 -4 -60.333 -20 -75 -48c-14.667 -27.333 -22 -69.333 -22 -126v-185c0 -77.333 -8.33301 -143.333 -25 -198
c-16.667 -55.333 -43.667 -103.666 -81 -144.999s-87 -72 -149 -92s-137 -30 -225 -30v148h-2z" />
    <glyph glyph-name="asciitilde" unicode="~" horiz-adv-x="1320" 
d="M94 731c70.667 64.667 122.667 108.661 156 131.994c70 48 138 72 204 72c36.667 0 72 -6 106 -18c34.667 -12 63.667 -26.333 87 -43c12 -8.66699 23.667 -17.167 35 -25.5s22.333 -16.833 33 -25.5s21.334 -16.5 32.001 -23.5s21.667 -13.5 33 -19.5
c22 -12 43 -18 63 -18c11.333 0 25 4 41 12c14.667 7.33301 32.667 19 54 35c10 7.33301 19.333 14.5 28 21.5s16.667 13.5 24 19.5s15.333 12.667 24 20s18 15.333 28 24s18 15.667 24 21s10.333 9 13 11l134 -154c-1.33301 -1.33301 -5 -4.5 -11 -9.5
s-14 -12.167 -24 -21.5s-18.167 -16.666 -24.5 -21.999s-10.833 -9.33301 -13.5 -12c-5.33301 -5.33301 -17.333 -15.333 -36 -30c-20 -16 -33.333 -26 -40 -30c-4 -2.66699 -9.16699 -6 -15.5 -10s-13.833 -8.66699 -22.5 -14c-16.667 -10.667 -31.334 -18.667 -44.001 -24
c-6 -2.66699 -12.5 -5.16699 -19.5 -7.5s-14.5 -5.16602 -22.5 -8.49902c-16 -6 -32 -10 -48 -12s-32.333 -3 -49 -3c-38 0 -74 6 -108 18s-63 26 -87 42c-12 8 -23.5 16 -34.5 24s-21.833 16 -32.5 24c-21.333 16 -42.333 30 -63 42c-21.333 12 -42 18 -62 18
c-12 0 -26.333 -3.66699 -43 -11c-8 -3.33301 -16.333 -7.66602 -25 -12.999s-17.667 -11.666 -27 -18.999s-18 -14.166 -26 -20.499s-15.333 -12.166 -22 -17.499c-13.333 -11.333 -29.333 -25.333 -48 -42c-9.33301 -8.66699 -17 -15.5 -23 -20.5s-10.333 -8.5 -13 -10.5
l-132 150z" />
    <glyph glyph-name="uni00A0" unicode="&#xa0;" horiz-adv-x="488" 
 />
    <glyph glyph-name="exclamdown" unicode="&#xa1;" horiz-adv-x="630" 
d="M132 1344c0 50.667 18 94 54 130s79.333 54 130 54s94 -18 130 -54s54 -79.333 54 -130s-18 -94 -54 -130s-79.333 -54 -130 -54s-94 18 -130 54s-54 79.333 -54 130zM181 760l13 236h249l12 -236v-759h-274v759z" />
    <glyph glyph-name="cent" unicode="&#xa2;" horiz-adv-x="1109" 
d="M94 639c0 66.667 7.66504 130.666 22.998 191.999c14.667 59.333 37.334 115 68.001 167c30 50.667 70.667 93.667 122 129c50.667 34.667 109.667 58.667 177 72v214h237v-217c120.667 -30.667 216 -105 286 -223l-196 -133c-59.333 92 -131.666 138 -216.999 138
c-41.333 0 -78 -10 -110 -30s-57 -47 -75 -81c-17.333 -33.333 -30.666 -69.666 -39.999 -108.999c-8.66699 -37.333 -13 -77.333 -13 -120c0 -40 5 -79 15 -117c10 -39.333 24.333 -74.333 43 -105c19.333 -32.667 44.666 -58.334 75.999 -77.001
c32.667 -19.333 68.667 -29 108 -29c46.667 0 87.667 11.667 123 35c34.667 22.667 68.667 60.667 102 114l197 -133c-71.333 -125.333 -169.333 -203.333 -294 -234v-231h-237v228c-64.667 12.667 -122.334 36.334 -173.001 71.001c-49.333 33.333 -89.666 75 -120.999 125
c-30.667 48 -54 102 -70 162c-16 58.667 -24 121.667 -24 189z" />
    <glyph glyph-name="sterling" unicode="&#xa3;" horiz-adv-x="1326" 
d="M155 184c90 48.667 154.002 99.6689 192.002 153.002c38 52.667 57 114 57 184c0 42.667 -1 82 -3 118h-233v200h195c-14.667 61.333 -22 119.333 -22 174c0 154 41.667 276.667 125 368s200 137 350 137c34.667 0 67.667 -3.33301 99 -10
c32.667 -7.33301 67.667 -19.333 105 -36c35.333 -16.667 71.666 -42.334 108.999 -77.001c36 -34 68 -75 96 -123l-189 -127c-18.667 30 -38.667 55.333 -60 76c-21.333 20 -42.333 34 -63 42c-21.333 8 -38.333 13 -51 15c-13.333 2 -28.333 3 -45 3
c-72.667 0 -126 -22.667 -160 -68s-51 -116.333 -51 -213c0 -42.667 6.66699 -95.667 20 -159l431 1v-201h-393c6 -29.333 9 -68.333 9 -117c0 -24.667 -2.66699 -52.334 -8 -83.001c-5.33301 -29.333 -18.333 -64.333 -39 -105s-48.334 -74.667 -83.001 -102h681l-16 -234
h-1050z" />
    <glyph glyph-name="yen" unicode="&#xa5;" horiz-adv-x="1354" 
d="M373 1504l308 -645l311 645h295l-477 -872v-161h288v-200h-288v-271h-264v271h-286v200h286v159l-479 874h306z" />
    <glyph glyph-name="section" unicode="&#xa7;" horiz-adv-x="1322" 
d="M101 673c0 67.333 16.3311 130.331 48.998 188.998s77.667 106.667 135 144c-24.667 42.667 -37 92.667 -37 150c0 58 11.667 111 35 159c23.333 47.333 54.333 86 93 116s83.334 53 134.001 69c50 16 103.667 24 161 24c90 0 169.667 -17 239 -51
c68.667 -34 133.667 -85.667 195 -155l-179 -132c-67.333 75.333 -154.333 113 -261 113c-49.333 0 -89.666 -12.333 -120.999 -37c-32 -25.333 -48 -61.666 -48 -108.999c0 -21.333 8.33301 -39.333 25 -54c17.333 -15.333 39.666 -27.333 66.999 -36
c14 -4.66699 29 -9 45 -13s33 -8 51 -12s36.5 -8 55.5 -12s38.5 -8.33301 58.5 -13c40 -9.33301 80 -19.333 120 -30c40 -11.333 78 -26.333 114 -45c36.667 -19.333 68.667 -41.666 96 -66.999s49.666 -58.333 66.999 -99c16.667 -39.333 25 -85 25 -137
c0 -68.667 -15.667 -132.667 -47 -192s-76 -108 -134 -146c22 -43.333 33 -92 33 -146c0 -64 -13 -121 -39 -171c-26 -49.333 -61 -88.666 -105 -117.999s-93.333 -51.333 -148 -66c-54 -14.667 -112 -22 -174 -22c-104.667 0 -197 18 -277 54
c-78.667 35.333 -153 93 -223 173l198 129c80.667 -88.667 185.667 -133 315 -133c36 0 68 4.33301 96 13c30 9.33301 55.667 25.666 77 48.999c22 24 33 54 33 90c0 22 -8.33301 41 -25 57c-17.333 16 -39.666 29 -66.999 39c-28 10 -60 19 -96 27
c-18 4 -36.5 8.16699 -55.5 12.5s-38.5 8.83301 -58.5 13.5c-40 8.66699 -80 18.667 -120 30c-40 10.667 -78 25.667 -114 45c-36 18.667 -68 40.667 -96 66c-27.333 24 -49.666 56.667 -66.999 98c-16.667 39.333 -25 85 -25 137v-1zM336.998 696.998
c0 -21.333 4.00098 -40.332 12.001 -56.999c8 -17.333 20 -32.333 36 -45c16 -13.333 32 -24.333 48 -33c16 -9.33301 36 -17.333 60 -24c12 -3.33301 23 -6.33301 33 -9s19 -5 27 -7s17.167 -4 27.5 -6s22.166 -4.33301 35.499 -7s24.333 -4.66699 33 -6
s15.667 -2.66602 21 -3.99902c82 -17.333 152 -38.333 210 -63c29.333 20 53 45.667 71 77c18 30.667 27 63.667 27 99c0 20 -3.33301 37.667 -10 53c-7.33301 16 -15.333 30 -24 42c-9.33301 12 -22.333 23 -39 33c-18 10.667 -33.333 18.667 -46 24
c-14.667 6 -33 12 -55 18c-11.333 3.33301 -21.5 6.16602 -30.5 8.49902s-16.833 4.16602 -23.5 5.49902c-13.333 2.66699 -31.333 6.66699 -54 12c-11.333 2.66699 -20.833 4.66699 -28.5 6s-13.5 2.66602 -17.5 3.99902c-77.333 16.667 -145.333 36.334 -204 59.001
c-70 -43.333 -105 -103 -105 -179z" />
    <glyph glyph-name="dieresis" unicode="&#xa8;" horiz-adv-x="993" 
d="M144 1395c0 36 13 67 39 93s57.333 39 94 39s68 -13 94 -39s39 -57.333 39 -94s-13 -68 -39 -94s-57.333 -39 -94 -39s-68 13 -94 39s-39 57.333 -39 94v1zM584 1396c0 36 13 67 39 93s57.333 39 94 39s68 -13 94 -39s39 -57.333 39 -94s-13 -68 -39 -94
s-57.333 -39 -94 -39s-68 13 -94 39s-39 57.333 -39 94v1z" />
    <glyph glyph-name="copyright" unicode="&#xa9;" horiz-adv-x="1741" 
d="M104 749c0 112 18.666 216.334 55.999 313.001c36.667 96 88.667 178 156 246c66.667 68 147.667 121 243 159c94.667 38 198.334 57 311.001 57c150.667 0 283.667 -31.333 399 -94c116 -62.667 206.333 -153 271 -271c64.667 -117.333 97 -254 97 -410
c0 -114 -19 -219.333 -57 -316c-38 -97.333 -90.333 -179.333 -157 -246s-147.667 -119 -243 -157s-198.333 -57 -309 -57c-112 0 -215 19.333 -309 58c-95.333 39.333 -176.333 92.666 -243 159.999s-119 149.333 -157 246c-38 96 -57 199.667 -57 311zM247.999 748.001
c0 -118 25 -225.003 75 -321.003s122.333 -172.333 217 -229c95.333 -57.333 204.333 -86 327 -86c124.667 0 234.667 27.667 330 83c94 54.667 166.333 130.334 217 227.001c50 96 75 204.667 75 326c0 190.667 -55.667 344.667 -167 462
c-110.667 116.667 -261.667 175 -453 175c-125.333 0 -235.333 -28.333 -330 -85c-95.333 -57.333 -167.333 -133.666 -216 -228.999s-73 -202.666 -73 -321.999zM493.999 741.998c0 62 8.33496 119.998 25.002 173.998c17.333 56.667 41.666 106.334 72.999 149.001
c32 44 74 79 126 105s110.667 39 176 39c12.667 0 25.167 -0.5 37.5 -1.5s25.166 -2.83301 38.499 -5.5c27.333 -5.33301 57.333 -14.666 90 -27.999c35.333 -14.667 67 -37 95 -67c28.667 -31.333 51.667 -69.333 69 -114l-149 -67c-15.333 28 -32.333 51 -51 69
c-18.667 17.333 -37.667 29.666 -57 36.999c-18.667 6.66699 -33.334 10.667 -44.001 12c-5.33301 0.666992 -11 1.16699 -17 1.5s-12.667 0.5 -20 0.5c-62 0 -113 -29 -153 -87s-60 -131.667 -60 -221c0 -85.333 20.667 -154.333 62 -207c40.667 -52 91.667 -78 153 -78
c16.667 0 31.667 1 45 3c12.667 2 28.667 7 48 15s37.333 21.333 54 40c18 20 33.667 43.333 47 70l153 -67c-18.667 -44.667 -42.667 -83 -72 -115c-28 -31.333 -58.667 -54.666 -92 -69.999s-63.333 -26 -90 -32c-28 -6 -56 -9 -84 -9
c-89.333 0 -164.666 21.333 -225.999 64c-62 42.667 -107 97.667 -135 165c-28 66.667 -42 141.667 -42 225z" />
    <glyph glyph-name="ordfeminine" unicode="&#xaa;" horiz-adv-x="917" 
d="M83 901c0 44.667 11.6641 84.667 34.9971 120s52.333 63 87 83c34 19.333 75.333 35.666 124 48.999c24 6.66699 47 12.167 69 16.5s43.333 7.5 64 9.5s41.5 3.66699 62.5 5s42.167 2.33301 63.5 3c0 60 -9.66699 102.667 -29 128s-57.333 38 -114 38
c-37.333 0 -72 -6 -104 -18c-31.333 -12 -68 -31.667 -110 -59l-91 132c38.667 36.667 84.667 64.667 138 84c54 19.333 107.667 29 161 29c42.667 0 81 -4 115 -12c35.333 -8.66699 64 -19 86 -31c23.333 -13.333 43.333 -30.666 60 -51.999
c16 -20.667 29.333 -42.667 40 -66s18.334 -50.333 23.001 -81c2.66699 -16 4.83398 -31.5 6.50098 -46.5s3.16699 -29.5 4.5 -43.5c2 -28 3 -61 3 -99v-455h-155l-10 127c-32.667 -44.667 -71.667 -80 -117 -106s-92.333 -39 -141 -39
c-75.333 0 -138.666 27.667 -189.999 83c-50.667 54.667 -76 122.667 -76 204zM271.997 902c0 -36 11 -64.333 33 -85c21.333 -20.667 51 -31 89 -31c72.667 0 138.667 43.667 198 131v155h-8c-34.667 0 -68.667 -3.33301 -102 -10
c-35.333 -7.33301 -69.333 -17.333 -102 -30c-33.333 -13.333 -60.333 -31.333 -81 -54s-31 -48.667 -31 -78z" />
    <glyph glyph-name="guillemotleft" unicode="&#xab;" horiz-adv-x="1319" 
d="M460 1091h261l-408 -536l412 -555h-265l-407 557zM972 1091h260l-407 -536l412 -555h-266l-407 557z" />
    <glyph glyph-name="uni00AD" unicode="&#xad;" horiz-adv-x="737" 
d="M93 838h551v-225h-551v225z" />
    <glyph glyph-name="registered" unicode="&#xae;" horiz-adv-x="1731" 
d="M104 749c0 112 18.666 216.334 55.999 313.001c36.667 96 88.667 178 156 246c66.667 68 147.667 121 243 159c94.667 38 198.334 57 311.001 57c150.667 0 283.667 -31.333 399 -94c116 -62.667 206.333 -153 271 -271c64.667 -117.333 97 -254 97 -410
c0 -114 -19 -219.333 -57 -316c-38 -97.333 -90.333 -179.333 -157 -246s-147.667 -119 -243 -157s-198.333 -57 -309 -57c-112 0 -215 19.333 -309 58c-95.333 39.333 -176.333 92.666 -243 159.999s-119 149.333 -157 246c-38 96 -57 199.667 -57 311zM247.999 748.001
c0 -118 25 -225.003 75 -321.003s122.333 -172.333 217 -229c95.333 -57.333 204.333 -86 327 -86c124.667 0 234.667 27.667 330 83c94 54.667 166.333 130.334 217 227.001c50 96 75 204.667 75 326c0 190.667 -55.667 344.667 -167 462
c-110.667 116.667 -261.667 175 -453 175c-125.333 0 -235.333 -28.333 -330 -85c-95.333 -57.333 -167.333 -133.666 -216 -228.999s-73 -202.666 -73 -321.999zM585.999 1212l281.999 0.000976562c98.667 0 177.667 -23 237 -69c58.667 -46 88 -118.333 88 -217
c0 -56 -14.333 -104.667 -43 -146c-29.333 -42.667 -66.666 -73.334 -111.999 -92.001l221 -375h-200l-191 347h-113v-347h-169v899zM886.998 815.999c42 0 75.001 9 99.001 27s36 45.333 36 82c0 46 -11 79.667 -33 101c-22.667 21.333 -58.334 32 -107.001 32h-127v-242
h132z" />
    <glyph glyph-name="macron" unicode="&#xaf;" horiz-adv-x="783" 
d="M48 1452h687v-179h-687v179z" />
    <glyph glyph-name="degree" unicode="&#xb0;" horiz-adv-x="812" 
d="M92 1206c0 84.667 30.666 157.667 91.999 219s134.333 92 219 92c86.667 0 160.667 -30.667 222 -92s92 -134.333 92 -219c0 -87.333 -30.333 -161.333 -91 -222s-134.667 -91 -222 -91c-85.333 0 -158.666 30.667 -219.999 92c-60.667 60.667 -91 134.667 -91 222z
M249.999 1204c0 -42.667 14.667 -79.333 44 -110c28.667 -30 64.667 -45 108 -45s80 15 110 45s45 66.667 45 110c0 41.333 -15.333 77.333 -46 108s-66.667 46 -108 46c-42.667 0 -78.667 -14.667 -108 -44s-44 -65.333 -44 -108z" />
    <glyph glyph-name="plusminus" unicode="&#xb1;" horiz-adv-x="1144" 
d="M101 195h934v-195h-934v195zM101 940h375v397h200v-397h367v-197h-367v-401h-200v401h-375v197z" />
    <glyph glyph-name="acute" unicode="&#xb4;" horiz-adv-x="523" 
d="M290 1570h295l-339 -345h-198z" />
    <glyph glyph-name="mu" unicode="&#xb5;" horiz-adv-x="1166" 
d="M108 1092h251.999v-682c0 -59.333 17 -106.333 51 -141s81 -52 141 -52c46.667 0 89.334 18.667 128.001 56c37.333 36.667 68.666 82.667 93.999 138v681h253v-1092h-225l-10 118c-74 -90 -163 -135 -267 -135c-61.333 0 -116.666 12.667 -165.999 38v-380l-250 -93z
" />
    <glyph glyph-name="paragraph" unicode="&#xb6;" horiz-adv-x="1239" 
d="M25 1016c0 151.333 49.333 270.332 148 356.999c99.333 87.333 226.333 131 381 131h657v-191h-145v-1640h-205v1640h-205v-1640h-205v862c-87.333 4.66699 -163.333 29.667 -228 75c-64.667 44.667 -113.667 102.334 -147 173.001c-32.667 69.333 -49 147 -49 233h-2z
" />
    <glyph glyph-name="periodcentered" unicode="&#xb7;" horiz-adv-x="574" 
d="M103 748c0 50.667 18 94 54 130s79.333 54 130 54s94 -18 130 -54s54 -79.333 54 -130s-18 -94 -54 -130s-79.333 -54 -130 -54s-94 18 -130 54s-54 79.333 -54 130z" />
    <glyph glyph-name="cedilla" unicode="&#xb8;" horiz-adv-x="738" 
d="M190 -278c76.667 -37.333 132.332 -56.002 166.999 -56.002c23.333 0 43 5 59 15s24 26 24 48c0 27.333 -21.333 41 -64 41h-92l-56 55l82 174h132l-59 -117c34 4 65.667 2.66699 95 -4c30.667 -7.33301 57.334 -22.666 80.001 -45.999c23.333 -24.667 35 -55.667 35 -93
s-7.33301 -69.666 -22 -96.999c-15.333 -28.667 -34.666 -50.667 -57.999 -66c-24 -16 -49.333 -28 -76 -36c-27.333 -8 -54.333 -12 -81 -12c-70.667 0 -141.334 23 -212.001 69z" />
    <glyph glyph-name="ordmasculine" unicode="&#xba;" horiz-adv-x="980" 
d="M94 1069c0 38.667 4.00293 78.002 12.0029 118.002c8 39.333 22 79.666 42 120.999c19.333 40 44 76 74 108s67.333 57.667 112 77c46 20 96.667 30 152 30c57.333 0 109 -10 155 -30s83.333 -45.333 112 -76c28.667 -31.333 52.667 -67.333 72 -108
c18.667 -40 32 -80 40 -120c8 -39.333 12 -78.333 12 -117c0 -44.667 -4.33301 -87.334 -13 -128.001s-23.334 -81.667 -44.001 -123c-19.333 -39.333 -44 -74.333 -74 -105c-28.667 -30 -65.334 -54 -110.001 -72c-44 -18 -93 -27 -147 -27s-103.333 9 -148 27
c-45.333 18 -82.333 42 -111 72c-30 30.667 -54.667 65.667 -74 105c-20.667 41.333 -35.334 82.333 -44.001 123s-13 83 -13 127zM286.003 1070c0 -76 19.001 -143.001 57.001 -201.001s85.333 -87 142 -87c60.667 0 109 28 145 84s54 123.333 54 202
c0 84 -17 154.667 -51 212s-83 86 -147 86c-42.667 0 -79.334 -15.333 -110.001 -46c-31.333 -31.333 -54 -68.666 -68 -111.999c-14 -44 -21 -90 -21 -138h-1z" />
    <glyph glyph-name="guillemotright" unicode="&#xbb;" horiz-adv-x="1319" 
d="M494 555l-408 536h261l407 -534l-406 -557h-266zM1006 555l-408 536h261l407 -534l-407 -557h-266z" />
    <glyph glyph-name="onequarter" unicode="&#xbc;" horiz-adv-x="1921" 
d="M374 1507h133v-725h172v-176h-557v176h184v516l-168 -57l-49 172zM1262 1501h178l-741 -1503h-178zM1072 311l489 588h152v-543h133v-172h-133v-186h-193v186h-448v127zM1520 356v221c-25.333 -30 -53.5 -63.333 -84.5 -100s-65.5 -77 -103.5 -121h188z" />
    <glyph glyph-name="onehalf" unicode="&#xbd;" horiz-adv-x="1961" 
d="M373 1507h134v-725h171v-176h-557v176h185v516l-168 -57l-49 172zM1262 1501h178l-741 -1503h-178zM1219 716c84.667 124 198 186 340 186c89.333 0 165.666 -24 228.999 -72c62.667 -48 94 -115.667 94 -203c0 -37.333 -14 -74.333 -42 -111
c-27.333 -36 -62 -69.333 -104 -100c-20.667 -15.333 -41.334 -30 -62.001 -44s-41.667 -27.667 -63 -41s-41.166 -27 -59.499 -41s-35.833 -28 -52.5 -42c-32.667 -28 -51.667 -53.667 -57 -77h434v-176h-651v90c0 52 11.667 102 35 150c23.333 47.333 52 86 86 116
s71 59 111 87c20 14 39.167 26.833 57.5 38.5s36.166 22.167 53.499 31.5c34.667 19.333 63.334 39.333 86.001 60c23.333 21.333 35 41.333 35 60c0 32.667 -12 57.667 -36 75c-23.333 16.667 -52.666 25 -87.999 25c-41.333 0 -76 -9 -104 -27
c-27.333 -18 -55.333 -45.667 -84 -83l-154 101z" />
    <glyph glyph-name="threequarters" unicode="&#xbe;" horiz-adv-x="1982" 
d="M233 897c31.333 -47.333 61.998 -79.668 91.998 -97.001c28.667 -16.667 60.334 -25 95.001 -25c56 0 97.667 11 125 33s41 52 41 90c0 69.333 -46 104 -138 104h-96v168h103c36.667 0 62 7 76 21s21 36.667 21 68c0 22 -11 42.667 -33 62
c-22.667 19.333 -52.667 29 -90 29c-32.667 0 -63.667 -7.33301 -93 -22c-30 -15.333 -62 -45.333 -96 -90l-138 96c80.667 124 188 186 322 186c52.667 0 102.667 -9.33301 150 -28s87.666 -47.667 120.999 -87c32.667 -38.667 49 -82.667 49 -132
c0 -38 -8.66699 -73.667 -26 -107s-40.333 -57.333 -69 -72v-6c40.667 -15.333 73.667 -40.333 99 -75c25.333 -35.333 38 -79.333 38 -132c0 -49.333 -10.333 -92.333 -31 -129c-21.333 -38 -49.666 -67.667 -84.999 -89s-74.666 -37.666 -117.999 -48.999
c-42 -10.667 -87.333 -16 -136 -16c-139.333 0 -248.333 65.333 -327 196zM1320 1501h178l-741 -1503h-179zM1129 310.998l489 588h152v-543h133v-172h-133v-186h-193v186h-448v127zM1577 355.998v221c-25.333 -30 -53.5 -63.333 -84.5 -100s-65.5 -77 -103.5 -121h188z" />
    <glyph glyph-name="questiondown" unicode="&#xbf;" horiz-adv-x="1061" 
d="M124 333c0 61.333 13.667 116.331 41 164.998c13.333 24 29.5 48.5 48.5 73.5s40.5 50.833 64.5 77.5c2 2.66699 4.5 5.5 7.5 8.5s6.16699 6.5 9.5 10.5s6.66602 7.83301 9.99902 11.5s6.66602 7.16699 9.99902 10.5s6.33301 6.5 9 9.5s5.33398 6.16699 8.00098 9.5
c60.667 66.667 93.667 125.667 99 177c4 32 6 74 6 126h272v-112c0 -63.333 -14.333 -120.666 -43 -171.999c-14.667 -26 -31.667 -52.667 -51 -80s-41.666 -55.333 -66.999 -84c-28 -32 -50.833 -58.333 -68.5 -79s-30.167 -36 -37.5 -46
c-29.333 -41.333 -44 -76.666 -44 -105.999c0 -39.333 13.667 -69 41 -89c26.667 -20 63.667 -30 111 -30c88.667 0 163.667 45 225 135l206 -133c-48 -77.333 -110.333 -136.333 -187 -177s-154.667 -61 -234 -61c-59.333 0 -114.333 7 -165 21
c-51.333 14 -97.333 35 -138 63s-73 65.333 -97 112s-36 100 -36 160v-1zM390 1339c0 50.667 18 94 54 130s79.333 54 130 54s94 -18 130 -54s54 -79.333 54 -130s-18 -94 -54 -130s-79.333 -54 -130 -54s-94 18 -130 54s-54 79.333 -54 130z" />
    <glyph glyph-name="Agrave" unicode="&#xc0;" 
d="M9 0l570.999 1504h244c16.667 -44 72.334 -191.333 167.001 -442s228.667 -604.667 402 -1062h-294l-123 326h-574l-122 -326h-271zM558.999 1948l242 -346h-197l-341 346h296zM485.999 566l411 -0.000976562l-35 102c-11.333 34 -24.166 71.833 -38.499 113.5
s-30.166 88.167 -47.499 139.5s-32.833 98.166 -46.5 140.499s-25.834 80.833 -36.501 115.5h-3c-16.667 -55.333 -41.834 -133.666 -75.501 -234.999s-76.5 -226.666 -128.5 -375.999z" />
    <glyph glyph-name="Aacute" unicode="&#xc1;" 
d="M9 0l570.999 1504h244c16.667 -44 72.334 -191.333 167.001 -442s228.667 -604.667 402 -1062h-294l-123 326h-574l-122 -326h-271zM485.999 566l411 -0.000976562l-35 102c-11.333 34 -24.166 71.833 -38.499 113.5s-30.166 88.167 -47.499 139.5
s-32.833 98.166 -46.5 140.499s-25.834 80.833 -36.501 115.5h-3c-16.667 -55.333 -41.834 -133.666 -75.501 -234.999s-76.5 -226.666 -128.5 -375.999zM844.999 1948h296l-340 -346h-197z" />
    <glyph glyph-name="Acircumflex" unicode="&#xc2;" 
d="M9 0l570.999 1504h244c16.667 -44 72.334 -191.333 167.001 -442s228.667 -604.667 402 -1062h-294l-123 326h-574l-122 -326h-271zM621.999 1954h161l309 -380h-199l-190 194l-190 -194h-200zM485.999 566l411 -0.000976562l-35 102
c-11.333 34 -24.166 71.833 -38.499 113.5s-30.166 88.167 -47.499 139.5s-32.833 98.166 -46.5 140.499s-25.834 80.833 -36.501 115.5h-3c-16.667 -55.333 -41.834 -133.666 -75.501 -234.999s-76.5 -226.666 -128.5 -375.999z" />
    <glyph glyph-name="Atilde" unicode="&#xc3;" 
d="M9 0l570.999 1504h244c16.667 -44 72.334 -191.333 167.001 -442s228.667 -604.667 402 -1062h-294l-123 326h-574l-122 -326h-271zM331.999 1597c0 45.333 3.33105 84.334 9.99805 117.001c7.33301 34.667 18.666 66 33.999 94c16 28.667 39 51 69 67s66.333 24 109 24
c46.667 0 108.334 -19.667 185.001 -59c18.667 -10 34.167 -18.167 46.5 -24.5s21.833 -10.833 28.5 -13.5c24 -10.667 44 -16 60 -16c21.333 0 37 9.66699 47 29c10.667 20 17.334 50 20.001 90h153c0 -44 -3 -83 -9 -117c-6 -32.667 -16.667 -64.667 -32 -96
c-15.333 -30 -37.666 -53 -66.999 -69c-30 -16 -66.333 -24 -109 -24c-56.667 0 -120.334 20.667 -191.001 62c-3.33301 1.33301 -6.83301 3.16602 -10.5 5.49902s-8.16699 5.16602 -13.5 8.49902c-10 6 -19 11 -27 15c-4 2 -7.83301 4 -11.5 6s-7.16699 3.66699 -10.5 5
c-22 10.667 -41.667 16 -59 16c-24.667 0 -42 -9 -52 -27c-9.33301 -17.333 -18.666 -49.666 -27.999 -96.999l-139 1zM482.997 569.001l411 -0.000976562l-35 102c-11.333 34 -24.166 71.833 -38.499 113.5s-30.166 88.167 -47.499 139.5s-32.833 98.166 -46.5 140.499
s-25.834 80.833 -36.501 115.5h-3c-16.667 -55.333 -41.834 -133.666 -75.501 -234.999s-76.5 -226.666 -128.5 -375.999z" />
    <glyph glyph-name="Adieresis" unicode="&#xc4;" 
d="M9 0l570.999 1504h244c16.667 -44 72.334 -191.333 167.001 -442s228.667 -604.667 402 -1062h-294l-123 326h-574l-122 -326h-271zM349.999 1794c0 36 12.667 67.333 38 94c24.667 26 55.667 39 93 39c36.667 0 68 -13 94 -39s39 -57.333 39 -94s-13 -68 -39 -94
s-57.333 -39 -94 -39s-68 13 -94 39s-39 57.333 -39 94h2zM487.999 566l411 -0.000976562l-35 102c-11.333 34 -24.166 71.833 -38.499 113.5s-30.166 88.167 -47.499 139.5s-32.833 98.166 -46.5 140.499s-25.834 80.833 -36.501 115.5h-3
c-16.667 -55.333 -41.834 -133.666 -75.501 -234.999s-76.5 -226.666 -128.5 -375.999zM791.999 1794c0 36 12.667 67.333 38 94c24.667 26 55.667 39 93 39c36.667 0 68 -13 94 -39s39 -57.333 39 -94s-13 -68 -39 -94s-57.333 -39 -94 -39s-68 13 -94 39
s-39 57.333 -39 94h2z" />
    <glyph glyph-name="Aring" unicode="&#xc5;" 
d="M550 1428l0.999023 2c-56.667 46 -85 105.667 -85 179c0 62.667 22.667 116.667 68 162s99.333 68 162 68c64.667 0 119.334 -22.333 164.001 -67c45.333 -45.333 68 -99.333 68 -162c0 -71.333 -26.333 -129.333 -79 -174l544 -1436h-294l-123 326h-574l-122 -326h-271z
M895.999 565c-44 127.333 -83 241.668 -117 343.001s-63 190.666 -87 267.999h-3c-7.33301 -24.667 -17 -55.667 -29 -93s-26.667 -81.666 -44 -132.999s-33.5 -99.333 -48.5 -144s-29.167 -86.334 -42.5 -125.001l-40 -116h411zM589.999 1611
c0 -28.667 9.66602 -53.667 28.999 -75c18.667 -20.667 42.334 -31.667 71.001 -33h5c29.333 0 54 10.333 74 31s30 45.667 30 75c0 27.333 -10.333 51.333 -31 72c-21.333 21.333 -45.333 32 -72 32c-29.333 0 -54 -10 -74 -30s-30 -44.667 -30 -74z" />
    <glyph glyph-name="AE" unicode="&#xc6;" horiz-adv-x="1806" 
d="M768 1504h947l-16 -243h-563v-379h476l-17 -235h-459v-400h587l-16 -247h-827v332h-426l-165 -332h-292zM880 563v687l-329 -687h329z" />
    <glyph glyph-name="Ccedilla" unicode="&#xc7;" horiz-adv-x="1346" 
d="M101 735c0 79.333 7.66406 157.334 22.9971 234.001c14.667 74.667 38.667 145.667 72 213c32.667 66 73.334 124 122.001 174c48 48.667 107.667 87.667 179 117c72 29.333 151 44 237 44c16.667 0 33 -0.5 49 -1.5s32 -2.83301 48 -5.5c32 -5.33301 67 -14.333 105 -27
c38 -13.333 74 -30.333 108 -51c34 -21.333 69 -49.333 105 -84c18 -17.333 35.167 -36 51.5 -56s31.833 -41.667 46.5 -65l-207 -145c-14 19.333 -28 37.166 -42 53.499s-28.333 31.166 -43 44.499c-29.333 26 -57.333 45 -84 57c-27.333 12 -51.333 20 -72 24
c-21.333 4 -43.666 6 -66.999 6c-106 0 -191.333 -48 -256 -144c-64.667 -95.333 -97 -222.333 -97 -381c0 -151.333 34 -275.333 102 -372c68 -97.333 151 -146 249 -146c64 0 123.667 14 179 42c54.667 28 107.667 80.667 159 158l207 -144
c-116.667 -196.667 -284.334 -299.667 -503.001 -309l-45 -88c34 4 65.667 2.66699 95 -4c30.667 -7.33301 57.334 -22.666 80.001 -45.999c23.333 -24.667 35 -55.667 35 -93s-7.33301 -69.666 -22 -96.999c-15.333 -28.667 -34.666 -50.667 -57.999 -66
c-24 -16 -49.333 -28 -76 -36c-27.333 -8 -54.333 -12 -81 -12c-70.667 0 -141.334 23 -212.001 69l46 125c76.667 -37.333 132.334 -56 167.001 -56c23.333 0 43 5 59 15s24 26 24 48c0 27.333 -21.333 41 -64 41h-92l-56 55l72 152c-74 11.333 -141 33.666 -201 66.999
c-60.667 34 -111.667 75.667 -153 125c-41.333 48.667 -76.333 104.667 -105 168c-29.333 62.667 -50.333 127.667 -63 195c-12.667 65.333 -19 134.333 -19 207z" />
    <glyph glyph-name="Egrave" unicode="&#xc8;" horiz-adv-x="1235" 
d="M163 0v1504h981l-15 -243h-701v-378h621l-16 -236h-605v-398h724l-14 -249h-975zM555 1948l243 -346h-199l-340 346h296z" />
    <glyph glyph-name="Eacute" unicode="&#xc9;" horiz-adv-x="1235" 
d="M163 0v1504h981l-15 -243h-701v-378h621l-16 -236h-605v-398h724l-14 -249h-975zM752 1948h296l-340 -346h-198z" />
    <glyph glyph-name="Ecircumflex" unicode="&#xca;" horiz-adv-x="1235" 
d="M163 0v1504h981l-15 -243h-701v-378h621l-16 -236h-605v-398h724l-14 -249h-975zM594 2011h160l310 -380h-201l-190 194l-188 -194h-201z" />
    <glyph glyph-name="Edieresis" unicode="&#xcb;" horiz-adv-x="1235" 
d="M163 0v1504h981l-15 -243h-701v-378h621l-16 -236h-605v-398h724l-14 -249h-975zM304 1794c0 36 12.667 67.333 38 94c24.667 26 55.667 39 93 39c36.667 0 68 -13 94 -39s39 -57.333 39 -94s-13 -68 -39 -94s-57.333 -39 -94 -39s-68 13 -94 39s-39 57.333 -39 94h2z
M746 1794c0 36 12.667 67.333 38 94c24.667 26 55.667 39 93 39c36.667 0 68 -13 94 -39s39 -57.333 39 -94s-13 -68 -39 -94s-57.333 -39 -94 -39s-68 13 -94 39s-39 57.333 -39 94h2z" />
    <glyph glyph-name="Igrave" unicode="&#xcc;" horiz-adv-x="608" 
d="M173 1949l242 -346h-198l-340 346h296zM163 1504h282v-1504h-282v1504z" />
    <glyph glyph-name="Iacute" unicode="&#xcd;" horiz-adv-x="608" 
d="M163 1504h282v-1504h-282v1504zM446 1949h296l-340 -346h-199z" />
    <glyph glyph-name="Icircumflex" unicode="&#xce;" horiz-adv-x="608" 
d="M223 2012h160l310 -380h-201l-190 193l-188 -193h-201zM163 1504h282v-1504h-282v1504z" />
    <glyph glyph-name="Idieresis" unicode="&#xcf;" horiz-adv-x="608" 
d="M-26 1784c0 32 11.667 60.333 35 85c22.667 24 50.667 36 84 36c32.667 0 60.667 -12 84 -36c23.333 -24.667 35 -53 35 -85c0 -32.667 -11.667 -60.667 -35 -84s-51.333 -35 -84 -35s-60.667 11.667 -84 35s-35 51.333 -35 84zM163 1504h282v-1504h-282v1504zM394 1784
c0 32 11.667 60.333 35 85c22.667 24 50.667 36 84 36c32.667 0 60.667 -12 84 -36c23.333 -24.667 35 -53 35 -85c0 -32.667 -11.667 -60.667 -35 -84s-51.333 -35 -84 -35s-60.667 11.667 -84 35s-35 51.333 -35 84z" />
    <glyph glyph-name="Eth" unicode="&#xd0;" horiz-adv-x="1426" 
d="M-17 877l178.001 0.00195312v623h364c100 0 190.333 -8.33301 271 -25s156 -44.334 226 -83.001c68.667 -37.333 127 -85.333 175 -144c47.333 -57.333 84.666 -129.333 111.999 -216c26.667 -84.667 40 -182.334 40 -293.001c0 -140.667 -28 -267 -84 -379
s-136.333 -200 -241 -264c-105.333 -64 -226.333 -96 -363 -96h-499v661h-178zM617.001 245.002c55.333 0 109 10.334 161 31.001c54 21.333 103 50.666 147 87.999c45.333 38.667 82 88.667 110 150c28 62 42 130.667 42 206c0 186 -45 321 -135 405s-226.333 126 -409 126
h-104v-374h364v-220h-364v-412h188z" />
    <glyph glyph-name="Ntilde" unicode="&#xd1;" horiz-adv-x="1419" 
d="M163 0v1504h225l315 -506c13.333 -20.667 27.666 -43.167 42.999 -67.5s31.666 -50.5 48.999 -78.5s32 -51.667 44 -71s21.333 -34.333 28 -45c12.667 -21.333 29.667 -50.333 51 -87c20.667 -37.333 43.667 -79.333 69 -126h3c-0.666992 46.667 -1 151.667 -1 315v666
h265v-1504h-220c-107.333 172 -189.166 302.833 -245.499 392.5s-87.166 139.167 -92.499 148.5c-62.667 101.333 -116.167 189.333 -160.5 264s-79.833 137 -106.5 187h-3v-116v-876h-263zM332 1607c0 45.333 3.33105 84.334 9.99805 117.001
c7.33301 34.667 18.666 66 33.999 94c16 28.667 39 51 69 67s66.333 24 109 24c46.667 0 108.334 -19.667 185.001 -59c18.667 -10 34.167 -18.167 46.5 -24.5s21.833 -10.833 28.5 -13.5c24 -10.667 44 -16 60 -16c21.333 0 37 9.66699 47 29
c10.667 20 17.334 50 20.001 90h153c0 -44 -3 -83 -9 -117c-6 -32.667 -16.667 -64.667 -32 -96c-15.333 -30 -37.666 -53 -66.999 -69c-30 -16 -66.333 -24 -109 -24c-56.667 0 -120.334 20.667 -191.001 62c-3.33301 1.33301 -6.83301 3.16602 -10.5 5.49902
s-8.16699 5.16602 -13.5 8.49902c-10 6 -19 11 -27 15c-4 2 -7.83301 4 -11.5 6s-7.16699 3.66699 -10.5 5c-22 10.667 -41.667 16 -59 16c-24.667 0 -42 -9 -52 -27c-9.33301 -17.333 -18.666 -49.666 -27.999 -96.999l-139 1z" />
    <glyph glyph-name="Ograve" unicode="&#xd2;" horiz-adv-x="1437" 
d="M99 758c0 73.333 7.66699 146.663 23 219.996c14.667 72 38.667 141 72 207c32.667 66 72.667 124 120 174c46.667 50 104.667 90 174 120c68.667 30 144.667 45 228 45c82 0 156.667 -14.333 224 -43c68.667 -29.333 126.334 -68.333 173.001 -117
c47.333 -49.333 87.333 -106.666 120 -171.999c33.333 -67.333 58 -137.333 74 -210c16 -74 24 -150 24 -228c0 -23.333 -0.666992 -46.5 -2 -69.5s-3.33301 -46.167 -6 -69.5c-4.66699 -46.667 -13.667 -96 -27 -148c-6.66699 -26 -14.167 -51.167 -22.5 -75.5
s-17.5 -48.166 -27.5 -71.499s-21.5 -46.166 -34.5 -68.499s-27.833 -44.166 -44.5 -65.499c-33.333 -43.333 -70.333 -80.333 -111 -111c-41.333 -31.333 -91 -56 -149 -74s-121 -27 -189 -27c-64.667 0 -126 8.66699 -184 26c-57.333 16.667 -106.333 39.667 -147 69
c-41.333 28.667 -78.333 63.667 -111 105c-32.667 40.667 -59.667 84.334 -81 131.001c-10.667 23.333 -20.334 47.166 -29.001 71.499s-16.667 49.5 -24 75.5c-14 52 -24 103 -30 153s-9 100 -9 150zM608 1961l242 -345h-197l-340 345h295zM367 755.997
c0 -24 0.832031 -47.8369 2.49902 -71.5039s4.16699 -47.167 7.5 -70.5c6.66699 -47.333 18.667 -94.333 36 -141c16.667 -46 37.667 -87.333 63 -124c25.333 -36 57.666 -65 96.999 -87c40 -22 85 -33 135 -33c38.667 0 74.334 6.66699 107.001 20
c33.333 13.333 61 30.666 83 51.999s42.333 47.333 61 78s33.334 61.334 44.001 92.001s19.667 63.667 27 99c6.66699 34.667 11.667 67.334 15 98.001c1.33301 15.333 2.33301 30.333 3 45s1 29.334 1 44.001c0 22 -1 44.167 -3 66.5s-4.66699 45.166 -8 68.499
c-7.33301 47.333 -19.666 93.333 -36.999 138c-18.667 47.333 -40 88.333 -64 123c-25.333 36.667 -57.333 66.334 -96 89.001s-81.667 34 -129 34c-42 0 -80 -8.33301 -114 -25c-34.667 -16.667 -64 -39 -88 -67c-23.333 -27.333 -44.333 -59 -63 -95
c-18 -35.333 -32 -72.666 -42 -111.999c-5.33301 -20 -9.83301 -39.5 -13.5 -58.5s-6.83398 -37.833 -9.50098 -56.5s-4.5 -36.667 -5.5 -54s-1.5 -34.666 -1.5 -51.999h-8z" />
    <glyph glyph-name="Oacute" unicode="&#xd3;" horiz-adv-x="1437" 
d="M99 758c0 73.333 7.66699 146.663 23 219.996c14.667 72 38.667 141 72 207c32.667 66 72.667 124 120 174c46.667 50 104.667 90 174 120c68.667 30 144.667 45 228 45c82 0 156.667 -14.333 224 -43c68.667 -29.333 126.334 -68.333 173.001 -117
c47.333 -49.333 87.333 -106.666 120 -171.999c33.333 -67.333 58 -137.333 74 -210c16 -74 24 -150 24 -228c0 -23.333 -0.666992 -46.5 -2 -69.5s-3.33301 -46.167 -6 -69.5c-4.66699 -46.667 -13.667 -96 -27 -148c-6.66699 -26 -14.167 -51.167 -22.5 -75.5
s-17.5 -48.166 -27.5 -71.499s-21.5 -46.166 -34.5 -68.499s-27.833 -44.166 -44.5 -65.499c-33.333 -43.333 -70.333 -80.333 -111 -111c-41.333 -31.333 -91 -56 -149 -74s-121 -27 -189 -27c-64.667 0 -126 8.66699 -184 26c-57.333 16.667 -106.333 39.667 -147 69
c-41.333 28.667 -78.333 63.667 -111 105c-32.667 40.667 -59.667 84.334 -81 131.001c-10.667 23.333 -20.334 47.166 -29.001 71.499s-16.667 49.5 -24 75.5c-14 52 -24 103 -30 153s-9 100 -9 150zM367 755.997c0 -24 0.832031 -47.8369 2.49902 -71.5039
s4.16699 -47.167 7.5 -70.5c6.66699 -47.333 18.667 -94.333 36 -141c16.667 -46 37.667 -87.333 63 -124c25.333 -36 57.666 -65 96.999 -87c40 -22 85 -33 135 -33c38.667 0 74.334 6.66699 107.001 20c33.333 13.333 61 30.666 83 51.999s42.333 47.333 61 78
s33.334 61.334 44.001 92.001s19.667 63.667 27 99c6.66699 34.667 11.667 67.334 15 98.001c1.33301 15.333 2.33301 30.333 3 45s1 29.334 1 44.001c0 22 -1 44.167 -3 66.5s-4.66699 45.166 -8 68.499c-7.33301 47.333 -19.666 93.333 -36.999 138
c-18.667 47.333 -40 88.333 -64 123c-25.333 36.667 -57.333 66.334 -96 89.001s-81.667 34 -129 34c-42 0 -80 -8.33301 -114 -25c-34.667 -16.667 -64 -39 -88 -67c-23.333 -27.333 -44.333 -59 -63 -95c-18 -35.333 -32 -72.666 -42 -111.999
c-5.33301 -20 -9.83301 -39.5 -13.5 -58.5s-6.83398 -37.833 -9.50098 -56.5s-4.5 -36.667 -5.5 -54s-1.5 -34.666 -1.5 -51.999h-8zM810.999 1960.99h296l-340 -345h-197z" />
    <glyph glyph-name="Ocircumflex" unicode="&#xd4;" horiz-adv-x="1437" 
d="M99 758c0 73.333 7.66699 146.663 23 219.996c14.667 72 38.667 141 72 207c32.667 66 72.667 124 120 174c46.667 50 104.667 90 174 120c68.667 30 144.667 45 228 45c82 0 156.667 -14.333 224 -43c68.667 -29.333 126.334 -68.333 173.001 -117
c47.333 -49.333 87.333 -106.666 120 -171.999c33.333 -67.333 58 -137.333 74 -210c16 -74 24 -150 24 -228c0 -23.333 -0.666992 -46.5 -2 -69.5s-3.33301 -46.167 -6 -69.5c-4.66699 -46.667 -13.667 -96 -27 -148c-6.66699 -26 -14.167 -51.167 -22.5 -75.5
s-17.5 -48.166 -27.5 -71.499s-21.5 -46.166 -34.5 -68.499s-27.833 -44.166 -44.5 -65.499c-33.333 -43.333 -70.333 -80.333 -111 -111c-41.333 -31.333 -91 -56 -149 -74s-121 -27 -189 -27c-64.667 0 -126 8.66699 -184 26c-57.333 16.667 -106.333 39.667 -147 69
c-41.333 28.667 -78.333 63.667 -111 105c-32.667 40.667 -59.667 84.334 -81 131.001c-10.667 23.333 -20.334 47.166 -29.001 71.499s-16.667 49.5 -24 75.5c-14 52 -24 103 -30 153s-9 100 -9 150zM637 2015h161l309 -380h-200l-190 193l-189 -193h-200zM367 755.997
c0 -24 0.832031 -47.8369 2.49902 -71.5039s4.16699 -47.167 7.5 -70.5c6.66699 -47.333 18.667 -94.333 36 -141c16.667 -46 37.667 -87.333 63 -124c25.333 -36 57.666 -65 96.999 -87c40 -22 85 -33 135 -33c38.667 0 74.334 6.66699 107.001 20
c33.333 13.333 61 30.666 83 51.999s42.333 47.333 61 78s33.334 61.334 44.001 92.001s19.667 63.667 27 99c6.66699 34.667 11.667 67.334 15 98.001c1.33301 15.333 2.33301 30.333 3 45s1 29.334 1 44.001c0 22 -1 44.167 -3 66.5s-4.66699 45.166 -8 68.499
c-7.33301 47.333 -19.666 93.333 -36.999 138c-18.667 47.333 -40 88.333 -64 123c-25.333 36.667 -57.333 66.334 -96 89.001s-81.667 34 -129 34c-42 0 -80 -8.33301 -114 -25c-34.667 -16.667 -64 -39 -88 -67c-23.333 -27.333 -44.333 -59 -63 -95
c-18 -35.333 -32 -72.666 -42 -111.999c-5.33301 -20 -9.83301 -39.5 -13.5 -58.5s-6.83398 -37.833 -9.50098 -56.5s-4.5 -36.667 -5.5 -54s-1.5 -34.666 -1.5 -51.999h-8z" />
    <glyph glyph-name="Otilde" unicode="&#xd5;" horiz-adv-x="1437" 
d="M99 758c0 73.333 7.66699 146.663 23 219.996c14.667 72 38.667 141 72 207c32.667 66 72.667 124 120 174c46.667 50 104.667 90 174 120c68.667 30 144.667 45 228 45c82 0 156.667 -14.333 224 -43c68.667 -29.333 126.334 -68.333 173.001 -117
c47.333 -49.333 87.333 -106.666 120 -171.999c33.333 -67.333 58 -137.333 74 -210c16 -74 24 -150 24 -228c0 -23.333 -0.666992 -46.5 -2 -69.5s-3.33301 -46.167 -6 -69.5c-4.66699 -46.667 -13.667 -96 -27 -148c-6.66699 -26 -14.167 -51.167 -22.5 -75.5
s-17.5 -48.166 -27.5 -71.499s-21.5 -46.166 -34.5 -68.499s-27.833 -44.166 -44.5 -65.499c-33.333 -43.333 -70.333 -80.333 -111 -111c-41.333 -31.333 -91 -56 -149 -74s-121 -27 -189 -27c-64.667 0 -126 8.66699 -184 26c-57.333 16.667 -106.333 39.667 -147 69
c-41.333 28.667 -78.333 63.667 -111 105c-32.667 40.667 -59.667 84.334 -81 131.001c-10.667 23.333 -20.334 47.166 -29.001 71.499s-16.667 49.5 -24 75.5c-14 52 -24 103 -30 153s-9 100 -9 150zM341 1642c0 34.667 2 66.002 6 94.002s11 55 21 81s23 48 39 66
c15.333 17.333 36.333 31.666 63 42.999c25.333 10.667 55.666 16 90.999 16c47.333 0 108.666 -19.667 183.999 -59c20.667 -10.667 37.167 -19.167 49.5 -25.5s20.833 -10.5 25.5 -12.5c24 -10.667 44 -16 60 -16c21.333 0 37 9.66699 47 29
c10.667 20 17.334 50 20.001 90h153c0 -44 -3 -83 -9 -117c-6 -32.667 -16.667 -64.667 -32 -96c-15.333 -30 -37.666 -53 -66.999 -69c-30 -16 -66.333 -24 -109 -24c-56.667 0 -120.334 20.667 -191.001 62c-3.33301 1.33301 -6.83301 3.16602 -10.5 5.49902
s-8.16699 5.16602 -13.5 8.49902c-10 6 -19 11 -27 15c-4 2 -7.83301 4 -11.5 6s-7.16699 3.66699 -10.5 5c-22 10.667 -41.667 16 -59 16c-24.667 0 -42 -9 -52 -27c-9.33301 -17.333 -18.666 -49.666 -27.999 -96.999l-139 1v5zM367 760.999
c0 -24 0.832031 -47.8369 2.49902 -71.5039s4.16699 -47.167 7.5 -70.5c6.66699 -47.333 18.667 -94.333 36 -141c16.667 -46 37.667 -87.333 63 -124c25.333 -36 57.666 -65 96.999 -87c40 -22 85 -33 135 -33c38.667 0 74.334 6.66699 107.001 20
c33.333 13.333 61 30.666 83 51.999s42.333 47.333 61 78s33.334 61.334 44.001 92.001s19.667 63.667 27 99c6.66699 34.667 11.667 67.334 15 98.001c1.33301 15.333 2.33301 30.333 3 45s1 29.334 1 44.001c0 22 -1 44.167 -3 66.5s-4.66699 45.166 -8 68.499
c-7.33301 47.333 -19.666 93.333 -36.999 138c-18.667 47.333 -40 88.333 -64 123c-25.333 36.667 -57.333 66.334 -96 89.001s-81.667 34 -129 34c-42 0 -80 -8.33301 -114 -25c-34.667 -16.667 -64 -39 -88 -67c-23.333 -27.333 -44.333 -59 -63 -95
c-18 -35.333 -32 -72.666 -42 -111.999c-5.33301 -20 -9.83301 -39.5 -13.5 -58.5s-6.83398 -37.833 -9.50098 -56.5s-4.5 -36.667 -5.5 -54s-1.5 -34.666 -1.5 -51.999h-8z" />
    <glyph glyph-name="Odieresis" unicode="&#xd6;" horiz-adv-x="1437" 
d="M99 758c0 73.333 7.66699 146.663 23 219.996c14.667 72 38.667 141 72 207c32.667 66 72.667 124 120 174c46.667 50 104.667 90 174 120c68.667 30 144.667 45 228 45c82 0 156.667 -14.333 224 -43c68.667 -29.333 126.334 -68.333 173.001 -117
c47.333 -49.333 87.333 -106.666 120 -171.999c33.333 -67.333 58 -137.333 74 -210c16 -74 24 -150 24 -228c0 -23.333 -0.666992 -46.5 -2 -69.5s-3.33301 -46.167 -6 -69.5c-4.66699 -46.667 -13.667 -96 -27 -148c-6.66699 -26 -14.167 -51.167 -22.5 -75.5
s-17.5 -48.166 -27.5 -71.499s-21.5 -46.166 -34.5 -68.499s-27.833 -44.166 -44.5 -65.499c-33.333 -43.333 -70.333 -80.333 -111 -111c-41.333 -31.333 -91 -56 -149 -74s-121 -27 -189 -27c-64.667 0 -126 8.66699 -184 26c-57.333 16.667 -106.333 39.667 -147 69
c-41.333 28.667 -78.333 63.667 -111 105c-32.667 40.667 -59.667 84.334 -81 131.001c-10.667 23.333 -20.334 47.166 -29.001 71.499s-16.667 49.5 -24 75.5c-14 52 -24 103 -30 153s-9 100 -9 150zM364 1797c0 36 12.667 67.333 38 94c24.667 26 55.667 39 93 39
c36.667 0 68 -13 94 -39s39 -57.333 39 -94s-13 -68 -39 -94s-57.333 -39 -94 -39s-68 13 -94 39s-39 57.333 -39 94h2zM369 755.997c0 -24 0.832031 -47.8369 2.49902 -71.5039s4.16699 -47.167 7.5 -70.5c6.66699 -47.333 18.667 -94.333 36 -141
c16.667 -46 37.667 -87.333 63 -124c25.333 -36 57.666 -65 96.999 -87c40 -22 85 -33 135 -33c38.667 0 74.334 6.66699 107.001 20c33.333 13.333 61 30.666 83 51.999s42.333 47.333 61 78s33.334 61.334 44.001 92.001s19.667 63.667 27 99
c6.66699 34.667 11.667 67.334 15 98.001c1.33301 15.333 2.33301 30.333 3 45s1 29.334 1 44.001c0 22 -1 44.167 -3 66.5s-4.66699 45.166 -8 68.499c-7.33301 47.333 -19.666 93.333 -36.999 138c-18.667 47.333 -40 88.333 -64 123
c-25.333 36.667 -57.333 66.334 -96 89.001s-81.667 34 -129 34c-42 0 -80 -8.33301 -114 -25c-34.667 -16.667 -64 -39 -88 -67c-23.333 -27.333 -44.333 -59 -63 -95c-18 -35.333 -32 -72.666 -42 -111.999c-5.33301 -20 -9.83301 -39.5 -13.5 -58.5
s-6.83398 -37.833 -9.50098 -56.5s-4.5 -36.667 -5.5 -54s-1.5 -34.666 -1.5 -51.999h-8zM797.999 1796.99c0 36 12.667 67.333 38 94c24.667 26 55.667 39 93 39c36.667 0 68 -13 94 -39s39 -57.333 39 -94s-13 -68 -39 -94s-57.333 -39 -94 -39s-68 13 -94 39
s-39 57.333 -39 94h2z" />
    <glyph glyph-name="multiply" unicode="&#xd7;" horiz-adv-x="1099" 
d="M404 694l-303 287l143 137l303 -289l303 289l145 -137l-302 -289l305 -289l-144 -137l-305 289l-303 -287l-145 137z" />
    <glyph glyph-name="Oslash" unicode="&#xd8;" horiz-adv-x="1556" 
d="M189 313c-58 128 -87 274.664 -87 439.997c0 73.333 7.66699 146.666 23 219.999c14.667 72 38.667 141 72 207c32.667 66 72.667 124 120 174c46.667 50 104.667 90 174 120c68.667 30 144.667 45 228 45c172.667 0 314.667 -63.667 426 -191l189 202l146 -124
l-230 -245c56 -123.333 84 -259.666 84 -408.999c0 -23.333 -0.666992 -46.5 -2 -69.5s-3.33301 -46.167 -6 -69.5c-4.66699 -46.667 -13.667 -96 -27 -148c-6.66699 -26 -14.167 -51.167 -22.5 -75.5s-17.5 -48.166 -27.5 -71.499s-21.5 -46.166 -34.5 -68.499
s-27.833 -44.166 -44.5 -65.499c-33.333 -43.333 -70.333 -80.333 -111 -111c-41.333 -31.333 -91 -56 -149 -74s-121 -27 -189 -27c-175.333 0 -316.333 59 -423 177l-192 -204l-148 121zM376 750.997c0 -74.667 8.00098 -145.002 24.001 -211.002l554 590
c-61.333 94 -141 141 -239 141c-42 0 -80 -8.33301 -114 -25c-34.667 -16.667 -64 -39 -88 -67c-23.333 -27.333 -44.333 -59 -63 -95c-18 -35.333 -32 -72.666 -42 -111.999c-5.33301 -20 -9.83301 -39.5 -13.5 -58.5s-6.83398 -37.833 -9.50098 -56.5
s-4.5 -36.667 -5.5 -54s-1.5 -34.666 -1.5 -51.999h-2zM481.001 347.995c59.333 -83.333 137.665 -125 234.998 -125c44.667 0 85.334 8.66699 122.001 26s66.667 40.666 90 69.999c24.667 30.667 45.334 63.334 62.001 98.001s29.667 72.667 39 114
c4.66699 20.667 8.66699 40.667 12 60s6 38 8 56c4 36 6 71 6 105c0 62.667 -7.33301 123.667 -22 183z" />
    <glyph glyph-name="Ugrave" unicode="&#xd9;" horiz-adv-x="1379" 
d="M140 1503l267.999 0.00195312v-949c0 -224 91 -336 273 -336c57.333 0 106 8.66699 146 26c38.667 16.667 68 41.667 88 75c20.667 34 34.334 69 41.001 105c7.33301 38.667 11 82.667 11 132l1 947h264v-948c0 -59.333 -5 -115.333 -15 -168s-28 -105 -54 -157
c-26 -52.667 -59 -97.334 -99 -134.001s-92.667 -66.667 -158 -90c-66 -23.333 -140 -35 -222 -35c-84 0 -158.333 12 -223 36s-116.667 54.667 -156 92c-39.333 36.667 -71.333 81.667 -96 135c-25.333 53.333 -42.333 105.666 -51 156.999
c-4.66699 26 -8.16699 52.667 -10.5 80s-3.5 56 -3.5 86zM575.999 1887l242 -345h-198l-339 345h295z" />
    <glyph glyph-name="Uacute" unicode="&#xda;" horiz-adv-x="1379" 
d="M140 1503l267.999 0.00195312v-949c0 -224 91 -336 273 -336c57.333 0 106 8.66699 146 26c38.667 16.667 68 41.667 88 75c20.667 34 34.334 69 41.001 105c7.33301 38.667 11 82.667 11 132l1 947h264v-948c0 -59.333 -5 -115.333 -15 -168s-28 -105 -54 -157
c-26 -52.667 -59 -97.334 -99 -134.001s-92.667 -66.667 -158 -90c-66 -23.333 -140 -35 -222 -35c-84 0 -158.333 12 -223 36s-116.667 54.667 -156 92c-39.333 36.667 -71.333 81.667 -96 135c-25.333 53.333 -42.333 105.666 -51 156.999
c-4.66699 26 -8.16699 52.667 -10.5 80s-3.5 56 -3.5 86zM776.999 1887h296l-340 -345h-199z" />
    <glyph glyph-name="Ucircumflex" unicode="&#xdb;" horiz-adv-x="1379" 
d="M140 1503l267.999 0.00195312v-949c0 -224 91 -336 273 -336c57.333 0 106 8.66699 146 26c38.667 16.667 68 41.667 88 75c20.667 34 34.334 69 41.001 105c7.33301 38.667 11 82.667 11 132l1 947h264v-948c0 -59.333 -5 -115.333 -15 -168s-28 -105 -54 -157
c-26 -52.667 -59 -97.334 -99 -134.001s-92.667 -66.667 -158 -90c-66 -23.333 -140 -35 -222 -35c-84 0 -158.333 12 -223 36s-116.667 54.667 -156 92c-39.333 36.667 -71.333 81.667 -96 135c-25.333 53.333 -42.333 105.666 -51 156.999
c-4.66699 26 -8.16699 52.667 -10.5 80s-3.5 56 -3.5 86zM601.999 2001h160l309 -380h-200l-190 193l-188 -193h-201z" />
    <glyph glyph-name="Udieresis" unicode="&#xdc;" horiz-adv-x="1379" 
d="M140 1502l267.999 0.00195312v-948c0 -224 91 -336 273 -336c57.333 0 106 8.66699 146 26c38.667 16.667 68 41.667 88 75c20.667 34 34.334 69 41.001 105c7.33301 38.667 11 82.667 11 132l1 946h264v-947c0 -59.333 -5 -115.333 -15 -168s-28 -105 -54 -157
c-26 -52.667 -59 -97.334 -99 -134.001s-92.667 -66.667 -158 -90c-66 -23.333 -140 -35 -222 -35c-84 0 -158.333 12 -223 36s-116.667 54.667 -156 92c-39.333 36.667 -71.333 81.667 -96 135c-25.333 53.333 -42.333 105.666 -51 156.999
c-4.66699 26 -8.16699 52.667 -10.5 80s-3.5 56 -3.5 86zM325.999 1754c0 36 12.667 67.333 38 94c24.667 26 55.667 39 93 39c36.667 0 68 -13 94 -39s39 -57.333 39 -94s-13 -68 -39 -94s-57.333 -39 -94 -39s-68 13 -94 39s-39 57.333 -39 94h2zM767.999 1754
c0 36 12.667 67.333 38 94c24.667 26 55.667 39 93 39c36.667 0 68 -13 94 -39s39 -57.333 39 -94s-13 -68 -39 -94s-57.333 -39 -94 -39s-68 13 -94 39s-39 57.333 -39 94h2z" />
    <glyph glyph-name="Yacute" unicode="&#xdd;" horiz-adv-x="1262" 
d="M308 1504c83.333 -162.667 147.833 -288.669 193.5 -378.002s73.167 -142.666 82.5 -159.999c6.66699 -12 16.667 -34.333 30 -67c7.33301 -17.333 12.833 -30.666 16.5 -39.999s6.16699 -15.333 7.5 -18l8 20c4 10 9.33301 23 16 39c12.667 32 21.667 53 27 63l281 541
h297l-502 -912v-592h-266v590l-504 914h313zM743 1878h296l-341 -345h-198z" />
    <glyph glyph-name="Thorn" unicode="&#xde;" horiz-adv-x="1264" 
d="M165 1505l265.999 0.000976562v-252h166c62.667 0 120.667 -5 174 -15c54.667 -10 104.334 -26.333 149.001 -49c46 -23.333 85 -52.333 117 -87s57 -78.334 75 -131.001c18 -52 27 -111.333 27 -178c0 -138 -47 -247 -141 -327s-215.333 -120 -364 -120h-205v-346h-266z
M632.999 578.001c70.667 0 128.666 17.666 173.999 52.999c44.667 34.667 67 85.667 67 153c0 84.667 -19.333 145.334 -58 182.001c-39.333 37.333 -103.666 56 -192.999 56h-192v-443z" />
    <glyph glyph-name="germandbls" unicode="&#xdf;" horiz-adv-x="1216" 
d="M133 1077c0 146.667 38.6641 262.667 115.997 348s191.333 128 342 128c134.667 0 242.334 -39.333 323.001 -118c81.333 -79.333 122 -184.333 122 -315c0 -54.667 -15 -107 -45 -157c-30 -49.333 -71 -89.666 -123 -120.999v-6c92.667 -40 161.667 -91.667 207 -155
c44.667 -62.667 67 -140.334 67 -233.001c0 -153.333 -48 -274.333 -144 -363c-95.333 -88.667 -221.666 -133 -378.999 -133c-33.333 0 -70.333 6 -111 18l17 230c42.667 -6 74.667 -9 96 -9c82 0 145.667 22.333 191 67c46 44.667 69 106.667 69 186
c0 91.333 -28.333 159 -85 203c-57.333 44 -134.666 66 -231.999 66h-23v220h9c68 0 122.667 16.333 164 49c42 32.667 63 79.667 63 141c0 133.333 -62.667 200 -188 200c-132 0 -198 -76.333 -198 -229v-1448l-257 -86z" />
    <glyph glyph-name="agrave" unicode="&#xe0;" horiz-adv-x="1047" 
d="M71 330c0 37.333 4.66992 72.001 14.0029 104.001c8.66699 30.667 20.667 57.667 36 81s35.333 44 60 62s48.667 33 72 45c22 11.333 50.333 21.666 85 30.999c17.333 4.66699 33.333 8.5 48 11.5s28.667 5.5 42 7.5s27.833 3.83301 43.5 5.5s33.167 3.16699 52.5 4.5
c37.333 2.66699 68 4.66699 92 6c11.333 0.666992 24.5 1 39.5 1h49.5c0 74.667 -11.667 126.667 -35 156s-69.333 44 -138 44c-48 0 -92.667 -7.33301 -134 -22c-42.667 -15.333 -89.334 -40.333 -140.001 -75l-123 172c102.667 97.333 231.667 146 387 146
c56 0 105 -5.33301 147 -16c43.333 -11.333 80 -25.333 110 -42c30 -17.333 55.667 -40 77 -68c22 -29.333 38.667 -57.333 50 -84s20.666 -60.667 27.999 -102c3.33301 -20 6 -39.5 8 -58.5s3.66699 -37.167 5 -54.5c2 -35.333 3 -76.333 3 -123v-563h-209l-10 142
c-45.333 -48 -96 -88.667 -152 -122c-56.667 -33.333 -114.334 -50 -173.001 -50c-105.333 0 -188 33.333 -248 100s-90 152.667 -90 258zM443.003 1557l243 -345h-199l-340 345h296zM318.003 328.001c0 -47.333 12.334 -83.3311 37.001 -107.998s60.667 -37 108 -37
c45.333 0 90.333 15.333 135 46s79.667 67.667 105 111v177h-49c-6 0 -13.5 -0.166992 -22.5 -0.5s-19.167 -0.833008 -30.5 -1.5s-21.833 -1.33398 -31.5 -2.00098s-18.167 -1.66699 -25.5 -3c-16 -2 -34.667 -5 -56 -9c-22 -4 -40 -9 -54 -15s-29 -14 -45 -24
c-16.667 -10.667 -29.334 -21.667 -38.001 -33c-9.33301 -12.667 -17 -27.334 -23 -44.001c-6 -17.333 -9 -36.333 -9 -57h-1z" />
    <glyph glyph-name="aacute" unicode="&#xe1;" horiz-adv-x="1047" 
d="M71 330c0 37.333 4.66992 72.001 14.0029 104.001c8.66699 30.667 20.667 57.667 36 81s35.333 44 60 62s48.667 33 72 45c22 11.333 50.333 21.666 85 30.999c17.333 4.66699 33.333 8.5 48 11.5s28.667 5.5 42 7.5s27.833 3.83301 43.5 5.5s33.167 3.16699 52.5 4.5
c37.333 2.66699 68 4.66699 92 6c11.333 0.666992 24.5 1 39.5 1h49.5c0 74.667 -11.667 126.667 -35 156s-69.333 44 -138 44c-48 0 -92.667 -7.33301 -134 -22c-42.667 -15.333 -89.334 -40.333 -140.001 -75l-123 172c102.667 97.333 231.667 146 387 146
c56 0 105 -5.33301 147 -16c43.333 -11.333 80 -25.333 110 -42c30 -17.333 55.667 -40 77 -68c22 -29.333 38.667 -57.333 50 -84s20.666 -60.667 27.999 -102c3.33301 -20 6 -39.5 8 -58.5s3.66699 -37.167 5 -54.5c2 -35.333 3 -76.333 3 -123v-563h-209l-10 142
c-45.333 -48 -96 -88.667 -152 -122c-56.667 -33.333 -114.334 -50 -173.001 -50c-105.333 0 -188 33.333 -248 100s-90 152.667 -90 258zM318.003 328.001c0 -47.333 12.334 -83.3311 37.001 -107.998s60.667 -37 108 -37c45.333 0 90.333 15.333 135 46
s79.667 67.667 105 111v177h-49c-6 0 -13.5 -0.166992 -22.5 -0.5s-19.167 -0.833008 -30.5 -1.5s-21.833 -1.33398 -31.5 -2.00098s-18.167 -1.66699 -25.5 -3c-16 -2 -34.667 -5 -56 -9c-22 -4 -40 -9 -54 -15s-29 -14 -45 -24
c-16.667 -10.667 -29.334 -21.667 -38.001 -33c-9.33301 -12.667 -17 -27.334 -23 -44.001c-6 -17.333 -9 -36.333 -9 -57h-1zM657.004 1567h297l-341 -345h-198z" />
    <glyph glyph-name="acircumflex" unicode="&#xe2;" horiz-adv-x="1047" 
d="M71 330c0 37.333 4.66992 72.001 14.0029 104.001c8.66699 30.667 20.667 57.667 36 81s35.333 44 60 62s48.667 33 72 45c22 11.333 50.333 21.666 85 30.999c17.333 4.66699 33.333 8.5 48 11.5s28.667 5.5 42 7.5s27.833 3.83301 43.5 5.5s33.167 3.16699 52.5 4.5
c37.333 2.66699 68 4.66699 92 6c11.333 0.666992 24.5 1 39.5 1h49.5c0 74.667 -11.667 126.667 -35 156s-69.333 44 -138 44c-48 0 -92.667 -7.33301 -134 -22c-42.667 -15.333 -89.334 -40.333 -140.001 -75l-123 172c102.667 97.333 231.667 146 387 146
c56 0 105 -5.33301 147 -16c43.333 -11.333 80 -25.333 110 -42c30 -17.333 55.667 -40 77 -68c22 -29.333 38.667 -57.333 50 -84s20.666 -60.667 27.999 -102c3.33301 -20 6 -39.5 8 -58.5s3.66699 -37.167 5 -54.5c2 -35.333 3 -76.333 3 -123v-563h-209l-10 142
c-45.333 -48 -96 -88.667 -152 -122c-56.667 -33.333 -114.334 -50 -173.001 -50c-105.333 0 -188 33.333 -248 100s-90 152.667 -90 258zM458.003 1589h160l310 -380h-201l-190 193l-189 -193h-200zM318.003 328.001c0 -47.333 12.334 -83.3311 37.001 -107.998
s60.667 -37 108 -37c45.333 0 90.333 15.333 135 46s79.667 67.667 105 111v177h-49c-6 0 -13.5 -0.166992 -22.5 -0.5s-19.167 -0.833008 -30.5 -1.5s-21.833 -1.33398 -31.5 -2.00098s-18.167 -1.66699 -25.5 -3c-16 -2 -34.667 -5 -56 -9c-22 -4 -40 -9 -54 -15
s-29 -14 -45 -24c-16.667 -10.667 -29.334 -21.667 -38.001 -33c-9.33301 -12.667 -17 -27.334 -23 -44.001c-6 -17.333 -9 -36.333 -9 -57h-1z" />
    <glyph glyph-name="atilde" unicode="&#xe3;" horiz-adv-x="1047" 
d="M71 330c0 37.333 4.66992 72.001 14.0029 104.001c8.66699 30.667 20.667 57.667 36 81s35.333 44 60 62s48.667 33 72 45c22 11.333 50.333 21.666 85 30.999c17.333 4.66699 33.333 8.5 48 11.5s28.667 5.5 42 7.5s27.833 3.83301 43.5 5.5s33.167 3.16699 52.5 4.5
c37.333 2.66699 68 4.66699 92 6c11.333 0.666992 24.5 1 39.5 1h49.5c0 74.667 -11.667 126.667 -35 156s-69.333 44 -138 44c-48 0 -92.667 -7.33301 -134 -22c-42.667 -15.333 -89.334 -40.333 -140.001 -75l-123 172c102.667 97.333 231.667 146 387 146
c56 0 105 -5.33301 147 -16c43.333 -11.333 80 -25.333 110 -42c30 -17.333 55.667 -40 77 -68c22 -29.333 38.667 -57.333 50 -84s20.666 -60.667 27.999 -102c3.33301 -20 6 -39.5 8 -58.5s3.66699 -37.167 5 -54.5c2 -35.333 3 -76.333 3 -123v-563h-209l-10 142
c-45.333 -48 -96 -88.667 -152 -122c-56.667 -33.333 -114.334 -50 -173.001 -50c-105.333 0 -188 33.333 -248 100s-90 152.667 -90 258zM160.003 1223c0 45.333 3.33398 84.334 10.001 117.001c7.33301 34.667 18.666 66 33.999 94c16 28.667 39 51 69 67
s66.333 24 109 24c48.667 0 110.667 -19.667 186 -59c34.667 -19.333 59.667 -32.333 75 -39c24 -10.667 44 -16 60 -16c20.667 0 36 10 46 30c9.33301 19.333 15.666 49.666 18.999 90.999h155c0 -34.667 -2 -66 -6 -94c-4 -27.333 -11 -54.666 -21 -81.999
c-10 -26.667 -23 -49 -39 -67c-16.667 -18.667 -37.667 -33.334 -63 -44.001s-55.666 -16 -90.999 -16c-56.667 0 -120.667 20.667 -192 62c-40.667 23.333 -64 36.333 -70 39c-22 10.667 -42 16 -60 16c-24 0 -41 -9 -51 -27s-19 -50 -27 -96l-141 1zM316.004 327.002
c0 -47.333 12.334 -83.3311 37.001 -107.998s60.667 -37 108 -37c45.333 0 90.333 15.333 135 46s79.667 67.667 105 111v177h-49c-6 0 -13.5 -0.166992 -22.5 -0.5s-19.167 -0.833008 -30.5 -1.5s-21.833 -1.33398 -31.5 -2.00098s-18.167 -1.66699 -25.5 -3
c-16 -2 -34.667 -5 -56 -9c-22 -4 -40 -9 -54 -15s-29 -14 -45 -24c-16.667 -10.667 -29.334 -21.667 -38.001 -33c-9.33301 -12.667 -17 -27.334 -23 -44.001c-6 -17.333 -9 -36.333 -9 -57h-1z" />
    <glyph glyph-name="adieresis" unicode="&#xe4;" horiz-adv-x="1047" 
d="M71 330c0 37.333 4.66992 72.001 14.0029 104.001c8.66699 30.667 20.667 57.667 36 81s35.333 44 60 62s48.667 33 72 45c22 11.333 50.333 21.666 85 30.999c17.333 4.66699 33.333 8.5 48 11.5s28.667 5.5 42 7.5s27.833 3.83301 43.5 5.5s33.167 3.16699 52.5 4.5
c37.333 2.66699 68 4.66699 92 6c11.333 0.666992 24.5 1 39.5 1h49.5c0 74.667 -11.667 126.667 -35 156s-69.333 44 -138 44c-48 0 -92.667 -7.33301 -134 -22c-42.667 -15.333 -89.334 -40.333 -140.001 -75l-123 172c102.667 97.333 231.667 146 387 146
c56 0 105 -5.33301 147 -16c43.333 -11.333 80 -25.333 110 -42c30 -17.333 55.667 -40 77 -68c22 -29.333 38.667 -57.333 50 -84s20.666 -60.667 27.999 -102c3.33301 -20 6 -39.5 8 -58.5s3.66699 -37.167 5 -54.5c2 -35.333 3 -76.333 3 -123v-563h-209l-10 142
c-45.333 -48 -96 -88.667 -152 -122c-56.667 -33.333 -114.334 -50 -173.001 -50c-105.333 0 -188 33.333 -248 100s-90 152.667 -90 258zM177.003 1392c0 36 13 67 39 93s57.333 39 94 39s68 -13 94 -39s39 -57.333 39 -94s-13 -68 -39 -94s-57.333 -39 -94 -39
s-68 13 -94 39s-39 57.333 -39 94v1zM318.003 329.001c0 -47.333 12.334 -83.3311 37.001 -107.998s60.667 -37 108 -37c45.333 0 90.333 15.333 135 46s79.667 67.667 105 111v177h-49c-6 0 -13.5 -0.166992 -22.5 -0.5s-19.167 -0.833008 -30.5 -1.5
s-21.833 -1.33398 -31.5 -2.00098s-18.167 -1.66699 -25.5 -3c-16 -2 -34.667 -5 -56 -9c-22 -4 -40 -9 -54 -15s-29 -14 -45 -24c-16.667 -10.667 -29.334 -21.667 -38.001 -33c-9.33301 -12.667 -17 -27.334 -23 -44.001c-6 -17.333 -9 -36.333 -9 -57h-1zM618.004 1393
c0 36 13 67 39 93s57.333 39 94 39s68 -13 94 -39s39 -57.333 39 -94s-13 -68 -39 -94s-57.333 -39 -94 -39s-68 13 -94 39s-39 57.333 -39 94v1z" />
    <glyph glyph-name="aring" unicode="&#xe5;" horiz-adv-x="1047" 
d="M71 330c0 37.333 4.66992 72.001 14.0029 104.001c8.66699 30.667 20.667 57.667 36 81s35.333 44 60 62s48.667 33 72 45c22 11.333 50.333 21.666 85 30.999c17.333 4.66699 33.333 8.5 48 11.5s28.667 5.5 42 7.5s27.833 3.83301 43.5 5.5s33.167 3.16699 52.5 4.5
c37.333 2.66699 68 4.66699 92 6c11.333 0.666992 24.5 1 39.5 1h49.5c0 74.667 -11.667 126.667 -35 156s-69.333 44 -138 44c-48 0 -92.667 -7.33301 -134 -22c-42.667 -15.333 -89.334 -40.333 -140.001 -75l-123 172c102.667 97.333 231.667 146 387 146
c56 0 105 -5.33301 147 -16c43.333 -11.333 80 -25.333 110 -42c30 -17.333 55.667 -40 77 -68c22 -29.333 38.667 -57.333 50 -84s20.666 -60.667 27.999 -102c3.33301 -20 6 -39.5 8 -58.5s3.66699 -37.167 5 -54.5c2 -35.333 3 -76.333 3 -123v-563h-209l-10 142
c-45.333 -48 -96 -88.667 -152 -122c-56.667 -33.333 -114.334 -50 -173.001 -50c-105.333 0 -188 33.333 -248 100s-90 152.667 -90 258zM312.003 1464c0 62.667 22.666 116.666 67.999 161.999s99.333 68 162 68c64.667 0 119.334 -22.333 164.001 -67
c45.333 -45.333 68 -99.333 68 -162c0 -65.333 -22.333 -120.333 -67 -165s-99.667 -67 -165 -67c-62.667 0 -116.667 22.667 -162 68c-44.667 44.667 -67 99.334 -67 164.001zM317.002 327c0 -47.333 12.334 -83.3311 37.001 -107.998s60.667 -37 108 -37
c45.333 0 90.333 15.333 135 46s79.667 67.667 105 111v177h-49c-6 0 -13.5 -0.166992 -22.5 -0.5s-19.167 -0.833008 -30.5 -1.5s-21.833 -1.33398 -31.5 -2.00098s-18.167 -1.66699 -25.5 -3c-16 -2 -34.667 -5 -56 -9c-22 -4 -40 -9 -54 -15s-29 -14 -45 -24
c-16.667 -10.667 -29.334 -21.667 -38.001 -33c-9.33301 -12.667 -17 -27.334 -23 -44.001c-6 -17.333 -9 -36.333 -9 -57h-1zM438.003 1464c0 -29.333 10 -54.333 30 -75s44.667 -31 74 -31s54 10.333 74 31s30 45.667 30 75c0 27.333 -10.333 51.333 -31 72
c-21.333 21.333 -45.333 32 -72 32c-29.333 0 -54 -10 -74 -30s-30 -44.667 -30 -74h-1z" />
    <glyph glyph-name="ae" unicode="&#xe6;" horiz-adv-x="1748" 
d="M69 333c0 162.667 92.667 265.665 278 308.998c77.333 18.667 193 28.334 347 29.001h1h1h1h1h1h2h1h1c0 81.333 -11.333 137.333 -34 168c-23.333 31.333 -69.333 47 -138 47c-48 0 -92.667 -7.33301 -134 -22c-42.667 -15.333 -89 -39.666 -139 -72.999l-123 173
c100.667 96 229.667 144 387 144c148.667 0 258.667 -49.667 330 -149h6c91.333 101.333 208.333 152 351 152c66 0 125.667 -11 179 -33c52.667 -22 96 -51 130 -87c33.333 -35.333 61.666 -77.666 84.999 -126.999c22.667 -49.333 38.667 -99.333 48 -150
c4.66699 -25.333 8.16699 -51 10.5 -77s3.5 -52.667 3.5 -80c0 -25.333 -2 -49.333 -6 -72h-714c2.66699 -93.333 25.667 -165.333 69 -216c42.667 -50.667 102 -76 178 -76c58.667 0 110.334 11.333 155.001 34c45.333 23.333 87.333 65.666 126 126.999l184 -122
c-56.667 -96.667 -120.667 -164 -192 -202s-165.333 -57 -282 -57c-168 0 -294.333 67 -379 201h-6c-62.667 -78.667 -125 -132 -187 -160s-129.333 -42 -202 -42c-105.333 0 -188 33.333 -248 100s-90 152.667 -90 258zM320 336.998c0 -47.333 11.999 -83.333 35.999 -108
s60 -37 108 -37c44.667 0 89.667 15 135 45c44.667 30 79.667 66.667 105 110v157h-22h-64c-16 0 -38.333 -1 -67 -3s-52 -5 -70 -9c-17.333 -4 -37.666 -10 -60.999 -18s-41.333 -18 -54 -30c-13.333 -12 -24.333 -27.333 -33 -46c-9.33301 -20 -14 -41 -14 -63z
M1417 663.998c-6.66699 70.667 -28.333 126.667 -65 168c-36 41.333 -87.333 62 -154 62c-64 0 -117.333 -22 -160 -66c-43.333 -44 -70.333 -99.333 -81 -166z" />
    <glyph glyph-name="ccedilla" unicode="&#xe7;" horiz-adv-x="1062" 
d="M74 535c0 76 9.66309 147.996 28.9961 215.996c19.333 67.333 48.333 128 87 182c39.333 54.667 92.333 97.334 159 128.001c68 31.333 145 47 231 47c84.667 0 161.667 -20 231 -60c68 -39.333 125.333 -98 172 -176l-196 -133c-58 92 -130 138 -216 138
c-41.333 0 -78 -10 -110 -30s-57 -47 -75 -81c-17.333 -33.333 -30.666 -69.666 -39.999 -108.999c-8.66699 -37.333 -13 -77.333 -13 -120c0 -40.667 5 -80 15 -118c10 -38.667 24.333 -74 43 -106c18.667 -32.667 44 -59 76 -79s68 -30 108 -30
c46.667 0 87.667 11.667 123 35c34.667 22.667 68.667 60.667 102 114l197 -133c-85.333 -148.667 -205.666 -230.334 -360.999 -245.001l-44 -91c34 4 65.667 2.66699 95 -4c30.667 -7.33301 57.334 -22.666 80.001 -45.999c23.333 -24.667 35 -55.667 35 -93
s-7.33301 -69.666 -22 -96.999c-15.333 -28.667 -34.666 -50.667 -57.999 -66c-24 -16 -49.333 -28 -76 -36c-27.333 -8 -54.333 -12 -81 -12c-70.667 0 -141.334 23 -212.001 69l46 125c76.667 -37.333 132 -56 166 -56c24 0 44 5 60 15s24 26 24 48
c0 27.333 -21 41 -63 41h-92l-56 55l71 150c-72.667 8.66699 -137 29.667 -193 63c-56 32.667 -101 74.667 -135 126c-33.333 50 -58.666 106.667 -75.999 170c-16.667 60.667 -25 127.334 -25 200.001z" />
    <glyph glyph-name="egrave" unicode="&#xe8;" horiz-adv-x="1119" 
d="M79 516c0 116.667 18.335 218.668 55.002 306.001c36.667 88 93.667 158 171 210c76.667 52 169.667 78 279 78c65.333 0 124.666 -11 177.999 -33c52.667 -22 96 -51 130 -87c33.333 -34.667 61.666 -77.334 84.999 -128.001c22.667 -49.333 38.667 -99.333 48 -150
c4.66699 -25.333 8.16699 -51 10.5 -77s3.5 -52.667 3.5 -80v-15c0 -2.66699 -0.166992 -6.16699 -0.5 -10.5s-0.833008 -9.83301 -1.5 -16.5c-1.33301 -13.333 -2.33301 -27.333 -3 -42h-704c3.33301 -87.333 24.666 -156.333 63.999 -207c40 -51.333 97.333 -77 172 -77
c57.333 0 108.333 11.333 153 34c45.333 23.333 87.333 65.666 126 126.999l184 -122c-57.333 -96 -121.333 -163 -192 -201c-71.333 -38 -165 -57 -281 -57c-66 0 -126 11 -180 33s-99 51 -135 87c-35.333 35.333 -65.666 77.333 -90.999 126
c-25.333 48 -43.333 97 -54 147c-10.667 48.667 -16 99.334 -16 152.001zM476.002 1567l242 -345h-198l-340 345h296zM339.002 646.001h451c-6.66699 72.667 -28.667 131 -66 175s-88.666 66 -153.999 66c-62 0 -113 -23 -153 -69
c-40.667 -46.667 -66.334 -104 -77.001 -172h-1z" />
    <glyph glyph-name="eacute" unicode="&#xe9;" horiz-adv-x="1119" 
d="M79 516c0 116.667 18.335 218.668 55.002 306.001c36.667 88 93.667 158 171 210c76.667 52 169.667 78 279 78c65.333 0 124.666 -11 177.999 -33c52.667 -22 96 -51 130 -87c33.333 -34.667 61.666 -77.334 84.999 -128.001c22.667 -49.333 38.667 -99.333 48 -150
c4.66699 -25.333 8.16699 -51 10.5 -77s3.5 -52.667 3.5 -80v-15c0 -2.66699 -0.166992 -6.16699 -0.5 -10.5s-0.833008 -9.83301 -1.5 -16.5c-1.33301 -13.333 -2.33301 -27.333 -3 -42h-704c3.33301 -87.333 24.666 -156.333 63.999 -207c40 -51.333 97.333 -77 172 -77
c57.333 0 108.333 11.333 153 34c45.333 23.333 87.333 65.666 126 126.999l184 -122c-57.333 -96 -121.333 -163 -192 -201c-71.333 -38 -165 -57 -281 -57c-66 0 -126 11 -180 33s-99 51 -135 87c-35.333 35.333 -65.666 77.333 -90.999 126
c-25.333 48 -43.333 97 -54 147c-10.667 48.667 -16 99.334 -16 152.001zM339.002 646.001h451c-6.66699 72.667 -28.667 131 -66 175s-88.666 66 -153.999 66c-62 0 -113 -23 -153 -69c-40.667 -46.667 -66.334 -104 -77.001 -172h-1zM679.002 1557h297l-341 -345h-197z
" />
    <glyph glyph-name="ecircumflex" unicode="&#xea;" horiz-adv-x="1119" 
d="M79 516c0 116.667 18.335 218.668 55.002 306.001c36.667 88 93.667 158 171 210c76.667 52 169.667 78 279 78c65.333 0 124.666 -11 177.999 -33c52.667 -22 96 -51 130 -87c33.333 -34.667 61.666 -77.334 84.999 -128.001c22.667 -49.333 38.667 -99.333 48 -150
c4.66699 -25.333 8.16699 -51 10.5 -77s3.5 -52.667 3.5 -80v-15c0 -2.66699 -0.166992 -6.16699 -0.5 -10.5s-0.833008 -9.83301 -1.5 -16.5c-1.33301 -13.333 -2.33301 -27.333 -3 -42h-704c3.33301 -87.333 24.666 -156.333 63.999 -207c40 -51.333 97.333 -77 172 -77
c57.333 0 108.333 11.333 153 34c45.333 23.333 87.333 65.666 126 126.999l184 -122c-57.333 -96 -121.333 -163 -192 -201c-71.333 -38 -165 -57 -281 -57c-66 0 -126 11 -180 33s-99 51 -135 87c-35.333 35.333 -65.666 77.333 -90.999 126
c-25.333 48 -43.333 97 -54 147c-10.667 48.667 -16 99.334 -16 152.001zM499.002 1609h161l309 -380h-200l-190 193l-190 -193h-199zM339.002 646.001h451c-6.66699 72.667 -28.667 131 -66 175s-88.666 66 -153.999 66c-62 0 -113 -23 -153 -69
c-40.667 -46.667 -66.334 -104 -77.001 -172h-1z" />
    <glyph glyph-name="edieresis" unicode="&#xeb;" horiz-adv-x="1119" 
d="M79 516c0 116.667 18.335 218.668 55.002 306.001c36.667 88 93.667 158 171 210c76.667 52 169.667 78 279 78c65.333 0 124.666 -11 177.999 -33c52.667 -22 96 -51 130 -87c33.333 -34.667 61.666 -77.334 84.999 -128.001c22.667 -49.333 38.667 -99.333 48 -150
c4.66699 -25.333 8.16699 -51 10.5 -77s3.5 -52.667 3.5 -80v-15c0 -2.66699 -0.166992 -6.16699 -0.5 -10.5s-0.833008 -9.83301 -1.5 -16.5c-1.33301 -13.333 -2.33301 -27.333 -3 -42h-704c3.33301 -87.333 24.666 -156.333 63.999 -207c40 -51.333 97.333 -77 172 -77
c57.333 0 108.333 11.333 153 34c45.333 23.333 87.333 65.666 126 126.999l184 -122c-57.333 -96 -121.333 -163 -192 -201c-71.333 -38 -165 -57 -281 -57c-66 0 -126 11 -180 33s-99 51 -135 87c-35.333 35.333 -65.666 77.333 -90.999 126
c-25.333 48 -43.333 97 -54 147c-10.667 48.667 -16 99.334 -16 152.001zM219.002 1392c0 36 13 67 39 93s57.333 39 94 39s68 -13 94 -39s39 -57.333 39 -94s-13 -68 -39 -94s-57.333 -39 -94 -39s-68 13 -94 39s-39 57.333 -39 94v1zM339.002 647.001h451
c-6.66699 72.667 -28.667 131 -66 175s-88.666 66 -153.999 66c-62 0 -113 -23 -153 -69c-40.667 -46.667 -66.334 -104 -77.001 -172h-1zM660.002 1393c0 36 13 67 39 93s57.333 39 94 39s68 -13 94 -39s39 -57.333 39 -94s-13 -68 -39 -94s-57.333 -39 -94 -39
s-68 13 -94 39s-39 57.333 -39 94v1z" />
    <glyph glyph-name="igrave" unicode="&#xec;" horiz-adv-x="554" 
d="M136 1570l242 -345h-198l-340 345h296zM55 1092h361v-1092h-249v888h-112v204z" />
    <glyph glyph-name="iacute" unicode="&#xed;" horiz-adv-x="554" 
d="M55 1092h361v-1092h-249v888h-112v204zM395 1580h296l-340 -345h-198z" />
    <glyph glyph-name="icircumflex" unicode="&#xee;" horiz-adv-x="553" 
d="M173 1592h160l310 -380h-201l-189 193l-189 -193h-201zM55 1092h361v-1092h-249v888h-112v204z" />
    <glyph glyph-name="idieresis" unicode="&#xef;" horiz-adv-x="554" 
d="M-100 1395c0 36 13 67 39 93s57.333 39 94 39s68 -13 94 -39s39 -57.333 39 -94s-13 -68 -39 -94s-57.333 -39 -94 -39s-68 13 -94 39s-39 57.333 -39 94v1zM55 1093h361v-1092h-249v888h-112v204zM320 1396c0 36 13 67 39 93s57.333 39 94 39s68 -13 94 -39
s39 -57.333 39 -94s-13 -68 -39 -94s-57.333 -39 -94 -39s-68 13 -94 39s-39 57.333 -39 94v1z" />
    <glyph glyph-name="eth" unicode="&#xf0;" horiz-adv-x="1159" 
d="M78 492c0 86.667 16.998 168.667 50.998 246c34 76.667 84.667 140.667 152 192c66.667 50.667 142.667 76 228 76c36 0 78 -7 126 -21c49.333 -14.667 97 -36 143 -64c2.66699 1.33301 4.33398 2.33301 5.00098 3c-25.333 50 -60.333 102.667 -105 158
c-22.667 28 -43 52 -61 72s-34 35.667 -48 47l-347 -170l-72 138l289 141c-71.333 46.667 -137.333 77.667 -198 93l23 181c10 -3.33301 19.833 -6.5 29.5 -9.5s19.167 -6.16699 28.5 -9.5c20 -7.33301 39.333 -15.666 58 -24.999l48 -24c12 -6 29 -16 51 -30l44 -28
c6.66699 -5.33301 22.667 -16.333 48 -33c12.667 -8.66699 22.667 -15.5 30 -20.5s12 -8.16699 14 -9.5l235 116l73 -142l-179 -82c102.667 -94.667 183.667 -208.334 243 -341.001s89 -264.667 89 -396c0 -77.333 -11 -150.333 -33 -219c-22 -70 -53.333 -131 -94 -183
c-41.333 -53.333 -93.666 -95.333 -156.999 -126s-134.333 -46 -213 -46c-146.667 0 -266.667 48.667 -360 146s-140 220.333 -140 369zM328.998 494c0 -14.667 0.666992 -29.001 2 -43.001s3.33301 -28 6 -42c4.66699 -28 13.667 -55 27 -81
c13.333 -26.667 29.333 -49.334 48 -68.001c20 -20 43.333 -35.667 70 -47c28 -12 59.333 -18 94 -18c43.333 0 81.666 9 114.999 27s59 42.667 77 74c18 30.667 31 64.334 39 101.001c8 36 12 74.333 12 115c0 36 -5.33301 74 -16 114
c-11.333 41.333 -22.666 68.333 -33.999 81c-30 32.667 -60 54.667 -90 66c-30.667 11.333 -65 17 -103 17c-45.333 0 -84.333 -8 -117 -24c-34 -16.667 -59.667 -39 -77 -67c-18 -29.333 -31 -60.666 -39 -93.999c-8 -34 -12 -71.333 -12 -112z" />
    <glyph glyph-name="ntilde" unicode="&#xf1;" horiz-adv-x="1167" 
d="M134 0l0.00195312 1092h234l8 -153c44.667 54.667 90.667 95.667 138 123c46.667 26.667 99.667 42 159 46c56 4 105 -1.33301 147 -16c43.333 -15.333 78.333 -36.666 105 -63.999s49 -61.666 67 -102.999c17.333 -40 29.666 -82.333 36.999 -127
c3.33301 -22 5.83301 -45 7.5 -69s2.5 -48.667 2.5 -74v-657h-253v658c0 144 -56.667 216 -170 216c-48.667 0 -92.334 -18.333 -131.001 -55c-39.333 -37.333 -73 -83.333 -101 -138l1 -682zM211.002 1244c0 45.333 3.32812 84.335 9.99512 117.002
c6.66699 33.333 17.667 64.666 33 93.999c14.667 28 37.334 50.333 68.001 67c30 16 66.333 24 109 24c46.667 0 108.334 -19.667 185.001 -59c18.667 -10 34.167 -18.167 46.5 -24.5s21.833 -10.833 28.5 -13.5c24 -10.667 44 -16 60 -16c21.333 0 37 9.66699 47 29
c10.667 20 17.334 50 20.001 90h153c0 -34.667 -2 -66 -6 -94c-4 -27.333 -11 -54.666 -21 -81.999c-10 -26.667 -23 -49 -39 -67c-16.667 -18.667 -37.667 -33.334 -63 -44.001s-55.666 -16 -90.999 -16c-56.667 0 -120.667 20.667 -192 62
c-3.33301 1.33301 -6.83301 3.16602 -10.5 5.49902s-8.16699 5.16602 -13.5 8.49902c-10 6 -19 11 -27 15c-4 2 -7.83301 4 -11.5 6s-7.16699 3.66699 -10.5 5c-22 10.667 -41.667 16 -59 16c-24 0 -41 -9 -51 -27c-9.33301 -17.333 -18.666 -49.666 -27.999 -96.999l-139 1
h2z" />
    <glyph glyph-name="ograve" unicode="&#xf2;" horiz-adv-x="1155" 
d="M78 542c0 48.667 4.99609 97.9961 14.9961 147.996c5.33301 25.333 12.333 50.5 21 75.5s19.334 50.167 32.001 75.5c24.667 50.667 55.667 95.667 93 135c36.667 38.667 84.334 70.667 143.001 96s123 38 193 38c74 0 139.667 -12.333 197 -37
c58 -25.333 105 -57.333 141 -96c36 -39.333 66 -84.333 90 -135c24 -51.333 41 -101.333 51 -150c10 -49.333 15 -98.333 15 -147c0 -27.333 -1.5 -54.166 -4.5 -80.499s-7.16699 -52.833 -12.5 -79.5c-11.333 -53.333 -29.666 -104.666 -54.999 -153.999
c-26.667 -50.667 -58 -94.667 -94 -132s-82.667 -67.666 -140 -90.999c-55.333 -22.667 -117.333 -34 -186 -34c-68 0 -131 11.667 -189 35c-56.667 22.667 -103.667 53.334 -141 92.001c-36 37.333 -67.333 81.333 -94 132c-25.333 48.667 -43.666 99.667 -54.999 153
s-17 106 -17 158zM485.996 1568l241 -345h-197l-340 345h296zM331.996 542.996c0 -94.667 23.001 -176.333 69.001 -245c46 -69.333 104 -104 174 -104c73.333 0 132 34 176 102s66 150 66 246c0 102 -20.333 184.667 -61 248c-41.333 64 -101.333 96 -180 96
c-52 0 -97 -17 -135 -51c-38.667 -34.667 -66.334 -77 -83.001 -127c-17.333 -52 -26 -107 -26 -165z" />
    <glyph glyph-name="oacute" unicode="&#xf3;" horiz-adv-x="1155" 
d="M78 542c0 48.667 4.99609 97.9961 14.9961 147.996c5.33301 25.333 12.333 50.5 21 75.5s19.334 50.167 32.001 75.5c24.667 50.667 55.667 95.667 93 135c36.667 38.667 84.334 70.667 143.001 96s123 38 193 38c74 0 139.667 -12.333 197 -37
c58 -25.333 105 -57.333 141 -96c36 -39.333 66 -84.333 90 -135c24 -51.333 41 -101.333 51 -150c10 -49.333 15 -98.333 15 -147c0 -27.333 -1.5 -54.166 -4.5 -80.499s-7.16699 -52.833 -12.5 -79.5c-11.333 -53.333 -29.666 -104.666 -54.999 -153.999
c-26.667 -50.667 -58 -94.667 -94 -132s-82.667 -67.666 -140 -90.999c-55.333 -22.667 -117.333 -34 -186 -34c-68 0 -131 11.667 -189 35c-56.667 22.667 -103.667 53.334 -141 92.001c-36 37.333 -67.333 81.333 -94 132c-25.333 48.667 -43.666 99.667 -54.999 153
s-17 106 -17 158zM331.996 542.996c0 -94.667 23.001 -176.333 69.001 -245c46 -69.333 104 -104 174 -104c73.333 0 132 34 176 102s66 150 66 246c0 102 -20.333 184.667 -61 248c-41.333 64 -101.333 96 -180 96c-52 0 -97 -17 -135 -51
c-38.667 -34.667 -66.334 -77 -83.001 -127c-17.333 -52 -26 -107 -26 -165zM667.997 1568h295l-339 -345h-198z" />
    <glyph glyph-name="ocircumflex" unicode="&#xf4;" horiz-adv-x="1155" 
d="M78 542c0 48.667 4.99609 97.9961 14.9961 147.996c5.33301 25.333 12.333 50.5 21 75.5s19.334 50.167 32.001 75.5c24.667 50.667 55.667 95.667 93 135c36.667 38.667 84.334 70.667 143.001 96s123 38 193 38c74 0 139.667 -12.333 197 -37
c58 -25.333 105 -57.333 141 -96c36 -39.333 66 -84.333 90 -135c24 -51.333 41 -101.333 51 -150c10 -49.333 15 -98.333 15 -147c0 -27.333 -1.5 -54.166 -4.5 -80.499s-7.16699 -52.833 -12.5 -79.5c-11.333 -53.333 -29.666 -104.666 -54.999 -153.999
c-26.667 -50.667 -58 -94.667 -94 -132s-82.667 -67.666 -140 -90.999c-55.333 -22.667 -117.333 -34 -186 -34c-68 0 -131 11.667 -189 35c-56.667 22.667 -103.667 53.334 -141 92.001c-36 37.333 -67.333 81.333 -94 132c-25.333 48.667 -43.666 99.667 -54.999 153
s-17 106 -17 158zM495.996 1590h160l310 -380h-201l-190 193l-189 -193h-200zM331.996 542.996c0 -94.667 23.001 -176.333 69.001 -245c46 -69.333 104 -104 174 -104c73.333 0 132 34 176 102s66 150 66 246c0 102 -20.333 184.667 -61 248
c-41.333 64 -101.333 96 -180 96c-52 0 -97 -17 -135 -51c-38.667 -34.667 -66.334 -77 -83.001 -127c-17.333 -52 -26 -107 -26 -165z" />
    <glyph glyph-name="otilde" unicode="&#xf5;" horiz-adv-x="1155" 
d="M78 542c0 48.667 4.99609 97.9961 14.9961 147.996c5.33301 25.333 12.333 50.5 21 75.5s19.334 50.167 32.001 75.5c24.667 50.667 55.667 95.667 93 135c36.667 38.667 84.334 70.667 143.001 96s123 38 193 38c74 0 139.667 -12.333 197 -37
c58 -25.333 105 -57.333 141 -96c36 -39.333 66 -84.333 90 -135c24 -51.333 41 -101.333 51 -150c10 -49.333 15 -98.333 15 -147c0 -27.333 -1.5 -54.166 -4.5 -80.499s-7.16699 -52.833 -12.5 -79.5c-11.333 -53.333 -29.666 -104.666 -54.999 -153.999
c-26.667 -50.667 -58 -94.667 -94 -132s-82.667 -67.666 -140 -90.999c-55.333 -22.667 -117.333 -34 -186 -34c-68 0 -131 11.667 -189 35c-56.667 22.667 -103.667 53.334 -141 92.001c-36 37.333 -67.333 81.333 -94 132c-25.333 48.667 -43.666 99.667 -54.999 153
s-17 106 -17 158zM207.996 1239c0 34.667 2.00293 66.0039 6.00293 94.0039s11 55 21 81s23 48 39 66c15.333 17.333 36.333 31.666 63 42.999c25.333 10.667 55.666 16 90.999 16c47.333 0 108.666 -19.667 183.999 -59c17.333 -9.33301 32.333 -17.333 45 -24
s23 -11.667 31 -15c24 -10.667 44 -16 60 -16c20.667 0 36 10 46 30c9.33301 19.333 15.666 49.666 18.999 90.999h153c0 -44 -3 -83 -9 -117c-6 -32.667 -16.667 -64.667 -32 -96c-15.333 -30 -37.666 -53 -66.999 -69c-30 -16 -66.333 -24 -109 -24
c-57.333 0 -121.333 20.667 -192 62c-3.33301 1.33301 -6.83301 3.16602 -10.5 5.49902s-8.16699 5.16602 -13.5 8.49902c-10 6 -19 11 -27 15c-4 2 -7.83301 4 -11.5 6s-7.16699 3.66699 -10.5 5c-22 10.667 -42 16 -60 16c-24.667 0 -41.334 -9 -50.001 -27
c-9.33301 -18 -18.333 -50.333 -27 -97l-140 1zM332.999 547c0 -94.667 23.001 -176.333 69.001 -245c46 -69.333 104 -104 174 -104c73.333 0 132 34 176 102s66 150 66 246c0 102 -20.333 184.667 -61 248c-41.333 64 -101.333 96 -180 96c-52 0 -97 -17 -135 -51
c-38.667 -34.667 -66.334 -77 -83.001 -127c-17.333 -52 -26 -107 -26 -165z" />
    <glyph glyph-name="odieresis" unicode="&#xf6;" horiz-adv-x="1155" 
d="M78 542c0 48.667 4.99609 97.9961 14.9961 147.996c5.33301 25.333 12.333 50.5 21 75.5s19.334 50.167 32.001 75.5c24.667 50.667 55.667 95.667 93 135c36.667 38.667 84.334 70.667 143.001 96s123 38 193 38c74 0 139.667 -12.333 197 -37
c58 -25.333 105 -57.333 141 -96c36 -39.333 66 -84.333 90 -135c24 -51.333 41 -101.333 51 -150c10 -49.333 15 -98.333 15 -147c0 -27.333 -1.5 -54.166 -4.5 -80.499s-7.16699 -52.833 -12.5 -79.5c-11.333 -53.333 -29.666 -104.666 -54.999 -153.999
c-26.667 -50.667 -58 -94.667 -94 -132s-82.667 -67.666 -140 -90.999c-55.333 -22.667 -117.333 -34 -186 -34c-68 0 -131 11.667 -189 35c-56.667 22.667 -103.667 53.334 -141 92.001c-36 37.333 -67.333 81.333 -94 132c-25.333 48.667 -43.666 99.667 -54.999 153
s-17 106 -17 158zM224.996 1393c0 36 13 67 39 93s57.333 39 94 39s68 -13 94 -39s39 -57.333 39 -94s-13 -68 -39 -94s-57.333 -39 -94 -39s-68 13 -94 39s-39 57.333 -39 94v1zM331.996 543.996c0 -94.667 23.001 -176.333 69.001 -245c46 -69.333 104 -104 174 -104
c73.333 0 132 34 176 102s66 150 66 246c0 102 -20.333 184.667 -61 248c-41.333 64 -101.333 96 -180 96c-52 0 -97 -17 -135 -51c-38.667 -34.667 -66.334 -77 -83.001 -127c-17.333 -52 -26 -107 -26 -165zM664.997 1394c0 36 13 67 39 93s57.333 39 94 39s68 -13 94 -39
s39 -57.333 39 -94s-13 -68 -39 -94s-57.333 -39 -94 -39s-68 13 -94 39s-39 57.333 -39 94v1z" />
    <glyph glyph-name="divide" unicode="&#xf7;" horiz-adv-x="1332" 
d="M149 807h1034v-215h-1034v215zM511 275c0 42.667 15 79.667 45 111c30 30.667 66.667 46 110 46c42 0 78 -15.333 108 -46c30 -31.333 45 -68.333 45 -111s-15 -79 -45 -109s-66 -45 -108 -45c-43.333 0 -80 15 -110 45s-45 66.667 -45 110v-1zM511 1121
c0 42.667 15 79.667 45 111c30 30.667 66.667 46 110 46c42 0 78 -15.333 108 -46c30 -31.333 45 -68.333 45 -111s-15 -79 -45 -109s-66 -45 -108 -45c-43.333 0 -80 15 -110 45s-45 66.333 -45 109z" />
    <glyph glyph-name="oslash" unicode="&#xf8;" horiz-adv-x="1141" 
d="M157 217c-54 96.667 -81 205.665 -81 326.998c0 48.667 5 98 15 148c5.33301 25.333 12.333 50.5 21 75.5s19.334 50.167 32.001 75.5c24.667 50.667 55.667 95.667 93 135s84.666 71.333 141.999 96c58.667 25.333 123 38 193 38c131.333 0 239.666 -40 324.999 -120
l140 146l121 -97l-167 -176c50.667 -94.667 76 -201.667 76 -321c0 -27.333 -1.5 -54.166 -4.5 -80.499s-7.16699 -52.833 -12.5 -79.5c-11.333 -53.333 -29.666 -104.666 -54.999 -153.999c-26.667 -51.333 -58 -95 -94 -131c-37.333 -37.333 -84.333 -67.333 -141 -90
c-56 -22.667 -118.333 -34 -187 -34c-127.333 0 -233.333 38.333 -318 115l-149 -157l-124 100zM330 545.998c0 -43.333 5.66797 -86.667 17.001 -130l385 403c-40 46.667 -93 70 -159 70c-51.333 0 -96 -17 -134 -51c-38.667 -34.667 -66.334 -77 -83.001 -127
c-17.333 -52 -26 -107 -26 -165zM426.001 268.997c42 -46 91 -69 147 -69c73.333 0 132 33.333 176 100s66 148 66 244c0 44 -4 85 -12 123l-378 -398h1z" />
    <glyph glyph-name="ugrave" unicode="&#xf9;" horiz-adv-x="1156" 
d="M119 1092l252.999 0.000976562v-671c0 -144 57 -216 171 -216c48 0 91.667 18 131 54c38.667 36 71.667 81.667 99 137l-1 695h254v-1092h-223l-19 140c-45.333 -56 -91.333 -97 -138 -123c-47.333 -26 -100.333 -41 -159 -45c-56 -4 -105 1.33301 -147 16
c-43.333 15.333 -78.333 36.666 -105 63.999s-49 61.333 -67 102c-17.333 38.667 -29.666 80.667 -36.999 126c-3.33301 22 -5.83301 45 -7.5 69s-2.5 48.667 -2.5 74zM475.999 1570l243 -345h-199l-339 345h295z" />
    <glyph glyph-name="uacute" unicode="&#xfa;" horiz-adv-x="1156" 
d="M119 1092l252.999 0.000976562v-671c0 -144 57 -216 171 -216c48 0 91.667 18 131 54c38.667 36 71.667 81.667 99 137l-1 695h254v-1092h-223l-19 140c-45.333 -56 -91.333 -97 -138 -123c-47.333 -26 -100.333 -41 -159 -45c-56 -4 -105 1.33301 -147 16
c-43.333 15.333 -78.333 36.666 -105 63.999s-49 61.333 -67 102c-17.333 38.667 -29.666 80.667 -36.999 126c-3.33301 22 -5.83301 45 -7.5 69s-2.5 48.667 -2.5 74zM678.999 1570h297l-341 -345h-197z" />
    <glyph glyph-name="ucircumflex" unicode="&#xfb;" horiz-adv-x="1156" 
d="M119 1092l252.999 0.000976562v-671c0 -144 57 -216 171 -216c48 0 91.667 18 131 54c38.667 36 71.667 81.667 99 137l-1 695h254v-1092h-223l-19 140c-45.333 -56 -91.333 -97 -138 -123c-47.333 -26 -100.333 -41 -159 -45c-56 -4 -105 1.33301 -147 16
c-43.333 15.333 -78.333 36.666 -105 63.999s-49 61.333 -67 102c-17.333 38.667 -29.666 80.667 -36.999 126c-3.33301 22 -5.83301 45 -7.5 69s-2.5 48.667 -2.5 74zM505.999 1592h160l310 -380h-201l-189 193l-189 -193h-201z" />
    <glyph glyph-name="udieresis" unicode="&#xfc;" horiz-adv-x="1156" 
d="M119 1092l252.999 0.000976562v-671c0 -144 57 -216 171 -216c48 0 91.667 18 131 54c38.667 36 71.667 81.667 99 137l-1 695h254v-1092h-223l-19 140c-45.333 -56 -91.333 -97 -138 -123c-47.333 -26 -100.333 -41 -159 -45c-56 -4 -105 1.33301 -147 16
c-43.333 15.333 -78.333 36.666 -105 63.999s-49 61.333 -67 102c-17.333 38.667 -29.666 80.667 -36.999 126c-3.33301 22 -5.83301 45 -7.5 69s-2.5 48.667 -2.5 74zM231.999 1395c0 36 13 67 39 93s57.333 39 94 39c37.333 0 69 -13 95 -39s39 -57.333 39 -94
s-13 -68 -39 -94s-57.333 -39 -94 -39s-68 13 -94 39s-39 57.333 -39 94zM670.999 1396c0 36 13 67 39 93s57.333 39 94 39c37.333 0 69 -13 95 -39s39 -57.333 39 -94s-13 -68 -39 -94s-57.333 -39 -94 -39s-68 13 -94 39s-39 57.333 -39 94z" />
    <glyph glyph-name="yacute" unicode="&#xfd;" horiz-adv-x="1059" 
d="M15 1092l277.001 0.000976562l168 -510c10 -29.333 33 -106.333 69 -231h9l69 225c5.33301 17.333 21.5 68.833 48.5 154.5s64.5 206.167 112.5 361.5h277l-444 -1269c-33.333 -96.667 -74.333 -164.334 -123 -203.001c-49.333 -39.333 -123 -59 -221 -59
c-39.333 0 -93.333 10 -162 30l32 203c4 -0.666992 9 -1.66699 15 -3s13 -3 21 -5c15.333 -4 30 -7 44 -9c12.667 -2 24.667 -3 36 -3c17.333 0 31.666 2 42.999 6c10.667 4 21 12 31 24c18 24 51.667 101.333 101 232zM638.001 1572h297l-341 -345h-198z" />
    <glyph glyph-name="thorn" unicode="&#xfe;" horiz-adv-x="1261" 
d="M135 1483l250.999 92.999v-625c40.667 46.667 88.667 84.667 144 114s112 44 170 44c62.667 0 119.667 -11 171 -33c50.667 -22 92.667 -51.667 126 -89s61 -81 83 -131c22.667 -51.333 38.334 -103 47.001 -155c4.66699 -26.667 8.16699 -53.667 10.5 -81
s3.5 -55.666 3.5 -84.999c0 -61.333 -5.33301 -118.333 -16 -171c-11.333 -54.667 -28.666 -106 -51.999 -154c-24 -49.333 -53.333 -91.333 -88 -126s-78.334 -62.667 -131.001 -84c-51.333 -20.667 -109.333 -31 -174 -31c-51.333 0 -102.333 13 -153 39s-98 62 -142 108
v-475l-251 -92zM381.999 389.999c25.333 -57.333 60.667 -102.333 106 -135c46.667 -33.333 99.334 -50 158.001 -50c50.667 0 94.667 18 132 54s64 78.667 80 128c16 48.667 24 100.334 24 155.001c0 42 -4.66699 82.667 -14 122c-9.33301 38 -23.333 73 -42 105
c-18.667 31.333 -44.667 56.666 -78 75.999c-32.667 18.667 -70.667 28 -114 28c-54.667 0 -103.334 -15 -146.001 -45c-43.333 -30 -77.333 -70 -102 -120v-318h-4z" />
    <glyph glyph-name="ydieresis" unicode="&#xff;" horiz-adv-x="1059" 
d="M15 1092l277.001 0.000976562l168 -510c10 -29.333 33 -106.333 69 -231h9l69 225c5.33301 17.333 21.5 68.833 48.5 154.5s64.5 206.167 112.5 361.5h277l-444 -1269c-33.333 -96.667 -74.333 -164.334 -123 -203.001c-49.333 -39.333 -123 -59 -221 -59
c-39.333 0 -93.333 10 -162 30l32 203c4 -0.666992 9 -1.66699 15 -3s13 -3 21 -5c15.333 -4 30 -7 44 -9c12.667 -2 24.667 -3 36 -3c17.333 0 31.666 2 42.999 6c10.667 4 21 12 31 24c18 24 51.667 101.333 101 232zM180.001 1397c0 36 13 67 39 93s57.333 39 94 39
s68 -13 94 -39s39 -57.333 39 -94s-13 -68 -39 -94s-57.333 -39 -94 -39s-68 13 -94 39s-39 57.333 -39 94v1zM620.001 1398c0 36 13 67 39 93s57.333 39 94 39s68 -13 94 -39s39 -57.333 39 -94s-13 -68 -39 -94s-57.333 -39 -94 -39s-68 13 -94 39s-39 57.333 -39 94v1z
" />
    <glyph glyph-name="OE" unicode="&#x152;" horiz-adv-x="2126" 
d="M104 760c0 72.667 7.66309 145.667 22.9961 219c14.667 72 38.667 141 72 207c32.667 66 72.667 124 120 174c46.667 50 103.667 90 171 120c66.667 30 140.334 45 221.001 45c64.667 0 128 -15 190 -45s112 -71 150 -123h6v149h979l-15 -251h-701v-369h590l-17 -244
h-573v-391h725l-15 -249h-973v143h-6c-98 -114 -211 -171 -339 -171c-63.333 0 -123.666 8.66699 -180.999 26c-55.333 16.667 -103.666 39.667 -144.999 69c-41.333 28.667 -78.333 63.667 -111 105c-32.667 40.667 -59.667 84.334 -81 131.001
c-10.667 23.333 -20.167 47.166 -28.5 71.499s-16.166 49.5 -23.499 75.5c-14 52 -24 103 -30 153s-9 100 -9 150zM383.996 754c0 -24 1.00098 -47.667 3.00098 -71s4.66699 -46.666 8 -69.999c7.33301 -46.667 19.333 -93.334 36 -140.001
c16.667 -47.333 37.667 -88.333 63 -123c25.333 -35.333 58 -64 98 -86s85.667 -33 137 -33c38 0 73.333 6.66699 106 20c32 12.667 59 29.667 81 51c20.667 20 40 45.667 58 77c8.66699 15.333 16.167 30.666 22.5 45.999s12.166 30.666 17.499 45.999
c10 30.667 18 64.334 24 101.001c6 36 10 68.667 12 98c2 28.667 3 58.334 3 89.001c0 54 -3 105 -9 153c-6 48.667 -17 95.334 -33 140.001c-16 45.333 -36 84 -60 116s-55 58 -93 78s-81 30 -129 30c-49.333 0 -94.333 -12 -135 -36c-41.333 -24 -74.333 -54.333 -99 -91
c-25.333 -37.333 -46.333 -79.333 -63 -126s-28.667 -92.334 -36 -137.001c-3.33301 -22 -5.83301 -43.667 -7.5 -65s-2.5 -42.333 -2.5 -63z" />
    <glyph glyph-name="oe" unicode="&#x153;" horiz-adv-x="1851" 
d="M79 541c0 48.667 4.99805 97.999 14.998 147.999c5.33301 25.333 12.333 50.5 21 75.5s19.334 50.167 32.001 75.5c24.667 50.667 55.667 95.667 93 135c36.667 38.667 84.334 70.667 143.001 96s123 38 193 38c144.667 0 263 -69.333 355 -208h9
c42.667 62 95.667 112 159 150c62.667 38 133.667 57 213 57c65.333 0 124.666 -11 177.999 -33c52.667 -22 96 -51 130 -87c33.333 -35.333 61.666 -77.666 84.999 -126.999c22.667 -49.333 38.667 -99.333 48 -150c4.66699 -25.333 8.16699 -51 10.5 -77
s3.5 -52.667 3.5 -80c0 -4 -0.5 -12.833 -1.5 -26.5s-2.16699 -32.167 -3.5 -55.5h-704c2 -87.333 23 -156 63 -206s97.667 -75 173 -75c58.667 0 110.334 11.333 155.001 34c45.333 23.333 87.333 65.666 126 126.999l184 -122c-56.667 -96.667 -120.667 -164 -192 -202
s-165.333 -57 -282 -57c-146 0 -263 64 -351 192h-7c-92 -126 -208.667 -189 -350 -189c-68 0 -131 11.667 -189 35c-56.667 22.667 -103.667 53.334 -141 92.001c-36 37.333 -67.333 81.333 -94 132c-25.333 48.667 -43.666 99.667 -54.999 153s-17 106 -17 158z
M332.998 540.999c0 -94 23.001 -175 69.001 -243s104 -102 174 -102c48.667 0 91.667 16 129 48c36.667 32 64.667 74 84 126c19.333 52.667 29 109.667 29 171c0 102 -20.333 184.667 -61 248c-41.333 64 -101.333 96 -180 96c-52 0 -97 -17 -135 -51
c-38.667 -34.667 -66.334 -77 -83.001 -127c-17.333 -52 -26 -107 -26 -165v-1zM1521 642.999c-6.66699 72.667 -28.667 131 -66 175s-88.666 66 -153.999 66c-62.667 0 -114 -23 -154 -69c-40.667 -46.667 -66.334 -104 -77.001 -172h451z" />
    <glyph glyph-name="Ydieresis" unicode="&#x178;" horiz-adv-x="1292" 
d="M323 1504c83.333 -162.667 147.833 -288.669 193.5 -378.002s73.167 -142.666 82.5 -159.999c6.66699 -12 16.667 -34.333 30 -67c7.33301 -17.333 12.833 -30.666 16.5 -39.999s6.16699 -15.333 7.5 -18l8 20c4 10 9.33301 23 16 39c12.667 32 21.667 53 27 63l281 541
h297l-502 -912v-592h-266v590l-504 914h313zM333 1784c0 32 11.667 60.333 35 85c22.667 24 50.667 36 84 36s62 -12 86 -36s36 -52.333 36 -85c0 -33.333 -12 -61.333 -36 -84c-24.667 -23.333 -53 -35 -85 -35c-32.667 0 -60.667 11.667 -84 35s-35 51.333 -35 84h-1z
M772 1784c0 32 11.667 60.333 35 85c22.667 24 50.667 36 84 36s62 -12 86 -36s36 -52.333 36 -85c0 -33.333 -12 -61.333 -36 -84c-24.667 -23.333 -53 -35 -85 -35c-32.667 0 -60.667 11.667 -84 35s-35 51.333 -35 84h-1z" />
    <glyph glyph-name="circumflex" unicode="&#x2c6;" horiz-adv-x="937" 
d="M388 1592h160l310 -380h-201l-189 193l-189 -193h-201z" />
    <glyph glyph-name="tilde" unicode="&#x2dc;" horiz-adv-x="855" 
d="M47 1229c0 45.333 3.33008 84.335 9.99707 117.002c7.33301 34.667 18.666 66 33.999 94c16 28.667 39 51 69 67s66.333 24 109 24c46.667 0 108.334 -19.667 185.001 -59c18.667 -10 34.167 -18.167 46.5 -24.5s21.833 -10.833 28.5 -13.5c24 -10.667 44 -16 60 -16
c20.667 0 36 9.66699 46 29c10.667 20 17.334 50 20.001 90h154c0 -45.333 -3.33301 -84.333 -10 -117c-7.33301 -34 -18.333 -66 -33 -96c-15.333 -30 -37.666 -53 -66.999 -69c-30 -16 -66.333 -24 -109 -24c-56.667 0 -120.667 20.667 -192 62
c-3.33301 1.33301 -6.83301 3.16602 -10.5 5.49902s-8.16699 5.16602 -13.5 8.49902c-10 6 -19 11 -27 15c-4 2 -7.83301 4 -11.5 6s-7.16699 3.66699 -10.5 5c-22 10.667 -41.667 16 -59 16c-24.667 0 -42 -9 -52 -27c-9.33301 -17.333 -17.666 -49.333 -24.999 -96l-141 1
z" />
    <glyph glyph-name="uni2000" unicode="&#x2000;" horiz-adv-x="1006" 
 />
    <glyph glyph-name="uni2001" unicode="&#x2001;" horiz-adv-x="2012" 
 />
    <glyph glyph-name="uni2002" unicode="&#x2002;" horiz-adv-x="1006" 
 />
    <glyph glyph-name="uni2003" unicode="&#x2003;" horiz-adv-x="2012" 
 />
    <glyph glyph-name="uni2004" unicode="&#x2004;" horiz-adv-x="670" 
 />
    <glyph glyph-name="uni2005" unicode="&#x2005;" horiz-adv-x="503" 
 />
    <glyph glyph-name="uni2006" unicode="&#x2006;" horiz-adv-x="335" 
 />
    <glyph glyph-name="uni2007" unicode="&#x2007;" horiz-adv-x="335" 
 />
    <glyph glyph-name="uni2008" unicode="&#x2008;" horiz-adv-x="251" 
 />
    <glyph glyph-name="uni2009" unicode="&#x2009;" horiz-adv-x="402" 
 />
    <glyph glyph-name="uni200A" unicode="&#x200a;" horiz-adv-x="111" 
 />
    <glyph glyph-name="uni2010" unicode="&#x2010;" horiz-adv-x="737" 
d="M93 838h551v-225h-551v225z" />
    <glyph glyph-name="uni2011" unicode="&#x2011;" horiz-adv-x="737" 
d="M93 838h551v-225h-551v225z" />
    <glyph glyph-name="figuredash" unicode="&#x2012;" horiz-adv-x="737" 
d="M93 838h551v-225h-551v225z" />
    <glyph glyph-name="endash" unicode="&#x2013;" horiz-adv-x="1138" 
d="M93 838h944v-225h-944v225z" />
    <glyph glyph-name="emdash" unicode="&#x2014;" horiz-adv-x="1973" 
d="M93 838h1786v-225h-1786v225z" />
    <glyph glyph-name="quoteleft" unicode="&#x2018;" horiz-adv-x="532" 
d="M234 1505h159l-18 -613h-264z" />
    <glyph glyph-name="quoteright" unicode="&#x2019;" horiz-adv-x="532" 
d="M156 1505h265l-124 -613h-158z" />
    <glyph glyph-name="quotesinglbase" unicode="&#x201a;" horiz-adv-x="518" 
d="M161 245h246l-131 -593h-137z" />
    <glyph glyph-name="quotedblleft" unicode="&#x201c;" horiz-adv-x="1026" 
d="M230 1505h175l-18 -613h-276zM712 1505h175l-18 -613h-276z" />
    <glyph glyph-name="quotedblright" unicode="&#x201d;" horiz-adv-x="1054" 
d="M157 1505h276l-119 -613h-175zM639 1505h276l-118 -613h-176z" />
    <glyph glyph-name="quotedblbase" unicode="&#x201e;" horiz-adv-x="1057" 
d="M163 245h289l-145 -623h-168zM658 245h288l-144 -623h-168z" />
    <glyph glyph-name="bullet" unicode="&#x2022;" horiz-adv-x="768" 
d="M149 750c0 64.667 23 120.667 69 168s101.333 71 166 71s120 -23.667 166 -71s69 -103.333 69 -168c0 -65.333 -23 -121 -69 -167s-101.333 -69 -166 -69s-120 23 -166 69s-69 101.667 -69 167z" />
    <glyph glyph-name="ellipsis" unicode="&#x2026;" horiz-adv-x="1902" 
d="M103 162c0 50.667 18 94 54 130s79.333 54 130 54s94 -18 130 -54s54 -79.333 54 -130s-18 -94 -54 -130s-79.333 -54 -130 -54s-94 18 -130 54s-54 79.333 -54 130zM767 162c0 50.667 18 94 54 130s79.333 54 130 54s94 -18 130 -54s54 -79.333 54 -130
s-18 -94 -54 -130s-79.333 -54 -130 -54s-94 18 -130 54s-54 79.333 -54 130zM1431 162c0 50.667 18 94 54 130s79.333 54 130 54s94 -18 130 -54s54 -79.333 54 -130s-18 -94 -54 -130s-79.333 -54 -130 -54s-94 18 -130 54s-54 79.333 -54 130z" />
    <glyph glyph-name="uni202F" unicode="&#x202f;" horiz-adv-x="402" 
 />
    <glyph glyph-name="perthousand" unicode="&#x2030;" horiz-adv-x="2872" 
d="M107 1051c0 22.667 0.999023 44.667 2.99902 66s4.66699 42.666 8 63.999c7.33301 42.667 19.333 84.334 36 125.001s38.334 76.334 65.001 107.001s60 55.334 100 74.001c42 19.333 87.333 29 136 29c50.667 0 95.667 -9.33301 135 -28
c41.333 -19.333 74 -43.666 98 -72.999c25.333 -30 46.333 -65.333 63 -106c16.667 -41.333 28.667 -82.333 36 -123c3.33301 -20.667 5.83301 -41.667 7.5 -63s2.5 -43 2.5 -65c0 -22.667 -0.833008 -44.667 -2.5 -66s-4.16699 -42.666 -7.5 -63.999
c-7.33301 -42.667 -19.333 -84.334 -36 -125.001c-17.333 -42 -38.666 -78 -63.999 -108c-26 -31.333 -59 -56.333 -99 -75c-39.333 -18.667 -84.666 -28 -135.999 -28c-48.667 0 -93.334 9.66699 -134.001 29s-73.334 44.333 -98.001 75
c-25.333 30.667 -46.333 66.667 -63 108c-17.333 41.333 -29.333 82.666 -36 123.999c-3.33301 21.333 -5.83301 42.666 -7.5 63.999s-2.5 42.666 -2.5 63.999zM312.999 1051c0 -87.333 13.666 -155.333 40.999 -204c26.667 -48 60.334 -72 101.001 -72
c37.333 0 69 24.667 95 74c26 48.667 39 116.667 39 204c0 90.667 -13 160 -39 208s-58 72 -96 72c-38.667 0 -72 -25 -100 -75s-42 -119 -42 -207h1zM1296 1498h202l-731 -1503h-201zM1252 428c0 22.667 0.99707 44.666 2.99707 65.999s4.66699 42.666 8 63.999
c7.33301 42.667 19.333 84.334 36 125.001c16.667 40 38.334 76 65.001 108c26 30.667 59 55.667 99 75c39.333 18.667 84.333 28 135 28c62 0 116 -14 162 -42c46.667 -28 82.334 -65 107.001 -111c24 -44.667 42.333 -93.334 55 -146.001c12 -51.333 18 -104.333 18 -159
c0 -22.667 -0.833008 -44.667 -2.5 -66s-4.16699 -42.666 -7.5 -63.999c-7.33301 -42 -19.333 -84 -36 -126c-16.667 -41.333 -37.667 -77.666 -63 -108.999s-58.333 -56.333 -99 -75c-40 -18.667 -86 -28 -138 -28c-48 0 -92.333 9.66699 -133 29
c-39.333 18.667 -71.666 43.667 -96.999 75c-25.333 30.667 -46.333 66.667 -63 108c-17.333 40.667 -29.333 81.667 -36 123c-6.66699 39.333 -10 81.333 -10 126zM1459 428.999c0 -87.333 13.667 -155.668 41 -205.001c26.667 -48.667 59.667 -73 99 -73
c38 0 70 24.667 96 74c26 48.667 39 117.334 39 206.001c0 90 -13 159 -39 207s-58.333 72 -97 72c-38 0 -71 -25 -99 -75s-42 -119 -42 -207zM2096 428.997c0 22.667 0.996094 44.6689 2.99609 66.002s4.66699 42.666 8 63.999c7.33301 42.667 19.333 84.334 36 125.001
c16.667 40 38.334 76 65.001 108c26 30.667 59 55.667 99 75c39.333 18.667 84.333 28 135 28c62 0 116 -14 162 -42c46.667 -28 82.334 -65 107.001 -111c24 -44.667 42.333 -93.334 55 -146.001c12 -51.333 18 -104.333 18 -159c0 -22.667 -0.833008 -44.834 -2.5 -66.501
s-4.16699 -43.167 -7.5 -64.5c-7.33301 -42 -19.333 -84 -36 -126c-17.333 -42 -38.666 -78.333 -63.999 -109c-26 -31.333 -59 -56.333 -99 -75c-39.333 -18.667 -85 -28 -137 -28c-48 0 -92.333 9.66699 -133 29c-39.333 18.667 -71.666 43.667 -96.999 75
c-25.333 30.667 -46.333 66.667 -63 108c-17.333 40.667 -29.333 81.667 -36 123c-6.66699 39.333 -10 81.333 -10 126h-3zM2302.99 429.999c0 -87.333 13.667 -155.668 41 -205.001c26.667 -48.667 59.667 -73 99 -73c38 0 70 24.667 96 74
c26 48.667 39 117.334 39 206.001c0 90 -13 159 -39 207s-58.333 72 -97 72c-38 0 -71 -25 -99 -75s-42 -119 -42 -207z" />
    <glyph glyph-name="guilsinglleft" unicode="&#x2039;" horiz-adv-x="791" 
d="M443 1091h252l-394 -536l398 -555h-257l-393 557z" />
    <glyph glyph-name="guilsinglright" unicode="&#x203a;" horiz-adv-x="785" 
d="M481 555l-395 536h252l394 -534l-393 -557h-257z" />
    <glyph glyph-name="uni205F" unicode="&#x205f;" horiz-adv-x="503" 
 />
    <glyph glyph-name="Euro" unicode="&#x20ac;" horiz-adv-x="1309" 
d="M68 667l139.997 -0.00390625c-1.33301 11.333 -2.5 23.333 -3.5 36s-1.5 25.667 -1.5 39c0 28 2 55.667 6 83h-174l52 186h148c14 68.667 37.333 132.334 70 191.001c32.667 60 73.667 114 123 162c48.667 48 107.667 86 177 114c68.667 28 143.667 42 225 42
c34.667 0 67.334 -3.33301 98.001 -10c32.667 -7.33301 67.334 -19.333 104.001 -36c37.333 -17.333 73.333 -42.666 108 -75.999c36 -34.667 67.667 -75.667 95 -123l-190 -130c-59.333 92 -132.666 138 -219.999 138c-70.667 0 -135.667 -25.667 -195 -77
s-102.333 -117.333 -129 -198h472l-50 -186h-460c-4 -33.333 -6 -60.333 -6 -81c0 -19.333 2 -45 6 -77h462l-49 -185h-378c20.667 -81.333 57.667 -146.666 111 -195.999c52.667 -48.667 111.667 -73 177 -73c30 0 54 1 72 3s41 7 69 15c27.333 8 56.333 21.667 87 41
c28.667 18 62 43 100 75l145 -181c-125.333 -128 -275.333 -192 -450 -192c-81.333 0 -156 14 -224 42c-67.333 28 -124.666 66 -171.999 114c-46 46.667 -84.333 100.334 -115 161.001c-30.667 60 -52.334 124 -65.001 192h-216z" />
    <glyph glyph-name="trademark" unicode="&#x2122;" horiz-adv-x="1632" 
d="M38 1506h605v-140h-222v-709h-157v709h-226v140zM763 1506h153l241 -467l238 467h155v-849h-154v560l-189 -399h-101l-189 402v-563h-154v849z" />
    <glyph glyph-name="arrowleft" unicode="&#x2190;" horiz-adv-x="1410" 
d="M97 706l567 537l117 -160l-320 -293h852v-207h-854l324 -294l-121 -162l-565 538v41z" />
    <glyph glyph-name="arrowup" unicode="&#x2191;" horiz-adv-x="1310" 
d="M635 1243h41l537 -567l-160 -119l-295 321v-851h-205v853l-296 -323l-160 121z" />
    <glyph glyph-name="arrowright" unicode="&#x2192;" horiz-adv-x="1410" 
d="M97 790h852l-320 293l117 160l567 -537v-41l-565 -538l-119 162l322 294h-854v207z" />
    <glyph glyph-name="arrowdown" unicode="&#x2193;" horiz-adv-x="1308" 
d="M257 708l293 -319v852h206v-854l295 323l160 -120l-537 -565h-41l-536 567z" />
    <glyph glyph-name="uni25FC" unicode="&#x25fc;" horiz-adv-x="1090" 
d="M0 1090h1090v-1090h-1090v1090z" />
    <glyph glyph-name="uniFB00" unicode="&#xfb00;" horiz-adv-x="1308" 
d="M10 1090h169.001v141c0 97.333 29.333 175.333 88 234c59.333 59.333 137.333 89 234 89c48.667 0 116.667 -13 204 -39l-42 -199c-57.333 14 -106 21 -146 21c-30 0 -52 -8 -66 -24s-21 -42 -21 -78l1 -144h370v141c0 96.667 29 174.667 87 234s135.667 89 233 89
c49.333 0 117.666 -13 204.999 -39l-42 -199c-59.333 14 -108.333 21 -147 21c-30.667 0 -53 -8 -67 -24s-21 -42 -21 -78l1 -144h215v-203h-215v-889h-249v889h-370v-889h-251v889h-169z" />
    <glyph glyph-name="uniFB01" unicode="&#xfb01;" horiz-adv-x="1226" 
d="M11 890v202h169v142c0 96.667 29 174.667 87 234s135.667 89 233 89c46.667 0 114.667 -13 204 -39l-42 -199c-56.667 13.333 -105.667 20 -147 20c-30 0 -52 -8 -66 -24s-21 -42 -21 -78l1 -144h658v-1092h-249l2 890h-411v-890h-250v890zM787 1430
c0 47.333 17.333 88 52 122s74.667 51 120 51c44.667 0 84.667 -17 120 -51c34.667 -34 52 -74.333 52 -121s-17.333 -87 -52 -121c-35.333 -34 -75.333 -51 -120 -51c-45.333 0 -85.333 17 -120 51s-52 74.667 -52 122v-2z" />
    <glyph glyph-name="uniFB02" unicode="&#xfb02;" horiz-adv-x="1240" 
d="M11 1092h164v47c0 128.667 37 230.667 111 306s178.667 113 314 113c289.333 0 434 -139.333 434 -418v-858c0 -58 23.667 -87 71 -87c3.33301 0 13.333 1 30 3s40.667 5.33301 72 10l33 -185c-73.333 -24 -126.333 -36 -159 -36c-104.667 0 -180 24 -226 72
s-69 122.333 -69 223v868c0 72 -14.333 122.667 -43 152c-29.333 30 -77.333 45 -144 45c-55.333 0 -97.333 -18 -126 -54c-29.333 -36 -43.333 -85 -42 -147l1 -54h202v-202l-202 -1v-889h-256v889h-164z" />
    <glyph glyph-name="uniFB03" unicode="&#xfb03;" horiz-adv-x="1815" 
d="M13 1088h169v112c0 96.667 29 174.667 87 234s135.667 89 233 89c48 0 116 -12.667 204 -38l-42 -199c-59.333 13.333 -108.333 20 -147 20c-30 0 -52 -8 -66 -24s-21 -42 -21 -78l1 -114h370v142c0 96.667 29 174.667 87 234s135.667 89 233 89
c48 0 116 -12.667 204 -38l-42 -199c-59.333 13.333 -108.333 20 -147 20c-30 0 -52 -8 -66 -24s-21 -42 -21 -78l1 -144h627v-1092h-249l2 890h-380v-890h-250v889h-169l-201 1v-890h-250v890h-169zM1379 1425c0 47.333 17.333 88 52 122s74.667 51 120 51
c44.667 0 84.667 -17 120 -51c34.667 -34 52 -74.667 52 -122c0 -46.667 -17.333 -87 -52 -121c-35.333 -34 -75.333 -51 -120 -51c-45.333 0 -85.333 17 -120 51s-52 74.667 -52 122v-1z" />
    <glyph glyph-name="uniFB04" unicode="&#xfb04;" horiz-adv-x="1854" 
d="M7 1090h169v143c0 96 29 173.667 87 233s135.667 89 233 89c50 0 118 -12.333 204 -37l-42 -199c-55.333 12.667 -104.333 19 -147 19c-30 0 -52 -8 -66 -24s-21 -42 -21 -78l1 -145h365v47c0 128.667 37 230.667 111 306c74 74.667 178.667 112 314 112
c289.333 0 434 -139 434 -417v-858c0 -58 23.667 -87 71 -87c3.33301 0 13.333 1 30 3s40.667 5.33301 72 10l33 -185c-72 -23.333 -125 -35 -159 -35c-105.333 0 -181 24 -227 72s-69 122.333 -69 223v868c0 72 -14.333 122.667 -43 152c-29.333 30 -77.333 45 -144 45
c-55.333 0 -97.333 -18 -126 -54c-29.333 -36 -43.333 -85 -42 -147l1 -54h202v-202l-202 -1v-890h-256v890l-365 1v-890h-250v890h-169z" />
    <glyph glyph-name="glyph1" horiz-adv-x="0" 
 />
    <glyph glyph-name="glyph2" horiz-adv-x="682" 
 />
    <glyph glyph-name="one.aalt" horiz-adv-x="1023" 
d="M508 1135h166v-914h264v-221h-788v221h286v656l-303 -101l-55 209z" />
    <glyph glyph-name="two.aalt" horiz-adv-x="1024" 
d="M103 911c56.667 83.333 118.669 143.999 186.002 181.999c68 38 145 57 231 57c111.333 0 205.333 -31.333 282 -94c77.333 -63.333 116 -149.333 116 -258c0 -33.333 -6 -65.333 -18 -96c-12 -30 -26 -56.333 -42 -79c-16 -22 -38 -45 -66 -69s-52 -43 -72 -57
c-10 -7.33301 -21.667 -15.166 -35 -23.499s-28.333 -17.833 -45 -28.5c-3.33301 -2 -17.333 -11 -42 -27c-12.667 -8 -23.5 -15 -32.5 -21l-22.5 -15c-31.333 -20 -60.333 -41 -87 -63c-41.333 -34 -69.333 -67 -84 -99h534v-223h-801v115c0 54 8.66699 105 26 153
s41.666 90.667 72.999 128c32.667 38.667 64 70.667 94 96c32 26.667 68.667 54.334 110 83.001c10.667 7.33301 24.167 16.5 40.5 27.5s35.5 23.5 57.5 37.5s40.833 26.167 56.5 36.5s28.167 19.166 37.5 26.499c52 38.667 78 71.667 78 99c0 40 -14.667 72 -44 96
s-67.333 36 -114 36s-86.334 -10.333 -119.001 -31c-34 -22 -70.667 -59.333 -110 -112l-191 127z" />
    <glyph glyph-name="three.aalt" horiz-adv-x="1069" 
d="M255 217c67.333 -103.333 155.333 -155.002 264 -155.002c76 0 133 20.667 171 62c38 40.667 57 90.667 57 150c0 55.333 -16.333 98 -49 128c-33.333 30 -78.333 45 -135 45h-134v202h144c43.333 0 76 15.333 98 46s33 68.667 33 114c0 32 -16 62.667 -48 92
c-32.667 29.333 -75 44 -127 44c-92.667 0 -174 -49.667 -244 -149l-166 123c29.333 46 62.333 84.667 99 116c36.667 32 73.667 56 111 72c38.667 16.667 73.667 28.334 105 35.001c34.667 7.33301 67.667 11 99 11c38 0 75.667 -4 113 -12c36.667 -8 72.667 -21 108 -39
c36 -18.667 66.667 -40.667 92 -66c26 -26 47 -58.333 63 -97c16 -39.333 24 -82.333 24 -129c0 -50 -11.333 -97.333 -34 -142c-23.333 -45.333 -58.666 -80.333 -105.999 -105v-10c55.333 -17.333 101 -50.333 137 -99c36 -49.333 54 -110.666 54 -183.999
c0 -133.333 -44 -238.333 -132 -315c-87.333 -76.667 -201.333 -115 -342 -115c-51.333 0 -101 7 -149 21c-48.667 14 -98.667 40.333 -150 79c-52.667 39.333 -96.334 89.333 -131.001 150z" />
    <glyph glyph-name="four.aalt" horiz-adv-x="1124" 
d="M33 295l664 840h188v-787h158v-223h-158v-274h-233v274h-619v170zM652 347l0.000976562 407.999c-14.667 -18.667 -35.334 -45.167 -62.001 -79.5s-60 -77.166 -100 -128.499s-72.667 -93.5 -98 -126.5s-44 -57.167 -56 -72.5z" />
    <glyph glyph-name="five.aalt" horiz-adv-x="1105" 
d="M285 221c38.667 -60 77.6641 -100.999 116.997 -122.999c38.667 -22 79.667 -33 123 -33c39.333 0 74 7 104 21c30.667 14 54.334 32 71.001 54s29.667 45 39 69c8.66699 23.333 13 46.666 13 69.999c0 70.667 -19 125 -57 163s-83 57 -135 57
c-34 0 -66.667 -5.33301 -98 -16s-69.666 -33.667 -114.999 -69l-165 45l45 678h686v-215h-482l-20 -252c48 26 108.667 39 182 39c52 0 101 -9.33301 147 -28c46.667 -19.333 88.667 -46.333 126 -81c37.333 -35.333 67 -80.333 89 -135c22 -55.333 33 -116.333 33 -183
c0 -134 -43.333 -241 -130 -321c-87.333 -80 -200.666 -120 -339.999 -120c-178 0 -315 83 -411 249z" />
    <glyph glyph-name="six.aalt" horiz-adv-x="1085" 
d="M99 557c0 23.333 0.498047 45.9971 1.49805 67.9971s2.16699 43.667 3.5 65c2.66699 42.667 8.66699 89.667 18 141s21.333 98 36 140c15.333 42.667 35.333 84.334 60 125.001s53.667 75.667 87 105c32.667 28.667 73.667 51.667 123 69c50 17.333 104 26 162 26
c146.667 0 267.667 -71 363 -213l-166 -114c-60.667 74.667 -127.667 112 -201 112c-42 0 -79 -10 -111 -30s-58 -47.333 -78 -82c-19.333 -34 -34.666 -72 -45.999 -114c-10.667 -40.667 -17.667 -85.334 -21 -134.001c72 72 159.333 108 262 108
c126.667 0 227 -37.333 301 -112c74 -75.333 111 -176.333 111 -303c0 -132.667 -41.667 -239 -125 -319s-193 -120 -329 -120c-70.667 0 -132.667 12.333 -186 37s-96.333 56.334 -129 95.001c-31.333 36.667 -57.666 82.334 -78.999 137.001
c-20.667 52.667 -34.667 104.334 -42 155.001c-3.33301 25.333 -6 51 -8 77s-3 53 -3 81h-4zM343.998 417.997c0 -67.333 19 -121.333 57 -162c38 -41.333 90.667 -62 158 -62c65.333 0 116 19.667 152 59c36 38.667 54 91.667 54 159c0 138 -71.667 207 -215 207
c-54 0 -101.667 -20.333 -143 -61c-42 -41.333 -63 -87.333 -63 -138v-2z" />
    <glyph glyph-name="seven.aalt" horiz-adv-x="928" 
d="M68 1135l796.001 0.000976562v-158c-42.667 -122.667 -101.167 -277.5 -175.5 -464.5s-164.5 -406.167 -270.5 -657.5h-250c100.667 240.667 186.667 449.667 258 627s128.666 322.666 171.999 435.999h-530v217z" />
    <glyph glyph-name="eight.aalt" horiz-adv-x="1139" 
d="M100 352c0 130.667 75.0029 233.665 225.003 308.998v6c-50.667 28 -92.667 65.667 -126 113c-32.667 46.667 -49 97.667 -49 153c0 71.333 20 135 60 191s91.667 98 155 126c62.667 28 130.667 42 204 42c74 0 141.667 -13.333 203 -40c62 -27.333 113 -68.333 153 -123
c40 -55.333 60 -119.333 60 -192c0 -56 -16 -106 -48 -150s-74.333 -81 -127 -111v-6c151.333 -77.333 227 -181.666 227 -312.999c0 -62.667 -13 -119 -39 -169c-26 -49.333 -61 -89.666 -105 -120.999c-44.667 -31.333 -94.334 -55 -149.001 -71
c-55.333 -16 -113.333 -24 -174 -24s-118.334 8 -173.001 24s-104.334 39.667 -149.001 71c-44 30.667 -79.333 71 -106 121c-26.667 49.333 -40 105 -40 167zM330.003 366.998c0 -56.667 22.333 -101 67 -133s101.667 -48 171 -48c70 0 127 15 171 45s66 73.667 66 131
c0 62.667 -22 111.667 -66 147c-44.667 35.333 -102 53 -172 53c-72 0 -129.333 -16.667 -172 -50c-42 -33.333 -63 -82 -63 -146zM378.003 924.998c0 -50.667 16.665 -89.667 49.998 -117s79.333 -41 138 -41c54.667 0 99.334 14.667 134.001 44
c34 28.667 51 67.667 51 117s-16.333 87.333 -49 114c-33.333 27.333 -78.666 41 -135.999 41c-59.333 0 -105.333 -14 -138 -42s-49 -67 -49 -117z" />
    <glyph glyph-name="nine.aalt" horiz-adv-x="1081" 
d="M77 733c0 80.667 21.002 153.668 63.002 219.001c42 64.667 97 114.667 165 150c67.333 34.667 140.666 52 219.999 52c76.667 0 144.667 -15 204 -45c58.667 -30 105.667 -70 141 -120c34.667 -50 60.667 -105.667 78 -167c17.333 -62 26 -127 26 -195
c0 -54.667 -1 -104.334 -3 -149.001s-7 -95 -15 -151s-19 -106 -33 -150s-33 -88 -57 -132s-52.333 -80.333 -85 -109s-73 -52 -121 -70s-102 -27 -162 -27c-154.667 0 -282.334 66 -383.001 198l188 115c60 -64 126.333 -96 199 -96s130 35 172 105s66 165 72 285
c-80 -78 -170.667 -117 -272 -117c-106.667 0 -199 38 -277 114s-117 172.667 -117 290h-3zM310.002 740.001c0 -62 18 -111 54 -147s86.667 -54 152 -54c51.333 0 99.333 19.667 144 59c44 38.667 66 83.667 66 135c0 62.667 -20 113 -60 151s-91.333 57 -154 57
c-59.333 0 -107.333 -18.333 -144 -55c-37.333 -37.333 -56 -86.333 -56 -147z" />
    <glyph glyph-name="zero.aalt" horiz-adv-x="1158" 
d="M85 564c0 50.667 5 101.664 15 152.997c10 50.667 27 102.667 51 156c24 52.667 54 99.667 90 141c35.333 40.667 82.333 74 141 100c58 26 123 39 195 39c73.333 0 139.666 -13 198.999 -39c58.667 -26 106 -59 142 -99c36.667 -41.333 66.334 -87.666 89.001 -138.999
c22.667 -53.333 38.667 -105.333 48 -156c9.33301 -52.667 14 -103.667 14 -153c0 -58.667 -5.33301 -114.334 -16 -167.001c-11.333 -54 -29.333 -107 -54 -159c-24.667 -51.333 -55.667 -96.666 -93 -135.999c-36.667 -38.667 -83.667 -70 -141 -94s-120.333 -36 -189 -36
c-70 0 -133.333 12 -190 36c-56 23.333 -102.333 55 -139 95c-34.667 38 -65 83.667 -91 137c-24.667 50.667 -42 103.334 -52 158.001c-10 52.667 -15 107.334 -15 164.001zM322 561.997c0 -101.333 23.001 -187.999 69.001 -259.999s106.667 -108 182 -108
c53.333 0 99.333 17.333 138 52s67 79 85 133s27 114.333 27 181c0 70.667 -8 132.667 -24 186s-43 97 -81 131s-86 51 -144 51c-42.667 0 -80.334 -10.333 -113.001 -31s-59 -48.667 -79 -84c-20 -34.667 -35 -73.334 -45 -116.001c-10 -42 -15 -86.333 -15 -133v-2z" />
    <glyph glyph-name="f_t.liga" horiz-adv-x="1380" 
d="M11 1091l169.001 0.00195312v142c0 96.667 29 174.667 87 234s135.667 89 233 89c48 0 116 -12.667 204 -38l-42 -199c-59.333 13.333 -108.333 20 -147 20c-30 0 -52 -8 -66 -24s-21 -42 -21 -78l1 -144h447v237l246 92v-329h231v-203h-231v-603
c0 -31.333 7 -55.333 21 -72s38 -25 72 -25c3.33301 0 13.166 1.16699 29.499 3.5s39.5 5.83301 69.5 10.5l30 -184c-68.667 -23.333 -123.334 -35 -164.001 -35c-49.333 0 -93 5.66699 -131 17s-67.667 25.666 -89 42.999c-22 18 -40 40 -54 66
c-13.333 25.333 -22.666 51.333 -27.999 78c-2.66699 13.333 -4.5 27.166 -5.5 41.499s-1.5 29.833 -1.5 46.5v612l-441 1v-890h-250v890h-169v201z" />
    <glyph glyph-name="NULL" horiz-adv-x="0" 
 />
    <glyph glyph-name="nonmarkingreturn" horiz-adv-x="488" 
 />
    </font>
</defs>
</svg>
