<?xml version="1.0" standalone="no"?>
<!DOCTYPE svg PUBLIC "-//W3C//DTD SVG 1.1//EN" "http://www.w3.org/Graphics/SVG/1.1/DTD/svg11.dtd" >
<svg xmlns="http://www.w3.org/2000/svg" xmlns:xlink="http://www.w3.org/1999/xlink" version="1.1">
<metadata>
Created by FontForge 20161116 at Fri Oct 21 20:15:16 2016
 By Jimmy Wärting
Copyright (c) 2014 by THOMAS GILLETT. All rights reserved.
</metadata>
<defs>
<font id="MadrasRegular" horiz-adv-x="1291" >
  <font-face 
    font-family="Madras Regular"
    font-weight="400"
    font-stretch="normal"
    units-per-em="2048"
    panose-1="0 0 0 0 0 0 0 0 0 0"
    ascent="1628"
    descent="-420"
    x-height="1095"
    cap-height="1504"
    bbox="-158 -455.001 2638.99 1940"
    underline-thickness="102"
    underline-position="-868"
    unicode-range="U+0020-FB04"
  />
<missing-glyph horiz-adv-x="748" 
d="M68 1365h544v-1365h-544v1365zM544 68v1229h-408v-1229h408z" />
    <glyph glyph-name=".notdef" horiz-adv-x="748" 
d="M68 1365h544v-1365h-544v1365zM544 68v1229h-408v-1229h408z" />
    <glyph glyph-name="space" unicode=" " horiz-adv-x="488" 
 />
    <glyph glyph-name="exclam" unicode="!" horiz-adv-x="565" 
d="M135 121c0 41.333 14.333 76.333 43 105s63.667 43 105 43s76.333 -14.333 105 -43s43 -63.667 43 -105s-14.333 -76.333 -43 -105s-63.667 -43 -105 -43s-76.333 14.333 -105 43s-43 63.667 -43 105zM197 1504h171v-866l-10 -209h-151l-10 209v866z" />
    <glyph glyph-name="quotedbl" unicode="&#x22;" horiz-adv-x="902" 
d="M373 1505l-42 -683h-129l-43 683h214zM743 1505l-42 -683h-129l-43 683h214z" />
    <glyph glyph-name="numbersign" unicode="#" horiz-adv-x="1400" 
d="M119 529h248v458h-248v151h248v367h162v-367h343v367h161v-367h248v-151h-248v-458h248v-150h-248v-379h-161v379h-343v-379h-162v379h-248v150zM872 529v458h-343v-458h343z" />
    <glyph glyph-name="dollar" unicode="$" horiz-adv-x="1186" 
d="M229 310c88 -124 211.999 -186.007 371.999 -186.007c89.333 0 160 25 212 75s78 118 78 204c0 40.667 -8.33301 75.667 -25 105s-39.667 53.666 -69 72.999c-30 20 -63 36.667 -99 50c-37.333 14 -76.333 27 -117 39c-41.333 12 -82.333 25 -123 39
c-20.667 7.33301 -40.667 15.333 -60 24s-38.333 18.334 -57 29.001c-36 20.667 -69 45.334 -99 74.001c-28.667 28 -51.667 64.667 -69 110c-16.667 44 -25 95.667 -25 155c0 114 31.667 208.333 95 283c63.333 74 149 118.667 257 134v205h165v-208
c66 -11.333 128 -34.666 186 -69.999c59.333 -36 110 -87 152 -153l-124 -89c-30.667 43.333 -65.667 78 -105 104c-40.667 26.667 -76.667 43.334 -108 50.001c-33.333 7.33301 -65.333 11 -96 11c-74 0 -134.333 -25 -181 -75c-46.667 -49.333 -70 -115.666 -70 -198.999
c0 -39.333 8.33301 -73.333 25 -102s39.667 -52 69 -70c28.667 -18 61.667 -34 99 -48c18.667 -7.33301 37.667 -14 57 -20s39.333 -11.667 60 -17c40.667 -11.333 81.667 -23.333 123 -36c40.667 -13.333 79.667 -30.333 117 -51c38 -21.333 71 -45.666 99 -72.999
c28.667 -28 51.667 -65 69 -111c16.667 -45.333 25 -97.666 25 -156.999c0 -126 -35.333 -225.667 -106 -299s-165.667 -117.666 -285 -132.999v-204h-165v204c-84 10 -161.667 35.333 -233 76s-130.666 97.667 -177.999 171z" />
    <glyph glyph-name="percent" unicode="%" horiz-adv-x="1944" 
d="M117 1058c0 58.667 5.99609 114.669 17.9961 168.002c11.333 51.333 30 100.666 56 147.999c24.667 45.333 59.334 81.666 104.001 108.999c43.333 26.667 94.333 40 153 40c46.667 0 88.667 -9 126 -27c38 -18.667 68.667 -42 92 -70c24 -28.667 44 -63.334 60 -104.001
c16.667 -41.333 28.334 -82.666 35.001 -123.999c3.33301 -21.333 6 -43.333 8 -66s3 -45.667 3 -69c0 -60.667 -6 -117.334 -18 -170.001c-12 -53.333 -30.333 -102.666 -55 -147.999c-24.667 -46 -59 -82.333 -103 -109c-43.333 -26.667 -94.666 -40 -153.999 -40
c-56 0 -106.333 13.667 -151 41c-43.333 26.667 -77.666 62.667 -102.999 108c-24 44 -42.333 92.667 -55 146c-12 52 -18 107 -18 165zM266.996 1059c0 -99.333 16.333 -179.333 49 -240s77 -91 133 -91c53.333 0 96 31 128 93s48 141.667 48 239
c0 101.333 -16 182 -48 242s-75 90 -129 90c-55.333 0 -99.333 -31 -132 -93c-33.333 -62.667 -50 -143 -50 -241zM1271 1506h152l-731 -1503h-151zM1173 437.002c0 58.667 5.99707 114.667 17.9971 168c12 52 30.667 101 56 147c24.667 44.667 59.334 80.667 104.001 108
c43.333 26.667 94.333 40 153 40c46.667 0 89 -9 127 -27c38.667 -18 69.667 -41.333 93 -70c24 -28.667 44 -63.334 60 -104.001c16.667 -41.333 28.334 -82.666 35.001 -123.999c3.33301 -21.333 6 -43 8 -65s3 -44.667 3 -68c0 -60.667 -6 -117.334 -18 -170.001
c-12 -53.333 -30.333 -102.666 -55 -147.999c-24.667 -46 -59 -82.333 -103 -109c-43.333 -26.667 -94.666 -40 -153.999 -40c-56.667 0 -106.667 13.667 -150 41c-43.333 26.667 -77.333 62.667 -102 108c-24.667 44 -43 93 -55 147c-12 52.667 -18 108 -18 166h-2z
M1322.99 437.002c0 -99.333 16.334 -179.333 49.001 -240s76.667 -91 132 -91c54 0 97 31 129 93s48 142 48 240c0 101.333 -16 182 -48 242s-75.333 90 -130 90s-98.334 -31 -131.001 -93c-33.333 -62.667 -50 -143 -50 -241h1z" />
    <glyph glyph-name="ampersand" unicode="&#x26;" horiz-adv-x="1369" 
d="M118 379c0 52 8.99805 101 26.998 147c18 46.667 44 88.334 78 125.001c35.333 38 70.333 70.667 105 98c18 14 37.5 28.167 58.5 42.5s43.5 28.833 67.5 43.5c-4.66699 7.33301 -10.334 16.333 -17.001 27s-14.667 22.667 -24 36s-17.333 25 -24 35
s-12.334 18.333 -17.001 25c-9.33301 12.667 -20.333 30.667 -33 54c-6.66699 11.333 -12.167 22.166 -16.5 32.499s-8.16602 20.166 -11.499 29.499s-6.16602 19.333 -8.49902 30s-4.83301 22.334 -7.5 35.001c-4.66699 23.333 -7 49.333 -7 78c0 92.667 34 167 102 223
s149.667 84 245 84c40.667 0 81.667 -6 123 -18c40.667 -12 83 -34 127 -66c44.667 -32.667 80.334 -73 107.001 -121l-123 -87c-54.667 88.667 -133.667 133 -237 133c-50 0 -90 -14 -120 -42s-45 -67.333 -45 -118c0 -26 3 -51 9 -75c6 -23.333 17 -48.666 33 -75.999
c8 -13.333 15.167 -25 21.5 -35s12.166 -18.667 17.499 -26s12.333 -16.833 21 -28.5s19.334 -25.834 32.001 -42.501l356 -467c33.333 88.667 58 192.667 74 312l157 -44c-23.333 -162 -63.333 -300 -120 -414l236 -309h-211c-28 36 -52.167 67.167 -72.5 93.5
s-37.166 48.5 -50.499 66.5c-106.667 -124.667 -244.667 -187 -414 -187c-127.333 0 -232.333 36.333 -315 109s-124 171.667 -124 297h1zM285.998 374c0 -67.333 27.667 -125.667 83 -175c54.667 -48.667 116.667 -73 186 -73c129.333 0 234.333 55.333 315 166l-327 432
c-170 -99.333 -255 -216.333 -255 -351z" />
    <glyph glyph-name="quotesingle" unicode="'" horiz-adv-x="536" 
d="M379 1505l-42 -683h-137l-43 683h222z" />
    <glyph glyph-name="parenleft" unicode="(" horiz-adv-x="632" 
d="M119 586c0 162 32 328 96 498s144.667 319.667 242 449l80 -87c-78 -126 -139.667 -263 -185 -411c-46 -149.333 -69 -295.333 -69 -438c0 -134.667 23 -272 69 -412c46 -139.333 105.667 -272 179 -398l-81 -87c-49.333 70.667 -91.333 136.667 -126 198
c-35.333 62 -69.333 130.333 -102 205c-32.667 76 -57.667 154.667 -75 236c-17.333 82.667 -26 165.667 -26 249z" />
    <glyph glyph-name="parenright" unicode=")" horiz-adv-x="632" 
d="M173 1537c98.667 -132 179.333 -279.334 242 -442.001c63.333 -164.667 95 -326.667 95 -486c0 -83.333 -8.66699 -167.666 -26 -252.999c-16.667 -83.333 -41.667 -163.666 -75 -240.999c-16.667 -38.667 -33.5 -75.667 -50.5 -111s-34.5 -69.333 -52.5 -102
s-37.5 -65.667 -58.5 -99s-43.167 -67.333 -66.5 -102l-81 87c164 282.667 246 549.334 246 800.001c0 143.333 -23 291.666 -69 444.999s-107.333 291.666 -184 414.999z" />
    <glyph glyph-name="asterisk" unicode="*" horiz-adv-x="694" 
d="M45 1318l251 -16l-156 248l85 50l116 -263l113 260l86 -49l-152 -245l250 15v-93l-251 19l153 -252l-86 -48l-113 261l-114 -262l-86 50l154 251l-250 -19v93z" />
    <glyph glyph-name="plus" unicode="+" horiz-adv-x="1144" 
d="M105 765h403v429h139v-429h392v-133h-392v-434h-139v434h-403v133z" />
    <glyph glyph-name="comma" unicode="," horiz-adv-x="481" 
d="M138 245h222l-138 -483h-107z" />
    <glyph glyph-name="hyphen" unicode="-" horiz-adv-x="655" 
d="M97 808h461v-155h-461v155z" />
    <glyph glyph-name="period" unicode="." horiz-adv-x="508" 
d="M107 121c0 41.333 14.333 76.333 43 105s63.667 43 105 43s76.333 -14.333 105 -43s43 -63.667 43 -105s-14.333 -76.333 -43 -105s-63.667 -43 -105 -43s-76.333 14.333 -105 43s-43 63.667 -43 105z" />
    <glyph glyph-name="slash" unicode="/" horiz-adv-x="824" 
d="M627 1610h150l-578 -1781h-152z" />
    <glyph glyph-name="zero" unicode="0" horiz-adv-x="1188" 
d="M88 745c0 23.333 0.500977 46.167 1.50098 68.5s2.16699 44.833 3.5 67.5s3.66602 46.167 6.99902 70.5s7.66602 49.5 12.999 75.5c10 52.667 23 101.334 39 146.001s37 88.667 63 132c26.667 44 56.667 80.667 90 110c34 30 76 54 126 72s104.667 27 164 27
c66 0 126 -12 180 -36c53.333 -24 97.666 -57 132.999 -99c34.667 -41.333 64.667 -88 90 -140c24.667 -51.333 43.667 -107.333 57 -168c6.66699 -30.667 12.334 -60.334 17.001 -89.001s8.66699 -56.667 12 -84c6 -54 9 -109.333 9 -166c0 -44 -2 -88 -6 -132
c-4 -44.667 -11 -92.334 -21 -143.001c-10 -51.333 -23 -99.333 -39 -144c-16 -45.333 -37 -89.333 -63 -132c-26.667 -44 -56.667 -80.667 -90 -110s-74.333 -53.666 -123 -72.999c-47.333 -18.667 -100 -28 -158 -28c-61.333 0 -116.666 9.33301 -165.999 28
c-50 18.667 -92 43.667 -126 75c-34.667 31.333 -64.667 68.666 -90 111.999c-13.333 22 -25 44.167 -35 66.5s-18.667 44.833 -26 67.5c-15.333 44.667 -27.333 93.667 -36 147c-8.66699 52.667 -14.667 101.334 -18 146.001c-1.33301 22 -2.33301 44.5 -3 67.5
s-1 46.167 -1 69.5zM249.001 725.001c0 -87.333 5.99902 -166.332 17.999 -236.999s31 -135 57 -193c26 -58.667 61.333 -103.667 106 -135c44.667 -32 98.334 -48 161.001 -48c56.667 0 107.334 17.667 152.001 53c44 35.333 79 82.666 105 141.999
c25.333 58.667 44.666 124.667 57.999 198c6.66699 36 11.667 73.167 15 111.5s5 77.833 5 118.5c0 42.667 -1.66699 83.834 -5 123.501s-8.33301 78.167 -15 115.5c-12.667 72.667 -32.334 139.667 -59.001 201c-26 59.333 -61 106.666 -105 141.999
c-43.333 34.667 -93.666 52 -150.999 52c-49.333 0 -93.333 -11 -132 -33s-70.667 -52.667 -96 -92s-46.333 -86.333 -63 -141s-28.667 -113.334 -36 -176.001c-3.33301 -31.333 -6 -63.666 -8 -96.999s-3 -68.333 -3 -105h-4z" />
    <glyph glyph-name="one" unicode="1" horiz-adv-x="996" 
d="M483 1504h121v-1354h304v-150h-791v150h327v1179l-325 -117l-38 148z" />
    <glyph glyph-name="two" unicode="2" horiz-adv-x="1150" 
d="M95 85c0 64.667 9 125.666 27 182.999s42 108 72 152c15.333 22 31.5 43.5 48.5 64.5s35.167 41.167 54.5 60.5c40 40 81 75.667 123 107c21.333 16 42.833 31.667 64.5 47s43.167 30.333 64.5 45c42.667 28.667 83.667 56.667 123 84
c19.333 13.333 37.5 26.833 54.5 40.5s33.167 27.167 48.5 40.5c30 26.667 54 55.667 72 87c18 30.667 27 62.667 27 96c0 82.667 -27 149.667 -81 201c-54.667 51.333 -126 77 -214 77c-148 0 -260 -57.333 -336 -172l-120 87c96.667 158 247.667 237 453 237
c136 0 246.667 -39 332 -117s128 -182.667 128 -314c0 -46.667 -8.33301 -90.667 -25 -132s-39.667 -78.666 -69 -111.999s-62.333 -65.333 -99 -96c-18.667 -15.333 -37.667 -30.333 -57 -45s-39.333 -29 -60 -43s-41.167 -28 -61.5 -42s-41.166 -28 -62.499 -42
s-41.833 -28.5 -61.5 -43.5s-39.167 -30.167 -58.5 -45.5c-38 -31.333 -72 -63.333 -102 -96c-30.667 -34 -55.334 -71.333 -74.001 -112c-19.333 -42 -30.333 -86 -33 -132h751v-150h-920z" />
    <glyph glyph-name="three" unicode="3" horiz-adv-x="1147" 
d="M193 309c75.333 -125.333 188.329 -188.003 338.996 -188.003c113.333 0 202.666 28.667 267.999 86c64.667 56.667 97 134.334 97 233.001c0 95.333 -29 167 -87 215s-135.333 72 -232 72h-143v145h146c87.333 0 150 21.333 188 64s57 103.667 57 183
c0 66.667 -25.333 125 -76 175c-51.333 50 -120.333 75 -207 75c-139.333 0 -246.333 -57.333 -321 -172l-113 87c24.667 42 54.667 79.333 90 112c36 32.667 73 57.334 111 74.001c19.333 8.66699 38.5 16.167 57.5 22.5s38.167 11.5 57.5 15.5c38 8 76 12 114 12
c56.667 0 111.667 -9 165 -27c54.667 -18.667 102.334 -44 143.001 -76c42.667 -33.333 76.334 -75.666 101.001 -126.999c25.333 -52.667 38 -110 38 -172c0 -136 -51.667 -241 -155 -315c150.667 -64.667 226 -186.667 226 -366c0 -82 -14.333 -153 -43 -213
c-29.333 -62 -68.666 -110.667 -117.999 -146c-50 -36 -106.333 -63 -169 -81c-63.333 -18 -131.666 -27 -204.999 -27c-91.333 0 -175.666 20.667 -252.999 62c-77.333 40.667 -139.333 104.667 -186 192z" />
    <glyph glyph-name="four" unicode="4" horiz-adv-x="1226" 
d="M34 462l769 1032h126v-1004h213v-145h-213v-345h-159v345h-736v117zM771 490v711c-137.333 -184 -229.333 -307 -276 -369l-262 -342h538z" />
    <glyph glyph-name="five" unicode="5" horiz-adv-x="1193" 
d="M231 313c38 -59.333 89.9971 -106.334 155.997 -141.001c65.333 -34.667 134.333 -52 207 -52c90 0 165 35 225 105s90 150.667 90 242c0 90 -30 167 -90 231s-134.667 96 -224 96c-54 0 -104 -8.33301 -150 -25c-47.333 -17.333 -99.333 -51.333 -156 -102l-125 47
l49 780h778v-149h-634l-33 -490h4c2 0 3.33301 -0.333008 4 -1c74.667 58 162.334 87 263.001 87c133.333 0 245.666 -45.333 336.999 -136c92 -91.333 138 -203.333 138 -336c0 -91.333 -20.333 -174.666 -61 -249.999c-40.667 -76 -98 -136.333 -172 -181
c-73.333 -44.667 -155.666 -67 -246.999 -67c-97.333 0 -189.666 22.333 -276.999 67s-154.666 107.667 -201.999 189z" />
    <glyph glyph-name="six" unicode="6" horiz-adv-x="1178" 
d="M103 636c0 30.667 0.501953 60.167 1.50195 88.5s2.16699 55.833 3.5 82.5s3.66602 54.167 6.99902 82.5s7.66602 58.166 12.999 89.499c10 62 23 118 39 168c16 50.667 38 99.334 66 146.001c28 47.333 60.667 87 98 119c37.333 32.667 83 58.334 137 77.001
c54.667 19.333 115 29 181 29c162.667 0 284.667 -61.667 366 -185l-120 -82c-32 41.333 -71.667 71 -119 89s-91.333 27 -132 27c-56 0 -106.333 -12.333 -151 -37c-44 -24.667 -80.333 -57.334 -109 -98.001c-28 -40 -51 -88 -69 -144s-31 -112.333 -39 -169
c-8 -57.333 -12 -117.333 -12 -180h3l3 -1c102.667 132 223.667 198 363 198c141.333 0 253.333 -42.333 336 -127c83.333 -85.333 125 -198.666 125 -339.999c0 -151.333 -47 -272 -141 -362s-212 -135 -354 -135c-68.667 0 -130.667 12.333 -186 37
c-56.667 25.333 -103.334 58.333 -140.001 99c-36 40 -67.333 88.667 -94 146c-25.333 55.333 -43.666 113.666 -54.999 174.999c-11.333 62.667 -17 125.667 -17 189zM279.002 467c0 -100.667 30.001 -184.002 90.001 -250.002s140 -99 240 -99
c94.667 0 171.667 30.667 231 92s89 143.333 89 246s-28.333 182.334 -85 239.001c-57.333 57.333 -138.333 86 -243 86c-62.667 0 -115.667 -12.333 -159 -37c-44.667 -25.333 -78.334 -55.666 -101.001 -90.999c-40 -62 -60 -123.667 -60 -185z" />
    <glyph glyph-name="seven" unicode="7" horiz-adv-x="1058" 
d="M66 1488l921.001 -0.000976562v-126c-3.33301 -6 -16.333 -25 -39 -57c-11.333 -16 -22.833 -32.5 -34.5 -49.5s-23.5 -34.167 -35.5 -51.5c-24 -35.333 -53 -81.333 -87 -138c-34 -57.333 -66 -114.333 -96 -171c-30.667 -58.667 -61.334 -124.334 -92.001 -197.001
c-15.333 -37.333 -29.666 -74.166 -42.999 -110.499s-25.666 -72.5 -36.999 -108.5c-22 -72 -40 -150 -54 -234s-21 -166.333 -21 -247h-158c0 108 13 221 39 339c13.333 59.333 27.666 115.333 42.999 168s32.333 102.667 51 150c36.667 92.667 80.667 188 132 286
c25.333 48.667 49 92.334 71 131.001s42.667 73 62 103s38.666 59 57.999 87l58 84h-733z" />
    <glyph glyph-name="eight" unicode="8" horiz-adv-x="1254" 
d="M107 405c0 90.667 25.665 169.666 76.998 236.999c50.667 66.667 120.667 115.667 210 147c-65.333 26.667 -119.666 69.334 -162.999 128.001c-42.667 57.333 -64 122.666 -64 195.999c0 116 41 211.667 123 287c82.667 75.333 195.667 113 339 113
c144 0 256.667 -36.667 338 -110s122 -168.333 122 -285c0 -70.667 -20.667 -133.667 -62 -189s-96.333 -98.333 -165 -129c89.333 -31.333 159.333 -80.666 210 -147.999c51.333 -68.667 77 -148 77 -238c0 -138 -47 -246.333 -141 -325
c-93.333 -78.667 -219.666 -118 -378.999 -118s-286.333 39 -381 117s-142 185.333 -142 322zM269.998 407.999c0 -86.667 30.667 -157.668 92 -213.001c60.667 -54.667 149.667 -82 267 -82s206.333 26.667 267 80c60 52.667 90 123.334 90 212.001
c0 85.333 -32 158 -96 218s-151.667 90 -263 90c-112 0 -199.333 -29 -262 -87s-94 -130.333 -94 -217zM328.998 1109c0 -72 26.998 -133.002 80.998 -183.002s126.667 -75 218 -75c88.667 0 160.667 26.667 216 80c54.667 52.667 82 114.334 82 185.001
c0 32 -5.33301 61.667 -16 89c-11.333 29.333 -27.666 56 -48.999 80c-22 24.667 -53 44.667 -93 60c-40.667 15.333 -87 23 -139 23c-53.333 0 -100 -8 -140 -24s-71 -37 -93 -63c-21.333 -25.333 -37.666 -52.333 -48.999 -81c-10.667 -27.333 -16 -56.666 -16 -87.999z
" />
    <glyph glyph-name="nine" unicode="9" horiz-adv-x="1178" 
d="M77 1022c0 151.333 46.998 271.998 140.998 361.998s212 135 354 135c68.667 0 130.667 -12.333 186 -37c56.667 -25.333 103.334 -58.333 140.001 -99c38 -42 69.667 -90.333 95 -145c26.667 -57.333 45.334 -115.666 56.001 -174.999
c11.333 -62.667 17 -125.667 17 -189v-23c0 -30.667 -0.5 -60.167 -1.5 -88.5s-2.16699 -55.833 -3.5 -82.5s-3.5 -54.167 -6.5 -82.5s-7.16699 -57.833 -12.5 -88.5c-10 -60 -23 -115.333 -39 -166c-16 -49.333 -38 -97.666 -66 -144.999c-28.667 -48 -61 -87.667 -97 -119
c-38 -32.667 -83.333 -58.334 -136 -77.001c-54.667 -19.333 -114.667 -29 -180 -29c-163.333 0 -285.333 61.333 -366 184l119 83c33.333 -41.333 73.333 -71 120 -89s90.667 -27 132 -27c56.667 0 107.667 12.667 153 38s82 58 110 98s51 88 69 144s31 112.333 39 169
s12 116.667 12 180c-102 -131.333 -225 -197 -369 -197c-140.667 0 -252.667 42.667 -336 128c-82.667 84.667 -124 198.334 -124 341.001zM237.998 1027c0 -101.333 28.666 -180.667 85.999 -238c56.667 -56.667 137.667 -85 243 -85c62.667 0 115.667 12.333 159 37
c44.667 25.333 78.334 56.333 101.001 93c40 62 60 123.333 60 184c0 100.667 -30 184 -90 250s-140 99 -240 99c-95.333 0 -172.333 -30.333 -231 -91c-59.333 -61.333 -89 -143.333 -89 -246z" />
    <glyph glyph-name="colon" unicode=":" horiz-adv-x="508" 
d="M107 121c0 41.333 14.333 76.333 43 105s63.667 43 105 43s76.333 -14.333 105 -43s43 -63.667 43 -105s-14.333 -76.333 -43 -105s-63.667 -43 -105 -43s-76.333 14.333 -105 43s-43 63.667 -43 105zM107 963c0 41.333 14.333 76.333 43 105s63.667 43 105 43
s76.333 -14.333 105 -43s43 -63.667 43 -105s-14.333 -76.333 -43 -105s-63.667 -43 -105 -43s-76.333 14.333 -105 43s-43 63.667 -43 105z" />
    <glyph glyph-name="semicolon" unicode=";" horiz-adv-x="502" 
d="M101 963c0 41.333 14.333 76.333 43 105s63.667 43 105 43s76.333 -14.333 105 -43s43 -63.667 43 -105s-14.333 -76.333 -43 -105s-63.667 -43 -105 -43s-76.333 14.333 -105 43s-43 63.667 -43 105zM107 -208l23 453h242l-128 -453h-137z" />
    <glyph glyph-name="less" unicode="&#x3c;" horiz-adv-x="803" 
d="M109 757l561 532v-200l-437 -401l437 -401v-204l-561 534v140z" />
    <glyph glyph-name="equal" unicode="=" horiz-adv-x="1159" 
d="M155 546h849v-139h-849v139zM155 985h849v-141h-849v141z" />
    <glyph glyph-name="greater" unicode="&#x3e;" horiz-adv-x="803" 
d="M133 287l437 401l-437 401v200l561 -532v-140l-561 -534v204z" />
    <glyph glyph-name="question" unicode="?" horiz-adv-x="949" 
d="M84 1316c26.667 48.667 61.666 88.998 104.999 120.998c42.667 32 84.334 54 125.001 66c40 12 80.667 18 122 18c128.667 0 225 -32 289 -96s96 -144.667 96 -242c0 -49.333 -9.66699 -97.333 -29 -144c-19.333 -46 -43.333 -87 -72 -123
c-29.333 -36 -58.333 -71 -87 -105c-29.333 -34 -55.333 -71 -78 -111c-23.333 -40 -37.333 -79.333 -42 -118c-4 -35.333 -6 -86.666 -6 -153.999h-169v133c0 50 10.667 100.333 32 151s47.333 95.334 78 134.001s61.667 76.667 93 114c30.667 36.667 56.667 74.667 78 114
s32 76.333 32 111c0 52 -17 96 -51 132s-85 54 -153 54c-104 0 -184.333 -46 -241 -138l-123 87zM282.999 116.998c0 41.333 14.333 76.333 43 105s63.667 43 105 43s76.333 -14.333 105 -43s43 -63.667 43 -105s-14.333 -76.333 -43 -105s-63.667 -43 -105 -43
s-76.333 14.333 -105 43s-43 63.667 -43 105z" />
    <glyph glyph-name="at" unicode="@" horiz-adv-x="1669" 
d="M100 732c0 108.667 16.0029 210.668 48.0029 306.001c32 94.667 78 177.667 138 249s135.333 127.333 226 168c90 40.667 191 61 303 61c152.667 0 284.667 -32.333 396 -97c112 -65.333 197 -155.333 255 -270c58 -115.333 87 -248.333 87 -399
c0 -48 -6.66699 -96.667 -20 -146c-13.333 -48.667 -32.333 -93.334 -57 -134.001s-58 -74 -100 -100s-89.333 -39 -142 -39c-56.667 0 -103.667 10.667 -141 32c-36.667 20.667 -65 56.334 -85 107.001h-3c-67.333 -98 -155.333 -147 -264 -147
c-77.333 0 -140.333 25 -189 75c-48.667 49.333 -73 112.666 -73 189.999c0 38 6 72 18 102c12 29.333 27.667 54.333 47 75c18 19.333 42.667 36.666 74 51.999c28.667 14 57.667 25.333 87 34c28 8 61 14 99 18c19.333 2 37.166 3.66699 53.499 5s31.166 2.33301 44.499 3
s28 1.16699 44 1.5s33 0.5 51 0.5c0.666992 42.667 -0.333008 76 -3 100s-10.334 45.667 -23.001 65c-12 18.667 -30 31.667 -54 39c-25.333 7.33301 -58 11 -98 11c-74 0 -144.667 -24.333 -212 -73l-59 87c30 29.333 70.667 53.666 122 72.999
c49.333 18.667 96.666 28 141.999 28c40 0 75.667 -3 107 -9s58 -14 80 -24c22.667 -10 41.334 -24 56.001 -42c14.667 -17.333 26.667 -36 36 -56c8.66699 -19.333 15.667 -43.333 21 -72c2.66699 -14.667 4.66699 -29 6 -43s2.66602 -27.667 3.99902 -41
c2 -27.333 3 -60.333 3 -99v-282c0 -74 37.333 -111 112 -111c30.667 0 57.667 7.33301 81 22c24 14.667 43 33.667 57 57c14.667 24 26.334 50 35.001 78c4.66699 14.667 8.66699 29 12 43s6 27.667 8 41c4 26.667 6 53.334 6 80.001c0 98 -13 187 -39 267
c-26 80.667 -64 150.334 -114 209.001c-49.333 58.667 -113.333 104 -192 136c-78 32 -167.667 48 -269 48c-76 0 -146.333 -11 -211 -33s-120 -53 -166 -93c-44.667 -39.333 -84 -87 -118 -143c-32.667 -54 -57 -114.333 -73 -181c-16 -66 -24 -135.333 -24 -208
c0 -78.667 7.33301 -150.667 22 -216c14.667 -66.667 37.667 -128 69 -184c30.667 -54.667 69.334 -102 116.001 -142c46.667 -39.333 102.667 -70 168 -92c66 -22 139.667 -33 221 -33c50.667 0 102 6 154 18c51.333 12 94.333 30.667 129 56l71 -85
c-75.333 -68 -191.333 -102 -348 -102c-158.667 0 -292.334 32 -401.001 96c-109.333 64 -190.333 153 -243 267c-52.667 113.333 -79 248 -79 404zM598.003 588.001c0 -48 14.667 -85.667 44 -113s68.333 -41 117 -41c50.667 0 96.667 16 138 48
c40.667 32 73.667 72.667 99 122v166h-41c-236.667 0 -355 -61 -355 -183z" />
    <glyph glyph-name="A" unicode="A" 
d="M558 1504h176l550 -1504h-184l-146 402h-624l-149 -402h-172zM897 557l-256 705l-258 -705h514z" />
    <glyph glyph-name="B" unicode="B" horiz-adv-x="1288" 
d="M172 1503h476c64 0 123 -7.66699 177 -23c52.667 -15.333 99.667 -38.333 141 -69c40.667 -31.333 72.667 -73.333 96 -126c23.333 -54 35 -115.333 35 -184c0 -136.667 -51 -241 -153 -313c76.667 -16 138.667 -53.667 186 -113s71 -137 71 -233
c0 -161.333 -41 -275.333 -123 -342c-81.333 -66.667 -205 -100 -371 -100h-537zM714 159c110.667 0 191.667 20.667 243 62s77 113.333 77 216c0 176 -98 264 -294 264h-402v-543zM692 858c78 0 137 21 177 63s60 100 60 174c0 78.667 -23.333 140 -70 184
c-47.333 44 -117.333 66 -210 66h-311v-488z" />
    <glyph glyph-name="C" unicode="C" horiz-adv-x="1273" 
d="M103 741c0 42.667 1.99707 83.998 5.99707 123.998s9.66699 79 17 117c14.667 74.667 38.334 145.667 71.001 213c32 66 71 123 117 171s102.667 86 170 114c66.667 28 140.667 42 222 42c82.667 0 165.667 -20.333 249 -61
c84.667 -41.333 154.334 -106.333 209.001 -195l-130 -94c-85.333 123.333 -196 185 -332 185c-87.333 0 -162.666 -27.333 -225.999 -82c-64 -55.333 -112 -128.666 -144 -219.999c-32 -92 -48 -196 -48 -312c0 -112.667 17.333 -214.667 52 -306
c35.333 -92.667 84.666 -165.667 147.999 -219c64 -54 136.333 -81 217 -81c157.333 0 279 67 365 201l130 -93c-36.667 -62.667 -82.667 -115 -138 -157c-54.667 -41.333 -110 -70.666 -166 -87.999c-54.667 -16.667 -113 -25 -175 -25c-81.333 0 -156 14 -224 42
c-67.333 28 -124.666 66 -171.999 114s-87.333 105 -120 171c-33.333 66 -57.333 136 -72 210c-15.333 75.333 -23 152.333 -23 231z" />
    <glyph glyph-name="D" unicode="D" horiz-adv-x="1376" 
d="M169 1503h324c532.667 0 799 -255 799 -765c0 -214 -60 -388 -180 -522s-280.333 -206 -481 -216h-461zM590 161c50 0 99 7.33301 147 22c49.333 15.333 97 38.333 143 69s87 67.667 123 111c35.333 42 63.666 94.667 84.999 158c21.333 62.667 32 129.667 32 201
c-1.33301 198 -55.333 351 -162 459c-107.333 108 -259.666 162 -456.999 162h-161v-1184z" />
    <glyph glyph-name="E" unicode="E" horiz-adv-x="1180" 
d="M170 1505h915l-9 -160h-736v-506h646l-10 -152h-636v-527h754l-9 -160h-915v1505z" />
    <glyph glyph-name="F" unicode="F" horiz-adv-x="1114" 
d="M170 1504h891l-9 -161h-710v-510l648 1l-9 -155h-639v-679h-172v1504z" />
    <glyph glyph-name="G" unicode="G" horiz-adv-x="1373" 
d="M105 747c0 75.333 6.66602 149.333 19.999 222c12.667 70.667 34.667 140 66 208c30.667 68 69.667 127 117 177c46.667 50 106.334 90 179.001 120c72 30 153 45 243 45c60 0 118.667 -8.66699 176 -26s113 -46.666 167 -87.999c55.333 -42 101.333 -94.333 138 -157
l-130 -94c-86 134 -207.333 201 -364 201c-62 0 -118 -12 -168 -36c-49.333 -24 -90.333 -55.667 -123 -95c-32 -39.333 -59 -85.333 -81 -138c-21.333 -52 -36.666 -106.333 -45.999 -163c-4.66699 -28 -8 -56.167 -10 -84.5s-3 -57.5 -3 -87.5c0 -70 5 -135.333 15 -196
s26 -117 48 -169s49.333 -96.333 82 -133c33.333 -37.333 73.666 -66.333 120.999 -87s101 -31 161 -31c171.333 0 296.666 85.667 375.999 257v186h-319v164h479l1 -741h-125l-20 180c-46 -68 -102.333 -120 -169 -156c-67.333 -36 -141.333 -54 -222 -54
c-84.667 0 -162 13.667 -232 41c-68.667 26.667 -126 63.667 -172 111c-45.333 46.667 -83.666 103.667 -114.999 171s-53.333 138.666 -66 213.999c-6.66699 38 -11.667 77.333 -15 118s-5 83 -5 127z" />
    <glyph glyph-name="H" unicode="H" horiz-adv-x="1343" 
d="M170 1504h171v-655h662v655h170v-1504h-170v687h-662v-687h-171v1504z" />
    <glyph glyph-name="I" unicode="I" horiz-adv-x="515" 
d="M170 1504h175v-1504h-175v1504z" />
    <glyph glyph-name="J" unicode="J" horiz-adv-x="861" 
d="M30 151c74.667 -16 132.667 -24 174 -24c64.667 0 118.667 8 162 24c42.667 16 76.667 41 102 75c24.667 33.333 42 73 52 119c10 44.667 15 99.667 15 165v993h174l1 -1026c0 -171.333 -36.667 -298.333 -110 -381c-73.333 -82 -193 -123 -359 -123
c-84 0 -165 10.333 -243 31z" />
    <glyph glyph-name="K" unicode="K" horiz-adv-x="1231" 
d="M170 1504l169.001 -0.000976562v-703c13.333 16.667 31.666 38.334 54.999 65.001s52 58.667 86 96l221 245l268 297l216 1l-547 -609l592 -896h-212l-500 769l-178 -193l-1 -576h-169v1504z" />
    <glyph glyph-name="L" unicode="L" horiz-adv-x="1085" 
d="M170 1504h176v-1339h709l-9 -165h-876v1504z" />
    <glyph glyph-name="M" unicode="M" horiz-adv-x="1606" 
d="M170 1504h189l446 -937l439 937h192v-1504h-170v1166l-18 -49l-387 -812h-114l-385 812l-22 49v-1166h-170v1504z" />
    <glyph glyph-name="N" unicode="N" horiz-adv-x="1370" 
d="M171 1504l162 0.000976562c372 -619.333 568 -945.333 588 -978c46.667 -79.333 84.667 -149.333 114 -210c-1.33301 38.667 -2.33301 157 -3 355s-1 475.667 -1 833h169v-1504h-165c-221.333 372.667 -390 657.667 -506 855s-179.667 307.666 -191 330.999l-3 -2
c1.33301 -55.333 2.5 -107.833 3.5 -157.5s1.5 -97.167 1.5 -142.5v-884h-170z" />
    <glyph glyph-name="O" unicode="O" horiz-adv-x="1380" 
d="M107 754c0 75.333 7.66699 150.332 23 224.999c14.667 72.667 37.667 142 69 208c31.333 66.667 69.333 124.334 114 173.001s99.667 87.667 165 117c64 28.667 135 43 213 43c92.667 0 176.667 -21 252 -63c74.667 -42 135.667 -98.667 183 -170
c46.667 -71.333 82.667 -152.333 108 -243c25.333 -92 38 -188.333 38 -289c0 -57.333 -4 -114.333 -12 -171c-4 -28.667 -9 -57.667 -15 -87s-13.333 -59 -22 -89c-16.667 -59.333 -40.334 -115 -71.001 -167c-29.333 -50 -65 -96 -107 -138
c-41.333 -41.333 -92.333 -73.333 -153 -96c-62 -23.333 -129 -35 -201 -35c-70.667 0 -136 11 -196 33c-60.667 22 -111.667 52.333 -153 91c-42 38.667 -78.333 83 -109 133c-30.667 48.667 -55 103.667 -73 165c-9.33301 30 -17.166 60 -23.499 90s-11.833 60 -16.5 90
s-8 60.167 -10 90.5s-3 61.5 -3 93.5v-4zM286 747.999c0 -21.333 0.666016 -42.5 1.99902 -63.5s3.33301 -42.167 6 -63.5c4.66699 -42 12.667 -87.333 24 -136c10.667 -47.333 26.667 -91.666 48 -132.999c20.667 -40 45.667 -77.333 75 -112
c28.667 -33.333 64.667 -59.666 108 -78.999c44 -19.333 91.667 -29 143 -29c47.333 0 91 8 131 24s73.667 37.667 101 65c26.667 26.667 50.667 58.667 72 96c10.667 18.667 20.167 37.167 28.5 55.5s15.5 36.833 21.5 55.5c12 36.667 22 75.667 30 117
c4 20.667 7.33301 40.167 10 58.5s4.66699 35.5 6 51.5s2.33301 31.667 3 47s1 30.666 1 45.999c0 38.667 -3 79 -9 121c-6 41.333 -15 85.666 -27 132.999c-12 46.667 -29 91 -51 133c-22.667 43.333 -48 81.333 -76 114c-29.333 34 -64.666 61 -105.999 81
c-42 20 -88 30 -138 30c-61.333 0 -116.333 -15 -165 -45c-49.333 -30 -88.333 -67.333 -117 -112c-29.333 -45.333 -53.333 -96.333 -72 -153c-19.333 -57.333 -32.333 -110.333 -39 -159c-3.33301 -24.667 -5.83301 -48.667 -7.5 -72s-2.5 -46 -2.5 -68v-3z" />
    <glyph glyph-name="P" unicode="P" horiz-adv-x="1173" 
d="M167 1504l397 -0.000976562c78.667 0 148.667 -8 210 -24c62 -16 116 -41.333 162 -76c47.333 -35.333 83.333 -82.666 108 -141.999s37 -131.333 37 -216c0 -140.667 -43 -250 -129 -328s-200.667 -117 -344 -117h-268v-601h-170zM604 758.999c54 0 104 9.66699 150 29
c44.667 18.667 81.667 49.667 111 93s44 95.333 44 156c0 206.667 -105.667 310 -317 310h-255v-589z" />
    <glyph glyph-name="Q" unicode="Q" horiz-adv-x="1380" 
d="M109 757c0 75.333 7.66699 150.332 23 224.999c14.667 72.667 37.667 142 69 208c31.333 66.667 69.333 124.334 114 173.001s99.667 87.667 165 117c64 28.667 135 43 213 43c92.667 0 176.667 -21 252 -63c74.667 -42 135.667 -98.667 183 -170
c46.667 -71.333 82.667 -152.333 108 -243c25.333 -92 38 -188.333 38 -289c0 -109.333 -14 -217.333 -42 -324s-72.667 -197.667 -134 -273l151 -254l-125 -91l-142 239c-81.333 -54 -178 -81 -290 -81c-72.667 0 -139 11 -199 33c-60.667 22 -111.667 52.333 -153 91
c-42 38.667 -78.333 83 -109 133c-30.667 48.667 -55 103.667 -73 165c-18 60 -31 119.667 -39 179c-8 58.667 -12 119.667 -12 183zM289 748.999c0 -21.333 0.666016 -42.5 1.99902 -63.5s3.33301 -42.167 6 -63.5c4.66699 -42 12.667 -87.333 24 -136
c10.667 -47.333 26.667 -91.666 48 -132.999c20.667 -40 45.667 -77.333 75 -112c28.667 -33.333 64.667 -59.666 108 -78.999c44 -19.333 91.667 -29 143 -29c76.667 0 143.667 21.667 201 65l-166 279l124 92l147 -246c35.333 63.333 60.333 133.666 75 210.999
c7.33301 39.333 12.833 76.833 16.5 112.5s5.5 70.5 5.5 104.5c0 38.667 -3 79 -9 121c-6 41.333 -15 85.666 -27 132.999c-12 46.667 -29 91 -51 133c-22.667 43.333 -48 81.333 -76 114c-29.333 34 -64.666 61 -105.999 81c-42 20 -88 30 -138 30
c-61.333 0 -116.333 -15 -165 -45c-49.333 -30 -88.333 -67.333 -117 -112c-29.333 -45.333 -53.333 -96.333 -72 -153c-19.333 -57.333 -32.333 -110.333 -39 -159c-3.33301 -24.667 -5.83301 -48.667 -7.5 -72s-2.5 -46 -2.5 -68z" />
    <glyph glyph-name="R" unicode="R" horiz-adv-x="1231" 
d="M171 1503l427 -0.000976562c343.333 0 515 -149.333 515 -448c0 -102.667 -27 -190 -81 -262c-54 -71.333 -128 -120.666 -222 -147.999l409 -645h-207l-381 621h-291v-621h-170zM636 775.999c84.667 0 157 24 217 72s90 114 90 198c0 97.333 -27.333 171.333 -82 222
s-133 76 -235 76h-285v-567z" />
    <glyph glyph-name="S" unicode="S" horiz-adv-x="1093" 
d="M192 311c89.333 -123.333 213.333 -185.002 372 -185.002c89.333 0 160 25 212 75s78 117.667 78 203c0 40.667 -8.33301 75.667 -25 105s-39.667 53.666 -69 72.999c-30 20 -63 36.667 -99 50c-37.333 14 -76.333 27 -117 39c-41.333 12 -82.333 25 -123 39
c-20.667 7.33301 -40.667 15.333 -60 24s-38.333 18.334 -57 29.001c-36 20.667 -69 45.334 -99 74.001c-28.667 28 -51.667 64.667 -69 110c-16.667 44 -25 95.333 -25 154c0 128.667 39 231 117 307s181.667 114 311 114c17.333 0 34.833 -1 52.5 -3
s35.5 -4.66699 53.5 -8s36.333 -8 55 -14s37.667 -13 57 -21c38 -16 76 -39.667 114 -71c36.667 -31.333 68.667 -68.333 96 -111l-124 -89c-30.667 43.333 -65.667 78 -105 104c-40.667 26.667 -76.667 43.334 -108 50.001c-33.333 7.33301 -65.333 11 -96 11
c-74 0 -134.333 -25 -181 -75c-46.667 -49.333 -70 -115.666 -70 -198.999c0 -36.667 7 -68.334 21 -95.001c14 -27.333 33 -49.333 57 -66c12 -8.66699 25 -16.667 39 -24s28.667 -14.666 44 -21.999c32.667 -14.667 65.667 -26.334 99 -35.001
c17.333 -4.66699 35 -9.66699 53 -15s36.333 -11 55 -17s37 -12 55 -18s35.667 -12.333 53 -19c36 -13.333 69 -30.666 99 -51.999c15.333 -11.333 30 -23 44 -35s27 -24.667 39 -38c24 -26.667 43 -61.334 57 -104.001c14 -42 21 -89.667 21 -143
c0 -139.333 -43.333 -247 -130 -323c-87.333 -76 -201.666 -114 -342.999 -114c-96 0 -188.333 20.667 -277 62s-160.334 104.333 -215.001 189z" />
    <glyph glyph-name="T" unicode="T" horiz-adv-x="1031" 
d="M28 1504h975v-159h-396v-1345h-175v1345h-404v159z" />
    <glyph glyph-name="U" unicode="U" horiz-adv-x="1328" 
d="M147 1503h172v-962c0 -43.333 3 -83.333 9 -120c6 -37.333 17 -74.333 33 -111s36 -68 60 -94s56 -47 96 -63s86.667 -24 140 -24c58 0 108.667 8 152 24c42.667 16 76.667 36.667 102 62c24.667 24.667 44.667 56.334 60 95.001c14.667 38 24.667 75 30 111
c2.66699 18 4.66699 37.167 6 57.5s2 41.833 2 64.5l1 960h168v-961c0 -59.333 -5 -115 -15 -167c-10 -52.667 -27.333 -104 -52 -154c-24.667 -50.667 -56 -94 -94 -130s-87.667 -65 -149 -87s-131.333 -33 -210 -33c-79.333 0 -149.333 11 -210 33
c-61.333 22 -110.333 51 -147 87s-66.667 79.667 -90 131s-39.333 102.666 -48 153.999c-4.66699 26 -8 53 -10 81s-3 57 -3 87z" />
    <glyph glyph-name="V" unicode="V" horiz-adv-x="1191" 
d="M189 1505l413 -1262l411 1262h174l-500 -1505h-178l-504 1505h184z" />
    <glyph glyph-name="W" unicode="W" horiz-adv-x="1696" 
d="M188 1505l289 -1171l19 -85l15 86l246 1170h186l252 -1158l13 -75l16 75l297 1158h167l-386 -1505h-203l-240 1109l-13 80l-14 -79l-248 -1110h-196l-381 1505h181z" />
    <glyph glyph-name="X" unicode="X" horiz-adv-x="1165" 
d="M486 807l-449 697h213l332 -551l329 551h205l-440 -684l489 -820h-207l-374 664l-375 -664h-207z" />
    <glyph glyph-name="Y" unicode="Y" horiz-adv-x="1159" 
d="M208 1504l376 -729l379 729h186l-484 -910v-594h-169v592l-486 912h198z" />
    <glyph glyph-name="Z" unicode="Z" horiz-adv-x="1198" 
d="M95 148l795 1200c-8.66699 -0.666992 -24.667 -1.16699 -48 -1.5s-54.333 -0.5 -93 -0.5h-619l11 158h958v-149c-518 -787.333 -782 -1186.33 -792 -1197c7.33301 0.666992 22 1.16699 44 1.5s51.333 0.5 88 0.5h678l-9 -160h-1012z" />
    <glyph glyph-name="bracketleft" unicode="[" horiz-adv-x="727" 
d="M185 1504h421v-135h-265v-1509h265v-136h-421v1780z" />
    <glyph glyph-name="backslash" unicode="\" horiz-adv-x="824" 
d="M197 1610l580 -1781h-152l-578 1781h150z" />
    <glyph glyph-name="bracketright" unicode="]" horiz-adv-x="727" 
d="M386 -140v1509h-265v135h421v-1780h-421v136h265z" />
    <glyph glyph-name="asciicircum" unicode="^" horiz-adv-x="1144" 
d="M513 1503h120l422 -641h-190l-295 491l-292 -491h-189z" />
    <glyph glyph-name="underscore" unicode="_" horiz-adv-x="1003" 
d="M1008 -169v-144h-1013v144h1013z" />
    <glyph glyph-name="grave" unicode="`" horiz-adv-x="439" 
d="M175 1549l214 -323h-140l-309 323h235z" />
    <glyph glyph-name="a" unicode="a" horiz-adv-x="1033" 
d="M70 309c0 48.667 7.99805 92.665 23.998 131.998c16 38.667 36 71 60 97c23.333 25.333 54.333 47.666 93 66.999c36.667 18 73.667 32.333 111 43c18 5.33301 37.5 9.83301 58.5 13.5s43.5 6.83398 67.5 9.50098c48 4.66699 89.667 7.66699 125 9
c17.333 0.666992 36 1.16699 56 1.5s41.333 0.5 64 0.5c0 24 -0.666992 46 -2 66s-3.33301 37.667 -6 53c-5.33301 32 -15.666 60.667 -30.999 86c-16 26 -39.333 45 -70 57c-31.333 12 -71.333 18 -120 18c-85.333 0 -174.333 -32.667 -267 -98l-79 118
c42.667 41.333 93.667 73 153 95c60 22 121.333 33 184 33c40.667 0 77.667 -3 111 -9c32.667 -6 61.667 -14 87 -24c24.667 -10 47.334 -23.667 68.001 -41s37.667 -34.666 51 -51.999c14 -18 26 -40 36 -66s18 -51 24 -75c3.33301 -12 6 -25.167 8 -39.5
s3.66699 -29.833 5 -46.5c2.66699 -32.667 4.66699 -63.334 6 -92.001c0.666992 -14 1.16699 -29.167 1.5 -45.5s0.5 -34.166 0.5 -53.499v-370c0 -52 17.667 -78 53 -78h57v-119c-48 -12 -85 -18 -111 -18c-48 0 -84 17.667 -108 53c-24 34.667 -36 77.334 -36 128.001h-4
c-82 -122.667 -193 -184 -333 -184c-98 0 -178 31 -240 93s-93 142 -93 240zM228.998 310.998c0 -60.667 18 -108 54 -142s85 -51 147 -51c64.667 0 122.667 20 174 60s93 91.667 125 155v213h-52c-299.333 0 -449 -78.333 -449 -235h1z" />
    <glyph glyph-name="b" unicode="b" horiz-adv-x="1168" 
d="M139 1492l159.002 59.999v-635c77.333 127.333 189.333 191 336 191c62 0 117.667 -10.333 167 -31c50.667 -21.333 92.667 -49.666 126 -84.999c34.667 -36.667 63.667 -79 87 -127s40.666 -100 51.999 -156c11.333 -56.667 17 -114.667 17 -174
c0 -44.667 -4 -90 -12 -136c-8 -47.333 -22.333 -96.333 -43 -147c-20.667 -51.333 -47.334 -97.333 -80.001 -138c-32 -40 -75 -73 -129 -99s-115.333 -39 -184 -39c-72.667 0 -139 17 -199 51s-108 82 -144 144l-18 -171h-135v1492zM299.002 363.999
c17.333 -44.667 41.332 -84.335 71.999 -119.002c66 -79.333 148.667 -119 248 -119c38 0 72 7.33301 102 22c30.667 14.667 56.667 34.334 78 59.001c10.667 12 20.5 24.667 29.5 38s17.5 27.333 25.5 42c16 28.667 28 59.334 36 92.001c8 31.333 14 61 18 89
c4 26.667 6 51.667 6 75c0 127.333 -26 228 -78 302s-124.667 111 -218 111c-62.667 0 -122.667 -17.333 -180 -52s-103.666 -89.667 -138.999 -165v-376v1z" />
    <glyph glyph-name="c" unicode="c" horiz-adv-x="990" 
d="M82 533c0 31.333 1.33105 61.501 3.99805 90.501s6.66699 57.5 12 85.5c10.667 53.333 28.334 105.666 53.001 156.999c24 50 54 93 90 129c35.333 35.333 81 63.666 137 84.999c54 20.667 115 31 183 31c65.333 0 130.333 -16.333 195 -49
c64.667 -33.333 117.667 -85.333 159 -156l-123 -87c-31.333 50.667 -68.333 86.667 -111 108c-44 21.333 -87 32 -129 32c-93.333 0 -166.333 -40 -219 -120c-53.333 -80.667 -80 -182 -80 -304c0 -116.667 27.667 -213.667 83 -291c54.667 -76.667 127.667 -115 219 -115
c107.333 0 190.333 49.333 249 148l124 -87c-40 -73.333 -93 -127.333 -159 -162c-65.333 -34.667 -133.666 -52 -204.999 -52c-64 0 -123.333 9.66699 -178 29c-52.667 18.667 -98 45.334 -136 80.001c-36.667 34 -67.667 74.667 -93 122c-24.667 46 -43 97 -55 153
c-12 54.667 -18 113 -18 175z" />
    <glyph glyph-name="d" unicode="d" horiz-adv-x="1169" 
d="M81 509c0 78.667 9.33398 152.333 28.001 221c19.333 70.667 46.666 134.667 81.999 192c36 58 84 104 144 138s127.667 51 203 51c158.667 0 270.667 -64 336 -192v576l159 60v-1555h-134l-18 177c-35.333 -61.333 -85.333 -110 -150 -146
c-65.333 -36 -133.666 -54 -204.999 -54c-68.667 0 -130.334 12.667 -185.001 38c-54 25.333 -96.667 57 -128 95s-57.333 82 -78 132s-34.667 96.667 -42 140c-3.33301 21.333 -5.83301 42.5 -7.5 63.5s-2.5 41.833 -2.5 62.5zM255.001 524.999
c0 -36.667 2.99805 -72.333 8.99805 -107c6 -34 16.667 -69.667 32 -107c14.667 -34.667 33.334 -66 56.001 -94c22 -27.333 51 -49.333 87 -66c35.333 -16.667 76 -25 122 -25c94 0 173.667 39 239 117c28.667 35.333 52.667 75 72 119v380
c-35.333 74.667 -81.333 129.667 -138 165c-57.333 35.333 -113.666 53 -168.999 53c-98.667 0 -175 -39.667 -229 -119s-81 -184 -81 -314v-2z" />
    <glyph glyph-name="e" unicode="e" horiz-adv-x="1062" 
d="M85 513c0 182 41.001 326.999 123.001 434.999s198.333 162 349 162c60.667 0 114.667 -10.333 162 -31c48 -21.333 88 -49.333 120 -84c32.667 -36 59.334 -77.333 80.001 -124c20.667 -48 35.667 -98 45 -150c4.66699 -26 8.16699 -52.5 10.5 -79.5
s3.5 -54.833 3.5 -83.5c0 -10 -0.166992 -19.667 -0.5 -29s-0.833008 -18.333 -1.5 -27h-728c0 -116 25.667 -208.333 77 -277c50.667 -68 124.667 -102 222 -102c63.333 0 117.333 13.333 162 40c45.333 27.333 85 69.333 119 126l124 -87
c-45.333 -79.333 -100.333 -136.333 -165 -171c-65.333 -35.333 -152.333 -53 -261 -53c-74.667 0 -141.334 15.667 -200.001 47c-57.333 30.667 -103.333 72.334 -138 125.001s-60.334 109.667 -77.001 171c-17.333 63.333 -26 128 -26 194v-2zM811.001 631.999
c0 40.667 -5 79.667 -15 117s-25.333 71.666 -46 102.999c-20.667 32 -49 57.333 -85 76c-35.333 18.667 -77 28 -125 28c-45.333 0 -86.333 -10 -123 -30c-37.333 -20 -67 -46 -89 -78s-39 -66.667 -51 -104s-18 -73.666 -18 -108.999z" />
    <glyph glyph-name="f" unicode="f" horiz-adv-x="609" 
d="M11 1096h169v168c0 88.667 26 159.667 78 213s122.667 80 212 80c48.667 0 101 -8.33301 157 -25l-31 -147c-43.333 10 -80 15 -110 15c-47.333 0 -83 -14 -107 -42s-36 -64.333 -36 -109v-154h228v-135h-228v-960h-163v960h-169v136z" />
    <glyph glyph-name="g" unicode="g" horiz-adv-x="1162" 
d="M78 510c0 59.333 5.66895 118.329 17.002 176.996c10.667 56 28.334 110 53.001 162c24 50.667 53.667 95.334 89 134.001s78.333 69.334 129 92.001c50 22.667 106 34 168 34c159.333 0 271 -63.333 335 -190l18 174h140v-909c0 -25.333 -0.333008 -49.166 -1 -71.499
s-1.66699 -43.833 -3 -64.5s-3.5 -41.5 -6.5 -62.5s-6.5 -42.167 -10.5 -63.5c-8 -43.333 -19 -81.333 -33 -114c-14.667 -34 -33 -66 -55 -96c-22.667 -30.667 -49.667 -56 -81 -76c-30.667 -20 -68.334 -36 -113.001 -48c-44 -12 -93.333 -18 -148 -18
c-186 0 -327.333 57.333 -424 172l102 98c79.333 -81.333 180.333 -122 303 -122c49.333 0 93 7.66699 131 23c37.333 15.333 68 36 92 62s43 59 57 99s24 82 30 126s9 94.667 9 152c-35.333 -61.333 -84.333 -108.333 -147 -141s-131.334 -49 -206.001 -49
c-69.333 0 -130.666 12.333 -183.999 37c-54.667 25.333 -97.334 56.333 -128.001 93c-31.333 38 -57 81 -77 129c-20.667 50 -34.334 95.667 -41.001 137c-3.33301 21.333 -5.83301 42.333 -7.5 63s-2.5 41.334 -2.5 62.001zM253.002 527.996
c0 -45.333 4.99902 -89.334 14.999 -132.001s26 -84 48 -124s53.667 -72.667 95 -98c40.667 -24.667 89.334 -37 146.001 -37c91.333 0 171 39.333 239 118c28.667 34 52 74 70 120v369c-22 51.333 -52 94 -90 128c-38.667 34.667 -75.667 58.334 -111 71.001
c-36.667 13.333 -72 20 -106 20c-99.333 0 -175.333 -40 -228 -120c-53.333 -80.667 -80 -185.667 -80 -315h2z" />
    <glyph glyph-name="h" unicode="h" horiz-adv-x="1115" 
d="M141 1496l163.001 60v-637h6c80.667 128.667 185 193 313 193c242.667 0 364 -145.333 364 -436v-675h-163v676c0 88 -19 157 -57 207s-95.333 75 -172 75c-81.333 0 -154.333 -41 -219 -123c-30.667 -38.667 -55.334 -79.667 -74.001 -123v-713h-163z" />
    <glyph glyph-name="i" unicode="i" horiz-adv-x="485" 
d="M57 1093h289v-1093h-162v953h-127v140zM145 1400c0 33.333 12.333 62 37 86s52.667 36 84 36c30.667 0 58.667 -12 84 -36c24.667 -24 37 -52.667 37 -86s-12.333 -62 -37 -86c-25.333 -24 -53.333 -36 -84 -36c-31.333 0 -59.333 12 -84 36s-37 52.667 -37 86z" />
    <glyph glyph-name="j" unicode="j" horiz-adv-x="511" 
d="M-18 -406l20 129c20.667 -2.66699 39.5 -4.5 56.5 -5.5s32.167 -1.5 45.5 -1.5c44 0 73 10.333 87 31s21 50 21 88v1118h-127v139h289v-1257c0 -77.333 -21 -140.333 -63 -189c-42 -49.333 -105.667 -74 -191 -74c-55.333 0 -100.333 7 -135 21zM170 1399
c0 33.333 12.667 62 38 86c24.667 24 52.667 36 84 36c30.667 0 58.667 -12 84 -36s38 -52.667 38 -86s-12.333 -62 -37 -86c-25.333 -24 -53.333 -36 -84 -36c-31.333 0 -59.333 12 -84 36s-37 52.667 -37 86h-2z" />
    <glyph glyph-name="k" unicode="k" horiz-adv-x="975" 
d="M139 1496l159 60v-916l418 455h221l-377 -401l411 -694h-183l-344 578l-146 -157v-421h-159v1496z" />
    <glyph glyph-name="l" unicode="l" horiz-adv-x="504" 
d="M125 1494l161.998 60v-1297c0 -38.667 7.33301 -68.334 22 -89.001c15.333 -21.333 45.333 -32 90 -32c10 0 22.167 0.666992 36.5 2s30.833 3.33301 49.5 6l20 -138c-41.333 -14 -80.666 -21 -117.999 -21c-42.667 0 -80.667 4.66699 -114 14
c-31.333 8.66699 -56.666 20.667 -75.999 36c-18.667 14.667 -33.667 34.334 -45 59.001c-11.333 24 -18.333 48 -21 72c-1.33301 12 -2.5 25 -3.5 39s-1.5 28.667 -1.5 44z" />
    <glyph glyph-name="m" unicode="m" horiz-adv-x="1765" 
d="M140 1091h139l18 -176h4c30 54.667 74 100.334 132 137.001c58.667 37.333 116 56 172 56c174.667 0 283 -70 325 -210h7c34 62.667 80.667 113.667 140 153c58.667 38.667 120.667 58 186 58c134 0 229.667 -36 287 -108c57.333 -72.667 86 -180.334 86 -323.001v-679
h-163v681c0 88.667 -19 158 -57 208s-95.667 75 -173 75s-146.333 -41 -207 -123c-27.333 -37.333 -49.333 -78.333 -66 -123l1 -717h-162v681c0 86 -19 154.667 -57 206s-94.333 77 -169 77c-76 0 -146 -42.667 -210 -128c-28 -37.333 -52 -80.333 -72 -129v-707h-162z" />
    <glyph glyph-name="n" unicode="n" horiz-adv-x="1115" 
d="M141 1096h137l18 -177h6c80.667 128.667 188 193 322 193c242 0 363 -145.333 363 -436v-675h-163v676c0 88 -19 157 -57 207s-95.333 75 -172 75c-81.333 0 -154.333 -41 -219 -123c-28 -36 -52.667 -77 -74 -123v-713h-163z" />
    <glyph glyph-name="o" unicode="o" horiz-adv-x="1098" 
d="M85 542c0 50.667 5.00098 101.662 15.001 152.995c10 50.667 27 101.667 51 153c24.667 52.667 54 97.334 88 134.001c35.333 38 79.666 69 132.999 93c54 24 113.667 36 179 36c67.333 0 128 -12 182 -36s98 -55 132 -93c34.667 -39.333 63.334 -83.666 86.001 -132.999
c23.333 -51.333 39.333 -101.666 48 -150.999c4.66699 -25.333 8.16699 -50.666 10.5 -75.999s3.5 -50.666 3.5 -75.999c0 -58.667 -5.33301 -113.667 -16 -165c-11.333 -53.333 -29.333 -104.333 -54 -153c-25.333 -49.333 -55.333 -92.333 -90 -129
c-34 -36 -77.667 -65.333 -131 -88c-52 -22 -109.333 -33 -172 -33c-63.333 0 -121.333 11 -174 33c-52 21.333 -96.333 51 -133 89c-36 36.667 -66 79.667 -90 129c-24.667 50 -42.334 101 -53.001 153c-10.667 51.333 -16 105.333 -16 162zM246.001 538.995
c0 -70.667 11.333 -137 34 -199c23.333 -63.333 58.333 -116 105 -158s101.334 -63 164.001 -63c64.667 0 120.667 21 168 63c46.667 42 80.667 94 102 156c21.333 62.667 32 129.334 32 200.001c0 56.667 -5.33301 108.667 -16 156c-11.333 48.667 -28.333 93.667 -51 135
c-22.667 40.667 -54 73 -94 97s-86.333 36 -139 36c-52 0 -98 -13 -138 -39c-40.667 -26.667 -72.334 -60.667 -95.001 -102c-22 -40.667 -39.333 -85.334 -52 -134.001c-12 -47.333 -18 -95.333 -18 -144z" />
    <glyph glyph-name="p" unicode="p" horiz-adv-x="1168" 
d="M139 1091l137.998 0.00195312l18 -183c39.333 63.333 88.666 112.333 147.999 147c60.667 35.333 127.334 53 200.001 53c74.667 0 141.334 -15.667 200.001 -47c58 -30.667 104 -73.334 138 -128.001c34.667 -54.667 60.334 -115.334 77.001 -182.001
c17.333 -68 26 -140 26 -216c0 -24.667 -1 -49 -3 -73s-4.66699 -47.667 -8 -71c-6.66699 -46.667 -20.667 -96 -42 -148s-48.333 -97 -81 -135s-77 -69.333 -133 -94c-55.333 -24.667 -119.333 -37 -192 -37c-147.333 0 -256.333 61.333 -327 184v-536l-159 -60v1526z
M295.998 363.002c17.333 -44.667 41.333 -84.333 72 -119c63.333 -77.333 147.333 -116 252 -116c44 0 84.333 10.667 121 32c35.333 20.667 63.666 46.667 84.999 78c22 32 39.667 67 53 105c14.667 40.667 24.334 76.667 29.001 108c2.66699 16.667 4.66699 32.667 6 48
s2 30 2 44c0 125.333 -28 226 -84 302s-130.667 114 -224 114c-58 0 -115.333 -17.333 -172 -52c-57.333 -35.333 -103.333 -90.333 -138 -165v-381z" />
    <glyph glyph-name="q" unicode="q" horiz-adv-x="1161" 
d="M81 491c0 61.333 5.66309 122.333 16.9961 183c10.667 58 28.334 114 53.001 168s54 100 88 138c34.667 38.667 77.334 69.667 128.001 93s106.334 35 167.001 35c144.667 0 257 -65.667 337 -197l18 179h140v-1468l-158 -60v602
c-50 -69.333 -101.333 -118.333 -154 -147s-115.667 -43 -189 -43c-68.667 0 -130 12 -184 36c-53.333 24 -96.333 54.667 -129 92c-31.333 36 -57.666 79 -78.999 129c-21.333 48.667 -35.333 94.667 -42 138c-3.33301 21.333 -6 42.5 -8 63.5s-3 41.833 -3 62.5z
M248.996 519c0 -37.333 3.00098 -73.333 9.00098 -108c6 -36 16.333 -71.333 31 -106c15.333 -36 33.666 -67.333 54.999 -94c22 -27.333 51 -49.333 87 -66c35.333 -16.667 75.666 -25 120.999 -25c96.667 0 178 39.667 244 119c30.667 38 54.334 78 71.001 120v381
c-35.333 76 -80.666 130.667 -135.999 164c-56 34 -113 51 -171 51c-66.667 0 -123.334 -19 -170.001 -57c-47.333 -38 -82.333 -89.333 -105 -154c-22.667 -64 -34 -139 -34 -225h-2z" />
    <glyph glyph-name="r" unicode="r" horiz-adv-x="692" 
d="M135 1092h138.001l18 -192c29.333 65.333 67.333 117 114 155s101.667 57 165 57c14.667 0 29.667 -1 45 -3c7.33301 -1.33301 14.166 -2.5 20.499 -3.5s12.166 -2.16699 17.499 -3.5l30 -9l18 -6l-44 -151c-26 10 -54 15 -84 15c-79.333 0 -149.333 -41 -210 -123
c-25.333 -34.667 -47.666 -75.667 -66.999 -123v-705h-162z" />
    <glyph glyph-name="s" unicode="s" horiz-adv-x="922" 
d="M182 287c68 -112 156.002 -168.003 264.002 -168.003c61.333 0 113.333 16.333 156 49s64 78 64 136c0 27.333 -8 51 -24 71c-16.667 20.667 -37.667 36.334 -63 47.001c-26 10.667 -56 21.667 -90 33c-32.667 10.667 -67.334 20.667 -104.001 30
c-36 9.33301 -70.667 21.333 -104 36c-32.667 14.667 -62.667 32.334 -90 53.001c-26 20 -47 47 -63 81s-24 73.667 -24 119c0 105.333 33 188 99 248s148 90 246 90c64.667 0 129.334 -16.333 194.001 -49c64.667 -33.333 117.667 -85.333 159 -156l-123 -87
c-31.333 51.333 -68.333 88 -111 110c-43.333 22 -85.666 33 -126.999 33c-48.667 0 -89.667 -12.667 -123 -38s-50 -66.333 -50 -123c0 -27.333 8 -51 24 -71s37.667 -35.667 65 -47c28 -11.333 58.333 -22.333 91 -33s67.334 -20.667 104.001 -30
c17.333 -4.66699 34.666 -10 51.999 -16s34.666 -13 51.999 -21c33.333 -15.333 63.666 -33.333 90.999 -54c27.333 -20 49 -47.667 65 -83s24 -76 24 -122c0 -58 -11 -110 -33 -156c-22 -45.333 -51 -81.666 -87 -108.999c-34.667 -26 -73.334 -46.333 -116.001 -61
c-41.333 -14 -83.333 -21 -126 -21c-102.667 0 -185.334 17.667 -248.001 53c-61.333 34.667 -114.666 91.667 -159.999 171z" />
    <glyph glyph-name="t" unicode="t" horiz-adv-x="624" 
d="M6 1094h179.999v215l166 60v-275h246v-139h-246v-688c0 -42.667 8.66699 -75.334 26 -98.001c16.667 -22 50.667 -33 102 -33c3.33301 0 12 0.666992 26 2s33 3.33301 57 6l19 -138c-41.333 -14 -80.666 -21 -117.999 -21c-44.667 0 -84.667 4.66699 -120 14
c-34 8.66699 -61 20.667 -81 36c-20 14.667 -36 34.334 -48 59.001c-12 24 -20 48 -24 72s-6 51.667 -6 83v707h-180z" />
    <glyph glyph-name="u" unicode="u" horiz-adv-x="1094" 
d="M128 1095l162 -0.000976562v-708c0 -79.333 19 -142.333 57 -189s95.333 -70 172 -70c79.333 0 150.333 41.333 213 124c24 32 47.333 74 70 126v717h162v-1095h-138l-18 184h-5c-23.333 -42 -47.333 -77 -72 -105c-25.333 -28 -51.333 -49 -78 -63
c-26 -13.333 -52 -22.666 -78 -27.999c-23.333 -4.66699 -51.333 -7 -84 -7c-118.667 0 -209 35 -271 105s-93 170.667 -93 302z" />
    <glyph glyph-name="v" unicode="v" horiz-adv-x="971" 
d="M196 1095l289 -880l287 880h181l-391 -1095h-155l-391 1095h180z" />
    <glyph glyph-name="w" unicode="w" horiz-adv-x="1362" 
d="M198 1095l201 -886l202 886h165l205 -881l192 881h175l-285 -1095h-165l-207 825l-201 -825h-168l-286 1095h172z" />
    <glyph glyph-name="x" unicode="x" horiz-adv-x="958" 
d="M384 577l-346 518h203l236 -394l233 394h192l-336 -525l373 -570h-200l-267 437l-255 -437h-198z" />
    <glyph glyph-name="y" unicode="y" horiz-adv-x="956" 
d="M193 1096l302.001 -853.001l266 853h180l-433 -1278c-32 -94.667 -69.333 -158.667 -112 -192c-43.333 -34 -109.333 -51 -198 -51c-32.667 0 -70 6 -112 18l19 156c2 -0.666992 5.16699 -1.5 9.5 -2.5s10.166 -2.5 17.499 -4.5c13.333 -4 26 -7 38 -9
c10.667 -2 19.667 -3 27 -3s14 0.166992 20 0.5s11.667 0.833008 17 1.5c10 0.666992 20 3.33398 30 8.00098c8.66699 4 16.667 8 24 12c6.66699 4 13.667 10.667 21 20c6.66699 8.66699 12.667 16.667 18 24c6 8 11.667 19 17 33c6 14.667 11 27.667 15 39l18 48
c2.66699 7.33301 5 14 7 20l5 15c3.33301 8.66699 7 18.5 11 29.5s8.66699 23.167 14 36.5l-399 1078z" />
    <glyph glyph-name="z" unicode="z" horiz-adv-x="984" 
d="M67 114l607 824h-587v157h800v-138l-595 -798h611v-159h-836v114z" />
    <glyph glyph-name="braceleft" unicode="{" horiz-adv-x="816" 
d="M108 661l59 5.99902c47.333 5.33301 79.333 18.666 96 39.999c17.333 22.667 26 63.334 26 122.001v218c0 310.667 142 466 426 466v-109c-87.333 -10 -152.666 -37.667 -195.999 -83c-42.667 -44.667 -64 -113.334 -64 -206.001v-229c0 -83.333 -10 -145.333 -30 -186
s-53.667 -72 -101 -94c47.333 -22 81 -53 101 -93s30 -101.333 30 -184v-217c0 -93.333 20.333 -160.666 61 -201.999c41.333 -42 107.666 -68 198.999 -78v-109c-152 0 -261 37 -327 111s-99 186 -99 336v220c0 60 -8.33301 100.667 -25 122
c-17.333 22.667 -49.333 36.334 -96 41.001l-59 6z" />
    <glyph glyph-name="bar" unicode="|" horiz-adv-x="607" 
d="M227 1676h153v-2078h-153v2078z" />
    <glyph glyph-name="braceright" unicode="}" horiz-adv-x="816" 
d="M102 -168c91.333 10 157.666 36.002 198.999 78.002c40.667 41.333 61 108.666 61 201.999v217c0 83.333 10 145 30 185s53.667 71 101 93c-47.333 22 -81 53.333 -101 94s-30 102.667 -30 186v229c0 92.667 -21.333 161.334 -64 206.001
c-43.333 45.333 -108.666 73 -195.999 83v109c284 0 426 -155.333 426 -466v-228c0 -58.667 8 -97.334 24 -116.001c16 -19.333 48 -31.333 96 -36l59 -6v-103l-59 -6c-47.333 -5.33301 -79.333 -17.333 -96 -36s-25 -57.334 -25 -116.001v-230c0 -150 -33 -262 -99 -336
s-175 -111 -327 -111v109z" />
    <glyph glyph-name="asciitilde" unicode="~" horiz-adv-x="1273" 
d="M97 721c15.333 16 28.832 30.0029 40.499 42.0029s21.834 22.333 30.501 31s19 18.167 31 28.5s25.667 22.166 41 35.499c30.667 26 61.667 45 93 57c30.667 12 61.667 18 93 18c37.333 0 72 -7 104 -21c32.667 -14.667 60.667 -31 84 -49
c12 -9.33301 23.667 -18.833 35 -28.5s22.666 -19.5 33.999 -29.5c22 -20 45 -37 69 -51s48.333 -21 73 -21c14 0 29.667 4 47 12c18.667 8.66699 37.334 21 56.001 37c10 8.66699 19.167 16.5 27.5 23.5s15.833 13.5 22.5 19.5s14.167 13 22.5 21s17.833 17.333 28.5 28
l36 36l100 -131c-65.333 -65.333 -111.333 -108.333 -138 -129c-70.667 -55.333 -137.667 -83 -201 -83c-37.333 0 -72.333 7 -105 21c-34 14.667 -62 31 -84 49c-23.333 18.667 -45.333 37.667 -66 57c-10.667 9.33301 -21.5 18.166 -32.5 26.499
s-22.5 16.166 -34.5 23.499c-24 14 -48.333 21 -73 21c-14 0 -30 -3.66699 -48 -11c-17.333 -7.33301 -35.333 -18.333 -54 -33c-9.33301 -7.33301 -17.833 -14.333 -25.5 -21s-14.5 -12.667 -20.5 -18s-13 -12 -21 -20l-27 -27l-36 -36l-98 127z" />
    <glyph glyph-name="uni00A0" unicode="&#xa0;" horiz-adv-x="488" 
 />
    <glyph glyph-name="exclamdown" unicode="&#xa1;" horiz-adv-x="566" 
d="M137 1383c0 41.333 14.333 76.333 43 105s63.667 43 105 43s76.333 -14.333 105 -43s43 -63.667 43 -105s-14.333 -76.333 -43 -105s-63.667 -43 -105 -43s-76.333 14.333 -105 43s-43 63.667 -43 105zM198 0v866l10 209h151l10 -209v-866h-171z" />
    <glyph glyph-name="cent" unicode="&#xa2;" horiz-adv-x="1039" 
d="M100 635c0 28 0.999023 55.1699 2.99902 81.5029s5.33301 52.166 10 77.499c9.33301 51.333 23.666 99.333 42.999 144c20 46 44.667 86.667 74 122c28.667 34.667 65.334 64.667 110.001 90c44 24.667 93 41.667 147 51v180h165v-179c55.333 -10 108 -31 158 -63
c49.333 -31.333 90.666 -76 123.999 -134l-119 -84c-33.333 49.333 -71.666 84.333 -114.999 105s-86.666 31 -129.999 31c-92.667 0 -165.667 -39.667 -219 -119s-80 -180.333 -80 -303c0 -116.667 27.667 -213.667 83 -291s128.333 -116 219 -116
c106.667 0 189.667 49.667 249 149l124 -87c-63.333 -116.667 -160.666 -186.334 -291.999 -209.001v-193h-165v194c-65.333 11.333 -123 33.333 -173 66s-90 74.334 -120 125.001c-30.667 51.333 -53.334 106.666 -68.001 165.999c-7.33301 30.667 -13 62.167 -17 94.5
s-6 66.166 -6 101.499h-5z" />
    <glyph glyph-name="sterling" unicode="&#xa3;" horiz-adv-x="1266" 
d="M163 117c86.667 48.667 150.668 104.665 192.001 167.998c40.667 62.667 61 137.334 61 224.001c0 65.333 -3 118 -9 158h-229v140h203c-20.667 91.333 -31 167.333 -31 228c0 150.667 39.667 269.667 119 357s189 131 329 131c65.333 0 130.333 -16.333 195 -49
c64.667 -33.333 117.667 -85.333 159 -156l-123 -87c-55.333 89.333 -132.333 134 -231 134c-94.667 0 -164 -29 -208 -87s-66 -144 -66 -258c0 -51.333 10.333 -122.333 31 -213l438 1v-140h-412c8 -55.333 12 -108.333 12 -159c0 -29.333 -4.66699 -63.666 -14 -102.999
c-8.66699 -36.667 -26.334 -79 -53.001 -127c-26 -47.333 -58 -85.333 -96 -114h733l-10 -165h-989z" />
    <glyph glyph-name="yen" unicode="&#xa5;" horiz-adv-x="1237" 
d="M267 1504l356 -739l359 739h186l-464 -910v-165h301v-139h-301v-290h-169v290h-299v139h299v163l-466 912h198z" />
    <glyph glyph-name="section" unicode="&#xa7;" horiz-adv-x="1269" 
d="M100 673c0 71.333 18.999 137.665 56.999 198.998c38 60.667 89.667 106.667 155 138c-40 44.667 -60 102.667 -60 174c0 72.667 18 135 54 187s83 90 141 114s122.667 36 194 36c152 0 278 -57.333 378 -172l-117 -88c-33.333 36.667 -73.333 64.667 -120 84
c-48 19.333 -97.333 29 -148 29c-64.667 0 -117 -17 -157 -51s-60 -82.333 -60 -145c0 -30 8.66699 -55.667 26 -77s40.333 -38 69 -50c30.667 -12.667 63.667 -23.334 99 -32.001c36.667 -9.33301 75.667 -18.333 117 -27c20.667 -4.66699 41.167 -9.16699 61.5 -13.5
s40.833 -9.16602 61.5 -14.499s40.667 -11.333 60 -18s38.333 -14.334 57 -23.001c38 -17.333 71 -37.666 99 -60.999c29.333 -24 52.333 -55.333 69 -94c17.333 -40 26 -85 26 -135c0 -74 -18 -141 -54 -201c-36.667 -60.667 -87 -107.334 -151 -140.001
c35.333 -45.333 53 -102.333 53 -171c0 -48 -8 -92 -24 -132c-15.333 -38.667 -37 -72 -65 -100c-26.667 -26.667 -58.667 -49 -96 -67s-76.333 -31 -117 -39c-41.333 -8 -84.333 -12 -129 -12c-186 0 -334 64 -444 192l127 84c76.667 -86 186.667 -129 330 -129
c32.667 0 64.334 3.66699 95.001 11c28.667 6.66699 55.667 17.667 81 33s45 36.333 59 63s21 57.667 21 93c0 31.333 -8.33301 57.666 -25 78.999c-17.333 22.667 -40.333 40.334 -69 53.001c-14.667 6.66699 -30.167 12.834 -46.5 18.501s-33.833 11.167 -52.5 16.5
s-37.667 10.333 -57 15s-39.333 9.33398 -60 14.001c-41.333 8.66699 -82.333 18.667 -123 30c-41.333 10.667 -80.333 24.667 -117 42c-36 16.667 -69 37.334 -99 62.001c-29.333 24 -52.333 55.333 -69 94c-16.667 38 -25 82.333 -25 133zM257.999 698.999
c0 -20 2.33301 -37.998 7 -53.998c4.66699 -17.333 10.667 -32.333 18 -45c3.33301 -6.66699 7.5 -13 12.5 -19s10.5 -12 16.5 -18c11.333 -11.333 23 -21.333 35 -30c10.667 -8 24.667 -16 42 -24c8.66699 -4 16.667 -7.5 24 -10.5s14.333 -5.83301 21 -8.5
c12.667 -4.66699 29.334 -9.66699 50.001 -15c10 -2.66699 19.167 -5 27.5 -7s15.833 -3.66699 22.5 -5c12.667 -3.33301 29.667 -7.33301 51 -12c10.667 -2.66699 19.667 -4.66699 27 -6s13.666 -2.66602 18.999 -3.99902c96 -22 167 -44.333 213 -67c46 28 84 62 114 102
s45 83.667 45 131c0 35.333 -8 67 -24 95s-33 50 -51 66c-17.333 15.333 -45.333 30.666 -84 45.999s-67 25.333 -85 30c-20 5.33301 -51.333 12.333 -94 21c-8 1.33301 -15 2.66602 -21 3.99902s-10.667 2.66602 -14 3.99902c-93.333 20.667 -164.333 41.667 -213 63
c-107.333 -61.333 -161 -140 -161 -236z" />
    <glyph glyph-name="dieresis" unicode="&#xa8;" horiz-adv-x="881" 
d="M150 1374c0 29.333 10.667 55.333 32 78c20.667 22 46.667 33 78 33c30.667 0 57 -11 79 -33s33 -48 33 -78c0 -30.667 -11 -57 -33 -79s-48.333 -33 -79 -33c-31.333 0 -57.333 11 -78 33c-21.333 22.667 -32 49 -32 79zM510 1374c0 29.333 10.667 55.333 32 78
c20.667 22 46.667 33 78 33c30.667 0 57 -11 79 -33s33 -48 33 -78c0 -30.667 -11 -57 -33 -79s-48.333 -33 -79 -33c-31.333 0 -57.333 11 -78 33c-21.333 22.667 -32 49 -32 79z" />
    <glyph glyph-name="copyright" unicode="&#xa9;" horiz-adv-x="1749" 
d="M109 745c0 150.667 31.999 285 95.999 403s154 210 270 276s248.667 99 398 99c150.667 0 283.667 -31.333 399 -94c116 -62.667 206.333 -153 271 -271c64.667 -117.333 97 -254.333 97 -411c0 -153.333 -32.333 -288.666 -97 -405.999
c-65.333 -118 -155.666 -209 -270.999 -273c-116 -64 -248.333 -96 -397 -96c-112 0 -215 19.333 -309 58c-95.333 39.333 -176.333 92.666 -243 159.999s-119 149.333 -157 246c-38 96 -57 200 -57 312v-3zM211.999 744c0 -92 15.667 -179.333 47 -262
c31.333 -82 74.666 -153.333 129.999 -214c56 -61.333 125.333 -109.333 208 -144c84 -35.333 175 -53 273 -53c131.333 0 247.333 29.667 348 89s177.334 139.333 230.001 240s79 215.667 79 345c0 201.333 -59 364 -177 488s-277.667 186 -479 186
c-98 0 -189 -17.667 -273 -53c-83.333 -35.333 -152.333 -83.333 -207 -144c-56 -62 -98.667 -133.333 -128 -214c-30 -82 -45 -169.667 -45 -263zM513.999 738c0 61.333 7.99902 119.667 23.999 175c16 56 39.333 105 70 147c30.667 42.667 70.667 76.667 120 102
s105 38 167 38c13.333 0 26.333 -0.666992 39 -2s25.667 -3.33301 39 -6c26 -5.33301 54 -14.333 84 -27c30.667 -13.333 58.334 -33.333 83.001 -60c25.333 -27.333 45 -60.333 59 -99l-109 -50c-15.333 26.667 -31.666 49 -48.999 67
c-17.333 17.333 -36.333 29.666 -57 36.999c-21.333 7.33301 -38.333 12 -51 14c-14 2 -30.333 3 -49 3c-72 0 -130.333 -33 -175 -99c-44.667 -65.333 -67 -147.333 -67 -246c0 -95.333 23 -173 69 -233s104 -90 174 -90c22.667 0 41.667 1.33301 57 4
s33.333 8.33398 54 17.001c18.667 8 36.667 21 54 39c16.667 17.333 31.667 40 45 68l110 -50c-16 -37.333 -36.667 -70.333 -62 -99c-25.333 -28 -52.333 -49 -81 -63s-57.334 -24 -86.001 -30c-28 -6 -56 -9 -84 -9c-63.333 0 -119.333 12 -168 36
c-49.333 24 -89.333 56.333 -120 97c-30.667 40 -54 87 -70 141c-16 52.667 -24 110.667 -24 174z" />
    <glyph glyph-name="ordfeminine" unicode="&#xaa;" horiz-adv-x="985" 
d="M87 895c0 46 10.333 85.667 31 119c21.333 34.667 48.333 62.334 81 83.001s71.667 37.667 117 51c44.667 12.667 88.667 21.667 132 27c21.333 2.66699 43.333 4.66699 66 6s45.667 2 69 2h29c0 38 -2 69 -6 93s-12 46 -24 66c-11.333 19.333 -29 33.666 -53 42.999
c-22 8.66699 -52 13 -90 13c-68.667 0 -140.667 -25.667 -216 -77l-68 101c32 30.667 74 55.667 126 75c52.667 19.333 103.334 29 152.001 29c40.667 0 77.667 -4 111 -12c34.667 -8.66699 62.334 -19 83.001 -31c22.667 -13.333 41.667 -30.666 57 -51.999
c15.333 -20.667 27.666 -42.667 36.999 -66c8.66699 -22 15.667 -49 21 -81c4.66699 -32 7.66699 -62 9 -90c0.666992 -14 1.16699 -29.5 1.5 -46.5s0.5 -35.167 0.5 -54.5v-291c0 -16 1.33301 -27 4 -33c5.33301 -13.333 15.333 -20 30 -20h53v-107
c-40 -10.667 -71.667 -16 -95 -16c-38 0 -67 14.333 -87 43c-20.667 29.333 -32.334 65.666 -35.001 108.999c-71.333 -106 -158.333 -159 -261 -159c-72.667 0 -136 25 -190 75s-81 117 -81 201h-4zM228 892c0 -45.333 14 -81.334 42 -108.001
c27.333 -26.667 64 -40 110 -40c63.333 0 121 28 173 84c20.667 22.667 39.667 50.334 57 83.001v168h-34c-95.333 0 -177.333 -16 -246 -48s-103 -77.667 -103 -137z" />
    <glyph glyph-name="guillemotleft" unicode="&#xab;" horiz-adv-x="1207" 
d="M458 1091h188l-405 -535l411 -556h-194l-403 557zM928 1091h188l-405 -535l411 -556h-194l-403 557z" />
    <glyph glyph-name="uni00AD" unicode="&#xad;" horiz-adv-x="655" 
d="M97 808h461v-155h-461v155z" />
    <glyph glyph-name="registered" unicode="&#xae;" horiz-adv-x="1739" 
d="M109 745c0 150.667 31.999 285 95.999 403s154 210 270 276s248.667 99 398 99c150.667 0 283.667 -31.333 399 -94c116 -62.667 206.333 -153 271 -271c64.667 -117.333 97 -254.333 97 -411c0 -153.333 -32.333 -288.666 -97 -405.999
c-65.333 -118 -155.666 -209 -270.999 -273c-116 -64 -248.333 -96 -397 -96c-112 0 -215 19.333 -309 58c-95.333 39.333 -176.333 92.666 -243 159.999s-119 149.333 -157 246c-38 96 -57 200 -57 312v-3zM211.999 744c0 -92 15.667 -179.333 47 -262
c31.333 -82 74.666 -153.333 129.999 -214c56 -61.333 125.333 -109.333 208 -144c84 -35.333 175 -53 273 -53c131.333 0 247.333 29.667 348 89s177.334 139.333 230.001 240s79 215.667 79 345c0 201.333 -59 364 -177 488s-277.667 186 -479 186
c-98 0 -189 -17.667 -273 -53c-83.333 -35.333 -152.333 -83.333 -207 -144c-56 -62 -98.667 -133.333 -128 -214c-30 -82 -45 -169.667 -45 -263zM607.999 1203h261c203.333 0 305 -91 305 -273c0 -58.667 -16 -109 -48 -151s-72.333 -70.333 -121 -85l218 -380h-145
l-201 357h-148v-357h-121v889zM887.999 787c47.333 0 86.333 11.667 117 35c30 22.667 45 57.667 45 105c0 55.333 -13.667 96 -41 122s-69.333 39 -126 39h-154v-299z" />
    <glyph glyph-name="macron" unicode="&#xaf;" horiz-adv-x="757" 
d="M50 1417h657v-130h-657v130z" />
    <glyph glyph-name="degree" unicode="&#xb0;" horiz-adv-x="780" 
d="M97 1224c0 78.667 28.666 147.332 85.999 205.999c56.667 58 125.334 87 206.001 87s149.667 -28.667 207 -86s86 -126 86 -206c0 -82 -28.333 -151.333 -85 -208s-126 -85 -208 -85c-80.667 0 -149.667 28.667 -207 86c-56.667 56.667 -85 126.334 -85 209.001v-3z
M216.999 1224c0 -47.333 16.666 -88.333 49.999 -123c32.667 -34 73.334 -51 122.001 -51c48 0 88.667 17 122 51c33.333 34.667 50 75.667 50 123c0 45.333 -17 85 -51 119s-74 51 -120 51c-49.333 0 -90.333 -16.333 -123 -49s-49 -73 -49 -121h-1z" />
    <glyph glyph-name="plusminus" unicode="&#xb1;" horiz-adv-x="1144" 
d="M105 133h934v-133h-934v133zM105 864h402v430h139v-430h393v-133h-393v-432h-139v432h-402v133z" />
    <glyph glyph-name="acute" unicode="&#xb4;" horiz-adv-x="439" 
d="M263 1559h236l-310 -323h-139z" />
    <glyph glyph-name="mu" unicode="&#xb5;" horiz-adv-x="1093" 
d="M113 1091h162v-705c0 -78 19 -140.333 57 -187s95.333 -70 172 -70c79.333 0 150.333 41.333 213 124c25.333 33.333 48.333 74.666 69 123.999v714h163v-1091h-138l-18 184h-5c-23.333 -42 -47.333 -77 -72 -105c-25.333 -28 -51.333 -49 -78 -63
c-26 -13.333 -52 -22.666 -78 -27.999c-23.333 -4.66699 -51.333 -7 -84 -7c-57.333 0 -125.333 26.667 -204 80v-421l-159 -60v1511z" />
    <glyph glyph-name="paragraph" unicode="&#xb6;" horiz-adv-x="1143" 
d="M29 1030c0 147.333 46.333 263 139 347s213 126 361 126h587v-125h-145v-1705h-148v1705h-221v-1705h-147v889c-131.333 2 -235.333 47.333 -312 136s-115 199.667 -115 333z" />
    <glyph glyph-name="periodcentered" unicode="&#xb7;" horiz-adv-x="508" 
d="M107 748c0 41.333 14.333 76.333 43 105s63.667 43 105 43s76.333 -14.333 105 -43s43 -63.667 43 -105s-14.333 -76.333 -43 -105s-63.667 -43 -105 -43s-76.333 14.333 -105 43s-43 63.667 -43 105z" />
    <glyph glyph-name="cedilla" unicode="&#xb8;" horiz-adv-x="726" 
d="M185 -276c68 -34 122.334 -51 163.001 -51c28 0 53 7 75 21s33 36 33 66c0 41.333 -28.667 62 -86 62h-88l-43 42l65 141h94l-55 -112c24 8 49.667 11 77 9c26.667 -2 51.667 -7 75 -15s42.333 -22.333 57 -43c15.333 -21.333 23 -46.333 23 -75c0 -66 -23 -116 -69 -150
s-99 -51 -159 -51c-68.667 0 -134.334 20 -197.001 60z" />
    <glyph glyph-name="ordmasculine" unicode="&#xba;" horiz-adv-x="963" 
d="M104 1075c0 40 3.99707 79.999 11.9971 119.999c8 38.667 21.667 78.667 41 120c18.667 40 42.334 75.667 71.001 107c28 30.667 64 55.667 108 75c44.667 19.333 93.334 29 146.001 29c54.667 0 104.334 -9.66699 149.001 -29c44 -19.333 80 -44.333 108 -75
c27.333 -30 50.666 -66 69.999 -108c18.667 -40 32 -80.333 40 -121c8 -40 12 -80.333 12 -121c0 -46.667 -4.33301 -90.667 -13 -132c-9.33301 -44 -23.666 -85 -42.999 -123c-20 -39.333 -44.333 -73.666 -73 -102.999c-29.333 -30 -65.333 -54 -108 -72
c-43.333 -18 -90.333 -27 -141 -27c-52.667 0 -100.334 9 -143.001 27c-43.333 18 -79.333 42 -108 72c-28 29.333 -52.333 64.333 -73 105c-19.333 38.667 -33.666 79.667 -42.999 123c-8.66699 40.667 -13 83.667 -13 129zM254.997 1075
c0 -84.667 20.998 -160.002 62.998 -226.002s97.667 -99 167 -99c48.667 0 91 16 127 48s62 72 78 120s24 99.667 24 155c0 44 -4.33301 84.333 -13 121c-9.33301 39.333 -22.666 74 -39.999 104c-18 31.333 -42 56 -72 74s-65 27 -105 27c-39.333 0 -74.333 -10 -105 -30
c-30.667 -19.333 -55 -45.333 -73 -78c-17.333 -31.333 -30.666 -65.666 -39.999 -102.999c-8.66699 -35.333 -13 -72.666 -13 -111.999z" />
    <glyph glyph-name="guillemotright" unicode="&#xbb;" horiz-adv-x="1207" 
d="M495 556l-404 535h187l404 -534l-404 -557h-193zM965 556l-404 535h187l404 -534l-404 -557h-193z" />
    <glyph glyph-name="onequarter" unicode="&#xbc;" horiz-adv-x="1775" 
d="M345 1508h100v-770h172v-130h-501v130h186v615l-178 -64l-35 129zM1197 1502h151l-731 -1502h-151zM984 294l475 606h112v-575h129v-127h-129v-198h-143v198h-444v96zM1428 325l0.000976562 315c-22.667 -28 -44.167 -55 -64.5 -81s-39.833 -50.667 -58.5 -74
c-8.66699 -11.333 -29.334 -37 -62.001 -77c-16 -19.333 -29.5 -36 -40.5 -50s-19.833 -25 -26.5 -33h252z" />
    <glyph glyph-name="onehalf" unicode="&#xbd;" horiz-adv-x="1820" 
d="M345 1508h100v-770h172v-130h-501v130h186v615l-178 -64l-35 129zM1196 1502h152l-731 -1502h-151zM1135 64c0 35.333 4.99805 68.9961 14.998 100.996c10 33.333 22.333 61.333 37 84c15.333 24.667 34.333 48.334 57 71.001c23.333 23.333 45 43 65 59
c20.667 16.667 44.334 33.334 71.001 50.001c10.667 8.66699 39.334 27.334 86.001 56.001c18 12.667 33 23.167 45 31.5s20.667 14.833 26 19.5c42.667 34.667 64 68 64 100c0 40 -14 72.667 -42 98c-28.667 25.333 -65.667 38 -111 38c-40 0 -75 -7.33301 -105 -22
c-31.333 -15.333 -61 -43.333 -89 -84l-111 76c71.333 107.333 172.333 161 303 161c86.667 0 158 -24 214 -72s84 -112.667 84 -194c0 -31.333 -6 -60.333 -18 -87c-12 -27.333 -30.667 -53 -56 -77c-24 -23.333 -47.667 -43.333 -71 -60
c-11.333 -8 -24.166 -17 -38.499 -27s-30.833 -20.667 -49.5 -32c-4.66699 -3.33301 -10.334 -7.16602 -17.001 -11.499s-14.667 -9.5 -24 -15.5c-18.667 -12.667 -32 -22 -40 -28c-37.333 -27.333 -68 -54 -92 -80s-39 -55.667 -45 -89h444v-130h-598z" />
    <glyph glyph-name="threequarters" unicode="&#xbe;" horiz-adv-x="1853" 
d="M195 849c48 -79.333 112 -119 192 -119c62.667 0 110.667 14.333 144 43c34 28.667 51 67 51 115c0 46 -14.667 80.667 -44 104s-70 35 -122 35h-109v127h111c44 0 75 9.66699 93 29c18 18.667 27 47.667 27 87c0 31.333 -13 59 -39 83s-61.333 36 -106 36
c-34.667 0 -66.667 -7.66699 -96 -23c-28.667 -14.667 -57.667 -43.334 -87 -86.001l-104 78c36 58.667 79 100.334 129 125.001c50.667 25.333 102.334 38 155.001 38c78.667 0 146.667 -22.333 204 -67c58 -45.333 87 -106.333 87 -183c0 -70.667 -24 -128 -72 -172
c76.667 -44 115 -114.333 115 -211c0 -66.667 -16.667 -122.667 -50 -168c-32.667 -44.667 -74.334 -76 -125.001 -94c-50 -18 -106.333 -27 -169 -27c-128 0 -225 57.333 -291 172zM1276 1502h151l-731 -1502h-151zM1063 294l475 606h112v-575h129v-127h-129v-198h-143v198
h-444v96zM1508 325l-0.000976562 315c-22.667 -28 -44.167 -55 -64.5 -81s-39.833 -50.667 -58.5 -74c-5.33301 -6.66699 -13.166 -16.667 -23.499 -30s-23.833 -30 -40.5 -50s-30.5 -36.667 -41.5 -50s-19.167 -23.333 -24.5 -30h253z" />
    <glyph glyph-name="questiondown" unicode="&#xbf;" horiz-adv-x="949" 
d="M129 312c0 49.333 9.66797 97.335 29.001 144.002c18.667 46 42.667 87 72 123c28.667 36 57.667 71 87 105c28.667 34 54.667 71 78 111s37.333 79.333 42 118c4 34.667 6 86 6 154h169v-133c0 -50 -10.667 -100.333 -32 -151s-47.333 -95.334 -78 -134.001
c-31.333 -39.333 -62.333 -77.333 -93 -114c-31.333 -37.333 -57.333 -75.333 -78 -114c-21.333 -39.333 -32 -76.333 -32 -111c0 -52 17 -96 51 -132s85 -54 153 -54c103.333 0 183.666 46 240.999 138l123 -87c-26.667 -48.667 -61.667 -89 -105 -121
c-42.667 -32 -84.334 -54 -125.001 -66c-40 -12 -80.667 -18 -122 -18c-66 0 -124.333 9 -175 27s-91 43 -121 75c-29.333 31.333 -51.666 67.333 -66.999 108c-14.667 39.333 -22 82.666 -22 129.999zM374.001 1374c0 41.333 14.333 76.333 43 105s63.667 43 105 43
s76.333 -14.333 105 -43s43 -63.667 43 -105s-14.333 -76.333 -43 -105s-63.667 -43 -105 -43s-76.333 14.333 -105 43s-43 63.667 -43 105z" />
    <glyph glyph-name="Agrave" unicode="&#xc0;" 
d="M9 0l549 1504h176l550 -1504h-184l-146 402h-624l-149 -402h-172zM509 1927l214 -323h-139l-310 323h235zM383 557h514l-256 705z" />
    <glyph glyph-name="Aacute" unicode="&#xc1;" 
d="M558 1504h176l550 -1504h-184l-146 402h-624l-149 -402h-172zM897 557l-256 705l-258 -705h514zM798 1927h235l-309 -323h-139z" />
    <glyph glyph-name="Acircumflex" unicode="&#xc2;" 
d="M558 1504h176l550 -1504h-184l-146 402h-624l-149 -402h-172zM572 1882h144l280 -335h-148l-204 192l-203 -192h-149zM897 557l-256 705l-258 -705h514z" />
    <glyph glyph-name="Atilde" unicode="&#xc3;" 
d="M558 1504h176l550 -1504h-184l-146 402h-624l-149 -402h-172zM288 1575c1.33301 171.333 69 257 203 257c36.667 0 76 -9.33301 118 -28c42.667 -19.333 82.667 -38.333 120 -57c36.667 -18.667 66.667 -28 90 -28c52.667 0 82 40 88 120h114
c0 -173.333 -67.333 -260 -202 -260c-32.667 0 -66 6 -100 18c-17.333 6 -33 12.5 -47 19.5s-26.667 14.167 -38 21.5c-24 15.333 -48.667 29 -74 41c-26 12 -49.333 18 -70 18c-16 0 -29 -2.33301 -39 -7c-11.333 -5.33301 -20 -11.333 -26 -18
c-6.66699 -7.33301 -12.334 -17 -17.001 -29c-2.66699 -6 -4.66699 -11.667 -6 -17s-2.66602 -10.333 -3.99902 -15s-2.5 -10 -3.5 -16s-2.16699 -12.667 -3.5 -20l-102 1zM896 556l-256 705l-258 -705h514z" />
    <glyph glyph-name="Adieresis" unicode="&#xc4;" 
d="M558 1504h176l550 -1504h-184l-146 402h-624l-149 -402h-172zM351 1774c0 30 10.667 56.333 32 79c20.667 22 46.667 33 78 33c30.667 0 57 -11 79 -33s33 -48.333 33 -79s-11 -57 -33 -79s-48.333 -33 -79 -33c-31.333 0 -57.333 11 -78 33
c-21.333 22.667 -32 49 -32 79zM897 557l-256 705l-258 -705h514zM711 1774c0 30 10.667 56.333 32 79c20.667 22 46.667 33 78 33c30.667 0 57 -11 79 -33s33 -48.333 33 -79s-11 -57 -33 -79s-48.333 -33 -79 -33c-31.333 0 -57.333 11 -78 33
c-21.333 22.667 -32 49 -32 79z" />
    <glyph glyph-name="Aring" unicode="&#xc5;" 
d="M532 1437c-33.333 19.333 -60 45.999 -80 79.999s-30 71.667 -30 113c0 60 21.667 111.667 65 155s95.333 65 156 65c61.333 0 113.333 -21.333 156 -64c43.333 -43.333 65 -94.666 65 -153.999c0 -40 -9.66699 -76.667 -29 -110s-45.333 -60 -78 -80l527 -1442h-184
l-146 402h-624l-149 -402h-172zM895 553.999l-256 705l-258 -705h514zM514 1628c0 -35.333 12 -65.333 36 -90s54 -37 90 -37c35.333 0 65 12.667 89 38c24 24.667 36 54.667 36 90c0 32.667 -12.667 61.667 -38 87s-54.333 38 -87 38c-36 0 -66 -12 -90 -36
s-36 -53.667 -36 -89v-1z" />
    <glyph glyph-name="AE" unicode="&#xc6;" horiz-adv-x="1709" 
d="M734 1503h881l-10 -159h-574v-505h478l-10 -151h-468v-528h592l-10 -160h-745v407h-483l-195 -407h-193zM868 569v775h-43l-369 -775h412z" />
    <glyph glyph-name="Ccedilla" unicode="&#xc7;" horiz-adv-x="1273" 
d="M104 739c0 42.667 1.99707 83.999 5.99707 123.999s9.66699 79 17 117c14.667 74.667 38.334 145.667 71.001 213c32 66 71 123 117 171s102.667 86 170 114c66.667 28 140.667 42 222 42c82.667 0 165.667 -20.333 249 -61
c84.667 -41.333 154.334 -106.333 209.001 -195l-130 -94c-85.333 123.333 -196 185 -332 185c-87.333 0 -162.666 -27.333 -225.999 -82c-64 -55.333 -112 -128.666 -144 -219.999c-32 -92 -48 -196 -48 -312c0 -112.667 17.333 -214.667 52 -306
c35.333 -92.667 84.666 -165.667 147.999 -219c64 -54 136.333 -81 217 -81c157.333 0 279 67 365 201l130 -93c-52.667 -90.667 -121 -158 -205 -202c-84.667 -44.667 -173 -67.334 -265 -68.001l-48 -102c24 8 49.667 11 77 9c26.667 -2 51.667 -7 75 -15
s42.333 -22.333 57 -43c15.333 -21.333 23 -46.333 23 -75c0 -35.333 -7 -66.333 -21 -93c-14 -27.333 -32.333 -48.333 -55 -63c-22 -14.667 -46.333 -26 -73 -34c-26 -8 -52.667 -12 -80 -12c-67.333 0 -132.333 20 -195 60l34 96c68.667 -34 122.667 -51 162 -51
c28 0 53.333 6.66699 76 20c22 12.667 33 34.667 33 66c0 41.333 -28.667 62 -86 62h-88l-44 42l62 136c-87.333 10.667 -165.666 39.667 -234.999 87c-68.667 46.667 -124 105.667 -166 177c-42 70.667 -74 148.667 -96 234c-22 84.667 -33 174.334 -33 269.001z" />
    <glyph glyph-name="Egrave" unicode="&#xc8;" horiz-adv-x="1180" 
d="M170 0v1505h915l-9 -160h-736v-506h646l-10 -152h-636v-527h754l-9 -160h-915zM521 1927l214 -323h-140l-309 323h235z" />
    <glyph glyph-name="Eacute" unicode="&#xc9;" horiz-adv-x="1180" 
d="M170 0v1505h915l-9 -160h-736v-506h646l-10 -152h-636v-527h754l-9 -160h-915zM740 1927h235l-309 -323h-139z" />
    <glyph glyph-name="Ecircumflex" unicode="&#xca;" horiz-adv-x="1180" 
d="M170 0v1505h915l-9 -160h-736v-506h646l-10 -152h-636v-527h754l-9 -160h-915zM579 1939h144l280 -335h-149l-204 192l-202 -192h-149z" />
    <glyph glyph-name="Edieresis" unicode="&#xcb;" horiz-adv-x="1180" 
d="M170 0v1505h915l-9 -160h-736v-506h646l-10 -152h-636v-527h754l-9 -160h-915zM342 1775c0 29.333 10.667 55.333 32 78c20.667 22 46.667 33 78 33c30.667 0 57 -11 79 -33s33 -48.333 33 -79s-11 -57 -33 -79s-48.333 -33 -79 -33c-31.333 0 -57.333 11 -78 33
c-21.333 22.667 -32 49 -32 79v1zM702 1776c0 29.333 10.667 55.333 32 78c20.667 22 46.667 33 78 33c30.667 0 57 -11 79 -33s33 -48.333 33 -79s-11 -57 -33 -79s-48.333 -33 -79 -33c-31.333 0 -57.333 11 -78 33c-21.333 22.667 -32 49 -32 79v1z" />
    <glyph glyph-name="Igrave" unicode="&#xcc;" horiz-adv-x="515" 
d="M125 1927l214 -323h-140l-309 323h235zM170 1504h175v-1504h-175v1504z" />
    <glyph glyph-name="Iacute" unicode="&#xcd;" horiz-adv-x="515" 
d="M170 1504h175v-1504h-175v1504zM390 1927h235l-309 -323h-140z" />
    <glyph glyph-name="Icircumflex" unicode="&#xce;" horiz-adv-x="515" 
d="M198 1932h120l224 -269h-173l-111 144l-111 -144h-173zM170 0v1504h175v-1504h-175z" />
    <glyph glyph-name="Idieresis" unicode="&#xcf;" horiz-adv-x="516" 
d="M-35 1775c0 29.333 10.667 55.333 32 78c20.667 22 46.667 33 78 33c30.667 0 57 -11 79 -33s33 -48.333 33 -79c0 -30 -10.667 -56.333 -32 -79c-21.333 -22 -47.333 -33 -78 -33c-31.333 0 -57.333 11 -78 33c-21.333 22.667 -32 49 -32 79zM168 1v1504h176v-1504h-176
zM323 1776c0 29.333 10.667 55.333 32 78c20.667 22 46.667 33 78 33c30.667 0 57 -11 79 -33s33 -48.333 33 -79c0 -30 -10.667 -56.333 -32 -79c-21.333 -22 -47.333 -33 -78 -33c-31.333 0 -57.333 11 -78 33c-21.333 22.667 -32 49 -32 79z" />
    <glyph glyph-name="Eth" unicode="&#xd0;" horiz-adv-x="1375" 
d="M-20 852h190v656h324c532 0 798 -255.667 798 -767c0 -142 -27 -269 -81 -381s-131.333 -200 -232 -264c-101.333 -64 -217.333 -96 -348 -96h-461v695h-190v157zM591 162c50 0 99 7.33203 147 21.999c49.333 15.333 97 38.333 143 69s87 67.667 123 111
c35.333 42 63.666 94.667 84.999 158c21.333 62.667 32 129.667 32 201c-1.33301 198.667 -55.333 352.334 -162 461.001c-107.333 109.333 -259.666 164 -456.999 164h-161v-496h375v-155h-375v-535h250z" />
    <glyph glyph-name="Ntilde" unicode="&#xd1;" horiz-adv-x="1482" 
d="M170 -1l0.00195312 1505h167c40.667 -63.333 95.667 -146.333 165 -249c34.667 -52 63.667 -95.667 87 -131s41.666 -63 54.999 -83c89.333 -134.667 163.666 -246.5 222.999 -335.5s104.333 -155.833 135 -200.5c52.667 -78 100.667 -153 144 -225
c-6 88.667 -9 176.667 -9 264v516v250.5c0 73 0.333008 136.5 1 190.5h174v-1505h-172l-303 457c-199.333 300.667 -316.333 476.667 -351 528c-43.333 60.667 -90.333 134.667 -141 222l-3 -2c1.33301 -55.333 2.5 -107.833 3.5 -157.5s1.5 -97.167 1.5 -142.5v-905z
M366.002 1552c1.33301 171.333 69 257 203 257c36.667 0 76 -9.33301 118 -28c42.667 -19.333 82.667 -38.333 120 -57c36.667 -18.667 66.667 -28 90 -28c52.667 0 82 40 88 120h114c0 -173.333 -67.333 -260 -202 -260c-32.667 0 -66 6 -100 18
c-17.333 6 -33 12.5 -47 19.5s-26.667 14.167 -38 21.5c-24 15.333 -48.667 29 -74 41c-26 12 -49.333 18 -70 18c-16 0 -29 -2.33301 -39 -7c-11.333 -5.33301 -20 -11.333 -26 -18c-6.66699 -7.33301 -12.334 -17 -17.001 -29c-2.66699 -6 -4.66699 -11.667 -6 -17
s-2.66602 -10.333 -3.99902 -15s-2.5 -10 -3.5 -16s-2.16699 -12.667 -3.5 -20l-102 1z" />
    <glyph glyph-name="Ograve" unicode="&#xd2;" horiz-adv-x="1380" 
d="M107 758c0 78.667 7.33301 153.668 22 225.001c14.667 72.667 37.667 142 69 208c30.667 65.333 68.667 122.666 114 171.999c44.667 48.667 99.667 87.667 165 117c64 28.667 135 43 213 43c92.667 0 176.667 -21 252 -63c74.667 -42 135.667 -98.667 183 -170
c46.667 -71.333 82.667 -152.333 108 -243c24.667 -90 37 -186.667 37 -290c0 -57.333 -4 -114.333 -12 -171c-4 -28.667 -9 -57.667 -15 -87s-13.333 -59 -22 -89c-16.667 -59.333 -40.334 -115 -71.001 -167c-29.333 -50 -65 -96 -107 -138
c-41.333 -41.333 -92.333 -73.333 -153 -96c-62 -23.333 -129 -35 -201 -35c-71.333 0 -137 11 -197 33c-60.667 22 -111.667 52.333 -153 91c-42 38.667 -78.333 83 -109 133c-31.333 51.333 -56 106.333 -74 165c-9.33301 30 -17.166 60 -23.499 90s-11.833 60 -16.5 90
s-8 60.167 -10 90.5s-3 61.5 -3 93.5zM282 757.001c0 -21.333 0.499023 -42.4961 1.49902 -63.4961s2.83301 -42.167 5.5 -63.5c4.66699 -42 12.667 -87.333 24 -136s27.333 -93.334 48 -134.001c21.333 -42 46.333 -79.667 75 -113
c29.333 -34.667 65.333 -61.334 108 -80.001c44 -19.333 91.333 -29 142 -29c47.333 0 91 8 131 24s73.333 37.333 100 64s50.667 58.667 72 96c10.667 18.667 20.167 37.167 28.5 55.5s15.5 36.833 21.5 55.5c12 36.667 22 75.667 30 117c4 20.667 7.33301 40.167 10 58.5
s4.66699 35.5 6 51.5s2.33301 31.667 3 47s1 30.666 1 45.999c0 38.667 -3 79 -9 121c-6 41.333 -15 85.666 -27 132.999c-12 46.667 -29 91 -51 133c-22.667 43.333 -48 81.333 -76 114c-29.333 34 -64.666 61 -105.999 81c-42 20 -88 30 -138 30
c-61.333 0 -116.333 -15 -165 -45c-49.333 -30 -88.333 -67.333 -117 -112c-29.333 -45.333 -53.333 -96.333 -72 -153c-19.333 -57.333 -32.333 -110.333 -39 -159c-3.33301 -24.667 -6 -48.667 -8 -72s-3 -46 -3 -68zM564.999 1928l213 -323h-139l-309 323h235z" />
    <glyph glyph-name="Oacute" unicode="&#xd3;" horiz-adv-x="1380" 
d="M107 758c0 78.667 7.33301 153.668 22 225.001c14.667 72.667 37.667 142 69 208c30.667 65.333 68.667 122.666 114 171.999c44.667 48.667 99.667 87.667 165 117c64 28.667 135 43 213 43c92.667 0 176.667 -21 252 -63c74.667 -42 135.667 -98.667 183 -170
c46.667 -71.333 82.667 -152.333 108 -243c24.667 -90 37 -186.667 37 -290c0 -57.333 -4 -114.333 -12 -171c-4 -28.667 -9 -57.667 -15 -87s-13.333 -59 -22 -89c-16.667 -59.333 -40.334 -115 -71.001 -167c-29.333 -50 -65 -96 -107 -138
c-41.333 -41.333 -92.333 -73.333 -153 -96c-62 -23.333 -129 -35 -201 -35c-71.333 0 -137 11 -197 33c-60.667 22 -111.667 52.333 -153 91c-42 38.667 -78.333 83 -109 133c-31.333 51.333 -56 106.333 -74 165c-9.33301 30 -17.166 60 -23.499 90s-11.833 60 -16.5 90
s-8 60.167 -10 90.5s-3 61.5 -3 93.5zM282 757.001c0 -21.333 0.499023 -42.4961 1.49902 -63.4961s2.83301 -42.167 5.5 -63.5c4.66699 -42 12.667 -87.333 24 -136s27.333 -93.334 48 -134.001c21.333 -42 46.333 -79.667 75 -113
c29.333 -34.667 65.333 -61.334 108 -80.001c44 -19.333 91.333 -29 142 -29c47.333 0 91 8 131 24s73.333 37.333 100 64s50.667 58.667 72 96c10.667 18.667 20.167 37.167 28.5 55.5s15.5 36.833 21.5 55.5c12 36.667 22 75.667 30 117c4 20.667 7.33301 40.167 10 58.5
s4.66699 35.5 6 51.5s2.33301 31.667 3 47s1 30.666 1 45.999c0 38.667 -3 79 -9 121c-6 41.333 -15 85.666 -27 132.999c-12 46.667 -29 91 -51 133c-22.667 43.333 -48 81.333 -76 114c-29.333 34 -64.666 61 -105.999 81c-42 20 -88 30 -138 30
c-61.333 0 -116.333 -15 -165 -45c-49.333 -30 -88.333 -67.333 -117 -112c-29.333 -45.333 -53.333 -96.333 -72 -153c-19.333 -57.333 -32.333 -110.333 -39 -159c-3.33301 -24.667 -6 -48.667 -8 -72s-3 -46 -3 -68zM797.999 1928h235l-309 -323h-139z" />
    <glyph glyph-name="Ocircumflex" unicode="&#xd4;" horiz-adv-x="1380" 
d="M107 758c0 78.667 7.33301 153.668 22 225.001c14.667 72.667 37.667 142 69 208c30.667 65.333 68.667 122.666 114 171.999c44.667 48.667 99.667 87.667 165 117c64 28.667 135 43 213 43c92.667 0 176.667 -21 252 -63c74.667 -42 135.667 -98.667 183 -170
c46.667 -71.333 82.667 -152.333 108 -243c24.667 -90 37 -186.667 37 -290c0 -57.333 -4 -114.333 -12 -171c-4 -28.667 -9 -57.667 -15 -87s-13.333 -59 -22 -89c-16.667 -59.333 -40.334 -115 -71.001 -167c-29.333 -50 -65 -96 -107 -138
c-41.333 -41.333 -92.333 -73.333 -153 -96c-62 -23.333 -129 -35 -201 -35c-71.333 0 -137 11 -197 33c-60.667 22 -111.667 52.333 -153 91c-42 38.667 -78.333 83 -109 133c-31.333 51.333 -56 106.333 -74 165c-9.33301 30 -17.166 60 -23.499 90s-11.833 60 -16.5 90
s-8 60.167 -10 90.5s-3 61.5 -3 93.5zM282 757.001c0 -21.333 0.499023 -42.4961 1.49902 -63.4961s2.83301 -42.167 5.5 -63.5c4.66699 -42 12.667 -87.333 24 -136s27.333 -93.334 48 -134.001c21.333 -42 46.333 -79.667 75 -113
c29.333 -34.667 65.333 -61.334 108 -80.001c44 -19.333 91.333 -29 142 -29c47.333 0 91 8 131 24s73.333 37.333 100 64s50.667 58.667 72 96c10.667 18.667 20.167 37.167 28.5 55.5s15.5 36.833 21.5 55.5c12 36.667 22 75.667 30 117c4 20.667 7.33301 40.167 10 58.5
s4.66699 35.5 6 51.5s2.33301 31.667 3 47s1 30.666 1 45.999c0 38.667 -3 79 -9 121c-6 41.333 -15 85.666 -27 132.999c-12 46.667 -29 91 -51 133c-22.667 43.333 -48 81.333 -76 114c-29.333 34 -64.666 61 -105.999 81c-42 20 -88 30 -138 30
c-61.333 0 -116.333 -15 -165 -45c-49.333 -30 -88.333 -67.333 -117 -112c-29.333 -45.333 -53.333 -96.333 -72 -153c-19.333 -57.333 -32.333 -110.333 -39 -159c-3.33301 -24.667 -6 -48.667 -8 -72s-3 -46 -3 -68zM612.999 1940h144l280 -335h-149l-203 192l-203 -192
h-149z" />
    <glyph glyph-name="Otilde" unicode="&#xd5;" horiz-adv-x="1380" 
d="M107 758c0 78.667 7.33301 153.668 22 225.001c14.667 72.667 37.667 142 69 208c30.667 65.333 68.667 122.666 114 171.999c44.667 48.667 99.667 87.667 165 117c64 28.667 135 43 213 43c92.667 0 176.667 -21 252 -63c74.667 -42 135.667 -98.667 183 -170
c46.667 -71.333 82.667 -152.333 108 -243c24.667 -90 37 -186.667 37 -290c0 -57.333 -4 -114.333 -12 -171c-4 -28.667 -9 -57.667 -15 -87s-13.333 -59 -22 -89c-16.667 -59.333 -40.334 -115 -71.001 -167c-29.333 -50 -65 -96 -107 -138
c-41.333 -41.333 -92.333 -73.333 -153 -96c-62 -23.333 -129 -35 -201 -35c-71.333 0 -137 11 -197 33c-60.667 22 -111.667 52.333 -153 91c-42 38.667 -78.333 83 -109 133c-31.333 51.333 -56 106.333 -74 165c-9.33301 30 -17.166 60 -23.499 90s-11.833 60 -16.5 90
s-8 60.167 -10 90.5s-3 61.5 -3 93.5zM282 757.001c0 -21.333 0.499023 -42.4961 1.49902 -63.4961s2.83301 -42.167 5.5 -63.5c4.66699 -42 12.667 -87.333 24 -136s27.333 -93.334 48 -134.001c21.333 -42 46.333 -79.667 75 -113
c29.333 -34.667 65.333 -61.334 108 -80.001c44 -19.333 91.333 -29 142 -29c47.333 0 91 8 131 24s73.333 37.333 100 64s50.667 58.667 72 96c10.667 18.667 20.167 37.167 28.5 55.5s15.5 36.833 21.5 55.5c12 36.667 22 75.667 30 117c4 20.667 7.33301 40.167 10 58.5
s4.66699 35.5 6 51.5s2.33301 31.667 3 47s1 30.666 1 45.999c0 38.667 -3 79 -9 121c-6 41.333 -15 85.666 -27 132.999c-12 46.667 -29 91 -51 133c-22.667 43.333 -48 81.333 -76 114c-29.333 34 -64.666 61 -105.999 81c-42 20 -88 30 -138 30
c-61.333 0 -116.333 -15 -165 -45c-49.333 -30 -88.333 -67.333 -117 -112c-29.333 -45.333 -53.333 -96.333 -72 -153c-19.333 -57.333 -32.333 -110.333 -39 -159c-3.33301 -24.667 -6 -48.667 -8 -72s-3 -46 -3 -68zM319.999 1576c1.33301 171.333 69 257 203 257
c36.667 0 76 -9.33301 118 -28c42.667 -19.333 82.667 -38.333 120 -57c36.667 -18.667 66.667 -28 90 -28c52.667 0 82 40 88 120h114c0 -173.333 -67.333 -260 -202 -260c-32.667 0 -66 6 -100 18c-17.333 6 -33 12.5 -47 19.5s-26.667 14.167 -38 21.5
c-24 15.333 -48.667 29 -74 41c-26 12 -49.333 18 -70 18c-16 0 -29 -2.33301 -39 -7c-11.333 -5.33301 -20 -11.333 -26 -18c-6.66699 -7.33301 -12.334 -17 -17.001 -29c-2.66699 -6 -4.66699 -11.667 -6 -17s-2.66602 -10.333 -3.99902 -15s-2.5 -10 -3.5 -16
s-2.16699 -12.667 -3.5 -20l-102 1z" />
    <glyph glyph-name="Odieresis" unicode="&#xd6;" horiz-adv-x="1380" 
d="M107 758c0 78.667 7.33301 153.668 22 225.001c14.667 72.667 37.667 142 69 208c30.667 65.333 68.667 122.666 114 171.999c44.667 48.667 99.667 87.667 165 117c64 28.667 135 43 213 43c92.667 0 176.667 -21 252 -63c74.667 -42 135.667 -98.667 183 -170
c46.667 -71.333 82.667 -152.333 108 -243c24.667 -90 37 -186.667 37 -290c0 -57.333 -4 -114.333 -12 -171c-4 -28.667 -9 -57.667 -15 -87s-13.333 -59 -22 -89c-16.667 -59.333 -40.334 -115 -71.001 -167c-29.333 -50 -65 -96 -107 -138
c-41.333 -41.333 -92.333 -73.333 -153 -96c-62 -23.333 -129 -35 -201 -35c-71.333 0 -137 11 -197 33c-60.667 22 -111.667 52.333 -153 91c-42 38.667 -78.333 83 -109 133c-31.333 51.333 -56 106.333 -74 165c-9.33301 30 -17.166 60 -23.499 90s-11.833 60 -16.5 90
s-8 60.167 -10 90.5s-3 61.5 -3 93.5zM282 757.001c0 -21.333 0.499023 -42.4961 1.49902 -63.4961s2.83301 -42.167 5.5 -63.5c4.66699 -42 12.667 -87.333 24 -136s27.333 -93.334 48 -134.001c21.333 -42 46.333 -79.667 75 -113
c29.333 -34.667 65.333 -61.334 108 -80.001c44 -19.333 91.333 -29 142 -29c47.333 0 91 8 131 24s73.333 37.333 100 64s50.667 58.667 72 96c10.667 18.667 20.167 37.167 28.5 55.5s15.5 36.833 21.5 55.5c12 36.667 22 75.667 30 117c4 20.667 7.33301 40.167 10 58.5
s4.66699 35.5 6 51.5s2.33301 31.667 3 47s1 30.666 1 45.999c0 38.667 -3 79 -9 121c-6 41.333 -15 85.666 -27 132.999c-12 46.667 -29 91 -51 133c-22.667 43.333 -48 81.333 -76 114c-29.333 34 -64.666 61 -105.999 81c-42 20 -88 30 -138 30
c-61.333 0 -116.333 -15 -165 -45c-49.333 -30 -88.333 -67.333 -117 -112c-29.333 -45.333 -53.333 -96.333 -72 -153c-19.333 -57.333 -32.333 -110.333 -39 -159c-3.33301 -24.667 -6 -48.667 -8 -72s-3 -46 -3 -68zM388.999 1776c0 29.333 10.667 55.333 32 78
c20.667 22 46.667 33 78 33c30.667 0 57 -11 79 -33s33 -48.333 33 -79c0 -30 -10.667 -56.333 -32 -79c-21.333 -22 -47.333 -33 -78 -33c-31.333 0 -57.333 11 -78 33c-21.333 22.667 -32 49 -32 79zM746.999 1777c0 29.333 10.667 55.333 32 78
c20.667 22 46.667 33 78 33c30.667 0 57 -11 79 -33s33 -48.333 33 -79c0 -30 -10.667 -56.333 -32 -79c-21.333 -22 -47.333 -33 -78 -33c-31.333 0 -57.333 11 -78 33c-21.333 22.667 -32 49 -32 79z" />
    <glyph glyph-name="multiply" unicode="&#xd7;" horiz-adv-x="1009" 
d="M408 694l-303 303l95 94l302 -303l304 303l96 -96l-303 -303l305 -305l-94 -94l-306 305l-302 -303l-97 96z" />
    <glyph glyph-name="Oslash" unicode="&#xd8;" horiz-adv-x="1498" 
d="M193 300c-58.667 128 -87.999 279.332 -87.999 453.999c0 75.333 7.66699 150.333 23 225c14.667 72.667 37.667 142 69 208c31.333 66.667 69.333 124.334 114 173.001s99.667 87.667 165 117c64 28.667 135 43 213 43c176.667 0 318.667 -72 426 -216l200 219l105 -91
l-232 -254c56.667 -122 85 -263 85 -423c0 -57.333 -4 -114.333 -12 -171c-4 -28.667 -9 -57.667 -15 -87s-13.333 -59 -22 -89c-16.667 -59.333 -40.334 -115 -71.001 -167c-29.333 -50 -65 -96 -107 -138c-41.333 -41.333 -92.333 -73.333 -153 -96
c-62 -23.333 -129 -35 -201 -35c-179.333 0 -320.333 68 -423 204l-203 -223l-107 91zM283.001 749.999c0 -110 14.667 -211 44 -303l662 722c-73.333 127.333 -174 191 -302 191c-61.333 0 -116.333 -15 -165 -45c-49.333 -30 -88.333 -67.333 -117 -112
c-29.333 -45.333 -53.333 -96.333 -72 -153c-19.333 -57.333 -32.333 -110.333 -39 -159c-3.33301 -24.667 -5.83301 -48.667 -7.5 -72s-2.5 -46 -2.5 -68zM388.001 307.999c72.667 -116 172.667 -173.999 300 -173.999c47.333 0 91 8 131 24s73.667 37.667 101 65
c26.667 26.667 50.667 58.667 72 96c10.667 18.667 20.167 37.167 28.5 55.5s15.5 36.833 21.5 55.5c12 36.667 22 75.667 30 117c4 20.667 7.33301 40.167 10 58.5s4.66699 35.5 6 51.5s2.33301 31.667 3 47s1 30.666 1 45.999c0 94 -14.333 187 -43 279l-660 -722z" />
    <glyph glyph-name="Ugrave" unicode="&#xd9;" horiz-adv-x="1318" 
d="M149 1504l159.001 0.000976562v-961c0 -46 2 -86.333 6 -121c4 -35.333 13 -71.333 27 -108s33 -67 57 -91s57.667 -44 101 -60c42.667 -16 93.667 -24 153 -24s111 8 155 24c43.333 16 77.666 36 102.999 60c24.667 24 44.667 54.667 60 92
c14.667 36.667 24.667 72.667 30 108c2.66699 17.333 4.5 36 5.5 56s1.5 41.333 1.5 64l1 959h159v-959c0 -30 -1.16699 -59 -3.5 -87s-5.83301 -55 -10.5 -81c-8.66699 -50.667 -25.334 -102 -50.001 -154c-23.333 -50 -54 -93.333 -92 -130
c-37.333 -36 -86.333 -65 -147 -87c-61.333 -22 -131.333 -33 -210 -33s-148 11 -208 33c-59.333 22 -107.666 51 -144.999 87c-36.667 36 -66.667 79.667 -90 131s-39.333 102.666 -48 153.999c-4.66699 26 -8 53 -10 81s-3 57 -3 87zM547.001 1858l213 -323h-139l-309 323
h235z" />
    <glyph glyph-name="Uacute" unicode="&#xda;" horiz-adv-x="1318" 
d="M150 544l0.00292969 959.001h159v-961c0 -46 2 -86.333 6 -121c4 -35.333 13 -71.333 27 -108c14 -37.333 33 -68 57 -92s57.667 -44 101 -60c42.667 -16 93.667 -24 153 -24c58.667 0 110 8 154 24c43.333 16 77.666 36 102.999 60c24.667 24 44.667 54.667 60 92
c14.667 36.667 24.667 72.667 30 108c2.66699 17.333 4.5 36 5.5 56s1.5 41.333 1.5 64l1 959h159v-959c0 -30 -1.16699 -59 -3.5 -87s-5.83301 -55 -10.5 -81c-8.66699 -50.667 -25.334 -102 -50.001 -154c-23.333 -50 -54 -93.333 -92 -130
c-37.333 -36 -86.333 -65 -147 -87c-61.333 -22 -131.333 -33 -210 -33c-79.333 0 -149 11 -209 33c-60.667 22 -109.334 51 -146.001 87c-37.333 36 -67.333 79.333 -90 130c-23.333 51.333 -39.333 102.666 -48 153.999c-4.66699 26 -8 53 -10 81s-3 57 -3 87z
M769.003 1854h235l-309 -323h-140z" />
    <glyph glyph-name="Ucircumflex" unicode="&#xdb;" horiz-adv-x="1318" 
d="M150 544l0.00292969 959.001h159v-961c0 -46 2 -86.333 6 -121c4 -35.333 13 -71.333 27 -108c14 -37.333 33 -68 57 -92s57.667 -44 101 -60c42.667 -16 93.667 -24 153 -24c58.667 0 110 8 154 24c43.333 16 77.666 36 102.999 60c24.667 24 44.667 54.667 60 92
c14.667 36.667 24.667 72.667 30 108c2.66699 17.333 4.5 36 5.5 56s1.5 41.333 1.5 64l1 959h159v-959c0 -30 -1.16699 -59 -3.5 -87s-5.83301 -55 -10.5 -81c-8.66699 -50.667 -25.334 -102 -50.001 -154c-23.333 -50 -54 -93.333 -92 -130
c-37.333 -36 -86.333 -65 -147 -87c-61.333 -22 -131.333 -33 -210 -33c-79.333 0 -149 11 -209 33c-60.667 22 -109.334 51 -146.001 87c-37.333 36 -67.333 79.333 -90 130c-23.333 51.333 -39.333 102.666 -48 153.999c-4.66699 26 -8 53 -10 81s-3 57 -3 87z
M577.003 1936h144l280 -335h-149l-204 192l-202 -192h-149z" />
    <glyph glyph-name="Udieresis" unicode="&#xdc;" horiz-adv-x="1318" 
d="M150 544l0.00292969 959.001h159v-961c0 -46 2 -86.333 6 -121c4 -35.333 13 -71.333 27 -108c14 -37.333 33 -68 57 -92s57.667 -44 101 -60c42.667 -16 93.667 -24 153 -24c58.667 0 110 8 154 24c43.333 16 77.666 36 102.999 60c24.667 24 44.667 54.667 60 92
c14.667 36.667 24.667 72.667 30 108c2.66699 17.333 4.5 36 5.5 56s1.5 41.333 1.5 64l1 959h159v-959c0 -30 -1.16699 -59 -3.5 -87s-5.83301 -55 -10.5 -81c-8.66699 -50.667 -25.334 -102 -50.001 -154c-23.333 -50 -54 -93.333 -92 -130
c-37.333 -36 -86.333 -65 -147 -87c-61.333 -22 -131.333 -33 -210 -33c-79.333 0 -149 11 -209 33c-60.667 22 -109.334 51 -146.001 87c-37.333 36 -67.333 79.333 -90 130c-23.333 51.333 -39.333 102.666 -48 153.999c-4.66699 26 -8 53 -10 81s-3 57 -3 87z
M366.003 1722c0 29.333 10.667 55.333 32 78c20.667 22 46.667 33 78 33c30.667 0 57 -11 79 -33s33 -48.333 33 -79s-11 -57 -33 -79s-48.333 -33 -79 -33c-31.333 0 -57.333 11 -78 33c-21.333 22.667 -32 49 -32 79v1zM726.003 1723c0 29.333 10.667 55.333 32 78
c20.667 22 46.667 33 78 33c30.667 0 57 -11 79 -33s33 -48.333 33 -79s-11 -57 -33 -79s-48.333 -33 -79 -33c-31.333 0 -57.333 11 -78 33c-21.333 22.667 -32 49 -32 79v1z" />
    <glyph glyph-name="Yacute" unicode="&#xdd;" horiz-adv-x="1253" 
d="M-5 1504h211l130 -226c42 -74 77.167 -135.333 105.5 -184s49.833 -85.667 64.5 -111c28.667 -50 53.167 -95.167 73.5 -135.5s36.5 -76.166 48.5 -107.499c10 25.333 25.333 58.166 46 98.499s47 88.5 79 144.5l170 295l129 226h206l-543 -919l1 -585h-178v585z
M744 1857h235l-310 -323h-139z" />
    <glyph glyph-name="Thorn" unicode="&#xde;" horiz-adv-x="1212" 
d="M169 1505h169.999v-270h227c343.333 0 515 -146.667 515 -440c0 -130.667 -43.333 -234 -130 -310c-87.333 -76 -201.666 -114 -342.999 -114h-268v-371h-170zM602.999 528c84.667 0 157 23 217 69s90 109 90 189c0 98.667 -26 172 -78 220s-131.333 72 -238 72h-255
v-551z" />
    <glyph glyph-name="germandbls" unicode="&#xdf;" horiz-adv-x="1160" 
d="M136 1101c0 142.667 35.332 253.329 105.999 331.996c71.333 79.333 177.666 119 318.999 119c124.667 0 224.667 -36 300 -108c74.667 -72 112 -170 112 -294c0 -65.333 -16.333 -124.666 -49 -177.999s-79.667 -94.666 -141 -123.999
c104 -37.333 180 -88.666 228 -153.999c48 -66 72 -149.333 72 -250c0 -125.333 -33 -227.333 -99 -306c-45.333 -54 -102.333 -95 -171 -123c-69.333 -28 -142.666 -42 -219.999 -42h-25c-35.333 0 -70.666 6.33301 -105.999 19l20 138
c18.667 -2.66699 34.5 -4.5 47.5 -5.5s23.167 -1.5 30.5 -1.5h32c98.667 0 176.667 28.333 234 85c58 56.667 87 133.667 87 231c0 56.667 -10 106.667 -30 150s-47.333 77.333 -82 102c-36 25.333 -76 44 -120 56c-45.333 12 -95.333 18 -150 18h-67v137h52
c82 0 150.667 21.667 206 65s83 105 83 185c0 82.667 -21 145.667 -63 189c-42 42.667 -103 64 -183 64c-85.333 0 -148.333 -25 -189 -75c-40.667 -49.333 -61 -119.666 -61 -210.999v-1479l-170 -60z" />
    <glyph glyph-name="agrave" unicode="&#xe0;" horiz-adv-x="1033" 
d="M70 309c0 48.667 7.99805 92.665 23.998 131.998c16 38.667 36 71 60 97c23.333 25.333 54.333 47.666 93 66.999c36.667 18 73.667 32.333 111 43c18 5.33301 37.5 9.83301 58.5 13.5s43.5 6.83398 67.5 9.50098c48 4.66699 89.667 7.66699 125 9
c17.333 0.666992 36 1.16699 56 1.5s41.333 0.5 64 0.5c0 24 -0.666992 46 -2 66s-3.33301 37.667 -6 53c-5.33301 32 -15.666 60.667 -30.999 86c-16 26 -39.333 45 -70 57c-31.333 12 -71.333 18 -120 18c-85.333 0 -174.333 -32.667 -267 -98l-79 118
c42.667 41.333 93.667 73 153 95c60 22 121.333 33 184 33c40.667 0 77.667 -3 111 -9c32.667 -6 61.667 -14 87 -24c24.667 -10 47.334 -23.667 68.001 -41s37.667 -34.666 51 -51.999c14 -18 26 -40 36 -66s18 -51 24 -75c3.33301 -12 6 -25.167 8 -39.5
s3.66699 -29.833 5 -46.5c2.66699 -32.667 4.66699 -63.334 6 -92.001c0.666992 -14 1.16699 -29.167 1.5 -45.5s0.5 -34.166 0.5 -53.499v-370c0 -52 17.667 -78 53 -78h57v-119c-48 -12 -85 -18 -111 -18c-48 0 -84 17.667 -108 53c-24 34.667 -36 77.334 -36 128.001h-4
c-82 -122.667 -193 -184 -333 -184c-98 0 -178 31 -240 93s-93 142 -93 240zM393.998 1547l214 -323h-140l-309 323h235zM228.998 310.998c0 -60.667 18 -108 54 -142s85 -51 147 -51c64.667 0 122.667 20 174 60s93 91.667 125 155v213h-52
c-299.333 0 -449 -78.333 -449 -235h1z" />
    <glyph glyph-name="aacute" unicode="&#xe1;" horiz-adv-x="1033" 
d="M70 309c0 48.667 7.99805 92.665 23.998 131.998c16 38.667 36 71 60 97c23.333 25.333 54.333 47.666 93 66.999c36.667 18 73.667 32.333 111 43c18 5.33301 37.5 9.83301 58.5 13.5s43.5 6.83398 67.5 9.50098c48 4.66699 89.667 7.66699 125 9
c17.333 0.666992 36 1.16699 56 1.5s41.333 0.5 64 0.5c0 24 -0.666992 46 -2 66s-3.33301 37.667 -6 53c-5.33301 32 -15.666 60.667 -30.999 86c-16 26 -39.333 45 -70 57c-31.333 12 -71.333 18 -120 18c-85.333 0 -174.333 -32.667 -267 -98l-79 118
c42.667 41.333 93.667 73 153 95c60 22 121.333 33 184 33c40.667 0 77.667 -3 111 -9c32.667 -6 61.667 -14 87 -24c24.667 -10 47.334 -23.667 68.001 -41s37.667 -34.666 51 -51.999c14 -18 26 -40 36 -66s18 -51 24 -75c3.33301 -12 6 -25.167 8 -39.5
s3.66699 -29.833 5 -46.5c2.66699 -32.667 4.66699 -63.334 6 -92.001c0.666992 -14 1.16699 -29.167 1.5 -45.5s0.5 -34.166 0.5 -53.499v-370c0 -52 17.667 -78 53 -78h57v-119c-48 -12 -85 -18 -111 -18c-48 0 -84 17.667 -108 53c-24 34.667 -36 77.334 -36 128.001h-4
c-82 -122.667 -193 -184 -333 -184c-98 0 -178 31 -240 93s-93 142 -93 240zM228.998 310.998c0 -60.667 18 -108 54 -142s85 -51 147 -51c64.667 0 122.667 20 174 60s93 91.667 125 155v213h-52c-299.333 0 -449 -78.333 -449 -235h1zM589.998 1547h236l-310 -323h-139z
" />
    <glyph glyph-name="acircumflex" unicode="&#xe2;" horiz-adv-x="1033" 
d="M70 309c0 48.667 7.99805 92.665 23.998 131.998c16 38.667 36 71 60 97c23.333 25.333 54.333 47.666 93 66.999c36.667 18 73.667 32.333 111 43c18 5.33301 37.5 9.83301 58.5 13.5s43.5 6.83398 67.5 9.50098c48 4.66699 89.667 7.66699 125 9
c17.333 0.666992 36 1.16699 56 1.5s41.333 0.5 64 0.5c0 24 -0.666992 46 -2 66s-3.33301 37.667 -6 53c-5.33301 32 -15.666 60.667 -30.999 86c-16 26 -39.333 45 -70 57c-31.333 12 -71.333 18 -120 18c-85.333 0 -174.333 -32.667 -267 -98l-79 118
c42.667 41.333 93.667 73 153 95c60 22 121.333 33 184 33c40.667 0 77.667 -3 111 -9c32.667 -6 61.667 -14 87 -24c24.667 -10 47.334 -23.667 68.001 -41s37.667 -34.666 51 -51.999c14 -18 26 -40 36 -66s18 -51 24 -75c3.33301 -12 6 -25.167 8 -39.5
s3.66699 -29.833 5 -46.5c2.66699 -32.667 4.66699 -63.334 6 -92.001c0.666992 -14 1.16699 -29.167 1.5 -45.5s0.5 -34.166 0.5 -53.499v-370c0 -52 17.667 -78 53 -78h57v-119c-48 -12 -85 -18 -111 -18c-48 0 -84 17.667 -108 53c-24 34.667 -36 77.334 -36 128.001h-4
c-82 -122.667 -193 -184 -333 -184c-98 0 -178 31 -240 93s-93 142 -93 240zM427.998 1547h144l280 -335h-149l-204 192l-203 -192h-148zM228.998 310.998c0 -60.667 18 -108 54 -142s85 -51 147 -51c64.667 0 122.667 20 174 60s93 91.667 125 155v213h-52
c-299.333 0 -449 -78.333 -449 -235h1z" />
    <glyph glyph-name="atilde" unicode="&#xe3;" horiz-adv-x="1033" 
d="M70 309c0 48.667 7.99805 92.665 23.998 131.998c16 38.667 36 71 60 97c23.333 25.333 54.333 47.666 93 66.999c36.667 18 73.667 32.333 111 43c18 5.33301 37.5 9.83301 58.5 13.5s43.5 6.83398 67.5 9.50098c48 4.66699 89.667 7.66699 125 9
c17.333 0.666992 36 1.16699 56 1.5s41.333 0.5 64 0.5c0 24 -0.666992 46 -2 66s-3.33301 37.667 -6 53c-5.33301 32 -15.666 60.667 -30.999 86c-16 26 -39.333 45 -70 57c-31.333 12 -71.333 18 -120 18c-85.333 0 -174.333 -32.667 -267 -98l-79 118
c42.667 41.333 93.667 73 153 95c60 22 121.333 33 184 33c40.667 0 77.667 -3 111 -9c32.667 -6 61.667 -14 87 -24c24.667 -10 47.334 -23.667 68.001 -41s37.667 -34.666 51 -51.999c14 -18 26 -40 36 -66s18 -51 24 -75c3.33301 -12 6 -25.167 8 -39.5
s3.66699 -29.833 5 -46.5c2.66699 -32.667 4.66699 -63.334 6 -92.001c0.666992 -14 1.16699 -29.167 1.5 -45.5s0.5 -34.166 0.5 -53.499v-370c0 -52 17.667 -78 53 -78h57v-119c-48 -12 -85 -18 -111 -18c-48 0 -84 17.667 -108 53c-24 34.667 -36 77.334 -36 128.001h-4
c-82 -122.667 -193 -184 -333 -184c-98 0 -178 31 -240 93s-93 142 -93 240zM134.998 1238c1.33301 171.333 69.001 256.999 203.001 256.999c28.667 0 59.667 -6 93 -18c34 -12 62.667 -25 86 -39c24 -14 50 -27 78 -39s51.667 -18 71 -18c52.667 0 82 40 88 120h115
c-1.33301 -173.333 -69 -260 -203 -260c-32.667 0 -66 6 -100 18c-17.333 6 -33 12.5 -47 19.5s-26.667 14.167 -38 21.5c-24 15.333 -48.667 29 -74 41c-26 12 -49.333 18 -70 18c-18 0 -32.667 -3.33301 -44 -10c-12.667 -7.33301 -22.334 -17.333 -29.001 -30
c-7.33301 -13.333 -12.333 -25.666 -15 -36.999c-3.33301 -12.667 -6.33301 -28 -9 -46l-103 1zM226.999 311.997c0 -60.667 18 -108 54 -142s85 -51 147 -51c64.667 0 122.667 20 174 60s93 91.667 125 155v213h-52c-299.333 0 -449 -78.333 -449 -235h1z" />
    <glyph glyph-name="adieresis" unicode="&#xe4;" horiz-adv-x="1033" 
d="M70 309c0 48.667 7.99805 92.665 23.998 131.998c16 38.667 36 71 60 97c23.333 25.333 54.333 47.666 93 66.999c36.667 18 73.667 32.333 111 43c18 5.33301 37.5 9.83301 58.5 13.5s43.5 6.83398 67.5 9.50098c48 4.66699 89.667 7.66699 125 9
c17.333 0.666992 36 1.16699 56 1.5s41.333 0.5 64 0.5c0 24 -0.666992 46 -2 66s-3.33301 37.667 -6 53c-5.33301 32 -15.666 60.667 -30.999 86c-16 26 -39.333 45 -70 57c-31.333 12 -71.333 18 -120 18c-85.333 0 -174.333 -32.667 -267 -98l-79 118
c42.667 41.333 93.667 73 153 95c60 22 121.333 33 184 33c40.667 0 77.667 -3 111 -9c32.667 -6 61.667 -14 87 -24c24.667 -10 47.334 -23.667 68.001 -41s37.667 -34.666 51 -51.999c14 -18 26 -40 36 -66s18 -51 24 -75c3.33301 -12 6 -25.167 8 -39.5
s3.66699 -29.833 5 -46.5c2.66699 -32.667 4.66699 -63.334 6 -92.001c0.666992 -14 1.16699 -29.167 1.5 -45.5s0.5 -34.166 0.5 -53.499v-370c0 -52 17.667 -78 53 -78h57v-119c-48 -12 -85 -18 -111 -18c-48 0 -84 17.667 -108 53c-24 34.667 -36 77.334 -36 128.001h-4
c-82 -122.667 -193 -184 -333 -184c-98 0 -178 31 -240 93s-93 142 -93 240zM219.998 1371c0 30 10.667 56.333 32 79c20.667 22 46.667 33 78 33c30.667 0 57 -11 79 -33s33 -48 33 -78c0 -30.667 -11 -57 -33 -79s-48.333 -33 -79 -33c-31.333 0 -57.333 11 -78 33
c-21.333 22.667 -32 49 -32 79v-1zM228.998 309.998c0 -60.667 18 -108 54 -142s85 -51 147 -51c64.667 0 122.667 20 174 60s93 91.667 125 155v213h-52c-299.333 0 -449 -78.333 -449 -235h1zM580.998 1370c0 30 10.667 56.333 32 79c20.667 22 46.667 33 78 33
c30.667 0 57 -11 79 -33s33 -48 33 -78c0 -30.667 -11 -57 -33 -79s-48.333 -33 -79 -33c-31.333 0 -57.333 11 -78 33c-21.333 22.667 -32 49 -32 79v-1z" />
    <glyph glyph-name="aring" unicode="&#xe5;" horiz-adv-x="1033" 
d="M70 309c0 48.667 7.99805 92.665 23.998 131.998c16 38.667 36 71 60 97c23.333 25.333 54.333 47.666 93 66.999c36.667 18 73.667 32.333 111 43c18 5.33301 37.5 9.83301 58.5 13.5s43.5 6.83398 67.5 9.50098c48 4.66699 89.667 7.66699 125 9
c17.333 0.666992 36 1.16699 56 1.5s41.333 0.5 64 0.5c0 24 -0.666992 46 -2 66s-3.33301 37.667 -6 53c-5.33301 32 -15.666 60.667 -30.999 86c-16 26 -39.333 45 -70 57c-31.333 12 -71.333 18 -120 18c-85.333 0 -174.333 -32.667 -267 -98l-79 118
c42.667 41.333 93.667 73 153 95c60 22 121.333 33 184 33c40.667 0 77.667 -3 111 -9c32.667 -6 61.667 -14 87 -24c24.667 -10 47.334 -23.667 68.001 -41s37.667 -34.666 51 -51.999c14 -18 26 -40 36 -66s18 -51 24 -75c3.33301 -12 6 -25.167 8 -39.5
s3.66699 -29.833 5 -46.5c2.66699 -32.667 4.66699 -63.334 6 -92.001c0.666992 -14 1.16699 -29.167 1.5 -45.5s0.5 -34.166 0.5 -53.499v-370c0 -52 17.667 -78 53 -78h57v-119c-48 -12 -85 -18 -111 -18c-48 0 -84 17.667 -108 53c-24 34.667 -36 77.334 -36 128.001h-4
c-82 -122.667 -193 -184 -333 -184c-98 0 -178 31 -240 93s-93 142 -93 240zM228.998 310.998c0 -60.667 18 -108 54 -142s85 -51 147 -51c64.667 0 122.667 20 174 60s93 91.667 125 155v213h-52c-299.333 0 -449 -78.333 -449 -235h1zM304.998 1443
c0 60 21.667 111.666 65 154.999s95 65 155 65c61.333 0 113.333 -21.333 156 -64c43.333 -43.333 65 -94.666 65 -153.999c0 -61.333 -21.333 -113.333 -64 -156s-94.667 -64 -156 -64c-60 0 -111.667 21.667 -155 65s-65 95.333 -65 156zM398.998 1442
c0 -35.333 12 -65.333 36 -90s53.667 -37 89 -37s65 12.667 89 38c24 24.667 36 54.667 36 90c0 32.667 -12.667 61.667 -38 87s-54.333 38 -87 38c-35.333 0 -65 -12 -89 -36s-36 -53.667 -36 -89v-1z" />
    <glyph glyph-name="ae" unicode="&#xe6;" horiz-adv-x="1686" 
d="M76 299c0 54.667 11.0029 102.665 33.0029 143.998s51 74 87 98c37.333 24.667 82.666 44.334 135.999 59.001c55.333 15.333 110.666 25.333 165.999 30c28 2.66699 57.667 4.66699 89 6s65 2 101 2h46c0 20 -0.333008 38.5 -1 55.5s-1.66699 32.5 -3 46.5
c-3.33301 28.667 -9.33301 57.334 -18 86.001s-21.334 51.667 -38.001 69c-16 16.667 -38 30.667 -66 42c-27.333 10.667 -61.333 16 -102 16c-90.667 0 -179.667 -31.333 -267 -94l-79 118c38 37.333 86.333 67.333 145 90c58 22.667 122 34 192 34
c92.667 0 166 -15 220 -45s94 -73.667 120 -131c76 119.333 191 179 345 179c60.667 0 114.667 -10.333 162 -31c48 -21.333 88 -49.333 120 -84c32.667 -36 59.334 -77.333 80.001 -124c20.667 -48 35.667 -98 45 -150c4.66699 -26 8.16699 -52.667 10.5 -80
s3.5 -55.333 3.5 -84c0 -5.33301 -0.166992 -11.5 -0.5 -18.5s-0.833008 -14.833 -1.5 -23.5h-728c0 -123.333 25.333 -219.333 76 -288c51.333 -69.333 125.666 -104 222.999 -104c63.333 0 117.333 13.333 162 40c45.333 27.333 85 69.333 119 126l124 -87
c-44.667 -78.667 -99.667 -136 -165 -172s-152.333 -54 -261 -54c-165.333 0 -282.333 75 -351 225c-53.333 -79.333 -111.333 -136.333 -174 -171c-63.333 -35.333 -136.333 -53 -219 -53c-90.667 0 -168.667 30.333 -234 91c-66 60.667 -99 142.667 -99 246z
M232.003 296.998c0 -59.333 18.667 -106.001 56 -140.001c36.667 -34 85.667 -51 147 -51c82.667 0 157.667 36.667 225 110c28.667 30.667 53.667 67.334 75 110.001v193h-52c-299.333 0 -449 -73.667 -449 -221zM1431 625.997c0 40.667 -5.00098 79.667 -15.001 117
c-10 38 -25.333 72 -46 102c-21.333 31.333 -49.666 56.333 -84.999 75s-77 28 -125 28c-44 0 -84.333 -9.33301 -121 -28s-66 -43.667 -88 -75s-39 -65.333 -51 -102c-12 -37.333 -18 -75.333 -18 -114v-5z" />
    <glyph glyph-name="ccedilla" unicode="&#xe7;" horiz-adv-x="990" 
d="M79 534c0 31.333 1.33105 61.501 3.99805 90.501s6.66699 57.5 12 85.5c10.667 53.333 28.334 105.666 53.001 156.999c24 50 54 93 90 129c35.333 35.333 81 63.666 137 84.999c54 20.667 115 31 183 31c65.333 0 130.333 -16.333 195 -49
c64.667 -33.333 117.667 -85.333 159 -156l-123 -87c-31.333 50.667 -68.333 86.667 -111 108c-44 21.333 -87 32 -129 32c-93.333 0 -166.333 -40 -219 -120c-53.333 -80.667 -80 -182 -80 -304c0 -116.667 27.667 -213.667 83 -291c54.667 -76.667 127.667 -115 219 -115
c107.333 0 190.333 49.333 249 148l124 -87c-36 -65.333 -83 -115.666 -141 -150.999c-57.333 -34.667 -119 -55 -185 -61l-49 -107c24 8 49.667 11 77 9c26.667 -2 51.667 -7 75 -15s42.333 -22.333 57 -43c15.333 -21.333 23 -46.333 23 -75c0 -35.333 -7 -66.333 -21 -93
c-14 -27.333 -32.333 -48.333 -55 -63c-22 -14.667 -46.333 -26 -73 -34c-26 -8 -52.667 -12 -80 -12c-67.333 0 -132.333 20 -195 60l34 96c68.667 -34 123.334 -51 164.001 -51c28 0 53 7 75 21s33 36 33 66c0 41.333 -28.667 62 -86 62h-88l-44 42l62 137
c-73.333 6 -137.333 25 -192 57c-55.333 32 -99.333 73.333 -132 124c-33.333 50.667 -58.333 107.667 -75 171c-16.667 62 -25 130 -25 204z" />
    <glyph glyph-name="egrave" unicode="&#xe8;" horiz-adv-x="1062" 
d="M85 515c0 182 41.0029 326.998 123.003 434.998s198.333 162 349 162c60.667 0 114.667 -10.333 162 -31c48 -21.333 88 -49.333 120 -84c31.333 -34 57.666 -75.667 78.999 -125c20.667 -48 35.667 -98 45 -150c4.66699 -26 8.16699 -52.5 10.5 -79.5
s3.5 -54.833 3.5 -83.5c0 -10 -0.166992 -19.667 -0.5 -29s-0.833008 -18.333 -1.5 -27h-728c0 -117.333 25.333 -209.666 76 -276.999c50.667 -68 124.667 -102 222 -102c63.333 0 117.333 13.333 162 40c45.333 27.333 85 69.333 119 126l124 -87
c-45.333 -79.333 -100.333 -136.333 -165 -171c-65.333 -35.333 -152.333 -53 -261 -53c-74.667 0 -141.334 15.667 -200.001 47c-57.333 30.667 -103.333 72.334 -138 125.001s-60.334 109.667 -77.001 171c-17.333 63.333 -26 128 -26 194zM440.003 1550l214 -323h-140
l-309 323h235zM257.003 637.998l554.001 0.00195312c0 40.667 -5 79.667 -15 117c-9.33301 35.333 -25 69.666 -47 102.999c-20.667 31.333 -49.334 56.666 -86.001 75.999c-35.333 18.667 -77 28 -125 28c-45.333 0 -86.333 -10 -123 -30c-37.333 -20 -67 -46 -89 -78
s-39 -66.667 -51 -104s-18 -74 -18 -110v-2z" />
    <glyph glyph-name="eacute" unicode="&#xe9;" horiz-adv-x="1062" 
d="M85 515c0 182 41.0029 326.998 123.003 434.998s198.333 162 349 162c60.667 0 114.667 -10.333 162 -31c48 -21.333 88 -49.333 120 -84c31.333 -34 57.666 -75.667 78.999 -125c20.667 -48 35.667 -98 45 -150c4.66699 -26 8.16699 -52.5 10.5 -79.5
s3.5 -54.833 3.5 -83.5c0 -10 -0.166992 -19.667 -0.5 -29s-0.833008 -18.333 -1.5 -27h-728c0 -117.333 25.333 -209.666 76 -276.999c50.667 -68 124.667 -102 222 -102c63.333 0 117.333 13.333 162 40c45.333 27.333 85 69.333 119 126l124 -87
c-45.333 -79.333 -100.333 -136.333 -165 -171c-65.333 -35.333 -152.333 -53 -261 -53c-74.667 0 -141.334 15.667 -200.001 47c-57.333 30.667 -103.333 72.334 -138 125.001s-60.334 109.667 -77.001 171c-17.333 63.333 -26 128 -26 194zM257.003 637.998
l554.001 0.00195312c0 40.667 -5 79.667 -15 117c-9.33301 35.333 -25 69.666 -47 102.999c-20.667 31.333 -49.334 56.666 -86.001 75.999c-35.333 18.667 -77 28 -125 28c-45.333 0 -86.333 -10 -123 -30c-37.333 -20 -67 -46 -89 -78s-39 -66.667 -51 -104
s-18 -74 -18 -110v-2zM645.004 1552h236l-310 -323h-139z" />
    <glyph glyph-name="ecircumflex" unicode="&#xea;" horiz-adv-x="1062" 
d="M85 515c0 182 41.0029 326.998 123.003 434.998s198.333 162 349 162c60.667 0 114.667 -10.333 162 -31c48 -21.333 88 -49.333 120 -84c31.333 -34 57.666 -75.667 78.999 -125c20.667 -48 35.667 -98 45 -150c4.66699 -26 8.16699 -52.5 10.5 -79.5
s3.5 -54.833 3.5 -83.5c0 -10 -0.166992 -19.667 -0.5 -29s-0.833008 -18.333 -1.5 -27h-728c0 -117.333 25.333 -209.666 76 -276.999c50.667 -68 124.667 -102 222 -102c63.333 0 117.333 13.333 162 40c45.333 27.333 85 69.333 119 126l124 -87
c-45.333 -79.333 -100.333 -136.333 -165 -171c-65.333 -35.333 -152.333 -53 -261 -53c-74.667 0 -141.334 15.667 -200.001 47c-57.333 30.667 -103.333 72.334 -138 125.001s-60.334 109.667 -77.001 171c-17.333 63.333 -26 128 -26 194zM483.003 1550h144l280 -335
h-149l-204 192l-203 -192h-148zM257.003 637.998l554.001 0.00195312c0 40.667 -5 79.667 -15 117c-9.33301 35.333 -25 69.666 -47 102.999c-20.667 31.333 -49.334 56.666 -86.001 75.999c-35.333 18.667 -77 28 -125 28c-45.333 0 -86.333 -10 -123 -30
c-37.333 -20 -67 -46 -89 -78s-39 -66.667 -51 -104s-18 -74 -18 -110v-2z" />
    <glyph glyph-name="edieresis" unicode="&#xeb;" horiz-adv-x="1062" 
d="M85 515c0 182 41.0029 326.998 123.003 434.998s198.333 162 349 162c60.667 0 114.667 -10.333 162 -31c48 -21.333 88 -49.333 120 -84c31.333 -34 57.666 -75.667 78.999 -125c20.667 -48 35.667 -98 45 -150c4.66699 -26 8.16699 -52.5 10.5 -79.5
s3.5 -54.833 3.5 -83.5c0 -10 -0.166992 -19.667 -0.5 -29s-0.833008 -18.333 -1.5 -27h-728c0 -117.333 25.333 -209.666 76 -276.999c50.667 -68 124.667 -102 222 -102c63.333 0 117.333 13.333 162 40c45.333 27.333 85 69.333 119 126l124 -87
c-45.333 -79.333 -100.333 -136.333 -165 -171c-65.333 -35.333 -152.333 -53 -261 -53c-74.667 0 -141.334 15.667 -200.001 47c-57.333 30.667 -103.333 72.334 -138 125.001s-60.334 109.667 -77.001 171c-17.333 63.333 -26 128 -26 194zM256.003 1374
c0 30 10.667 56.333 32 79c20.667 22 46.667 33 78 33c30.667 0 57 -11 79 -33s33 -48 33 -78c0 -30.667 -11 -57 -33 -79s-48.333 -33 -79 -33c-31.333 0 -57.333 11 -78 33c-21.333 22.667 -32 49 -32 79v-1zM257.003 636.998l554.001 0.00195312
c0 40.667 -5 79.667 -15 117c-9.33301 35.333 -25 69.666 -47 102.999c-20.667 31.333 -49.334 56.666 -86.001 75.999c-35.333 18.667 -77 28 -125 28c-45.333 0 -86.333 -10 -123 -30c-37.333 -20 -67 -46 -89 -78s-39 -66.667 -51 -104s-18 -74 -18 -110v-2z
M616.004 1375c0 30 10.667 56.333 32 79c20.667 22 46.667 33 78 33c30.667 0 57 -11 79 -33s33 -48 33 -78c0 -30.667 -11 -57 -33 -79s-48.333 -33 -79 -33c-31.333 0 -57.333 11 -78 33c-21.333 22.667 -32 49 -32 79v-1z" />
    <glyph glyph-name="igrave" unicode="&#xec;" horiz-adv-x="485" 
d="M77 1549l214 -323h-140l-309 323h235zM57 1093h289v-1093h-162v953h-127v140z" />
    <glyph glyph-name="iacute" unicode="&#xed;" horiz-adv-x="485" 
d="M57 1093h289v-1093h-162v953h-127v140zM348 1559h235l-309 -323h-139z" />
    <glyph glyph-name="icircumflex" unicode="&#xee;" horiz-adv-x="485" 
d="M142 1549h144l280 -335h-149l-203 192l-203 -192h-149zM57 1093h289v-1093h-162v953h-127v140z" />
    <glyph glyph-name="idieresis" unicode="&#xef;" horiz-adv-x="485" 
d="M-79 1374c0 29.333 10.667 55.333 32 78c20.667 22 46.667 33 78 33c30.667 0 57 -11 79 -33s33 -48 33 -78s-10.667 -56.333 -32 -79c-21.333 -22 -47.333 -33 -78 -33c-31.333 0 -57.333 11 -78 33c-21.333 22.667 -32 49 -32 79h-2zM55 1093h289v-1093h-162v953h-127
v140zM279 1374c0 29.333 10.667 55.333 32 78c20.667 22 46.667 33 78 33c30.667 0 57 -11 79 -33s33 -48 33 -78s-10.667 -56.333 -32 -79c-21.333 -22 -47.333 -33 -78 -33c-31.333 0 -57.333 11 -78 33c-21.333 22.667 -32 49 -32 79h-2z" />
    <glyph glyph-name="eth" unicode="&#xf0;" horiz-adv-x="1102" 
d="M82 494c0 64 10.6689 127.995 32.002 191.995c21.333 64.667 50.666 121.334 87.999 170.001c38 50 85.667 89.667 143 119s119.333 42 186 38c99.333 -7.33301 177 -38.333 233 -93l4 6c-33.333 56 -68 105 -104 147c-34.667 40 -82.334 83 -143.001 129l-289 -145
l-46 91l245 123c-66 46.667 -129.667 84.334 -191 113.001l30 139c102.667 -43.333 205.667 -102.333 309 -177l242 122l46 -92l-201 -100c234.667 -210 352 -450.667 352 -722c0 -61.333 -5.33301 -118.666 -16 -171.999s-28.334 -105.666 -53.001 -156.999
c-24 -49.333 -54 -92.666 -90 -129.999c-36 -36.667 -80.333 -66 -133 -88c-53.333 -22 -111.666 -33 -174.999 -33c-96.667 0 -181 24 -253 72s-126 111 -162 189s-54 164.667 -54 260v-1zM247.002 494.995c0 -60.667 11.001 -119.999 33.001 -177.999
c21.333 -57.333 56 -106.666 104 -147.999c46.667 -40.667 101.667 -61 165 -61c42.667 0 81.667 8 117 24c34.667 16 63.667 37.667 87 65c22 26 41.333 57 58 93c15.333 34 26.666 70 33.999 108c6.66699 35.333 10 73.333 10 114c0 119.333 -24.667 209.666 -74 270.999
c-24 28.667 -58 51.667 -102 69c-44.667 17.333 -87 26 -127 26c-52 0 -98 -11 -138 -33c-40.667 -22 -72.667 -51.333 -96 -88c-24 -36.667 -42 -77.334 -54 -122.001c-12 -44 -18 -90.667 -18 -140h1z" />
    <glyph glyph-name="ntilde" unicode="&#xf1;" horiz-adv-x="1115" 
d="M139 0v1095h137l18 -177h6c80.667 128.667 188 193 322 193c242 0 363 -145.333 363 -436v-675h-163v676c0 88 -19 157 -57 207s-95.333 75 -172 75c-81.333 0 -154.333 -41 -219 -123c-28 -36 -52.667 -77 -74 -123v-713zM201 1238c0 36.667 3 69.667 9 99
c6 28.667 16 55.667 30 81c14 24.667 34.667 43.667 62 57c28 13.333 61 20 99 20c28.667 0 59.667 -6 93 -18c32.667 -12 61.667 -25 87 -39c26 -14.667 52.333 -27.667 79 -39c28 -12 51.667 -18 71 -18c52.667 0 82 40 88 120h114c0 -173.333 -67.333 -260 -202 -260
c-33.333 0 -67 6 -101 18c-17.333 6 -33 12.5 -47 19.5s-26.667 14.167 -38 21.5s-23.333 14.5 -36 21.5s-25.667 13.5 -39 19.5c-27.333 12 -51.333 18 -72 18c-14.667 0 -27 -2.33301 -37 -7c-11.333 -5.33301 -20 -11.333 -26 -18
c-6.66699 -7.33301 -12.334 -17 -17.001 -29c-2.66699 -6 -4.66699 -11.667 -6 -17s-2.66602 -10.333 -3.99902 -15s-2.5 -10 -3.5 -16s-2.16699 -12.667 -3.5 -20l-102 1h2z" />
    <glyph glyph-name="ograve" unicode="&#xf2;" horiz-adv-x="1098" 
d="M85 542c0 50.667 5.00098 101.662 15.001 152.995c10 50.667 27 101.667 51 153c24.667 52.667 54 97.334 88 134.001c35.333 38 79.666 69 132.999 93c54 24 113.667 36 179 36c67.333 0 128 -12 182 -36s98 -55 132 -93c34.667 -39.333 63.334 -83.666 86.001 -132.999
c23.333 -51.333 39.333 -101.666 48 -150.999c4.66699 -25.333 8.16699 -50.666 10.5 -75.999s3.5 -50.666 3.5 -75.999c0 -58.667 -5.33301 -113.667 -16 -165c-11.333 -53.333 -29.333 -104.333 -54 -153c-25.333 -49.333 -55.333 -92.333 -90 -129
c-34 -36 -77.667 -65.333 -131 -88c-52 -22 -109.333 -33 -172 -33c-63.333 0 -121.333 11 -174 33c-52 21.333 -96.333 51 -133 89c-36 36.667 -66 79.667 -90 129c-24.667 50 -42.334 101 -53.001 153c-10.667 51.333 -16 105.333 -16 162zM450.001 1547l213 -323h-139
l-309 323h235zM246.001 538.995c0 -70.667 11.333 -137 34 -199c23.333 -63.333 58.333 -116 105 -158s101.334 -63 164.001 -63c64.667 0 120.667 21 168 63c46.667 42 80.667 94 102 156c21.333 62.667 32 129.334 32 200.001c0 56.667 -5.33301 108.667 -16 156
c-11.333 48.667 -28.333 93.667 -51 135c-22.667 40.667 -54 73 -94 97s-86.333 36 -139 36c-52 0 -98 -13 -138 -39c-40.667 -26.667 -72.334 -60.667 -95.001 -102c-22 -40.667 -39.333 -85.334 -52 -134.001c-12 -47.333 -18 -95.333 -18 -144z" />
    <glyph glyph-name="oacute" unicode="&#xf3;" horiz-adv-x="1098" 
d="M85 542c0 50.667 5.00098 101.662 15.001 152.995c10 50.667 27 101.667 51 153c24.667 52.667 54 97.334 88 134.001c35.333 38 79.666 69 132.999 93c54 24 113.667 36 179 36c67.333 0 128 -12 182 -36s98 -55 132 -93c34.667 -39.333 63.334 -83.666 86.001 -132.999
c23.333 -51.333 39.333 -101.666 48 -150.999c4.66699 -25.333 8.16699 -50.666 10.5 -75.999s3.5 -50.666 3.5 -75.999c0 -58.667 -5.33301 -113.667 -16 -165c-11.333 -53.333 -29.333 -104.333 -54 -153c-25.333 -49.333 -55.333 -92.333 -90 -129
c-34 -36 -77.667 -65.333 -131 -88c-52 -22 -109.333 -33 -172 -33c-63.333 0 -121.333 11 -174 33c-52 21.333 -96.333 51 -133 89c-36 36.667 -66 79.667 -90 129c-24.667 50 -42.334 101 -53.001 153c-10.667 51.333 -16 105.333 -16 162zM246.001 538.995
c0 -70.667 11.333 -137 34 -199c23.333 -63.333 58.333 -116 105 -158s101.334 -63 164.001 -63c64.667 0 120.667 21 168 63c46.667 42 80.667 94 102 156c21.333 62.667 32 129.334 32 200.001c0 56.667 -5.33301 108.667 -16 156c-11.333 48.667 -28.333 93.667 -51 135
c-22.667 40.667 -54 73 -94 97s-86.333 36 -139 36c-52 0 -98 -13 -138 -39c-40.667 -26.667 -72.334 -60.667 -95.001 -102c-22 -40.667 -39.333 -85.334 -52 -134.001c-12 -47.333 -18 -95.333 -18 -144zM652.001 1543h235l-309 -323h-139z" />
    <glyph glyph-name="ocircumflex" unicode="&#xf4;" horiz-adv-x="1098" 
d="M85 542c0 50.667 5.00098 101.662 15.001 152.995c10 50.667 27 101.667 51 153c24.667 52.667 54 97.334 88 134.001c35.333 38 79.666 69 132.999 93c54 24 113.667 36 179 36c67.333 0 128 -12 182 -36s98 -55 132 -93c34.667 -39.333 63.334 -83.666 86.001 -132.999
c23.333 -51.333 39.333 -101.666 48 -150.999c4.66699 -25.333 8.16699 -50.666 10.5 -75.999s3.5 -50.666 3.5 -75.999c0 -58.667 -5.33301 -113.667 -16 -165c-11.333 -53.333 -29.333 -104.333 -54 -153c-25.333 -49.333 -55.333 -92.333 -90 -129
c-34 -36 -77.667 -65.333 -131 -88c-52 -22 -109.333 -33 -172 -33c-63.333 0 -121.333 11 -174 33c-52 21.333 -96.333 51 -133 89c-36 36.667 -66 79.667 -90 129c-24.667 50 -42.334 101 -53.001 153c-10.667 51.333 -16 105.333 -16 162zM479.001 1547h144l280 -335
h-149l-204 192l-203 -192h-148zM246.001 538.995c0 -70.667 11.333 -137 34 -199c23.333 -63.333 58.333 -116 105 -158s101.334 -63 164.001 -63c64.667 0 120.667 21 168 63c46.667 42 80.667 94 102 156c21.333 62.667 32 129.334 32 200.001
c0 56.667 -5.33301 108.667 -16 156c-11.333 48.667 -28.333 93.667 -51 135c-22.667 40.667 -54 73 -94 97s-86.333 36 -139 36c-52 0 -98 -13 -138 -39c-40.667 -26.667 -72.334 -60.667 -95.001 -102c-22 -40.667 -39.333 -85.334 -52 -134.001
c-12 -47.333 -18 -95.333 -18 -144z" />
    <glyph glyph-name="otilde" unicode="&#xf5;" horiz-adv-x="1098" 
d="M85 542c0 50.667 5.00098 101.662 15.001 152.995c10 50.667 27 101.667 51 153c24.667 52.667 54 97.334 88 134.001c35.333 38 79.666 69 132.999 93c54 24 113.667 36 179 36c67.333 0 128 -12 182 -36s98 -55 132 -93c34.667 -39.333 63.334 -83.666 86.001 -132.999
c23.333 -51.333 39.333 -101.666 48 -150.999c4.66699 -25.333 8.16699 -50.666 10.5 -75.999s3.5 -50.666 3.5 -75.999c0 -58.667 -5.33301 -113.667 -16 -165c-11.333 -53.333 -29.333 -104.333 -54 -153c-25.333 -49.333 -55.333 -92.333 -90 -129
c-34 -36 -77.667 -65.333 -131 -88c-52 -22 -109.333 -33 -172 -33c-63.333 0 -121.333 11 -174 33c-52 21.333 -96.333 51 -133 89c-36 36.667 -66 79.667 -90 129c-24.667 50 -42.334 101 -53.001 153c-10.667 51.333 -16 105.333 -16 162zM197.001 1237
c0 36.667 3 69.667 9 99c6 28.667 16 55.667 30 81c14 24.667 34.667 43.667 62 57c28 13.333 61 20 99 20c28.667 0 59.667 -6 93 -18c32.667 -12 61.667 -25 87 -39c26 -14.667 52.333 -27.667 79 -39c28 -12 51.667 -18 71 -18c52.667 0 82 40 88 120h114
c0 -173.333 -67.333 -260 -202 -260c-33.333 0 -67 6 -101 18c-17.333 6 -33 12.5 -47 19.5s-26.667 14.167 -38 21.5s-23.333 14.5 -36 21.5s-25.667 13.5 -39 19.5c-27.333 12 -51.333 18 -72 18c-14.667 0 -27 -2.33301 -37 -7c-11.333 -5.33301 -20 -11.333 -26 -18
c-6.66699 -7.33301 -12.334 -17 -17.001 -29c-2.66699 -6 -4.66699 -11.667 -6 -17s-2.66602 -10.333 -3.99902 -15s-2.5 -10 -3.5 -16s-2.16699 -12.667 -3.5 -20l-102 1h2zM248.001 538.995c0 -70.667 11.333 -137 34 -199c23.333 -63.333 58.333 -116 105 -158
s101.334 -63 164.001 -63c64.667 0 120.667 21 168 63c46.667 42 80.667 94 102 156c21.333 62.667 32 129.334 32 200.001c0 56.667 -5.33301 108.667 -16 156c-11.333 48.667 -28.333 93.667 -51 135c-22.667 40.667 -54 73 -94 97s-86.333 36 -139 36
c-52 0 -98 -13 -138 -39c-40.667 -26.667 -72.334 -60.667 -95.001 -102c-22 -40.667 -39.333 -85.334 -52 -134.001c-12 -47.333 -18 -95.333 -18 -144z" />
    <glyph glyph-name="odieresis" unicode="&#xf6;" horiz-adv-x="1098" 
d="M85 542c0 50.667 5.00098 101.662 15.001 152.995c10 50.667 27 101.667 51 153c24.667 52.667 54 97.334 88 134.001c35.333 38 79.666 69 132.999 93c54 24 113.667 36 179 36c67.333 0 128 -12 182 -36s98 -55 132 -93c34.667 -39.333 63.334 -83.666 86.001 -132.999
c23.333 -51.333 39.333 -101.666 48 -150.999c4.66699 -25.333 8.16699 -50.666 10.5 -75.999s3.5 -50.666 3.5 -75.999c0 -58.667 -5.33301 -113.667 -16 -165c-11.333 -53.333 -29.333 -104.333 -54 -153c-25.333 -49.333 -55.333 -92.333 -90 -129
c-34 -36 -77.667 -65.333 -131 -88c-52 -22 -109.333 -33 -172 -33c-63.333 0 -121.333 11 -174 33c-52 21.333 -96.333 51 -133 89c-36 36.667 -66 79.667 -90 129c-24.667 50 -42.334 101 -53.001 153c-10.667 51.333 -16 105.333 -16 162zM246.001 538.995
c0 -70.667 11.333 -137 34 -199c23.333 -63.333 58.333 -116 105 -158s101.334 -63 164.001 -63c64.667 0 120.667 21 168 63c46.667 42 80.667 94 102 156c21.333 62.667 32 129.334 32 200.001c0 56.667 -5.33301 108.667 -16 156c-11.333 48.667 -28.333 93.667 -51 135
c-22.667 40.667 -54 73 -94 97s-86.333 36 -139 36c-52 0 -98 -13 -138 -39c-40.667 -26.667 -72.334 -60.667 -95.001 -102c-22 -40.667 -39.333 -85.334 -52 -134.001c-12 -47.333 -18 -95.333 -18 -144zM259.001 1367c0 30 10.667 56.333 32 79
c20.667 22 46.667 33 78 33c30.667 0 57 -11 79 -33s33 -48 33 -78c0 -30.667 -11 -57 -33 -79s-48.333 -33 -79 -33c-31.333 0 -57.333 11 -78 33c-21.333 22.667 -32 49 -32 79v-1zM619.001 1366c0 30 10.667 56.333 32 79c20.667 22 46.667 33 78 33
c30.667 0 57 -11 79 -33s33 -48 33 -78c0 -30.667 -11 -57 -33 -79s-48.333 -33 -79 -33c-31.333 0 -57.333 11 -78 33c-21.333 22.667 -32 49 -32 79v-1z" />
    <glyph glyph-name="divide" unicode="&#xf7;" horiz-adv-x="1202" 
d="M105 766h992v-133h-992v133zM476 338c0 33.333 12 62.666 36 87.999c24 24.667 53.667 37 89 37c34 0 63 -12.333 87 -37c24 -25.333 36 -54.666 36 -87.999c0 -34 -12 -63.333 -36 -88s-53 -37 -87 -37c-34.667 0 -64 12.333 -88 37s-36 54 -36 88h-1zM475 1061
c0 34 12 63 36 87s53.667 36 89 36c34 0 63 -12 87 -36s36 -53 36 -87s-12 -63 -36 -87s-53 -36 -87 -36c-34.667 0 -64 12 -88 36s-36 53 -36 87h-1z" />
    <glyph glyph-name="oslash" unicode="&#xf8;" horiz-adv-x="1098" 
d="M163 208c-52.667 96.667 -79 208.332 -79 334.999c0 50.667 5 101.667 15 153s27 102 51 152c24.667 51.333 54 96 88 134c34.667 38.667 79 70 133 94s113.667 36 179 36c134 0 241.667 -46.667 323 -140l151 162l92 -78l-174 -187c47.333 -98 71 -206 71 -324
c0 -58 -5.33301 -113.333 -16 -166c-10.667 -53.333 -28.667 -104.666 -54 -153.999s-55.333 -92.333 -90 -129c-34 -36 -77.667 -65.333 -131 -88c-52 -22 -109.333 -33 -172 -33c-128.667 0 -234 44.333 -316 133l-159 -171l-93 78zM246 542.998
c0 -71.333 12.333 -139.667 37 -205l482 518c-53.333 71.333 -125.333 107 -216 107c-41.333 0 -79.333 -8.66699 -114 -26c-34 -17.333 -62.667 -40 -86 -68c-22.667 -27.333 -42 -59.666 -58 -96.999c-8 -18.667 -14.833 -37.334 -20.5 -56.001s-10.167 -37.667 -13.5 -57
s-5.83301 -38.5 -7.5 -57.5s-2.5 -38.167 -2.5 -57.5zM345 227.997c54.667 -70.667 122.333 -106.001 203 -106.001c64.667 0 120.667 21 168 63c46.667 42 80.667 94 102 156c21.333 62.667 32 129.334 32 200.001c0 73.333 -9.33301 139.333 -28 198l-477 -513v2z" />
    <glyph glyph-name="ugrave" unicode="&#xf9;" horiz-adv-x="1094" 
d="M127 388v706.999h162v-708c0 -79.333 19 -142.333 57 -189s95.333 -70 172 -70c79.333 0 150.333 41.333 213 124c24 32 47.333 74 70 126v717h162v-1095h-138l-18 184h-5c-23.333 -42 -47.333 -77 -72 -105c-25.333 -28 -51.333 -49 -78 -63
c-26 -13.333 -52 -22.666 -78 -27.999c-26.667 -5.33301 -54.667 -8 -84 -8c-118.667 0 -209 35 -271 105s-93 170.667 -93 302zM431 1548l214 -323h-140l-309 323h235z" />
    <glyph glyph-name="uacute" unicode="&#xfa;" horiz-adv-x="1094" 
d="M127 388v706.999h162v-708c0 -79.333 19 -142.333 57 -189s95.333 -70 172 -70c79.333 0 150.333 41.333 213 124c24 32 47.333 74 70 126v717h162v-1095h-138l-18 184h-5c-23.333 -42 -47.333 -77 -72 -105c-25.333 -28 -51.333 -49 -78 -63
c-26 -13.333 -52 -22.666 -78 -27.999c-26.667 -5.33301 -54.667 -8 -84 -8c-118.667 0 -209 35 -271 105s-93 170.667 -93 302zM656 1548h236l-310 -323h-139z" />
    <glyph glyph-name="ucircumflex" unicode="&#xfb;" horiz-adv-x="1094" 
d="M127 388v706.999h162v-708c0 -79.333 19 -142.333 57 -189s95.333 -70 172 -70c79.333 0 150.333 41.333 213 124c24 32 47.333 74 70 126v717h162v-1095h-138l-18 184h-5c-23.333 -42 -47.333 -77 -72 -105c-25.333 -28 -51.333 -49 -78 -63
c-26 -13.333 -52 -22.666 -78 -27.999c-26.667 -5.33301 -54.667 -8 -84 -8c-118.667 0 -209 35 -271 105s-93 170.667 -93 302zM480 1548h144l280 -335h-149l-203 192l-203 -192h-149z" />
    <glyph glyph-name="udieresis" unicode="&#xfc;" horiz-adv-x="1094" 
d="M127 388v706.999h162v-708c0 -79.333 19 -142.333 57 -189s95.333 -70 172 -70c79.333 0 150.333 41.333 213 124c24 32 47.333 74 70 126v717h162v-1095h-138l-18 184h-5c-23.333 -42 -47.333 -77 -72 -105c-25.333 -28 -51.333 -49 -78 -63
c-26 -13.333 -52 -22.666 -78 -27.999c-26.667 -5.33301 -54.667 -8 -84 -8c-118.667 0 -209 35 -271 105s-93 170.667 -93 302zM256 1373c0 29.333 10.667 55.333 32 78c20.667 22 46.667 33 78 33c30.667 0 57 -11 79 -33s33 -48 33 -78s-10.667 -56.333 -32 -79
c-21.333 -22 -47.333 -33 -78 -33c-31.333 0 -57.333 11 -78 33c-21.333 22.667 -32 49 -32 79h-2zM614 1373c0 29.333 10.667 55.333 32 78c20.667 22 46.667 33 78 33c30.667 0 57 -11 79 -33s33 -48 33 -78s-10.667 -56.333 -32 -79c-21.333 -22 -47.333 -33 -78 -33
c-31.333 0 -57.333 11 -78 33c-21.333 22.667 -32 49 -32 79h-2z" />
    <glyph glyph-name="yacute" unicode="&#xfd;" horiz-adv-x="955" 
d="M15 1095l178.001 0.00292969l302 -853l266 853h180l-433 -1278c-32 -93.333 -69.667 -157.333 -113 -192c-43.333 -34 -109.333 -51 -198 -51c-32.667 0 -70 6 -112 18l19 156c2 -0.666992 5.16699 -1.5 9.5 -2.5s10.166 -2.5 17.499 -4.5c14.667 -4 27 -7 37 -9
c10.667 -2 19.667 -3 27 -3c18.667 0 34.667 1 48 3c12.667 2 24.667 7 36 15c12 8.66699 21 16 27 22c7.33301 7.33301 15.333 19.666 24 36.999c9.33301 19.333 16.333 34.666 21 45.999c2.66699 6.66699 6 15.167 10 25.5s8.66699 23.166 14 38.499
c2.66699 7.33301 5 14 7 20l5 15c3.33301 8.66699 7 18.5 11 29.5s8.66699 23.167 14 36.5zM597.001 1549h236l-310 -323h-139z" />
    <glyph glyph-name="thorn" unicode="&#xfe;" horiz-adv-x="1208" 
d="M137 1494l157.001 59.999l-1 -647c39.333 63.333 88.666 112.333 147.999 147c60.667 35.333 127.334 53 200.001 53c61.333 0 116.666 -10.333 165.999 -31c50 -21.333 92 -49.333 126 -84c33.333 -34.667 61.666 -76.667 84.999 -126c23.333 -50 40 -102 50 -156
c10 -55.333 15 -113.333 15 -174c0 -24.667 -1 -49 -3 -73s-4.66699 -47.667 -8 -71c-7.33301 -47.333 -21.333 -97 -42 -149c-20.667 -51.333 -47.667 -96.666 -81 -135.999s-77.666 -71.333 -132.999 -96s-119.333 -37 -192 -37c-145.333 0 -254 62.333 -326 187v-521
l-159 -60zM297.001 358.999c17.333 -44.667 41.333 -84.333 72 -119c65.333 -79.333 149.333 -119 252 -119c38 0 72 7.33301 102 22c30.667 14.667 56.667 34.667 78 60c20.667 24.667 38.667 51.667 54 81c15.333 30 27 61 35 93c8 32.667 14 62.667 18 90
c4 26.667 6 51.667 6 75c0 124.667 -28 224.667 -84 300s-130.667 113 -224 113c-58 0 -115.333 -17 -172 -51c-57.333 -34 -103.333 -88.333 -138 -163v-381z" />
    <glyph glyph-name="ydieresis" unicode="&#xff;" horiz-adv-x="955" 
d="M15 1095l178.001 0.00292969l302 -853l266 853h180l-433 -1278c-32 -93.333 -69.667 -157.333 -113 -192c-43.333 -34 -109.333 -51 -198 -51c-32.667 0 -70 6 -112 18l19 156c2 -0.666992 5.16699 -1.5 9.5 -2.5s10.166 -2.5 17.499 -4.5c14.667 -4 27 -7 37 -9
c10.667 -2 19.667 -3 27 -3c18.667 0 34.667 1 48 3c12.667 2 24.667 7 36 15c12 8.66699 21 16 27 22c7.33301 7.33301 15.333 19.666 24 36.999c9.33301 19.333 16.333 34.666 21 45.999c2.66699 6.66699 6 15.167 10 25.5s8.66699 23.166 14 38.499
c2.66699 7.33301 5 14 7 20l5 15c3.33301 8.66699 7 18.5 11 29.5s8.66699 23.167 14 36.5zM191.001 1374c0 29.333 10.667 55.333 32 78c20.667 22 46.667 33 78 33c30.667 0 57 -11 79 -33s33 -48 33 -78s-10.667 -56.333 -32 -79c-21.333 -22 -47.333 -33 -78 -33
c-31.333 0 -57.333 11 -78 33c-21.333 22.667 -32 49 -32 79h-2zM549.001 1374c0 29.333 10.667 55.333 32 78c20.667 22 46.667 33 78 33c30.667 0 57 -11 79 -33s33 -48 33 -78s-10.667 -56.333 -32 -79c-21.333 -22 -47.333 -33 -78 -33c-31.333 0 -57.333 11 -78 33
c-21.333 22.667 -32 49 -32 79h-2z" />
    <glyph glyph-name="OE" unicode="&#x152;" horiz-adv-x="2056" 
d="M106 754c0 75.333 7.66504 150.332 22.998 224.999c14.667 72.667 37.667 142 69 208c31.333 66.667 69.333 124.334 114 173.001s99.667 87.667 165 117c64 28.667 135 43 213 43c169.333 0 298 -71 386 -213v194h885l-9 -160h-706v-504h586l-10 -152h-576v-527h724
l-9 -160h-885v175c-93.333 -135.333 -221.666 -203 -384.999 -203c-70.667 0 -136 11 -196 33c-60.667 22 -111.667 52.333 -153 91c-42 38.667 -78.333 83 -109 133c-30.667 48.667 -55 103.667 -73 165c-9.33301 30 -17.166 60 -23.499 90s-11.833 60 -16.5 90
s-8 60.167 -10 90.5s-3 61.5 -3 93.5zM284.998 748.999c0 -21.333 0.667969 -42.501 2.00098 -63.501s3.33301 -42.167 6 -63.5c4.66699 -42 12.667 -87.333 24 -136c10.667 -47.333 26.667 -91.666 48 -132.999c20.667 -40 45.667 -77.333 75 -112
c28.667 -33.333 64.667 -59.666 108 -78.999c44 -19.333 91.667 -29 143 -29c48 0 91 8.33301 129 25c38.667 16.667 71.334 38.334 98.001 65.001c25.333 25.333 48.333 57 69 95c20.667 38.667 36.334 75.667 47.001 111c11.333 37.333 20.333 76.666 27 117.999
c3.33301 21.333 6.16602 41.166 8.49902 59.499s4.16602 35.5 5.49902 51.5c2 32 3 63.333 3 94c0 19.333 -0.5 39 -1.5 59s-2.83301 40.333 -5.5 61c-5.33301 40.667 -13.333 84.667 -24 132c-10.667 46 -26.334 90 -47.001 132s-44.667 79.667 -72 113
c-28 34 -62.333 61 -103 81c-41.333 20 -87 30 -137 30c-61.333 0 -116.333 -15 -165 -45c-49.333 -30 -88.333 -67.333 -117 -112c-29.333 -45.333 -53.333 -96.333 -72 -153c-19.333 -57.333 -32.333 -110.333 -39 -159c-3.33301 -24.667 -5.83301 -48.667 -7.5 -72
s-2.5 -46 -2.5 -68v-2z" />
    <glyph glyph-name="oe" unicode="&#x153;" horiz-adv-x="1801" 
d="M85 538c0 50.667 4.99902 101.666 14.999 152.999s27 102 51 152c24.667 51.333 54 96 88 134c34.667 38.667 79 70 133 94s113.667 36 179 36c171.333 0 293.666 -80 366.999 -240c72.667 158.667 198.667 238 378 238c60.667 0 114.667 -10.333 162 -31
c48 -21.333 88 -49.333 120 -84c32.667 -36 59.334 -77.333 80.001 -124c20.667 -48 35.667 -98 45 -150c4.66699 -26 8.16699 -52.667 10.5 -80s3.5 -55.333 3.5 -84c0 -10 -0.166992 -19.667 -0.5 -29s-0.833008 -18.333 -1.5 -27h-728c0 -116 25.667 -208.333 77 -277
c50.667 -68 124.667 -102 222 -102c63.333 0 117.333 13.333 162 40c45.333 27.333 85 69.333 119 126l124 -87c-44.667 -78.667 -99.667 -136 -165 -172s-152.333 -54 -261 -54c-170 0 -289 78 -357 234c-77.333 -154 -196.666 -231 -357.999 -231
c-78.667 0 -149 17 -211 51s-111 79 -147 135s-63 116.667 -81 182c-18 64.667 -27 132.334 -27 203.001zM244.999 537.999c0 -71.333 11.332 -138.001 33.999 -200.001c22.667 -63.333 57.667 -116.333 105 -159c46.667 -42.667 101.334 -64 164.001 -64
c64.667 0 120.667 21 168 63c46.667 42 80.667 94 102 156c21.333 62.667 32 129.334 32 200.001c0 56.667 -5.33301 108.667 -16 156c-11.333 48.667 -28.333 93.667 -51 135c-22.667 40.667 -54 73 -94 97s-86.333 36 -139 36c-41.333 0 -79.333 -8.66699 -114 -26
c-34 -17.333 -62.667 -40 -86 -68c-22.667 -27.333 -42 -59.666 -58 -96.999c-8 -18.667 -14.833 -37.334 -20.5 -56.001s-10.167 -37.667 -13.5 -57s-5.83301 -38.5 -7.5 -57.5s-2.5 -38.167 -2.5 -57.5zM1544 627.998c0 40.667 -5.00098 79.668 -15.001 117.001
s-25.333 71.666 -46 102.999c-20.667 32 -49 57.333 -85 76c-35.333 18.667 -77 28 -125 28c-37.333 0 -71.333 -7 -102 -21s-57 -32 -79 -54c-21.333 -21.333 -39.666 -46.333 -54.999 -75c-15.333 -28 -26.333 -57 -33 -87c-6.66699 -28.667 -10 -58 -10 -88z" />
    <glyph glyph-name="Ydieresis" unicode="&#x178;" horiz-adv-x="1159" 
d="M10 1504h198l376 -729l379 729h186l-484 -910v-594h-169v592zM311 1775c0 29.333 10.667 55.333 32 78c20.667 22 46.667 33 78 33c30.667 0 57 -11 79 -33s33 -48.333 33 -79c0 -30 -10.667 -56.333 -32 -79c-21.333 -22 -47.333 -33 -78 -33
c-31.333 0 -57.333 11 -78 33c-21.333 22.667 -32 49 -32 79zM669 1776c0 29.333 10.667 55.333 32 78c20.667 22 46.667 33 78 33c30.667 0 57 -11 79 -33s33 -48.333 33 -79c0 -30 -10.667 -56.333 -32 -79c-21.333 -22 -47.333 -33 -78 -33c-31.333 0 -57.333 11 -78 33
c-21.333 22.667 -32 49 -32 79z" />
    <glyph glyph-name="circumflex" unicode="&#x2c6;" horiz-adv-x="867" 
d="M361 1554h144l280 -335h-149l-204 192l-202 -192h-149z" />
    <glyph glyph-name="tilde" unicode="&#x2dc;" horiz-adv-x="833" 
d="M53 1239c0 36.667 3 69.667 9 99c6 28.667 16 55.667 30 81c14 24.667 34.667 43.667 62 57c28 13.333 61 20 99 20c28.667 0 59.667 -6 93 -18c34 -12 62.667 -25 86 -39c24 -14 50 -27 78 -39s51.667 -18 71 -18c53.333 0 83 40 89 120h114
c0 -173.333 -67.667 -260 -203 -260c-32.667 0 -66 6 -100 18c-17.333 6 -33 12.5 -47 19.5s-26.667 14.167 -38 21.5s-23.333 14.5 -36 21.5s-25.667 13.5 -39 19.5c-27.333 12 -51.333 18 -72 18c-14.667 0 -27 -2.33301 -37 -7c-11.333 -5.33301 -20 -11.333 -26 -18
c-6.66699 -7.33301 -12.334 -17 -17.001 -29c-2.66699 -6 -4.66699 -11.667 -6 -17s-2.66602 -10.333 -3.99902 -15s-2.5 -10 -3.5 -16s-2.16699 -12.667 -3.5 -20l-102 1h3z" />
    <glyph glyph-name="uni2000" unicode="&#x2000;" horiz-adv-x="969" 
 />
    <glyph glyph-name="uni2001" unicode="&#x2001;" horiz-adv-x="1939" 
 />
    <glyph glyph-name="uni2002" unicode="&#x2002;" horiz-adv-x="969" 
 />
    <glyph glyph-name="uni2003" unicode="&#x2003;" horiz-adv-x="1939" 
 />
    <glyph glyph-name="uni2004" unicode="&#x2004;" horiz-adv-x="646" 
 />
    <glyph glyph-name="uni2005" unicode="&#x2005;" horiz-adv-x="484" 
 />
    <glyph glyph-name="uni2006" unicode="&#x2006;" horiz-adv-x="323" 
 />
    <glyph glyph-name="uni2007" unicode="&#x2007;" horiz-adv-x="323" 
 />
    <glyph glyph-name="uni2008" unicode="&#x2008;" horiz-adv-x="242" 
 />
    <glyph glyph-name="uni2009" unicode="&#x2009;" horiz-adv-x="387" 
 />
    <glyph glyph-name="uni200A" unicode="&#x200a;" horiz-adv-x="107" 
 />
    <glyph glyph-name="uni2010" unicode="&#x2010;" horiz-adv-x="655" 
d="M97 808h461v-155h-461v155z" />
    <glyph glyph-name="uni2011" unicode="&#x2011;" horiz-adv-x="655" 
d="M97 808h461v-155h-461v155z" />
    <glyph glyph-name="figuredash" unicode="&#x2012;" horiz-adv-x="655" 
d="M97 808h461v-155h-461v155z" />
    <glyph glyph-name="endash" unicode="&#x2013;" horiz-adv-x="1146" 
d="M97 808h944v-155h-944v155z" />
    <glyph glyph-name="emdash" unicode="&#x2014;" horiz-adv-x="1981" 
d="M97 808h1786v-155h-1786v155z" />
    <glyph glyph-name="quoteleft" unicode="&#x2018;" horiz-adv-x="509" 
d="M227 1505h137l-17 -583h-232z" />
    <glyph glyph-name="quoteright" unicode="&#x2019;" horiz-adv-x="509" 
d="M162 1505h232l-112 -583h-137z" />
    <glyph glyph-name="quotesinglbase" unicode="&#x201a;" horiz-adv-x="525" 
d="M168 245h242l-138 -593h-127z" />
    <glyph glyph-name="quotedblleft" unicode="&#x201c;" horiz-adv-x="959" 
d="M227 1505h137l-17 -583h-232zM677 1505h137l-17 -583h-232z" />
    <glyph glyph-name="quotedblright" unicode="&#x201d;" horiz-adv-x="989" 
d="M162 1505h232l-112 -583h-137zM612 1505h232l-112 -583h-137z" />
    <glyph glyph-name="quotedblbase" unicode="&#x201e;" horiz-adv-x="975" 
d="M168 245h242l-138 -593h-127zM618 245h242l-138 -593h-127z" />
    <glyph glyph-name="bullet" unicode="&#x2022;" horiz-adv-x="780" 
d="M155 750c0 64.667 23 120.667 69 168s101.333 71 166 71s120 -23.667 166 -71s69 -103.333 69 -168c0 -65.333 -23 -121 -69 -167s-101.333 -69 -166 -69s-120 23 -166 69s-69 101.667 -69 167z" />
    <glyph glyph-name="ellipsis" unicode="&#x2026;" horiz-adv-x="1688" 
d="M107 121c0 41.333 14.333 76.333 43 105s63.667 43 105 43s76.333 -14.333 105 -43s43 -63.667 43 -105s-14.333 -76.333 -43 -105s-63.667 -43 -105 -43s-76.333 14.333 -105 43s-43 63.667 -43 105zM697 121c0 41.333 14.333 76.333 43 105s63.667 43 105 43
s76.333 -14.333 105 -43s43 -63.667 43 -105s-14.333 -76.333 -43 -105s-63.667 -43 -105 -43s-76.333 14.333 -105 43s-43 63.667 -43 105zM1287 121c0 41.333 14.333 76.333 43 105s63.667 43 105 43s76.333 -14.333 105 -43s43 -63.667 43 -105s-14.333 -76.333 -43 -105
s-63.667 -43 -105 -43s-76.333 14.333 -105 43s-43 63.667 -43 105z" />
    <glyph glyph-name="uni202F" unicode="&#x202f;" horiz-adv-x="387" 
 />
    <glyph glyph-name="perthousand" unicode="&#x2030;" horiz-adv-x="2724" 
d="M117 1058c0 58.667 5.99609 114.669 17.9961 168.002c11.333 51.333 30 100.666 56 147.999c24.667 45.333 59.334 81.666 104.001 108.999c43.333 26.667 94.333 40 153 40c46.667 0 88.667 -9 126 -27c38 -18.667 68.667 -42 92 -70c24 -28.667 44 -63.334 60 -104.001
c16.667 -41.333 28.334 -82.666 35.001 -123.999c3.33301 -21.333 6 -43.333 8 -66s3 -45.667 3 -69c0 -60.667 -6 -117.334 -18 -170.001c-12 -53.333 -30.333 -102.666 -55 -147.999c-24.667 -46 -59 -82.333 -103 -109c-43.333 -26.667 -94.666 -40 -153.999 -40
c-56 0 -106.333 13.667 -151 41c-43.333 26.667 -77.666 62.667 -102.999 108c-24 44 -42.333 92.667 -55 146c-12 52 -18 107 -18 165zM266.996 1059c0 -99.333 16.333 -179.333 49 -240s77 -91 133 -91c53.333 0 96 31 128 93s48 141.667 48 239
c0 101.333 -16 182 -48 242s-75 90 -129 90c-55.333 0 -99.333 -31 -132 -93c-33.333 -62.667 -50 -143 -50 -241zM1271 1506h152l-731 -1503h-151zM1173 437.002c0 58.667 5.99707 114.667 17.9971 168c12 52 30.667 101 56 147c24.667 44.667 59.334 80.667 104.001 108
c43.333 26.667 94.333 40 153 40c46.667 0 89 -9 127 -27c38.667 -18 69.667 -41.333 93 -70c24 -28.667 44 -63.334 60 -104.001c16.667 -41.333 28.334 -82.666 35.001 -123.999c3.33301 -21.333 6 -43 8 -65s3 -44.667 3 -68c0 -60.667 -6 -117.334 -18 -170.001
c-12 -53.333 -30.333 -102.666 -55 -147.999c-24.667 -46 -59 -82.333 -103 -109c-43.333 -26.667 -94.666 -40 -153.999 -40c-56.667 0 -106.667 13.667 -150 41c-43.333 26.667 -77.333 62.667 -102 108c-24.667 44 -43 93 -55 147c-12 52.667 -18 108 -18 166h-2z
M1322.99 437.002c0 -99.333 16.334 -179.333 49.001 -240s76.667 -91 132 -91c54 0 97 31 129 93s48 142 48 240c0 101.333 -16 182 -48 242s-75.333 90 -130 90s-98.334 -31 -131.001 -93c-33.333 -62.667 -50 -143 -50 -241h1zM1981.99 437.002
c0 58.667 5.99707 114.667 17.9971 168c12 52 30.667 101 56 147c24.667 44.667 59.334 80.667 104.001 108c43.333 26.667 94.333 40 153 40c46.667 0 89 -9 127 -27c38.667 -18 69.667 -41.333 93 -70c24 -28.667 44 -63.334 60 -104.001
c16.667 -41.333 28.334 -82.666 35.001 -123.999c3.33301 -21.333 6 -43 8 -65s3 -44.667 3 -68c0 -60.667 -6 -117.334 -18 -170.001c-12 -53.333 -30.333 -102.666 -55 -147.999c-24.667 -46 -59 -82.333 -103 -109c-43.333 -26.667 -94.666 -40 -153.999 -40
c-56.667 0 -106.667 13.667 -150 41c-43.333 26.667 -77.333 62.667 -102 108c-24.667 44 -43 93 -55 147c-12 52.667 -18 108 -18 166h-2zM2131.99 437.002c0 -99.333 16.334 -179.333 49.001 -240s76.667 -91 132 -91c54 0 97 31 129 93s48 142 48 240
c0 101.333 -16 182 -48 242s-75.333 90 -130 90s-98.334 -31 -131.001 -93c-33.333 -62.667 -50 -143 -50 -241h1z" />
    <glyph glyph-name="guilsinglleft" unicode="&#x2039;" horiz-adv-x="744" 
d="M455 1091h187l-404 -535l410 -556h-193l-404 557z" />
    <glyph glyph-name="guilsinglright" unicode="&#x203a;" horiz-adv-x="737" 
d="M495 556l-404 535h187l404 -534l-404 -557h-193z" />
    <glyph glyph-name="uni205F" unicode="&#x205f;" horiz-adv-x="484" 
 />
    <glyph glyph-name="Euro" unicode="&#x20ac;" horiz-adv-x="1233" 
d="M49 638l154.001 0.00390625c-2 32.667 -3 65.667 -3 99c0 20 0.333008 39 1 57s1.66699 34.667 3 50h-166l31 139h154c16 76.667 39.667 147.667 71 213c30.667 63.333 69.667 119.666 117 168.999c46.667 48.667 103.667 86.667 171 114c68 27.333 142 41 222 41
c66 0 131.667 -16.333 197 -49c66 -33.333 119 -85.333 159 -156l-123 -87c-55.333 89.333 -134.333 134 -237 134c-99.333 0 -183.333 -34 -252 -102s-117.667 -159.667 -147 -275h489l-30 -139h-482c-1.33301 -14.667 -2.5 -30.667 -3.5 -48s-1.5 -36.333 -1.5 -57
c0 -19.333 0.333008 -37.333 1 -54s1.66699 -32.334 3 -47.001h463l-29 -138h-412c27.333 -114.667 72.333 -205.334 135 -272.001c63.333 -67.333 140.333 -101 231 -101c62.667 0 117.667 8.33301 165 25s100.666 51.667 159.999 105l94 -120
c-54 -57.333 -116.333 -99.333 -187 -126c-72 -27.333 -144 -41 -216 -41c-80 0 -153 13.667 -219 41c-65.333 26.667 -120.333 64.667 -165 114c-45.333 48.667 -82.333 104.667 -111 168c-29.333 63.333 -51.333 132.666 -66 207.999h-203z" />
    <glyph glyph-name="trademark" unicode="&#x2122;" horiz-adv-x="1548" 
d="M39 1506h558v-101h-221v-748h-111v748h-226v101zM743 1506h115l246 -512l241 512h118v-849h-108v619l-216 -450h-72l-216 454v-623h-108v849z" />
    <glyph glyph-name="arrowleft" unicode="&#x2190;" horiz-adv-x="1361" 
d="M97 698l540 509l86 -118l-352 -324h893v-155h-895l354 -324l-88 -119l-538 510v21z" />
    <glyph glyph-name="arrowup" unicode="&#x2191;" horiz-adv-x="1232" 
d="M607 1218h20l508 -539l-119 -86l-321 352v-892h-156v894l-323 -354l-119 88z" />
    <glyph glyph-name="arrowright" unicode="&#x2192;" horiz-adv-x="1359" 
d="M97 765h891l-352 324l88 118l538 -509v-21l-536 -510l-90 119l354 324h-893v155z" />
    <glyph glyph-name="arrowdown" unicode="&#x2193;" horiz-adv-x="1234" 
d="M216 677l323 -352v893h154v-895l325 354l119 -88l-510 -538h-20l-510 540z" />
    <glyph glyph-name="uni25FC" unicode="&#x25fc;" horiz-adv-x="1095" 
d="M0 1095h1095v-1095h-1095v1095z" />
    <glyph glyph-name="uniFB00" unicode="&#xfb00;" horiz-adv-x="1192" 
d="M13 1093l169 -0.00195312v168c0 88.667 26 159.667 78 213s122.667 80 212 80c48.667 0 101 -8.33301 157 -25l-31 -147c-45.333 10 -82.333 15 -111 15c-47.333 0 -83 -13.333 -107 -40c-24 -27.333 -36 -62.666 -36 -105.999v-3v-154h419v168
c0 88.667 26 159.667 78 213s122.667 80 212 80c48.667 0 101 -8.33301 157 -25l-31 -147c-45.333 10 -82.333 15 -111 15c-47.333 0 -83 -13.333 -107 -40c-24 -27.333 -36 -62.666 -36 -105.999v-3v-154h229v-134h-228v-961h-164v960h-418v-960h-164v960h-169z" />
    <glyph glyph-name="uniFB01" unicode="&#xfb01;" horiz-adv-x="1083" 
d="M11 1095h169.001v169c0 88.667 26 159.667 78 213c52 52.667 122.667 79 212 79c47.333 0 99.666 -8 156.999 -24l-31 -148c-43.333 10 -80 15 -110 15c-46.667 0 -82.667 -13.667 -108 -41s-37.333 -63.333 -36 -108l1 -155h601v-1095h-162v960h-438l-1 -960h-163v960
h-169v135zM743.001 1399c0 33.333 12.333 62 37 86s52.667 36 84 36c30.667 0 58.667 -12 84 -36c24.667 -24 37 -52.667 37 -86c0 -32.667 -12.333 -61 -37 -85c-25.333 -24 -53.333 -36 -84 -36c-31.333 0 -59.333 12 -84 36s-37 52.667 -37 86v-1z" />
    <glyph glyph-name="uniFB02" unicode="&#xfb02;" horiz-adv-x="1157" 
d="M12 1093l168.999 0.000976562v68c0 124.667 32 221.667 96 291c64 68.667 157.667 103 281 103c133.333 0 231 -31.667 293 -95s93 -162.333 93 -297v-905c0 -42.667 8 -73.334 24 -92.001c16 -19.333 45 -29 87 -29c9.33301 0 20.833 0.666992 34.5 2
s29.834 3.33301 48.501 6c0.666992 0 7.66699 -46 21 -138c-41.333 -14 -80.333 -21 -117 -21c-94.667 0 -162 20.667 -202 62c-40 40.667 -60 107.667 -60 201v913c0 89.333 -16.333 153.333 -49 192s-91.667 58 -177 58c-72.667 0 -126 -22 -160 -66s-51 -103 -51 -177
v-74h228v-135h-228v-960h-164v960h-169z" />
    <glyph glyph-name="uniFB03" unicode="&#xfb03;" horiz-adv-x="1683" 
d="M9 1095h169v131c0 88.667 26 159.667 78 213s122.667 80 212 80c48.667 0 101 -8.33301 157 -25l-31 -147c-43.333 10 -80 15 -110 15c-46.667 0 -82 -13.333 -106 -40c-24 -27.333 -36 -62.333 -36 -105v-5v-117h437v168c0 88.667 26 159.667 78 213s122.667 80 212 80
c48.667 0 101 -8.33301 157 -25l-31 -147c-43.333 10 -80 15 -110 15c-46.667 0 -82 -13.333 -106 -40c-24 -27.333 -36 -62.333 -36 -105v-5v-154h601v-1095h-162v960h-438v-960h-164v960h-437v-960h-163v960h-169zM1343 1400c0 33.333 12.333 62 37 86s52.667 36 84 36
c30.667 0 58.667 -12 84 -36c24.667 -24 37 -52.667 37 -86s-12.333 -62 -37 -86c-25.333 -24 -53.333 -36 -84 -36c-31.333 0 -59.333 12 -84 36s-37 52.667 -37 86z" />
    <glyph glyph-name="uniFB04" unicode="&#xfb04;" horiz-adv-x="1740" 
d="M13 1090l168.998 -0.000976562v168c0 88.667 26 159.667 78 213s122.667 80 212 80c48.667 0 101 -8.33301 157 -25l-31 -147c-43.333 10 -80 15 -110 15c-47.333 0 -83 -13.333 -107 -40c-24 -27.333 -36 -62.666 -36 -105.999v-157h420v68c0 124.667 32 221.667 96 291
c64 68.667 157.333 103 280 103c133.333 0 231 -31.667 293 -95s93 -162.333 93 -297v-905c0 -40.667 8 -71 24 -91s44.667 -30 86 -30c9.33301 0 20.833 0.666992 34.5 2s29.834 3.33301 48.501 6c1.33301 0 9 -46 23 -138c-41.333 -14 -80.666 -21 -117.999 -21
c-94.667 0 -162 20.667 -202 62c-40 40.667 -60 107.667 -60 201v913c0 89.333 -16.333 153.333 -49 192s-91.667 58 -177 58c-73.333 0 -127 -22 -161 -66s-51 -103.667 -51 -179v-70h228v-135h-229v-960h-162v960h-419v-960h-163v960h-169z" />
    <glyph glyph-name="glyph1" horiz-adv-x="0" 
 />
    <glyph glyph-name="glyph2" horiz-adv-x="682" 
 />
    <glyph glyph-name="one.aalt" horiz-adv-x="951" 
d="M482 1093h117v-946h264v-147h-706v147h287v774l-326 -116l-37 143z" />
    <glyph glyph-name="two.aalt" horiz-adv-x="944" 
d="M107 77c0 50 7.66895 98 23.002 144c15.333 45.333 37.333 86 66 122s57.667 67 87 93c14.667 13.333 30.667 26.833 48 40.5s36.333 27.834 57 42.501c8 5.33301 17.5 11.833 28.5 19.5s23.833 16.167 38.5 25.5s28 18 40 26s23 15.667 33 23s19.5 14.166 28.5 20.499
s17.5 12.833 25.5 19.5c62.667 48.667 94 93.667 94 135c0 55.333 -19 99 -57 131s-85 48 -141 48c-52.667 0 -98 -11 -136 -33c-38.667 -22 -73.667 -55.333 -105 -100l-123 86c82.667 128.667 203 193 361 193c102 0 187 -29 255 -87s102 -137.333 102 -238
c0 -36 -6.66699 -70.333 -20 -103c-13.333 -32 -33.333 -62 -60 -90c-28 -28.667 -54.333 -52.667 -79 -72c-26.667 -20.667 -59.334 -43.334 -98.001 -68.001c-3.33301 -2.66699 -7.5 -5.66699 -12.5 -9s-11.167 -7 -18.5 -11s-14 -8 -20 -12s-11.667 -7.66699 -17 -11
c-11.333 -7.33301 -21.333 -14.333 -30 -21c-37.333 -25.333 -67.333 -48.333 -90 -69c-72.667 -63.333 -110.334 -121.666 -113.001 -174.999h549v-147h-719z" />
    <glyph glyph-name="three.aalt" horiz-adv-x="981" 
d="M192 129c30.667 -50.667 71.3311 -87.001 121.998 -109.001c50 -22 101 -33 153 -33c88.667 0 155.667 25.667 201 77s68 112 68 182c0 69.333 -20.667 123 -62 161s-96 57 -164 57h-133v139h135c56.667 0 99.667 19 129 57c28.667 37.333 43 83.333 43 138
c0 45.333 -18.333 85.333 -55 120s-84.667 52 -144 52c-108.667 0 -192.667 -43.667 -252 -131l-111 82c40.667 68 94.334 117 161.001 147c66 30 132 45 198 45c46 0 89 -6.33301 129 -19c40.667 -13.333 78.667 -32.333 114 -57c34.667 -25.333 62.667 -58.333 84 -99
c20.667 -40.667 31 -87.667 31 -141c0 -111.333 -41 -198.333 -123 -261c52 -24 94 -60 126 -108s48 -109.333 48 -184c0 -125.333 -39.333 -224 -118 -296c-79.333 -72 -183.666 -108 -312.999 -108c-72 0 -143 16.667 -213 50c-68 32.667 -122.333 84.334 -163 155.001z
" />
    <glyph glyph-name="four.aalt" horiz-adv-x="1045" 
d="M34 254l643 839h127v-810h157v-148h-157v-285h-152v285h-618v119zM652 283v536c-235.333 -313.333 -371 -492 -407 -536h407z" />
    <glyph glyph-name="five.aalt" horiz-adv-x="1021" 
d="M225 126c58.667 -94 142.667 -141.002 252 -141.002c45.333 0 86.333 8.66699 123 26c36 16.667 64 38.667 84 66c20 26.667 35 54.667 45 84c10 28.667 15 57.334 15 86.001c0 84.667 -22.667 150.667 -68 198c-44.667 46.667 -98.667 70 -162 70
c-56.667 0 -130.334 -30.667 -221.001 -92l-115 41l41 628h606v-139h-469l-22 -358c30 17.333 63 31 99 41c36.667 10 69.667 15 99 15c64.667 0 124.667 -14.667 180 -44s100.333 -74.666 135 -135.999c35.333 -62.667 53 -135.667 53 -219
c0 -126 -39.333 -226.333 -118 -301s-182.667 -112 -312 -112c-70 0 -137.333 16.667 -202 50c-63.333 32.667 -115.666 84.667 -156.999 156z" />
    <glyph glyph-name="six.aalt" horiz-adv-x="1011" 
d="M107 532c0 24 0.5 47.5 1.5 70.5s2.16699 45.5 3.5 67.5c3.33301 44.667 9.33301 91.334 18 140.001c4.66699 24.667 9.66699 48.167 15 70.5s11.666 43.833 18.999 64.5s15.666 41 24.999 61s19.666 39.667 30.999 59c22.667 38.667 49.334 71.667 80.001 99
c29.333 26.667 66.333 48 111 64c44 16 92.333 24 145 24c130.667 0 233 -56 307 -168l-106 -76c-24 31.333 -54.333 56.333 -91 75c-37.333 19.333 -75.333 29 -114 29c-34.667 0 -67 -6 -97 -18s-55 -28 -75 -48c-20.667 -20.667 -38.667 -45 -54 -73
c-15.333 -27.333 -27.666 -56.333 -36.999 -87c-4.66699 -14.667 -8.66699 -30 -12 -46s-6.66602 -32.667 -9.99902 -50s-6 -33.833 -8 -49.5s-3.66699 -30.5 -5 -44.5c-3.33301 -28 -5.33301 -57.333 -6 -88c86.667 110.667 184.667 166 294 166
c118.667 0 212.667 -35 282 -105c68.667 -69.333 103 -164.333 103 -285c0 -124.667 -37.667 -224 -113 -298s-175.333 -111 -300 -111c-50.667 0 -98 7.66699 -142 23c-42.667 14.667 -78.667 36.334 -108 65.001s-54.333 60 -75 94s-37 73 -49 117
c-6 21.333 -11 42.666 -15 63.999s-7.33301 42.666 -10 63.999s-4.66699 42.833 -6 64.5s-2 44.167 -2 67.5v-2zM269 392c0 -80.667 23 -146.333 69 -197c46 -51.333 108.333 -77 187 -77c78 0 139 24.333 183 73s66 113 66 193c0 82 -22 144 -66 186s-107 63 -189 63
c-64 0 -121.333 -24.333 -172 -73s-76 -105 -76 -169z" />
    <glyph glyph-name="seven.aalt" horiz-adv-x="852" 
d="M72 1093h715.001v-114c-42.667 -124.667 -100.167 -280.667 -172.5 -468s-159.833 -406 -262.5 -656h-162c99.333 244.667 184.666 458 255.999 640s129.333 334.333 174 457h-549z" />
    <glyph glyph-name="eight.aalt" horiz-adv-x="1064" 
d="M105 341c0 73.333 19.998 135.998 59.998 187.998s95.333 93 166 123c-53.333 26 -96 62.667 -128 110c-32 46.667 -48 98.667 -48 156c0 102.667 37 185 111 247s163.333 93 268 93s193.334 -30.333 266.001 -91c73.333 -61.333 110 -143.333 110 -246
c0 -59.333 -16 -111.333 -48 -156c-31.333 -44.667 -74.333 -81 -129 -109c71.333 -29.333 127 -70.333 167 -123c40 -53.333 60 -116.333 60 -189c0 -61.333 -11.333 -115.666 -34 -162.999c-23.333 -48 -54.333 -87 -93 -117c-38 -29.333 -83 -51.666 -135 -66.999
s-107 -23 -165 -23c-56 0 -110 7.66699 -162 23c-50.667 14.667 -96 36.667 -136 66c-39.333 28.667 -70.666 66.667 -93.999 114c-23.333 48 -35 101 -35 159zM252.998 340.998c0 -73.333 27.332 -129.333 81.999 -168s120 -58 196 -58c78.667 0 144.667 18.667 198 56
s80 93.333 80 168c0 79.333 -26.333 140.333 -79 183c-53.333 43.333 -120.333 65 -201 65c-81.333 0 -147.666 -20.667 -198.999 -62c-50.667 -40.667 -76 -100.667 -76 -180zM298.997 915.998c0 -64.667 21.668 -115 65.001 -151c42.667 -36 97.667 -54 165 -54
c64.667 0 119 19 163 57s66 89 66 153c0 63.333 -21.667 112 -65 146s-97.333 51 -162 51c-66.667 0 -121.334 -18 -164.001 -54c-43.333 -36 -65 -86 -65 -150z" />
    <glyph glyph-name="nine.aalt" horiz-adv-x="1008" 
d="M81 720c0 74.667 18.666 142.33 55.999 202.997c36.667 59.333 86.334 105.666 149.001 138.999c61.333 32.667 129.666 49 204.999 49c70.667 0 133.334 -13.667 188.001 -41s97.334 -64.666 128.001 -111.999c30.667 -48 53.667 -101 69 -159
c15.333 -59.333 23 -122.333 23 -189c0 -28 -0.333008 -55 -1 -81s-1.66699 -50.667 -3 -74s-3.33301 -47.666 -6 -72.999s-6 -51.666 -10 -78.999c-8 -55.333 -18.333 -103.666 -31 -144.999s-30.334 -83.333 -53.001 -126c-22 -41.333 -48 -75.333 -78 -102
s-66.667 -48.667 -110 -66c-42 -16.667 -90.667 -25 -146 -25c-140 0 -248 51.333 -324 154l121 76c23.333 -26.667 54.333 -48 93 -64c38 -16 76.333 -24 115 -24c52 0 97 15 135 45s67.333 70.333 88 121s35.667 103.667 45 159c4.66699 28 8.16699 56.333 10.5 85
s3.5 58 3.5 88c-51.333 -52 -99.333 -88 -144 -108c-45.333 -20 -91.333 -30 -138 -30c-114 0 -206.333 35 -277 105s-106 161.667 -106 275zM238.999 726.996c0 -76.667 22 -136.333 66 -179c44.667 -43.333 105.334 -65 182.001 -65c60.667 0 116.667 23 168 69
s77 102 77 168c0 76 -24 136.667 -72 182c-48.667 45.333 -109.334 68 -182.001 68c-71.333 0 -129.333 -22.333 -174 -67s-67 -103.667 -67 -177z" />
    <glyph glyph-name="zero.aalt" horiz-adv-x="1082" 
d="M89 544c0 21.333 0.832031 42.332 2.49902 62.999s4.16699 41.667 7.5 63s7.5 42.666 12.5 63.999s11.167 42.666 18.5 63.999c14 42.667 33 82.667 57 120c24 36.667 52 69.667 84 99c32 28.667 71 51.667 117 69c45.333 16.667 95.666 25 150.999 25
c66.667 0 126.667 -12 180 -36c52.667 -24 95.667 -55 129 -93c32.667 -37.333 60 -81.666 82 -132.999s37 -101.666 45 -150.999c8 -50 12 -101 12 -153c0 -57.333 -5 -112.333 -15 -165c-10 -53.333 -26.333 -104.666 -49 -153.999
c-23.333 -50 -51.666 -93.333 -84.999 -130c-33.333 -36 -76 -65.333 -128 -88c-51.333 -22 -108.333 -33 -171 -33c-63.333 0 -120.333 11 -171 33c-50 21.333 -92.333 51 -127 89c-33.333 36.667 -61.666 80 -84.999 130c-22.667 49.333 -39 100.666 -49 153.999
c-10 52.667 -15 107.334 -15 164.001zM241.999 544.999c0 -53.333 6.33301 -104.001 19 -152.001c13.333 -50 31.666 -95 54.999 -135c24 -41.333 55 -74.333 93 -99c37.333 -24.667 79.666 -37 126.999 -37c49.333 0 93 12 131 36c38.667 24 69.334 56 92.001 96
c22 38.667 39.333 83.334 52 134.001c12 48.667 18 99.667 18 153c0 44 -3 85.667 -9 125c-6 38.667 -16 76.667 -30 114s-32 69 -54 95s-50 47 -84 63s-72.333 24 -115 24c-41.333 0 -79.333 -8.66699 -114 -26c-33.333 -16.667 -61.333 -39.334 -84 -68.001
c-21.333 -27.333 -39.666 -59.666 -54.999 -96.999c-14.667 -36 -25 -73.333 -31 -112c-6 -38 -9 -76.333 -9 -115z" />
    <glyph glyph-name="f_t.liga" horiz-adv-x="1218" 
d="M13 1095h168.999v168c0 88.667 26 159.667 78 213s122.667 80 212 80c48.667 0 101 -8.33301 157 -25l-31 -147c-43.333 10 -80 15 -110 15c-47.333 0 -83.333 -14 -108 -42s-36.667 -64.333 -36 -109l1 -154h435v215l166 60v-275h246v-135h-246v-692
c0 -42.667 8.66699 -75.334 26 -98.001c16.667 -22 50.667 -33 102 -33c3.33301 0 12 0.666992 26 2s33 3.33301 57 6l19 -138c-41.333 -14 -80.666 -21 -117.999 -21c-44.667 0 -84.667 4.66699 -120 14c-34 8.66699 -61 20.667 -81 36c-20 14.667 -36 34.334 -48 59.001
c-12 24 -20 48 -24 72s-6 51.667 -6 83v711h-435v-960h-163v960h-169z" />
    <glyph glyph-name="NULL" horiz-adv-x="0" 
 />
    <glyph glyph-name="nonmarkingreturn" horiz-adv-x="488" 
 />
    </font>
</defs>
</svg>
