<?xml version="1.0" encoding="utf-8"?>
<!-- Generator: Adobe Illustrator 22.0.1, SVG Export Plug-In . SVG Version: 6.00 Build 0)  -->
<svg version="1.1" id="Layer_1" xmlns="http://www.w3.org/2000/svg" xmlns:xlink="http://www.w3.org/1999/xlink" x="0px" y="0px"
	 viewBox="0 0 335.5 504" style="enable-background:new 0 0 335.5 504;" xml:space="preserve">
<style type="text/css">
	.st0{fill:none;stroke:#FFFFFF;stroke-width:2;stroke-miterlimit:10;}
	.st1{fill:none;stroke:#FFFFFF;stroke-width:2;stroke-miterlimit:10;stroke-dasharray:6.1961,5.1634;}
	.st2{fill:none;stroke:#FFFFFF;stroke-width:2;stroke-miterlimit:10;stroke-dasharray:11.0121,9.1768;}
	.st3{fill:none;stroke:#FFFFFF;stroke-width:2;stroke-miterlimit:10;stroke-dasharray:11.0832,9.236;}
	.st4{fill:none;stroke:#FFFFFF;stroke-width:2;stroke-miterlimit:10;stroke-dasharray:11.4901,9.575;}
	.st5{fill:none;stroke:#FFFFFF;stroke-width:2;stroke-miterlimit:10;stroke-dasharray:10.1839,8.4866;}
	.st6{fill:none;stroke:#FFFFFF;stroke-width:2;stroke-miterlimit:10;stroke-dasharray:13.2555,11.0463;}
	.st7{fill:#FFFFFF;stroke:#FFFFFF;stroke-width:2;stroke-miterlimit:10;}
</style>
<g>
	<g>
		<polyline class="st0" points="91.1,437.8 87.5,442.6 82.6,439.1 		"/>
		<line class="st1" x1="78.5" y1="436" x2="71.4" y2="430.8"/>
		<polyline class="st0" points="69.3,429.3 64.5,425.7 68.1,420.9 		"/>
		<polyline class="st2" points="73.7,413.6 81.4,403.3 86.9,376.8 86.9,340.6 		"/>
		<polyline class="st0" points="86.9,336 86.9,330 80.9,330 		"/>
		<line class="st3" x1="71.6" y1="330" x2="15.3" y2="330"/>
		<polyline class="st0" points="10.7,330 4.7,330 4.7,336 		"/>
		<line class="st4" x1="4.7" y1="345.6" x2="4.7" y2="488.2"/>
		<polyline class="st0" points="4.7,493 4.7,499 10.7,499 		"/>
		<line class="st4" x1="20.2" y1="499" x2="162.9" y2="499"/>
		<polyline class="st0" points="167.7,499 173.7,499 173.7,493 		"/>
		<line class="st4" x1="173.7" y1="483.5" x2="173.7" y2="340.8"/>
		<polyline class="st0" points="173.7,336 173.7,330 167.7,330 		"/>
		<line class="st5" x1="159.2" y1="330" x2="126.1" y2="330"/>
		<polyline class="st0" points="121.9,330 115.9,330 115.9,336 		"/>
		<polyline class="st6" points="115.9,347 115.9,379.8 107.4,416 94.4,433.4 		"/>
	</g>
</g>
<polygon class="st0" points="328,185.2 309.3,147.1 279.6,122.9 245.2,113.9 208.3,113.9 142.5,140 113.5,191 110.5,190 115.9,154 
	115.9,4 86.9,4 86.9,330 115.9,330 115.9,217.6 159.4,163.4 213.8,142.9 241.6,142.9 265.7,149.5 285.7,165.2 300.2,194.2 
	305,224.5 305,434.2 333.4,434.2 333.4,223.8 "/>
<polygon class="st7" points="86.9,376.8 81.4,403.3 64.5,425.7 87.5,442.6 107.4,416 115.9,379.8 115.9,330 86.9,330 "/>
</svg>
