<?xml version="1.0" encoding="utf-8"?>
<!-- Generator: Adobe Illustrator 22.0.1, SVG Export Plug-In . SVG Version: 6.00 Build 0)  -->
<svg version="1.1" id="Layer_1" xmlns="http://www.w3.org/2000/svg" xmlns:xlink="http://www.w3.org/1999/xlink" x="0px" y="0px"
	 viewBox="0 0 500 500" style="enable-background:new 0 0 500 500;" xml:space="preserve">
<style type="text/css">
	.st0{fill:none;stroke:#FFFFFF;stroke-width:2;stroke-miterlimit:10;}
	.st1{fill:none;stroke:#FFFFFF;stroke-width:2;stroke-miterlimit:10;stroke-dasharray:12,10;}
	.st2{fill:#FFFFFF;stroke:#FFFFFF;stroke-width:2;stroke-miterlimit:10;}
</style>
<g>
	<path class="st0" d="M182.5,353.6V814h63.7V390.1l8.1-21c-4,0.4-8.1,0.6-12.2,0.6C220.3,369.8,200,363.8,182.5,353.6z"/>
	<path class="st0" d="M200.3,142.3l-51.6-31.4H80.9l-63.7,39.3l-25.7,44.8L-29,265.4h-8.1l10.8-71.9v-56.9h-63.7v677.8h63.7V400.9
		l40.7-130.1l47.5-73.2l38-23.1h29.8l16.7,9.4C159.7,165.2,178.5,150.6,200.3,142.3z"/>
	<path class="st0" d="M483.5,148.8l-62.4-38H352l-55.2,37.2c19.1,10,35,25.1,46.1,43.5l29.5-17h29.8l32.5,19l17.7,29.9v591H516
		V207.1L483.5,148.8z"/>
	<path class="st1" d="M163.5,193.5l-17.2-9.6c-13.8,19.3-21.9,42.8-21.9,68.3c0,43.2,23.3,80.9,58,101.4V223.4L163.5,193.5z"/>
	<path class="st1" d="M292.3,270.8l-38,98.3c59.2-6.1,105.3-56.1,105.3-116.9c0-22.2-6.1-42.9-16.8-60.6l-5.8,3.3L292.3,270.8z"/>
	<path class="st1" d="M240.8,201.7l-4.1,63.7h8.2l14.9-59.7l25.8-50.1l11.2-7.5c-16.3-8.6-34.9-13.5-54.6-13.5
		c-14.7,0-28.8,2.7-41.8,7.7l10.7,6.5L240.8,201.7z"/>
	<path class="st2" d="M296.7,148.1l-11.2,7.5l-25.8,50.1l-14.9,59.7h-8.2l4.1-63.7L211,148.8l-10.7-6.5
		c-21.8,8.3-40.5,22.9-53.9,41.6l17.2,9.6l19,29.9v130.2c17.5,10.3,37.8,16.2,59.6,16.2c4.1,0,8.2-0.2,12.2-0.6l38-98.3l44.8-75.9
		l5.8-3.3C331.7,173.2,315.8,158.1,296.7,148.1z"/>
</g>
</svg>
