<?xml version="1.0" encoding="utf-8"?>
<!-- Generator: Adobe Illustrator 22.0.1, SVG Export Plug-In . SVG Version: 6.00 Build 0)  -->
<svg version="1.1" id="Layer_1" xmlns="http://www.w3.org/2000/svg" xmlns:xlink="http://www.w3.org/1999/xlink" x="0px" y="0px"
	 viewBox="0 0 500 500" style="enable-background:new 0 0 500 500;" xml:space="preserve">
<style type="text/css">
	.st0{fill:none;}
	.st1{fill:none;stroke:#FFFFFF;stroke-width:2;stroke-miterlimit:10;}
	.st2{fill:none;stroke:#FFFFFF;stroke-width:2;stroke-miterlimit:10;stroke-dasharray:12,10;}
	.st3{fill:#FFFFFF;stroke:#FFFFFF;stroke-width:2;stroke-miterlimit:10;}
</style>
<g>
	<path class="st0" d="M229.7-267.9l-47.1-45.7l-87.1-34.3H36.9L-36-325.1l-91.4,85.7l-44.2,90L-187.3-8.1l21.4,128.5l61.4,102.8
		l87.1,60L81.1,299l51.2-25.3c-1.5-7.7-2.3-15.6-2.3-23.7c0-66.3,53.7-120,120-120c7.2,0,14.2,0.6,21.1,1.8v-325.5L229.7-267.9z"/>
	<path class="st1" d="M271.1,368.2v246.4h68.5V329.8C322.1,349.5,298.1,363.4,271.1,368.2z"/>
	<path class="st1" d="M81.1,299l-98.5-15.7l-87.1-60l-61.4-102.8L-187.3-8.1l15.7-141.3l44.2-90l91.4-85.7l72.8-22.8h58.5l87.1,34.3
		l47.1,45.7l41.4,74.2v325.5c27.1,4.8,51,18.7,68.5,38.3v-469.6l51.4-61.4l-54.2-42.8l-54.2,62.8l12.8,72.8h-11.5l-32.8-70l-50-47.1
		l-92.8-32.8H25.4l-98.5,31.4l-111.3,105.7L-238.8-168L-257.3-5.2l27.2,148.5l74.2,127.1L-43.1,349l134.2,21.4l73.3-36.3
		c-16-16.3-27.4-37.1-32.1-60.4L81.1,299z"/>
	<g>
		<path class="st2" d="M130,250c0,8.1,0.8,16,2.3,23.7l55.9-27.6l82.8-98.5v-15.8c-6.8-1.2-13.9-1.8-21.1-1.8
			C183.7,130,130,183.7,130,250z"/>
		<path class="st2" d="M283.9,224.7h-7.2l-44.2,75.7l-68.1,33.7c21.8,22.2,52.1,35.9,85.6,35.9c7.2,0,14.2-0.6,21.1-1.8v-66.3
			L283.9,224.7z"/>
		<path class="st2" d="M339.6,170.2v159.6c18.9-21.2,30.4-49.2,30.4-79.8S358.5,191.4,339.6,170.2z"/>
	</g>
	<path class="st3" d="M271.1,131.8v15.8l-82.8,98.5l-55.9,27.6c4.7,23.3,16.1,44.1,32.1,60.4l68.1-33.7l44.2-75.7h7.2l-12.8,77.1
		v66.3c27.1-4.8,51-18.7,68.5-38.3V170.2C322.1,150.5,298.1,136.6,271.1,131.8z"/>
</g>
</svg>
