<?xml version="1.0" encoding="utf-8"?>
<!-- Generator: Adobe Illustrator 22.0.1, SVG Export Plug-In . SVG Version: 6.00 Build 0)  -->
<svg version="1.1" id="Layer_1" xmlns="http://www.w3.org/2000/svg" xmlns:xlink="http://www.w3.org/1999/xlink" x="0px" y="0px"
	 viewBox="0 0 500 500" style="enable-background:new 0 0 500 500;" xml:space="preserve">
<style type="text/css">
	.st0{fill:#FFFFFF;}
</style>
<path class="st0" d="M275.8,441.9c-105.8,0-191.9-86.1-191.9-191.9S169.9,58.1,275.8,58.1c8.3,0,16.8,0.5,25,1.6l13.8,1.8l-9.6,10
	c-32.1,33.3-49.7,77.1-49.7,123.4c0,43.5,15.8,85.3,44.6,117.8c28.5,32.2,67.6,53,110.1,58.6l13.8,1.8l-9.6,10
	C377.5,421,328.4,441.9,275.8,441.9z M275.8,72.1c-98.1,0-177.9,79.8-177.9,177.9s79.8,177.9,177.9,177.9
	c44.2,0,85.8-15.9,118.4-45.1c-40.4-8.3-77.2-29.6-104.8-60.8c-31-35.1-48.1-80.2-48.1-127.1c0-45.1,15.6-88.1,44.2-122.5
	C282.2,72.2,279,72.1,275.8,72.1z"/>
</svg>
