<?xml version="1.0" encoding="utf-8"?>
<!-- Generator: Adobe Illustrator 22.0.1, SVG Export Plug-In . SVG Version: 6.00 Build 0)  -->
<svg version="1.1" id="Layer_1" xmlns="http://www.w3.org/2000/svg" xmlns:xlink="http://www.w3.org/1999/xlink" x="0px" y="0px"
	 viewBox="0 0 618.5 113" style="enable-background:new 0 0 618.5 113;" xml:space="preserve">
<style type="text/css">
	.st0{stroke:#FFFFFF;stroke-width:0.25;stroke-miterlimit:10;}
	.st1{stroke:#FFFFFF;stroke-width:0.25;}
</style>
<g>
	<path class="st0" d="M606.2,23.3c4.2-0.5,7.5,0.3,9.9,2.6c0.8,6.5-0.6,9.9-4.2,10.4c-1.4,0.2-3-0.4-4.7-1.7
		c-1.8-1.3-3.5-1.9-5.2-1.7c-2.4,0.3-4.1,1.7-5.1,4.3c-1,2.6-1.4,5.2-1,7.7l1.8,14.3c0.6,4.7-3.7,8-2.9,10.2
		c0.2,0.5,1.3,0.9,3.2,1.3c1.9,0.3,3.3,0.5,3.9,0.4c0.2,0,0.4,0.5,0.6,1.6c0.2,1.1,0.3,1.8,0.2,2.2c-0.6,0-2.7,0.1-6.1,0.3
		c-3.5,0.2-6.1,0.4-7.8,0.6c-1.8,0.2-4.5,0.7-7.9,1.4c-3.4,0.7-5.5,1.1-6.1,1.2c-0.3-0.3-0.6-1-0.7-2.1c-0.1-1.1-0.1-1.7,0.2-1.8
		c0.9-0.1,2.3-0.6,4.1-1.4c1.8-0.8,2.5-1.6,2.8-2c2.1-2.7,5.2-5.2,4.7-8.4l-2.4-18.6c-0.5-3.6-1.4-5.9-2.8-7.1
		c-0.7-0.7-1.6-1.1-2.8-1.4c-1.2-0.2-2.1-0.4-2.8-0.3c-0.7,0-1.1-0.1-1.1-0.2c-0.3-2.2-0.2-3.4,0.1-3.5c3.5-0.8,9.5-2.7,18-5.8
		c0.5-0.2,0.8-0.3,0.9-0.3c0.3,0,0.6,0.2,0.9,0.7c0.3,0.5,0.4,0.9,0.5,1.3c0,0.3,0,0.9,0,1.6c0,0.7,0,1.5,0,2.3c0,0.8,0,1.3,0,1.6
		c1.1-2.2,2.7-4.3,4.9-6.3C601.5,24.7,603.8,23.6,606.2,23.3z"/>
	<path class="st1" d="M54,11.1c-8.2-5.7-10.8-8.8-21.5-7.8C21.8,4.1,12.9,8.1,5.7,15.1c-7.2,7-2.8,13.2-2.1,22.1
		c0,12.1-0.2,24.7,7.4,33.3c7.7,8.6,16.9,12.8,27.6,12.8c10.8,0,12.6-4.3,20.3-12.8c7.7-8.6,11.5-18.9,11.5-31
		C70.4,27.4,62.5,18,54,11.1z M52,66.7C48.3,73.5,43.7,81,36.8,81c-5.6,0-11.3-4.1-14.7-10.7c-2.7-5.3-1.6-4.4-3.3-10.3
		c-1.7-5.9-1.3-16.8-2.9-25.7c-0.5-7.1-5-14.7-1.7-20c3.3-5.3,7.1-7.6,14.1-8.2c5.8-0.5,5.7,0.8,9.9,3.5c4.2,2.8,9,7.6,11.9,10.8
		c4.5,6.2,7.6,12.2,8.2,14.5C60.8,44.1,55.8,59.8,52,66.7z"/>
	<path class="st1" d="M108.9,29.5c11.8,2.4,19.9,35.1,12.4,43.7c-4.9,5.7-11.5,8-18.5,8c-3.2,0-6-0.3-8.4-0.9
		c-2.4-0.6-4.2-0.9-5.4-0.9c-0.7,0-1.7,0.3-3,0.8c-1.3,0.5-2.1,0.8-2.3,0.8c-0.2,0-0.8-0.2-1.7-0.7c-0.9-0.5-1.3-0.8-1.3-1.2
		c0-0.2,0.1-0.9,0.2-2.1c0.2-1.2,2.3-2.9,2.6-5.1c0.2-2.1,2.7-24.3,2.7-26.8c0,0,0.2-9.2,0.7-10.7c1.2-4,3.2-9.2,3.2-11.6
		c0-2.4,0.2-3.5-0.2-5.9c-0.4-1.2-2.4-1.8-6-1.8h-1c-0.5,0-0.7-0.6-0.7-1.8c0-1.2,0.2-1.8,0.7-1.8c2.4-0.2,4.6-0.5,6.8-0.9
		c2.1-0.4,3.9-0.8,5.4-1.2c1.4-0.4,2.7-0.8,3.7-1.2c1-0.4,2.1-0.8,3.3-1.2h0.2c0.3,0,0.6,0.2,0.9,0.6c0.3,0.4,0.5,0.8,0.6,1.2
		c-0.8,3-1.3,6.6-1.3,10.8l-4.7,11.7v0.1c0,0.2,0,0.4,0,0.5s0,0.3,0.1,0.5c0,0.2,0.1,0.3,0.2,0.3c0.1,0,0.2,0,0.4-0.1
		c1.1-0.8,2.6-1.5,4.7-2.3C105.1,29.9,107.1,29.1,108.9,29.5z M106.4,36.7c-2.5,0.4-5,2.1-7.6,5.1c-1.4,1.7-2.1,5.5-1.9,14.1
		l-0.2,11.9c0,2.7,0.1,4.6,1.2,5.9c1.6,1.8,3.3,2,6.1,2c4,0,7.3-2.4,10.6-4.9c4.3-3.3,5.5-8.5,5.5-13.7c0-6.6-1.2-11.8-3.6-15.7
		C114.1,37.6,111.4,35.8,106.4,36.7z"/>
	<path class="st1" d="M388.9,30.1c4.8,0,8.3,1.2,10.7,3.7c2.4,2.5,3.6,6.8,3.6,12.8v22.7c0,1.5,0.3,2.7,1,3.5
		c0.7,0.8,1.6,1.2,2.8,1.2c1.2,0,2.5-0.5,3.9-1.5c0.5,0.2,0.7,0.6,0.7,1.3c0,1.5-0.2,2.7-0.7,3.5c-1.2,0.9-2.7,1.9-4.6,2.9
		c-1.9,1-3.8,1.5-5.5,1.5c-1.8,0-3.5-0.7-5.2-2c-1.7-1.3-2.8-2.7-3.3-4.3c-0.1,0.1-0.4,0.3-0.9,0.7c-0.5,0.4-1.2,0.9-2.1,1.6
		c-0.9,0.6-1.9,1.2-3,1.8c-1.1,0.6-2.4,1.1-3.9,1.6c-1.5,0.4-16-16.1-13.1-20.4c0.9-1.3,2.9-2.1,5-3.1c2.1-1,3.9-1.7,5.4-2.2
		c1.5-0.5,3.4-1.1,5.8-1.8c2.3-0.7,4-1.2,4.9-1.5c0.7-0.3,1-0.9,1-1.8v-6.3c0-2.7-0.6-4.8-1.8-6.3c-1.2-1.5-2.9-2.3-5-2.3
		c-2.3,0-4.1,0.7-5.4,2.1c-1.3,1.4-2,3.4-2,6c0,1.5-0.6,2.7-1.7,3.4c-1.2,0.7-2.5,1.1-3.9,1.1c-2.8,0-4.8-0.9-6-2.8
		c0-3.7,2.5-7.1,7.5-10.4C378.1,31.8,383.4,30.1,388.9,30.1z M382.8,75.7c1.7-0.3,4.7-1.8,6.2-2.9c1.5-1.1,2.2-2.3,2.2-3.7V57.3
		c-0.5,0.2-1.7,0.6-3.4,1.2c-1.7,0.5-3.1,1-4,1.4c-0.9,0.4-2.2,0.9-3.4,1.6c-1.2,0.7-2.2,1.2-3.5,2.7c-0.7,0.9-2.5,2.8-1.7,4.7
		c1.1,2.5,2.4,4.2,3.6,5.4C381.1,76.5,381.1,76,382.8,75.7z"/>
	<path class="st1" d="M191.1,29.5c5.2-0.7,20.2,11.9,21.7,14.3c1.3,2.1,2.2,7.1,0.8,8c-0.6,0.4-1.7,0.8-3.4,0.9l-27.4,2.4
		c-0.5,0-0.8,0.3-0.7,0.8c0.2,2.8,1,5.4,2.2,7.9c1.2,2.5,3.1,4.6,5.7,6.3c2.6,1.7,5.6,2.4,8.9,2.1c1.1-0.1,2.3-0.3,3.3-0.5
		c1.1-0.2,2-0.5,2.9-0.8c0.9-0.3,1.7-0.7,2.3-1c0.7-0.3,1.3-0.7,2-1.2c0.7-0.5,1.2-0.9,1.5-1.1c0.3-0.2,1-0.8,2.2-1.8
		c0.2,0.1,0.4,0.3,0.6,0.6c0.3,0.4,0.4,0.7,0.4,1.1c0.1,0.8-0.1,1.6-0.5,2.2c-1,2.2-3,4.4-6.2,6.8c-3.2,2.4-6.9,3.7-11.1,4.1
		c-6.7,0.6-26.1-16.2-26.7-23.2c-0.7-7.7,1-14.2,5-19.4C178.7,33,184.2,30.3,191.1,29.5z M190.7,34.8c-1.8,0.2-3.4,0.8-4.8,2
		c-1.4,1.2-2.4,2.6-3,4.2c-0.6,1.6-1.1,3.1-1.3,4.5c-0.2,1.4-0.3,2.5-0.2,3.4c0,0.5,0.3,0.8,0.8,0.7l18.6-1.6c0.7-0.1,1-0.7,0.9-1.8
		c-0.2-2.7-1.4-5.3-3.4-7.9C196.2,35.7,193.7,34.5,190.7,34.8z"/>
	<path class="st1" d="M501.8,49.4l5.7,15c0.4,4.7,1,8.1,1.9,10.2c0.2,0.5,1.3,1,3.2,1.4c2,0.4,3.3,0.6,4,0.5c0.3,0,0.5,0.5,0.7,1.6
		c0.1,1.1,0.1,1.9,0,2.3c-0.5,0-2.6,0-6.2,0.1c-3.6,0.1-6.2,0.2-7.9,0.4c-1.9,0.2-4.6,0.5-8.1,1.1c-3.5,0.5-5.5,0.9-6,1
		c-0.3-0.3-0.6-1-0.7-2.1c-0.1-1.1,0-1.7,0.3-1.8c0.8-0.1,2.2-0.5,4.1-1.2c1.9-0.7,2.8-1.4,2.9-1.9c0.3-2.3,0.3-5.2,0-8.5l-4-10.7
		c-0.3-2.3,4.5-11.9,1.6-14.5c-0.8-0.7-1.4-1-2.3-1.6c-1-0.6-1.3-0.7-2.2-1c-0.7-0.3-1.5-0.5-1.4-0.7c0.4-2.2,1.4-1.8,1.8-1.8
		c2.1,0.2,5.3,0.3,9.4,0.2c4.1-0.1,7.2-0.2,9.3-0.5c0.1,0,0.4,0,0.9-0.1c0.4,0.1,0.6,0.4,0.8,1c0.1,0.6,0.1,1,0,1.3
		C508.3,43.8,502,47.8,501.8,49.4z"/>
	<path class="st1" d="M502,25.8c-1.1-1.2-1.6-2.5-1.4-3.9c0.2-1.4,1.1-2.5,2.6-3.2c1.5-0.8,3.1-1,5-0.7c1.9,0.3,3.4,1.1,4.5,2.3
		c1.1,1.2,1.6,2.5,1.4,3.9c-0.2,1.4-1.1,2.5-2.6,3.3C510.1,28.1,503.2,27,502,25.8z"/>
	<path class="st1" d="M439.3,83.8c3.2,1,6,1.5,8.2,1.5c7.4-0.1,26.7-20,26.6-27.9c-0.1-3.9-1.1-7.7-3-11.2c-1.9-3.6-4.8-6.6-8.7-9.1
		c-3.9-2.5-8.3-3.7-13.2-3.6c-1.9,0-4,0.5-6.1,1.4c-2.2,0.9-3.9,1.9-5.1,2.8c0.1-0.6,0.2-1.1,0.2-1.4c0-1.6-0.2-2.4-0.5-2.4
		c-0.1,0-0.8,0.2-2.2,0.6c-5,1.6-10.7,2.8-17.1,3.5c-0.5,0.1-0.7,1.2-0.6,3.5c0,0.2,0.4,0.3,1.2,0.3c0.8,0.1,1.7,0.3,2.8,0.6
		c1.1,0.3,1.9,0.9,2.6,1.6c1.3,1.3,1.9,3.8,2,7.5l1.6,42.2c1.2,3.1,2.3,6,2.7,8.3c0,0.7-0.8,1.6-2.3,2.8c-1.5,1.2-2.7,2-3.6,2.3
		c-0.2,0.1-0.1,0.6,0.3,1.7c0.4,1,0.8,1.7,1.1,1.9c0.6-0.2,2.4-1.1,5.6-2.6c3.2-1.5,6-4.3,13.4-7.1c3.4-1.2,5.4-1.7,5.9-1.9
		c0-0.3-0.3-1-0.7-2c-0.4-1-0.8-1.5-1-1.4c-0.6,0.3-2,0.5-4,0.7c-2,0.2-3.6-0.1-4.4-0.4c-1.8-1.1-2.1-0.5-3.8-4.9l0.6-4.3
		C437.6,85.7,439,83.8,439.3,83.8z M438.2,47.9c0-2.5,0.7-4.4,2.3-5.9c1.5-1.5,3.6-2.3,6.1-2.3c4.3-0.1,7.7,1.9,10.2,6
		c2.5,4.1,3.9,9.2,4,15.4c0.1,5.8-1,10.4-3.4,13.7c-2.4,3.3-5.3,4.9-8.8,5c-2.4,0-4.6-0.7-6.7-2.1c-2.1-1.5-3.2-3.5-3.2-6
		L438.2,47.9z"/>
	<path class="st1" d="M141.2,64.3L141.2,64.3c-3.5-3.8-1.2-16.1-2.5-16.9c-0.7-0.5-1.5-0.9-2.6-1.1c-1.1-0.2-2-0.3-2.8-0.3
		c-0.8,0-1.2,0-1.2-0.2c-0.1-1.7,0.1-4.2,0.6-4.3c2.1-0.3,6.4,0.6,10.4-0.3c4-0.9,8.6-1.9,10.5-2.6c0.1,0,0.4-0.1,0.9-0.2
		c0.4,0,0.7,0.1,1,0.5c0.3,0.4,0.4,0.7,0.3,0.9c-0.3,3.9-5.8,18.2-4,20l3.4,5c6.7,11.2,5.9,13.2,1.3,18.5c-3,3.5-3.4,6.5-6.6,9.9
		c-3.2,3.4-5,4.3-7,5.2c-1.1-0.3-1.8-0.9-2.1-1.8c0-0.1,0-0.2-0.1-0.5c-0.1-0.3-0.1-0.4,0-0.5c0.9-0.6,2.6-1.5,3.2-2.2
		c0.6-0.7,0.4-0.4,1.1-1.4c0.7-1,1.3-2.4,1.8-4.1c0.5-1.7,2.2-9.6,0.3-14.9C146,69.9,144.2,67.6,141.2,64.3z"/>
	<path class="st1" d="M138.7,28.1c-1.5-1-2.3-2.2-2.5-3.7c-0.2-1.5,0.4-2.9,1.6-4.1c1.3-1.2,2.9-1.9,4.9-2.2c2-0.2,3.6,0.4,5.2,1.1
		c3.7,1.7,6.2,9.9-4,10C141.9,29.2,140.2,29,138.7,28.1z"/>
	<path class="st1" d="M307.3,64.9l6-26.9c0.5-4.3-0.5-15.6-0.7-17.5c-0.2-0.6-1.2-1.4-3.2-2.3c-1.9-0.9-3.4-1.4-4.3-1.5
		c-0.3,0-0.4-0.6-0.3-1.8c0.1-1.1,0.4-1.8,0.7-2c8,1.2,13,1.9,15.2,2.1c2.2,0.3,4.8,0.5,7.7,0.7c2.9,0.2,5.5,0.5,7.8,0.7
		c5.3,0.6,24.4,25.2,20.7,30.2c-2.4,3.1-5.4,5.8-9.5,7.8c-4.1,2-8.5,2.7-13.2,2.1c-1.6-0.2-3.2-0.7-4.7-1.4
		c-1.5-0.8-2.6-1.6-3.1-2.5c-0.1-0.2-0.2-0.6-0.3-1.2c0-0.6,0-1.2,0.1-1.7c0.1-0.5,0.3-0.8,0.4-0.8c1.7,1,3.8,1.6,6.3,1.9
		c3.7,0.4,6.7-0.7,9.2-3.5c2.5-2.8,2.3-2.5,2.8-7.1c0.6-5.1,0-9.3-1.7-12.5c-1.7-3.2-4.7-5.1-9-5.6c-3.2-0.4-5.5-0.4-6.7,0
		c-1,0.4,0.5,15.4-1.6,19.8l-5.7,23.1c-0.8,4.6-1.2,8.7-0.4,10.5c0.3,0.9,3.7,3.1,6.1,3.4c2.4,0.4,4.1,0.5,5.2,0.4
		c0.3,0,0.5,0.6,0.6,1.9c0.1,0.8,0.1,1.5,0,2c-8.5,0.3-13.9,0.6-16.4,0.8c-2.1,0.2-4.4,0.5-6.9,0.8c-2.6,0.4-4.6,0.6-6.1,0.9
		l-2.3,0.4c-0.3-0.3-0.4-1-0.5-2c-0.1-1.2-0.1-1.8,0.2-1.9c1-0.1,2.4-0.5,4.3-1.2c1.9-0.7,3-1.4,3.2-2.1
		C307.6,77.7,306.8,70.7,307.3,64.9z"/>
	<path class="st1" d="M229.4,47.1l2.3-8.9l-6.8-1.9c-0.5-0.1-0.6-1-0.1-2.6c0.1-0.4,0.2-0.7,0.3-0.8c3.3-0.3,6.6-1.2,9.9-2.6
		c1.2-0.5,2.5-1.2,3.9-1.9c1.4-0.7,3.1-1.7,5.1-2.9c0.7,0.2,1.4,0.5,2,0.8c0.6,0.3,0.9,0.6,0.9,0.8l-2.5,9.2c1.9,0.5,4.6,1.3,8,2.3
		c3.4,1,5.3,1.5,5.5,1.6c0.6,0.2,0.8,0.5,0.7,1.1c-0.4,1.5-1.2,2.8-2.2,3.8l-13.3-3.6l-2.1,7.3l1.3,12.8c0,3.1,0.7,5.4,2,7
		c1.3,1.6,3.1,2.4,5.4,2.4c0.8,0,1.6-0.1,2.4-0.3c0.8-0.2,1.5-0.4,2.1-0.6c0.5-0.2,1-0.5,1.5-0.7c0.5-0.2,0.7-0.3,0.8-0.3
		c0.3-0.1,0.7,0.3,1,1c0.4,0.8,0.5,1.3,0.5,1.5c-0.5,1.1-2.1,2.3-4.9,3.7c-2.8,1.4-5.6,2.1-8.2,2.1c-4,0-7.4-1.3-10.2-3.9
		c-2.8-2.6-4.2-6.5-4.2-11.9L229.4,47.1z"/>
	<path class="st1" d="M535.3,50.9l27.3-3.7c1.7-0.2,2.9-0.5,3.4-0.9c0.5-0.3,0.7-1,0.6-2.1c-0.2-1.3-0.8-2.7-1.8-4
		c-1-1.4-2.4-2.6-4.2-3.8c-1.8-1.2-4.1-2-7.1-2.5c-2.9-0.5-10.1-0.2-13.7,0.3c-5.1,0.7-9.5,3.8-12.4,6.5c-4,3.6-5.3,7.9-5.2,13
		c-0.2,7.1,1.9,13.4,6.6,18.5c4.7,5.1,10.4,7.7,17.1,7.9c4.2,0.1,8.1-0.8,11.5-2.8c3.4-2,5.8-4,7-6c0.5-0.6,0.7-1.3,0.8-2.2
		c0-0.4-0.1-0.8-0.3-1.2c-0.2-0.4-0.4-0.6-0.6-0.7c-1.3,0.8-2,1.3-2.4,1.5c-0.3,0.2-0.8,0.5-1.6,0.9c-0.7,0.4-1.5,0.8-2.2,1
		c-0.7,0.2-1.5,0.4-2.4,0.7c-0.9,0.2-1.9,0.4-3,0.5c-1.1,0.1-2.2,0.1-3.3,0.1c-3.4-0.1-6.2-1.1-8.6-3.1c-2.4-2-4-4.3-4.9-6.9
		c-0.9-2.6-1.3-7.7-1.2-10.5C534.5,51.2,534.8,51,535.3,50.9z M534.1,47c-0.1-0.6,0-1.3,0.2-2.2c0.2-0.9,0.3-1.9,1-3
		c0.6-1.1,1.8-4.1,6.2-5c2.9-0.6,7.3,0.7,9.4,2.2c2,1.5,3.1,3.1,3.4,4.8c0.1,0.7-0.2,1.1-0.9,1.2l-18.5,2.5
		C534.4,47.5,534.1,47.4,534.1,47z"/>
</g>
</svg>
