<?xml version="1.0" encoding="utf-8"?>
<!-- Generator: Adobe Illustrator 22.0.1, SVG Export Plug-In . SVG Version: 6.00 Build 0)  -->
<svg version="1.1" id="Layer_1" xmlns="http://www.w3.org/2000/svg" xmlns:xlink="http://www.w3.org/1999/xlink" x="0px" y="0px"
	 viewBox="0 0 618.5 113" style="enable-background:new 0 0 618.5 113;" xml:space="preserve">
<style type="text/css">
	.st0{stroke:#FFFFFF;stroke-width:0.25;}
	.st1{stroke:#FFFFFF;stroke-width:0.25;stroke-miterlimit:10;}
</style>
<g>
	<path class="st0" d="M509.3,46.6l1.7,18.6c-0.1,4.7-1.7,10.7-1.1,12.9c0.1,0.5,1.2,1.1,3.1,1.7c1.9,0.6,3.2,0.9,3.9,0.9
		c0.3,0,0.5,0.6,0.5,1.7c0,1.1-0.1,1.9-0.2,2.2c-0.5-0.1-2.6-0.3-6.2-0.6c-3.6-0.3-6.2-0.4-7.9-0.5c-1.9,0-4.6,0-8.1,0.2
		c-3.5,0.2-5.5,0.3-6.1,0.4c-0.3-0.3-0.4-1-0.4-2.2c0-1.2,0.2-1.7,0.5-1.7c0.8,0,2.2-0.3,4.2-0.8c1.9-0.5,3-1.1,3.1-1.6
		c0.6-2.3,5.6-8.6,4.7-11.9l-2.6-14.7l0,0c-1.2-3.4-2.7-5.9-4.3-6.7c-0.9-0.5-1.9-0.7-3.1-0.7c-1.1,0-2.1,0.1-2.8,0.3
		c-0.7,0.2-1.1,0.2-1.2,0.1c-0.8-2.1-1-3.4-0.5-3.5c2.2-0.6,4.6-0.5,8.7-1.5c4.1-0.9,5.8-1.1,8-2c0.1,0,0.3-0.2,0.8-0.5
		c0.4-0.1,0.7,0,1.1,0.4c0.4,0.4,0.6,0.8,0.6,1.1C506.8,43.1,508.7,45,509.3,46.6z"/>
	<path class="st0" d="M493.7,26.2c-1.3,1.5-3,2.2-5,2.3c-2,0.1-3.7-0.5-5.1-1.8c-1.5-1.3-2.2-3-2.3-5c-0.1-2,0.5-3.7,1.8-5.2
		c1.3-1.5,2.9-2.2,4.9-2.3c2-0.1,7.5,4.8,7.6,6.7C495.6,23,495,24.8,493.7,26.2z"/>
	<path class="st0" d="M134.6,53c-1.6-1.7-4.2-5.3-10.4-8.3c-5.3-2.3-17.1-1.9-24.6,2.2c-2,1.1-2.5,0-3-1.7
		c-0.5-1.7-0.8-12.7-0.8-12.7c-1.2-4.6-3.1-8.8-3.7-11.4c-1-4.1-2.1-7.4-2-10.5c-0.2-0.4-0.5-0.7-0.8-1c-0.4-0.3-0.8-0.5-1-0.4
		l-0.2,0.1c-1,0.7-2.1,1.1-3.1,1.5c-2,0.8-5.9,1.9-7.9,2.5c-2.1,0.6-4.2,1-6.5,1.8c-0.4,0.1-0.5,0.8-0.2,2c0.3,1.2,0.7,1.7,1.1,1.6
		l1-0.2c3.5-0.9,5.6-0.7,6.3,0.4c1,2.1,1.8,4.6,2.5,7.4c0.8,2.1,2.5,7.1,2.4,7.6c-0.1,0.4,2.6,39.6,2.6,39.6c0,2.5,0,5.5-0.2,7.7
		c-0.2,2.2-0.4,3.8-0.6,5c-0.2,1.2-0.2,1.8-0.2,2.1c0,0.3,0.4,0.7,1.3,1.2c0.9,0.5,1.4,0.7,1.7,0.7c0.2,0,1-0.3,2.3-0.8
		c1.3-0.5,2.3-0.8,3-0.8c1.2,0,3.2,0.2,5.6,0.8c3.8,0.5,19.4-3.3,23.8-6.8c7.5-6,13-11.3,15.6-15.3C139.7,62.9,138.3,57.1,134.6,53z
		 M124.5,66.7c-0.2,5.6-3.3,14-4.4,14.6c-6.6,4-9.1,3.8-18.1,4.7c-2.7,0.3-2.2-0.2-2.4-2.5c-0.5-4.6-1.5-13.9-1.3-21.4
		c0.1-5,4.3-9.7,5.7-10.5c4.2-2.3,8.8-3.7,13.1-0.9C124.9,55.2,124.6,64.1,124.5,66.7z"/>
	<path class="st0" d="M12.1,84.6C4.4,77.5,1.9,71.5,1.3,60.8C0.6,50.1,3,30.7,9.8,22.6c6.7-8.1,12.3-10.2,22.4-10.9
		C42.3,11.1,70.3,29,71,39.7c0.7,10.7-1.9,28.8-8.6,36.9c-6.8,8-14.8,9.9-25.3,13C27.3,92.5,19.8,91.8,12.1,84.6z M32.2,13.6
		c-6.6,0.4-10,5.4-13.1,11.6c-3.1,6.2-3.8,23.6-3.3,32.1c0.4,5.8,0.5,8.2,2.4,13.3c1.9,5.1,2.8,7,5.8,11.5c4.1,6.3,5.7,7.4,15.2,4.6
		c11.1-3.3,10.6-6.7,13.8-13c3.2-6.3,7.5-14.6,7-23c-0.4-5.9-4.5-11.5-6.4-16.6c-1.9-5.1-2.1-6.9-6.8-12.7
		C43.5,17.3,37.6,13.3,32.2,13.6z"/>
	<path class="st0" d="M173.3,61.1l-3.9,16.3c-3,7.8-8.8,16-13.5,18.7c-2.6,1.5-6,2.6-10.3,3.2c-4.3,0.6-7.5,0.7-9.7,0.3
		c-0.8-0.8-1.1-1.5-1-2.2c0-0.1,0.1-0.2,0.1-0.4c0.1-0.2,0.2-0.3,0.3-0.3c1.1,0,2-0.1,2.8-0.2c0.8-0.2,1.8-0.4,2.8-0.8
		c1.1-0.3,2.2-0.9,3.5-1.8c1.2-0.9,2.5-1.9,3.7-3.2c1.2-1.3,2.5-3,3.8-5.2c1.3-2.2,4.4-7.6,5.5-10.3l3.7-10.8c0.6-1.9-2.6-6-4.1-7
		c-0.8-0.6-1.7-1-2.9-1.1c-1.1-0.1-2.1-0.1-2.9,0c-0.8,0.1-1.2,0.1-1.2-0.1c-0.5-2.2-0.6-3.3-0.1-3.5c2.1-0.6,5-1.8,8.8-3.5
		c3.8-1.7,6.6-3.1,8.4-4.1c0.1,0,0.4-0.2,0.8-0.4c0.4-0.1,0.7,0.1,1.1,0.6c0.3,0.5,0.5,0.9,0.5,1.2
		C170.2,51.3,173.8,59.7,173.3,61.1z"/>
	<path class="st0" d="M146.2,31.1c-0.3-1.9,0.2-3.7,1.5-5.2c1.3-1.6,3.1-2.6,5.3-2.9c2.2-0.4,4.2,0,5.9,1.1c1.7,1.1,2.8,2.6,3.1,4.5
		c0.3,1.9-0.2,3.7-1.5,5.3c-1.3,1.6-3.1,2.6-5.3,3C153,37.2,146.5,33,146.2,31.1z"/>
	<path class="st0" d="M241.4,40.8l-7-0.6c-0.5,0-0.7-1.1-0.5-3.1c0-0.5,0.1-0.9,0.2-1c3.2-1.1,6.3-2.9,9.4-5.3
		c1.1-0.9,2.3-1.9,3.6-3.1c1.3-1.2,2.8-2.7,4.6-4.5c0.8,0.1,1.5,0.2,2.2,0.5c0.7,0.3,1,0.5,1,0.7l-1,11.3c2,0.2,4.8,0.4,8.3,0.8
		c3.6,0.3,5.4,0.5,5.7,0.5c0.6,0.1,0.9,0.4,0.8,1.1c-0.2,1.8-0.7,3.5-1.6,5l-13.8-1.2l-2.8,22.3c-0.3,3.1,0.4,11.2,1.9,12.6
		c3.4,3.4,8.2,1.2,9.1,1c0.9-0.2,2.2-0.8,2.7-1c0.6-0.2,1.1-0.4,1.6-0.6c0.5-0.2,0.8-0.3,0.8-0.3c0.3,0,0.6,0.3,0.9,1.1
		c0.3,0.8,0.4,1.3,0.3,1.5c-0.6,1-0.6,1.6-3.5,2.7c-2.2,0.8-3.7,1.8-6.2,1.7c-4-0.1-8.1,0-11-3.7c-2.3-3-7.9-12.6-7.4-18L241.4,40.8
		z"/>
	<path class="st0" d="M223.7,65.3c-0.3-0.3-0.5-0.5-0.7-0.6c-1,1.1-1.7,1.7-1.9,2c-0.3,0.3-0.7,0.7-1.3,1.3
		c-0.6,0.6-1.2,1.1-1.9,1.5c-0.6,0.4-1.4,0.8-2.2,1.2c-0.8,0.5-1.8,0.8-2.8,1.2c-1,0.3-2.1,0.6-3.2,0.9c-3.3,0.7-5.6,0.1-8.1-1.9
		c-2.4-1.8-3.1-3.5-3.8-6.2c-0.7-2.7-0.2-5.2,0.1-8c0-0.5,0.3-0.7,0.9-0.6l27.4,3c1.5,0,1.1-1.7,1.8-4.2c0.3-1-1.6-14.3-15.8-19.7
		c-6.5-2.4-12.9-1.7-17.9,2.7c-5,4.3-7.9,10.4-8.7,18.1c-0.8,7,0.8,14.8,5.8,20.4c4.8,4.7,10.4,6.6,17,5.2c4.1-0.9,7.6-2.7,10.5-5.4
		c2.9-2.7,4.7-5.2,5.4-7.5c0.3-0.7,0.4-1.5,0.2-2.3C224.2,66,224,65.6,223.7,65.3z M199.5,46.3c0.5-1.3,1.2-2.7,2.1-4.1
		c0.9-1.4,2.2-3.1,3.8-4c1.6-0.9,3.4-1.7,5.3-1.5c3,0.3,5.8,2.9,7.5,4.8c2,2.3,1.1,6.7,0.8,9.4c-0.1,1.1-0.5,1.7-1.2,1.6l-18.6-2
		c-0.5,0-0.7-0.3-0.6-0.9C198.8,48.7,199,47.6,199.5,46.3z"/>
	<path class="st0" d="M477.5,59c0,7.9-2.7,14.5-8,19.6c-5.3,5.2-6.7,7.8-14.1,7.8c-2.2,0-5-0.5-8.2-1.6c-0.3,0-0.5,0.5-0.5,1.6
		l-0.1,2c0,4.8,3.7,8.4,4.3,10.5c0.1,0.6,1.2,0.6,3.2,0.7c2.1,0.2,3.5-0.2,4.2-0.2c0.2,0,0.4,0.6,0.4,1.7c0,1.1,0,1.8-0.1,2.1
		c-0.5,0-5.7,0.4-9.2,1.1c-3.5,0.7-8.3,3.6-11.8,3.8c-3.5,0.2-5.6,0.3-6.2,0.3c-0.2-0.3-0.3-1-0.3-2.1c0-1.1,0.1-1.7,0.3-1.7
		c0.9,0,2.3-0.3,4.2-0.9c1.9-0.6,2.9-1.2,3.2-1.8c0.5-2.2-4.2-8.3-4.2-11.6l-4.9-38.2c0-3.7-0.6-6.2-1.8-7.5
		c-0.6-0.8-1.5-1.3-2.5-1.7c-1.1-0.3-2-0.6-2.8-0.6c-0.8-0.1-1.2-0.2-1.2-0.3c0-2.2,0.2-3.4,0.7-3.5c6.4-0.6,12.1-1.7,17.2-3.2
		c1.4-0.4,2.1-0.6,2.2-0.6c0.3,0,0.5,0.8,0.5,2.4c0,0.3-0.1,0.8-0.2,1.4c1.2-0.9,2.8-2.4,5.1-2.7C458.7,34.6,477.5,53.5,477.5,59z
		 M450.3,40.8c-2.5,0-4.6,0.7-6.2,2.2c-1.6,1.5-2.4,3.4-2.4,5.9l2.9,23.8c0,2.5,3.1,4.5,5.2,6c2.1,1.5,4.3,2.2,6.7,2.2
		c3.5,0,4.7,0.1,7.1-3.1c2.4-3.2,2-9,2-14.8c0-6.2-2.8-11.9-5.2-16C458,42.9,454.6,40.8,450.3,40.8z"/>
	<path class="st0" d="M541.7,38.7c2.6-0.5,7.2-0.5,8.9,0.2c3.1,1.3,4.1,2,6.1,4s3.5,4.1,4.7,6.3c1.2,2.2,1.9,4.4,2.1,6.5
		c0.2,1.7,0,2.8-0.6,3.3c-0.6,0.5-1.8,0.8-3.7,1.1l-23.4,3.5c-0.6,0.1-0.8,0.3-0.8,0.8c0.3,2.7,1.1,5.4,2.5,7.8
		c1.4,2.5,2.6,4.2,5.5,5.7c2.2,1.2,2.2,0.8,4.6,0.6c1.2-0.1,2.4-0.3,3.5-0.6c1.1-0.2,2.2-0.6,3.1-0.9c0.9-0.4,1.8-0.7,2.5-1
		c0.7-0.3,1.4-0.7,2.1-1.3c0.7-0.5,1.2-0.9,1.5-1.2c0.3-0.2,1.1-0.8,2.3-1.8c0.2,0.1,0.4,0.3,0.7,0.6c0.3,0.4,0.5,0.7,0.5,1.1
		c0.1,0.8-0.1,1.6-0.5,2.3c-1,2.2-3.2,4.5-6.5,7c-3.4,2.5-7.5,3.8-11.8,4.5c-6.9,1.2-22.4-13.6-23.3-20.7c-0.9-7.7,0.8-14.2,5-19.6
		C531.1,41.4,534.4,40.1,541.7,38.7z M542.4,43.1c-1.9,0.3-2.8,0.7-4.2,1.9c-1.4,1.2-1.8,2.7-2.5,4.3c-0.6,1.6-1.1,3.1-1.3,4.5
		c-0.2,1.4-0.3,2.5-0.2,3.4c0.1,0.5,0.3,0.8,0.8,0.7l14-2.4c0.7-0.1,2.2-1,2.1-2.1c-0.3-2.7-0.5-4.8-3.1-8.1
		C546.3,43.2,544.1,42.8,542.4,43.1z"/>
	<path class="st0" d="M323.1,12.8c2.2,0.1,4.7-0.5,7.6-0.5c2.9,0.1,3.5,0,5.8,0.2c2.3,0.1,4.6,0.5,6.8,1.1c2.2,0.6,4.4,1.5,6.6,2.8
		c2.2,1.3,7.9,5.4,10.1,7.1c4.1,3.3,8.4,5.7,8.2,8.8c-0.2,3.8-1.4,7.4-3.5,10.9c-2.1,3.5-5.1,6.4-9.1,8.7c-3.9,2.3-8.3,3.3-13.1,3
		c-1.6-0.1-3.2-0.5-4.8-1.2c-1.6-0.7-2.6-1.5-3.2-2.4c-0.1-0.2-0.3-0.6-0.3-1.2c-0.1-0.6-0.1-1.2,0.1-1.8c0.1-0.6,0.2-0.8,0.4-0.8
		c1.7,0.9,3.8,1.4,6.4,1.6c3.7,0.2,6.7-1.2,9-4.2c2.3-3,3.7-6.9,4-11.7c0.3-5.4-1.6-10.8-5.2-13.5c-3-2.2-9.9-2.4-14-1.9
		c-3.2,0.4-3.4,1.1-4.7,1.5c-0.9,0.4-1.1,3.8-0.6,11.3l1.4,26.7c-0.3,4.8-3.2,18.7-2.7,20.7c0.2,1,1.4,1.8,3.7,2.6
		c2.3,0.7,4,1.1,5.1,1.2c0.3,0,0.4,0.7,0.3,2.1c-0.1,0.9-0.2,1.6-0.4,2c-8.4-1-14.1-2.8-15.6-2.8l-15-1.3c-0.2-0.3-0.3-1.1-0.2-2.2
		c0.1-1.3,0.2-1.9,0.5-1.9c1,0.1,2.5-0.1,4.5-0.5c2-0.4,3.2-0.9,3.5-1.7c0.5-1.4,2.9-13.3,3.3-19.2l0.8-27.8
		c-0.2-4.4-0.2-6.9-1.8-8.6c-1-1.1-2.3-2.6-4.8-2.8c-2.1-0.2-3.5-0.1-4.5-0.2c-0.3,0-0.4-0.6-0.3-1.8c0.1-1.2,0.2-2.1,0.6-2.1
		C314.8,12.4,320.9,12.6,323.1,12.8z"/>
	<path class="st1" d="M418.2,75.9c-1.5,1-2.8,1.2-4,1.4c-3,0.5-4.3-1.2-5-2c-0.7-0.9-0.7-4.3,0-10.9c0.6-6.3,1.1-9.4,1.1-9.4
		c0.4-4.1-0.7-6.9-3.8-10.5c-0.9-1.1-7.5-3.2-10.8-4.1c-5.3-1.4-12.5-3.5-16.8,0.7c-4.3,4.2-6.2,7.1-5.5,10.7
		c1.5,1.6,3.6,2.1,6.4,1.5c1.4-0.3,2.6-0.9,3.6-1.9c1-0.9,1.2-2.2,1-3.7c-0.2-2.1-0.4-2.7,0.5-4.6c0.8-1.7,2.2-2.3,4.5-2.2
		c2.5,0,5.3,1.1,7.2,1.6c2.2,0.6,3.7,0.6,3.7,1.9l-0.3,6.1c0,0.9-0.9,2.4-1.6,2.7c-0.9,0.3-2.6,0.7-4.9,1.4
		c-2.4,0.6-4.3,1.2-5.8,1.7c-1.5,0.5-3.3,1.2-5.4,2.1c-2.1,1-3.8,1.9-5,2.9c-1.3,1-2.3,2.3-3.3,3.9c-0.9,1.6-1.4,3.3-1.4,5.2
		c-0.1,3.7,1.1,6.6,3.4,8.8c2.4,2.2,5.5,3.3,9.3,3.4c1.5,0,3.1-0.1,4.6-0.5c1.5-0.4,2.8-0.9,4-1.5c1.1-0.6,2.1-1.2,3-1.8
		c0.9-0.6,1.6-1.1,2.1-1.5c0.5-0.4,0.8-0.7,0.9-0.7c0.5,1.6,1.6,3,3.2,4.3c1.7,1.3,3.4,2,5.1,2.1c1.8,0,3.6-0.4,5.6-1.4
		c1.9-1,3.5-1.9,4.7-2.8c0.6-0.4,0.4-0.4,0.2-1.3C418.6,76.8,418.7,75.8,418.2,75.9z M400.5,62.3c-0.4,5,0,8.5-3.7,11.3
		c-1.5,1.1-3.3,1.5-5.4,1.5c-1.9,0-3.5-0.7-4.7-1.8c-1.2-1.2-1.8-3-1.7-5.5c0-1.2,0.3-2.2,0.9-3.2c0.6-1,1.5-1.8,2.8-2.5
		c1.2-0.7,2.3-1.2,3.3-1.5c0.9-0.4,2.3-0.8,4-1.3c1.7-0.5,4.3-1.5,4.9-1.7L400.5,62.3z"/>
	<path class="st0" d="M608.9,33.4c4.2-0.4,7.5,0.6,9.8,2.9c0.6,6.5-0.9,9.9-4.6,10.3c-1.4,0.1-2.9-0.5-4.7-1.9
		c-1.8-1.4-3.5-2-5.2-1.8c-2.4,0.2-3.2,2.2-5.2,4.1c-2,2-6.9,5.5-8,8.5l-0.8,10.8c0.4,4.7,0.3,5.5,1,7.7c0.2,0.5,1.3,1,3.2,1.4
		c1.9,0.4,3.2,0.6,3.9,0.5c0.2,0,0.4,0.5,0.6,1.6c0.1,1.1,0.2,1.9,0.2,2.2c-0.6,0-2.7,0-6.1,0.1c-3.5,0.1-5.2,1-7.5,1.5
		c-1.8,0.4-4.1,2-7.5,2.6c-3.5,0.6-5.5,0.9-6.1,1c-0.3-0.3-0.6-1-0.7-2.1c-0.1-1.1,0-1.7,0.3-1.8c0.9-0.1,2.3-0.5,4.1-1.3
		c1.8-0.8,2.8-1.4,2.9-2c0.3-2.3,0.3-5.2,0-8.5l3.2-15c0.6-3.7,2.6-6.9,1.3-8c-0.7-0.7-1.6-1.2-2.7-1.5c-1.1-0.3-2.1-0.4-2.8-0.4
		c-0.7,0-1.1-0.1-1.1-0.2c-0.2-2.2-0.1-3.4,0.2-3.5c3.5-0.6,9.5-2.4,18.1-5.2c0.5-0.2,0.8-0.3,0.9-0.3c0.3,0,0.6,0.2,0.9,0.7
		c0.3,0.5,0.4,0.9,0.4,1.3c0,0.3,0,0.9,0,1.6c0,0.7,0,1.5-0.1,2.3c0,0.8,0,1.3,0,1.6c1.2-2.2,2.9-4.2,5.1-6.1
		C604.2,34.7,606.5,33.6,608.9,33.4z"/>
</g>
</svg>
