<?xml version="1.0" encoding="utf-8"?>
<!-- Generator: Adobe Illustrator 22.0.1, SVG Export Plug-In . SVG Version: 6.00 Build 0)  -->
<svg version="1.1" id="Layer_1" xmlns="http://www.w3.org/2000/svg" xmlns:xlink="http://www.w3.org/1999/xlink" x="0px" y="0px"
	 viewBox="0 0 618.5 113" style="enable-background:new 0 0 618.5 113;" xml:space="preserve">
<style type="text/css">
	.st0{stroke:#FFFFFF;stroke-width:0.25;stroke-miterlimit:10;}
	.st1{stroke:#FFFFFF;stroke-width:0.25;}
	.st2{fill-rule:evenodd;clip-rule:evenodd;stroke:#FFFFFF;stroke-width:0.25;stroke-miterlimit:10;}
</style>
<g>
	<path class="st0" d="M199.1,31.3c2.3-1.2,6.8,0.7,9.7,2.1c2.8,1.4,5.1,3.2,6.7,5.4c1.6,2.2,2.8,4.5,3.7,6.8
		c0.8,2.3,1.3,4.6,1.3,6.7c0,1.7-0.3,2.7-0.9,3.2c-0.6,0.4-1.7,0.6-3.5,0.6h-27.5c-0.5,0-0.8,0.2-0.8,0.7c0,2.8,0.5,5.5,1.5,8.1
		c1,2.6,2.7,4.9,5.1,6.8c2.4,1.9,5.3,2.9,8.7,2.9c1.2,0,2.3-0.1,3.3-0.2c1.1-0.1,2.1-0.3,3-0.6c0.9-0.3,1.7-0.5,2.4-0.8
		c0.7-0.2,1.4-0.6,2.1-1c0.7-0.5,1.2-0.8,1.6-1c0.3-0.2,1.1-0.7,2.3-1.6c0.2,0.1,0.3,0.3,0.6,0.7c0.2,0.4,0.3,0.8,0.3,1.2
		c0,0.8-0.2,1.6-0.7,2.2c-1.2,2.1-3.4,4.1-6.8,6.2c-3.4,2.1-7.2,3.1-11.4,3.1c-6.7,0-12.4-2.5-17.3-7.4c-4.8-5-7.7-11-7.3-18
		C176.2,40.9,192.1,35,199.1,31.3z M199.6,33.9c-1.7,0.7-2.9,1.6-5.2,2.9c-6.1,3.5-5.4,6.4-6.1,9.6c-0.3,1.4-0.5,2.5-0.5,3.4
		c0,0.5,0.2,0.8,0.7,0.8h18.7c0.7,0,1-0.6,1-1.7c0-2.7-0.9-5.8-2.3-8.7C204.4,37.3,201.8,33,199.6,33.9z"/>
	<path class="st1" d="M324.2,8.5c2.4-0.4,15.3-3.2,17.6-3.5c5.7-0.9,9.2-1.9,13.7,0.1c2.3,1,4.3,2.4,6,4c1.7,1.6,3.1,3.6,4.3,6.1
		c1.1,2.5,1.3,4.5,1.2,7.4c-0.1,3.6-1.5,5.9-3.4,9.4c-1.9,3.5-4.7,5.4-8.5,7.8c-3.8,2.4-8.1,3.6-12.8,3.6c-1.6,0-3.2-0.3-4.8-0.9
		c-1.6-0.6-2.7-1.3-3.3-2.1c-0.2-0.2-0.3-0.5-0.4-1.2c-0.1-0.6-0.1-1.2-0.1-1.7c0.1-0.5,0.2-0.8,0.3-0.8c1.8,0.8,3.9,1.2,6.5,1.2
		c3.7,0,6.6-1.5,8.8-4.6c2.1-3,4.3-6.7,4.5-11.2c0.2-5.1,0-6.7-1.9-9.8c-3.6-5.9-5.4-5.9-10.4-4.6c-3.7,1-4.3,0.6-6.5,2.9
		c-0.7,0.7-1.3,2.8-2.2,10.3l-4,26.8c-0.4,3.1,0.7,22.2,2.6,24.6c0.6,0.7,1.5,1.7,3.9,2.2c2.3,0.6,4.1,0.9,5.1,0.9
		c0.3,0,0.5,0.7,0.5,2c0,0.8-0.1,1.5-0.2,2c-8.5-0.5-12.5,0.4-15.4,0.6c-2.1,0.2-11.3,2.4-12.9,2.4l-2.3,0.2c-0.2-0.3-0.3-1-0.3-2.1
		c0-1.2,0.1-1.8,0.3-1.8c1,0,2.5-0.2,4.4-0.8c2-0.5,3.1-1.1,3.4-1.8c0.5-1.4-2.3-20.6-2.3-26.2l4-28.6c0.7-4.6,0.8-4.3,0.7-6.3
		c0-0.7-0.5-1.4-1.6-1c-1.5,0.5-3.7,1.9-4.7,1.9c-0.3,0-0.5-0.6-0.5-1.7c0-1.2,0.1-1.9,0.5-2.1C318.9,9.9,319.6,9.2,324.2,8.5z"/>
	<path class="st1" d="M404.3,43l1,18.5c0,1.5,3.2,5.2,3.9,5.9c0.7,0.8,1.6,1.2,2.8,1.1c1.2,0,2.4-0.6,3.9-1.6
		c0.5,0.1,0.7,0.6,0.7,1.2c0,1.5-0.2,2.7-0.6,3.5c-1.1,1-2.6,2-4.5,3c-1.9,1-3.7,1.6-5.5,1.6c-1.8,0-3.5-0.6-5.2-1.8
		c-1.7-1.3-2.9-2.6-3.5-4.2c-0.1,0.1-0.4,0.3-0.8,0.8c-0.5,0.4-1.2,1-2,1.6c-0.9,0.6-1.9,1.3-2.9,1.9c-1.1,0.6-2.4,1.2-3.9,1.7
		c-12,4-18.2-4.7-17.9-10.8c0.1-1.8,0.3-3.6,1.2-5.2c0.8-1.6,1.9-3,3.1-4.1c1.2-1.1,2.8-2.1,4.9-3.2c2-1.1,5.5-1.9,7.8-2.6
		c2.3-0.8,3.9-1.3,4.9-1.6c0.7-0.3,1-0.9,1-1.9l-0.2-6.3c-0.1-2.7-0.7-4.8-2-6.3c-1.3-1.5-2.9-2.2-5-2.2c-2.3,0.1-4.1,0.8-5.4,2.3
		c-1.3,1.5-0.7,1.6-0.6,4.2c0,1.5-0.5,2.7-1.6,3.4c-1.1,0.8-2.4,1.2-3.9,1.2c-2.8,0.1-4.9-0.8-6.1-2.6c-0.1-3.7,1.2-5.2,6.1-8.7
		C382.9,25.5,404.1,36.9,404.3,43z M389.2,69.3c2-0.2,3.6-1,4.9-2.2c1.3-1.2,0.9-2.5,0.7-3.9l-1.4-11.7c-0.5,0.3-0.6,0.8-2.1,1.5
		c-1.6,0.7-2.8,1.3-3.6,1.8c-0.8,0.5-1.8,1.1-2.9,2c-1.1,0.8-1.8,1.8-2.3,2.8c-0.4,1.1-0.6,2.2-0.4,3.3c0.3,2.4,1.1,4.2,2.4,5.2
		C385.8,69.2,387.4,69.6,389.2,69.3z"/>
	<path class="st0" d="M471,35.9c-2.5-2.4-5.8-4.2-10-5.4c-4.2-1.1-8.7-1.2-13.5-0.1c-1.9,0.4-3.8,1.3-5.8,2.4
		c-2,1.2-3.5,2.3-4.5,3.3c0-0.5,0-0.9,0-1.2c-0.3-1.3-0.6-1.9-0.9-1.8c-0.1,0-0.7,0.3-2,1c-4.7,2.4-10,4.5-16.1,6.4
		c-0.4,0.2-0.4,1.1,0,2.9c0,0.1,0.4,0.1,1.2,0c0.8-0.1,1.7-0.2,2.8-0.1c1.1,0,2,0.3,2.8,0.8c1.4,0.8,2.5,2.6,3.2,5.5
		c0,0,4.1,9.5,4.4,12.8c0.3,3.3-1.8,27.6-1.8,27.6c0,3.2-0.9,7.4-1.4,9.6c-0.2,0.6-1.3,1.1-3.2,1.7c-1.9,0.5-3.3,0.8-4.2,0.8
		c-0.2,0-0.4,0.5-0.4,1.6c0,1.1,0.1,1.8,0.3,2c0.6,0,2.7-0.1,6.2-0.2c3.5-0.2,6.2-0.2,8.1-0.2c1.7,0,4.3,0.2,7.9,0.4
		c3.6,0.3,5.6,0.4,6.2,0.4c0.1-0.3,0.1-1,0.1-2c0-1.1-0.2-1.6-0.4-1.6c-0.7,0-2-0.3-4-0.9c-2-0.6-3-1.2-3-1.8
		c-0.6-2.1-0.2-7-0.1-11.6l0.1-7.5c0-1,0.2-1.5,0.5-1.5c3.2,1.1,5.9,1.7,8.2,1.7c16.2-0.4,27-26,25.9-31.3
		C476.6,46.5,473.5,38.3,471,35.9z M461.7,71.2c-2.5,3.1-5.5,4.6-9,4.5c-2.4,0-4.6-0.8-6.7-2.2c-2.1-1.5-3.1-3.4-3-5.8l-0.1-11.2
		l-3.7-12.1c-0.5-2,0-3.7,1.2-5.2c1.3-1.5,3.1-2.6,5.6-3.1c4.2-1,7.9-0.1,11,2.6c3.2,2.7,10.4,12.3,11.5,17.2
		C469.6,61.5,464.1,68.1,461.7,71.2z"/>
	<path class="st1" d="M552.3,30.6c4,0.6,6.1,2,8.8,3.9c2.6,1.8,4.5,4.9,5.6,7.4c1.4,3.3,2.1,7.3,0.9,12.4c-0.6,2.4-2.7,2-6.9,1.7
		l-21.4-3.7c-0.5,0-0.7,0.2-0.8,0.6c-2.7,6.7,1.4,13.1,3.7,15.1c2.3,2.1,5.1,3.2,8.5,3.4c1.1,0.1,2.3,0.1,3.3,0c1.1,0,2.1-0.2,3-0.4
		c0.9-0.2,1.8-0.4,2.5-0.6c0.7-0.2,1.4-0.5,2.2-0.9c0.8-0.4,1.3-0.7,1.6-0.9c0.3-0.2,1.1-0.6,2.4-1.4c0.1,0.1,0.3,0.3,0.5,0.7
		c0.2,0.4,0.3,0.8,0.3,1.2c-0.1,0.8-0.3,1.6-0.8,2.1c-1.3,2-3.7,3.9-7.2,5.8c-3.5,1.9-7.4,3.1-11.6,2.4C536.7,78,526,57.8,526,55.6
		c-0.3-7.8,2.5-17.6,8-21.2C538.8,31.2,545.5,29.6,552.3,30.6z M549.9,33.9c-4.7,0.2-7.4,3.1-8.2,4.6c-0.9,1.5-1.5,2.9-1.9,4.2
		c-0.4,1.3-0.7,2.4-0.7,3.4c0,0.5,0.2,0.8,0.6,0.8l18.5,3.5c0.7,0,0.9-0.5,1.1-1.7c0.6-2.5,0.9-7.2-0.8-10.1
		C556.9,35.8,555,33.8,549.9,33.9z"/>
	<path class="st1" d="M157,53.4l5,16.4c2.3,10.3,2.4,18.3,0.3,24.2c-1.2,3.3-3.3,6.6-6.4,10c-3.1,3.4-5.7,5.6-7.7,6.5
		c-1.1-0.3-1.8-0.9-2.2-1.8c0-0.1-0.1-0.2-0.1-0.5c-0.1-0.3-0.1-0.4,0-0.5c0.9-0.7,1.6-1.4,2.1-2.1c0.5-0.7,1.2-1.6,1.8-2.7
		c0.7-1.1,1.2-2.4,1.7-4.2c0.5-1.7,0.8-3.7,1-5.8c0.2-2.2,0.2-4.8-0.1-8c-0.3-3.1-0.8-6.5-1.6-10.1l-3.3-9.5l-3-9.4
		c-1.5-3.3,3.8-11.3,2.9-12.8c-0.4-0.9-1.1-1.7-2-2.3c-0.9-0.6-1.8-1.1-2.5-1.4c-0.7-0.3-1.1-0.5-1-0.6c0.6-2.2,1.1-3.2,1.6-3.2
		c2.1,0.4,5.2,0.8,9.4,1.1c4.1,0.3,7.2,0.4,9.3,0.3c0.1,0,0.4,0,0.9,0c0.4,0.1,0.6,0.4,0.7,1c0.1,0.6,0,1-0.1,1.3
		C161.8,44.3,155.8,50.3,157,53.4z"/>
	<path class="st1" d="M148.1,20.6c-1-1.7-1.2-3.5-0.7-5.4c0.5-1.9,1.6-3.3,3.3-4.3c1.7-1,3.5-1.2,5.4-0.7c1.9,0.5,3.6,1.5,4.4,3.3
		c2.6,6.5-6.1,11-8,10.5C150.6,23.4,149.1,22.3,148.1,20.6z"/>
	<path class="st2" d="M61.9,18C48.4,4.8,27.8,0.2,14.2,11.7c-7.7,6.5-31.8,40,10.2,67.6c17.2,11.3,25.4,5.4,41.2-7.7
		c2.1-2.3-0.9-6.6,5.3-19.8C82.8,32.5,72.5,28.4,61.9,18z M62,50.4c-2.3,4.2-7,14.5-8.3,19.2c-3.1,11.6-10.4,13.7-20,10.7
		c-6.6-2-8.3-2.9-13.7-9.1c-6.7-10.9-8.5-52-1.1-58.8c2.8-2.6,9.7-9.5,26.1,3.5C57.5,26,71.4,32.9,62,50.4z"/>
	<path class="st1" d="M95.4,31.2c-0.2,0-0.3,0.1-0.4,0.2c-0.1,0-0.2-0.1-0.3-0.3c-0.1-0.2-0.1-0.4-0.1-0.5c0-0.1,0-0.3-0.1-0.5
		l0-0.1l-0.7-6.8l2.8-9.7c1-3.6,2.4-4.5,3.9-6.8c0-0.3-0.1-0.7-0.3-1.2C100,5,99.8,4.7,99.5,4.7l-0.2-0.1c-1.2,0-2.3,0.1-3.4,0.1
		c-1.1,0.1-2.4,0.1-3.8,0c-1.5,0-3.3-0.2-5.4-0.4c-2.2-0.2-4.4-0.6-6.8-1c-0.4-0.1-0.8,0.3-1.1,1.4c-0.3,1-0.2,1.6,0.2,1.7l1,0.3
		c3.5,0.9,5.3,2,5.4,3.1c-0.1,2.1-0.7,2.3-1.4,4.8l-1.6,4.5l4.2,45.6c0.3,2.5,0.5,4.9,0.5,7c0,2.2,0,3.8,0,5c0,1.2,0,1.9,0,2.1
		c0,0.3,0.5,0.6,1.5,1c0.9,0.4,1.5,0.5,1.7,0.5c0.2,0,1-0.4,2.2-1.1c1.2-0.7,2.2-1.1,2.9-1.2c1.2-0.1,3-0.1,5.5,0.2
		c2.4,0.3,5.3,0.3,8.5-0.1c6.9-0.8,10.8-4,15.4-9.9c4.7-5.9,3.4-12.9,5.7-20.1C135.5,32.4,105.7,30.6,95.4,31.2z M117.7,53
		c-0.7,5.1,0.1,9.6-1.5,13.4c-1.6,3.8-2.4,5.7-6.4,6.2c-2.7,0.3-5.2-0.1-7.4-1.2c-2.2-1.1-3.4-3-3.7-5.7l-2.8-24.3
		c-0.2-2-0.9-5,0.5-6.7c1.4-1.6,4.5-2.1,7.6-1.9c5.3,0.4,6.6,0.4,11,4C118.4,39.8,118.9,43.6,117.7,53z"/>
	<path class="st1" d="M232.8,50.2l2.1-9.7l-6.7,1.8c-0.5,0.1-1.1-1.8-1.3-3.3c0-0.4,0-0.7,0-0.8c3-1.4,5.7-3.2,8.4-5.6
		c0.9-0.9,1.9-1.8,3-2.9c1.1-1.1,2.4-2.5,3.8-4.2c0.8-0.1,1.5-0.1,2.2,0c0.7,0.1,1.1,0.2,1.1,0.4l0.6,7.6c2-0.2,4.8-0.5,8.3-0.8
		c3.6-0.3,3.5,0,3.7,0c0.6-0.1,0.9,0.2,1,0.7c0.1,1.4-0.8,3.3-1.4,4.6l-10.9,1.4l-2.4,8.5l5.2,14.4c1.2,3.3,2.7,5.5,4.5,6.6
		c1.8,1.2,3.8,1.3,5.9,0.3c0.7-0.3,1.4-0.8,2.1-1.3c0.7-0.6,1.3-1.1,1.7-1.5c0.4-0.5,0.8-0.9,1.1-1.4c0.3-0.4,0.5-0.7,0.6-0.7
		c0.3-0.2,0.7,0,1.4,0.7c0.7,0.7,1,1.1,1,1.4c0,1.3-1,3.3-3.1,6c-2,2.7-4.3,4.6-6.8,5.7c-3.7,1.7-7.3,1.7-10.9,0.1
		c-3.6-1.6-6.4-5.2-8.5-10.9C238.7,67.2,234.6,57.7,232.8,50.2z"/>
	<path class="st1" d="M502.1,19.2c-1.2-1.5-1.6-3.1-1.3-4.8c0.3-1.7,6.1-5.4,8.1-5.1c2,0.3,3.5,1.2,4.7,2.6c1.2,1.4,1.6,3,1.3,4.7
		c-0.3,1.7-1.2,3.1-2.8,4.1c-1.6,1-3.3,1.4-5.3,1.1C504.8,21.5,503.2,20.6,502.1,19.2z"/>
	<path class="st1" d="M495.3,61.4l1.2-19.1c0.5-3.2,1.6-4.4,0.6-5.8c-0.6-0.8-1.4-1.4-2.4-1.9c-1-0.5-1.9-0.9-2.6-1
		c-0.7-0.2-1.1-0.3-1.1-0.5c0.3-2,0.7-2.9,1.2-2.9c2.1,0.2,5.3,0.3,9.4,0.3c4.1,0,7.2-0.2,9.3-0.4c0.1,0,0.4,0,0.9-0.1
		c0.4,0.1,0.6,0.3,0.8,0.9c0.2,0.5,0.2,0.9,0,1.2c-2.6,2.8-6.9,9.7-7.2,11.2l1.7,16.8c0.4,4.7,2.4,6.9,3.2,9.1
		c0.2,0.5,1.3,1,3.2,1.4c2,0.4,3.3,0.6,4,0.5c0.3,0,0.5,0.5,0.7,1.6c0.1,1.1,0.1,1.9,0,2.3c-0.5,0-2.6,0-6.2,0.1
		c-3.6,0.1-6.2,0.2-7.9,0.3c-1.9,0.2-4.6,0.5-8.1,1c-3.5,0.5-5.5,0.8-6,1c-0.3-0.3-0.5-1-0.6-2.1c-0.1-1.2,0-1.7,0.3-1.8
		c0.8-0.1,2.2-0.5,4.1-1.2c1.9-0.7,2.9-1.4,3-1.9C497.1,67.9,495.5,64.7,495.3,61.4z"/>
	<path class="st1" d="M580.9,47.5c0.5-3.3,0.8-9-0.2-10.4c-0.5-0.8-1.3-1.4-2.3-2c-1.1-0.5-1.9-0.9-2.6-1c-0.7-0.2-1.1-0.3-1-0.5
		c0.3-2.1,0.6-3.1,1-3.1c3.5,0.2,9.8,0,18.8-0.6c0.6-0.1,0.9-0.1,0.9-0.1c0.3,0,0.5,0.3,0.7,0.9c0.2,0.5,0.2,1,0.1,1.3
		c-0.1,0.3-0.2,0.8-0.4,1.5c-0.2,0.7-0.4,1.4-0.6,2.1c-0.2,0.7-0.3,1.2-0.4,1.4c1.6-1.7,3.8-3.2,6.3-4.4c2.6-1.2,5.1-1.6,7.5-1.3
		c4.2,0.6,7.1,2.2,8.9,4.8c-0.9,6-3.1,8.8-6.8,8.3c-1.4-0.2-2.8-1.1-4.1-2.8c-1.4-1.6-2.9-2.6-4.6-2.8c-2.4-0.3-4.4,0.5-6,2.6
		c-1.6,2-4.2,7-4.6,9.4l2.8,10c1.6,4.9,2.1,5.3,3,7.4c0.2,0.5,1.3,0.9,3.3,1.2c2,0.3,3.3,0.3,3.9,0.2c0.2,0,0.4,0.5,0.7,1.6
		c0.2,1.1,0.3,1.8,0.3,2.2c-0.6,0-4.3,0.4-7.9,1.7c-4.4,1.5-10.1,4.8-13.5,5.6c-3.4,0.8-5.4,1.3-6,1.5c-0.4-0.3-0.6-0.9-0.8-2.1
		c-0.2-1.1-0.1-1.7,0.2-1.8c0.9-0.2,2.2-0.7,4-1.5c1.8-0.9,2.7-1.6,2.7-2.1c0.2-2.4,0-5.2-0.6-8.4L580.9,47.5z"/>
</g>
</svg>
