<?xml version="1.0" encoding="utf-8"?>
<!-- Generator: Adobe Illustrator 22.0.1, SVG Export Plug-In . SVG Version: 6.00 Build 0)  -->
<svg version="1.1" id="Layer_1" xmlns="http://www.w3.org/2000/svg" xmlns:xlink="http://www.w3.org/1999/xlink" x="0px" y="0px"
	 viewBox="0 0 614 113" style="enable-background:new 0 0 614 113;" xml:space="preserve">
<style type="text/css">
	.st0{stroke:#FFFFFF;stroke-miterlimit:10;}
	.st1{fill-rule:evenodd;clip-rule:evenodd;stroke:#FFFFFF;stroke-miterlimit:10;}
</style>
<g>
	<path class="st0" d="M604.6,35.7c4.1,0.3,7.1,1.6,9,4.1c-0.4,6-2.4,8.9-6,8.7c-1.4-0.1-2.8-0.9-4.3-2.4c-1.5-1.5-3.1-2.3-4.7-2.4
		c-2.3-0.1-4.2,0.9-5.7,3c-1.5,2.1-2.3,4.4-2.4,6.8l1.8,16.5c0.2,2-5.4,4.9-4.9,7c0.1,0.5,0.6,0.5,2.4,1.1c1.8,0.6,3,1,3.7,1
		c0.2,0,0.3,0.5,0.3,1.6c0,1-0.1,1.7-0.2,2.1c-0.6-0.1-2.6-0.4-5.9-0.8c-3.4-0.4-5.9-0.7-7.6-0.8c-1.8-0.1-4.4-0.2-7.8-0.2
		c-3.4,0-4.4,0.9-5,0.9c-0.3-0.3-0.4-1-0.3-2c0.1-1.1,0.3-1.5,0.5-1.6c0.9-0.3,1.3-1,3.1-1.4c1.9-0.4,2.7-1,3.1-1.4
		c1.5-1.5,9.6-8.7,8.8-11.8l-2.4-13.7c0.2-3.3-1.3-5.2-2.4-6.5c-0.6-0.7-1.4-1.3-2.4-1.8c-1.1-0.4-2-0.7-2.7-0.8
		c-0.7-0.1-1.1-0.2-1-0.4c0.1-2.1,0.4-3.1,0.8-3.2c3.5-0.1,9.6-0.8,18.3-2.1c0.5-0.1,0.8-0.2,0.9-0.2c0.3,0,0.5,0.3,0.7,0.8
		c0.2,0.5,0.3,0.9,0.2,1.2c-0.1,0.3-0.1,0.8-0.3,1.5c-0.1,0.7-0.3,1.4-0.4,2.1c-0.2,0.7-0.2,1.2-0.3,1.4c1.5-1.8,3.4-3.4,5.8-4.8
		C599.8,36.2,602.2,35.6,604.6,35.7z"/>
	<g>
		<path class="st1" d="M498.2,3c5.4,1,7.4,3.2,6.5,7.7c-0.9,5-5,8.1-9.7,7.3c-4.6-0.7-7.9-5.4-7-10C488.8,4.2,493.1,2.1,498.2,3z"/>
		<path class="st0" d="M498.8,71.1c0.1,0.6,1,1.6,3,2.8c1.9,1.2,2.3,1.4,3.4,2.1c0.3,0.2,0.5,0.3,0.3,1.6c-0.2,1.3-0.2,2.3-0.6,2.5
			c-0.6,0.3-2.1-0.7-6.1-1.7c-4-1-7.3-1.1-9.3-1.2c-2-0.1-4.9,0.3-8.9-0.2c-4-0.4-6.3-0.7-7-0.7c-0.3-0.4-0.3-1.3-0.1-2.6
			c0.2-1.3,0.4-1.3,0.8-1.3c1,0.2,2.6,0.1,4.9-0.1c2.3-0.3,3.7-3.4,4-4l0,0c0.7-0.7,1.1-2.1,1.4-3.5c3.1-14.6,13.6-9.8,6.1-20.2
			c-2.1-2.9-3.9-6.6-6.9-8.7l-1.7-1.4c-0.6-0.4-0.9-0.7-0.8-0.8c1-1.8,1.7-2.7,2.1-2.6l2.2,0.7c3.9,1.3,8,1.5,12,1.4
			c1,0,2.6-0.2,3.1-0.3c0.4,0,0.6,0.3,0.8,0.9c0.1,0.5,0.8,3.1,0,3.6c-4.7,3.2,5.3,3.8,0.1,13.4c-3.2,5.8-2.2,6.2-2.7,13.5
			C498.6,67.5,498.4,69.7,498.8,71.1z"/>
	</g>
	<path class="st0" d="M427.8,36.3c-0.2-1.5-0.4-3-0.7-2.9c-0.1,0-0.7,0.3-2,0.8c-4.6,2-9.9,2.7-15.9,3.9c-0.4,0.1-0.5,1.2-0.3,3.3
		c0,0.1,0.4,0.2,1.1,0.2c0.7,0,1.6,0.1,2.7,0.3c1,0.2,1.9,0.6,2.6,1.3c1.3,1.1,1.9,2,2.3,5.5c0.6,5.3,4.4,27.9,4.9,31.4
		c1.4,10.1,2.3,10.2-0.5,15.5c-0.6,1.2-2.4,10.3-6,9.7c-1.7-0.3-0.7-0.2-2.7-0.5c-0.5-0.1-1.1,0.3-1.8,1.5c-0.6,1.1-1,1.7-0.8,2
		c0.6,0,10.4,2,11.1,2.2c1.6,0.3,14.8,3.3,15.3,3.3c1.2,0.2,1,0.1,1.2-2c0.1-1.1,0.2-1.6,0-1.8c-1-0.6-3.3-0.7-5.2-1.8
		c-2.9-2.1,0.2-8.1,1.4-10.1c2.4-3.4,2.9-4.7,2.5-6.1c-0.5-2.3-1.2-5.5-1.4-7.1c1.8,1.1,8.3,0.8,11.2-0.4c5-2.1,23.9-18.3,23.2-23.8
		c-1.2-10.5-4.8-18.8-14.2-24.1C449,32.5,441.1,27.8,427.8,36.3z M457.8,73.1c-10.4,11.7-13.3,9.1-23.5,2.6
		c-0.7-2.3-3.1-20.1-4.1-25.6c-1.6-9.3,6-13,12.3-10.6c1.7,0.7,3.3,1.7,5,2.6c3.1,1.7,6.3,6.2,8,10.4
		C459.2,61.8,460.2,70.9,457.8,73.1z"/>
	<path class="st0" d="M541.2,30c8.7,3.8,19.1,15.4,19.2,19c0,1.7-0.3,2.7-0.8,3.1c-0.6,0.4-0.7,0.7-2.4,0.7L530.2,53
		c-0.5,0-0.8,0.2-0.8,0.7c0,2.7,0.5,5.3,1.5,7.9c1,2.5,2.7,4.8,5.1,6.6c2.4,1.9,5.2,2.8,8.5,2.7c1.1,0,2.2-0.1,3.3-0.2
		c1-0.1,2-0.3,2.9-0.6c0.9-0.3,1.7-0.5,2.4-0.8c0.7-0.2,1.4-0.6,2.1-1c0.7-0.5,1.2-0.8,1.5-1c0.3-0.2,1-0.7,2.2-1.5
		c0.1,0.1,0.3,0.3,0.6,0.7c0.2,0.4,0.3,0.8,0.4,1.1c0,0.8-0.2,1.5-0.7,2.1c-1.1,2-3.3,4.1-6.6,6.2c-3.3,2.1-7,3.1-11.1,3.2
		c-6.5,0.1-12.2-2.3-17-7.1c-4.8-4.8-7.2-10.7-7.3-17.6c-0.1-7.6,2.1-13.8,6.4-18.6C528.1,31.1,535,27.3,541.2,30z M539.6,31.9
		c-3.3-0.1-7.3,5.9-8.1,7.4c-0.7,1.5-1.3,2.9-1.6,4.2c-0.3,1.3-0.5,2.4-0.5,3.3c0,0.5,0.2,0.8,0.7,0.8l18.2-0.2c0.7,0,1-0.6,1-1.7
		c0-2.6,0.4-6.6-1.7-9C545.5,34.2,542.2,31.9,539.6,31.9z"/>
	<path class="st0" d="M326.3,57.9c0.1,4.8-1.7,13.3-1.1,15.3c0.3,0.9,0.6,1.7,2.9,2.2c2.4,0.5,4.1,0.8,5.1,0.8c0.3,0,0.5,0.7,0.5,2
		c0,0.9,0,1.5-0.2,2c-8.4-0.3-13.6-1.3-16.1-1.5c-2-0.2-11.8,1.9-13.4,2l-2.3,0.3c-0.2-0.3-0.4-1-0.4-2.1c0-1.3,0.1-1.9,0.3-1.9
		c1,0,2.5-0.3,4.4-0.9c1.9-0.6,3.1-1.2,3.3-1.9c0.4-1.4,3.6-6.4,3.4-13.1l-4.3-42.5c-0.3-4.5-0.2-10.7-2.3-11.2
		c-2.1-0.5-4.2-0.8-5.1-0.8c-0.3,0-0.5-0.6-0.6-1.7c-0.1-1.2-0.1-2.2,0.3-2.2c5.1,0.8,12.5-0.6,13.3-0.8c2.6-0.7,13.2-1.4,15.5-1.6
		c2.3-0.2,4.6-0.1,6.9,0.1c2.3,0.3,4.6,0.9,6.9,1.8c2.3,0.9,4.4,2.1,6.3,3.6c1.8,1.5,3.4,3.4,4.7,5.9c1.3,2.4,1.7,3.4,2.1,6.4
		c0.9,7.2-7.1,14.2-17.3,21.1c-3.2,2.2-6.5,2.9-10.9,3.1c-1.3,0-1.6-0.3-2.3-1.2c-0.2-0.1-0.3-0.5-0.5-1.2c-0.2-0.6-0.2-1.2-0.2-1.8
		c0-0.6,0.1-0.8,0.3-0.9c1.8,0.7,4,0.8,6.5,0.7c12.3-0.4,11-11.6,10.7-15.3c-0.4-5.3-1.7-9.4-4-12.3c-2.3-2.9-5.6-4.2-9.9-3.9
		c-3.2,0.3-5.4,0.7-6.6,1.4c-0.9,0.5-1,4.7-0.4,12.4L326.3,57.9z"/>
	<g>
		<path class="st1" d="M67.3,16.2C61.6,7.6,33.2-7.5,22.8,4.6C12.8,14.8,4.5,32.8,1.2,45.5c-3.3,12.6,3.2,23.3,12.6,32
			c1.5,1.4,3.9,2.9,7.7,2.8c26.6-1.3,27.4-6,32.9-10.1c5.2-3.6,16.5-14.9,17-18.8C73,39,70.7,21.3,67.3,16.2z M56.5,32.1
			c0,3.2,4.1,21.1-0.5,26.1c-0.2,0.2-6.2,12.8-19.7,18.6c-10.5,2.8-10.9-0.5-13.8-5.6c-13.1-22.3-7.1-39.9,1.3-59.6
			C26.8,5,26.1,0,39.3,3.9C54.7,10.2,56.5,20.5,56.5,32.1z"/>
	</g>
	<g>
		<path class="st1" d="M150.4,18.4c-3-0.1-5.4-3.8-5.2-8.1c0.2-4.3,3.5-7,8.4-6.3c4.1,0.6,4.9,3.9,4.9,7.4
			C158.5,12.6,152.2,18.4,150.4,18.4z"/>
	</g>
	<path class="st0" d="M149.2,56.2c4.1-2.2,0.6-10.8-2.2-11.6c-1-0.3-1.4-0.5-2.4-0.7c-1.1-0.3-2.1-0.6-2.9-0.7
		c-0.8-0.1-1.1-0.2-1.1-0.4c0.1-2.2,0.3-3.4,0.8-3.4c2.2-0.1,5.7,0.2,9.6-0.1c4.1-0.3,6.8-1.3,8.8-1.9c0.1,0,0.4-0.1,0.9-0.2
		c0.4,0,0.7,0.3,0.9,0.8c0.2,0.5,0.3,1,0.2,1.3c-0.7,5.2,2.1,18.5-1.5,21.5c-7.7,6.2,3.4,24.7-3.5,32.7c-2.3,2.6-4.8,5.6-8.7,8.1
		c-3.9,2.6-6.9,4-9,4.5c-1-0.6-1.5-1.3-1.7-2.2c0-0.1,0-0.2,0-0.5c0-0.3,0-0.4,0.1-0.5c1-0.4,1.9-0.9,2.6-1.5
		c0.7-0.6,1.5-1.3,2.4-2.1c0.9-0.9,1.8-2.1,2.7-3.6c0.9-1.6,1.7-3.4,2.4-5.4c0.7-2.1,1.4-4.6,1.9-7.7
		C150,79.3,142.9,59.6,149.2,56.2z"/>
	<path class="st0" d="M110.4,29c4.8,0,9.1,1.1,12.9,3.5c3.8,2.4,6.7,5.4,8.7,9.1c2,3.7,2.5,6.5,2.6,10.5
		c0.1,7.5-18.6,28.9-27.9,28.6c-3.2-0.1-8.9-0.2-11.3-0.7c-2.4-0.6-4.2-0.8-5.4-0.8c-0.7,0-1.7,0.3-3,0.8c-1.3,0.5-2.1,0.8-2.3,0.8
		c-0.2,0-0.8-0.2-1.7-0.7c-0.9-0.5-1.3-0.8-1.3-1.1c0-0.2,0.1-0.9,0.2-2.1c0.1-1.2,1.6-4.5,2.6-6.5c5.6-10.9,4.8-11.8,4.4-18.5
		L87.2,18c0-2.9-0.3-5.5-0.8-7.8c-0.4-1.2-2.4-1.8-6-1.8l-1,0c-0.5,0-0.7-0.6-0.7-1.8c0-1.2,0.2-1.8,0.7-1.9c2.4-0.3,4.6-0.6,6.8-1
		c2.1-0.4,3.9-0.8,5.3-1.2c1.4-0.4,2.6-0.8,3.7-1.2c1-0.4,2.1-0.8,3.3-1.2l0.2,0c0.3,0,0.6,0.2,0.9,0.6c0.3,0.4,0.5,0.8,0.6,1.2
		C99.3,5,99,8.6,99,12.8l0.2,18.4l0,0.1c0,0.2,0,0.4,0,0.5c0,0.1,0,0.3,0.1,0.5c0,0.2,0.1,0.3,0.2,0.3c0.1,0,0.2,0,0.4-0.1
		c1.1-0.8,2.6-1.6,4.6-2.4C106.6,29.5,108.5,29.1,110.4,29z M107.9,35.3c-2.5,0-4.6,0.8-6.2,2.3c-1.6,1.5-2.4,3.2-2.4,5.2l0.6,15.2
		c-0.2,5.5-8.6,12.4,2.5,16.7c2.3,0.9,4.9,1.8,7.7,1.8c4,0,8-2.8,10-6.4c2-3.6,1.7-8.3,1.6-13.5c-0.1-6.6-1.3-11.8-3.7-15.6
		C115.7,37.1,112.3,35.3,107.9,35.3z"/>
	<path class="st0" d="M229.7,60.9c-0.1-1-1.6-23.9-1.6-23.9l-3.8,1.1c-0.5,0.1-1-0.9-1.3-2.8c-0.1-0.5-0.1-0.9-0.1-1
		c2.8-1.9,5.6-5.4,6.8-7.1c1-1.4,3.2-5.7,4.4-7.9c0.8-0.1,1.5-0.2,2.2-0.1c0.7,0.1,1.1,0.2,1.1,0.5l0.3,9.6c2-0.3,4.7-0.8,8.2-1.3
		c3.5-0.6,5.4-0.8,5.6-0.9c0.6-0.1,1,0.2,1.1,0.9c0.3,1.8,0.2,3.6-0.3,5.2l-14.3,2.3c0,0,0.3,17.5,0.4,19.7c0.1,3,8,10.4,9.8,11.5
		c1.8,1.1,3.7,1.3,5.9,0.5c0.7-0.2,1.5-0.6,2.2-1.1c0.7-0.5,1.3-0.9,1.8-1.3c0.4-0.4,0.8-0.8,1.2-1.1c0.4-0.4,0.6-0.6,0.7-0.6
		c0.3-0.2,0.7,0,1.3,0.6c0.6,0.6,0.9,1,0.9,1.3c-0.1,1.2-1.2,2.9-3.4,5.1c-2.2,2.2-4.6,3.8-7.1,4.7c-3.8,1.3-7.7,1.6-10.9-0.4
		c-2.8-1.7-4.3-3.5-7.4-7.6C233.4,66.8,229.8,62,229.7,60.9z"/>
	<path class="st0" d="M197.8,28.3c2.5,0.1,3.6,0.2,6.5,1.4c3,1.2,5.3,2.8,7.1,4.8c1.8,2,3.2,4.2,4.3,6.5c1,2.3,1.7,4.5,1.8,6.6
		c0.1,1.7,0,2.8-0.6,3.2c-0.5,0.5-1.7,0.8-3.4,0.9l-27.4,2.4c-0.5,0-0.8,0.3-0.7,0.8c0.2,2.8,1,5.4,2.2,7.9c1.2,2.5,3.1,4.6,5.7,6.3
		c2.6,1.7,5.5,2.4,8.9,2.1c1.1-0.1,2.3-0.3,3.3-0.5c1.1-0.2,2-0.5,2.9-0.8c0.9-0.3,1.7-0.7,2.3-1c0.7-0.3,1.3-0.7,2-1.2
		c0.7-0.5,1.2-0.9,1.5-1.1c0.3-0.2,1-0.8,2.2-1.7c0.2,0.1,0.4,0.3,0.6,0.6c0.3,0.4,0.4,0.7,0.4,1.1c0.1,0.8-0.1,1.6-0.5,2.2
		c-1,2.2-3,4.4-6.2,6.8c-3.2,2.4-6.9,3.7-11.1,4.1c-6.7,0.6-12.6-1.4-17.9-5.9c-5.3-4.5-6-13.6-6.5-17.9
		C174.7,49.1,190.4,28.1,197.8,28.3z M194.2,32.9c-1.8,0.2-4.5,1.9-7.9,7c-0.9,1.4-1.1,3.1-1.3,4.5c-0.2,1.4-0.3,2.5-0.2,3.4
		c0,0.5,0.3,0.8,0.8,0.7l18.6-1.6c0.7-0.1,1-0.7,0.9-1.8c-0.2-2.7-1.4-5.3-3.4-7.9C199.7,34.6,197.2,32.7,194.2,32.9z"/>
	<path class="st0" d="M407,76.8c-9.2,4.2-9.7-9.4-10.1-12.2c-0.8-8.4-0.6-9.4-1.7-18.2c-0.4-3-19.1-18.7-29.8-12.3
		c-4.6,3.8-6.8,7.5-6.4,11.1c1.4,1.7,3.4,2.4,6.3,2.1c1.4-0.2,2.7-0.7,3.8-1.5c1.1-0.9,1.5-2.4,1.3-3.9c-0.2-3.2,3.3-6.3,6.6-4.8
		c6.4,3,7.7,3.8,8.3,7.8c0.5,3.2,0.8,7.1,1.1,10.4c-6.5-0.9-10.7-0.2-15.1,0.3c-7.1,0.8-12.1,3.9-12.8,8.9c-1,11,9.9,13.6,13.2,13.8
		c4.1,0.6,13.1-1.7,16.9-4c0,0,0.5,2.4,1.3,3.8c1.7,3.1,4.1,4.7,7.5,5.2c4.2,0.6,9-1.7,10.2-5C407.7,78.1,407.3,77.3,407,76.8z
		 M381.5,71.9c-8.7,1.8-12.8-3.3-10-9.4c3.5-6.9,12-5.3,15.3-4.7c0.2,1.4,0.5,6.2,0.9,9.6C387.9,69.5,384.5,71.3,381.5,71.9z"/>
</g>
</svg>
