<?xml version="1.0" encoding="utf-8"?>
<!-- Generator: Adobe Illustrator 22.0.1, SVG Export Plug-In . SVG Version: 6.00 Build 0)  -->
<svg version="1.1" id="Layer_1" xmlns="http://www.w3.org/2000/svg" xmlns:xlink="http://www.w3.org/1999/xlink" x="0px" y="0px"
	 viewBox="0 0 1251.5 536.3" style="enable-background:new 0 0 1251.5 536.3;" xml:space="preserve">
<style type="text/css">
	.st0{enable-background:new    ;}
	.st1{stroke:#FFFFFF;stroke-width:2;stroke-linejoin:bevel;stroke-miterlimit:10;}
</style>
<g class="st0">
	<g>
		<polygon class="st1" points="1186.3,319.6 1081.3,258.6 1100.8,219.4 1205.8,280.4 		"/>
	</g>
	<g>
		<polygon class="st1" points="1160,351 1055,289.9 1081.3,258.6 1186.3,319.6 		"/>
	</g>
	<g>
		<polygon class="st1" points="1205.8,280.4 1100.8,219.4 1110.5,174.6 1215.5,235.6 		"/>
	</g>
	<g>
		<polygon class="st1" points="1131.1,373.6 1026,312.5 1055,289.9 1160,351 		"/>
	</g>
	<g>
		<polygon class="st1" points="1215.5,235.6 1110.5,174.6 1110.4,142.3 1215.4,203.3 		"/>
	</g>
	<g>
		<polygon class="st1" points="1102.1,378 997.1,317 1026,312.5 1131.1,373.6 		"/>
	</g>
	<g>
		<polygon class="st1" points="1215.4,203.3 1110.4,142.3 1103,105.4 1208.1,166.4 		"/>
	</g>
	<g>
		<polygon class="st1" points="1077.7,365.1 972.7,304.1 997.1,317 1102.1,378 		"/>
	</g>
	<g>
		<polygon class="st1" points="1208.1,166.4 1103,105.4 1085.1,82 1190.1,143 		"/>
	</g>
	<g>
		<polygon class="st1" points="1172.5,111.5 1067.5,50.5 1099.9,56.8 1204.9,117.8 		"/>
	</g>
	<g>
		<polygon class="st1" points="1135.9,125.8 1030.9,64.8 1067.5,50.5 1172.5,111.5 		"/>
	</g>
	<g>
		<polygon class="st1" points="1092.9,168.2 987.9,107.2 1030.9,64.8 1135.9,125.8 		"/>
	</g>
	<g>
		<polygon class="st1" points="1077.3,196.4 972.2,135.4 987.9,107.2 1092.9,168.2 		"/>
	</g>
	<g>
		<polygon class="st1" points="1057.7,525.1 952.7,464.1 951.8,150.6 1056.8,211.6 		"/>
	</g>
	<g>
		<polygon class="st1" points="1041.9,201.6 936.9,140.6 952.6,116.4 1057.6,177.4 		"/>
	</g>
	<g>
		<polygon class="st1" points="1056.8,211.6 951.8,150.6 936.9,140.6 1041.9,201.6 		"/>
	</g>
	<g>
		<path class="st1" d="M1227.2,146.1l8.6,42.5l0.1,38.6l-11.8,53.3l-24.2,49.2l-33.6,40.4l-37.4,28l-38.4,6.5l-12.8-7.3l0.3,115.9
			l-20.4,11.8l-0.9-313.5l-15-10l15.7-24.3l19.7,14.1l0,4.9l15.7-28.2l42.9-42.4l36.6-14.3l32.4,6.3L1227.2,146.1z M1215.5,235.6
			l-0.1-32.3l-7.4-36.9l-18-23.4l-25.6-4.3l-26.8,10.6l-33.2,32.4l-27.1,50.5l0.4,133l24.3,12.9l29-4.5L1160,351l26.3-31.4
			l19.5-39.2L1215.5,235.6"/>
	</g>
</g>
<g class="st0">
	<g>
		<polygon class="st1" points="915,347.6 810,286.6 798.9,269.5 903.9,330.5 		"/>
	</g>
	<g>
		<polygon class="st1" points="903.9,330.5 798.9,269.5 796.3,259.7 901.3,320.7 		"/>
	</g>
	<g>
		<polygon class="st1" points="866.4,346.3 761.4,285.2 792.4,235.5 897.4,296.5 		"/>
	</g>
	<g>
		<polygon class="st1" points="831.1,378.4 726.1,317.4 761.4,285.2 866.4,346.3 		"/>
	</g>
	<g>
		<polygon class="st1" points="806.4,389.7 701.4,328.7 726.1,317.4 831.1,378.4 		"/>
	</g>
	<g>
		<polygon class="st1" points="897.4,296.5 792.4,235.5 792.2,153.3 897.2,214.4 		"/>
	</g>
	<g>
		<polygon class="st1" points="784.7,393.4 679.7,332.4 701.4,328.7 806.4,389.7 		"/>
	</g>
	<g>
		<polygon class="st1" points="897.1,189.4 792.1,128.4 792,111.3 897,172.3 		"/>
	</g>
	<g>
		<polygon class="st1" points="769.3,386.6 664.3,325.6 679.7,332.4 784.7,393.4 		"/>
	</g>
	<g>
		<polygon class="st1" points="864.4,222 759.3,161 792.1,128.4 897.1,189.4 		"/>
	</g>
	<g>
		<polygon class="st1" points="897,172.3 792,111.3 783,91 888,152 		"/>
	</g>
	<g>
		<polygon class="st1" points="828.2,247.8 723.2,186.8 759.3,161 864.4,222 		"/>
	</g>
	<g>
		<polygon class="st1" points="751.9,408.9 646.9,347.9 638.3,323 743.3,384 		"/>
	</g>
	<g>
		<polygon class="st1" points="803.9,261.8 698.9,200.8 723.2,186.8 828.2,247.8 		"/>
	</g>
	<g>
		<polygon class="st1" points="743.3,384 638.3,323 638.2,292.2 743.2,353.2 		"/>
	</g>
	<g>
		<polygon class="st1" points="875.2,119.3 770.1,58.3 800,67 905,128 		"/>
	</g>
	<g>
		<polygon class="st1" points="778,284.6 673,223.6 698.9,200.8 803.9,261.8 		"/>
	</g>
	<g>
		<polygon class="st1" points="743.2,353.2 638.2,292.2 649.2,257.4 754.2,318.4 		"/>
	</g>
	<g>
		<polygon class="st1" points="754.2,318.4 649.2,257.4 673,223.6 778,284.6 		"/>
	</g>
	<g>
		<polygon class="st1" points="839.4,132.1 734.4,71.1 770.1,58.3 875.2,119.3 		"/>
	</g>
	<g>
		<polygon class="st1" points="811.7,151 706.7,90 734.4,71.1 839.4,132.1 		"/>
	</g>
	<g>
		<polygon class="st1" points="788.3,173.3 683.3,112.3 706.7,90 811.7,151 		"/>
	</g>
	<g>
		<path class="st1" d="M922.6,310.9l10.3,15.6L915,347.6l-11.1-17.1l-2.6-9.8l-25,41.4l-43,36.6l-33.2,16.7l-26,4.7l-22.2-11.2
			l-8.6-24.9l-0.1-30.8l11-34.8l23.8-33.8l25.9-22.8l24.3-14l36.2-25.8l32.7-32.6l0-17.1l-9-20.3l-21.3-5.8l-28.1,9.4L816,172
			l-18.7,17.7l-17,23.5l-10.2,25l-17.1-2.4l12.3-30.1l22.9-32.3l23.4-22.3l27.7-18.9l35.8-12.8L905,128l12.4,28.1l0.4,132.5
			L922.6,310.9z M897.4,296.5l-0.2-82.2l-28.1,28L828.7,271L807,283.6L787,301l-16.6,23.3l-7.2,22.3l0.1,22.5l6,17.6l15.4,6.8
			l21.7-3.7l24.7-11.3l35.3-32.1L897.4,296.5"/>
	</g>
	<g>
		<polygon class="st1" points="765.4,205.7 660.4,144.6 683.3,112.3 788.3,173.3 		"/>
	</g>
	<g>
		<polygon class="st1" points="753.1,235.8 648.1,174.8 660.4,144.6 765.4,205.7 		"/>
	</g>
</g>
<g class="st0">
	<g>
		<polygon class="st1" points="599.4,352.2 494.4,291.1 494,130.7 599,191.7 		"/>
	</g>
	<g>
		<polygon class="st1" points="599,191.7 494,130.7 490.1,101.6 595.1,162.7 		"/>
	</g>
	<g>
		<polygon class="st1" points="595.1,162.7 490.1,101.6 476.8,86.8 581.8,147.8 		"/>
	</g>
	<g>
		<polygon class="st1" points="565.5,120.4 460.5,59.4 490.4,60.8 595.4,121.8 		"/>
	</g>
	<g>
		<polygon class="st1" points="528.9,136.2 423.9,75.2 460.5,59.4 565.5,120.4 		"/>
	</g>
	<g>
		<polygon class="st1" points="482.1,183.3 377.1,122.2 423.9,75.2 528.9,136.2 		"/>
	</g>
	<g>
		<polygon class="st1" points="463.9,219.8 358.9,158.7 377.1,122.2 482.1,183.3 		"/>
	</g>
	<g>
		<polygon class="st1" points="444.1,442.4 339.1,381.3 338.5,165.2 443.5,226.2 		"/>
	</g>
	<g>
		<polygon class="st1" points="443.5,226.2 338.5,165.2 322.2,153.5 427.2,214.5 		"/>
	</g>
	<g>
		<polygon class="st1" points="427.2,214.5 322.2,153.5 337.9,128.7 442.9,189.7 		"/>
	</g>
	<g>
		<polygon class="st1" points="528.9,136.2 565.5,120.4 595.4,121.8 615,142.3 619.4,179 619.9,340.4 599.4,352.2 599,191.7 
			595.1,162.7 581.8,147.8 559.2,147.1 531.5,159.2 495,196 464,256.9 464.5,430.6 444.1,442.4 443.5,226.2 427.2,214.5 
			442.9,189.7 463.9,205.6 463.9,219.8 482.1,183.3 		"/>
	</g>
</g>
<g class="st0">
	<g>
		<polygon class="st1" points="279.3,370.4 174.2,309.3 192.5,268.5 297.5,329.5 		"/>
	</g>
	<g>
		<polygon class="st1" points="250.8,407.4 145.8,346.4 174.2,309.3 279.3,370.4 		"/>
	</g>
	<g>
		<polygon class="st1" points="297.5,329.5 192.5,268.5 197.5,239.1 302.5,300.1 		"/>
	</g>
	<g>
		<polygon class="st1" points="217.6,430.9 112.6,369.9 145.8,346.4 250.8,407.4 		"/>
	</g>
	<g>
		<polygon class="st1" points="302.5,300.1 197.5,239.1 191.5,221.5 296.5,282.5 		"/>
	</g>
	<g>
		<polygon class="st1" points="186.5,442 81.5,381 112.6,369.9 217.6,430.9 		"/>
	</g>
	<g>
		<polygon class="st1" points="296.5,282.5 191.5,221.5 174,210.1 279,271.1 		"/>
	</g>
	<g>
		<polygon class="st1" points="160.5,435 55.5,374 81.5,381 186.5,442 		"/>
	</g>
	<g>
		<polygon class="st1" points="258.4,246.2 153.4,185.2 186.7,183.1 291.7,244.1 		"/>
	</g>
	<g>
		<polygon class="st1" points="144.8,460.3 39.8,399.2 17.5,369.9 122.5,431 		"/>
	</g>
	<g>
		<polygon class="st1" points="122.5,431 17.5,369.9 34.9,347.2 139.9,408.2 		"/>
	</g>
	<g>
		<polygon class="st1" points="191.5,256.4 86.5,195.4 153.4,185.2 258.4,246.2 		"/>
	</g>
	<g>
		<polygon class="st1" points="301.1,117.7 196.1,56.7 175.6,39.1 280.6,100.1 		"/>
	</g>
	<g>
		<polygon class="st1" points="168.9,257.2 63.9,196.2 86.5,195.4 191.5,256.4 		"/>
	</g>
	<g>
		<polygon class="st1" points="263.9,69.6 158.9,8.6 190,13.1 295,74.2 		"/>
	</g>
	<g>
		<polygon class="st1" points="156.2,284.1 51.2,223.1 29,204.6 134,265.6 		"/>
	</g>
	<g>
		<polygon class="st1" points="226,82.7 121,21.7 158.9,8.6 263.9,69.6 		"/>
	</g>
	<g>
		<polygon class="st1" points="134,265.6 29,204.6 21.2,172.8 126.2,233.9 		"/>
	</g>
	<g>
		<polygon class="st1" points="186.4,110.9 81.4,49.9 121,21.7 226,82.7 		"/>
	</g>
	<g>
		<polygon class="st1" points="126.2,233.9 21.2,172.8 30.5,126.8 135.5,187.8 		"/>
	</g>
	<g>
		<polygon class="st1" points="135.5,187.8 30.5,126.8 52.5,87.1 157.5,148.2 		"/>
	</g>
	<g>
		<polygon class="st1" points="157.5,148.2 52.5,87.1 81.4,49.9 186.4,110.9 		"/>
	</g>
	<g>
		<polygon class="st1" points="226,82.7 263.9,69.6 295,74.2 317.3,93.2 301.1,117.7 280.6,100.1 256.3,96.5 225.2,107.1 
			193.7,129.7 170.8,159.1 154.2,188.8 147.5,222.1 152.7,243.6 168.9,257.2 191.5,256.4 258.4,246.2 291.7,244.1 314.3,259.5 
			323.8,286.4 316.7,328.2 294.2,378.9 257.7,426.4 216.8,455.4 178.5,469.7 144.8,460.3 122.5,431 139.9,408.2 160.5,435 
			186.5,442 217.6,430.9 250.8,407.4 279.3,370.4 297.5,329.5 302.5,300.1 296.5,282.5 279,271.1 250.4,272.9 183.5,283.1 
			156.2,284.1 134,265.6 126.2,233.9 135.5,187.8 157.5,148.2 186.4,110.9 		"/>
	</g>
</g>
</svg>
