<?xml version="1.0" encoding="utf-8"?>
<!-- Generator: Adobe Illustrator 22.0.1, SVG Export Plug-In . SVG Version: 6.00 Build 0)  -->
<svg version="1.1" xmlns="http://www.w3.org/2000/svg" xmlns:xlink="http://www.w3.org/1999/xlink" x="0px" y="0px"
	 viewBox="0 0 1920 1080" style="enable-background:new 0 0 1920 1080;" xml:space="preserve">
<style type="text/css">
	.st0{fill:#FFFFFF;}
	.st1{fill:none;stroke:#FFFFFF;stroke-miterlimit:10;}
</style>
<g id="Layer_1">
	<g>
		<path class="st0" d="M202.1,400.9l-51.7,10.3l-51.7-10.3l-33.1-23.8l-22.2-35.7l-6.7-42.9V38.5h24.8v259l5.7,35.7l17.1,26.4
			l24.8,18.1l41.4,8.3l41.9-8.3l24.8-18.1l17.1-26.4l5.2-35.7v-259h25.3v261.1l-6.7,41.9l-22.2,35.7L202.1,400.9z"/>
		<path class="st0" d="M536.1,252v46l-14.5,49.1l-29.5,37.2l-40.8,22.2l-45.5,6.7l-46.5-16.5l-16-24.8h-3.1l3.6,24.8v107H319V172.4
			l-18.1-19.6l19.1-16l21.2,23.8l-4.7,25.9h2.6l23.8-37.7l52.2-18.6l44.5,7.2l39.3,26.4l26.9,43.4L536.1,252z M511.3,255.1
			l-8.8-38.3l-21.7-35.7l-31-20.2l-32.6-5.2l-40.3,14l-33.1,41.4v136l29.5,28.4l35.2,12.9l35.2-6.2l32.1-17.1l23.8-29.5l11.9-41.4
			V255.1z"/>
		<path class="st0" d="M1054.6,387.5l-25.9,18.1l-39.3,8.3l-36.7-7.8l-37.2-27.9l-17.1-54.8V149.1h-53.8v-24.8h53.8V59.2h24.8v65.1
			h81.7v24.8h-81.7v170.6l14,42.9l25.9,19.6l26.4,5.7l29-5.7l19.6-13.4l17.1-21.2l19.6,15L1054.6,387.5z"/>
		<path class="st0" d="M1228.4,413.8l-45-9.8l-35.7-27.9l-22.2-39.8l-9.8-47.6v-33.1l12.4-55.3l23.3-36.2l33.6-26.9l43.4-8.8
			l42.9,8.8l33.6,26.9l23.3,36.2l12.4,55.3v33.1l-9.8,47.6l-22.2,39.8l-35.7,27.9L1228.4,413.8z M1194.2,380.7l34.1,7.2l34.1-7.2
			l26.9-20.7l17.6-32.6l8.8-39.8v-31l-10.9-46.5l-18.6-29l-25.9-20.7l-32.1-6.2l-32.6,6.2l-25.8,20.7l-18.6,29l-10.9,46.5v31
			l8.8,39.8l17.6,32.6L1194.2,380.7z"/>
		<path class="st0" d="M1613.5,252v46l-14.5,49.1l-29.5,37.2l-40.8,22.2l-45.5,6.7l-46.5-16.5l-16-24.8h-3.1l3.6,24.8v107h-24.8
			V172.4l-18.1-19.6l19.1-16l21.2,23.8l-4.7,25.9h2.6l23.8-37.7l52.2-18.6l44.5,7.2l39.3,26.4l26.9,43.4L1613.5,252z M1588.7,255.1
			l-8.8-38.3l-21.7-35.7l-31-20.2l-32.6-5.2l-40.3,14l-33.1,41.4v136l29.5,28.4l35.2,12.9l35.2-6.2l32.1-17.1l23.8-29.5l11.9-41.4
			V255.1z"/>
		<path class="st0" d="M264.2,656.2L247.6,667v253.3l-11.4,39.8l-26.9,38.8l-36.2,19.1l-38.3,1.6l-37.2-9.3l-27.4-21.2l-16-27.4
			L77,949.8l14,23.8l18.1,13.4l28.4,7.8l30-1.6l24.8-13.4l22.2-30.5l8.8-32.1v-29l1-12.9h-2.1l-16.5,25.8l-48.6,15.5l-42.4-6.2
			l-36.2-23.8l-29.5-40.8l-12.4-45V759l9.8-42.4l24.3-41.9l32.6-27.9l31.5-10.9h30.5l40.3,16l10.9,10.9l8.3,19.6h2.6l-2.6-30.5
			l26.4-16.5L264.2,656.2z M222.8,842.3V718.2l-14.5-28.4l-17.1-16.5l-30.5-12.4H139l-23.3,8.8l-25.9,21.2l-19.6,35.2l-8.8,35.7
			v36.2l10.9,37.7l23.8,33.1l27.4,17.6l30,4.7l39.8-12.4L222.8,842.3z"/>
		<path class="st0" d="M420.3,919.8l-45-9.8l-35.7-27.9l-22.2-39.8l-9.8-47.6v-33.1l12.4-55.3l23.3-36.2l33.6-26.9l43.4-8.8
			l42.9,8.8l33.6,26.9l23.3,36.2l12.4,55.3v33.1l-9.8,47.6l-22.2,39.8L464.8,910L420.3,919.8z M386.2,886.7l34.1,7.2l34.1-7.2
			l26.9-20.7l17.6-32.6l8.8-39.8v-31l-10.9-46.5l-18.6-29l-25.9-20.7l-32.1-6.2l-32.6,6.2l-25.9,20.7l-18.6,29l-10.9,46.5v31
			l8.8,39.8l17.6,32.6L386.2,886.7z"/>
		<path class="st0" d="M1075.8,898.6l-21.2,13.4l-12.9-20.7l-3.6-24.3h-2.1l-9.3,16l-8.8,12.4l-32.6,16.5l-39.8,5.7l-40.3-8.8
			l-33.1-27.4l-20.7-37.2l-8.8-41.9v-46.5l9.8-44.5l19.6-36.2l29.5-27.4l32.1-14.5l38.8,0.5l40.3,16l17.6,28.4h2.6l-3.6-21.2V545
			h24.8v303l6.7,27.4L1075.8,898.6z M1020.5,855.2l8.8-21.7V705.8l-27.4-33.6l-36.2-13.4h-26.9l-23.3,10.3l-23.3,21.2l-16,30.5
			L867,759v40.8l8.3,35.7l16.5,30.5l24.8,19.6l30,6.7l31-4.7l24.3-12.4L1020.5,855.2z"/>
		<path class="st0" d="M1228.4,919.8l-45-9.8l-35.7-27.9l-22.2-39.8l-9.8-47.6v-33.1l12.4-55.3l23.3-36.2l33.6-26.9l43.4-8.8
			l42.9,8.8l33.6,26.9l23.3,36.2l12.4,55.3v33.1l-9.8,47.6l-22.2,39.8l-35.7,27.9L1228.4,919.8z M1194.2,886.7l34.1,7.2l34.1-7.2
			l26.9-20.7l17.6-32.6l8.8-39.8v-31l-10.9-46.5l-18.6-29l-25.9-20.7l-32.1-6.2l-32.6,6.2l-25.8,20.7l-18.6,29l-10.9,46.5v31
			l8.8,39.8l17.6,32.6L1194.2,886.7z"/>
		<path class="st0" d="M1593.9,645.3l24.3,3.6l-31.5,257.5h-51.2l-36.7-204.7h-2.6L1460,906.4h-51.7l-31.5-257.5l24.3-3.6l29,236.3
			h9.3l33.6-189.2l12.9-15h22.7l13.4,15l34.1,189.2h8.8L1593.9,645.3z"/>
		<path class="st0" d="M1878.2,906.4h-24.8V736.8l-4.7-33.1l-16-23.8l-27.4-14.5l-33.6-4.1l-44.5,16.5l-37.7,45.5v183.5h-24.8V681.5
			l-19.6-22.2l19.1-16.5l23.8,27.4l-4.1,24.3h2.6l24.8-36.2l57.4-22.7l44.5,5.7l36.2,19.6l23.8,33.6l5.2,41.4V906.4z"/>
	</g>
</g>
<g id="Layer_2">
	<line class="st1" x1="1906" y1="400" x2="16" y2="400"/>
	<line class="st1" x1="1906" y1="412.5" x2="16" y2="412.5"/>
	<line class="st1" x1="1906" y1="918.5" x2="16" y2="918.5"/>
	<line class="st1" x1="1906" y1="1008.5" x2="16" y2="1008.5"/>
	<line class="st1" x1="1906" y1="1019.5" x2="16" y2="1019.5"/>
	<line class="st1" x1="1906" y1="503.5" x2="16" y2="503.5"/>
	<line class="st1" x1="1906" y1="514.5" x2="16" y2="514.5"/>
	<line class="st1" x1="1906" y1="38.5" x2="16" y2="38.5"/>
	<line class="st1" x1="1906" y1="58.5" x2="16" y2="58.5"/>
	<line class="st1" x1="1906" y1="543.5" x2="16" y2="543.5"/>
	<line class="st1" x1="1906" y1="563.5" x2="16" y2="563.5"/>
	<line class="st1" x1="1906" y1="129" x2="16" y2="129"/>
	<line class="st1" x1="1906" y1="141.5" x2="16" y2="141.5"/>
	<line class="st1" x1="1906" y1="906" x2="16" y2="906"/>
	<line class="st1" x1="1906" y1="918.5" x2="16" y2="918.5"/>
	<line class="st1" x1="1906" y1="635" x2="16" y2="635"/>
	<line class="st1" x1="1906" y1="647.5" x2="16" y2="647.5"/>
	<g>
		<line class="st1" x1="16.5" y1="503" x2="16.5" y2="478"/>
		<line class="st1" x1="35.7" y1="503" x2="35.7" y2="496"/>
		<line class="st1" x1="55" y1="503" x2="55" y2="496"/>
		<line class="st1" x1="74.2" y1="503" x2="74.2" y2="496"/>
		<line class="st1" x1="93.5" y1="503" x2="93.5" y2="496"/>
		<line class="st1" x1="112.7" y1="503" x2="112.7" y2="496"/>
		<line class="st1" x1="132" y1="503" x2="132" y2="496"/>
		<line class="st1" x1="151.2" y1="503" x2="151.2" y2="487.5"/>
		<line class="st1" x1="170.5" y1="503" x2="170.5" y2="496"/>
		<line class="st1" x1="189.7" y1="503" x2="189.7" y2="496"/>
		<line class="st1" x1="209" y1="503" x2="209" y2="496"/>
		<line class="st1" x1="228.2" y1="503" x2="228.2" y2="496"/>
		<line class="st1" x1="247.5" y1="503" x2="247.5" y2="496"/>
		<line class="st1" x1="266.7" y1="503" x2="266.7" y2="496"/>
		<line class="st1" x1="286" y1="503" x2="286" y2="478"/>
	</g>
	<g>
		<line class="st1" x1="305.7" y1="503" x2="305.7" y2="496"/>
		<line class="st1" x1="325" y1="503" x2="325" y2="496"/>
		<line class="st1" x1="344.2" y1="503" x2="344.2" y2="496"/>
		<line class="st1" x1="363.5" y1="503" x2="363.5" y2="496"/>
		<line class="st1" x1="382.7" y1="503" x2="382.7" y2="496"/>
		<line class="st1" x1="402" y1="503" x2="402" y2="496"/>
		<line class="st1" x1="421.2" y1="503" x2="421.2" y2="487.5"/>
		<line class="st1" x1="440.5" y1="503" x2="440.5" y2="496"/>
		<line class="st1" x1="459.7" y1="503" x2="459.7" y2="496"/>
		<line class="st1" x1="479" y1="503" x2="479" y2="496"/>
		<line class="st1" x1="498.2" y1="503" x2="498.2" y2="496"/>
		<line class="st1" x1="517.5" y1="503" x2="517.5" y2="496"/>
		<line class="st1" x1="536.7" y1="503" x2="536.7" y2="496"/>
		<line class="st1" x1="556" y1="503" x2="556" y2="478"/>
	</g>
	<g>
		<line class="st1" x1="575.7" y1="503" x2="575.7" y2="496"/>
		<line class="st1" x1="595" y1="503" x2="595" y2="496"/>
		<line class="st1" x1="614.2" y1="503" x2="614.2" y2="496"/>
		<line class="st1" x1="633.5" y1="503" x2="633.5" y2="496"/>
		<line class="st1" x1="652.7" y1="503" x2="652.7" y2="496"/>
		<line class="st1" x1="672" y1="503" x2="672" y2="496"/>
		<line class="st1" x1="691.2" y1="503" x2="691.2" y2="487.5"/>
		<line class="st1" x1="710.5" y1="503" x2="710.5" y2="496"/>
		<line class="st1" x1="729.7" y1="503" x2="729.7" y2="496"/>
		<line class="st1" x1="749" y1="503" x2="749" y2="496"/>
		<line class="st1" x1="768.2" y1="503" x2="768.2" y2="496"/>
		<line class="st1" x1="787.5" y1="503" x2="787.5" y2="496"/>
		<line class="st1" x1="806.7" y1="503" x2="806.7" y2="496"/>
		<line class="st1" x1="826" y1="503" x2="826" y2="478"/>
	</g>
	<g>
		<line class="st1" x1="845.7" y1="503" x2="845.7" y2="496"/>
		<line class="st1" x1="865" y1="503" x2="865" y2="496"/>
		<line class="st1" x1="884.2" y1="503" x2="884.2" y2="496"/>
		<line class="st1" x1="903.5" y1="503" x2="903.5" y2="496"/>
		<line class="st1" x1="922.7" y1="503" x2="922.7" y2="496"/>
		<line class="st1" x1="942" y1="503" x2="942" y2="496"/>
		<line class="st1" x1="961.2" y1="503" x2="961.2" y2="487.5"/>
		<line class="st1" x1="980.5" y1="503" x2="980.5" y2="496"/>
		<line class="st1" x1="999.7" y1="503" x2="999.7" y2="496"/>
		<line class="st1" x1="1019" y1="503" x2="1019" y2="496"/>
		<line class="st1" x1="1038.2" y1="503" x2="1038.2" y2="496"/>
		<line class="st1" x1="1057.5" y1="503" x2="1057.5" y2="496"/>
		<line class="st1" x1="1076.7" y1="503" x2="1076.7" y2="496"/>
		<line class="st1" x1="1096" y1="503" x2="1096" y2="478"/>
	</g>
	<g>
		<line class="st1" x1="1115.7" y1="503" x2="1115.7" y2="496"/>
		<line class="st1" x1="1135" y1="503" x2="1135" y2="496"/>
		<line class="st1" x1="1154.2" y1="503" x2="1154.2" y2="496"/>
		<line class="st1" x1="1173.5" y1="503" x2="1173.5" y2="496"/>
		<line class="st1" x1="1192.7" y1="503" x2="1192.7" y2="496"/>
		<line class="st1" x1="1212" y1="503" x2="1212" y2="496"/>
		<line class="st1" x1="1231.2" y1="503" x2="1231.2" y2="487.5"/>
		<line class="st1" x1="1250.5" y1="503" x2="1250.5" y2="496"/>
		<line class="st1" x1="1269.7" y1="503" x2="1269.7" y2="496"/>
		<line class="st1" x1="1289" y1="503" x2="1289" y2="496"/>
		<line class="st1" x1="1308.2" y1="503" x2="1308.2" y2="496"/>
		<line class="st1" x1="1327.5" y1="503" x2="1327.5" y2="496"/>
		<line class="st1" x1="1346.7" y1="503" x2="1346.7" y2="496"/>
		<line class="st1" x1="1366" y1="503" x2="1366" y2="478"/>
	</g>
	<g>
		<line class="st1" x1="1385.7" y1="503" x2="1385.7" y2="496"/>
		<line class="st1" x1="1405" y1="503" x2="1405" y2="496"/>
		<line class="st1" x1="1424.2" y1="503" x2="1424.2" y2="496"/>
		<line class="st1" x1="1443.5" y1="503" x2="1443.5" y2="496"/>
		<line class="st1" x1="1462.7" y1="503" x2="1462.7" y2="496"/>
		<line class="st1" x1="1482" y1="503" x2="1482" y2="496"/>
		<line class="st1" x1="1501.2" y1="503" x2="1501.2" y2="487.5"/>
		<line class="st1" x1="1520.5" y1="503" x2="1520.5" y2="496"/>
		<line class="st1" x1="1539.7" y1="503" x2="1539.7" y2="496"/>
		<line class="st1" x1="1559" y1="503" x2="1559" y2="496"/>
		<line class="st1" x1="1578.2" y1="503" x2="1578.2" y2="496"/>
		<line class="st1" x1="1597.5" y1="503" x2="1597.5" y2="496"/>
		<line class="st1" x1="1616.7" y1="503" x2="1616.7" y2="496"/>
		<line class="st1" x1="1636" y1="503" x2="1636" y2="478"/>
	</g>
	<g>
		<line class="st1" x1="1655.7" y1="503" x2="1655.7" y2="496"/>
		<line class="st1" x1="1675" y1="503" x2="1675" y2="496"/>
		<line class="st1" x1="1694.2" y1="503" x2="1694.2" y2="496"/>
		<line class="st1" x1="1713.5" y1="503" x2="1713.5" y2="496"/>
		<line class="st1" x1="1732.7" y1="503" x2="1732.7" y2="496"/>
		<line class="st1" x1="1752" y1="503" x2="1752" y2="496"/>
		<line class="st1" x1="1771.2" y1="503" x2="1771.2" y2="487.5"/>
		<line class="st1" x1="1790.5" y1="503" x2="1790.5" y2="496"/>
		<line class="st1" x1="1809.7" y1="503" x2="1809.7" y2="496"/>
		<line class="st1" x1="1829" y1="503" x2="1829" y2="496"/>
		<line class="st1" x1="1848.2" y1="503" x2="1848.2" y2="496"/>
		<line class="st1" x1="1867.5" y1="503" x2="1867.5" y2="496"/>
		<line class="st1" x1="1886.7" y1="503" x2="1886.7" y2="496"/>
		<line class="st1" x1="1906" y1="503" x2="1906" y2="478"/>
	</g>
	<g>
		<line class="st1" x1="16.5" y1="1009" x2="16.5" y2="984"/>
		<line class="st1" x1="35.7" y1="1009" x2="35.7" y2="1002"/>
		<line class="st1" x1="55" y1="1009" x2="55" y2="1002"/>
		<line class="st1" x1="74.2" y1="1009" x2="74.2" y2="1002"/>
		<line class="st1" x1="93.5" y1="1009" x2="93.5" y2="1002"/>
		<line class="st1" x1="112.7" y1="1009" x2="112.7" y2="1002"/>
		<line class="st1" x1="132" y1="1009" x2="132" y2="1002"/>
		<line class="st1" x1="151.2" y1="1009" x2="151.2" y2="993.5"/>
		<line class="st1" x1="170.5" y1="1009" x2="170.5" y2="1002"/>
		<line class="st1" x1="189.7" y1="1009" x2="189.7" y2="1002"/>
		<line class="st1" x1="209" y1="1009" x2="209" y2="1002"/>
		<line class="st1" x1="228.2" y1="1009" x2="228.2" y2="1002"/>
		<line class="st1" x1="247.5" y1="1009" x2="247.5" y2="1002"/>
		<line class="st1" x1="266.7" y1="1009" x2="266.7" y2="1002"/>
		<line class="st1" x1="286" y1="1009" x2="286" y2="984"/>
	</g>
	<g>
		<line class="st1" x1="305.7" y1="1009" x2="305.7" y2="1002"/>
		<line class="st1" x1="325" y1="1009" x2="325" y2="1002"/>
		<line class="st1" x1="344.2" y1="1009" x2="344.2" y2="1002"/>
		<line class="st1" x1="363.5" y1="1009" x2="363.5" y2="1002"/>
		<line class="st1" x1="382.7" y1="1009" x2="382.7" y2="1002"/>
		<line class="st1" x1="402" y1="1009" x2="402" y2="1002"/>
		<line class="st1" x1="421.2" y1="1009" x2="421.2" y2="993.5"/>
		<line class="st1" x1="440.5" y1="1009" x2="440.5" y2="1002"/>
		<line class="st1" x1="459.7" y1="1009" x2="459.7" y2="1002"/>
		<line class="st1" x1="479" y1="1009" x2="479" y2="1002"/>
		<line class="st1" x1="498.2" y1="1009" x2="498.2" y2="1002"/>
		<line class="st1" x1="517.5" y1="1009" x2="517.5" y2="1002"/>
		<line class="st1" x1="536.7" y1="1009" x2="536.7" y2="1002"/>
		<line class="st1" x1="556" y1="1009" x2="556" y2="984"/>
	</g>
	<g>
		<line class="st1" x1="575.7" y1="1009" x2="575.7" y2="1002"/>
		<line class="st1" x1="595" y1="1009" x2="595" y2="1002"/>
		<line class="st1" x1="614.2" y1="1009" x2="614.2" y2="1002"/>
		<line class="st1" x1="633.5" y1="1009" x2="633.5" y2="1002"/>
		<line class="st1" x1="652.7" y1="1009" x2="652.7" y2="1002"/>
		<line class="st1" x1="672" y1="1009" x2="672" y2="1002"/>
		<line class="st1" x1="691.2" y1="1009" x2="691.2" y2="993.5"/>
		<line class="st1" x1="710.5" y1="1009" x2="710.5" y2="1002"/>
		<line class="st1" x1="729.7" y1="1009" x2="729.7" y2="1002"/>
		<line class="st1" x1="749" y1="1009" x2="749" y2="1002"/>
		<line class="st1" x1="768.2" y1="1009" x2="768.2" y2="1002"/>
		<line class="st1" x1="787.5" y1="1009" x2="787.5" y2="1002"/>
		<line class="st1" x1="806.7" y1="1009" x2="806.7" y2="1002"/>
		<line class="st1" x1="826" y1="1009" x2="826" y2="984"/>
	</g>
	<g>
		<line class="st1" x1="845.7" y1="1009" x2="845.7" y2="1002"/>
		<line class="st1" x1="865" y1="1009" x2="865" y2="1002"/>
		<line class="st1" x1="884.2" y1="1009" x2="884.2" y2="1002"/>
		<line class="st1" x1="903.5" y1="1009" x2="903.5" y2="1002"/>
		<line class="st1" x1="922.7" y1="1009" x2="922.7" y2="1002"/>
		<line class="st1" x1="942" y1="1009" x2="942" y2="1002"/>
		<line class="st1" x1="961.2" y1="1009" x2="961.2" y2="993.5"/>
		<line class="st1" x1="980.5" y1="1009" x2="980.5" y2="1002"/>
		<line class="st1" x1="999.7" y1="1009" x2="999.7" y2="1002"/>
		<line class="st1" x1="1019" y1="1009" x2="1019" y2="1002"/>
		<line class="st1" x1="1038.2" y1="1009" x2="1038.2" y2="1002"/>
		<line class="st1" x1="1057.5" y1="1009" x2="1057.5" y2="1002"/>
		<line class="st1" x1="1076.7" y1="1009" x2="1076.7" y2="1002"/>
		<line class="st1" x1="1096" y1="1009" x2="1096" y2="984"/>
	</g>
	<g>
		<line class="st1" x1="1115.7" y1="1009" x2="1115.7" y2="1002"/>
		<line class="st1" x1="1135" y1="1009" x2="1135" y2="1002"/>
		<line class="st1" x1="1154.2" y1="1009" x2="1154.2" y2="1002"/>
		<line class="st1" x1="1173.5" y1="1009" x2="1173.5" y2="1002"/>
		<line class="st1" x1="1192.7" y1="1009" x2="1192.7" y2="1002"/>
		<line class="st1" x1="1212" y1="1009" x2="1212" y2="1002"/>
		<line class="st1" x1="1231.2" y1="1009" x2="1231.2" y2="993.5"/>
		<line class="st1" x1="1250.5" y1="1009" x2="1250.5" y2="1002"/>
		<line class="st1" x1="1269.7" y1="1009" x2="1269.7" y2="1002"/>
		<line class="st1" x1="1289" y1="1009" x2="1289" y2="1002"/>
		<line class="st1" x1="1308.2" y1="1009" x2="1308.2" y2="1002"/>
		<line class="st1" x1="1327.5" y1="1009" x2="1327.5" y2="1002"/>
		<line class="st1" x1="1346.7" y1="1009" x2="1346.7" y2="1002"/>
		<line class="st1" x1="1366" y1="1009" x2="1366" y2="984"/>
	</g>
	<g>
		<line class="st1" x1="1385.7" y1="1009" x2="1385.7" y2="1002"/>
		<line class="st1" x1="1405" y1="1009" x2="1405" y2="1002"/>
		<line class="st1" x1="1424.2" y1="1009" x2="1424.2" y2="1002"/>
		<line class="st1" x1="1443.5" y1="1009" x2="1443.5" y2="1002"/>
		<line class="st1" x1="1462.7" y1="1009" x2="1462.7" y2="1002"/>
		<line class="st1" x1="1482" y1="1009" x2="1482" y2="1002"/>
		<line class="st1" x1="1501.2" y1="1009" x2="1501.2" y2="993.5"/>
		<line class="st1" x1="1520.5" y1="1009" x2="1520.5" y2="1002"/>
		<line class="st1" x1="1539.7" y1="1009" x2="1539.7" y2="1002"/>
		<line class="st1" x1="1559" y1="1009" x2="1559" y2="1002"/>
		<line class="st1" x1="1578.2" y1="1009" x2="1578.2" y2="1002"/>
		<line class="st1" x1="1597.5" y1="1009" x2="1597.5" y2="1002"/>
		<line class="st1" x1="1616.7" y1="1009" x2="1616.7" y2="1002"/>
		<line class="st1" x1="1636" y1="1009" x2="1636" y2="984"/>
	</g>
	<g>
		<line class="st1" x1="1655.7" y1="1009" x2="1655.7" y2="1002"/>
		<line class="st1" x1="1675" y1="1009" x2="1675" y2="1002"/>
		<line class="st1" x1="1694.2" y1="1009" x2="1694.2" y2="1002"/>
		<line class="st1" x1="1713.5" y1="1009" x2="1713.5" y2="1002"/>
		<line class="st1" x1="1732.7" y1="1009" x2="1732.7" y2="1002"/>
		<line class="st1" x1="1752" y1="1009" x2="1752" y2="1002"/>
		<line class="st1" x1="1771.2" y1="1009" x2="1771.2" y2="993.5"/>
		<line class="st1" x1="1790.5" y1="1009" x2="1790.5" y2="1002"/>
		<line class="st1" x1="1809.7" y1="1009" x2="1809.7" y2="1002"/>
		<line class="st1" x1="1829" y1="1009" x2="1829" y2="1002"/>
		<line class="st1" x1="1848.2" y1="1009" x2="1848.2" y2="1002"/>
		<line class="st1" x1="1867.5" y1="1009" x2="1867.5" y2="1002"/>
		<line class="st1" x1="1886.7" y1="1009" x2="1886.7" y2="1002"/>
		<line class="st1" x1="1906" y1="1009" x2="1906" y2="984"/>
	</g>
	<line class="st1" x1="16.5" y1="461" x2="16.5" y2="38.5"/>
	<line class="st1" x1="286.4" y1="459.6" x2="286.4" y2="39"/>
	<line class="st1" x1="556.3" y1="460.1" x2="556.3" y2="39.5"/>
	<line class="st1" x1="826.3" y1="460.6" x2="826.3" y2="40"/>
	<line class="st1" x1="1096.2" y1="461" x2="1096.2" y2="40.4"/>
	<line class="st1" x1="1366.1" y1="461.5" x2="1366.1" y2="40.9"/>
	<line class="st1" x1="1636" y1="462" x2="1636" y2="41.4"/>
	<line class="st1" x1="286.4" y1="966.6" x2="286.4" y2="545"/>
	<line class="st1" x1="556.3" y1="967.1" x2="556.3" y2="545.5"/>
	<line class="st1" x1="826.3" y1="967.6" x2="826.3" y2="546"/>
	<line class="st1" x1="1096.2" y1="968" x2="1096.2" y2="546.4"/>
	<line class="st1" x1="1366.1" y1="968.5" x2="1366.1" y2="546.9"/>
	<line class="st1" x1="1636" y1="969" x2="1636" y2="547.4"/>
	<line class="st1" x1="15.5" y1="968" x2="16.5" y2="544"/>
	<line class="st1" x1="1906.5" y1="461" x2="1906.5" y2="38.5"/>
	<line class="st1" x1="1905.5" y1="968" x2="1906.5" y2="544"/>
</g>
</svg>
