<?xml version="1.0" encoding="utf-8"?>
<!-- Generator: Adobe Illustrator 22.0.1, SVG Export Plug-In . SVG Version: 6.00 Build 0)  -->
<svg version="1.1" id="Layer_1" xmlns="http://www.w3.org/2000/svg" xmlns:xlink="http://www.w3.org/1999/xlink" x="0px" y="0px"
	 viewBox="0 0 500 500" style="enable-background:new 0 0 500 500;" xml:space="preserve">
<path d="M433,347l-39.1-22.6c11.6-22.3,18.1-47.6,18.1-74.4c0-27.2-6.7-52.8-18.6-75.3l39.1-22.6l-7-12.1l-39.2,22.6
	c-27.7-43.1-75.4-72.3-129.9-74.5V43h-14v45.2c-54.4,2.5-101.9,31.9-129.4,75.3L74,140.9L67,153l39.1,22.6
	C94.6,197.9,88,223.2,88,250c0,27.2,6.7,52.8,18.6,75.3l-39.1,22.6l7,12.1l39.2-22.6c27.7,43.1,75.4,72.3,129.9,74.5V457h14v-45.2
	c54.4-2.5,101.9-31.9,129.4-75.3l39.1,22.6L433,347z M250,398c-81.6,0-148-66.4-148-148s66.4-148,148-148s148,66.4,148,148
	S331.6,398,250,398z"/>
</svg>
