<?xml version="1.0" encoding="utf-8"?>
<!-- Generator: Adobe Illustrator 22.0.1, SVG Export Plug-In . SVG Version: 6.00 Build 0)  -->
<svg version="1.1" id="Layer_1" xmlns="http://www.w3.org/2000/svg" xmlns:xlink="http://www.w3.org/1999/xlink" x="0px" y="0px"
	 viewBox="0 0 325 504" style="enable-background:new 0 0 325 504;" xml:space="preserve">
<style type="text/css">
	.st0{fill:none;stroke:#FFFFFF;stroke-width:2;stroke-miterlimit:10;}
	.st1{fill:none;stroke:#FFFFFF;stroke-width:2;stroke-miterlimit:10;stroke-dasharray:11.4901,9.575;}
	.st2{fill:#FFFFFF;stroke:#FFFFFF;stroke-width:2;stroke-miterlimit:10;}
</style>
<polygon class="st0" points="219.3,296.7 184.2,337.2 136,355.6 102.1,350.3 62.8,330.6 42.6,297.9 31.3,255.7 31.3,71.2 2.7,71.2 
	2.7,259.3 15.8,309.8 43.2,352.1 93.2,378.2 139.6,384.8 201.4,361 223,325 226,326 219.3,355.3 219.3,382.4 208.6,420.5 183.6,455 
	149.1,472.8 109.8,472.8 76.5,463.9 56.3,447.9 43.8,416.9 17,428.2 32.5,465.1 62.8,490.7 105.7,502 155.6,502 203.2,478.2 
	234.8,433 247.8,387.2 247.8,171 219.3,171 "/>
<g>
	<g>
		<polyline class="st0" points="322.2,8 322.2,2 316.2,2 		"/>
		<line class="st1" x1="306.6" y1="2" x2="164" y2="2"/>
		<polyline class="st0" points="159.2,2 153.2,2 153.2,8 		"/>
		<line class="st1" x1="153.2" y1="17.6" x2="153.2" y2="160.2"/>
		<polyline class="st0" points="153.2,165 153.2,171 159.2,171 		"/>
		<line class="st1" x1="168.7" y1="171" x2="311.4" y2="171"/>
		<polyline class="st0" points="316.2,171 322.2,171 322.2,165 		"/>
		<line class="st1" x1="322.2" y1="155.5" x2="322.2" y2="12.8"/>
	</g>
</g>
<polygon class="st2" points="266.3,83.1 251.4,58.7 219.3,79 219.3,171 247.8,171 247.8,94.4 "/>
</svg>
