<?xml version="1.0" encoding="utf-8"?>
<!-- Generator: Adobe Illustrator 22.0.1, SVG Export Plug-In . SVG Version: 6.00 Build 0)  -->
<svg version="1.1" id="Layer_1" xmlns="http://www.w3.org/2000/svg" xmlns:xlink="http://www.w3.org/1999/xlink" x="0px" y="0px"
	 viewBox="0 0 40 40" style="enable-background:new 0 0 40 40;" xml:space="preserve">
<style type="text/css">
	.st0{fill:#FFFFFF;}
</style>
<path class="st0" d="M39.3,2.1l-1.4-1.4c-2.5,2.5-5.7,3.8-9.2,3.8c-3.5,0-6.7-1.4-9.2-3.8l-1.4,1.4c2.8,2.8,6.6,4.4,10.6,4.4
	c1.3,0,2.6-0.2,3.9-0.5L0,38.6L1.4,40L34.1,7.4c-0.3,1.3-0.5,2.6-0.5,3.9c0,4,1.6,7.8,4.4,10.6l1.4-1.4c-2.5-2.5-3.8-5.7-3.8-9.2
	S36.9,4.6,39.3,2.1z"/>
</svg>
