<?xml version="1.0" encoding="utf-8"?>
<!-- Generator: Adobe Illustrator 23.1.0, SVG Export Plug-In . SVG Version: 6.00 Build 0)  -->
<svg version="1.1" id="Calque_1" xmlns="http://www.w3.org/2000/svg" xmlns:xlink="http://www.w3.org/1999/xlink" x="0px" y="0px"
	 viewBox="0 0 720 307" style="enable-background:new 0 0 720 307;" xml:space="preserve">
<style type="text/css">
	.st0{fill:#1D1D1B;}
</style>
<g>
	<g>
		<path class="st0" d="M70.9,141.9c-3.8-1.9-7-3.4-9.4-4.6s-4.7-2.4-6.9-3.7c-2.2-1.2-3.7-2.1-4.4-2.7V28.6c0-0.9-0.8-1.6-2.4-2.3
			c-1.6-0.6-3.5-1.2-5.6-1.7S38,23.7,36,23.5c-2-0.2-3.4-0.4-4-0.5v92.6l6.6,7.3l-0.7,0.9c-0.6,1.5-1.5,3.2-2.6,5.3
			c-1.2,2.1-2.4,4-3.5,5.8c-1.2,1.8-2.6,4-4.4,6.5l-0.1,0.1c-0.1-0.1-0.7-0.4-1.9-1c-1.2-0.6-2.7-1.4-4.7-2.4S16.8,136,15,135
			c-1.9-1-3.6-1.9-5.1-2.7c-1.6-0.8-2.5-1.3-2.9-1.5v-101c0-1.9-0.6-3.5-1.7-5s-2.2-2.5-3.2-3.2s-1.6-1.1-1.8-1.2
			c1.7-3.8,3-6.9,4.1-9.3c1.1-2.4,2.1-4.6,3.2-6.8c1-2.2,1.8-3.5,2.3-4h1.2l18.8,11.6l2.4,1.3c0.1-0.2,0.5-1,1.3-2.3s1.8-2.9,3-4.8
			c1.2-1.9,2.3-3.3,3.3-4.4c0.5-0.6,0.8-1.1,1-1.6c0.2,0.1,1.4,0.4,3.6,1s5,1.4,8.5,2.5c3.4,1.1,6.8,2.2,10.2,3.3
			c3.3,1.1,6.2,2.3,8.6,3.4c2.4,1.1,3.5,2.1,3.5,2.9v101.2l6.5,7.1L70.9,141.9z"/>
		<path class="st0" d="M139.9,140l-42.3-10.5V43.4l18.7-10.7l32.9,9.3l-25.7,69.7l27.5,8.2l-0.4,1.2L139.9,140z M121.1,55.2v44.7
			l1.2-5.1l9.4-34.8L121.1,55.2z"/>
		<path class="st0" d="M208.5,130.3l-11.2,9.7l-27.1-13.1V54l-6.8-5.3l9.7-19.4l23.5,13.2l8.2-13.2l27.5,11.5l0.3,0.7l9-11.9
			l29.1,10.3v88.2l-1.5,1.9l-19.7,6.2l-9.4,3.7L208.5,130.3z M208.4,59.9l-12.9-7.3v62.3l12.9,5.3V59.9z M246,57.5l-12.8-6.2v61.1
			l12.8,5.4V57.5z"/>
		<path class="st0" d="M308.2,140.1l-24.7-11.2l1.2-2.9l10.6-15.3l24.7,7.6V89.5l-0.4-0.3l-13.7,9.7L284.7,93V43.6l16.3-7.3l14-5.6
			l27.2,11.2h0.1l-14.1,18.4l-18.8-8.4l-1.2,1.2v22.3l6.5,3.4l3.8,2.2l9.7-13.8v-0.3l15.3,10.9V130L308.2,140.1z"/>
		<path class="st0" d="M390.6,151l-21.7,9.4l-2.9,1v-28l-6.6-4.1l6-11.2V52.9l-5.9-4.1l8.2-16.5l1.2-1.2l17.7,10.7l3.5,2.2l6-12.9
			l29.1,11.8v84.6l-34.6,12.6V151z M401.8,56.9l-11.6-7.1v69.8l11.6-0.3V56.9z"/>
		<path class="st0" d="M469.7,139.8h-2.4l-25.9-10.6V43.4l21.3-8.5l10.4-3.2h2.4l8.8,3.2l18.8,8.5v70.5l6.9,5l-11.6,21L476.7,128
			L469.7,139.8z M476.7,57.5l-10.4-3.8v57.9l10.4,3.8V57.5z"/>
		<path class="st0" d="M553,151l-21.7,9.4l-2.9,1v-28l-6.6-4.1l6-11.2V52.9l-5.9-4.1l8.2-16.5l1.2-1.2L549,41.8l3.5,2.2l6-12.9
			l29.1,11.8v84.6l-34.7,12.6V151H553z M564.1,56.9l-11.6-7.1v69.8l11.6-0.3V56.9z"/>
		<path class="st0" d="M646.3,140L604,129.6V43.4l18.7-10.7l32.9,9.3l-25.7,69.7l27.5,8.2l-0.4,1.2L646.3,140z M627.5,55.2v44.7
			l1.2-5.1l9.4-34.8L627.5,55.2z"/>
		<path class="st0" d="M694.9,109.6l21.3,9.1L705.5,140l-15.3-4.3l-19.4-6.5V54.8l-6.8-5.6l9.7-18.8L694.6,41l5.7-10.3l19.4,10.9
			L708.4,60l-13.5-8.1L694.9,109.6L694.9,109.6z"/>
	</g>
	<g>
		<path class="st0" d="M168,199c-0.1,2.8-0.5,5.6-1.1,8.2s-1.7,4.7-3.1,6.4c-1.4,1.7-3.5,2.2-6.2,1.6V294l-21.7,12.9h-1.3V161.1
			L154,148l0.6,0.1l17.6,10.9l-2.9,19.4l-11.3-2.1l0.1,15.9h10C168.1,194,168.1,196.2,168,199z"/>
		<path class="st0" d="M210.7,286.8l-29.4-9.4v-90.1l26.7-10.7l32,10.6v89.1L210.7,286.8z M216.6,202.1c-0.4-0.4-1.1-0.8-2.2-1.2
			c-1.1-0.4-2.2-0.9-3.5-1.2c-1.2-0.4-2.4-0.7-3.5-1c-1.1-0.2-2-0.4-2.6-0.5v62.7c0,0.9,0.5,1.6,1.5,2.3c1,0.6,2.1,1.2,3.5,1.5
			c1.3,0.4,2.6,0.7,3.9,0.9c1.3,0.2,2.3,0.3,2.9,0.3L216.6,202.1L216.6,202.1z"/>
		<path class="st0" d="M287,256.5l21.3,9.1l-10.7,21.3l-15.3-4.3l-19.4-6.5v-74.4l-6.8-5.6l9.7-18.8l20.9,10.6l5.7-10.3l19.4,10.9
			l-11.3,18.4l-13.5-8.1L287,256.5L287,256.5z"/>
		<path class="st0" d="M366.1,286.9l-42.3-10.4v-86.1l18.7-10.7l32.9,9.3l-25.8,69.6l27.5,8.2l-0.4,1.2L366.1,286.9z M347.2,202.1
			v44.7l1.2-5.1l9.4-34.8L347.2,202.1z"/>
		<path class="st0" d="M423.8,286.9l-27.2-13.1v-74.7l-6.5-5.3l8.2-16.5l4.7,2.4l18.8,9.4l5.7-10.7l6,1.9l22.3,5.3v88.2l-2.2,3.6
			L423.8,286.9z M432.5,203.3l-10.6-7.1v63.5l10.6,5V203.3z"/>
		<path class="st0" d="M514.6,286.9l-42.3-10.4v-86.1l18.7-10.7l32.9,9.3l-25.7,69.7l27.5,8.2l-0.4,1.2L514.6,286.9z M495.8,202.1
			v44.7l1.2-5.1l9.4-34.8L495.8,202.1z"/>
		<path class="st0" d="M563.3,256.5l21.3,9.1l-10.7,21.3l-15.3-4.3l-19.4-6.5v-74.4l-6.8-5.6l9.7-18.8l20.9,10.6l5.7-10.3l19.4,10.9
			l-11.3,18.4l-13.5-8.1L563.3,256.5L563.3,256.5z"/>
	</g>
</g>
</svg>
