<?xml version="1.0" encoding="utf-8"?>
<!-- Generator: Adobe Illustrator 23.1.0, SVG Export Plug-In . SVG Version: 6.00 Build 0)  -->
<svg version="1.1" id="Layer_2" xmlns="http://www.w3.org/2000/svg" xmlns:xlink="http://www.w3.org/1999/xlink" x="0px" y="0px"
	 viewBox="0 0 668 525" style="enable-background:new 0 0 668 525;" xml:space="preserve">
<style type="text/css">
	.st0{fill:#1D1D1B;}
</style>
<path class="st0" d="M124.6,147.7c-27.3,27.1-52.9,56-74.7,87.8c-5.4,8-10.6,16.1-15.5,24.4c-4.8,8.3-9.3,16.9-13.4,25.6
	c-8.2,17.4-14.6,35.8-18.2,54.7c-3.6,18.9-4,38.6-0.2,57.6c1.9,9.5,5,18.7,9,27.5c4.1,8.8,9.1,17.1,15,24.8
	c5.9,7.6,12.6,14.7,19.9,21c7.3,6.3,15.2,12,23.4,17c16.5,10.1,34.5,17.6,52.9,23.2c18.5,5.6,37.5,9.2,56.7,11.3s38.5,2.6,57.8,1.8
	c38.6-1.6,76.8-8.3,113.8-19.4c73.9-22.2,142.6-61.8,198.2-115.4c27.8-26.8,52.4-56.9,73-89.5c10.3-16.3,19.7-33.3,27.2-51.1
	c7.5-17.8,13.4-36.4,16.4-55.7c0.6-4.8,1.4-9.6,1.6-14.5c0.1-2.4,0.4-4.8,0.4-7.3l0.1-7.3v-1.8l-0.1-1.8l-0.2-3.6
	c-0.1-2.4-0.2-4.9-0.6-7.3l-0.9-7.3l-1.3-7.2c-0.4-2.4-1.1-4.8-1.7-7.1c-0.6-2.4-1.2-4.7-2-7s-1.5-4.6-2.3-6.9l-2.7-6.8
	c-3.9-8.9-8.7-17.5-14.2-25.5c-5.7-7.9-12.1-15.3-19-22.1c-7-6.7-14.7-12.8-22.6-18.3c-8.1-5.4-16.5-10.3-25.2-14.6
	c-2.2-1.1-4.4-2-6.6-3l-3.3-1.5l-3.4-1.4l-6.7-2.7l-6.9-2.4l-3.4-1.2l-3.5-1.1l-7-2.1l-7-1.8l-3.5-0.9c-1.2-0.3-2.4-0.5-3.5-0.8
	l-7.1-1.5c-2.4-0.5-4.8-0.9-7.1-1.3c-4.8-0.9-9.6-1.5-14.3-2.2c-19.2-2.5-38.6-3.2-57.9-2.5c-38.6,1.3-77,8.1-113.9,19.3
	S247.6,46.2,214,64.9c-4.2,2.4-8.4,4.7-12.5,7.2l-12.4,7.5L177,87.4c-4,2.6-8,5.4-12,8.1c-15.8,11-31.1,22.7-45.9,35l0.2,0.3
	c14.9-12.1,30.4-23.6,46.3-34.4c4-2.6,8-5.4,12-7.9l12.2-7.7l12.4-7.3c4.1-2.4,8.4-4.7,12.6-7c33.7-18.3,69.3-33.4,106.1-44.2
	S395.8,4.9,434.1,3.7c19.1-0.5,38.3,0.2,57.3,2.8c4.7,0.7,9.5,1.3,14.2,2.2c2.3,0.4,4.7,0.8,7,1.3l7,1.5c1.2,0.3,2.3,0.5,3.5,0.8
	l3.5,0.9l6.9,1.8l6.8,2.1l3.4,1.1l3.4,1.2l6.8,2.4l6.6,2.7l3.3,1.3l3.3,1.5c2.2,1,4.3,2,6.5,3c8.5,4.2,16.8,9,24.7,14.3
	c7.8,5.4,15.3,11.4,22.1,17.9c6.8,6.6,13,13.8,18.6,21.6c5.4,7.8,10,16.1,13.8,24.8l2.7,6.6c0.8,2.2,1.5,4.5,2.2,6.7
	c0.8,2.2,1.3,4.5,1.9,6.8c0.6,2.3,1.3,4.6,1.6,6.9l1.3,7l0.8,7.1c0.3,2.4,0.4,4.7,0.5,7.1l0.2,3.6l0.1,1.8v1.8l-0.1,7.1
	c0,2.4-0.3,4.7-0.4,7.1c-0.2,4.8-1,9.5-1.6,14.2c-2.9,18.8-8.6,37.2-16,54.8s-16.6,34.5-26.8,50.7c-20.4,32.5-44.7,62.5-72.3,89.1
	c-55.1,53.4-123.3,93-196.8,115.2c-36.7,11.1-74.8,17.9-113.1,19.6c-19.2,0.8-38.4,0.3-57.5-1.7s-38-5.6-56.4-11.1
	c-18.3-5.5-36.2-12.9-52.6-22.8c-8.2-5-16-10.6-23.3-16.8c-7.2-6.3-13.9-13.2-19.8-20.7c-5.8-7.6-10.9-15.8-14.9-24.4
	c-4-8.7-7-17.8-9-27.2c-3.8-18.8-3.5-38.3,0-57.1c3.5-18.9,9.8-37.2,18-54.5c4.1-8.7,8.5-17.2,13.3-25.6c4.8-8.3,10-16.4,15.3-24.4
	c21.7-31.8,47.2-60.8,74.4-88L124.6,147.7z"/>
</svg>
