<?xml version="1.0" encoding="utf-8"?>
<!-- Generator: Adobe Illustrator 22.0.0, SVG Export Plug-In . SVG Version: 6.00 Build 0)  -->
<svg version="1.1" xmlns="http://www.w3.org/2000/svg" xmlns:xlink="http://www.w3.org/1999/xlink" x="0px" y="0px"
	 viewBox="0 0 470.6 367.6" style="enable-background:new 0 0 470.6 367.6;" xml:space="preserve">
<style type="text/css">
	.st0{enable-background:new    ;}
	.st1{fill:#FFFFFF;stroke:#000000;stroke-width:0.5;stroke-linejoin:round;stroke-miterlimit:10;}
	.st2{fill:#FFFFFF;stroke:#000000;stroke-width:0.6;stroke-miterlimit:10;}
</style>
<g id="font">
	<g>
		<g class="st0">
			<g>
				<polygon class="st1" points="290,177.9 279.4,171.8 283,165.3 293.6,171.4 				"/>
			</g>
			<g>
				<polygon class="st1" points="293.6,171.4 283,165.3 286.2,167 296.8,173.2 				"/>
			</g>
			<g>
				<polygon class="st1" points="286.3,183.1 275.8,177 279.4,171.8 290,177.9 				"/>
			</g>
			<g>
				<polygon class="st1" points="281.2,187.2 270.7,181.1 275.8,177 286.3,183.1 				"/>
			</g>
			<g>
				<polygon class="st1" points="276.6,188.8 266,182.6 270.7,181.1 281.2,187.2 				"/>
			</g>
			<g>
				<polygon class="st1" points="272.1,187.4 261.5,181.3 266,182.6 276.6,188.8 				"/>
			</g>
			<g>
				<polygon class="st1" points="268.2,192.7 257.7,186.6 254.7,177.3 265.2,183.4 				"/>
			</g>
			<g>
				<polygon class="st1" points="265.2,183.4 254.7,177.3 254.6,142.1 265.1,148.2 				"/>
			</g>
			<g>
				<polygon class="st1" points="269.5,140.7 258.9,134.6 273.2,126.3 283.8,132.4 				"/>
			</g>
			<g>
				<polygon class="st1" points="255.7,153.7 245.1,147.6 245.1,142.5 255.7,148.7 				"/>
			</g>
			<g>
				<polygon class="st1" points="255.7,148.7 245.1,142.5 254.5,137.1 265.1,143.2 				"/>
			</g>
			<g>
				<polygon class="st1" points="265.1,130.1 254.5,123.9 258.9,121.4 269.4,127.6 				"/>
			</g>
			<g>
				<polygon class="st1" points="265.1,143.2 254.5,137.1 254.5,123.9 265.1,130.1 				"/>
			</g>
			<g>
				<polygon class="st1" points="269.4,127.6 269.5,140.7 283.8,132.4 283.8,137.4 269.5,145.7 269.6,180.2 272.1,187.4 
					276.6,188.8 281.2,187.2 286.3,183.1 290,177.9 293.6,171.4 296.8,173.2 292.7,180.3 288.2,186.8 281.3,192.4 274.8,194.6 
					268.2,192.7 265.2,183.4 265.1,148.2 255.7,153.7 255.7,148.7 265.1,143.2 265.1,130.1 				"/>
			</g>
		</g>
		<g class="st0">
			<g>
				<polygon class="st1" points="244.8,211.4 234.2,205.2 234.1,171 244.7,177.2 				"/>
			</g>
			<g>
				<polygon class="st1" points="244.7,177.2 234.1,171 233.2,164.8 243.8,171 				"/>
			</g>
			<g>
				<polygon class="st1" points="243.8,171 233.2,164.8 230.4,161.6 241,167.8 				"/>
			</g>
			<g>
				<polygon class="st1" points="237.5,161.9 226.9,155.8 233.3,156.1 243.9,162.2 				"/>
			</g>
			<g>
				<polygon class="st1" points="229.7,165.3 219.1,159.2 226.9,155.8 237.5,161.9 				"/>
			</g>
			<g>
				<polygon class="st1" points="219.7,175.3 209.2,169.2 219.1,159.2 229.7,165.3 				"/>
			</g>
			<g>
				<polygon class="st1" points="215.8,183.1 205.3,177 209.2,169.2 219.7,175.3 				"/>
			</g>
			<g>
				<polygon class="st1" points="211.6,230.6 201,224.5 200.9,178.4 211.5,184.5 				"/>
			</g>
			<g>
				<polygon class="st1" points="211.5,184.5 200.9,178.4 197.4,175.9 208,182 				"/>
			</g>
			<g>
				<polygon class="st1" points="208,182 197.4,175.9 200.8,170.6 211.4,176.7 				"/>
			</g>
			<g>
				<polygon class="st1" points="229.7,165.3 237.5,161.9 243.9,162.2 248.1,166.6 249,174.4 249.1,208.9 244.8,211.4 244.7,177.2 
					243.8,171 241,167.8 236.2,167.6 230.3,170.2 222.5,178.1 215.9,191.1 216,228.1 211.6,230.6 211.5,184.5 208,182 211.4,176.7 
					215.8,180.1 215.8,183.1 219.7,175.3 				"/>
			</g>
		</g>
		<g class="st0">
			<g>
				<polygon class="st1" points="191.2,237 180.6,230.8 184.8,224.2 195.4,230.3 				"/>
			</g>
			<g>
				<polygon class="st1" points="186.2,241.2 175.6,235.1 180.6,230.8 191.2,237 				"/>
			</g>
			<g>
				<polygon class="st1" points="180.4,241.8 169.9,235.7 175.6,235.1 186.2,241.2 				"/>
			</g>
			<g>
				<polygon class="st1" points="177.1,247.6 166.5,241.5 162.9,232.6 173.4,238.8 				"/>
			</g>
			<g>
				<polygon class="st1" points="173.4,238.8 162.9,232.6 162.8,197.5 173.3,203.7 				"/>
			</g>
			<g>
				<polygon class="st1" points="157.6,207.9 147,201.7 167.1,190.1 177.7,196.3 				"/>
			</g>
			<g>
				<polygon class="st1" points="157.6,212.8 147.1,206.6 147,201.7 157.6,207.9 				"/>
			</g>
			<g>
				<polygon class="st1" points="195.4,230.3 198.2,232.6 193.2,240.5 185.8,246.5 177.1,247.6 173.4,238.8 173.3,203.7 
					157.6,212.8 157.6,207.9 177.7,196.3 177.8,235.3 180.4,241.8 186.2,241.2 191.2,237 				"/>
			</g>
		</g>
		<g class="st0">
			<g>
				<polygon class="st1" points="145.1,230.1 134.5,223.9 132.5,219.5 143.1,225.6 				"/>
			</g>
			<g>
				<polygon class="st1" points="141.4,218.6 130.8,212.4 136.1,214.4 146.6,220.5 				"/>
			</g>
			<g>
				<polygon class="st1" points="135,220.5 124.4,214.3 130.8,212.4 141.4,218.6 				"/>
			</g>
			<g>
				<polygon class="st1" points="116.1,245.6 105.5,239.5 105.7,239.4 116.2,245.5 				"/>
			</g>
			<g>
				<polygon class="st1" points="128.3,224.6 117.7,218.4 124.4,214.3 135,220.5 				"/>
			</g>
			<g>
				<polygon class="st1" points="116.2,245.5 105.7,239.4 106.9,234.6 117.5,240.7 				"/>
			</g>
			<g>
				<polygon class="st1" points="117.5,240.7 106.9,234.6 108.7,230.1 119.3,236.2 				"/>
			</g>
			<g>
				<polygon class="st1" points="119.3,236.2 108.7,230.1 117.7,218.4 128.3,224.6 				"/>
			</g>
			<g>
				<polygon class="st1" points="112.5,288.3 102,282.2 101.8,235.2 112.4,241.3 				"/>
			</g>
			<g>
				<polygon class="st1" points="110.2,235.1 99.6,228.9 106.2,229.9 116.8,236 				"/>
			</g>
			<g>
				<polygon class="st1" points="107.9,240.6 97.4,234.4 99.6,228.9 110.2,235.1 				"/>
			</g>
			<g>
				<polygon class="st1" points="135,220.5 141.4,218.6 146.6,220.5 149,226.1 145.1,230.1 143.1,225.6 139.4,224.3 134.5,225.7 
					129.6,228.7 122.4,238.1 116.8,251.7 116.9,285.8 112.5,288.3 112.4,241.3 107.9,240.6 110.2,235.1 116.8,236 116.8,240.9 
					116.1,245.6 116.2,245.5 117.5,240.7 119.3,236.2 128.3,224.6 				"/>
			</g>
		</g>
		<g class="st0">
			<g>
				<polygon class="st1" points="86.5,265.4 75.9,259.3 80.7,253.1 91.3,259.3 				"/>
			</g>
			<g>
				<polygon class="st1" points="91.3,259.3 80.7,253.1 83.1,246.6 93.7,252.8 				"/>
			</g>
			<g>
				<polygon class="st1" points="93.7,252.8 83.1,246.6 84,240.3 94.6,246.4 				"/>
			</g>
			<g>
				<polygon class="st1" points="80.2,270.7 69.6,264.6 75.9,259.3 86.5,265.4 				"/>
			</g>
			<g>
				<polygon class="st1" points="94.6,246.4 84,240.3 82.6,234.2 93.2,240.3 				"/>
			</g>
			<g>
				<polygon class="st1" points="93.2,240.3 82.6,234.2 79.2,230.8 89.7,237 				"/>
			</g>
			<g>
				<polygon class="st1" points="62.4,281 51.8,274.8 69.6,264.6 80.2,270.7 				"/>
			</g>
			<g>
				<polygon class="st1" points="86.4,231.3 75.8,225.1 82,225.2 92.5,231.4 				"/>
			</g>
			<g>
				<polygon class="st1" points="79.5,234.2 69,228 75.8,225.1 86.4,231.3 				"/>
			</g>
			<g>
				<path class="st1" d="M97.2,235.9l1.8,7.8l-1.2,8.3l-3.4,9.1l-6.3,8l-7.4,6.3L62.4,286l0.1,31.2l-4.4,2.5l-0.2-73l21.6-12.5
					l6.8-2.9l6.2,0.1L97.2,235.9z M93.7,252.8l0.9-6.4l-1.4-6.1l-3.5-3.3l-4.7,0l-5.9,2.5l-16.8,9.7l0.1,31.8l17.8-10.3l6.3-5.3
					l4.8-6.1L93.7,252.8"/>
			</g>
			<g>
				<polygon class="st1" points="57.9,246.7 47.4,240.5 69,228 79.5,234.2 				"/>
			</g>
			<g>
				<polygon class="st1" points="58.1,319.7 47.6,313.6 47.4,240.5 57.9,246.7 				"/>
			</g>
		</g>
		<g class="st0">
			<g>
				<polygon class="st1" points="176.3,177 165.7,170.9 167.5,171.1 178.1,177.2 				"/>
			</g>
			<g>
				<polygon class="st1" points="172.7,184.7 162.2,178.6 161.5,176.8 172.1,183 				"/>
			</g>
			<g>
				<polygon class="st1" points="174.3,178.1 163.8,172 165.7,170.9 176.3,177 				"/>
			</g>
			<g>
				<polygon class="st1" points="174.4,185.2 172.7,184.7 172.1,183 172.7,180.3 174.3,178.1 176.3,177 178.1,177.2 178.6,179.2 
					178.1,181.6 176.3,184.1 				"/>
			</g>
			<g>
				<polygon class="st1" points="172.1,183 161.5,176.8 162.1,174.2 172.7,180.3 				"/>
			</g>
			<g>
				<polygon class="st1" points="172.7,180.3 162.1,174.2 163.8,172 174.3,178.1 				"/>
			</g>
		</g>
		<g class="st0">
			<g>
				<polygon class="st1" points="324.7,128.8 324.7,133.8 305.8,144.7 305.8,139.7 				"/>
			</g>
			<g>
				<polygon class="st1" points="305.8,144.7 295.2,138.5 295.2,133.5 305.8,139.7 				"/>
			</g>
			<g>
				<polygon class="st1" points="305.8,139.7 295.2,133.5 314.1,122.6 324.7,128.8 				"/>
			</g>
		</g>
		<g class="st0">
			<g>
				<polygon class="st1" points="416.4,104.4 405.9,98.3 409.5,91.8 420,97.9 				"/>
			</g>
			<g>
				<polygon class="st1" points="420,97.9 409.5,91.8 412.7,93.5 423.2,99.7 				"/>
			</g>
			<g>
				<polygon class="st1" points="412.8,109.7 402.2,103.5 405.9,98.3 416.4,104.4 				"/>
			</g>
			<g>
				<polygon class="st1" points="407.7,113.7 397.2,107.6 402.2,103.5 412.8,109.7 				"/>
			</g>
			<g>
				<polygon class="st1" points="403.1,115.3 392.5,109.1 397.2,107.6 407.7,113.7 				"/>
			</g>
			<g>
				<polygon class="st1" points="398.5,113.9 388,107.8 392.5,109.1 403.1,115.3 				"/>
			</g>
			<g>
				<polygon class="st1" points="394.7,119.3 384.2,113.1 381.1,103.8 391.7,109.9 				"/>
			</g>
			<g>
				<polygon class="st1" points="391.7,109.9 381.1,103.8 381,68.6 391.6,74.8 				"/>
			</g>
			<g>
				<polygon class="st1" points="396,67.2 385.4,61.1 399.7,52.8 410.3,59 				"/>
			</g>
			<g>
				<polygon class="st1" points="382.2,80.2 371.6,74.1 371.6,69.1 382.1,75.2 				"/>
			</g>
			<g>
				<polygon class="st1" points="382.1,75.2 371.6,69.1 381,63.6 391.6,69.8 				"/>
			</g>
			<g>
				<polygon class="st1" points="391.6,56.6 381,50.5 385.3,47.9 395.9,54.1 				"/>
			</g>
			<g>
				<polygon class="st1" points="391.6,69.8 381,63.6 381,50.5 391.6,56.6 				"/>
			</g>
			<g>
				<polygon class="st1" points="395.9,54.1 396,67.2 410.3,59 410.3,64 396,72.2 396.1,106.7 398.5,113.9 403.1,115.3 407.7,113.7 
					412.8,109.7 416.4,104.4 420,97.9 423.2,99.7 419.2,106.8 414.6,113.3 407.7,119 401.3,121.1 394.7,119.3 391.7,109.9 
					391.6,74.8 382.2,80.2 382.1,75.2 391.6,69.8 391.6,56.6 				"/>
			</g>
		</g>
		<g class="st0">
			<g>
				<polygon class="st1" points="367.2,135.8 356.6,129.7 360.9,123 371.5,129.2 				"/>
			</g>
			<g>
				<polygon class="st1" points="362.2,140.1 351.7,133.9 356.6,129.7 367.2,135.8 				"/>
			</g>
			<g>
				<polygon class="st1" points="356.5,140.7 345.9,134.5 351.7,133.9 362.2,140.1 				"/>
			</g>
			<g>
				<polygon class="st1" points="353.1,146.5 342.6,140.3 338.9,131.5 349.5,137.6 				"/>
			</g>
			<g>
				<polygon class="st1" points="349.5,137.6 338.9,131.5 338.8,96.4 349.4,102.5 				"/>
			</g>
			<g>
				<polygon class="st1" points="333.7,106.7 323.1,100.6 343.2,89 353.7,95.1 				"/>
			</g>
			<g>
				<polygon class="st1" points="333.7,111.6 323.1,105.5 323.1,100.6 333.7,106.7 				"/>
			</g>
			<g>
				<polygon class="st1" points="371.5,129.2 374.3,131.4 369.2,139.4 361.9,145.4 353.1,146.5 349.5,137.6 349.4,102.5 
					333.7,111.6 333.7,106.7 353.7,95.1 353.8,134.1 356.5,140.7 362.2,140.1 367.2,135.8 				"/>
			</g>
		</g>
		<g class="st0">
			<g>
				<polygon class="st1" points="352.3,75.9 341.7,69.7 343.6,69.9 354.1,76.1 				"/>
			</g>
			<g>
				<polygon class="st1" points="348.8,83.6 338.2,77.4 337.6,75.7 348.1,81.8 				"/>
			</g>
			<g>
				<polygon class="st1" points="350.4,77 339.8,70.8 341.7,69.7 352.3,75.9 				"/>
			</g>
			<g>
				<polygon class="st1" points="350.4,84.1 348.8,83.6 348.1,81.8 348.8,79.2 350.4,77 352.3,75.9 354.1,76.1 354.7,78.1 
					354.1,80.5 352.3,83 				"/>
			</g>
			<g>
				<polygon class="st1" points="348.1,81.8 337.6,75.7 338.2,73 348.8,79.2 				"/>
			</g>
			<g>
				<polygon class="st1" points="348.8,79.2 338.2,73 339.8,70.8 350.4,77 				"/>
			</g>
		</g>
	</g>
</g>
<g id="bulle">
	<g>
		<g>
			<polygon class="st2" points="424.9,290.1 407.4,288.2 412.2,302.1 390.7,297.3 388.4,309.4 373.8,299.1 371.9,319.8 355.9,300.3 
				349.5,318.5 341.8,300.3 317.3,310.9 322.5,290.1 300.8,289.7 309.8,277.6 290.2,267.7 312.1,257.5 303.9,243.8 321.9,248.5 
				315.9,230.9 339.8,235.8 344.8,213.7 357.1,234.9 371.5,223.8 380.7,238.3 400.9,222.5 401.6,241.7 421.8,240.3 408,258.3 
				424.8,267.2 410.1,275.8 			"/>
		</g>
		<g>
			<path d="M322.3,265.7h-2.8l-0.7,2.2l-0.5-0.2l2.3-7.6h0.6l2.3,7.6l-0.5,0.2L322.3,265.7z M322.1,265.1l-1.3-4.2l-1.3,4.2H322.1z
				 M320.1,258.6l0.3-0.4l0.7,0.6l0.8,0.4l-0.2,0.5l-0.8-0.4L320.1,258.6z"/>
			<path d="M334.2,267.9l-0.9,0.2l-1-0.4l-0.4-1.2v-5.9H330v-0.5h2.4v6.3l0.3,0.9l0.6,0.3l0.6-0.1l0.5-0.4l0.3,0.4L334.2,267.9z"/>
			<path d="M340.5,267.6l-0.5,0.2l-0.3-0.5l-0.1-0.3l-0.6,0.6l-1.1,0.3l-0.9-0.1l-0.7-0.2l-0.6-0.5l-0.2-0.7v-0.7l0.3-0.6l0.6-0.5
				l0.7-0.2h0.6l0.9-0.1l0.8-0.3v-0.4l-0.2-0.6l-0.5-0.4l-0.7-0.2l-0.6,0.1l-0.5,0.2l-0.4,0.3l-0.3,0.4l-0.4-0.3l0.3-0.5l0.6-0.4
				l0.6-0.2l0.7-0.1l0.9,0.2l0.8,0.6l0.3,0.8v3l0.1,0.6L340.5,267.6z M339.6,266.5v-1.8l-0.7,0.3l-1,0.1h-0.6l-0.5,0.1l-0.4,0.3
				l-0.2,0.4v0.5l0.2,0.5l0.4,0.4l0.6,0.2l0.6,0.1l0.9-0.3L339.6,266.5z"/>
			<path d="M352,267.6l-0.5,0.3l-0.4-0.6l-0.1-0.2l-0.4,0.4l-0.7,0.4l-0.8,0.1l-0.9-0.2l-0.7-0.6l-0.4-0.8l-0.2-0.9v-1l0.2-0.9
				l0.4-0.8l0.6-0.6l0.7-0.3l0.8,0l0.9,0.4l0.3,0.4v-2.6h0.5v6.4l0.1,0.6L352,267.6z M350.8,266.7l0.2-0.5v-2.7l-0.6-0.7l-0.8-0.3
				h-0.6l-0.5,0.2l-0.5,0.5l-0.3,0.6l-0.2,0.8v0.9l0.2,0.8l0.4,0.6l0.5,0.4l0.6,0.1l0.7-0.1l0.5-0.3L350.8,266.7z"/>
			<path d="M355.3,268l-1-0.2l-0.7-0.6l-0.5-0.8l-0.2-1v-0.9l0.2-0.8l0.4-0.8l0.6-0.6l0.8-0.3h0.8l0.7,0.2l0.6,0.5l0.4,0.7l0.2,0.8
				v1h-4.3v0.1l0.2,0.9l0.4,0.6l0.6,0.4l0.8,0.2l0.8-0.1l0.6-0.3l0.5-0.5l0.4,0.4l-0.6,0.6l-0.7,0.4L355.3,268z M353.3,264.8h3.8
				v-0.4l-0.2-0.7l-0.3-0.5l-0.5-0.4l-0.5-0.2h-0.6l-0.6,0.2l-0.5,0.5l-0.4,0.6l-0.2,0.7V264.8z M354.4,261.2l0.9-0.4l0.8-0.6
				l-0.3-0.4l-0.7,0.5l-0.8,0.3L354.4,261.2z"/>
			<path d="M361.9,267.9L361,268l-0.9-0.2l-0.8-0.6l-0.5-0.8l-0.2-0.9v-0.9l0.2-0.9l0.4-0.7l0.6-0.6l0.8-0.3h0.7l0.8,0.2l0.6,0.4
				l0.5,0.5l-0.4,0.3l-0.4-0.5l-0.4-0.3l-0.6-0.2h-0.6l-0.6,0.2l-0.5,0.5l-0.3,0.6l-0.2,0.7v0.8l0.2,0.8l0.4,0.7l0.6,0.5l0.7,0.2
				l0.7-0.1l0.6-0.4l0.6-0.6l0.4,0.4l-0.7,0.7L361.9,267.9z"/>
			<path d="M366.7,268l-1-0.2l-0.8-0.6l-0.5-0.8l-0.2-1v-0.7l0.3-1.2l0.5-0.8l0.7-0.6l0.9-0.2l0.9,0.2l0.7,0.6l0.5,0.8l0.3,1.2v0.7
				l-0.2,1l-0.5,0.8l-0.8,0.6L366.7,268z M366,267.3l0.7,0.2l0.7-0.2l0.6-0.4l0.4-0.7l0.2-0.8v-0.7l-0.2-1l-0.4-0.6l-0.5-0.4
				l-0.7-0.1l-0.7,0.1l-0.6,0.4l-0.4,0.6l-0.2,1v0.7l0.2,0.8l0.4,0.7L366,267.3z"/>
			<path d="M374.5,267.9l-0.4-0.5l-0.1-0.3l-0.6,0.6l-1.2,0.3l-0.9-0.1l-0.7-0.4l-0.5-0.6l-0.2-0.8v-3.8h0.5v3.8l0.1,0.6l0.3,0.5
				l0.5,0.3l0.7,0.1l0.9-0.2l0.8-0.9v-4.2h0.5v4.3l0.1,0.7l0.3,0.4L374.5,267.9z"/>
			<path d="M380.6,262.3l-1.9,5.4h-0.5l-1.8-4.8l0-0.2l-0.2,0.3l-0.2,0.2l-0.4-0.4l0.6-0.6h0.5l1.7,4.7l1.7-4.8L380.6,262.3z"/>
			<path d="M383.9,268l-1-0.2l-0.7-0.6l-0.5-0.8l-0.2-1v-0.9l0.2-0.8l0.4-0.8l0.6-0.6l0.8-0.3h0.8l0.7,0.2l0.6,0.5l0.4,0.7l0.2,0.8
				v1H382v0.1l0.2,0.9l0.4,0.6l0.6,0.4l0.8,0.2l0.8-0.1l0.6-0.3l0.5-0.5l0.4,0.4l-0.6,0.6l-0.7,0.4L383.9,268z M382,264.8h3.8v-0.4
				l-0.2-0.7l-0.3-0.5l-0.5-0.4l-0.5-0.2h-0.6l-0.6,0.2l-0.5,0.5l-0.4,0.6l-0.2,0.7V264.8z"/>
			<path d="M391.6,263.6l-0.2-0.6l-0.5-0.4l-0.6-0.2l-0.6,0l-0.9,0.5l-0.7,1.1v3.6h-0.5v-5l-0.5-0.4l0.3-0.4l0.8,0.5v0.5l-0.1,0.5h0
				l0.2-0.4l0.2-0.4l1.1-0.7l0.8,0l0.8,0.2l0.6,0.5l0.3,0.7L391.6,263.6z"/>
			<path d="M396.9,267.5l-0.5,0.4l-0.8,0.2l-0.8-0.2l-0.8-0.6l-0.4-1.2v-3.7h-1.1v-0.5h1.1v-1.4h0.5v1.4h1.7v0.5h-1.7v3.6l0.3,0.9
				l0.5,0.4l0.6,0.1l0.6-0.1l0.4-0.3l0.4-0.5l0.4,0.4L396.9,267.5z"/>
			<path d="M400,268l-1-0.2l-0.7-0.6l-0.5-0.8l-0.2-1v-0.9l0.2-0.8l0.4-0.8l0.6-0.6l0.8-0.3h0.8l0.7,0.2l0.6,0.5l0.4,0.7l0.2,0.8v1
				H398v0.1l0.2,0.9l0.4,0.6l0.6,0.4l0.8,0.2l0.8-0.1l0.6-0.3l0.5-0.5l0.4,0.4l-0.6,0.6l-0.7,0.4L400,268z M398,264.8h3.8v-0.4
				l-0.2-0.7l-0.3-0.5l-0.5-0.4l-0.5-0.2h-0.6l-0.6,0.2l-0.5,0.5l-0.4,0.6l-0.2,0.7V264.8z"/>
			<path d="M332.5,280.8l-0.5,0.3l-0.4-0.6l-0.1-0.2l-0.4,0.4l-0.7,0.4l-0.8,0.1l-0.9-0.2l-0.7-0.6l-0.4-0.8l-0.2-0.9v-1l0.2-0.9
				l0.4-0.8l0.6-0.6l0.7-0.3l0.8,0l0.9,0.4l0.3,0.4v-2.6h0.5v6.4l0.1,0.6L332.5,280.8z M331.3,279.9l0.2-0.5v-2.7l-0.6-0.7l-0.8-0.3
				h-0.6l-0.5,0.2l-0.5,0.5l-0.3,0.6l-0.2,0.8v0.9l0.2,0.8l0.4,0.6l0.5,0.4l0.6,0.1l0.7-0.1l0.5-0.3L331.3,279.9z"/>
			<path d="M335.3,273.5l0.1-0.3l0.2-0.1h0.2l0.2,0.1l0.1,0.3l0,0.3l-0.1,0.8h-0.4l-0.1-0.9L335.3,273.5z"/>
			<path d="M341.7,280.4h2.1v0.5h-4.7v-0.5h2.1v-6.7h-2.1v-0.5h4.7v0.5h-2.1V280.4z"/>
			<path d="M349.5,281H349v-3.6l-0.1-0.7l-0.3-0.5l-0.6-0.3l-0.7-0.1l-0.9,0.4l-0.8,1v3.9H345v-4.9l-0.4-0.5l0.4-0.4l0.5,0.6v0.3
				l0.5-0.6l1.2-0.5l0.9,0.1l0.8,0.4l0.5,0.7l0.1,0.9V281z"/>
			<path d="M354.5,280.7l-0.5,0.4l-0.8,0.2l-0.8-0.2l-0.8-0.6l-0.4-1.2v-3.7H350v-0.5h1.1v-1.4h0.5v1.4h1.7v0.5h-1.7v3.6l0.3,0.9
				l0.5,0.4l0.6,0.1l0.6-0.1l0.4-0.3l0.4-0.5l0.4,0.4L354.5,280.7z"/>
			<path d="M357.6,281.2l-1-0.2l-0.7-0.6l-0.5-0.8l-0.2-1v-0.9l0.2-0.8l0.4-0.8l0.6-0.6l0.8-0.3h0.8l0.7,0.2l0.6,0.5l0.4,0.7
				l0.2,0.8v1h-4.3v0.1l0.2,0.9l0.4,0.6l0.6,0.4l0.8,0.2l0.8-0.1l0.6-0.3l0.5-0.5l0.4,0.4l-0.6,0.6l-0.7,0.4L357.6,281.2z
				 M355.6,278h3.8v-0.4l-0.2-0.7l-0.3-0.5l-0.5-0.4l-0.5-0.2h-0.6l-0.6,0.2l-0.5,0.5l-0.4,0.6l-0.2,0.7V278z"/>
			<path d="M365.3,276.8l-0.2-0.6l-0.5-0.4l-0.6-0.2l-0.6,0l-0.9,0.5l-0.7,1.1v3.6h-0.5v-5l-0.5-0.4l0.3-0.4l0.8,0.5v0.5l-0.1,0.5h0
				l0.2-0.4l0.2-0.4l1.1-0.7l0.8,0l0.8,0.2l0.6,0.5l0.3,0.7L365.3,276.8z"/>
			<path d="M371.4,281h-0.5v-3.6l-0.1-0.7l-0.3-0.5l-0.6-0.3l-0.7-0.1l-0.9,0.4l-0.8,1v3.9h-0.5v-4.9l-0.4-0.5l0.4-0.4l0.5,0.6v0.3
				l0.5-0.6l1.2-0.5l0.9,0.1l0.8,0.4l0.5,0.7l0.1,0.9V281z"/>
			<path d="M374.8,281.2l-1-0.2l-0.7-0.6l-0.5-0.8l-0.2-1v-0.9l0.2-0.8l0.4-0.8l0.6-0.6l0.8-0.3h0.8l0.7,0.2l0.6,0.5l0.4,0.7
				l0.2,0.8v1h-4.3v0.1l0.2,0.9l0.4,0.6l0.6,0.4l0.8,0.2l0.8-0.1l0.6-0.3l0.5-0.5l0.4,0.4l-0.6,0.6l-0.7,0.4L374.8,281.2z
				 M372.8,278h3.8v-0.4l-0.2-0.7l-0.3-0.5l-0.5-0.4l-0.5-0.2h-0.6l-0.6,0.2l-0.5,0.5l-0.4,0.6l-0.2,0.7V278z"/>
			<path d="M382.1,280.7l-0.5,0.4l-0.8,0.2l-0.8-0.2l-0.8-0.6l-0.4-1.2v-3.7h-1.1v-0.5h1.1v-1.4h0.5v1.4h1.7v0.5h-1.7v3.6l0.3,0.9
				l0.5,0.4l0.6,0.1l0.6-0.1l0.4-0.3l0.4-0.5l0.4,0.4L382.1,280.7z"/>
			<path d="M391.2,280.6l-0.1,0.3l-0.2,0.1h-0.3l-0.2-0.1l-0.1-0.3l0.1-0.2l0.2-0.2h0.3l0.2,0.2L391.2,280.6z M391.1,279.3v-5.8
				h-0.5v5.8H391.1z"/>
		</g>
	</g>
</g>
</svg>
