<?xml version="1.0" encoding="utf-8"?>
<!-- Generator: Adobe Illustrator 22.0.1, SVG Export Plug-In . SVG Version: 6.00 Build 0)  -->
<svg version="1.1" id="Layer_1" xmlns="http://www.w3.org/2000/svg" xmlns:xlink="http://www.w3.org/1999/xlink" x="0px" y="0px"
	 viewBox="0 0 897.3 268.3" style="enable-background:new 0 0 897.3 268.3;" xml:space="preserve">
<style type="text/css">
	.st0{enable-background:new    ;}
	.st1{stroke:#FFFFFF;stroke-linejoin:bevel;stroke-miterlimit:10;}
</style>
<g class="st0">
	<g>
		<polygon class="st1" points="550.7,156.1 515.4,135.6 525.2,116 560.4,136.5 		"/>
	</g>
	<g>
		<polygon class="st1" points="537.5,171.8 502.2,151.3 515.4,135.6 550.7,156.1 		"/>
	</g>
	<g>
		<polygon class="st1" points="560.4,136.5 525.2,116 530,93.6 565.2,114.1 		"/>
	</g>
	<g>
		<polygon class="st1" points="523,183.1 487.8,162.6 502.2,151.3 537.5,171.8 		"/>
	</g>
	<g>
		<polygon class="st1" points="565.2,114.1 530,93.6 530,75.1 565.2,95.5 		"/>
	</g>
	<g>
		<polygon class="st1" points="508.5,185.3 473.3,164.8 487.8,162.6 523,183.1 		"/>
	</g>
	<g>
		<polygon class="st1" points="565.2,95.5 530,75.1 526.3,59.1 561.5,79.5 		"/>
	</g>
	<g>
		<polygon class="st1" points="502.8,198.7 467.6,178.2 460.9,170.3 496.2,190.7 		"/>
	</g>
	<g>
		<polygon class="st1" points="496.4,178.9 461.1,158.4 473.3,164.8 508.5,185.3 		"/>
	</g>
	<g>
		<polygon class="st1" points="561.5,79.5 526.3,59.1 517.3,47.3 552.5,67.8 		"/>
	</g>
	<g>
		<polygon class="st1" points="543.8,52.1 508.5,31.6 524.7,34.7 560,55.2 		"/>
	</g>
	<g>
		<polygon class="st1" points="525.4,59.2 490.2,38.7 508.5,31.6 543.8,52.1 		"/>
	</g>
	<g>
		<polygon class="st1" points="493.2,104.5 457.9,84.1 459,83.5 494.2,103.9 		"/>
	</g>
	<g>
		<polygon class="st1" points="504,80.4 468.7,60 490.2,38.7 525.4,59.2 		"/>
	</g>
	<g>
		<polygon class="st1" points="494.2,103.9 459,83.5 468.7,60 504,80.4 		"/>
	</g>
	<g>
		<polygon class="st1" points="486.4,258.9 451.1,238.4 450.7,81.6 485.9,102.1 		"/>
	</g>
	<g>
		<polygon class="st1" points="478.4,97.1 443.2,76.7 451.1,64.5 486.3,85 		"/>
	</g>
	<g>
		<polygon class="st1" points="485.9,102.1 450.7,81.6 443.2,76.7 478.4,97.1 		"/>
	</g>
	<g>
		<path class="st1" d="M571.1,69.4l4.3,18.8l0.1,21.8l-5.9,26.7l-12.1,24.6l-16.8,20.2l-18.7,14l-19.2,3.2l-6.6-7.9l-1.3,0.7
			l1.5,10.9l0.1,50.6l-10.2,5.9l-0.4-156.8l-7.5-5l7.9-12.1l8.8,6.2l-1.9,13.3l1.1-0.6l9.7-23.5l21.5-21.2l18.3-7.1l16.2,3.1
			L571.1,69.4z M565.2,114.1l-0.1-18.6l-3.7-16l-9-11.7l-12.8-2.2L526.3,71l-16.6,16.2l-13.6,27.4l0.2,64.3l12.2,6.4l14.5-2.2
			l14.5-11.3l13.2-15.7l9.7-19.6L565.2,114.1"/>
	</g>
</g>
<g class="st0">
	<g>
		<polygon class="st1" points="423,174.1 387.8,153.6 382.2,145.1 417.4,165.6 		"/>
	</g>
	<g>
		<polygon class="st1" points="417.4,165.6 382.2,145.1 381.1,137.9 416.4,158.3 		"/>
	</g>
	<g>
		<polygon class="st1" points="398.7,173.4 363.5,153 379,128.1 414.2,148.6 		"/>
	</g>
	<g>
		<polygon class="st1" points="381.1,189.5 345.8,169 363.5,153 398.7,173.4 		"/>
	</g>
	<g>
		<polygon class="st1" points="368.7,195.2 333.5,174.7 345.8,169 381.1,189.5 		"/>
	</g>
	<g>
		<polygon class="st1" points="414.2,148.6 379,128.1 378.9,91.4 414.1,111.9 		"/>
	</g>
	<g>
		<polygon class="st1" points="414.1,111.9 378.9,91.4 379.3,85.5 414.5,106 		"/>
	</g>
	<g>
		<polygon class="st1" points="357.8,197 322.6,176.6 333.5,174.7 368.7,195.2 		"/>
	</g>
	<g>
		<polygon class="st1" points="414,95 378.8,74.5 378.8,66 414,86.5 		"/>
	</g>
	<g>
		<polygon class="st1" points="350.2,193.6 314.9,173.1 322.6,176.6 357.8,197 		"/>
	</g>
	<g>
		<polygon class="st1" points="397.7,111.3 362.4,90.9 378.8,74.5 414,95 		"/>
	</g>
	<g>
		<polygon class="st1" points="414,86.5 378.8,66 374.3,55.8 409.5,76.3 		"/>
	</g>
	<g>
		<polygon class="st1" points="379.6,124.2 344.4,103.7 362.4,90.9 397.7,111.3 		"/>
	</g>
	<g>
		<polygon class="st1" points="341.4,204.8 306.2,184.3 301.9,171.8 337.1,192.3 		"/>
	</g>
	<g>
		<polygon class="st1" points="367.5,131.2 332.2,110.7 344.4,103.7 379.6,124.2 		"/>
	</g>
	<g>
		<polygon class="st1" points="337.1,192.3 301.9,171.8 301.9,156.4 337.1,176.9 		"/>
	</g>
	<g>
		<polygon class="st1" points="403.1,60 367.8,39.5 382.8,43.8 418,64.3 		"/>
	</g>
	<g>
		<polygon class="st1" points="354.5,142.6 319.3,122.1 332.2,110.7 367.5,131.2 		"/>
	</g>
	<g>
		<polygon class="st1" points="342.6,159.5 307.4,139.1 319.3,122.1 354.5,142.6 		"/>
	</g>
	<g>
		<polygon class="st1" points="337.1,176.9 301.9,156.4 307.4,139.1 342.6,159.5 		"/>
	</g>
	<g>
		<polygon class="st1" points="385.2,66.4 349.9,45.9 367.8,39.5 403.1,60 		"/>
	</g>
	<g>
		<polygon class="st1" points="371.4,75.8 336.1,55.3 349.9,45.9 385.2,66.4 		"/>
	</g>
	<g>
		<polygon class="st1" points="359.7,87 324.4,66.5 336.1,55.3 371.4,75.8 		"/>
	</g>
	<g>
		<polygon class="st1" points="342.1,118.2 306.8,97.7 313,82.7 348.2,103.2 		"/>
	</g>
	<g>
		<path class="st1" d="M426.8,155.8l5.1,7.8l-8.9,10.5l-5.6-8.5l-1.1-7.2l-0.9,0.5l-12.1,22.4l-21.3,18.4l-16.6,8.4l-13,2.4
			l-11.1-5.6l-4.3-12.5l0-15.4l5.5-17.4l11.9-16.9l13-11.4l12.1-7l18.1-12.9L414,95l0-8.6l-4.5-10.1l-10.7-2.9l-14.1,4.7l-11.3,8.2
			l-9.4,8.8l-8.5,11.8l-5.1,12.5l-8.5-1.2l6.1-15.1L359.7,87l11.7-11.2l13.8-9.5l17.9-6.4l14.9,4.4l6.2,14l0.2,66.3L426.8,155.8z
			 M414.1,111.9l0.4-5.9l-0.9,0.5L400,121.5l-20.2,14.4l-10.9,6.3l-10,8.7l-8.3,11.6l-3.6,11.1l0,11.2l3,8.8l7.7,3.4l10.9-1.9
			l12.3-5.7l17.6-16.1l15.5-24.9L414.1,111.9"/>
	</g>
	<g>
		<polygon class="st1" points="348.2,103.2 313,82.7 324.4,66.5 359.7,87 		"/>
	</g>
</g>
<g class="st0">
	<g>
		<polygon class="st1" points="278.7,177.4 243.5,156.9 243.2,76.7 278.5,97.2 		"/>
	</g>
	<g>
		<polygon class="st1" points="278.5,97.2 243.2,76.7 241.3,62.2 276.5,82.6 		"/>
	</g>
	<g>
		<polygon class="st1" points="276.5,82.6 241.3,62.2 234.7,54.7 269.9,75.2 		"/>
	</g>
	<g>
		<polygon class="st1" points="261.8,61.5 226.5,41 241.4,41.7 276.7,62.2 		"/>
	</g>
	<g>
		<polygon class="st1" points="243.4,69.4 208.2,48.9 226.5,41 261.8,61.5 		"/>
	</g>
	<g>
		<polygon class="st1" points="208.6,117.4 173.4,97 174.4,96.3 209.7,116.8 		"/>
	</g>
	<g>
		<polygon class="st1" points="219.9,93.8 184.6,73.3 208.2,48.9 243.4,69.4 		"/>
	</g>
	<g>
		<polygon class="st1" points="209.7,116.8 174.4,96.3 184.6,73.3 219.9,93.8 		"/>
	</g>
	<g>
		<polygon class="st1" points="201,222.5 165.8,202 165.5,95.4 200.7,115.9 		"/>
	</g>
	<g>
		<polygon class="st1" points="192.6,110 157.4,89.5 165.2,77.2 200.5,97.6 		"/>
	</g>
	<g>
		<polygon class="st1" points="200.7,115.9 165.5,95.4 157.4,89.5 192.6,110 		"/>
	</g>
	<g>
		<polygon class="st1" points="243.4,69.4 261.8,61.5 276.7,62.2 286.5,72.5 288.7,90.8 288.9,171.5 278.7,177.4 278.5,97.2 
			276.5,82.6 269.9,75.2 258.6,74.9 244.8,80.9 226.5,99.3 211,129.8 211.3,216.6 201,222.5 200.7,115.9 192.6,110 200.5,97.6 
			210.3,105 208.6,117.4 209.7,116.8 219.9,93.8 		"/>
	</g>
</g>
<g class="st0">
	<g>
		<polygon class="st1" points="131.1,178.5 95.9,158 105,137.6 140.2,158.1 		"/>
	</g>
	<g>
		<polygon class="st1" points="116.9,197 81.7,176.5 95.9,158 131.1,178.5 		"/>
	</g>
	<g>
		<polygon class="st1" points="140.2,158.1 105,137.6 107.5,122.9 142.7,143.4 		"/>
	</g>
	<g>
		<polygon class="st1" points="100.3,208.8 65.1,188.3 81.7,176.5 116.9,197 		"/>
	</g>
	<g>
		<polygon class="st1" points="142.7,143.4 107.5,122.9 104.5,114.1 139.7,134.6 		"/>
	</g>
	<g>
		<polygon class="st1" points="84.8,214.3 49.5,193.9 65.1,188.3 100.3,208.8 		"/>
	</g>
	<g>
		<polygon class="st1" points="139.7,134.6 104.5,114.1 95.7,108.4 131,128.9 		"/>
	</g>
	<g>
		<polygon class="st1" points="71.7,210.8 36.5,190.3 49.5,193.9 84.8,214.3 		"/>
	</g>
	<g>
		<polygon class="st1" points="120.7,116.4 85.5,95.9 102.1,94.9 137.3,115.4 		"/>
	</g>
	<g>
		<polygon class="st1" points="63.9,223.4 28.6,203 17.5,188.3 52.8,208.8 		"/>
	</g>
	<g>
		<polygon class="st1" points="52.8,208.8 17.5,188.3 26.2,176.9 61.5,197.4 		"/>
	</g>
	<g>
		<polygon class="st1" points="87.3,121.5 52,101 85.5,95.9 120.7,116.4 		"/>
	</g>
	<g>
		<polygon class="st1" points="141.4,49.6 106.2,29.1 96.6,22.2 131.8,42.6 		"/>
	</g>
	<g>
		<polygon class="st1" points="76,121.9 40.7,101.4 52,101 87.3,121.5 		"/>
	</g>
	<g>
		<polygon class="st1" points="123.4,27.4 88.2,6.9 103.8,9.2 139,29.7 		"/>
	</g>
	<g>
		<polygon class="st1" points="69.6,135.4 34.4,114.9 23.3,105.6 58.5,126.1 		"/>
	</g>
	<g>
		<polygon class="st1" points="104.5,34.7 69.3,14.2 88.2,6.9 123.4,27.4 		"/>
	</g>
	<g>
		<polygon class="st1" points="58.5,126.1 23.3,105.6 19.4,89.8 54.6,110.2 		"/>
	</g>
	<g>
		<polygon class="st1" points="84.7,48.8 49.5,28.3 69.3,14.2 104.5,34.7 		"/>
	</g>
	<g>
		<polygon class="st1" points="54.6,110.2 19.4,89.8 24,66.8 59.2,87.2 		"/>
	</g>
	<g>
		<polygon class="st1" points="59.2,87.2 24,66.8 35,46.9 70.3,67.4 		"/>
	</g>
	<g>
		<polygon class="st1" points="70.3,67.4 35,46.9 49.5,28.3 84.7,48.8 		"/>
	</g>
	<g>
		<polygon class="st1" points="104.5,34.7 123.4,27.4 139,29.7 149.3,37.5 141.4,49.6 131.8,42.6 119.6,40.8 104.1,46.9 88.4,58.2 
			76.9,72.9 68.6,87.7 65.3,104.3 67.8,115.1 76,121.9 87.3,121.5 120.7,116.4 137.3,115.4 148.7,123.1 153.4,136.5 149.8,157.4 
			138.6,182.8 120.3,206.5 99.9,221 80.7,228.2 63.9,223.4 52.8,208.8 61.5,197.4 71.7,210.8 84.8,214.3 100.3,208.8 116.9,197 
			131.1,178.5 140.2,158.1 142.7,143.4 139.7,134.6 131,128.9 116.7,129.8 83.3,134.9 69.6,135.4 58.5,126.1 54.6,110.2 59.2,87.2 
			70.3,67.4 84.7,48.8 		"/>
	</g>
</g>
<g class="st0">
	<g>
		<polygon class="st1" points="664.5,112.7 664.6,124.4 620.3,150 620.3,138.3 		"/>
	</g>
	<g>
		<polygon class="st1" points="620.3,150 585.1,129.5 585,117.8 620.3,138.3 		"/>
	</g>
	<g>
		<polygon class="st1" points="620.3,138.3 585,117.8 629.3,92.2 664.5,112.7 		"/>
	</g>
</g>
<g class="st0">
	<g>
		<polygon class="st1" points="878.1,146.1 842.9,125.6 849.8,111.6 885.1,132 		"/>
	</g>
	<g>
		<polygon class="st1" points="885.1,132 849.8,111.6 858,114 893.2,134.5 		"/>
	</g>
	<g>
		<polygon class="st1" points="870,157.2 834.8,136.7 842.9,125.6 878.1,146.1 		"/>
	</g>
	<g>
		<polygon class="st1" points="858.1,166.7 822.9,146.2 834.8,136.7 870,157.2 		"/>
	</g>
	<g>
		<polygon class="st1" points="847.3,170.3 812,149.8 822.9,146.2 858.1,166.7 		"/>
	</g>
	<g>
		<polygon class="st1" points="836.6,167.1 801.3,146.7 812,149.8 847.3,170.3 		"/>
	</g>
	<g>
		<polygon class="st1" points="827.7,179.6 792.4,159.2 785.3,137.3 820.6,157.8 		"/>
	</g>
	<g>
		<polygon class="st1" points="820.6,157.8 785.3,137.3 785.1,59.5 820.3,80 		"/>
	</g>
	<g>
		<polygon class="st1" points="830.5,62.4 795.3,41.9 828.9,22.5 864.2,43 		"/>
	</g>
	<g>
		<polygon class="st1" points="798.2,92.8 763,72.3 762.9,60.6 798.2,81.1 		"/>
	</g>
	<g>
		<polygon class="st1" points="798.2,81.1 762.9,60.6 785.1,47.8 820.3,68.3 		"/>
	</g>
	<g>
		<polygon class="st1" points="820.2,32.8 785,12.3 795.2,6.4 830.4,26.9 		"/>
	</g>
	<g>
		<polygon class="st1" points="820.3,68.3 785.1,47.8 785,12.3 820.2,32.8 		"/>
	</g>
	<g>
		<polygon class="st1" points="830.4,26.9 830.5,62.4 864.2,43 864.2,54.7 830.6,74.1 830.8,150.2 836.6,167.1 847.3,170.3 
			858.1,166.7 870,157.2 878.1,146.1 885.1,132 893.2,134.5 884.9,151 874.3,165.7 858.1,178.9 843,184 827.7,179.6 820.6,157.8 
			820.3,80 798.2,92.8 798.2,81.1 820.3,68.3 820.2,32.8 		"/>
	</g>
</g>
<g>
	<g class="st0">
		<g>
			<polygon class="st1" points="777.5,150.9 742.3,130.4 749.9,132.6 785.2,153.1 			"/>
		</g>
		<g>
			<polygon class="st1" points="768.8,165.7 733.6,145.3 742.3,130.4 777.5,150.9 			"/>
		</g>
		<g>
			<polygon class="st1" points="756.7,175.7 721.4,155.2 733.6,145.3 768.8,165.7 			"/>
		</g>
		<g>
			<polygon class="st1" points="743.3,177.1 708,156.6 721.4,155.2 756.7,175.7 			"/>
		</g>
		<g>
			<polygon class="st1" points="735.4,190.7 700.2,170.2 691.6,149.4 726.8,169.9 			"/>
		</g>
		<g>
			<polygon class="st1" points="726.8,169.9 691.6,149.4 691.3,67.2 726.6,87.7 			"/>
		</g>
		<g>
			<polygon class="st1" points="689.8,109 654.5,88.5 654.5,77 689.7,97.5 			"/>
		</g>
		<g>
			<polygon class="st1" points="777.5,150.9 785.2,153.1 774.2,172.2 756.5,187.3 735.4,190.7 726.8,169.9 726.6,87.7 689.8,109 
				689.7,97.5 736.8,70.3 737,161.8 743.3,177.1 756.7,175.7 768.8,165.7 			"/>
		</g>
		<g>
			<polygon class="st1" points="689.7,97.5 654.5,77 701.5,49.9 736.8,70.3 			"/>
		</g>
	</g>
	<g class="st0">
		<g>
			<polygon class="st1" points="733.4,25.2 698.2,4.7 702.5,5.2 737.7,25.7 			"/>
		</g>
		<g>
			<polygon class="st1" points="725.2,43.2 689.9,22.7 688.4,18.7 723.7,39.2 			"/>
		</g>
		<g>
			<polygon class="st1" points="729,27.8 693.7,7.3 698.2,4.7 733.4,25.2 			"/>
		</g>
		<g>
			<polygon class="st1" points="729,44.4 725.2,43.2 723.7,39.2 725.2,33 729,27.8 733.4,25.2 737.7,25.7 739,30.3 737.7,36 
				733.5,41.8 			"/>
		</g>
		<g>
			<polygon class="st1" points="723.7,39.2 688.4,18.7 689.9,12.5 725.2,33 			"/>
		</g>
		<g>
			<polygon class="st1" points="725.2,33 689.9,12.5 693.7,7.3 729,27.8 			"/>
		</g>
	</g>
</g>
</svg>
