<?xml version="1.0" encoding="utf-8"?>
<!-- Generator: Adobe Illustrator 22.0.1, SVG Export Plug-In . SVG Version: 6.00 Build 0)  -->
<svg version="1.1" id="Layer_1" xmlns="http://www.w3.org/2000/svg" xmlns:xlink="http://www.w3.org/1999/xlink" x="0px" y="0px"
	 viewBox="0 0 200 155.8" style="enable-background:new 0 0 200 155.8;" xml:space="preserve">
<g>
	<g>
		<path d="M190.4,107.2l-24.6-2.7l6.7,19.5l-30.1-6.7l-3.3,17l-20.5-14.5l-2.7,29.1l-22.4-27.5l-9,25.6l-10.8-25.6l-34.5,15
			l7.4-29.2L16,106.6l12.7-17l-27.5-14l30.7-14.2L20.4,42.1l25.3,6.6l-8.5-24.7l33.6,6.9l7.1-31.1l17.2,29.8L115.3,14l13,20.3
			l28.4-22.1l0.9,26.9l28.4-1.9l-19.3,25.3l23.6,12.4L169.6,87L190.4,107.2z"/>
	</g>
</g>
</svg>
