<?xml version="1.0" encoding="utf-8"?>
<!-- Generator: Adobe Illustrator 22.0.1, SVG Export Plug-In . SVG Version: 6.00 Build 0)  -->
<svg version="1.1" id="Layer_1" xmlns="http://www.w3.org/2000/svg" xmlns:xlink="http://www.w3.org/1999/xlink" x="0px" y="0px"
	 viewBox="0 0 236.7 179.3" style="enable-background:new 0 0 236.7 179.3;" xml:space="preserve">
<path d="M173.4,53.8l19.5-20.4c6.8-7.1,12.6-10.7,17.5-10.7c3.5,0,6.4,1.2,8.6,3.7c2.2,2.5,3.3,5.6,3.3,9.5c0,3.3-0.7,5-2.2,5
	c-1.3,0-2-0.7-2-2c0-0.3,0-0.6,0.1-1l0.4-1.2c0.5-1.4,0.7-2.5,0.7-3.3c0-2.3-0.9-4.3-2.6-5.9c-1.7-1.6-3.9-2.5-6.3-2.5
	c-4.2,0-9.6,3.5-16.2,10.5l-20.8,22c-0.8,4.2-2.8,7.7-6,10.4c-3.2,2.7-6.9,4.1-11.1,4.1c-4.9,0-8.8-1.5-11.7-4.6
	c-2.9-3-4.8-7.5-5.5-13.3c0.6-0.7,0.9-1.5,0.9-2.1c0-1-0.4-1.7-1.1-2.2c-0.7-0.5-1.8-0.7-3.3-0.7c-3.1,0-4.7,1-4.7,3
	c0,0.7,0.3,1.4,1,2c-1,6.1-2.9,10.6-5.8,13.5c-2.8,2.9-6.7,4.3-11.7,4.3c-4.9,0-9-1.8-12.4-5.3c-3.4-3.5-5.1-7.9-5.1-13l22.4-22.9
	c5.4-5.5,10.4-8.3,14.9-8.3c3.4,0,6.2,1.2,8.4,3.7s3.3,5.6,3.3,9.4c0,3.3-0.7,5-2.2,5c-1.3,0-2-0.7-2-2c0-0.3,0-0.6,0.1-1l0.4-1.2
	c0.5-1.4,0.7-2.5,0.7-3.3c0-2.3-0.8-4.2-2.5-5.8c-1.7-1.6-3.7-2.4-6.1-2.4c-4.2,0-8.9,2.6-14,7.9l-20.1,20.7h24
	c2.9,0,4.3-0.5,4.3-1.6v-0.9c0-2.9,2.4-4.4,7.1-4.4c1.8,0,3.3,0.4,4.5,1.3c1.3,0.9,1.9,1.9,1.9,3.1v0.6c0,1.3,1.5,1.9,4.4,1.9H173.4
	z M121.5,56.2h-14.6c-3,0-4.9,0.1-5.6,0.3s-1.1,0.8-1.1,1.7c0,2.6,1.6,5.1,4.7,7.5c3.1,2.4,6.4,3.6,9.7,3.6c3.3,0,6.3-1,9-3.1
	c2.7-2.1,4.1-4.4,4.1-7c0-1.3-0.4-2.1-1.1-2.5C125.8,56.4,124.1,56.2,121.5,56.2z M164.7,56.2h-14.4c-3,0-5,0.2-5.9,0.6
	s-1.3,1.3-1.3,2.6c0,2.5,1.4,4.8,4.1,6.9c2.7,2.1,5.8,3.1,9.1,3.1c3.3,0,6.5-1.2,9.6-3.7c3.1-2.4,4.7-4.9,4.7-7.5
	C170.6,56.9,168.6,56.2,164.7,56.2z"/>
<path d="M18.2,153.4V97.6c0-4,2-6,5.9-6h2.7c1.4,0,2.4-0.2,2.9-0.6s1-1.3,1.3-2.5l0.5-1.9c0.5-2,1.2-3.3,2-3.7
	c0.8-0.4,2.6-0.7,5.6-0.7h18.4c2.7,0,4.4,0.2,5.1,0.6c0.7,0.4,1.4,1.5,1.9,3.4l0.5,1.8c0.5,1.8,1.1,2.9,1.5,3.2
	c0.5,0.3,1.8,0.5,3.9,0.5h33.3c2.3,0,3.8,0.4,4.6,1.3c0.8,0.9,1.2,2.4,1.2,4.8v4.6h19.1c3.5,0,5.2,0.6,5.3,1.8
	c0,0.3-0.5,1.6-1.7,3.9l-22.8,45.4H18.2z M20.6,148.5l20.7-40.3c1.5-2.9,2.7-4.6,3.5-5.1c0.8-0.5,3-0.7,6.5-0.7h56v-4.6
	c0-2.5-1.2-3.7-3.6-3.7H70.3c-3,0-4.9-0.2-5.6-0.5C64,93.1,63.4,92,63,90.2L62.4,88c-0.4-1.6-0.9-2.5-1.4-2.9
	c-0.5-0.4-1.7-0.6-3.5-0.6H39.6c-2.1,0-3.4,0.2-4.1,0.6c-0.7,0.4-1.3,1.3-1.6,2.7L33.3,90c-0.5,1.8-1.1,3-1.7,3.4
	c-0.6,0.4-2,0.6-4.2,0.6h-3c-1.5,0-2.6,0.2-3.1,0.7c-0.5,0.5-0.7,1.5-0.7,3V148.5z M22,151.1h86.1l21.3-42.8
	c0.7-1.5,1.1-2.4,1.1-2.6c-0.1-0.7-1.1-1-3-1H49.9c-1.9,0-3.1,0.2-3.9,0.6c-0.7,0.4-1.4,1.4-2.2,2.8L22,151.1z"/>
</svg>
