<?xml version="1.0" encoding="utf-8"?>
<!-- Generator: Adobe Illustrator 22.0.1, SVG Export Plug-In . SVG Version: 6.00 Build 0)  -->
<svg version="1.1" id="Layer_1" xmlns="http://www.w3.org/2000/svg" xmlns:xlink="http://www.w3.org/1999/xlink" x="0px" y="0px"
	 viewBox="0 0 204.7 208" style="enable-background:new 0 0 204.7 208;" xml:space="preserve">
<style type="text/css">
	.st0{fill:#FFFFFF;}
</style>
<g>
	<path d="M158,179.6c0.8,1.5,1.4,2.8,1.7,4c0.4,1.2,0.5,2.2,0.5,3.2c0,1.7-0.8,3-2.5,3.9c-1.6,0.9-4.1,1.4-7.3,1.4H117
		c-2,0-3.8-0.2-5.2-0.6c-1.4-0.5-2.8-1-4.3-1.8l-68.3-40.9l-3.7-21.5l12.6-20.8l19.8-5.8l68.8,41.6c1.3,0.7,2.4,1.7,3.4,3
		c1,1.3,2,2.8,2.9,4.7L158,179.6z M69.9,120.8l-2.5-16.4l-16.7,4.8l-11.1,18.6l3.2,18.1l15.4-5.3L69.9,120.8z M121.1,180.6
		l-61.2-36.7l-13.5,4.8l64.4,38.5c1.9-0.8,3.7-1.8,5.5-2.9C118,183.2,119.7,182,121.1,180.6z M61.8,118.7c0,3.1-1.3,6.4-3.9,10
		c-2.6,3.6-5,5.3-7.2,5.3c-1.3,0-2.2-0.4-2.9-1.1c-0.7-0.7-1-1.8-1-3.1c0-3.1,1.3-6.5,3.9-10.1c2.6-3.7,4.9-5.5,7.1-5.5
		c1.2,0,2.2,0.5,2.9,1.3C61.4,116.2,61.8,117.3,61.8,118.7z M133.5,162L72,124.9l-9.5,15.8l61.7,37.1c2.1-2.2,4-4.6,5.6-7.2
		C131.3,167.9,132.5,165.1,133.5,162z M136.4,146l-64.6-39l2.1,14.3l60.8,36.8c0.5-1.8,0.9-3.7,1.2-5.7
		C136.1,150.4,136.3,148.3,136.4,146z M142.2,188.3c2.6,0,4.9-0.9,6.9-2.6s2.9-3.8,2.9-6.3c0-1-0.2-2.2-0.6-3.5s-1.2-3-2.3-5.1
		l-9.3-18.9c-0.7,8-2.9,15.1-6.8,21c-3.8,6-9.3,11.1-16.5,15.4H142.2z"/>
</g>
<g>
	<polygon class="st0" points="139.7,68.1 152.4,53.5 151.4,30.4 132.2,24.7 115.8,24.7 95.9,25.8 87.6,35.4 89.2,53.5 113,78.6 
		112.5,83.7 93.1,104.7 89.1,117.1 90.1,127.8 93.9,132.6 112.5,137.4 141.9,135.4 150.4,130.1 152.4,118.3 152.4,110.5 130.2,86.3 
		128.1,78.4 	"/>
	<g>
		<path d="M87.6,125.1v-5.7c0-4.8,0.6-8.7,1.8-11.5c1.2-2.8,3.7-6.3,7.6-10.4l9.9-10.4c3.1-3.4,4.8-5.5,4.8-6.5
			c0-1.1-1.9-3.6-5.8-7.5l-10-10.2c-3.4-3.4-5.6-6.6-6.7-9.4c-1.1-2.9-1.6-6.9-1.6-12v-6.1c0-4.2,2.7-7.4,8.3-9.5s13.9-3.2,24.9-3.2
			c22.2,0,33.3,4.2,33.3,12.7v6.1c0,5.1-0.5,9-1.6,12s-3.4,6-6.7,9.4L135.9,73c-3.8,3.9-5.7,6.4-5.7,7.5c0,1,1.6,3.2,4.7,6.5
			l9.9,10.4c3.8,4.1,6.4,7.6,7.6,10.4c1.2,2.8,1.8,6.7,1.8,11.5v5.7c0,4.6-2.8,8-8.5,10.4c-5.7,2.4-13.9,3.6-24.8,3.6
			s-19.2-1.2-24.8-3.6C90.6,133.1,87.6,129.7,87.6,125.1z M91.2,37.3v7.2c0,3.5,0.5,6.1,1.5,7.9s3.6,5,7.7,9.5l8.5,9
			c4.2,4.7,6.4,7.9,6.4,9.8c0,1.9-1.9,5-5.8,9.2l-9.8,10.4c-3.8,4-6.1,7-7,9c-0.9,2-1.4,5-1.4,9v5.4c0,3.3,1.2,5.5,3.6,6.8
			c5.8,3.1,14.4,4.8,26,4.8c11.7,0,20.4-1.6,26-4.8c2.4-1.3,3.6-3.5,3.6-6.8v-5.4c0-4-0.5-7-1.4-9c-0.9-2-3.3-5-7-9l-9.7-10.4
			c-3.8-4.2-5.8-7.4-5.8-9.5c0-1.7,2.1-4.8,6.4-9.5l8.4-9c4.1-4.5,6.7-7.6,7.7-9.5c1-1.8,1.5-4.6,1.5-7.9v-7.2
			c-6.9,4.4-16.7,6.5-29.6,6.5c-6.4,0-12.2-0.5-17-1.6C98.8,41.1,94.6,39.5,91.2,37.3z M120.8,40.2c6.9,0,13.2-0.7,19.1-2.3
			c5.8-1.6,8.7-3.2,8.6-5c-0.1-1.8-2.7-3.4-8-4.7c-5.3-1.3-11.8-1.8-19.6-1.8s-14.4,0.6-19.7,1.9s-7.9,2.8-7.9,4.8
			c0,1.7,2.9,3.4,8.8,4.9C107.8,39.4,114.1,40.2,120.8,40.2z M95,125.3c0.8-3,3.8-5.8,9-8.5l6.6-3.4c4.1-2.1,6.7-3.6,7.5-4.4
			c0.8-0.7,1.7-2.4,2.8-5c1.1,2.6,2,4.3,2.8,5s3.3,2.2,7.4,4.4l6.6,3.4c5.2,2.7,8.1,5.6,9,8.5c-6.3,3.2-15,4.8-25.9,4.8
			S101.3,128.5,95,125.3z M99.2,52.1c7.4,4.7,14.6,7,21.7,7c7,0,14.3-2.4,21.7-7c-1.3,2-4,5.3-8.2,9.9l-6.2,6.9
			c-2.8,3-4.5,5.1-5.1,6.3s-1.1,3.4-1.5,6.7c-0.1,1-0.4,2.5-0.6,4.5c-0.4-2-0.5-3.5-0.6-4.5c-0.4-3.3-0.9-5.6-1.6-6.7
			c-0.6-1.1-2.3-3.3-5.1-6.3l-6.2-6.9C103.1,57.4,100.4,54.1,99.2,52.1z"/>
	</g>
</g>
</svg>
