<?xml version="1.0" encoding="utf-8"?>
<!-- Generator: Adobe Illustrator 22.0.1, SVG Export Plug-In . SVG Version: 6.00 Build 0)  -->
<svg version="1.1" id="Layer_1" xmlns="http://www.w3.org/2000/svg" xmlns:xlink="http://www.w3.org/1999/xlink" x="0px" y="0px"
	 viewBox="0 0 204.7 208" style="enable-background:new 0 0 204.7 208;" xml:space="preserve">
<g>
	<path d="M140,121.4c2.2-6.8,5.5-12,10-15.6c4.5-3.5,9.9-5.3,16.3-5.3c7.5,0,13.6,2.3,18.2,6.9c4.6,4.6,6.9,10.7,6.9,18.3
		c0,6.7-1.6,12-4.8,16c-3.2,4-9.3,8-18.4,11.8l-1.2,0.5c-14.9,6.3-23.9,13.3-27,21c-3.2-7.8-12.2-14.8-27-21c-0.5-0.2-1-0.4-1.3-0.5
		c-9.1-3.8-15.2-7.7-18.4-11.7c-3.2-4-4.8-9.4-4.8-16.1c0-7.6,2.3-13.7,6.9-18.3c4.6-4.6,10.7-6.9,18.2-6.9c6.4,0,11.9,1.8,16.3,5.3
		C134.4,109.4,137.8,114.6,140,121.4z"/>
</g>
<g>
	<path d="M129,42.4c4.8,8.2,7.2,15.6,7.2,22.1V67c0,4-0.9,6.9-2.6,8.5c-1.8,1.6-4.9,2.4-9.4,2.4c-12.7,0-19-4.6-19-13.7v-4.1
		c0-3.1-0.4-5.3-1.3-6.7c-0.9-1.3-2.8-2.6-5.6-3.7c-5-2-12.5-3-22.7-3c-10.3,0-17.9,1.1-22.9,3.2c-4.3,1.9-6.5,5.2-6.5,10v3.9
		c0,9.3-6.4,14-19.3,14c-4.3,0-7.4-0.7-9.1-2.2s-2.6-4.1-2.6-7.7v-3c0-6.3,2.4-13.9,7.2-22.6c7.4-3,15.5-5.3,24.3-6.8
		c8.8-1.5,18.4-2.3,28.7-2.3c10.4,0,20.1,0.8,29.1,2.3C113.3,37.1,121.5,39.4,129,42.4z M18.3,64.7v2.1c0,2.6,0.7,4.6,2.2,5.9
		s3.6,2,6.4,2c5.1,0,9.2-0.9,12.3-2.8c2.5-1.5,3.8-4.1,3.8-7.8v-2.5C37.9,64.5,32.4,66,26.8,66C23.3,66,20.4,65.5,18.3,64.7z
		 M127.1,45.1c-7.5-2.9-15.6-5-24.2-6.5c-8.7-1.4-17.9-2.1-27.7-2.1c-9.7,0-18.9,0.7-27.4,2.1c-8.5,1.4-16.4,3.6-23.7,6.5
		c-2.4,5.5-4.2,11-5.2,16.5c2.2,0.8,4.6,1.2,7.1,1.2c5.1,0,10.8-1.5,17.1-4.6v-1c0-9,10.7-13.5,32.1-13.5c22.1,0,33.2,4.5,33.2,13.5
		v1c6.6,3.1,12.4,4.6,17.4,4.6c2.5,0,4.8-0.4,6.7-1.2C131.3,55.4,129.5,49.9,127.1,45.1z M66.1,66h19.1V54h14.3v15.1l15.7,25
		c3.6,5.7,5.7,9.7,6.4,12c0.7,2.3,1.1,6.4,1.1,12.4v12.9H28.7v-12.9c0-5.2,0.5-9.4,1.4-12.6c1-3.2,3-7.2,6-12l15.6-24.8V54h14.4V66z
		 M62.9,69.1V57.2h-8v12.9L39.9,94c-3.8,5.9-6.1,10.1-6.9,12.5c-0.8,2.4-1.2,6.4-1.2,11.9v9.7h87.7v-9.6c0-6.2-0.3-10.1-0.9-11.9
		c-0.6-1.8-2.9-6-7-12.5L96.4,69.6V57.2h-8v11.9H62.9z M58.1,76.3h8V82h-8V76.3z M58.1,85.9h8v5.6h-8V85.9z M58.1,95.5h8v5.6h-8
		V95.5z M71.7,76.3h7.9V82h-7.9V76.3z M71.7,85.9h7.9v5.6h-7.9V85.9z M71.7,95.5h8v5.6h-8V95.5z M85.2,76.3h7.9V82h-7.9V76.3z
		 M85.2,85.9h7.9v5.6h-7.9V85.9z M85.2,95.5h7.9v5.6h-7.9V95.5z M133.1,64.8c-1.7,0.8-4.1,1.2-7.1,1.2c-6.5,0-12.3-1.4-17.6-4.3v3.9
		c0,2.5,1.5,4.5,4.5,6.1c3,1.6,6.9,2.4,11.8,2.4c3.3,0,5.6-0.5,6.7-1.5c1.2-1,1.7-2.9,1.7-5.8V64.8z"/>
</g>
</svg>
