<?xml version="1.0" encoding="utf-8"?>
<!-- Generator: Adobe Illustrator 22.0.1, SVG Export Plug-In . SVG Version: 6.00 Build 0)  -->
<svg version="1.1" id="Layer_1" xmlns="http://www.w3.org/2000/svg" xmlns:xlink="http://www.w3.org/1999/xlink" x="0px" y="0px"
	 viewBox="0 0 200 200" style="enable-background:new 0 0 200 200;" xml:space="preserve">
<style type="text/css">
	.st0{fill:#FFFFFF;}
</style>
<g>
	<path d="M128.7,136l4.9,10.1c2.4,4.9,3.6,9.6,3.6,14.1v7.8H29.3v-7.8c0-4.5,1.2-9.2,3.6-14.1l4.9-10.1H128.7z M126.5,139.3H39.6
		l-4.3,9.2c-1.8,3.9-2.7,7.1-2.7,9.5v6.6h101.2v-2.5c0-4.6-1-9.1-3.1-13.7L126.5,139.3z M128.7,66.9v65.7H37.7V66.9H128.7z
		 M125.4,70.2H41v59h84.4V70.2z M44.3,115.5V84c0-4.6,0.6-7.5,1.7-8.7c1.1-1.1,4.1-1.7,8.8-1.7h56.6c4.7,0,7.7,0.6,8.8,1.7
		s1.7,4,1.7,8.7v31.6c0,4.6-0.6,7.5-1.7,8.6c-1.2,1.1-4.1,1.7-8.8,1.7H54.9c-4.7,0-7.6-0.6-8.8-1.7C44.9,123,44.3,120.1,44.3,115.5z
		 M44.8,143.5h8.4v3.3h8.6v-3.3h8.3v3.3h8.5v-3.3H87v3.3h8.5v-3.3h8.3v3.3h8.5v-3.3h8.4v3.3h-8.3v3.5h8.3v3.2h-8.4v-3.2h-8.5v3.2
		h-8.3v-3.2h-8.6v3.2h-8.3v-3.2h-8.5v3.2h-8.3v-3.2h-8.6v3.2h-8.4v-3.3h8.3v-3.3h-8.3V143.5z M47.7,84v31.5c0,3.1,0.4,5.1,1.2,5.9
		c0.8,0.8,2.8,1.2,6,1.2h56.4c3.3,0,5.3-0.4,6.2-1.1s1.2-2.7,1.2-5.7V83.8c0-3.1-0.4-5-1.3-5.7c-0.8-0.8-2.9-1.2-6.1-1.2H54.9
		c-3.2,0-5.2,0.4-6,1.1C48.1,78.8,47.7,80.8,47.7,84z M61.7,150.2h8.4V147h-8.4V150.2z M78.6,150.2H87V147h-8.3V150.2z M95.5,150.2
		h8.3V147h-8.3V150.2z"/>
</g>
<g>
	<polygon class="st0" points="169.8,113.3 133.8,65.5 103.1,59.4 87.8,75.6 86.3,91.7 92.2,91.1 97.3,79.4 102.2,77.6 108.1,73.6 
		112.4,78.2 118.7,84 118.2,91.8 111.3,94.4 102.2,93.5 93.6,94.4 87.8,99.7 103.1,107.9 117.4,109.7 132.8,117.5 148.1,123.8 
		154.1,128.5 	"/>
	<g>
		<path d="M148.1,123.8c-11-1.6-20.4-5.7-28.2-12.3l-15.4-1.6l-19.7-8.3c3.3-7,8-10.5,14.1-10.5c1.3,0,2.8,0.2,4.3,0.6
			s3.2,1.1,4.9,2c3.5-1,6.3-1.8,8.6-2.4c0.5-2.9,0.8-5.2,0.8-6.8c-3.8-2.8-6.9-5.6-9.3-8.3c-2.8,1.6-5.9,3.1-9.4,4.5
			c-0.8,9.1-5.7,13.6-14.6,13.6V74.2l15.8-14.7l-13-11c-6-5-9-9.5-9-13.4c0-2.8,1.4-5.6,4.1-8.5l22.4,16.3l-2.2-4.9
			c-1.9-4.2-2.9-8-2.9-11.3c0-4.5,2.6-8,7.9-10.4l15.1,26.8l0.6-4.8c1-9,5.1-13.5,12.2-13.5c0.5,0,1.3,0,2.4,0.1
			c-0.4,3.1-0.6,6.9-0.6,11.3c0,10.6,0.8,22.3,2.5,35.1l32.5,42.8c-4.9,9-10.7,14.6-17.5,16.7L148.1,123.8z M126.9,63.1L83.1,31.5
			c-0.8,1.3-1.2,2.5-1.2,3.7c0,3.3,3.3,7.6,9.8,12.9l13,10.6L126.9,63.1z M149.3,120.2l6.5,7.2c5.4-3.4,9.6-7.9,12.5-13.3
			l-35.2-45.9l-30-6.7L87.8,75.6v15.2c5.2-1.2,7.8-4.5,7.8-10c0-0.7,0-1.5-0.1-2.5c5.1-1.6,9.5-3.8,13.3-6.4
			c3.4,3.6,7.5,7.4,12.4,11.3c0,3.2-0.6,6.9-1.9,11.1c-2,0.4-3.9,0.8-5.7,1.3c-2.7,0.8-4.7,1.4-6.1,1.7c-1.4-1-2.7-1.7-4.1-2.2
			s-2.8-0.7-4.2-0.7c-3.6,0-6.7,1.9-9.2,5.5l15.6,6.6l15.4,1.4C129.1,115.3,138.6,119.4,149.3,120.2z M128.5,60.3l-22.1-39.2
			c-2.2,1.5-3.3,3.4-3.3,5.7c0,3,1.3,7.3,4,13l3.3,7.2L128.5,60.3z M135.5,65.5c-1.1-8.8-1.7-18.5-1.7-29.1c0-2.1,0.1-4.9,0.3-8.4
			c-2.9,0.8-4.9,2.3-6,4.5c-1.1,2.2-1.7,5.8-1.7,10.8c0,1.4,0.1,3.7,0.4,6.9L135.5,65.5z"/>
	</g>
</g>
</svg>
