<?xml version="1.0" encoding="utf-8"?>
<!-- Generator: Adobe Illustrator 22.0.1, SVG Export Plug-In . SVG Version: 6.00 Build 0)  -->
<svg version="1.1" id="Layer_1" xmlns="http://www.w3.org/2000/svg" xmlns:xlink="http://www.w3.org/1999/xlink" x="0px" y="0px"
	 viewBox="0 0 200 155.8" style="enable-background:new 0 0 200 155.8;" xml:space="preserve">
<style type="text/css">
	.st0{fill:#FFFFFF;}
</style>
<g>
	<path class="st0" d="M86.1,153.6c-0.8-3-2.5-8.6-5.4-14.3c-5.7-11-13.6-16.8-22.6-16.8c-7.9,0-16.7,4.4-26.3,13
		c3.5-6.8,7.5-17.7,3.1-26.1c-4-7.7-14-11.6-29.9-11.6c-0.5,0-1,0-1.5,0c5.2-4.2,16.4-14.9,17.1-28.2c0.4-8-3.2-15.5-10.5-22.5
		c2.2,0.3,5.5,0.5,9.2,0.5c9.5,0,22.6-1.8,31-10.3c5.2-5.2,8-12.4,8.4-21.2c2.9,2.6,9.4,7.3,19.1,7.3c12.1,0,24.9-7.2,38-21.4
		c1.4,8.6,8.8,40.1,40.5,40.1c7.9,0,16.7-2,26.4-5.8c-7.1,6.3-17.7,18.1-17.2,32.7c0.4,12.1,8.5,23.5,23.9,33.9
		c-5.3-1.7-12-3.2-18.6-3.2c-8.4,0-14.8,2.5-19.1,7.5c-5.6,6.5-7.5,17.1-5.7,31.5c-3.7-2.5-12.5-7.5-23.5-7.5
		C108.8,131.1,96.5,138.7,86.1,153.6z"/>
	<path d="M115,4c0.8,4.1,2.5,10.6,6,17.2c7.5,14.2,19.7,21.7,35.2,21.7c6.7,0,14.1-1.4,22.2-4.2c-6.8,6.9-14.4,17.5-13.9,30.1
		c0.4,11.1,7,21.7,19.8,31.4c-4.2-1-8.8-1.8-13.4-1.8c-8.7,0-15.4,2.7-19.9,7.9c-5.5,6.4-7.6,16.5-6.1,30.2
		c-4.5-2.7-12.5-6.5-22.3-6.5c-13.5,0-25.6,7.1-36,21.1c-0.9-3.2-2.5-7.9-5-12.5c-5.9-11.4-14.1-17.4-23.5-17.4
		c-7.1,0-15,3.4-23.5,10.3c2.8-6.8,4.9-15.6,1.2-22.9c-4.1-7.9-14-11.9-29.5-12.1c5.7-5.1,14.8-15,15.3-27.1
		c0.4-7.5-2.6-14.6-8.8-21.3c1.9,0.2,4.1,0.3,6.6,0.3c9.7,0,23-1.8,31.7-10.6c5-5,7.8-11.7,8.5-19.9c3.5,2.7,9.7,6.3,18.2,6.3
		C89.6,24.3,102.2,17.4,115,4 M116.4-0.4c-15.8,17.7-28.9,22.7-38.7,22.7c-12.9,0-20-8.7-20-8.7C57.9,42,34.4,46.5,19.3,46.5
		c-7.1,0-12.4-1-12.4-1c31.9,26.7-6.5,53.2-6.5,53.2C2,98.7,3.5,98.6,5,98.6c52.2,0,22.2,42.5,22.2,42.5
		c12.7-13,22.9-17.8,30.9-17.8c21.1,0,27.6,32.6,27.6,32.6c12.4-18.6,25.8-23.9,36.9-23.9c14.3,0,24.8,8.6,24.8,8.6
		c-4.8-32.3,8.9-40.2,23.5-40.2c13.9,0,28.6,7.2,28.6,7.2C131.6,70,189.5,32,189.5,32c-13.4,6.4-24.3,8.9-33.3,8.9
		C120.1,40.9,116.4-0.4,116.4-0.4L116.4-0.4z"/>
</g>
</svg>
